<svg xmlns="http://www.w3.org/2000/svg" xmlns:xlink="http://www.w3.org/1999/xlink" viewBox="0 0 375 245"><defs><style>.cls-1{fill:#fff;}.cls-12,.cls-2,.cls-3{fill:#3c3c41;}.cls-2{opacity:0.05;}.cls-2,.cls-3{isolation:isolate;}.cls-3{opacity:0.18;}.cls-4{fill:url(#Degradado_sin_nombre);}.cls-5{fill:#003067;}.cls-6{fill:#50e6ff;}.cls-7{fill:url(#Degradado_sin_nombre_2);}.cls-8{fill:url(#Degradado_sin_nombre_3);}.cls-10,.cls-11,.cls-13,.cls-14,.cls-15,.cls-16,.cls-9{fill:none;stroke:#3c3c41;stroke-linecap:round;stroke-miterlimit:10;}.cls-10{stroke-dasharray:0.96 2.88 3.84 2.88;}.cls-11{stroke-dasharray:3.84 2.88 0.96 2.88 3.84 2.88;}.cls-13{stroke-dasharray:0.95 2.86 3.81 2.86;}.cls-14{stroke-dasharray:3.81 2.86 0.95 2.86 3.81 2.86;}.cls-15{stroke-dasharray:0.86 2.58 3.44 2.58;}.cls-16{stroke-dasharray:3.44 2.58 0.86 2.58 3.44 2.58;}.cls-17{fill:url(#Degradado_sin_nombre_4);}.cls-18{fill:#b4ec36;}.cls-19{fill:#5ea0ef;}.cls-20{font-size:12px;font-family:SegoeUI-Bold, Segoe UI;font-weight:700;}.cls-20,.cls-32,.cls-36,.cls-38{fill:#1e1e1e;}.cls-21{letter-spacing:0em;}.cls-22{letter-spacing:-0.01em;}.cls-23{fill:#6ebcdb;}.cls-24{fill:#5db4d7;}.cls-25{fill:#e6e6e6;}.cls-26{fill:#86d633;}.cls-27{letter-spacing:-0.07em;}.cls-28{letter-spacing:0.01em;}.cls-29{letter-spacing:-0.01em;}.cls-30{letter-spacing:-0.01em;}.cls-31{letter-spacing:-0.01em;}.cls-32,.cls-36,.cls-38{font-size:11px;font-family:SegoeUI-Semibold, Segoe UI;font-weight:600;}.cls-32{letter-spacing:-0.02em;}.cls-33{letter-spacing:-0.04em;}.cls-34{letter-spacing:-0.04em;}.cls-35{letter-spacing:-0.02em;}.cls-36{letter-spacing:-0.02em;}.cls-37{letter-spacing:-0.04em;}.cls-38{letter-spacing:-0.02em;}.cls-39{letter-spacing:-0.03em;}</style><linearGradient id="Degradado_sin_nombre" x1="240.52" y1="344.72" x2="240.52" y2="376.72" gradientTransform="translate(0 -298)" gradientUnits="userSpaceOnUse"><stop offset="0" stop-color="#b3b2b3"/><stop offset="0.38" stop-color="#afaeaf"/><stop offset="0.76" stop-color="#a2a2a2"/><stop offset="1" stop-color="#979797"/></linearGradient><linearGradient id="Degradado_sin_nombre_2" x1="240.52" y1="423.22" x2="240.52" y2="455.22" xlink:href="#Degradado_sin_nombre"/><linearGradient id="Degradado_sin_nombre_3" x1="240.52" y1="503.4" x2="240.52" y2="535.4" xlink:href="#Degradado_sin_nombre"/><linearGradient id="Degradado_sin_nombre_4" x1="144.48" y1="457.63" x2="144.48" y2="422.85" gradientTransform="translate(0 -298)" gradientUnits="userSpaceOnUse"><stop offset="0" stop-color="#5e9624"/><stop offset="0.02" stop-color="#5f9724"/><stop offset="1" stop-color="#76bc2d"/></linearGradient></defs><title>OJ105690781</title><g id="bg"><rect class="cls-1" y="35" width="375" height="210"/><rect class="cls-2" y="35" width="375" height="210"/><rect class="cls-1" width="375" height="35"/><rect class="cls-3" width="375" height="35"/></g><g id="shapes"><path class="cls-4" d="M250.91,77.63a1.16,1.16,0,0,1-1.2,1.09H231.33a1.16,1.16,0,0,1-1.2-1.09V47.81a1.16,1.16,0,0,1,1.2-1.09h18.38a1.16,1.16,0,0,1,1.2,1.09Z"/><path class="cls-5" d="M233.19,60.4a2.39,2.39,0,0,1,2.22-2.5h10.38A2.37,2.37,0,0,1,248,60.4h0a2.37,2.37,0,0,1-2.12,2.6H235.45a2.39,2.39,0,0,1-2.22-2.49Z"/><path class="cls-5" d="M233.19,53a2.38,2.38,0,0,1,2.22-2.49h10.38A2.38,2.38,0,0,1,248,53h0a2.4,2.4,0,0,1-2.21,2.5H235.45a2.4,2.4,0,0,1-2.22-2.5Z"/><circle class="cls-6" cx="236.1" cy="53" r="1.66"/><circle class="cls-6" cx="236.1" cy="60.4" r="1.66"/><path class="cls-7" d="M250.91,156.13a1.16,1.16,0,0,1-1.2,1.09H231.33a1.16,1.16,0,0,1-1.2-1.09V126.31a1.16,1.16,0,0,1,1.2-1.09h18.38a1.16,1.16,0,0,1,1.2,1.09Z"/><path class="cls-5" d="M233.19,138.9a2.39,2.39,0,0,1,2.22-2.5h10.38a2.37,2.37,0,0,1,2.21,2.5h0a2.37,2.37,0,0,1-2.13,2.59H235.45a2.39,2.39,0,0,1-2.22-2.49Z"/><path class="cls-5" d="M233.19,131.5a2.38,2.38,0,0,1,2.22-2.49h10.38A2.38,2.38,0,0,1,248,131.5h0a2.4,2.4,0,0,1-2.21,2.5H235.45a2.4,2.4,0,0,1-2.22-2.5Z"/><circle class="cls-6" cx="236.1" cy="131.5" r="1.66"/><circle class="cls-6" cx="236.1" cy="138.9" r="1.66"/><path class="cls-8" d="M250.91,236.31a1.16,1.16,0,0,1-1.2,1.09H231.33a1.16,1.16,0,0,1-1.2-1.09V206.48a1.15,1.15,0,0,1,1.2-1.08h18.38a1.15,1.15,0,0,1,1.2,1.08Z"/><path class="cls-5" d="M233.19,219.08a2.4,2.4,0,0,1,2.22-2.51h10.38a2.4,2.4,0,0,1,2.21,2.51h0a2.38,2.38,0,0,1-2.13,2.59H235.45a2.38,2.38,0,0,1-2.22-2.48Z"/><path class="cls-5" d="M233.19,211.67a2.38,2.38,0,0,1,2.22-2.48h10.38a2.36,2.36,0,0,1,2.21,2.48h0a2.4,2.4,0,0,1-2.21,2.51H235.45a2.4,2.4,0,0,1-2.22-2.51Z"/><circle class="cls-6" cx="236.1" cy="211.67" r="1.66"/><circle class="cls-6" cx="236.1" cy="219.08" r="1.66"/><line class="cls-9" x1="144.27" y1="160.45" x2="144.27" y2="158.45"/><line class="cls-10" x1="144.27" y1="155.57" x2="144.27" y2="146.44"/><path class="cls-11" d="M144.27,145V66.89a5,5,0,0,1,5-5h68.28"/><line class="cls-9" x1="218.99" y1="61.89" x2="220.99" y2="61.89"/><polygon class="cls-12" points="219.9 65.63 226.37 61.89 219.9 58.15 219.9 65.63"/><line class="cls-9" x1="143.77" y1="193.29" x2="143.77" y2="195.29"/><line class="cls-13" x1="143.77" y1="198.14" x2="143.77" y2="207.19"/><path class="cls-14" d="M143.77,208.62v7.62a5,5,0,0,0,5,5h68.79"/><line class="cls-9" x1="218.99" y1="221.24" x2="220.99" y2="221.24"/><polygon class="cls-12" points="219.9 224.98 226.37 221.24 219.9 217.5 219.9 224.98"/><line class="cls-9" x1="158.46" y1="142.11" x2="160.46" y2="142.11"/><line class="cls-15" x1="163.04" y1="142.11" x2="171.22" y2="142.11"/><line class="cls-16" x1="172.51" y1="142.11" x2="217.7" y2="142.11"/><line class="cls-9" x1="218.99" y1="142.11" x2="220.99" y2="142.11"/><polygon class="cls-12" points="219.9 145.85 226.37 142.11 219.9 138.37 219.9 145.85"/><path class="cls-17" d="M129.77,140.83l14-14a1,1,0,0,1,1.41,0h0l14,14a1,1,0,0,1,0,1.41h0l-14,14a1,1,0,0,1-1.4,0l-14-14a1,1,0,0,1,0-1.41Z"/><path class="cls-18" d="M148.13,133.22l-3.53-3.52a.2.2,0,0,0-.27,0l-3.53,3.52a.16.16,0,0,0,0,.21l0,0a.16.16,0,0,0,.17.07h2a.18.18,0,0,1,.18.18V137a.21.21,0,0,0,.19.19h2.2a.19.19,0,0,0,.18-.19v-3.3a.18.18,0,0,1,.18-.18H148a.17.17,0,0,0,.2-.13A.14.14,0,0,0,148.13,133.22Z"/><path class="cls-18" d="M136.13,137.57l-3.49,3.54a.17.17,0,0,0,0,.24h0l3.49,3.52a.19.19,0,0,0,.26,0,.2.2,0,0,0,.06-.14v-2a.19.19,0,0,1,.18-.19H140a.16.16,0,0,0,.16-.16h0v-2.22a.16.16,0,0,0,0-.23h-3.4a.17.17,0,0,1-.18-.15v-2a.2.2,0,0,0-.37-.13Z"/><path class="cls-18" d="M152.93,144.88l3.55-3.53a.18.18,0,0,0,0-.25l-3.55-3.53a.18.18,0,0,0-.25,0h0a.21.21,0,0,0,0,.11v2.08a.17.17,0,0,1-.16.17h-3.35a.16.16,0,0,0-.17.15h0v2.22a.17.17,0,0,0,.15.18h3.35a.19.19,0,0,1,.18.19v2.06a.18.18,0,0,0,.2.16h0Z"/><path class="cls-1" d="M149.12,141.55a4.65,4.65,0,1,0-5.9,4.45v1.58a2.86,2.86,0,1,0,2.61,0v-1.67A4.63,4.63,0,0,0,149.12,141.55Z"/><circle id="e99c3387-15c3-4f28-bd4b-cb209b430e06" class="cls-19" cx="144.48" cy="141.53" r="2.7"/></g><g id="txt"><text class="cls-20" transform="translate(112.87 172.94)">Azu<tspan class="cls-21" x="21.45" y="0">r</tspan><tspan x="26.17" y="0">e L</tspan><tspan class="cls-22" x="42.11" y="0">o</tspan><tspan x="49.33" y="0">ad </tspan><tspan x="7.46" y="13.2">Balancer</tspan></text><g id="ad94e297-0e86-4eaf-aac0-d146ee9aea65"><path class="cls-23" d="M69.16,24.14l-3.63-3.75a1.73,1.73,0,0,1-.6.11,1.88,1.88,0,0,1,0-3.76,1.86,1.86,0,0,1,1.76,1.18h3.58v1.26H66.75c-.06.15-.13.29-.2.44l3.34,3.45,1.82-2.76V11.65H69.27l3.1-3.12,3,3.12H72.93v6.77l4.59-7L72.89,6.79a.8.8,0,0,0-1.13,0h0L60.55,18a.8.8,0,0,0,0,1.13h0L71.76,30.34l-4-4Z"/><path class="cls-24" d="M71.68,24.3v-4l-1.82,2.77L71.2,24.5A1.26,1.26,0,0,1,71.68,24.3Z"/><path class="cls-24" d="M84.08,18l-6.56-6.57-4.59,7v5.89a1.27,1.27,0,0,1,.41.23l4.82-4.87a2.78,2.78,0,0,1-.24-.49H74.31V17.92H78a1.87,1.87,0,1,1,3.46,1.42,1.85,1.85,0,0,1-1.72,1.16,3.28,3.28,0,0,1-.52-.08l-5.12,5.16a2,2,0,0,1,.08.48,1.88,1.88,0,0,1-3.76.15,2,2,0,0,1,.1-.7l-1.33-1.33-1.43,2.13,4,4a.79.79,0,0,0,1.12,0h0l11.21-11.2a.79.79,0,0,0,0-1.12h0Z"/><path class="cls-25" d="M78,17.92H74.31v1.26h3.61a2.11,2.11,0,0,1-.09-.56A2.08,2.08,0,0,1,78,17.92Z"/><path class="cls-25" d="M66.72,19.18h3.52V17.92H66.66a1.55,1.55,0,0,1,.15.7A1.77,1.77,0,0,1,66.72,19.18Z"/><path class="cls-25" d="M74.07,25.58l5.12-5.16a2.07,2.07,0,0,1-1-.75l-4.82,4.87A1.7,1.7,0,0,1,74.07,25.58Z"/><path class="cls-25" d="M71.24,24.5,69.9,23.07l-3.38-3.45a1.92,1.92,0,0,1-1,.77l3.63,3.75,1.33,1.33A1.88,1.88,0,0,1,71.24,24.5Z"/><path class="cls-1" d="M75.37,11.65l-3-3.12-3.08,3.12h2.44V24.3a1.58,1.58,0,0,0-.44.2,1.88,1.88,0,0,0-.5,2.6,1.91,1.91,0,0,0,1,.74,1.86,1.86,0,0,0,2.33-1.25,1.89,1.89,0,0,0,.08-.53,2,2,0,0,0-.08-.48,1.72,1.72,0,0,0-.73-1,1.27,1.27,0,0,0-.41-.23V11.65Zm-3,15.45a1,1,0,1,1,1-1h0A1,1,0,0,1,72.37,27.1Z"/><path class="cls-1" d="M66.52,19.62c.07-.15.14-.29.2-.44a1.77,1.77,0,0,0,.09-.56,1.55,1.55,0,0,0-.15-.7,1.87,1.87,0,1,0-1.73,2.58,1.73,1.73,0,0,0,.6-.11A1.9,1.9,0,0,0,66.52,19.62Zm-1.59,0a1,1,0,1,1,1-1h0a1,1,0,0,1-1,1.08h0Z"/><path class="cls-1" d="M79.19,20.42a3.28,3.28,0,0,0,.52.08A1.88,1.88,0,1,0,78,17.92a2.08,2.08,0,0,0-.14.7,2.11,2.11,0,0,0,.09.56,2.78,2.78,0,0,0,.24.49A2,2,0,0,0,79.19,20.42Zm.52-2.83a1,1,0,0,1,.92,1.08.17.17,0,0,1,0,.07,1,1,0,0,1-2.06,0,1,1,0,0,1,.84-1.14h.07a1,1,0,0,1,.24,0Z"/><path class="cls-26" d="M72.37,25a1,1,0,0,0,0,2.08,1,1,0,0,0,1-1h0A1,1,0,0,0,72.46,25Z"/><circle class="cls-26" cx="64.93" cy="18.62" r="1.04"/><path class="cls-26" d="M79.71,19.66a1,1,0,1,0,0-2.08,1,1,0,0,0-1,1h0a1,1,0,0,0,.92,1.08Z"/></g><text class="cls-20" transform="translate(90 21.86)">П<tspan class="cls-22" x="9.18" y="0">р</tspan><tspan x="16.51" y="0">авило N</tspan><tspan class="cls-27" x="64.81" y="0">A</tspan><tspan x="72.41" y="0">T </tspan><tspan class="cls-28" x="82.75" y="0">д</tspan><tspan x="90.28" y="0">ля в</tspan><tspan class="cls-29" x="114.6" y="0">х</tspan><tspan class="cls-30" x="121.15" y="0">о</tspan><tspan x="128.38" y="0">дяще</tspan><tspan class="cls-31" x="159.94" y="0">г</tspan><tspan x="164.69" y="0">о т</tspan><tspan class="cls-22" x="180.8" y="0">р</tspan><tspan x="188.12" y="0">афика</tspan></text><text class="cls-32" transform="translate(12.46 116.68)">Внешний ин<tspan class="cls-33" x="61.84" y="0">т</tspan><tspan x="66.18" y="0">ерфейс:</tspan><tspan x="51.64" y="13.2">По</tspan><tspan class="cls-34" x="65.87" y="13.2">р</tspan><tspan class="cls-35" x="72.1" y="13.2">т: 3389</tspan></text><text class="cls-36" transform="translate(72.27 143.92)">По<tspan class="cls-37" x="14.12" y="0">р</tspan><tspan x="20.29" y="0">т 443</tspan></text><text class="cls-32" transform="translate(78.34 157.12)">По<tspan class="cls-34" x="14.23" y="0">р</tspan><tspan class="cls-35" x="20.46" y="0">т 80</tspan></text><text class="cls-32" transform="translate(257.56 58.45)">Серверная часть:<tspan x="0" y="13.2">По</tspan><tspan class="cls-34" x="14.23" y="13.2">р</tspan><tspan class="cls-35" x="20.46" y="13.2">т: 3389</tspan></text><text class="cls-32" transform="translate(257.56 136.95)">Серверная часть:<tspan x="0" y="13.2">По</tspan><tspan class="cls-34" x="14.23" y="13.2">р</tspan><tspan class="cls-35" x="20.46" y="13.2">т 443</tspan></text><text class="cls-38" transform="translate(257.56 217.13)">Серверная часть:<tspan x="0" y="13.2">По</tspan><tspan class="cls-39" x="14.34" y="13.2">р</tspan><tspan x="20.62" y="13.2">т 80</tspan></text></g></svg>