<svg xmlns="http://www.w3.org/2000/svg" viewBox="0 0 224.94 200.3"><title>OJ104440668</title><path d="M210.52,79H190a1.09,1.09,0,0,0-1.09,1.1V96.88A1.09,1.09,0,0,0,190,98h5.28a3.29,3.29,0,0,0,3.21,2.27,3.38,3.38,0,0,0,0-6.75,3.29,3.29,0,0,0-3.21,2.27h-4.19v-12h18.31v12H206a7.61,7.61,0,0,0-7.46-6.56,8.25,8.25,0,0,0-3.64.92l1,2a5.27,5.27,0,0,1,2.55-.67,5.46,5.46,0,0,1,0,10.91,5.27,5.27,0,0,1-2.55-.67l-1,2a7.51,7.51,0,0,0,3.64.92A7.61,7.61,0,0,0,206,98h4.55a1.09,1.09,0,0,0,1.09-1.1V80.13A1.14,1.14,0,0,0,210.52,79Z" fill="#008bfd" fill-rule="evenodd"/><path d="M73.65,106H59.44V77.6H73.65v7.67h.76V76.83H58.68v29.91H74.41v-2.32h-.76Z" fill="#0078d7" fill-rule="evenodd"/><path d="M72.88,78.39H60.24V83H72.88ZM63.3,80.31h6.53v.76H63.3Zm6.59,1.84H63.27v-.76h6.62Z" fill="#0078d7" fill-rule="evenodd"/><path d="M60.21,83.74V86.8h8.6V85.27h4.08V83.74Z" fill="#0078d7" fill-rule="evenodd"/><rect x="60.21" y="87.57" width="8.6" height="2.68" fill="#0078d7"/><path d="M60.21,105.21H72.86v-.8H68.78V91h-8.6v14.17Zm1.53-2.74H64v1.21H61.74Z" fill="#0078d7" fill-rule="evenodd"/><path d="M83.43,102.15H81v-1.87H78.46v1.87H76a1.32,1.32,0,0,0-1.31,1.15h10A1.29,1.29,0,0,0,83.43,102.15Z" fill="#0078d7" fill-rule="evenodd"/><path d="M88.27,88.17H71.17a.65.65,0,0,0-.67.61V98.91a.65.65,0,0,0,.67.6h17.1a.64.64,0,0,0,.67-.6V88.78A.63.63,0,0,0,88.27,88.17Zm-1,9.84H72.19V89.7H87.25Z" fill="#0078d7" fill-rule="evenodd"/><path d="M83.63,95.52V92.08l-3.51-1.84L76.62,92v3.54l3.5,1.81Zm-4.4-2.29.89-.45.86.45-.86.48Zm0-1.15.86-.44.86.44-.86.48Zm1.91,4.53-1,.51v-.93l1-.51Zm0-1.18-1,.51V95l1-.51Zm0-1.12-1,.51V93.9l1-.51Zm-.82-1.65.86-.45.89.45-.86.44Zm2,3.34-.95.51v-.92l.95-.51Zm0-1.18-.95.51v-.92l.95-.51Zm0-1.14-.95.51v-.9l.95-.51Zm1.05,1.75-.86.44V95l.86-.45Zm0-1.15-.86.45V93.8l.86-.44Zm0-1.14-.86.44v-.92l.86-.45Zm-.19-1.06-.89.45-.89-.45.86-.44Zm-1.11-.57-.89.45-.86-.45.86-.44Zm-2-1.05.86.45-.86.44-.89-.44ZM79,91.07l.86.44L79,92l-.86-.45Zm-1.08.57.89.44-.89.45-.9-.45Zm-.26,4.27-.86-.45v-.92l.86.44Zm0-1.18-.86-.45v-.92l.86.44Zm0-1.15-.86-.44v-.9l.86.45Zm1.18,2.93-1-.51v-.92l1,.51Zm0-1.18-1-.51V93.9l1,.51Zm0-1.14-1-.51v-.9l1,.51Zm-.7-1.53.89-.45.86.45-.89.48ZM80,97.12l-1-.51v-.89l1,.5ZM80,96l-1-.51v-.92l1,.51Zm0-1.15-1-.51v-.92l1,.51Z" fill="#0078d7" fill-rule="evenodd"/><path d="M84.06,154.79H63.56a1.09,1.09,0,0,0-1.09,1.1v16.75a1.09,1.09,0,0,0,1.09,1.1h5.28A3.29,3.29,0,0,0,72.05,176a3.38,3.38,0,0,0,0-6.75,3.29,3.29,0,0,0-3.21,2.27H64.65v-12H83v12H79.51A7.61,7.61,0,0,0,72.05,165a8.25,8.25,0,0,0-3.64.92l1,2a5.27,5.27,0,0,1,2.55-.67,5.46,5.46,0,0,1,0,10.91,5.27,5.27,0,0,1-2.55-.67l-1,2a7.51,7.51,0,0,0,3.64.92,7.61,7.61,0,0,0,7.46-6.56h4.55a1.09,1.09,0,0,0,1.09-1.1V155.89A1.14,1.14,0,0,0,84.06,154.79Z" fill="#008bfd" fill-rule="evenodd"/><g style="isolation:isolate"><path d="M37.37,184.84l-1.51,3.43a3.61,3.61,0,0,1-.78,1.23,1.23,1.23,0,0,1-.82.33,1.61,1.61,0,0,1-.62-.1v-.59a1.11,1.11,0,0,0,.57.18.73.73,0,0,0,.51-.21,2.75,2.75,0,0,0,.5-.76l-1.66-3.51h.66l1.17,2.62.13.32h0s.06-.13.14-.33l1.09-2.61Z" fill="#008bfd"/><path d="M40.63,189.75h-.56v-3H38.28v3h-.56v-3.5h2.91Z" fill="#008bfd"/><path d="M42.16,189.24h0v2.12h-.56v-5.11h.56v.61h0a1.34,1.34,0,0,1,1.21-.7,1.31,1.31,0,0,1,1.06.47,2,2,0,0,1,.38,1.26,2.2,2.2,0,0,1-.43,1.41,1.44,1.44,0,0,1-1.17.53A1.19,1.19,0,0,1,42.16,189.24Zm0-1.41v.49a1,1,0,0,0,.28.73,1,1,0,0,0,1.51-.08,1.74,1.74,0,0,0,.29-1.09A1.39,1.39,0,0,0,44,187a.89.89,0,0,0-.73-.33,1,1,0,0,0-.79.34A1.27,1.27,0,0,0,42.15,187.83Z" fill="#008bfd"/><path d="M48,189.75h-.56v-.55h0a1.18,1.18,0,0,1-1.08.63,1.13,1.13,0,0,1-.82-.28,1,1,0,0,1-.29-.73c0-.66.38-1,1.15-1.15l1-.14c0-.6-.24-.89-.72-.89a1.71,1.71,0,0,0-1.14.43v-.58a2.15,2.15,0,0,1,1.19-.33c.82,0,1.23.44,1.23,1.31ZM47.47,188l-.84.11a1.31,1.31,0,0,0-.59.2.55.55,0,0,0-.2.49.51.51,0,0,0,.18.41.73.73,0,0,0,.49.17.89.89,0,0,0,.69-.3,1,1,0,0,0,.27-.74Z" fill="#008bfd"/><path d="M48.91,189.75v-3.5h1.53a1.32,1.32,0,0,1,.81.22.84.84,0,0,1-.37,1.46q.81.1.81.81a.94.94,0,0,1-.33.72,1.23,1.23,0,0,1-.82.29Zm.56-3v1h.84c.46,0,.68-.18.68-.53s-.2-.46-.61-.46Zm0,1.47v1.08h1c.46,0,.68-.19.68-.55s-.25-.53-.76-.53Z" fill="#008bfd"/><path d="M55,189.75h-.56v-3h-.81a7.14,7.14,0,0,1-.48,2.39,1,1,0,0,1-.92.68,1,1,0,0,1-.3,0v-.49a.59.59,0,0,0,.26.07c.51,0,.83-1,1-3.08H55Z" fill="#008bfd"/><path d="M58.35,189.75h-.56V188.3h-.47c-.22,0-.43.18-.61.54l-.46.91H55.6l.59-1.08a1,1,0,0,1,.5-.5,1,1,0,0,1-.63-.3.91.91,0,0,1-.21-.62.89.89,0,0,1,.33-.73,1.49,1.49,0,0,1,1-.27h1.22Zm-.56-1.92v-1.11h-.66c-.47,0-.71.18-.71.54s.23.57.69.57Z" fill="#008bfd"/><path d="M60.86,188.16h-1v1.59h-.56v-3.5h.56v1.43h1a1.77,1.77,0,0,1,.53-1.12,1.64,1.64,0,0,1,1.13-.4,1.45,1.45,0,0,1,1.16.48,2.34,2.34,0,0,1,0,2.69,1.54,1.54,0,0,1-1.21.5,1.48,1.48,0,0,1-1.14-.44A1.85,1.85,0,0,1,60.86,188.16Zm1.61-1.52c-.7,0-1,.45-1,1.36s.36,1.36,1.06,1.36,1-.45,1-1.36S63.17,186.64,62.47,186.64Z" fill="#008bfd"/><path d="M69.81,191h-.49v-1.27h-4.5v-3.5h.56v3h1.39v-3h.56v3h1.4v-3h.56v3h.52Z" fill="#008bfd"/><path d="M72.92,189.75h-.56v-.55h0a1.19,1.19,0,0,1-1.08.63,1.13,1.13,0,0,1-.82-.28.94.94,0,0,1-.29-.73c0-.66.38-1,1.15-1.15l1-.14c0-.6-.24-.89-.72-.89a1.71,1.71,0,0,0-1.14.43v-.58a2.15,2.15,0,0,1,1.19-.33c.82,0,1.23.44,1.23,1.31ZM72.36,188l-.84.11a1.31,1.31,0,0,0-.59.2.55.55,0,0,0-.2.49.51.51,0,0,0,.18.41.71.71,0,0,0,.49.17.89.89,0,0,0,.69-.3,1,1,0,0,0,.27-.74Z" fill="#008bfd"/><path d="M76.19,189.75h-.56V188.3h-.46c-.23,0-.43.18-.62.54l-.45.91h-.65l.58-1.08a1.09,1.09,0,0,1,.5-.5,1,1,0,0,1-.63-.3.91.91,0,0,1-.21-.62.87.87,0,0,1,.34-.73,1.46,1.46,0,0,1,.94-.27h1.22Zm-.56-1.92v-1.11H75c-.47,0-.71.18-.71.54s.23.57.69.57Z" fill="#008bfd"/><path d="M81.8,189.75h-.57v-3H79.45v3h-.56v-3.5H81.8Z" fill="#008bfd"/><path d="M83.33,189.24h0v2.12h-.56v-5.11h.56v.61h0a1.34,1.34,0,0,1,1.21-.7,1.31,1.31,0,0,1,1.06.47,2,2,0,0,1,.38,1.26,2.2,2.2,0,0,1-.43,1.41,1.44,1.44,0,0,1-1.17.53A1.19,1.19,0,0,1,83.33,189.24Zm0-1.41v.49a1,1,0,0,0,.28.73.9.9,0,0,0,.71.31.94.94,0,0,0,.8-.39,1.81,1.81,0,0,0,.29-1.09,1.39,1.39,0,0,0-.27-.91.89.89,0,0,0-.73-.33,1,1,0,0,0-.79.34A1.27,1.27,0,0,0,83.32,187.83Z" fill="#008bfd"/><path d="M88.16,189.83a1.61,1.61,0,0,1-1.24-.49,1.81,1.81,0,0,1-.46-1.3,1.9,1.9,0,0,1,.48-1.38,1.72,1.72,0,0,1,1.3-.5,1.54,1.54,0,0,1,1.22.49,2.19,2.19,0,0,1,0,2.67A1.66,1.66,0,0,1,88.16,189.83Zm0-3.19a1.09,1.09,0,0,0-.86.36,1.59,1.59,0,0,0-.31,1,1.44,1.44,0,0,0,.32,1,1.07,1.07,0,0,0,.85.36A1,1,0,0,0,89,189a1.53,1.53,0,0,0,.29-1,1.6,1.6,0,0,0-.29-1A1,1,0,0,0,88.2,186.64Z" fill="#008bfd"/><path d="M92.57,186.72H91.18v3h-.56v-3.5h1.95Z" fill="#008bfd"/><path d="M93.7,189.24h0v2.12h-.56v-5.11h.56v.61h0a1.34,1.34,0,0,1,1.21-.7,1.31,1.31,0,0,1,1.06.47,2,2,0,0,1,.38,1.26,2.2,2.2,0,0,1-.43,1.41,1.43,1.43,0,0,1-1.17.53A1.19,1.19,0,0,1,93.7,189.24Zm0-1.41v.49a1,1,0,0,0,.28.73,1,1,0,0,0,1.51-.08,1.74,1.74,0,0,0,.29-1.09,1.39,1.39,0,0,0-.27-.91.89.89,0,0,0-.73-.33A1,1,0,0,0,94,187,1.27,1.27,0,0,0,93.69,187.83Z" fill="#008bfd"/><path d="M99.57,189.75H99v-.55h0a1.18,1.18,0,0,1-1.08.63,1.13,1.13,0,0,1-.82-.28,1,1,0,0,1-.29-.73c0-.66.38-1,1.15-1.15l1.05-.14c0-.6-.24-.89-.72-.89a1.71,1.71,0,0,0-1.14.43v-.58a2.15,2.15,0,0,1,1.19-.33c.82,0,1.23.44,1.23,1.31ZM99,188l-.84.11a1.31,1.31,0,0,0-.59.2.55.55,0,0,0-.2.49.51.51,0,0,0,.18.41.73.73,0,0,0,.49.17.89.89,0,0,0,.69-.3,1,1,0,0,0,.27-.74Z" fill="#008bfd"/><path d="M104.23,189.75h-.55v-2.89c-.05.15-.13.36-.23.64l-.88,2.25h-.5l-.9-2.25c0-.12-.13-.33-.23-.64v2.89h-.49v-3.5h.72l.92,2.28c.07.17.15.4.25.69l.25-.68.9-2.29h.74Z" fill="#008bfd"/><path d="M109,189.75h-.55v-2.89c0,.15-.13.36-.23.64l-.88,2.25h-.5l-.9-2.25c0-.12-.13-.33-.23-.64v2.89h-.49v-3.5h.72l.92,2.28c.07.17.15.4.25.69l.25-.68.9-2.29H109Z" fill="#008bfd"/><path d="M112.44,189.75h-.56v-.55h0a1.16,1.16,0,0,1-1.07.63,1.13,1.13,0,0,1-.82-.28.94.94,0,0,1-.3-.73c0-.66.39-1,1.16-1.15l1-.14c0-.6-.24-.89-.72-.89a1.69,1.69,0,0,0-1.14.43v-.58a2.15,2.15,0,0,1,1.19-.33c.82,0,1.23.44,1.23,1.31Zm-.56-1.77-.85.11a1.27,1.27,0,0,0-.58.2.53.53,0,0,0-.2.49.51.51,0,0,0,.18.41.71.71,0,0,0,.49.17.89.89,0,0,0,.69-.3,1,1,0,0,0,.27-.74Z" fill="#008bfd"/><path d="M113.83,189l-.54,1.68h-.4l.4-1.68Z" fill="#008bfd"/><path d="M41.36,198.15v-3.5h1.53a1.26,1.26,0,0,1,.81.23.74.74,0,0,1,.3.62.77.77,0,0,1-.67.83c.54.07.8.34.8.81a1,1,0,0,1-.32.72,1.24,1.24,0,0,1-.82.29Zm.56-3v1h.84c.46,0,.68-.18.68-.53s-.2-.45-.61-.45Zm0,1.46v1.08h1c.46,0,.68-.19.68-.55s-.25-.53-.76-.53Z" fill="#008bfd"/><path d="M44.9,198.15v-3.5h.56V196h.94a1.21,1.21,0,0,1,.85.28,1,1,0,0,1,.32.78,1,1,0,0,1-.32.8,1.12,1.12,0,0,1-.8.3Zm.56-1.68v1.2h.84c.46,0,.7-.21.7-.62s-.24-.58-.71-.58Zm3.26,1.68h-.55v-3.5h.55Z" fill="#008bfd"/><path d="M49.39,198.05v-.55a2.2,2.2,0,0,0,1.07.25c.62,0,.93-.19.93-.58s-.34-.59-1-.59H50v-.47h.33c.59,0,.89-.19.89-.55a.43.43,0,0,0-.21-.38,1,1,0,0,0-.56-.14,2.27,2.27,0,0,0-1,.26v-.53a3.16,3.16,0,0,1,1.07-.21c.85,0,1.28.31,1.28.94a.84.84,0,0,1-.19.53,1,1,0,0,1-.53.29h0a1,1,0,0,1,.62.27.78.78,0,0,1,.24.59.9.9,0,0,1-.39.76,1.75,1.75,0,0,1-1.06.28A2.72,2.72,0,0,1,49.39,198.05Z" fill="#008bfd"/><path d="M52.63,198.15v-3.5h.56V196h1a1.21,1.21,0,0,1,.85.28,1,1,0,0,1,.32.78,1,1,0,0,1-.32.8,1.12,1.12,0,0,1-.8.3Zm.56-1.68v1.2H54c.47,0,.7-.21.7-.62s-.23-.58-.7-.58Zm3.27,1.68h-.55v-3.5h.55Z" fill="#008bfd"/><path d="M57.42,198.15v-3.5H59a1.26,1.26,0,0,1,.81.23.74.74,0,0,1,.3.62.77.77,0,0,1-.67.83q.81.1.81.81a.94.94,0,0,1-.33.72,1.23,1.23,0,0,1-.82.29Zm.56-3v1h.85c.45,0,.67-.18.67-.53s-.2-.45-.61-.45Zm0,1.46v1.08h1c.45,0,.68-.19.68-.55s-.26-.53-.77-.53Z" fill="#008bfd"/><path d="M63.46,198.15H62.9v-.55h0a1.17,1.17,0,0,1-1.08.63A1.13,1.13,0,0,1,61,198a1,1,0,0,1-.29-.73c0-.66.38-1,1.15-1.14l1-.15c0-.6-.24-.89-.72-.89a1.71,1.71,0,0,0-1.14.43v-.58a2.15,2.15,0,0,1,1.19-.33c.82,0,1.23.44,1.23,1.31Zm-.56-1.77-.84.11a1.31,1.31,0,0,0-.59.2.55.55,0,0,0-.2.49.49.49,0,0,0,.19.41.69.69,0,0,0,.48.17.89.89,0,0,0,.69-.3,1,1,0,0,0,.27-.74Z" fill="#008bfd"/><path d="M65.9,196.56h-1v1.59h-.57v-3.5h.57v1.43h1a1.77,1.77,0,0,1,.53-1.12,1.64,1.64,0,0,1,1.13-.4,1.45,1.45,0,0,1,1.16.48,2.34,2.34,0,0,1,0,2.69,1.54,1.54,0,0,1-1.21.5,1.48,1.48,0,0,1-1.14-.44A1.85,1.85,0,0,1,65.9,196.56ZM67.51,195c-.7,0-1.05.45-1.05,1.36s.36,1.36,1.06,1.36,1-.45,1-1.36S68.21,195,67.51,195Z" fill="#008bfd"/><path d="M74.85,199.42h-.49v-1.27h-4.5v-3.5h.56v3h1.39v-3h.56v3h1.4v-3h.56v3h.52Z" fill="#008bfd"/><path d="M78,198.15H77.4v-.55h0a1.19,1.19,0,0,1-1.08.63,1.13,1.13,0,0,1-.82-.28.94.94,0,0,1-.29-.73c0-.66.38-1,1.15-1.14l1.05-.15c0-.6-.24-.89-.72-.89a1.71,1.71,0,0,0-1.14.43v-.58a2.15,2.15,0,0,1,1.19-.33c.82,0,1.23.44,1.23,1.31Zm-.56-1.77-.84.11a1.31,1.31,0,0,0-.59.2.55.55,0,0,0-.2.49.51.51,0,0,0,.18.41.71.71,0,0,0,.49.17.89.89,0,0,0,.69-.3,1,1,0,0,0,.27-.74Z" fill="#008bfd"/><path d="M81.23,198.15h-.56V196.7h-.46c-.23,0-.44.18-.62.54l-.45.91h-.65l.58-1.08a1.09,1.09,0,0,1,.5-.5,1,1,0,0,1-.63-.3.91.91,0,0,1-.21-.62.89.89,0,0,1,.33-.73,1.49,1.49,0,0,1,1-.27h1.22Zm-.56-1.92v-1.1H80c-.47,0-.71.17-.71.53s.23.57.69.57Z" fill="#008bfd"/><path d="M83.93,198.15v-3.5h1.52a1.27,1.27,0,0,1,.82.23.74.74,0,0,1,.3.62.77.77,0,0,1-.67.83c.53.07.8.34.8.81a.94.94,0,0,1-.33.72,1.21,1.21,0,0,1-.82.29Zm.56-3v1h.84c.45,0,.68-.18.68-.53s-.2-.45-.61-.45Zm0,1.46v1.08h1c.45,0,.68-.19.68-.55s-.25-.53-.76-.53Z" fill="#008bfd"/><path d="M90.28,196.54H87.8a1.31,1.31,0,0,0,.32.9,1.1,1.1,0,0,0,.83.32,1.71,1.71,0,0,0,1.08-.39v.52a2,2,0,0,1-1.22.34,1.47,1.47,0,0,1-1.16-.48,2.21,2.21,0,0,1,0-2.67,1.5,1.5,0,0,1,1.15-.52,1.31,1.31,0,0,1,1.06.45,1.85,1.85,0,0,1,.38,1.23Zm-.58-.48a1.14,1.14,0,0,0-.23-.75.81.81,0,0,0-.64-.27.91.91,0,0,0-.68.28,1.31,1.31,0,0,0-.34.74Z" fill="#008bfd"/><path d="M93.66,192.92v.53a1.07,1.07,0,0,1-.46.15,6.91,6.91,0,0,0-1.07.23.92.92,0,0,0-.5.46,2.5,2.5,0,0,0-.25,1h0a1.33,1.33,0,0,1,1.17-.6,1.44,1.44,0,0,1,1.12.48,1.8,1.8,0,0,1,.42,1.25,1.85,1.85,0,0,1-.44,1.29,1.52,1.52,0,0,1-1.19.49,1.48,1.48,0,0,1-1.25-.57,2.69,2.69,0,0,1-.43-1.64,5.14,5.14,0,0,1,.16-1.4,2,2,0,0,1,.43-.87,1.5,1.5,0,0,1,.62-.4,11.46,11.46,0,0,1,1.17-.26A1.61,1.61,0,0,0,93.66,192.92Zm-2.29,3v.49a1.89,1.89,0,0,0,.08.53,1.47,1.47,0,0,0,.23.47,1,1,0,0,0,.34.3,1.15,1.15,0,0,0,.46.1,1,1,0,0,0,.76-.35,1.41,1.41,0,0,0,.29-.9,1.45,1.45,0,0,0-.3-1,1,1,0,0,0-.8-.35A1.14,1.14,0,0,0,91.37,195.87Z" fill="#008bfd"/><path d="M96.62,196.42H94.75V196h1.87Z" fill="#008bfd"/><path d="M101.32,198.15h-.63l-.52-1.38H98.09l-.49,1.38H97l1.88-4.9h.59ZM100,196.26l-.77-2.09a2,2,0,0,1-.08-.33h0a1.59,1.59,0,0,1-.08.33l-.76,2.09Z" fill="#008bfd"/><path d="M102.44,196.29v1.86h-.57v-4.9h1.34a1.75,1.75,0,0,1,1.22.38,1.35,1.35,0,0,1,.43,1.08,1.5,1.5,0,0,1-.48,1.14,1.81,1.81,0,0,1-1.29.44Zm0-2.53v2h.6a1.35,1.35,0,0,0,.91-.27.94.94,0,0,0,.31-.76c0-.65-.38-1-1.15-1Z" fill="#008bfd"/><path d="M106.19,198.15h-.58v-4.9h.58Z" fill="#008bfd"/></g><path d="M17.37,169.49H10.65a.59.59,0,0,1-.61-.57v-6.44H12v-1.77H24.4a.59.59,0,0,1,.62.57v.09a6.4,6.4,0,0,1,1,.33v-.42a1.53,1.53,0,0,0-1.58-1.46h-13L9.08,162v6.9a1.51,1.51,0,0,0,1.57,1.46h7.28A5.8,5.8,0,0,1,17.37,169.49Z" fill="gray" fill-rule="evenodd"/><path d="M26,171l2.34,3.26-2.17-.54-.61,1.64-2.34-2.88-1.75,2.88-.8-1.74-2.17.54,2.14-3.42s.58.92,2.69.92S26,171,26,171Z" fill="gray" fill-rule="evenodd"/><path d="M23.43,170.42a3.43,3.43,0,1,1,0-6.83,3.43,3.43,0,1,1,0,6.83Zm0-6.06a2.66,2.66,0,1,0,2.9,2.65A2.78,2.78,0,0,0,23.43,164.36Z" fill="gray" fill-rule="evenodd"/><path d="M23.43,172.23a5.24,5.24,0,1,1,0-10.45,5.24,5.24,0,1,1,0,10.45Zm0-9.69a4.48,4.48,0,1,0,0,8.93,4.48,4.48,0,1,0,0-8.93Z" fill="gray" fill-rule="evenodd"/><rect x="104.46" y="61.11" width="114.21" height="20" fill="none"/><g style="isolation:isolate"><path d="M119.6,74.11H119V69.74h-2.56v4.37h-.57v-4.9h3.72Z" fill="#00b0f0"/><path d="M122.08,74.19a1.61,1.61,0,0,1-1.24-.49,1.8,1.8,0,0,1-.46-1.3,1.89,1.89,0,0,1,.48-1.37,1.74,1.74,0,0,1,1.3-.5,1.57,1.57,0,0,1,1.22.48,1.88,1.88,0,0,1,.44,1.34,1.86,1.86,0,0,1-.47,1.34A1.65,1.65,0,0,1,122.08,74.19Zm0-3.19a1,1,0,0,0-.85.37,1.49,1.49,0,0,0-.32,1,1.43,1.43,0,0,0,.32,1,1.08,1.08,0,0,0,.85.36,1,1,0,0,0,.84-.35,1.89,1.89,0,0,0,0-2A1,1,0,0,0,122.12,71Z" fill="#00b0f0"/><path d="M126.74,71.09h-1v3h-.56v-3h-1v-.48h2.66Z" fill="#00b0f0"/><path d="M128.7,74.19a1.63,1.63,0,0,1-1.24-.49,1.8,1.8,0,0,1-.46-1.3,1.89,1.89,0,0,1,.48-1.37,1.74,1.74,0,0,1,1.3-.5A1.59,1.59,0,0,1,130,71a1.93,1.93,0,0,1,.44,1.34,1.86,1.86,0,0,1-.48,1.34A1.64,1.64,0,0,1,128.7,74.19Zm0-3.19a1,1,0,0,0-.85.37,1.49,1.49,0,0,0-.32,1,1.43,1.43,0,0,0,.32,1,1.08,1.08,0,0,0,.85.36,1,1,0,0,0,.84-.35,1.89,1.89,0,0,0,0-2A1,1,0,0,0,128.74,71Z" fill="#00b0f0"/><path d="M134.07,74.11h-.78l-1.55-1.68h0v1.68h-.56v-3.5h.56v1.61h0l1.47-1.61h.73l-1.62,1.69Z" fill="#00b0f0"/><path d="M139,70.61l-1.61,4.06c-.29.73-.69,1.09-1.21,1.09a1.31,1.31,0,0,1-.37,0v-.51a1.05,1.05,0,0,0,.33.06.67.67,0,0,0,.64-.5l.28-.66-1.37-3.5h.63l.94,2.7a2.35,2.35,0,0,1,.07.26h0s0-.14.07-.26l1-2.7Z" fill="#00b0f0"/><path d="M142.25,74.11h-.56V72.7a2.35,2.35,0,0,1-1.14.34c-.78,0-1.17-.42-1.17-1.25V70.61h.56v1.16c0,.51.22.77.66.77a2.4,2.4,0,0,0,1.09-.3V70.61h.56Z" fill="#00b0f0"/><path d="M146,72.5h-2.47a1.35,1.35,0,0,0,.31.91,1.09,1.09,0,0,0,.83.31,1.76,1.76,0,0,0,1.09-.39v.53a2.08,2.08,0,0,1-1.23.33,1.46,1.46,0,0,1-1.16-.47,2,2,0,0,1-.42-1.34,1.93,1.93,0,0,1,.46-1.34,1.49,1.49,0,0,1,1.15-.51,1.32,1.32,0,0,1,1.06.44,1.87,1.87,0,0,1,.38,1.24Zm-.58-.47a1.15,1.15,0,0,0-.23-.76.8.8,0,0,0-.64-.27.88.88,0,0,0-.67.29,1.26,1.26,0,0,0-.35.74Z" fill="#00b0f0"/><path d="M148.89,71.09h-1v3h-.56v-3h-1.05v-.48h2.66Z" fill="#00b0f0"/><path d="M152.29,74.11h-.56V72.52H150v1.59h-.56v-3.5H150v1.44h1.78V70.61h.56Z" fill="#00b0f0"/><path d="M153.25,74.11v-3.5h.56V72h.95a1.23,1.23,0,0,1,.85.28,1,1,0,0,1,.31.78,1,1,0,0,1-.31.8,1.18,1.18,0,0,1-.81.29Zm.56-1.67v1.19h.84c.47,0,.7-.2.7-.61s-.23-.58-.7-.58Zm3.27,1.67h-.55v-3.5h.55Z" fill="#00b0f0"/><path d="M160.6,70.61l-1.18,1.77,1.16,1.73h-.65L159.24,73l-.16-.27h0l-.16.27-.7,1.13h-.65l1.2-1.71-1.14-1.79h.65l.68,1.2.14.27h0l.87-1.47Z" fill="#00b0f0"/><path d="M165.88,75.39h-.48V74.11h-2.6v1.28h-.48V73.64h.31a5.24,5.24,0,0,0,.91-3h1.82v3h.52Zm-1.09-1.75V71.09H164a5.43,5.43,0,0,1-.8,2.55Z" fill="#00b0f0"/><path d="M169,74.11h-.56v-.54h0a1.2,1.2,0,0,1-1.08.62,1.18,1.18,0,0,1-.82-.27,1,1,0,0,1-.29-.74c0-.65.38-1,1.15-1.14l1-.15c0-.59-.24-.89-.72-.89a1.76,1.76,0,0,0-1.14.43v-.57a2.15,2.15,0,0,1,1.19-.33c.82,0,1.23.44,1.23,1.31Zm-.56-1.77-.84.12a1.32,1.32,0,0,0-.59.19.57.57,0,0,0-.2.49.54.54,0,0,0,.18.42.72.72,0,0,0,.49.16.88.88,0,0,0,.69-.29,1,1,0,0,0,.27-.74Z" fill="#00b0f0"/><path d="M172.77,74.11h-.56V72.52h-1.79v1.59h-.56v-3.5h.56v1.44h1.79V70.61h.56Z" fill="#00b0f0"/><path d="M176.63,74.11h-.56V72.52h-1.78v1.59h-.56v-3.5h.56v1.44h1.78V70.61h.56Z" fill="#00b0f0"/><path d="M177.59,74.11v-3.5h.56V72h.95a1.21,1.21,0,0,1,.85.28,1,1,0,0,1,.32.78,1,1,0,0,1-.32.8,1.16,1.16,0,0,1-.81.29Zm.56-1.67v1.19H179c.47,0,.7-.2.7-.61s-.23-.58-.7-.58Zm3.27,1.67h-.55v-3.5h.55Z" fill="#00b0f0"/><path d="M184.94,70.61l-1.18,1.77,1.16,1.73h-.65L183.58,73l-.15-.27h0l-.16.27-.7,1.13h-.64l1.19-1.71L182,70.61h.65l.68,1.2c.05.09.1.18.14.27h0l.87-1.47Z" fill="#00b0f0"/><path d="M190.07,74.11h-.79l-1.54-1.68h0v1.68h-.56v-3.5h.56v1.61h0l1.47-1.61h.73l-1.62,1.69Z" fill="#00b0f0"/><path d="M193,74.11h-.56v-3h-.81a7.07,7.07,0,0,1-.48,2.38,1,1,0,0,1-.91.69.85.85,0,0,1-.3,0v-.48a.55.55,0,0,0,.26.06c.5,0,.82-1,1-3.08H193Z" fill="#00b0f0"/><path d="M196.92,74.11h-.51V71.32c0,.1-.13.24-.23.41l-1.62,2.38H194v-3.5h.52v2.76a2.05,2.05,0,0,1,.17-.34l1.66-2.42h.59Z" fill="#00b0f0"/><path d="M200.69,72.5h-2.47a1.35,1.35,0,0,0,.31.91,1.09,1.09,0,0,0,.83.31,1.71,1.71,0,0,0,1.08-.39v.53a2,2,0,0,1-1.22.33,1.46,1.46,0,0,1-1.16-.47,2,2,0,0,1-.43-1.34A1.94,1.94,0,0,1,198.1,71a1.49,1.49,0,0,1,1.15-.51,1.32,1.32,0,0,1,1.06.44,1.87,1.87,0,0,1,.38,1.24Zm-.58-.47a1.15,1.15,0,0,0-.23-.76.81.81,0,0,0-.64-.27.92.92,0,0,0-.68.29,1.31,1.31,0,0,0-.34.74Z" fill="#00b0f0"/><path d="M204.27,74.11h-.56V72.52h-1.79v1.59h-.56v-3.5h.56v1.44h1.79V70.61h.56Z" fill="#00b0f0"/><path d="M207.42,71.09h-1v3h-.56v-3h-1.05v-.48h2.66Z" fill="#00b0f0"/><path d="M210.43,74.11h-.56v-.54h0a1.17,1.17,0,0,1-1.07.62,1.16,1.16,0,0,1-.82-.27,1,1,0,0,1-.3-.74c0-.65.39-1,1.16-1.14l1.05-.15c0-.59-.24-.89-.73-.89a1.76,1.76,0,0,0-1.14.43v-.57a2.17,2.17,0,0,1,1.19-.33c.83,0,1.24.44,1.24,1.31Zm-.56-1.77-.85.12a1.36,1.36,0,0,0-.59.19.56.56,0,0,0-.19.49.54.54,0,0,0,.18.42.69.69,0,0,0,.49.16.87.87,0,0,0,.68-.29,1,1,0,0,0,.28-.74Z" fill="#00b0f0"/></g><path d="M55.13,35.19l-1.51,3.42a3.61,3.61,0,0,1-.78,1.23,1.23,1.23,0,0,1-.82.33,1.61,1.61,0,0,1-.62-.1v-.58a1.2,1.2,0,0,0,.57.17.73.73,0,0,0,.51-.21,2.75,2.75,0,0,0,.5-.76l-1.66-3.5H52l1.17,2.61.13.32h0s.06-.13.14-.33l1.09-2.6Z" fill="#008bfd"/><path d="M58.39,40.09h-.56v-3H56v3h-.56v-3.5h2.91Z" fill="#008bfd"/><path d="M59.92,39.58h0V41.7h-.56V36.59h.56v.61h0a1.33,1.33,0,0,1,1.21-.69,1.28,1.28,0,0,1,1.06.47,1.94,1.94,0,0,1,.38,1.25,2.2,2.2,0,0,1-.43,1.41,1.44,1.44,0,0,1-1.17.53A1.19,1.19,0,0,1,59.92,39.58Zm0-1.41v.49a1.05,1.05,0,0,0,.28.74,1,1,0,0,0,1.51-.09A1.74,1.74,0,0,0,62,38.22a1.39,1.39,0,0,0-.27-.91A.89.89,0,0,0,61,37a1,1,0,0,0-.79.34A1.27,1.27,0,0,0,59.91,38.17Z" fill="#008bfd"/><path d="M65.79,40.09h-.56v-.55h0a1.18,1.18,0,0,1-1.08.63,1.13,1.13,0,0,1-.82-.28,1,1,0,0,1-.29-.73c0-.66.38-1,1.15-1.14l1-.15c0-.6-.24-.89-.72-.89a1.71,1.71,0,0,0-1.14.43v-.58a2.14,2.14,0,0,1,1.19-.32c.82,0,1.23.43,1.23,1.3Zm-.56-1.77-.84.11a1.31,1.31,0,0,0-.59.2.55.55,0,0,0-.2.49.54.54,0,0,0,.18.42.78.78,0,0,0,.49.16.91.91,0,0,0,.69-.29,1.07,1.07,0,0,0,.27-.74Z" fill="#008bfd"/><path d="M66.67,40.09v-3.5H68.2a1.26,1.26,0,0,1,.81.23.74.74,0,0,1,.3.62.77.77,0,0,1-.67.83c.54.07.8.34.8.81a1,1,0,0,1-.32.72,1.23,1.23,0,0,1-.82.29Zm.56-3v1h.84c.46,0,.68-.17.68-.53s-.2-.45-.61-.45Zm0,1.46v1.08h1c.46,0,.68-.18.68-.55s-.25-.53-.76-.53Z" fill="#008bfd"/><path d="M72.76,40.09H72.2v-3h-.81a7.14,7.14,0,0,1-.48,2.39,1,1,0,0,1-.92.69.94.94,0,0,1-.3,0v-.48a.58.58,0,0,0,.26.06c.51,0,.83-1,1-3.08h1.84Z" fill="#008bfd"/><path d="M76.11,40.09h-.56V38.64h-.47c-.22,0-.43.18-.61.55l-.46.9h-.65L74,39a1,1,0,0,1,.5-.5.92.92,0,0,1-.63-.3,1,1,0,0,1,.12-1.35,1.49,1.49,0,0,1,1-.27h1.22Zm-.56-1.92v-1.1h-.66c-.47,0-.71.17-.71.53s.23.57.69.57Z" fill="#008bfd"/><path d="M78.62,38.5h-1v1.59h-.57v-3.5h.57V38h1a1.72,1.72,0,0,1,.53-1.11,1.59,1.59,0,0,1,1.13-.4,1.45,1.45,0,0,1,1.16.47,2.34,2.34,0,0,1,0,2.69,1.54,1.54,0,0,1-1.21.5,1.48,1.48,0,0,1-1.14-.44A1.85,1.85,0,0,1,78.62,38.5ZM80.23,37c-.7,0-1,.45-1,1.36s.36,1.36,1.06,1.36,1-.45,1-1.36S80.93,37,80.23,37Z" fill="#008bfd"/><path d="M87.57,41.36h-.49V40.09h-4.5v-3.5h.56v3h1.39v-3h.56v3h1.4v-3h.56v3h.52Z" fill="#008bfd"/><path d="M90.68,40.09h-.56v-.55h0a1.19,1.19,0,0,1-1.08.63,1.13,1.13,0,0,1-.82-.28.94.94,0,0,1-.29-.73c0-.66.38-1,1.15-1.14l1.05-.15c0-.6-.24-.89-.72-.89a1.71,1.71,0,0,0-1.14.43v-.58a2.14,2.14,0,0,1,1.19-.32c.82,0,1.23.43,1.23,1.3Zm-.56-1.77-.84.11a1.31,1.31,0,0,0-.59.2.55.55,0,0,0-.2.49.54.54,0,0,0,.18.42.76.76,0,0,0,.49.16.91.91,0,0,0,.69-.29,1.07,1.07,0,0,0,.27-.74Z" fill="#008bfd"/><path d="M94,40.09h-.56V38.64h-.46c-.23,0-.44.18-.62.55l-.45.9h-.65L91.79,39a1.09,1.09,0,0,1,.5-.5.94.94,0,0,1-.63-.3.9.9,0,0,1-.21-.61.89.89,0,0,1,.34-.74,1.46,1.46,0,0,1,.94-.27H94Zm-.56-1.92v-1.1h-.66c-.47,0-.71.17-.71.53s.23.57.69.57Z" fill="#008bfd"/><path d="M59,48.49h-.56v-3H56.64v3h-.56V45H59Z" fill="#008bfd"/><path d="M60.52,48h0V50.1H60V45h.56v.61h0a1.33,1.33,0,0,1,1.21-.69,1.28,1.28,0,0,1,1.06.47,1.94,1.94,0,0,1,.38,1.25A2.2,2.2,0,0,1,62.74,48a1.44,1.44,0,0,1-1.17.53A1.19,1.19,0,0,1,60.52,48Zm0-1.41v.49a1,1,0,0,0,.28.73.92.92,0,0,0,.71.31.94.94,0,0,0,.8-.39,1.74,1.74,0,0,0,.29-1.09,1.39,1.39,0,0,0-.27-.91.89.89,0,0,0-.73-.33,1,1,0,0,0-.79.34A1.27,1.27,0,0,0,60.51,46.57Z" fill="#008bfd"/><path d="M65.35,48.57a1.61,1.61,0,0,1-1.24-.49,1.81,1.81,0,0,1-.46-1.3,1.9,1.9,0,0,1,.48-1.38,1.72,1.72,0,0,1,1.3-.49,1.57,1.57,0,0,1,1.22.48,1.86,1.86,0,0,1,.44,1.33,1.93,1.93,0,0,1-.47,1.35A1.69,1.69,0,0,1,65.35,48.57Zm0-3.19a1.07,1.07,0,0,0-.85.36,1.54,1.54,0,0,0-.32,1,1.44,1.44,0,0,0,.32,1,1.18,1.18,0,0,0,1.69,0,1.58,1.58,0,0,0,.29-1,1.6,1.6,0,0,0-.29-1A1.06,1.06,0,0,0,65.39,45.38Z" fill="#008bfd"/><path d="M69.76,45.47H68.37v3h-.56V45h2Z" fill="#008bfd"/><path d="M70.89,48h0V50.1h-.56V45h.56v.61h0a1.33,1.33,0,0,1,1.21-.69,1.28,1.28,0,0,1,1.06.47,1.94,1.94,0,0,1,.38,1.25A2.2,2.2,0,0,1,73.11,48a1.42,1.42,0,0,1-1.17.53A1.19,1.19,0,0,1,70.89,48Zm0-1.41v.49a1,1,0,0,0,.28.73,1,1,0,0,0,1.51-.08A1.74,1.74,0,0,0,73,46.62a1.39,1.39,0,0,0-.27-.91.89.89,0,0,0-.73-.33,1,1,0,0,0-.78.34A1.23,1.23,0,0,0,70.88,46.57Z" fill="#008bfd"/><path d="M76.76,48.49H76.2v-.55h0a1.17,1.17,0,0,1-1.08.63,1.13,1.13,0,0,1-.82-.28,1,1,0,0,1-.29-.73c0-.66.38-1,1.15-1.14l1-.15c0-.6-.24-.89-.72-.89a1.71,1.71,0,0,0-1.14.43v-.58a2.14,2.14,0,0,1,1.19-.32c.82,0,1.23.43,1.23,1.3Zm-.56-1.77-.84.11a1.31,1.31,0,0,0-.59.2.55.55,0,0,0-.2.49.54.54,0,0,0,.18.42.78.78,0,0,0,.49.16.91.91,0,0,0,.69-.29,1.07,1.07,0,0,0,.27-.74Z" fill="#008bfd"/><path d="M81.42,48.49h-.55V45.6l-.23.65-.88,2.24h-.5l-.9-2.24c0-.13-.13-.34-.23-.65v2.89h-.49V45h.72l.92,2.28c.07.17.15.4.25.69l.25-.68.9-2.29h.74Z" fill="#008bfd"/><path d="M86.16,48.49h-.55V45.6l-.23.65-.88,2.24H84l-.9-2.24c0-.13-.13-.34-.23-.65v2.89h-.49V45h.72L84,47.27c.07.17.15.4.25.69l.25-.68.9-2.29h.74Z" fill="#008bfd"/><path d="M89.63,48.49h-.56v-.55h0a1.19,1.19,0,0,1-1.08.63,1.13,1.13,0,0,1-.82-.28.94.94,0,0,1-.3-.73c0-.66.39-1,1.16-1.14l1-.15c0-.6-.24-.89-.72-.89a1.71,1.71,0,0,0-1.14.43v-.58a2.14,2.14,0,0,1,1.19-.32c.82,0,1.23.43,1.23,1.3Zm-.56-1.77-.84.11a1.31,1.31,0,0,0-.59.2.53.53,0,0,0-.2.49.54.54,0,0,0,.18.42.76.76,0,0,0,.49.16.91.91,0,0,0,.69-.29,1.07,1.07,0,0,0,.27-.74Z" fill="#008bfd"/><path d="M47.15,56.89v-3.5h1.52a1.27,1.27,0,0,1,.82.23.74.74,0,0,1,.3.62.77.77,0,0,1-.67.83c.53.07.8.34.8.81a.94.94,0,0,1-.33.72,1.21,1.21,0,0,1-.82.29Zm.56-3v1h.84c.45,0,.68-.18.68-.53s-.21-.45-.61-.45Zm0,1.46v1.08h1c.45,0,.68-.18.68-.55s-.25-.53-.76-.53Z" fill="#008bfd"/><path d="M53.49,55.28H51a1.31,1.31,0,0,0,.32.9,1.08,1.08,0,0,0,.83.32,1.71,1.71,0,0,0,1.08-.39v.52A2,2,0,0,1,52,57a1.47,1.47,0,0,1-1.16-.48,2.21,2.21,0,0,1,0-2.67,1.47,1.47,0,0,1,1.15-.51,1.31,1.31,0,0,1,1.06.44A1.86,1.86,0,0,1,53.49,55Zm-.57-.48a1.14,1.14,0,0,0-.23-.75.81.81,0,0,0-.64-.27.91.91,0,0,0-.68.28,1.31,1.31,0,0,0-.34.74Z" fill="#008bfd"/><path d="M56.87,51.66v.53a1,1,0,0,1-.45.15,6.91,6.91,0,0,0-1.07.23.89.89,0,0,0-.5.46,2.48,2.48,0,0,0-.26,1h0a1.33,1.33,0,0,1,1.17-.6,1.4,1.4,0,0,1,1.11.48,1.76,1.76,0,0,1,.43,1.25,1.85,1.85,0,0,1-.44,1.29,1.54,1.54,0,0,1-1.2.49,1.48,1.48,0,0,1-1.24-.57A2.67,2.67,0,0,1,54,54.76a5.6,5.6,0,0,1,.15-1.4,2,2,0,0,1,.44-.87,1.5,1.5,0,0,1,.62-.4,8.86,8.86,0,0,1,1.17-.25A1.51,1.51,0,0,0,56.87,51.66Zm-2.28,3v.49a1.89,1.89,0,0,0,.08.53,1.47,1.47,0,0,0,.23.47,1,1,0,0,0,.34.3,1.15,1.15,0,0,0,.46.1,1,1,0,0,0,.76-.35,1.4,1.4,0,0,0,.28-.9,1.45,1.45,0,0,0-.29-1,1,1,0,0,0-.8-.35A1.14,1.14,0,0,0,54.59,54.61Z" fill="#008bfd"/><path d="M59.84,55.16H58v-.44h1.87Z" fill="#008bfd"/><path d="M63.58,56.89H63v-3H61.23v3h-.56v-3.5h2.91Z" fill="#008bfd"/><path d="M65.11,56.38h0V58.5h-.56V53.39h.56V54h0a1.33,1.33,0,0,1,1.21-.69,1.3,1.3,0,0,1,1.06.46A2,2,0,0,1,67.75,55a2.19,2.19,0,0,1-.42,1.41,1.44,1.44,0,0,1-1.17.53A1.19,1.19,0,0,1,65.11,56.38Zm0-1.41v.49a1,1,0,0,0,.28.73.9.9,0,0,0,.71.31.94.94,0,0,0,.8-.39A1.81,1.81,0,0,0,67.18,55a1.39,1.39,0,0,0-.27-.91.89.89,0,0,0-.73-.33,1,1,0,0,0-.79.34A1.22,1.22,0,0,0,65.1,55Z" fill="#008bfd"/><path d="M71.41,56.89H70.9v-2.8c-.05.1-.12.24-.23.42l-1.61,2.38h-.58v-3.5H69v2.76a2.38,2.38,0,0,1,.18-.34l1.66-2.42h.58Z" fill="#008bfd"/><path d="M74.92,56.89h-.56v-3h-.81a7.14,7.14,0,0,1-.48,2.39,1,1,0,0,1-.91.69,1,1,0,0,1-.31,0v-.48a.58.58,0,0,0,.26.06c.51,0,.83-1,1-3.08h1.84Z" fill="#008bfd"/><path d="M77.34,57a1.63,1.63,0,0,1-1.24-.49,1.86,1.86,0,0,1-.46-1.3,1.9,1.9,0,0,1,.48-1.38,1.74,1.74,0,0,1,1.31-.49,1.58,1.58,0,0,1,1.22.48,2.18,2.18,0,0,1,0,2.68A1.67,1.67,0,0,1,77.34,57Zm0-3.19a1.07,1.07,0,0,0-.85.36,1.53,1.53,0,0,0-.31,1,1.44,1.44,0,0,0,.31,1,1.1,1.1,0,0,0,.85.36,1,1,0,0,0,.84-.35,1.52,1.52,0,0,0,.29-1,1.54,1.54,0,0,0-.29-1A1,1,0,0,0,77.38,53.78Z" fill="#008bfd"/><path d="M84.46,56.89H83.7l-1.57-1.73h0v1.73h-.54V55.16h0L80,56.89h-.75L81,55.08l-1.63-1.69h.71L81.57,55h0V53.39h.54V55h0l1.5-1.63h.72l-1.64,1.69Z" fill="#008bfd"/><path d="M87.67,55.28H85.2a1.3,1.3,0,0,0,.31.9,1.1,1.1,0,0,0,.83.32,1.71,1.71,0,0,0,1.08-.39v.52a2,2,0,0,1-1.21.34A1.47,1.47,0,0,1,85,56.49a2,2,0,0,1-.42-1.34,1.91,1.91,0,0,1,.46-1.33,1.49,1.49,0,0,1,1.15-.51,1.29,1.29,0,0,1,1.06.44A1.86,1.86,0,0,1,87.67,55Zm-.58-.48a1.14,1.14,0,0,0-.23-.75.8.8,0,0,0-.64-.27.88.88,0,0,0-.67.28,1.32,1.32,0,0,0-.35.74Z" fill="#008bfd"/><path d="M91.25,56.89h-.56V55.3H88.9v1.59h-.56v-3.5h.56v1.43h1.79V53.39h.56Z" fill="#008bfd"/><path d="M95.14,56.89h-.51v-2.8c0,.1-.12.24-.23.42l-1.61,2.38h-.58v-3.5h.51v2.76c0-.07.09-.18.18-.34l1.66-2.42h.58Z" fill="#008bfd"/><path d="M98.49,56.89h-.56V55.44h-.47c-.22,0-.43.18-.61.54l-.46.91h-.65l.59-1.08a1,1,0,0,1,.5-.5,1,1,0,0,1-.63-.3,1,1,0,0,1,.12-1.35,1.49,1.49,0,0,1,1-.27h1.22ZM97.93,55v-1.1h-.66c-.48,0-.71.17-.71.53s.23.57.69.57Z" fill="#008bfd"/><path d="M182.33,110.27l-1.51,3.42a3.67,3.67,0,0,1-.78,1.24,1.23,1.23,0,0,1-.82.33,1.51,1.51,0,0,1-.61-.11v-.58a1.05,1.05,0,0,0,.56.18.74.74,0,0,0,.51-.22,2.51,2.51,0,0,0,.51-.75l-1.67-3.51h.66l1.17,2.62a3.06,3.06,0,0,1,.13.32h0a2.81,2.81,0,0,1,.14-.33l1.09-2.61Z" fill="#008bfd"/><path d="M185.55,115.17H185v-3h-1.78v3h-.56v-3.5h2.9Z" fill="#008bfd"/><path d="M187.05,114.67h0v2.11h-.56v-5.11H187v.62h0a1.32,1.32,0,0,1,1.21-.7,1.3,1.3,0,0,1,1.06.47,2,2,0,0,1,.38,1.26,2.14,2.14,0,0,1-.43,1.41,1.41,1.41,0,0,1-1.17.52A1.18,1.18,0,0,1,187.05,114.67Zm0-1.42v.49a1,1,0,0,0,.28.74,1,1,0,0,0,.72.3.92.92,0,0,0,.79-.39,1.73,1.73,0,0,0,.29-1.08,1.44,1.44,0,0,0-.27-.92.89.89,0,0,0-.73-.33,1,1,0,0,0-.78.34A1.24,1.24,0,0,0,187,113.25Z" fill="#008bfd"/><path d="M192.89,115.17h-.56v-.54h0a1.2,1.2,0,0,1-1.08.62,1.18,1.18,0,0,1-.82-.27,1,1,0,0,1-.3-.74c0-.65.39-1,1.16-1.14l1.05-.15c0-.59-.24-.89-.72-.89a1.76,1.76,0,0,0-1.14.43v-.57a2.15,2.15,0,0,1,1.19-.33c.82,0,1.23.44,1.23,1.31Zm-.56-1.77-.85.12a1.27,1.27,0,0,0-.58.19.64.64,0,0,0,0,.91.71.71,0,0,0,.49.16.88.88,0,0,0,.69-.29,1,1,0,0,0,.27-.74Z" fill="#008bfd"/><path d="M193.74,115.17v-3.5h1.52a1.35,1.35,0,0,1,.82.23.83.83,0,0,1-.38,1.45q.81.11.81.81a.91.91,0,0,1-.33.72,1.18,1.18,0,0,1-.82.29Zm.56-3v1h.84c.45,0,.67-.18.67-.53s-.2-.46-.6-.46Zm0,1.46v1.08h1c.45,0,.68-.18.68-.55s-.26-.53-.77-.53Z" fill="#008bfd"/><path d="M199.79,115.17h-.56v-3h-.81a7.54,7.54,0,0,1-.48,2.38,1,1,0,0,1-.92.69.94.94,0,0,1-.3,0v-.48a.58.58,0,0,0,.26.06c.5,0,.82-1,1-3.08h1.84Z" fill="#008bfd"/><path d="M203.1,115.17h-.56v-1.45h-.46c-.23,0-.43.19-.62.55l-.45.9h-.65l.58-1.08a1.07,1.07,0,0,1,.5-.49,1,1,0,0,1-.63-.3.93.93,0,0,1-.21-.62.9.9,0,0,1,.34-.74,1.46,1.46,0,0,1,.94-.27h1.22Zm-.56-1.92v-1.1h-.66c-.47,0-.71.18-.71.54s.23.56.69.56Z" fill="#008bfd"/><path d="M205.57,113.58h-1v1.59H204v-3.5h.56v1.44h1a1.77,1.77,0,0,1,.53-1.12,1.59,1.59,0,0,1,1.13-.4,1.49,1.49,0,0,1,1.16.47,2,2,0,0,1,.41,1.35,2,2,0,0,1-.44,1.35,1.55,1.55,0,0,1-1.22.49,1.47,1.47,0,0,1-1.13-.43A1.9,1.9,0,0,1,205.57,113.58Zm1.62-1.52c-.7,0-1.05.46-1.05,1.37s.35,1.35,1.06,1.35,1-.45,1-1.35S207.89,112.06,207.19,112.06Z" fill="#008bfd"/><path d="M214.49,116.45H214v-1.28h-4.5v-3.5h.56v3h1.4v-3H212v3h1.39v-3H214v3h.52Z" fill="#008bfd"/><path d="M217.57,115.17H217v-.54h0a1.29,1.29,0,0,1-1.89.35,1,1,0,0,1-.3-.74c0-.65.39-1,1.16-1.14l1-.15c0-.59-.24-.89-.72-.89a1.79,1.79,0,0,0-1.15.43v-.57a2.2,2.2,0,0,1,1.19-.33c.83,0,1.24.44,1.24,1.31ZM217,113.4l-.85.12a1.27,1.27,0,0,0-.58.19.64.64,0,0,0,0,.91.69.69,0,0,0,.49.16.89.89,0,0,0,.69-.29,1,1,0,0,0,.27-.74Z" fill="#008bfd"/><path d="M220.81,115.17h-.56v-1.45h-.47c-.23,0-.43.19-.62.55l-.45.9h-.65l.59-1.08a1,1,0,0,1,.49-.49,1,1,0,0,1-.62-.3.89.89,0,0,1-.22-.62.9.9,0,0,1,.34-.74,1.46,1.46,0,0,1,.94-.27h1.23Zm-.56-1.92v-1.1h-.67c-.47,0-.7.18-.7.54s.22.56.68.56Z" fill="#008bfd"/><path d="M186.15,123.57h-.56v-3h-1.78v3h-.56v-3.5h2.9Z" fill="#008bfd"/><path d="M187.65,123.07h0v2.11h-.56v-5.11h.56v.62h0a1.32,1.32,0,0,1,1.21-.7,1.3,1.3,0,0,1,1.06.47,2,2,0,0,1,.38,1.26,2.16,2.16,0,0,1-.43,1.41,1.41,1.41,0,0,1-1.17.52A1.18,1.18,0,0,1,187.65,123.07Zm0-1.41v.48a1,1,0,0,0,.28.74,1,1,0,0,0,.72.3.92.92,0,0,0,.79-.39,1.73,1.73,0,0,0,.29-1.08,1.42,1.42,0,0,0-.27-.92.89.89,0,0,0-.73-.33,1,1,0,0,0-.78.34A1.25,1.25,0,0,0,187.64,121.66Z" fill="#008bfd"/><path d="M192.45,123.65a1.61,1.61,0,0,1-1.24-.49,1.8,1.8,0,0,1-.47-1.3,1.9,1.9,0,0,1,.49-1.37,1.72,1.72,0,0,1,1.3-.5,1.57,1.57,0,0,1,1.22.48,1.93,1.93,0,0,1,.44,1.34,1.9,1.9,0,0,1-.47,1.34A1.65,1.65,0,0,1,192.45,123.65Zm0-3.19a1.06,1.06,0,0,0-.86.37,1.49,1.49,0,0,0-.31,1,1.38,1.38,0,0,0,.32,1,1.07,1.07,0,0,0,.85.36,1,1,0,0,0,.83-.35,1.83,1.83,0,0,0,0-2A1,1,0,0,0,192.49,120.46Z" fill="#008bfd"/><path d="M196.82,120.55h-1.38v3h-.56v-3.5h1.94Z" fill="#008bfd"/><path d="M197.92,123.07h0v2.11h-.57v-5.11h.57v.62h0a1.32,1.32,0,0,1,1.21-.7,1.31,1.31,0,0,1,1.06.47,2,2,0,0,1,.37,1.26,2.21,2.21,0,0,1-.42,1.41,1.44,1.44,0,0,1-1.17.52A1.17,1.17,0,0,1,197.92,123.07Zm0-1.41v.48a1,1,0,0,0,.28.74,1,1,0,0,0,1.51-.09,1.8,1.8,0,0,0,.29-1.08,1.42,1.42,0,0,0-.27-.92.89.89,0,0,0-.73-.33,1,1,0,0,0-.79.34A1.25,1.25,0,0,0,197.91,121.66Z" fill="#008bfd"/><path d="M203.76,123.57h-.56V123h0a1.29,1.29,0,0,1-1.89.35,1,1,0,0,1-.3-.74c0-.65.39-1,1.16-1.14l1-.15c0-.59-.24-.89-.73-.89a1.76,1.76,0,0,0-1.14.43v-.57a2.17,2.17,0,0,1,1.19-.33c.82,0,1.24.44,1.24,1.31Zm-.56-1.77-.85.12a1.51,1.51,0,0,0-.59.19.57.57,0,0,0-.2.49.55.55,0,0,0,.19.42.68.68,0,0,0,.48.16.91.91,0,0,0,.69-.29,1,1,0,0,0,.28-.74Z" fill="#008bfd"/><path d="M208.38,123.57h-.55v-2.88l-.23.64-.88,2.24h-.5l-.9-2.24c0-.12-.13-.33-.24-.64v2.88h-.48v-3.5h.72l.92,2.29c.06.16.15.39.25.69l.25-.68.9-2.3h.74Z" fill="#008bfd"/><path d="M213.09,123.57h-.56v-2.88c-.05.14-.12.36-.23.64l-.87,2.24h-.51l-.9-2.24c-.05-.12-.12-.33-.23-.64v2.88h-.48v-3.5H210l.92,2.29c.07.16.15.39.26.69l.25-.68.89-2.3h.75Z" fill="#008bfd"/><path d="M216.52,123.57H216V123h0a1.29,1.29,0,0,1-1.89.35,1,1,0,0,1-.3-.74c0-.65.39-1,1.16-1.14l1.05-.15c0-.59-.24-.89-.72-.89a1.77,1.77,0,0,0-1.15.43v-.57a2.17,2.17,0,0,1,1.19-.33c.83,0,1.24.44,1.24,1.31ZM216,121.8l-.85.12a1.51,1.51,0,0,0-.59.19.56.56,0,0,0-.19.49.54.54,0,0,0,.18.42.69.69,0,0,0,.49.16.91.91,0,0,0,.68-.29,1,1,0,0,0,.28-.74Z" fill="#008bfd"/><path d="M178.31,132h-.56v-3H176v3h-.56v-3.5h2.9Z" fill="#008bfd"/><path d="M179.81,131.47h0v2.11h-.56v-5.11h.56v.62h0a1.32,1.32,0,0,1,1.21-.7,1.31,1.31,0,0,1,1.06.47,2,2,0,0,1,.38,1.26,2.22,2.22,0,0,1-.43,1.41,1.44,1.44,0,0,1-1.17.52A1.18,1.18,0,0,1,179.81,131.47Zm0-1.42v.49a1,1,0,0,0,.28.74,1,1,0,0,0,1.51-.09,1.73,1.73,0,0,0,.29-1.08,1.44,1.44,0,0,0-.27-.92.89.89,0,0,0-.73-.33,1,1,0,0,0-.79.34A1.29,1.29,0,0,0,179.8,130.05Z" fill="#008bfd"/><path d="M186.07,132h-.5v-2.79c0,.1-.13.24-.23.41L183.72,132h-.58v-3.5h.51v2.76l.18-.34,1.66-2.42h.58Z" fill="#008bfd"/><path d="M189.55,132H189v-3h-.82a7,7,0,0,1-.48,2.38,1,1,0,0,1-.91.69.85.85,0,0,1-.3-.05v-.48a.55.55,0,0,0,.26.06c.5,0,.82-1,1-3.08h1.84Z" fill="#008bfd"/><path d="M191.94,132.05a1.61,1.61,0,0,1-1.24-.49,1.8,1.8,0,0,1-.46-1.3,1.89,1.89,0,0,1,.48-1.37,1.74,1.74,0,0,1,1.3-.5,1.57,1.57,0,0,1,1.22.48,1.88,1.88,0,0,1,.44,1.34,1.86,1.86,0,0,1-.47,1.34A1.65,1.65,0,0,1,191.94,132.05Zm0-3.19a1,1,0,0,0-.85.37,1.49,1.49,0,0,0-.32,1,1.43,1.43,0,0,0,.32,1,1.08,1.08,0,0,0,.85.36,1,1,0,0,0,.84-.35,1.89,1.89,0,0,0,0-2A1,1,0,0,0,192,128.86Z" fill="#008bfd"/><path d="M199,132h-.76l-1.57-1.73h0V132h-.53v-1.73h0L194.56,132h-.74l1.73-1.8-1.63-1.7h.72l1.49,1.64h0v-1.64h.53v1.64h0l1.5-1.64h.72l-1.64,1.7Z" fill="#008bfd"/><path d="M202.19,130.36h-2.47a1.31,1.31,0,0,0,.32.9,1,1,0,0,0,.83.32,1.71,1.71,0,0,0,1.08-.39v.53a2,2,0,0,1-1.22.33,1.46,1.46,0,0,1-1.16-.47,1.93,1.93,0,0,1-.43-1.34,1.89,1.89,0,0,1,.47-1.33,1.45,1.45,0,0,1,1.15-.52,1.34,1.34,0,0,1,1.06.44,1.87,1.87,0,0,1,.37,1.24Zm-.57-.47a1.15,1.15,0,0,0-.23-.76.81.81,0,0,0-.64-.27.92.92,0,0,0-.68.29,1.25,1.25,0,0,0-.34.74Z" fill="#008bfd"/><path d="M205.74,132h-.56v-1.59h-1.79V132h-.56v-3.5h.56v1.44h1.79v-1.44h.56Z" fill="#008bfd"/><path d="M209.59,132h-.5v-2.79c-.05.1-.13.24-.23.41L207.24,132h-.58v-3.5h.51v2.76l.18-.34,1.66-2.42h.58Z" fill="#008bfd"/><path d="M212.91,132h-.56v-1.45h-.47c-.22,0-.43.19-.61.55l-.46.9h-.65l.59-1.08a1,1,0,0,1,.5-.49,1,1,0,0,1-.63-.3,1,1,0,0,1,.12-1.36,1.49,1.49,0,0,1,.95-.27h1.22Zm-.56-1.92V129h-.66c-.47,0-.71.18-.71.54s.23.56.69.56Z" fill="#008bfd"/><path d="M219.41,132h-.64l-.52-1.37h-2.08l-.49,1.37h-.63l1.87-4.9h.6Zm-1.35-1.89-.77-2.09c0-.06,0-.17-.07-.32h0a3,3,0,0,1-.08.32l-.76,2.09Z" fill="#008bfd"/><path d="M220.49,130.12V132h-.57v-4.9h1.35a1.77,1.77,0,0,1,1.21.38,1.38,1.38,0,0,1,.44,1.08,1.5,1.5,0,0,1-.48,1.15,1.88,1.88,0,0,1-1.3.44Zm0-2.53v2h.6a1.35,1.35,0,0,0,.91-.27,1,1,0,0,0,.32-.77c0-.65-.39-1-1.15-1Z" fill="#008bfd"/><path d="M224.2,132h-.57v-4.9h.57Z" fill="#008bfd"/><path d="M53.8,110.27l-1.51,3.42a3.67,3.67,0,0,1-.78,1.24,1.23,1.23,0,0,1-.82.33,1.51,1.51,0,0,1-.61-.11v-.58a1.05,1.05,0,0,0,.56.18.74.74,0,0,0,.51-.22,2.52,2.52,0,0,0,.5-.75L50,110.27h.66l1.17,2.62.13.32h0a2.81,2.81,0,0,1,.14-.33l1.09-2.61Z" fill="#0078d7"/><path d="M57.35,115.17h-.56v-3H55v3h-.56v-3.5h2.9Z" fill="#0078d7"/><path d="M59.18,114.67h0v2.11H58.6v-5.11h.57v.62h0a1.41,1.41,0,0,1,2.27-.23,2,2,0,0,1,.38,1.26,2.2,2.2,0,0,1-.43,1.41,1.44,1.44,0,0,1-1.17.52A1.16,1.16,0,0,1,59.18,114.67Zm0-1.42v.49a1,1,0,0,0,.28.74,1,1,0,0,0,1.51-.09,1.8,1.8,0,0,0,.29-1.08,1.44,1.44,0,0,0-.27-.92.89.89,0,0,0-.73-.33,1,1,0,0,0-.79.34A1.24,1.24,0,0,0,59.17,113.25Z" fill="#0078d7"/><path d="M65.34,115.17h-.56v-.54h0a1.18,1.18,0,0,1-1.08.62,1.15,1.15,0,0,1-.81-.27,1,1,0,0,1-.3-.74c0-.65.38-1,1.16-1.14l1-.15c0-.59-.24-.89-.72-.89a1.76,1.76,0,0,0-1.14.43v-.57a2.17,2.17,0,0,1,1.19-.33c.82,0,1.23.44,1.23,1.31Zm-.56-1.77-.84.12a1.32,1.32,0,0,0-.59.19.57.57,0,0,0-.2.49.52.52,0,0,0,.19.42.68.68,0,0,0,.48.16.88.88,0,0,0,.69-.29,1,1,0,0,0,.27-.74Z" fill="#0078d7"/><path d="M66.52,115.17v-3.5H68a1.33,1.33,0,0,1,.82.23.74.74,0,0,1,.3.63.76.76,0,0,1-.67.82c.53.07.8.34.8.81a.91.91,0,0,1-.33.72,1.16,1.16,0,0,1-.82.29Zm.56-3v1h.84c.45,0,.68-.18.68-.53s-.21-.46-.61-.46Zm0,1.46v1.08h1c.45,0,.68-.18.68-.55s-.25-.53-.76-.53Z" fill="#0078d7"/><path d="M72.9,115.17h-.56v-3h-.81a7,7,0,0,1-.48,2.38,1,1,0,0,1-.92.69.94.94,0,0,1-.3,0v-.48a.58.58,0,0,0,.26.06c.5,0,.83-1,1-3.08H72.9Z" fill="#0078d7"/><path d="M76.55,115.17H76v-1.45h-.47c-.23,0-.43.19-.62.55l-.45.9H73.8l.59-1.08a1,1,0,0,1,.49-.49,1,1,0,0,1-.62-.3.89.89,0,0,1-.22-.62.9.9,0,0,1,.34-.74,1.46,1.46,0,0,1,.94-.27h1.23ZM76,113.25v-1.1h-.67c-.47,0-.7.18-.7.54s.22.56.68.56Z" fill="#0078d7"/><path d="M79.34,113.58h-1v1.59h-.56v-3.5h.56v1.44h1a1.77,1.77,0,0,1,.53-1.12,1.59,1.59,0,0,1,1.13-.4,1.49,1.49,0,0,1,1.16.47,2,2,0,0,1,.41,1.35,2,2,0,0,1-.44,1.35,1.55,1.55,0,0,1-1.22.49,1.47,1.47,0,0,1-1.13-.43A1.9,1.9,0,0,1,79.34,113.58ZM81,112.06c-.7,0-1,.46-1,1.37s.36,1.35,1.06,1.35,1-.45,1-1.35S81.66,112.06,81,112.06Z" fill="#0078d7"/><path d="M88.59,116.45H88.1v-1.28H83.6v-3.5h.56v3h1.39v-3h.57v3h1.39v-3h.56v3h.52Z" fill="#0078d7"/><path d="M92,115.17h-.56v-.54h0a1.17,1.17,0,0,1-1.07.62,1.16,1.16,0,0,1-.82-.27,1,1,0,0,1-.3-.74c0-.65.39-1,1.16-1.14l1-.15c0-.59-.24-.89-.73-.89a1.76,1.76,0,0,0-1.14.43v-.57a2.17,2.17,0,0,1,1.19-.33c.82,0,1.24.44,1.24,1.31Zm-.56-1.77-.85.12a1.36,1.36,0,0,0-.59.19.56.56,0,0,0-.19.49.54.54,0,0,0,.18.42.69.69,0,0,0,.49.16.87.87,0,0,0,.68-.29,1,1,0,0,0,.28-.74Z" fill="#0078d7"/><path d="M95.56,115.17H95v-1.45h-.46c-.23,0-.44.19-.62.55l-.45.9h-.65l.58-1.08a1.07,1.07,0,0,1,.5-.49,1,1,0,0,1-.63-.3.93.93,0,0,1-.21-.62.9.9,0,0,1,.34-.74,1.46,1.46,0,0,1,.94-.27h1.22ZM95,113.25v-1.1h-.66c-.47,0-.71.18-.71.54s.23.56.69.56Z" fill="#0078d7"/><path d="M58,123.57h-.56v-3H55.61v3h-.56v-3.5H58Z" fill="#0078d7"/><path d="M59.78,123.07h0v2.11h-.56v-5.11h.56v.62h0a1.41,1.41,0,0,1,2.27-.23,2,2,0,0,1,.37,1.26,2.21,2.21,0,0,1-.42,1.41,1.44,1.44,0,0,1-1.17.52A1.18,1.18,0,0,1,59.78,123.07Zm0-1.41v.48a1,1,0,0,0,.28.74,1,1,0,0,0,1.51-.09,1.8,1.8,0,0,0,.29-1.08,1.42,1.42,0,0,0-.27-.92.89.89,0,0,0-.73-.33,1,1,0,0,0-.79.34A1.25,1.25,0,0,0,59.77,121.66Z" fill="#0078d7"/><path d="M64.9,123.65a1.61,1.61,0,0,1-1.24-.49,1.8,1.8,0,0,1-.46-1.3,1.89,1.89,0,0,1,.48-1.37A1.74,1.74,0,0,1,65,120a1.59,1.59,0,0,1,1.23.48,1.93,1.93,0,0,1,.44,1.34,1.86,1.86,0,0,1-.48,1.34A1.64,1.64,0,0,1,64.9,123.65Zm0-3.19a1,1,0,0,0-.85.37,1.49,1.49,0,0,0-.32,1,1.43,1.43,0,0,0,.32,1,1.08,1.08,0,0,0,.85.36,1,1,0,0,0,.84-.35,1.89,1.89,0,0,0,0-2A1,1,0,0,0,64.94,120.46Z" fill="#0078d7"/><path d="M69.6,120.55H68.22v3h-.56v-3.5H69.6Z" fill="#0078d7"/><path d="M71,123.07h0v2.11h-.56v-5.11H71v.62h0a1.32,1.32,0,0,1,1.21-.7,1.31,1.31,0,0,1,1.06.47,2,2,0,0,1,.38,1.26,2.16,2.16,0,0,1-.43,1.41,1.41,1.41,0,0,1-1.17.52A1.18,1.18,0,0,1,71,123.07Zm0-1.41v.48a1,1,0,0,0,.28.74,1,1,0,0,0,.72.3.92.92,0,0,0,.79-.39,1.73,1.73,0,0,0,.29-1.08,1.42,1.42,0,0,0-.27-.92.89.89,0,0,0-.73-.33,1,1,0,0,0-.78.34A1.25,1.25,0,0,0,71,121.66Z" fill="#0078d7"/><path d="M77.2,123.57h-.56V123h0a1.15,1.15,0,0,1-1.07.62,1.18,1.18,0,0,1-.82-.27,1,1,0,0,1-.3-.74c0-.65.39-1,1.16-1.14l1-.15c0-.59-.24-.89-.72-.89a1.77,1.77,0,0,0-1.15.43v-.57A2.17,2.17,0,0,1,76,120c.83,0,1.24.44,1.24,1.31Zm-.56-1.77-.85.12a1.4,1.4,0,0,0-.58.19.64.64,0,0,0,0,.91.69.69,0,0,0,.49.16.93.93,0,0,0,.69-.29,1,1,0,0,0,.27-.74Z" fill="#0078d7"/><path d="M82.15,123.57H81.6v-2.88l-.23.64-.88,2.24H80l-.9-2.24c0-.12-.13-.33-.24-.64v2.88h-.48v-3.5h.72l.92,2.29c.07.16.15.39.25.69l.25-.68.9-2.3h.74Z" fill="#0078d7"/><path d="M87.19,123.57h-.56v-2.88c0,.14-.12.36-.23.64l-.87,2.24H85l-.9-2.24c-.05-.12-.12-.33-.23-.64v2.88h-.48v-3.5h.71l.92,2.29c.07.16.16.39.26.69l.25-.68.89-2.3h.75Z" fill="#0078d7"/><path d="M91,123.57h-.56V123h0a1.29,1.29,0,0,1-1.89.35,1,1,0,0,1-.3-.74c0-.65.39-1,1.16-1.14l1-.15c0-.59-.24-.89-.72-.89a1.77,1.77,0,0,0-1.15.43v-.57a2.17,2.17,0,0,1,1.19-.33c.83,0,1.24.44,1.24,1.31Zm-.56-1.77-.85.12a1.51,1.51,0,0,0-.59.19.56.56,0,0,0-.19.49.54.54,0,0,0,.18.42.69.69,0,0,0,.49.16.91.91,0,0,0,.68-.29,1,1,0,0,0,.28-.74Z" fill="#0078d7"/><path d="M52.48,132h-.79l-1.54-1.68h0V132h-.56v-3.5h.56v1.61h0l1.47-1.61h.73l-1.62,1.69Z" fill="#0078d7"/><path d="M55.73,132h-.56v-3h-.82a7,7,0,0,1-.48,2.38A1,1,0,0,1,53,132a.85.85,0,0,1-.3-.05v-.48a.58.58,0,0,0,.26.06c.5,0,.82-1,1-3.08h1.84Z" fill="#0078d7"/><path d="M59.48,132h-.56v-.54h0a1.3,1.3,0,0,1-1.9.35,1,1,0,0,1-.29-.74c0-.65.38-1,1.15-1.14l1.05-.15c0-.59-.24-.89-.72-.89a1.76,1.76,0,0,0-1.14.43v-.57a2.15,2.15,0,0,1,1.19-.33c.82,0,1.23.44,1.23,1.31Zm-.56-1.77-.84.12a1.32,1.32,0,0,0-.59.19.57.57,0,0,0-.2.49.52.52,0,0,0,.19.42.68.68,0,0,0,.48.16.88.88,0,0,0,.69-.29,1,1,0,0,0,.27-.74Z" fill="#0078d7"/><path d="M63.05,131.81a1.85,1.85,0,0,1-1,.24,1.6,1.6,0,0,1-1.21-.48,1.77,1.77,0,0,1-.46-1.27,1.92,1.92,0,0,1,.5-1.38,1.73,1.73,0,0,1,1.32-.53,1.86,1.86,0,0,1,.81.17v.58a1.38,1.38,0,0,0-.83-.28,1.12,1.12,0,0,0-.88.39,1.44,1.44,0,0,0-.34,1,1.37,1.37,0,0,0,.32,1,1.11,1.11,0,0,0,.86.35,1.43,1.43,0,0,0,.87-.3Z" fill="#0078d7"/><path d="M66.4,131.81a1.85,1.85,0,0,1-1,.24,1.6,1.6,0,0,1-1.21-.48,1.82,1.82,0,0,1-.46-1.27,1.92,1.92,0,0,1,.5-1.38,1.73,1.73,0,0,1,1.32-.53,1.86,1.86,0,0,1,.81.17v.58a1.36,1.36,0,0,0-.83-.28,1.12,1.12,0,0,0-.88.39,1.44,1.44,0,0,0-.34,1,1.37,1.37,0,0,0,.32,1,1.12,1.12,0,0,0,.87.35,1.43,1.43,0,0,0,.86-.3Z" fill="#0078d7"/><path d="M70.3,132h-.51v-2.79c-.05.1-.13.24-.23.41L68,132h-.59v-3.5h.52v2.76a2.54,2.54,0,0,1,.17-.34l1.67-2.42h.58Z" fill="#0078d7"/><path d="M74.37,132h-.56v-1.41a2.31,2.31,0,0,1-1.13.34c-.79,0-1.18-.42-1.18-1.24v-1.19h.56v1.16c0,.51.22.77.67.77a2.36,2.36,0,0,0,1.08-.3v-1.63h.56Z" fill="#0078d7"/><path d="M78.44,130.36H76a1.26,1.26,0,0,0,.31.9,1.06,1.06,0,0,0,.83.32,1.71,1.71,0,0,0,1.08-.39v.53a2,2,0,0,1-1.22.33,1.46,1.46,0,0,1-1.16-.47,2,2,0,0,1-.43-1.34,1.89,1.89,0,0,1,.47-1.33,1.47,1.47,0,0,1,1.15-.52,1.32,1.32,0,0,1,1.06.44,1.87,1.87,0,0,1,.38,1.24Zm-.58-.47a1.15,1.15,0,0,0-.23-.76.81.81,0,0,0-.64-.27.92.92,0,0,0-.68.29,1.31,1.31,0,0,0-.34.74Z" fill="#0078d7"/><path d="M81.79,131.81a1.85,1.85,0,0,1-1,.24,1.6,1.6,0,0,1-1.21-.48,1.82,1.82,0,0,1-.46-1.27,1.92,1.92,0,0,1,.5-1.38,1.73,1.73,0,0,1,1.32-.53,1.94,1.94,0,0,1,.82.17v.58a1.39,1.39,0,0,0-.84-.28,1.12,1.12,0,0,0-.88.39,1.44,1.44,0,0,0-.34,1,1.42,1.42,0,0,0,.32,1,1.15,1.15,0,0,0,.87.35,1.43,1.43,0,0,0,.86-.3Z" fill="#0078d7"/><path d="M85.66,132h-.78l-1.55-1.68h0V132h-.56v-3.5h.56v1.61h0l1.47-1.61h.73l-1.62,1.69Z" fill="#0078d7"/><path d="M87.82,132.05a1.61,1.61,0,0,1-1.24-.49,1.8,1.8,0,0,1-.46-1.3,1.89,1.89,0,0,1,.48-1.37,1.72,1.72,0,0,1,1.3-.5,1.57,1.57,0,0,1,1.22.48,1.93,1.93,0,0,1,.44,1.34,1.9,1.9,0,0,1-.47,1.34A1.65,1.65,0,0,1,87.82,132.05Zm0-3.19a1.06,1.06,0,0,0-.86.37,1.49,1.49,0,0,0-.31,1,1.38,1.38,0,0,0,.32,1,1.07,1.07,0,0,0,.85.36,1,1,0,0,0,.83-.35,1.83,1.83,0,0,0,0-2A1,1,0,0,0,87.86,128.86Z" fill="#0078d7"/><path d="M92.52,129H91.13v3h-.56v-3.5h2Z" fill="#0078d7"/><path d="M94.84,132.05a1.61,1.61,0,0,1-1.24-.49,1.8,1.8,0,0,1-.47-1.3,1.85,1.85,0,0,1,.49-1.37,1.72,1.72,0,0,1,1.3-.5,1.57,1.57,0,0,1,1.22.48,1.93,1.93,0,0,1,.44,1.34,1.9,1.9,0,0,1-.47,1.34A1.65,1.65,0,0,1,94.84,132.05Zm0-3.19a1.06,1.06,0,0,0-.86.37,1.49,1.49,0,0,0-.31,1,1.38,1.38,0,0,0,.32,1,1.07,1.07,0,0,0,.85.36,1,1,0,0,0,.83-.35,1.89,1.89,0,0,0,0-2A1,1,0,0,0,94.88,128.86Z" fill="#0078d7"/><path d="M55.63,140.37h-.56v-3H53.29v3h-.56v-3.5h2.9Z" fill="#0078d7"/><path d="M57.46,139.87h0V142h-.56v-5.11h.56v.62h0a1.32,1.32,0,0,1,1.21-.7,1.31,1.31,0,0,1,1.06.47,2,2,0,0,1,.38,1.26,2.2,2.2,0,0,1-.43,1.41,1.44,1.44,0,0,1-1.17.53A1.19,1.19,0,0,1,57.46,139.87Zm0-1.41v.48a1,1,0,0,0,.28.74,1,1,0,0,0,1.51-.09,1.8,1.8,0,0,0,.29-1.08,1.44,1.44,0,0,0-.27-.92.89.89,0,0,0-.73-.33,1,1,0,0,0-.79.34A1.3,1.3,0,0,0,57.45,138.46Z" fill="#0078d7"/><path d="M64.05,140.37h-.5v-2.79c0,.1-.13.24-.23.41l-1.62,2.38h-.58v-3.5h.51v2.76c0-.06.09-.18.18-.34l1.66-2.42h.58Z" fill="#0078d7"/><path d="M67.86,140.37H67.3v-3h-.81a7,7,0,0,1-.48,2.38,1,1,0,0,1-.91.69,1,1,0,0,1-.31,0v-.48a.62.62,0,0,0,.26.06c.51,0,.83-1,1-3.08h1.84Z" fill="#0078d7"/><path d="M70.58,140.46a1.62,1.62,0,0,1-1.24-.5,1.8,1.8,0,0,1-.46-1.3,1.89,1.89,0,0,1,.48-1.37,1.72,1.72,0,0,1,1.3-.5,1.57,1.57,0,0,1,1.22.48,1.93,1.93,0,0,1,.44,1.34,1.9,1.9,0,0,1-.47,1.34A1.66,1.66,0,0,1,70.58,140.46Zm0-3.2a1.06,1.06,0,0,0-.86.37,1.51,1.51,0,0,0-.31,1,1.38,1.38,0,0,0,.32,1,1.07,1.07,0,0,0,.85.36,1,1,0,0,0,.83-.35,1.83,1.83,0,0,0,0-2A1,1,0,0,0,70.62,137.26Z" fill="#0078d7"/><path d="M78,140.37h-.76l-1.56-1.73h0v1.73h-.54v-1.73h0l-1.57,1.73h-.75l1.74-1.8-1.63-1.7h.71l1.5,1.64h0v-1.64h.54v1.64h0l1.5-1.64h.72l-1.64,1.7Z" fill="#0078d7"/><path d="M81.49,138.76H79a1.35,1.35,0,0,0,.31.91,1.09,1.09,0,0,0,.83.31,1.73,1.73,0,0,0,1.09-.39v.53a2.07,2.07,0,0,1-1.22.34,1.47,1.47,0,0,1-1.17-.48,2,2,0,0,1-.42-1.34,1.89,1.89,0,0,1,.46-1.33,1.47,1.47,0,0,1,1.15-.52,1.3,1.3,0,0,1,1.06.45,1.83,1.83,0,0,1,.38,1.23Zm-.57-.47a1.21,1.21,0,0,0-.24-.76.8.8,0,0,0-.64-.27.9.9,0,0,0-.67.29,1.22,1.22,0,0,0-.34.74Z" fill="#0078d7"/><path d="M85.36,140.37H84.8v-1.59H83v1.59h-.56v-3.5H83v1.44H84.8v-1.44h.56Z" fill="#0078d7"/><path d="M89.55,140.37H89v-2.79a4,4,0,0,1-.23.41l-1.61,2.38h-.58v-3.5h.51v2.76a3.09,3.09,0,0,1,.18-.34L89,136.87h.58Z" fill="#0078d7"/><path d="M93.19,140.37h-.56v-1.45h-.46c-.23,0-.44.19-.62.55l-.45.9h-.65l.58-1.08a1.07,1.07,0,0,1,.5-.49,1,1,0,0,1-.63-.3.93.93,0,0,1-.21-.62.9.9,0,0,1,.34-.74,1.46,1.46,0,0,1,.94-.27h1.22Zm-.56-1.91v-1.11H92c-.47,0-.71.18-.71.54s.23.57.69.57Z" fill="#0078d7"/><path d="M11.54,113.19a2.87,2.87,0,0,1-1.35.28,2.19,2.19,0,0,1-1.68-.67A2.49,2.49,0,0,1,7.88,111a2.63,2.63,0,0,1,.71-1.9,2.4,2.4,0,0,1,1.79-.72,3,3,0,0,1,1.16.2v.61a2.4,2.4,0,0,0-1.16-.29,1.79,1.79,0,0,0-1.37.56A2.14,2.14,0,0,0,8.48,111,2.07,2.07,0,0,0,9,112.43a1.7,1.7,0,0,0,1.29.53,2.41,2.41,0,0,0,1.28-.33Z" fill="#008bfd"/><path d="M15.39,111.78H12.92a1.31,1.31,0,0,0,.32.9,1,1,0,0,0,.82.32,1.71,1.71,0,0,0,1.09-.39v.53a2,2,0,0,1-1.22.33,1.49,1.49,0,0,1-1.16-.47,1.93,1.93,0,0,1-.43-1.34,2,2,0,0,1,.46-1.34,1.5,1.5,0,0,1,1.15-.51,1.34,1.34,0,0,1,1.07.44,1.87,1.87,0,0,1,.37,1.24Zm-.57-.47a1.15,1.15,0,0,0-.23-.76.82.82,0,0,0-.65-.27.92.92,0,0,0-.67.29,1.25,1.25,0,0,0-.34.74Z" fill="#008bfd"/><path d="M19.27,113.39h-.79l-1.55-1.68h0v1.68h-.56v-3.5h.56v1.61h0l1.47-1.61h.74l-1.62,1.69Z" fill="#008bfd"/><path d="M20.53,112.89h0V115H20v-5.11h.56v.62h0a1.32,1.32,0,0,1,1.21-.7,1.3,1.3,0,0,1,1.06.47,2,2,0,0,1,.38,1.26,2.16,2.16,0,0,1-.43,1.41,1.41,1.41,0,0,1-1.17.52A1.18,1.18,0,0,1,20.53,112.89Zm0-1.42V112a1,1,0,0,0,.28.74,1,1,0,0,0,.72.3.92.92,0,0,0,.79-.39,1.73,1.73,0,0,0,.29-1.08,1.42,1.42,0,0,0-.27-.92.89.89,0,0,0-.73-.33,1,1,0,0,0-.78.34A1.24,1.24,0,0,0,20.52,111.47Z" fill="#008bfd"/><path d="M27,111.78H24.53a1.31,1.31,0,0,0,.32.9,1.06,1.06,0,0,0,.83.32,1.71,1.71,0,0,0,1.08-.39v.53a2,2,0,0,1-1.22.33,1.49,1.49,0,0,1-1.16-.47,2.22,2.22,0,0,1,0-2.68,1.49,1.49,0,0,1,1.15-.51,1.34,1.34,0,0,1,1.06.44,1.87,1.87,0,0,1,.38,1.24Zm-.58-.47a1.15,1.15,0,0,0-.23-.76.81.81,0,0,0-.64-.27.92.92,0,0,0-.68.29,1.25,1.25,0,0,0-.34.74Z" fill="#008bfd"/><path d="M30.17,110.37H29.12v3h-.56v-3h-1v-.48h2.66Z" fill="#008bfd"/><path d="M12.27,184.31a2.87,2.87,0,0,1-1.35.29,2.19,2.19,0,0,1-1.68-.68,2.46,2.46,0,0,1-.63-1.76,2.6,2.6,0,0,1,.71-1.9,2.37,2.37,0,0,1,1.79-.73,3,3,0,0,1,1.16.2v.61a2.4,2.4,0,0,0-1.16-.29,1.79,1.79,0,0,0-1.37.56,2.14,2.14,0,0,0-.53,1.51,2.07,2.07,0,0,0,.49,1.43,1.7,1.7,0,0,0,1.29.53,2.41,2.41,0,0,0,1.28-.33Z" fill="#008bfd"/><path d="M16.12,182.91H13.65a1.35,1.35,0,0,0,.32.9,1.08,1.08,0,0,0,.82.32,1.71,1.71,0,0,0,1.09-.39v.52a2,2,0,0,1-1.22.34,1.47,1.47,0,0,1-1.16-.48,2.23,2.23,0,0,1,0-2.67,1.48,1.48,0,0,1,1.15-.52,1.32,1.32,0,0,1,1.07.45,1.83,1.83,0,0,1,.37,1.23Zm-.57-.48a1.17,1.17,0,0,0-.23-.76.82.82,0,0,0-.65-.27.92.92,0,0,0-.67.29,1.28,1.28,0,0,0-.34.74Z" fill="#008bfd"/><path d="M20,184.51h-.79l-1.55-1.68h0v1.68h-.56V181h.56v1.61h0L19.13,181h.74l-1.62,1.69Z" fill="#008bfd"/><path d="M21.26,184h0v2.11h-.56V181h.56v.62h0a1.34,1.34,0,0,1,1.21-.7,1.3,1.3,0,0,1,1.06.47,2,2,0,0,1,.38,1.26,2.14,2.14,0,0,1-.43,1.41,1.42,1.42,0,0,1-1.17.53A1.19,1.19,0,0,1,21.26,184Zm0-1.41v.49a1,1,0,0,0,.28.73,1,1,0,0,0,.72.31.92.92,0,0,0,.79-.39,1.76,1.76,0,0,0,.29-1.09,1.39,1.39,0,0,0-.27-.91.87.87,0,0,0-.73-.34,1,1,0,0,0-.78.34A1.25,1.25,0,0,0,21.25,182.6Z" fill="#008bfd"/><path d="M27.74,182.91H25.26a1.35,1.35,0,0,0,.32.9,1.1,1.1,0,0,0,.83.32,1.71,1.71,0,0,0,1.08-.39v.52a2,2,0,0,1-1.22.34,1.47,1.47,0,0,1-1.16-.48,1.93,1.93,0,0,1-.43-1.34,1.89,1.89,0,0,1,.47-1.33,1.47,1.47,0,0,1,1.15-.52,1.31,1.31,0,0,1,1.06.45,1.83,1.83,0,0,1,.38,1.23Zm-.58-.48a1.17,1.17,0,0,0-.23-.76.81.81,0,0,0-.64-.27.92.92,0,0,0-.68.29,1.28,1.28,0,0,0-.34.74Z" fill="#008bfd"/><path d="M30.9,181.49h-1v3h-.56v-3H28.24V181H30.9Z" fill="#008bfd"/><path d="M12.27,36a2.87,2.87,0,0,1-1.35.29,2.19,2.19,0,0,1-1.68-.67,2.49,2.49,0,0,1-.63-1.77,2.61,2.61,0,0,1,.71-1.9,2.41,2.41,0,0,1,1.79-.73,2.8,2.8,0,0,1,1.16.21V32a2.31,2.31,0,0,0-1.16-.3,1.77,1.77,0,0,0-1.37.57,2.12,2.12,0,0,0-.53,1.51,2,2,0,0,0,.49,1.42,1.66,1.66,0,0,0,1.29.53,2.51,2.51,0,0,0,1.28-.32Z" fill="#008bfd"/><path d="M16.12,34.59H13.65a1.31,1.31,0,0,0,.32.9,1.08,1.08,0,0,0,.82.32,1.71,1.71,0,0,0,1.09-.39v.52a2,2,0,0,1-1.22.34,1.47,1.47,0,0,1-1.16-.48,1.91,1.91,0,0,1-.43-1.34,2,2,0,0,1,.46-1.33,1.5,1.5,0,0,1,1.15-.51,1.31,1.31,0,0,1,1.07.44,1.86,1.86,0,0,1,.37,1.23Zm-.57-.48a1.14,1.14,0,0,0-.23-.75.82.82,0,0,0-.65-.27.91.91,0,0,0-.67.28,1.31,1.31,0,0,0-.34.74Z" fill="#008bfd"/><path d="M20,36.2h-.79l-1.55-1.68h0V36.2h-.56V32.7h.56v1.6h0l1.47-1.6h.74l-1.62,1.69Z" fill="#008bfd"/><path d="M21.26,35.69h0v2.12h-.56V32.7h.56v.61h0a1.33,1.33,0,0,1,1.21-.69,1.27,1.27,0,0,1,1.06.47,2,2,0,0,1,.38,1.26,2.13,2.13,0,0,1-.43,1.4,1.42,1.42,0,0,1-1.17.53A1.19,1.19,0,0,1,21.26,35.69Zm0-1.41v.49a1.05,1.05,0,0,0,.28.74,1,1,0,0,0,.72.3.92.92,0,0,0,.79-.39,1.74,1.74,0,0,0,.29-1.09,1.41,1.41,0,0,0-.27-.91.89.89,0,0,0-.73-.33,1,1,0,0,0-.78.34A1.23,1.23,0,0,0,21.25,34.28Z" fill="#008bfd"/><path d="M27.74,34.59H25.26a1.31,1.31,0,0,0,.32.9,1.1,1.1,0,0,0,.83.32,1.71,1.71,0,0,0,1.08-.39v.52a2,2,0,0,1-1.22.34,1.47,1.47,0,0,1-1.16-.48,2.21,2.21,0,0,1,0-2.67,1.49,1.49,0,0,1,1.15-.51,1.31,1.31,0,0,1,1.06.44,1.86,1.86,0,0,1,.38,1.23Zm-.58-.48a1.14,1.14,0,0,0-.23-.75.81.81,0,0,0-.64-.27.91.91,0,0,0-.68.28,1.31,1.31,0,0,0-.34.74Z" fill="#008bfd"/><path d="M30.9,33.18h-1v3h-.56v-3H28.24V32.7H30.9Z" fill="#008bfd"/><path d="M17.37,98.69H10.65a.59.59,0,0,1-.61-.57V91.68H12V89.91H24.4a.59.59,0,0,1,.62.57v.09a6.4,6.4,0,0,1,1,.33v-.42A1.53,1.53,0,0,0,24.4,89h-13l-2.34,2.2v6.9a1.51,1.51,0,0,0,1.57,1.46h7.28A5.8,5.8,0,0,1,17.37,98.69Z" fill="gray" fill-rule="evenodd"/><path d="M26,100.22l2.34,3.26-2.17-.54-.61,1.64-2.34-2.88-1.75,2.88-.8-1.74-2.17.54L20.65,100s.58.92,2.69.92S26,100.22,26,100.22Z" fill="gray" fill-rule="evenodd"/><path d="M23.43,99.63a3.43,3.43,0,1,1,0-6.83,3.43,3.43,0,1,1,0,6.83Zm0-6.06a2.66,2.66,0,1,0,2.9,2.65A2.78,2.78,0,0,0,23.43,93.57Z" fill="gray" fill-rule="evenodd"/><path d="M23.43,101.44a5.24,5.24,0,1,1,0-10.45,5.24,5.24,0,1,1,0,10.45Zm0-9.69a4.48,4.48,0,1,0,0,8.93,4.48,4.48,0,1,0,0-8.93Z" fill="gray" fill-rule="evenodd"/><path d="M17.37,21.52H10.65A.59.59,0,0,1,10,21V14.51H12V12.74H24.4a.59.59,0,0,1,.62.57v.09a6.4,6.4,0,0,1,1,.33v-.42a1.53,1.53,0,0,0-1.58-1.46h-13l-2.34,2.2V21a1.51,1.51,0,0,0,1.57,1.46h7.28A5.8,5.8,0,0,1,17.37,21.52Z" fill="gray" fill-rule="evenodd"/><path d="M26,23.05l2.34,3.26-2.17-.54-.61,1.64-2.34-2.88-1.75,2.88-.8-1.74-2.17.54,2.14-3.42s.58.92,2.69.92S26,23.05,26,23.05Z" fill="gray" fill-rule="evenodd"/><path d="M23.43,22.45A3.58,3.58,0,0,1,19.72,19a3.58,3.58,0,0,1,3.71-3.42A3.58,3.58,0,0,1,27.15,19,3.58,3.58,0,0,1,23.43,22.45Zm0-6.06A2.78,2.78,0,0,0,20.54,19a2.91,2.91,0,0,0,5.79,0A2.79,2.79,0,0,0,23.43,16.39Z" fill="gray" fill-rule="evenodd"/><path d="M23.43,24.27a5.48,5.48,0,0,1-5.7-5.22,5.48,5.48,0,0,1,5.7-5.23,5.48,5.48,0,0,1,5.69,5.23A5.47,5.47,0,0,1,23.43,24.27Zm0-9.69a4.7,4.7,0,0,0-4.88,4.47,4.69,4.69,0,0,0,4.88,4.46,4.68,4.68,0,0,0,4.87-4.46A4.69,4.69,0,0,0,23.43,14.58Z" fill="gray" fill-rule="evenodd"/><path d="M80.65,24.41a11.81,11.81,0,0,1-16.84-2.29A12.56,12.56,0,0,1,66.05,4.83a11.82,11.82,0,0,1,16.84,2.3A12.54,12.54,0,0,1,80.65,24.41ZM84.31,6A13.57,13.57,0,0,0,65,3.37,14.43,14.43,0,0,0,62.4,23.24a13.62,13.62,0,0,0,11,5.55,13.45,13.45,0,0,0,8.39-2.92A14.44,14.44,0,0,0,84.31,6Z" fill="#008bfd"/><path d="M66.68,17.19a17,17,0,0,1-2-2.35,18.28,18.28,0,0,0-1.66,6.88c.11.16.11.29.23.44a12.55,12.55,0,0,0,2,2.05A14.13,14.13,0,0,1,66.68,17.19Z" fill="#008bfd"/><path d="M71.29,7.75a21,21,0,0,0-3.33,3,15.71,15.71,0,0,0-1.61,2,15.42,15.42,0,0,0,1.9,2.46,16.32,16.32,0,0,1,2.2-2.56,26.47,26.47,0,0,1,3.13-2.61C72.78,9.31,72,8.54,71.29,7.75Z" fill="#008bfd"/><path d="M82.76,7A12,12,0,0,0,81,5.13a12.53,12.53,0,0,0-8,1.53c.76.84,1.51,1.63,2.24,2.36C79.63,6.59,82.76,7,82.76,7Z" fill="#008bfd"/><path d="M65,15a19.82,19.82,0,0,1,1.19-2.06,9.84,9.84,0,0,1-1.6-6.79,13.09,13.09,0,0,0-1.29,1.6C62.87,9.34,62.85,11.9,65,15Z" fill="#008bfd"/><path d="M70.52,17.37a21.6,21.6,0,0,1-2.27-2.14,14.25,14.25,0,0,0-1.14,1.95,23.54,23.54,0,0,0,2.09,1.91,19.12,19.12,0,0,0,12.56,4.38,9,9,0,0,0,1.54-1.94C82.07,21.79,76.81,22.48,70.52,17.37Z" fill="#008bfd"/><path d="M65.16,14.83a15.72,15.72,0,0,0,2,2.35,15.36,15.36,0,0,1,1.14-1.95,15.42,15.42,0,0,1-1.9-2.46A15.58,15.58,0,0,0,65.16,14.83Z" fill="#008bfd"/><path d="M73.58,10.07a97,97,0,0,0,11.15,8.82,9.82,9.82,0,0,0,.33-1.05A95.51,95.51,0,0,1,75.23,9Q74.44,9.47,73.58,10.07Z" fill="#008bfd"/><path d="M73,6.66q-1.65-1.77-3.36-3.8A10.05,10.05,0,0,0,68,3.52a26.3,26.3,0,0,0,3.24,4.22A17.22,17.22,0,0,1,73,6.66Z" fill="#008bfd"/><path d="M73.06,6.62a18.74,18.74,0,0,0-1.87,1.19c.72.78,1.45,1.59,2.25,2.35.57-.4,1.34-.88,1.87-1.18C74.57,8.25,73.82,7.46,73.06,6.62Z" fill="#008bfd"/><path d="M72.86,6.52a16.24,16.24,0,0,0-1.67,1.12c.72.79,1.74,1.81,2.54,2.57.57-.4,1-.8,1.58-1.11C74.57,8.38,73.61,7.35,72.86,6.52Z" fill="#008bfd"/><path d="M78.92,13.07a2.7,2.7,0,0,0-.48,3.7,2.56,2.56,0,0,0,3.63.51,2.72,2.72,0,0,0,.48-3.72A2.55,2.55,0,0,0,78.92,13.07Z" fill="#008bfd"/><path d="M73.75,19.2a2.52,2.52,0,0,0-.45,3.44,2.37,2.37,0,0,0,3.36.45,2.49,2.49,0,0,0,.44-3.43A2.36,2.36,0,0,0,73.75,19.2Z" fill="#008bfd"/><path d="M64.6,11.87a3.79,3.79,0,0,0-.68,5.21,3.58,3.58,0,0,0,5.1.7,3.8,3.8,0,0,0,.67-5.23A3.59,3.59,0,0,0,64.6,11.87Z" fill="#008bfd"/><path d="M107,154V131.82C107,113.88,106,92,144,92" fill="none" stroke="#505050" stroke-miterlimit="10"/><path d="M87.59,165.63h8.24c6.36,0,11.15-3.46,11.15-9.41v-16.7" fill="none" stroke="#505050" stroke-miterlimit="10"/><path d="M106.19,29.55V51.92c0,18.06-1,40.08,37,40.08" fill="none" stroke="#505050" stroke-miterlimit="10"/><path d="M89.12,16.36h7.26c5.59,0,9.81,3.67,9.81,10V44.08" fill="none" stroke="#505050" stroke-miterlimit="10"/><path d="M179.69,87.78l7.92,4-7.84,4a9.16,9.16,0,0,0,0-8" fill="#505050" fill-rule="evenodd"/><path d="M179.7,87.79l7.92,4-7.85,4a9.18,9.18,0,0,0,0-8" fill="#505050" fill-rule="evenodd"/><path d="M179.69,87.79l7.92,4-7.84,4a9.16,9.16,0,0,0,0-8" fill="#505050" fill-rule="evenodd"/><rect x="91.55" y="91.49" width="89.74" height="1" rx="0.42" fill="#505050"/></svg>