<svg xmlns="http://www.w3.org/2000/svg" viewBox="0 0 224.4 98.83"><title>OJ104544462</title><path d="M60.23,66.79H46V38.41H60.23v7.68H61V37.65H45.26v29.9H61V65.23h-.76Z" fill="#0078d7"/><path d="M59.47,39.21H46.83v4.58H59.47Zm-9.58,1.91h6.53v.76H49.89ZM56.48,43H49.86V42.2h6.62Z" fill="#0078d7"/><path d="M46.79,44.57v3h8.6V46.1h4.08V44.57Z" fill="#0078d7"/><rect x="46.79" y="48.38" width="8.6" height="2.68" fill="#0078d7"/><path d="M46.79,66H59.44v-.79H55.36V51.85h-8.6V66Zm1.53-2.73h2.29V64.5H48.32Z" fill="#0078d7"/><path d="M70,63H67.55V61.09H65V63H62.59a1.32,1.32,0,0,0-1.31,1.14h10C71.35,63.54,70.68,63,70,63Z" fill="#0078d7"/><path d="M74.85,49H57.75a.64.64,0,0,0-.67.6V59.72a.64.64,0,0,0,.67.6h17.1a.64.64,0,0,0,.67-.6V49.59A.62.62,0,0,0,74.85,49Zm-1,9.84H58.77V50.52H73.83Z" fill="#0078d7"/><path d="M70.21,56.35V52.91L66.7,51.06l-3.5,1.78v3.54l3.5,1.81Zm-4.4-2.3.89-.44.86.44-.86.48Zm0-1.14.86-.45.86.45-.86.48Zm1.91,4.52-1,.51V57l1-.51Zm0-1.18-1,.51v-.92l1-.51Zm0-1.11-1,.51v-.93l1-.51Zm-.82-1.66.86-.44.89.44-.86.45Zm2,3.35-1,.5v-.92l1-.51Zm0-1.18-1,.51v-.93l1-.51Zm0-1.15L68,55v-.89l1-.51Zm1,1.75-.86.45v-.93l.86-.44Zm0-1.14-.86.44v-.92l.86-.45ZM70,54l-.86.44v-.92L70,53Zm-.19-1.05-.89.44L68,52.91l.86-.45Zm-1.11-.58-.89.45-.86-.45.86-.44Zm-2-1,.86.45-.86.45-.89-.45Zm-1.11.61.86.44-.86.45-.86-.45Zm-1.08.57.89.45-.89.44-.9-.44Zm-.26,4.27-.86-.45v-.92l.86.45Zm0-1.18-.86-.44v-.93l.86.45Zm0-1.15L63.39,54v-.89l.86.44Zm1.18,2.93-1-.5V55.9l1,.51Zm0-1.17-1-.51v-.93l1,.51Zm0-1.15-1-.51v-.89l1,.51Zm-.7-1.53.89-.44.86.44-.89.48Zm1.88,4.46-1-.51v-.89l1,.51Zm0-1.15-1-.51v-.92l1,.51Zm0-1.14-1-.51v-.93l1,.51Z" fill="#0078d7"/><g style="isolation:isolate"><path d="M37,77.92h-1l-2.3-2.72a1.13,1.13,0,0,1-.16-.21h0v2.93h-.69V72h.69v2.8h0a1.27,1.27,0,0,1,.16-.2L36,72h.87l-2.55,2.86Z" fill="#008bfd"/><path d="M40.82,77.92h-.68V74.25h-1a8.89,8.89,0,0,1-.58,2.9,1.26,1.26,0,0,1-1.11.83,1.06,1.06,0,0,1-.37-.06v-.58a.71.71,0,0,0,.32.07c.61,0,1-1.24,1.17-3.74h2.24Z" fill="#008bfd"/><path d="M45.24,77.92h-.68v-.66h0a1.56,1.56,0,0,1-2.3.43,1.17,1.17,0,0,1-.36-.89c0-.8.47-1.26,1.4-1.39l1.28-.18c0-.72-.3-1.08-.88-1.08a2.11,2.11,0,0,0-1.39.52V74a2.7,2.7,0,0,1,1.45-.4q1.5,0,1.5,1.59Zm-.68-2.15-1,.14a1.78,1.78,0,0,0-.71.24.67.67,0,0,0-.24.59.64.64,0,0,0,.22.51.81.81,0,0,0,.59.2,1.12,1.12,0,0,0,.84-.35,1.28,1.28,0,0,0,.33-.9Z" fill="#008bfd"/><path d="M49.42,77.73a2.31,2.31,0,0,1-1.17.29,1.89,1.89,0,0,1-1.46-.59,2.09,2.09,0,0,1-.56-1.53,2.38,2.38,0,0,1,.6-1.69,2.13,2.13,0,0,1,1.61-.64,2.17,2.17,0,0,1,1,.21v.7a1.72,1.72,0,0,0-1-.33,1.38,1.38,0,0,0-1.07.46,1.76,1.76,0,0,0-.41,1.23A1.7,1.7,0,0,0,47.32,77a1.34,1.34,0,0,0,1,.43,1.7,1.7,0,0,0,1.05-.37Z" fill="#008bfd"/><path d="M53.34,77.73a2.24,2.24,0,0,1-1.16.29,1.9,1.9,0,0,1-1.47-.59,2.13,2.13,0,0,1-.56-1.53,2.38,2.38,0,0,1,.61-1.69,2.11,2.11,0,0,1,1.6-.64,2.19,2.19,0,0,1,1,.21v.7a1.72,1.72,0,0,0-1-.33,1.36,1.36,0,0,0-1.07.46,1.77,1.77,0,0,0-.42,1.23A1.7,1.7,0,0,0,51.24,77a1.37,1.37,0,0,0,1.06.43,1.66,1.66,0,0,0,1-.37Z" fill="#008bfd"/><path d="M57.93,77.92h-.61V74.53c-.06.12-.16.29-.28.51l-2,2.88h-.71V73.67H55V77l.22-.41,2-2.94h.7Z" fill="#008bfd"/><path d="M62.73,77.92h-.67V76.21a3,3,0,0,1-1.38.41c-1,0-1.43-.5-1.43-1.51V73.67h.68v1.41q0,.93.81.93a2.92,2.92,0,0,0,1.32-.36v-2h.67Z" fill="#008bfd"/><path d="M67.53,76h-3a1.62,1.62,0,0,0,.38,1.1,1.33,1.33,0,0,0,1,.38A2.11,2.11,0,0,0,67.23,77v.64a2.45,2.45,0,0,1-1.48.4,1.77,1.77,0,0,1-1.41-.58,2.3,2.3,0,0,1-.52-1.62,2.35,2.35,0,0,1,.56-1.62,1.81,1.81,0,0,1,1.4-.63,1.58,1.58,0,0,1,1.29.54,2.22,2.22,0,0,1,.46,1.5Zm-.7-.58a1.37,1.37,0,0,0-.28-.91,1,1,0,0,0-.78-.33,1.09,1.09,0,0,0-.82.34,1.57,1.57,0,0,0-.41.9Z" fill="#008bfd"/><path d="M71.45,77.73a2.24,2.24,0,0,1-1.16.29,1.89,1.89,0,0,1-1.46-.59,2.09,2.09,0,0,1-.56-1.53,2.38,2.38,0,0,1,.6-1.69,2.13,2.13,0,0,1,1.61-.64,2.17,2.17,0,0,1,1,.21v.7a1.72,1.72,0,0,0-1-.33,1.38,1.38,0,0,0-1.07.46A1.77,1.77,0,0,0,69,75.84a1.7,1.7,0,0,0,.4,1.18,1.34,1.34,0,0,0,1,.43,1.66,1.66,0,0,0,1-.37Z" fill="#008bfd"/><path d="M76,77.92h-1l-1.88-2h0v2h-.68V73.67h.68v2h0l1.79-2h.89l-2,2.06Z" fill="#008bfd"/><path d="M78.49,78A2,2,0,0,1,77,77.43a2.24,2.24,0,0,1-.56-1.58A2.29,2.29,0,0,1,77,74.18a2.08,2.08,0,0,1,1.58-.61,1.92,1.92,0,0,1,1.49.59,2.34,2.34,0,0,1,.53,1.62A2.3,2.3,0,0,1,80,77.41,2,2,0,0,1,78.49,78Zm.05-3.87a1.31,1.31,0,0,0-1,.44,1.81,1.81,0,0,0-.38,1.23A1.69,1.69,0,0,0,77.5,77a1.29,1.29,0,0,0,1,.44,1.23,1.23,0,0,0,1-.43,1.82,1.82,0,0,0,.35-1.21,1.88,1.88,0,0,0-.35-1.23A1.23,1.23,0,0,0,78.54,74.15Z" fill="#008bfd"/><path d="M85.1,76h-3a1.63,1.63,0,0,0,.39,1.1,1.32,1.32,0,0,0,1,.38A2.11,2.11,0,0,0,84.81,77v.64a2.47,2.47,0,0,1-1.48.4,1.8,1.8,0,0,1-1.42-.58,2.72,2.72,0,0,1,0-3.24,1.81,1.81,0,0,1,1.4-.63,1.61,1.61,0,0,1,1.29.54,2.28,2.28,0,0,1,.45,1.5Zm-.69-.58a1.32,1.32,0,0,0-.29-.91.94.94,0,0,0-.77-.33,1.08,1.08,0,0,0-.82.34,1.58,1.58,0,0,0-.42.9Z" fill="#008bfd"/><path d="M38.3,88.12h-.68V84.46H35.45v3.66h-.68V83.87H38.3Z" fill="#008bfd"/><path d="M40.37,87.51h0v2.57h-.68V83.87h.68v.75h0a1.63,1.63,0,0,1,1.47-.85,1.6,1.6,0,0,1,1.29.57,2.42,2.42,0,0,1,.46,1.53,2.66,2.66,0,0,1-.52,1.71,1.73,1.73,0,0,1-1.42.64A1.44,1.44,0,0,1,40.37,87.51Zm0-1.71v.59a1.24,1.24,0,0,0,.34.89,1.13,1.13,0,0,0,.87.37,1.15,1.15,0,0,0,1-.47,2.22,2.22,0,0,0,.35-1.32,1.71,1.71,0,0,0-.33-1.11,1.08,1.08,0,0,0-.89-.4,1.19,1.19,0,0,0-1,.41A1.53,1.53,0,0,0,40.36,85.8Z" fill="#008bfd"/><path d="M48.24,88.12h-.62V84.73c-.06.12-.15.29-.28.5l-2,2.89h-.71V83.87h.63v3.35a4.06,4.06,0,0,1,.21-.41l2-2.94h.71Z" fill="#008bfd"/><path d="M52.71,88.12H52V84.45h-1a8.89,8.89,0,0,1-.58,2.9,1.26,1.26,0,0,1-1.11.83,1,1,0,0,1-.37-.06v-.58a.68.68,0,0,0,.32.07c.61,0,1-1.24,1.17-3.74h2.23Z" fill="#008bfd"/><path d="M55.87,88.22a2,2,0,0,1-1.51-.59,2.24,2.24,0,0,1-.56-1.58,2.28,2.28,0,0,1,.59-1.67A2.1,2.1,0,0,1,56,83.77a1.9,1.9,0,0,1,1.48.59,2.68,2.68,0,0,1,0,3.25A2,2,0,0,1,55.87,88.22Zm.05-3.87a1.31,1.31,0,0,0-1,.44A1.86,1.86,0,0,0,54.5,86a1.8,1.8,0,0,0,.38,1.2,1.33,1.33,0,0,0,1,.43,1.21,1.21,0,0,0,1-.43A1.82,1.82,0,0,0,57.29,86a1.88,1.88,0,0,0-.36-1.23A1.21,1.21,0,0,0,55.92,84.35Z" fill="#008bfd"/><path d="M64.72,88.12H63.8L61.89,86h0v2.1h-.65V86h0l-1.9,2.1H58.4l2.11-2.19-2-2.06h.87l1.81,2h0v-2h.65v2h0l1.82-2h.88l-2,2.06Z" fill="#008bfd"/><path d="M68.83,86.17h-3a1.58,1.58,0,0,0,.38,1.09,1.31,1.31,0,0,0,1,.39,2.15,2.15,0,0,0,1.32-.47v.64a2.5,2.5,0,0,1-1.49.4,1.79,1.79,0,0,1-1.41-.57A2.35,2.35,0,0,1,65.12,86a2.31,2.31,0,0,1,.57-1.62,1.78,1.78,0,0,1,1.39-.63,1.58,1.58,0,0,1,1.29.54,2.22,2.22,0,0,1,.46,1.5Zm-.7-.58a1.37,1.37,0,0,0-.28-.92,1,1,0,0,0-.78-.32,1.11,1.11,0,0,0-.82.34,1.57,1.57,0,0,0-.41.9Z" fill="#008bfd"/><path d="M73.39,88.12h-.68V86.19H70.54v1.93h-.68V83.87h.68v1.75h2.17V83.87h.68Z" fill="#008bfd"/><path d="M78.33,88.12h-.62V84.73c-.06.12-.15.29-.28.5l-2,2.89h-.71V83.87h.63v3.35a4.06,4.06,0,0,1,.21-.41l2-2.94h.71Z" fill="#008bfd"/><path d="M83.12,86.17h-3a1.58,1.58,0,0,0,.38,1.09,1.3,1.3,0,0,0,1,.39,2.11,2.11,0,0,0,1.32-.47v.64a2.45,2.45,0,0,1-1.48.4,1.79,1.79,0,0,1-1.41-.57A2.35,2.35,0,0,1,79.41,86,2.31,2.31,0,0,1,80,84.4a1.78,1.78,0,0,1,1.39-.63,1.58,1.58,0,0,1,1.29.54,2.22,2.22,0,0,1,.46,1.5Zm-.7-.58a1.42,1.42,0,0,0-.28-.92,1,1,0,0,0-.78-.32,1.11,1.11,0,0,0-.82.34,1.57,1.57,0,0,0-.41.9Z" fill="#008bfd"/></g><path d="M7.85,44.76a4.5,4.5,0,0,0-3,5.67c.66,2.55,3,4.21,5.27,3.66a4.49,4.49,0,0,0,3-5.66C12.57,45.76,10.16,44.1,7.85,44.76Z" fill="#008bfd"/><path d="M12.78,54.78c-.43,0-.88.77-1.54,1.11s-1.31.89-3.17,0S6,54.22,4.43,54.22s-4,2.78-4,6.88H16a12.15,12.15,0,0,0-1.11-4.21C13.77,54.78,13.23,54.78,12.78,54.78Z" fill="#008bfd"/><path d="M14.19,49.84H10.07a.7.7,0,0,0-.65.65v2.85a.73.73,0,0,0,.76.66h.76v5.15a1,1,0,0,0,1,1.09,1,1,0,0,0,1-1h.21V58.6c0-.22.33-.33.33-.33v-.33c-.33-.11-.54-.32-.54-.43v-.33L13.1,57a3.53,3.53,0,0,0,.33-.55,2.4,2.4,0,0,1-.33-.55c-.1-.11-.1-.33-.21-.44V55.2a2.52,2.52,0,0,1,.76-1.09h.54a.71.71,0,0,0,.65-.66v-3A.62.62,0,0,0,14.19,49.84ZM11.8,59.37c0,.22,0,.33-.21.33s-.22-.22-.22-.33V54.55c0-.22.11-.33.22-.33s.21.22.21.33Zm.33-7.78a.66.66,0,0,1,0-1.32.71.71,0,0,1,.65.66A.63.63,0,0,1,12.13,51.59Z" fill="#008bfd" stroke="gray" stroke-linecap="round" stroke-linejoin="round" stroke-width="0.75"/><path d="M11.57,59.67a.24.24,0,0,1-.22-.22v-5a.22.22,0,0,1,.44,0v5.1C11.79,59.67,11.68,59.67,11.57,59.67Z" fill="#fff"/><ellipse cx="12.14" cy="50.92" rx="0.66" ry="0.67" fill="#fff"/><path d="M191.76,41.68h-20.5a1.1,1.1,0,0,0-1.09,1.11V59.53a1.09,1.09,0,0,0,1.09,1.1h5.28a3.29,3.29,0,0,0,3.21,2.27,3.37,3.37,0,0,0,0-6.74,3.29,3.29,0,0,0-3.21,2.27h-4.19v-12h18.31v12h-3.45a7.61,7.61,0,0,0-7.46-6.57,8.25,8.25,0,0,0-3.64.92l1,2a5.28,5.28,0,0,1,2.55-.68,5.46,5.46,0,0,1,0,10.92,5.28,5.28,0,0,1-2.55-.68l-1,2a7.4,7.4,0,0,0,3.64.92,7.61,7.61,0,0,0,7.46-6.56h4.55a1.09,1.09,0,0,0,1.09-1.1V42.79A1.14,1.14,0,0,0,191.76,41.68Z" fill="#008bfd"/><g style="isolation:isolate"><path d="M154.12,77.92h-.7v-5.3h-3.11v5.3h-.7V72h4.51Z" fill="#008bfd"/><path d="M156.27,77.31h0v2.57h-.68V73.67h.68v.75h0a1.63,1.63,0,0,1,1.47-.85,1.57,1.57,0,0,1,1.29.57,2.4,2.4,0,0,1,.46,1.53,2.66,2.66,0,0,1-.52,1.71,1.73,1.73,0,0,1-1.42.64A1.44,1.44,0,0,1,156.27,77.31Zm0-1.71v.59a1.24,1.24,0,0,0,.34.89,1.13,1.13,0,0,0,.87.37,1.15,1.15,0,0,0,1-.47,2.22,2.22,0,0,0,.35-1.32,1.71,1.71,0,0,0-.33-1.11,1.08,1.08,0,0,0-.89-.4,1.19,1.19,0,0,0-.95.41A1.51,1.51,0,0,0,156.26,75.6Z" fill="#008bfd"/><path d="M164.13,77.92h-.61V74.53c-.06.12-.15.29-.28.5l-2,2.89h-.71V73.67h.63V77a4.06,4.06,0,0,1,.21-.41l2-2.94h.7Z" fill="#008bfd"/><path d="M168.61,77.92h-.67V74.25h-1a8.89,8.89,0,0,1-.58,2.9,1.26,1.26,0,0,1-1.11.83,1,1,0,0,1-.37-.06v-.58a.68.68,0,0,0,.32.07c.6,0,1-1.24,1.17-3.74h2.23Z" fill="#008bfd"/><path d="M171.77,78a2,2,0,0,1-1.51-.59,2.24,2.24,0,0,1-.56-1.58,2.28,2.28,0,0,1,.59-1.67,2.06,2.06,0,0,1,1.58-.61,1.9,1.9,0,0,1,1.48.59,2.68,2.68,0,0,1,0,3.25A2,2,0,0,1,171.77,78Zm0-3.87a1.31,1.31,0,0,0-1,.44,1.86,1.86,0,0,0-.38,1.23,1.75,1.75,0,0,0,.38,1.19,1.3,1.3,0,0,0,1,.44,1.21,1.21,0,0,0,1-.43,1.82,1.82,0,0,0,.36-1.21,1.86,1.86,0,0,0-.36-1.23A1.21,1.21,0,0,0,171.82,74.15Z" fill="#008bfd"/><path d="M180.62,77.92h-.92l-1.91-2.1h0v2.1h-.65v-2.1h0l-1.9,2.1h-.91l2.11-2.19-2-2.06h.87l1.81,2h0v-2h.65v2h0l1.82-2h.88l-2,2.06Z" fill="#008bfd"/><path d="M184.73,76h-3a1.58,1.58,0,0,0,.38,1.09,1.31,1.31,0,0,0,1,.39,2.11,2.11,0,0,0,1.31-.47v.64A2.45,2.45,0,0,1,183,78a1.77,1.77,0,0,1-1.41-.58,2.68,2.68,0,0,1,.05-3.24,1.78,1.78,0,0,1,1.39-.63,1.58,1.58,0,0,1,1.29.54,2.22,2.22,0,0,1,.46,1.5Zm-.7-.58a1.42,1.42,0,0,0-.28-.92,1,1,0,0,0-.78-.32,1.11,1.11,0,0,0-.82.34,1.57,1.57,0,0,0-.41.9Z" fill="#008bfd"/><path d="M189.29,77.92h-.68V76h-2.17v1.93h-.68V73.67h.68v1.75h2.17V73.67h.68Z" fill="#008bfd"/><path d="M194.23,77.92h-.62V74.53c-.06.12-.15.29-.28.5l-2,2.89h-.71V73.67h.63V77a4.06,4.06,0,0,1,.21-.41l2-2.94h.71Z" fill="#008bfd"/><path d="M199,76h-3a1.58,1.58,0,0,0,.38,1.09,1.3,1.3,0,0,0,1,.39,2.11,2.11,0,0,0,1.32-.47v.64a2.45,2.45,0,0,1-1.48.4,1.77,1.77,0,0,1-1.41-.58,2.68,2.68,0,0,1,0-3.24,1.78,1.78,0,0,1,1.39-.63,1.58,1.58,0,0,1,1.29.54,2.22,2.22,0,0,1,.46,1.5Zm-.7-.58a1.42,1.42,0,0,0-.28-.92,1,1,0,0,0-.78-.32,1.11,1.11,0,0,0-.82.34,1.57,1.57,0,0,0-.41.9Z" fill="#008bfd"/><path d="M207.08,77.92h-.78l-.63-1.66h-2.52l-.6,1.66h-.77l2.28-6h.72Zm-1.64-2.29-.93-2.54a2.24,2.24,0,0,1-.09-.4h0a3.13,3.13,0,0,1-.09.4l-.93,2.54Z" fill="#008bfd"/><path d="M208.65,75.67v2.25H208V72h1.64a2.17,2.17,0,0,1,1.48.47,1.65,1.65,0,0,1,.52,1.31,1.79,1.79,0,0,1-.58,1.38,2.24,2.24,0,0,1-1.58.54Zm0-3.07V75h.73a1.62,1.62,0,0,0,1.1-.33,1.18,1.18,0,0,0,.38-.93c0-.78-.46-1.18-1.39-1.18Z" fill="#008bfd"/><path d="M213.41,77.92h-.7V72h.7Z" fill="#008bfd"/></g><path d="M161.69,50.43l8.05,4-3.46,1.74-4.5,2.27a9,9,0,0,0,0-8" fill="#505050"/><rect x="36.94" y="8" width="187.09" height="20" fill="none"/><g style="isolation:isolate"><path d="M45.19,6.9H40.94V6.36h4.25Z" fill="#00b0f0"/><path d="M52.82,9h-.71V3.69H49V9h-.7V3h4.52Z" fill="#00b0f0"/><path d="M56,9.09a2,2,0,0,1-1.5-.59A2.23,2.23,0,0,1,54,6.92a2.29,2.29,0,0,1,.58-1.67,2.11,2.11,0,0,1,1.58-.6,1.91,1.91,0,0,1,1.49.58,2.34,2.34,0,0,1,.53,1.62,2.3,2.3,0,0,1-.57,1.63A2,2,0,0,1,56,9.09Zm.05-3.87a1.3,1.3,0,0,0-1,.44,1.82,1.82,0,0,0-.38,1.24,1.72,1.72,0,0,0,.38,1.19,1.31,1.31,0,0,0,1,.43,1.25,1.25,0,0,0,1-.43,1.82,1.82,0,0,0,.35-1.21,1.88,1.88,0,0,0-.35-1.23A1.25,1.25,0,0,0,56.09,5.22Z" fill="#00b0f0"/><path d="M61.92,5.33H60.64V9H60V5.33H58.68V4.75h3.24Z" fill="#00b0f0"/><path d="M64.51,9.09A1.94,1.94,0,0,1,63,8.5a2.19,2.19,0,0,1-.57-1.58A2.3,2.3,0,0,1,63,5.25a2.11,2.11,0,0,1,1.58-.6,1.91,1.91,0,0,1,1.49.58,2.34,2.34,0,0,1,.53,1.62,2.26,2.26,0,0,1-.58,1.63A2,2,0,0,1,64.51,9.09Zm0-3.87a1.32,1.32,0,0,0-1,.44,1.87,1.87,0,0,0-.38,1.24,1.72,1.72,0,0,0,.39,1.19,1.31,1.31,0,0,0,1,.43,1.25,1.25,0,0,0,1-.43,1.88,1.88,0,0,0,.35-1.21,1.94,1.94,0,0,0-.35-1.23A1.25,1.25,0,0,0,64.56,5.22Z" fill="#00b0f0"/><path d="M71.24,9h-.95L68.41,7h0V9h-.68V4.75h.68V6.69h0L70.2,4.75h.89l-2,2.05Z" fill="#00b0f0"/><path d="M77.8,9h-1L75,7h0V9h-.68V4.75H75V6.69h0l1.78-1.94h.89l-2,2.05Z" fill="#00b0f0"/><path d="M80.27,9.09a1.94,1.94,0,0,1-1.5-.59,2.19,2.19,0,0,1-.57-1.58,2.3,2.3,0,0,1,.59-1.67,2.11,2.11,0,0,1,1.58-.6,1.89,1.89,0,0,1,1.48.58,2.3,2.3,0,0,1,.54,1.62,2.26,2.26,0,0,1-.58,1.63A2,2,0,0,1,80.27,9.09Zm0-3.87a1.32,1.32,0,0,0-1,.44A1.87,1.87,0,0,0,78.9,6.9a1.72,1.72,0,0,0,.39,1.19,1.29,1.29,0,0,0,1,.43,1.25,1.25,0,0,0,1-.43,1.88,1.88,0,0,0,.35-1.21,1.94,1.94,0,0,0-.35-1.23A1.25,1.25,0,0,0,80.32,5.22Z" fill="#00b0f0"/><path d="M87.18,10.54H86.6V9H83.44v1.54h-.58V8.42h.38a6.41,6.41,0,0,0,1.1-3.67h2.21V8.42h.63ZM85.87,8.42V5.32h-.94a6.66,6.66,0,0,1-1,3.1Z" fill="#00b0f0"/><path d="M91.17,9h-.68V8.33h0a1.56,1.56,0,0,1-2.3.43,1.17,1.17,0,0,1-.36-.89c0-.8.47-1.26,1.4-1.39l1.28-.18c0-.72-.3-1.08-.88-1.08a2.11,2.11,0,0,0-1.39.52V5a2.69,2.69,0,0,1,1.45-.39c1,0,1.5.52,1.5,1.58Zm-.68-2.16-1,.15a1.6,1.6,0,0,0-.71.23.68.68,0,0,0-.24.6.67.67,0,0,0,.22.51.85.85,0,0,0,.59.19,1.12,1.12,0,0,0,.84-.35,1.28,1.28,0,0,0,.33-.9Z" fill="#00b0f0"/><path d="M97.82,9h-.68V8.33h0a1.56,1.56,0,0,1-2.3.43,1.17,1.17,0,0,1-.36-.89c0-.8.47-1.26,1.4-1.39l1.28-.18c0-.72-.29-1.08-.88-1.08a2.07,2.07,0,0,0-1.38.52V5a2.66,2.66,0,0,1,1.44-.39c1,0,1.5.52,1.5,1.58Zm-.68-2.16-1,.15a1.64,1.64,0,0,0-.71.23.68.68,0,0,0-.24.6.67.67,0,0,0,.22.51.87.87,0,0,0,.59.19,1.12,1.12,0,0,0,.84-.35,1.28,1.28,0,0,0,.33-.9Z" fill="#00b0f0"/><path d="M99.1,9V4.75H101a1.62,1.62,0,0,1,1,.27.92.92,0,0,1,.37.76,1,1,0,0,1-.82,1c.65.08,1,.41,1,1a1.12,1.12,0,0,1-.4.87,1.44,1.44,0,0,1-1,.36Zm.68-3.67V6.52h1c.55,0,.83-.21.83-.64s-.25-.55-.74-.55Zm0,1.77V8.41H101c.55,0,.83-.22.83-.66s-.31-.65-.93-.65Z" fill="#00b0f0"/><path d="M106.27,5.33H105V9h-.68V5.33H103V4.75h3.23Z" fill="#00b0f0"/><path d="M108.87,9.09a2,2,0,0,1-1.51-.59,2.23,2.23,0,0,1-.56-1.58,2.3,2.3,0,0,1,.59-1.67,2.1,2.1,0,0,1,1.58-.6,1.89,1.89,0,0,1,1.48.58A2.29,2.29,0,0,1,111,6.85a2.3,2.3,0,0,1-.57,1.63A2,2,0,0,1,108.87,9.09Zm0-3.87a1.31,1.31,0,0,0-1,.44,1.87,1.87,0,0,0-.38,1.24,1.77,1.77,0,0,0,.38,1.19,1.33,1.33,0,0,0,1,.43,1.21,1.21,0,0,0,1-.43,1.82,1.82,0,0,0,.36-1.21,1.88,1.88,0,0,0-.36-1.23A1.21,1.21,0,0,0,108.92,5.22Z" fill="#00b0f0"/><path d="M112.77,8.38h0V11h-.68V4.75h.68v.74h0a1.6,1.6,0,0,1,1.47-.84,1.55,1.55,0,0,1,1.28.57A2.35,2.35,0,0,1,116,6.75a2.58,2.58,0,0,1-.52,1.7,1.71,1.71,0,0,1-1.42.64A1.41,1.41,0,0,1,112.77,8.38Zm0-1.71v.59a1.28,1.28,0,0,0,.34.89,1.22,1.22,0,0,0,1.84-.1,2.14,2.14,0,0,0,.35-1.32A1.77,1.77,0,0,0,115,5.62a1.09,1.09,0,0,0-.89-.4,1.22,1.22,0,0,0-1,.41A1.53,1.53,0,0,0,112.75,6.67Z" fill="#00b0f0"/><path d="M120.63,9H120V5.6l-.28.51-2,2.89h-.7V4.75h.62V8.09c0-.08.11-.21.22-.41l2-2.93h.71Z" fill="#00b0f0"/><path d="M121.65,8.88V8.21a2.69,2.69,0,0,0,1.3.31c.75,0,1.12-.24,1.12-.72s-.41-.7-1.23-.7h-.42V6.52h.4c.72,0,1.08-.22,1.08-.67a.55.55,0,0,0-.24-.46,1.26,1.26,0,0,0-.69-.17,2.87,2.87,0,0,0-1.24.31V4.9a3.85,3.85,0,0,1,1.3-.26c1,0,1.55.38,1.55,1.14a1,1,0,0,1-.23.64,1.06,1.06,0,0,1-.64.35v0a1.13,1.13,0,0,1,.75.32.91.91,0,0,1,.29.71,1.09,1.09,0,0,1-.47.92A2.13,2.13,0,0,1,123,9.1,3.35,3.35,0,0,1,121.65,8.88Z" fill="#00b0f0"/><path d="M128.84,9h-.68V8.33h0a1.56,1.56,0,0,1-2.3.43,1.17,1.17,0,0,1-.36-.89c0-.8.47-1.26,1.4-1.39l1.28-.18c0-.72-.29-1.08-.88-1.08a2.07,2.07,0,0,0-1.38.52V5a2.66,2.66,0,0,1,1.44-.39c1,0,1.5.52,1.5,1.58Zm-.68-2.16-1,.15a1.64,1.64,0,0,0-.71.23.68.68,0,0,0-.24.6.67.67,0,0,0,.22.51.87.87,0,0,0,.59.19,1.12,1.12,0,0,0,.84-.35,1.28,1.28,0,0,0,.33-.9Z" fill="#00b0f0"/><path d="M134.28,10.54h-.59V9h-3.57V4.75h.68V8.42H133V4.75h.68V8.42h.63Z" fill="#00b0f0"/><path d="M138.78,9h-.61V5.6c-.06.12-.15.29-.28.51l-2,2.89h-.71V4.75h.62V8.09l.22-.41,2-2.93h.7Z" fill="#00b0f0"/><path d="M143.72,9h-.61V5.6c-.06.12-.15.29-.28.51l-2,2.89h-.71V4.75h.62V8.09l.22-.41,2-2.93h.7Z" fill="#00b0f0"/><path d="M149.21,10.35h-.6a5.31,5.31,0,0,1-1.29-3.63A5.51,5.51,0,0,1,148.61,3h.61a5.59,5.59,0,0,0-1.3,3.68A5.53,5.53,0,0,0,149.21,10.35Z" fill="#00b0f0"/><path d="M152.89,8.8a2.17,2.17,0,0,1-1.16.29,1.9,1.9,0,0,1-1.47-.59A2.13,2.13,0,0,1,149.7,7a2.38,2.38,0,0,1,.6-1.69,2.14,2.14,0,0,1,1.61-.63,2.25,2.25,0,0,1,1,.2v.7a1.74,1.74,0,0,0-1-.33,1.34,1.34,0,0,0-1.07.47,1.76,1.76,0,0,0-.42,1.22,1.7,1.7,0,0,0,.39,1.18,1.34,1.34,0,0,0,1.05.43,1.7,1.7,0,0,0,1-.37Z" fill="#00b0f0"/><path d="M157,6.75V9h-.7V3H158a2.15,2.15,0,0,1,1.48.47A1.65,1.65,0,0,1,160,4.82a1.81,1.81,0,0,1-.58,1.39,2.24,2.24,0,0,1-1.58.54Zm0-3.08V6.11h.73a1.68,1.68,0,0,0,1.1-.32,1.21,1.21,0,0,0,.38-.94c0-.78-.47-1.18-1.4-1.18Z" fill="#00b0f0"/><path d="M165.24,9h-1L162,6.27l-.16-.2h0V9h-.7V3h.7v2.8h0a2.33,2.33,0,0,1,.16-.2L164.2,3h.86L162.51,5.9Z" fill="#00b0f0"/><path d="M169.71,8.75a3.54,3.54,0,0,1-1.65.34,2.67,2.67,0,0,1-2-.81,3,3,0,0,1-.76-2.15,3.15,3.15,0,0,1,.86-2.31,2.92,2.92,0,0,1,2.17-.88,3.56,3.56,0,0,1,1.41.25v.74a2.84,2.84,0,0,0-1.41-.35,2.16,2.16,0,0,0-1.67.68A2.61,2.61,0,0,0,166,6.09a2.49,2.49,0,0,0,.59,1.73,2,2,0,0,0,1.57.65,2.91,2.91,0,0,0,1.55-.4Z" fill="#00b0f0"/><path d="M174.07,9h-3.15V3h3v.63h-2.32v2h2.15v.63h-2.15V8.36h2.45Z" fill="#00b0f0"/><path d="M175.14,10.35h-.6a5.53,5.53,0,0,0,1.29-3.63A5.59,5.59,0,0,0,174.53,3h.61a5.47,5.47,0,0,1,1.3,3.68A5.27,5.27,0,0,1,175.14,10.35Z" fill="#00b0f0"/><path d="M45.19,17.1H40.94v-.54h4.25Z" fill="#00b0f0"/><path d="M47.88,19.2v-6h1.69a1.85,1.85,0,0,1,1.22.38,1.23,1.23,0,0,1,.46,1,1.44,1.44,0,0,1-.28.87,1.49,1.49,0,0,1-.75.54h0a1.51,1.51,0,0,1,1,.46,1.39,1.39,0,0,1,.36,1A1.53,1.53,0,0,1,51,18.72a2,2,0,0,1-1.38.48Zm.69-5.32V15.8h.72a1.38,1.38,0,0,0,.9-.28,1,1,0,0,0,.33-.78c0-.58-.39-.86-1.15-.86Zm0,2.54v2.14h1a1.37,1.37,0,0,0,.95-.29,1,1,0,0,0,.34-.79c0-.71-.48-1.06-1.44-1.06Z" fill="#00b0f0"/><path d="M55.34,19a2.18,2.18,0,0,1-1.16.3,1.91,1.91,0,0,1-1.47-.6,2.13,2.13,0,0,1-.56-1.53,2.34,2.34,0,0,1,.61-1.69,2.1,2.1,0,0,1,1.6-.63,2.36,2.36,0,0,1,1,.2v.7a1.74,1.74,0,0,0-1-.33,1.34,1.34,0,0,0-1.07.47,1.76,1.76,0,0,0-.42,1.22,1.7,1.7,0,0,0,.39,1.18,1.36,1.36,0,0,0,1.06.43,1.68,1.68,0,0,0,1-.37Z" fill="#00b0f0"/><path d="M58.83,15.53H57.55V19.2h-.68V15.53H55.59V15h3.24Z" fill="#00b0f0"/><path d="M60.13,18.58h0v2.57h-.68V15h.68v.74h0a1.6,1.6,0,0,1,1.47-.84,1.55,1.55,0,0,1,1.28.57A2.35,2.35,0,0,1,63.34,17a2.58,2.58,0,0,1-.52,1.7,1.72,1.72,0,0,1-1.42.65A1.41,1.41,0,0,1,60.13,18.58Zm0-1.71v.59a1.28,1.28,0,0,0,.34.89,1.22,1.22,0,0,0,1.84-.1,2.14,2.14,0,0,0,.35-1.32,1.77,1.77,0,0,0-.32-1.11,1.09,1.09,0,0,0-.89-.4,1.22,1.22,0,0,0-1,.41A1.53,1.53,0,0,0,60.11,16.87Z" fill="#00b0f0"/><path d="M66,19.3a1.94,1.94,0,0,1-1.5-.6,2.18,2.18,0,0,1-.56-1.58,2.29,2.29,0,0,1,.58-1.67,2.11,2.11,0,0,1,1.58-.6,1.91,1.91,0,0,1,1.49.58,2.34,2.34,0,0,1,.53,1.62,2.26,2.26,0,0,1-.58,1.63A2,2,0,0,1,66,19.3ZM66,15.42a1.34,1.34,0,0,0-1,.44,1.87,1.87,0,0,0-.38,1.24A1.72,1.72,0,0,0,65,18.29a1.31,1.31,0,0,0,1,.43,1.27,1.27,0,0,0,1-.42,1.93,1.93,0,0,0,.35-1.22,1.94,1.94,0,0,0-.35-1.23A1.25,1.25,0,0,0,66,15.42Z" fill="#00b0f0"/><path d="M72.4,17.24h-3a1.62,1.62,0,0,0,.38,1.1,1.34,1.34,0,0,0,1,.38,2.15,2.15,0,0,0,1.32-.47v.64a2.5,2.5,0,0,1-1.49.41,1.8,1.8,0,0,1-1.41-.58,2.4,2.4,0,0,1-.52-1.63,2.32,2.32,0,0,1,.57-1.62,1.78,1.78,0,0,1,1.39-.62,1.61,1.61,0,0,1,1.29.53,2.24,2.24,0,0,1,.46,1.5Zm-.7-.58a1.32,1.32,0,0,0-.28-.91,1,1,0,0,0-.78-.33,1.11,1.11,0,0,0-.82.34,1.57,1.57,0,0,0-.41.9Z" fill="#00b0f0"/><path d="M76.74,19.2h-.68V17.27H73.9V19.2h-.68V15h.68v1.74h2.16V15h.68Z" fill="#00b0f0"/><path d="M81.44,19.2h-.68V17.27H78.59V19.2h-.68V15h.68v1.74h2.17V15h.68Z" fill="#00b0f0"/><path d="M85.65,19.2H85v-.67h0a1.43,1.43,0,0,1-1.31.77,1.41,1.41,0,0,1-1-.34,1.17,1.17,0,0,1-.36-.89c0-.8.47-1.26,1.4-1.39L85,16.5c0-.72-.3-1.08-.88-1.08a2.11,2.11,0,0,0-1.39.52v-.7a2.69,2.69,0,0,1,1.45-.39c1,0,1.5.52,1.5,1.58ZM85,17.05l-1,.14a1.6,1.6,0,0,0-.71.23A.68.68,0,0,0,83,18a.67.67,0,0,0,.22.51.85.85,0,0,0,.59.19,1.12,1.12,0,0,0,.84-.35,1.33,1.33,0,0,0,.33-.9Z" fill="#00b0f0"/><path d="M89.62,19.2h-.68V17.44h-.57q-.41,0-.75.66l-.55,1.1h-.79L87,17.88a1.24,1.24,0,0,1,.6-.6,1.14,1.14,0,0,1-.76-.36,1.12,1.12,0,0,1-.26-.75,1.08,1.08,0,0,1,.41-.89A1.77,1.77,0,0,1,88.14,15h1.48Zm-.68-2.33V15.53h-.8c-.58,0-.86.21-.86.65s.27.69.83.69Z" fill="#00b0f0"/><path d="M96.42,19.2h-.68V15.53H93.57V19.2h-.68V15h3.53Z" fill="#00b0f0"/><path d="M98.28,18.58h0v2.57h-.68V15h.68v.74h0a1.62,1.62,0,0,1,1.47-.84,1.57,1.57,0,0,1,1.29.57A2.4,2.4,0,0,1,101.5,17a2.63,2.63,0,0,1-.52,1.7,1.73,1.73,0,0,1-1.42.65A1.43,1.43,0,0,1,98.28,18.58Zm0-1.71v.59a1.24,1.24,0,0,0,.34.89,1.13,1.13,0,0,0,.87.37,1.15,1.15,0,0,0,1-.47,2.2,2.2,0,0,0,.35-1.32,1.71,1.71,0,0,0-.33-1.11,1.08,1.08,0,0,0-.89-.4,1.22,1.22,0,0,0-1,.41A1.53,1.53,0,0,0,98.27,16.87Z" fill="#00b0f0"/><path d="M104.15,19.3a2,2,0,0,1-1.51-.6,2.23,2.23,0,0,1-.56-1.58,2.3,2.3,0,0,1,.59-1.67,2.1,2.1,0,0,1,1.58-.6,1.89,1.89,0,0,1,1.48.58,2.3,2.3,0,0,1,.54,1.62,2.3,2.3,0,0,1-.58,1.63A2,2,0,0,1,104.15,19.3Zm0-3.88a1.32,1.32,0,0,0-1,.44,1.87,1.87,0,0,0-.38,1.24,1.77,1.77,0,0,0,.38,1.19,1.33,1.33,0,0,0,1,.43,1.24,1.24,0,0,0,1-.42,1.87,1.87,0,0,0,.36-1.22,1.88,1.88,0,0,0-.36-1.23A1.21,1.21,0,0,0,104.2,15.42Z" fill="#00b0f0"/><path d="M107.14,19.2V15H109a1.62,1.62,0,0,1,1,.27.92.92,0,0,1,.36.76.94.94,0,0,1-.81,1c.65.08,1,.41,1,1a1.1,1.1,0,0,1-.41.87,1.4,1.4,0,0,1-1,.36Zm.68-3.67v1.19h1c.55,0,.82-.21.82-.64s-.24-.55-.74-.55Zm0,1.77v1.31H109c.55,0,.82-.22.82-.66s-.3-.65-.92-.65Z" fill="#00b0f0"/><path d="M114.85,17.24h-3a1.58,1.58,0,0,0,.38,1.1,1.33,1.33,0,0,0,1,.38,2.11,2.11,0,0,0,1.32-.47v.64a2.47,2.47,0,0,1-1.48.41,1.84,1.84,0,0,1-1.42-.58,2.39,2.39,0,0,1-.51-1.63,2.36,2.36,0,0,1,.56-1.62,1.8,1.8,0,0,1,1.4-.62,1.61,1.61,0,0,1,1.29.53,2.3,2.3,0,0,1,.46,1.5Zm-.7-.58a1.37,1.37,0,0,0-.28-.91,1,1,0,0,0-.78-.33,1.09,1.09,0,0,0-.82.34,1.58,1.58,0,0,0-.42.9Z" fill="#00b0f0"/><path d="M116.36,18.58h0v2.57h-.68V15h.68v.74h0a1.62,1.62,0,0,1,1.47-.84,1.55,1.55,0,0,1,1.28.57,2.35,2.35,0,0,1,.46,1.53,2.58,2.58,0,0,1-.52,1.7,1.72,1.72,0,0,1-1.42.65A1.41,1.41,0,0,1,116.36,18.58Zm0-1.71v.59a1.25,1.25,0,0,0,.35.89,1.1,1.1,0,0,0,.87.37,1.16,1.16,0,0,0,1-.47,2.2,2.2,0,0,0,.35-1.32,1.71,1.71,0,0,0-.33-1.11,1.09,1.09,0,0,0-.89-.4,1.2,1.2,0,0,0-1,.41A1.49,1.49,0,0,0,116.34,16.87Z" fill="#00b0f0"/><path d="M124,19.2h-1l-1.88-2.05h0V19.2h-.68V15h.68v1.94h0L122.93,15h.89l-2,2.05Z" fill="#00b0f0"/><path d="M127.5,19.2h-.68v-.67h0a1.54,1.54,0,0,1-2.3.43,1.17,1.17,0,0,1-.36-.89c0-.8.47-1.26,1.41-1.39l1.27-.18q0-1.08-.87-1.08a2.07,2.07,0,0,0-1.39.52v-.7a2.68,2.68,0,0,1,1.44-.39c1,0,1.5.52,1.5,1.58Zm-.68-2.15-1,.14a1.65,1.65,0,0,0-.72.23.68.68,0,0,0-.24.6.7.7,0,0,0,.22.51.88.88,0,0,0,.6.19,1.11,1.11,0,0,0,.83-.35,1.28,1.28,0,0,0,.33-.9Z" fill="#00b0f0"/><path d="M134.22,19.2h-.68V15.53h-2.17V19.2h-.68V15h3.53Z" fill="#00b0f0"/><path d="M137.16,19.3a2,2,0,0,1-1.51-.6,2.23,2.23,0,0,1-.56-1.58,2.3,2.3,0,0,1,.59-1.67,2.1,2.1,0,0,1,1.58-.6,1.89,1.89,0,0,1,1.48.58,2.29,2.29,0,0,1,.53,1.62,2.3,2.3,0,0,1-.57,1.63A2,2,0,0,1,137.16,19.3Zm.05-3.88a1.31,1.31,0,0,0-1,.44,1.87,1.87,0,0,0-.38,1.24,1.77,1.77,0,0,0,.38,1.19,1.33,1.33,0,0,0,1,.43,1.24,1.24,0,0,0,1-.42,1.87,1.87,0,0,0,.36-1.22,1.88,1.88,0,0,0-.36-1.23A1.21,1.21,0,0,0,137.21,15.42Z" fill="#00b0f0"/><path d="M143.86,20.74h-.58V19.2h-3.16v1.54h-.58V18.62h.37A6.34,6.34,0,0,0,141,15h2.2v3.67h.64Zm-1.32-2.12v-3.1h-.94a6.43,6.43,0,0,1-1,3.1Z" fill="#00b0f0"/><path d="M147.69,19.2H147V15.52h-1a8.89,8.89,0,0,1-.58,2.9,1.25,1.25,0,0,1-1.11.83,1.38,1.38,0,0,1-.37-.05v-.59a.71.71,0,0,0,.32.07c.61,0,1-1.24,1.17-3.73h2.24Z" fill="#00b0f0"/><path d="M152.41,19.2h-.61V15.8c-.06.12-.16.29-.28.51l-2,2.89h-.71V15h.62V18.3c0-.09.11-.22.22-.42l2-2.93h.7Z" fill="#00b0f0"/><path d="M157.11,19.2h-.69V17.27h-2.16V19.2h-.68V15h.68v1.74h2.16V15h.69Z" fill="#00b0f0"/><path d="M161.8,19.2h-.68V17.27H159V19.2h-.68V15H159v1.74h2.17V15h.68Z" fill="#00b0f0"/><path d="M164.74,19.3a1.94,1.94,0,0,1-1.5-.6,2.19,2.19,0,0,1-.57-1.58,2.3,2.3,0,0,1,.59-1.67,2.11,2.11,0,0,1,1.58-.6,1.89,1.89,0,0,1,1.48.58,2.3,2.3,0,0,1,.54,1.62,2.26,2.26,0,0,1-.58,1.63A2,2,0,0,1,164.74,19.3Zm0-3.88a1.32,1.32,0,0,0-1,.44,1.87,1.87,0,0,0-.38,1.24,1.72,1.72,0,0,0,.39,1.19,1.29,1.29,0,0,0,1,.43,1.24,1.24,0,0,0,1-.42,1.87,1.87,0,0,0,.36-1.22,1.88,1.88,0,0,0-.36-1.23A1.21,1.21,0,0,0,164.79,15.42Z" fill="#00b0f0"/><path d="M170.63,19a2.18,2.18,0,0,1-1.16.3,1.91,1.91,0,0,1-1.47-.6,2.13,2.13,0,0,1-.56-1.53,2.38,2.38,0,0,1,.6-1.69,2.14,2.14,0,0,1,1.61-.63,2.4,2.4,0,0,1,1,.2v.7a1.76,1.76,0,0,0-1-.33,1.33,1.33,0,0,0-1.07.47,1.76,1.76,0,0,0-.42,1.22,1.7,1.7,0,0,0,.39,1.18,1.34,1.34,0,0,0,1.05.43,1.7,1.7,0,0,0,1-.37Z" fill="#00b0f0"/><path d="M174.11,15.53h-1.27V19.2h-.68V15.53h-1.28V15h3.23Z" fill="#00b0f0"/><path d="M178.28,19.2h-.61V15.8c-.06.12-.16.29-.28.51l-2,2.89h-.71V15h.62V18.3c0-.09.11-.22.22-.42l2-2.93h.7Z" fill="#00b0f0"/><path d="M188.71,13.24l-1.68,6h-.82L185,14.85a2.36,2.36,0,0,1-.1-.61h0a3.13,3.13,0,0,1-.1.6l-1.24,4.36h-.81l-1.74-6h.77L183,17.81a2.35,2.35,0,0,1,.1.6h0a4.46,4.46,0,0,1,.13-.6l1.32-4.57h.67l1.26,4.6a3.78,3.78,0,0,1,.1.56h0a2.54,2.54,0,0,1,.11-.57L188,13.24Z" fill="#00b0f0"/><path d="M189.64,13.87a.44.44,0,0,1-.31-.13.4.4,0,0,1-.13-.31.41.41,0,0,1,.13-.32.4.4,0,0,1,.31-.13.44.44,0,0,1,.32.13.44.44,0,0,1,.13.32.46.46,0,0,1-.13.31A.48.48,0,0,1,189.64,13.87ZM190,19.2h-.68V15H190Z" fill="#00b0f0"/><path d="M194.66,19.2H194V16.77q0-1.35-1-1.35a1.07,1.07,0,0,0-.84.38,1.44,1.44,0,0,0-.33,1V19.2h-.69V15h.69v.7h0a1.53,1.53,0,0,1,1.4-.8,1.29,1.29,0,0,1,1.06.45,2,2,0,0,1,.37,1.3Z" fill="#00b0f0"/><path d="M199.36,19.2h-.68v-.73h0a1.57,1.57,0,0,1-1.46.83,1.6,1.6,0,0,1-1.28-.58,2.32,2.32,0,0,1-.48-1.55,2.57,2.57,0,0,1,.53-1.69,1.77,1.77,0,0,1,1.42-.63,1.35,1.35,0,0,1,1.27.69h0V12.9h.68Zm-.68-1.93v-.62a1.18,1.18,0,0,0-.34-.87,1.13,1.13,0,0,0-.86-.36,1.15,1.15,0,0,0-1,.46,2,2,0,0,0-.36,1.26,1.8,1.8,0,0,0,.34,1.16,1.13,1.13,0,0,0,.92.42,1.16,1.16,0,0,0,.93-.41A1.56,1.56,0,0,0,198.68,17.27Z" fill="#00b0f0"/><path d="M202.3,19.3a1.94,1.94,0,0,1-1.5-.6,2.18,2.18,0,0,1-.56-1.58,2.29,2.29,0,0,1,.58-1.67,2.11,2.11,0,0,1,1.58-.6,1.91,1.91,0,0,1,1.49.58,2.34,2.34,0,0,1,.53,1.62,2.26,2.26,0,0,1-.58,1.63A2,2,0,0,1,202.3,19.3Zm0-3.88a1.34,1.34,0,0,0-1,.44,1.87,1.87,0,0,0-.38,1.24,1.72,1.72,0,0,0,.39,1.19,1.31,1.31,0,0,0,1,.43,1.27,1.27,0,0,0,1-.42,1.93,1.93,0,0,0,.35-1.22,1.94,1.94,0,0,0-.35-1.23A1.25,1.25,0,0,0,202.35,15.42Z" fill="#00b0f0"/><path d="M210.65,15l-1.28,4.25h-.7l-.88-3.05a2,2,0,0,1-.06-.39h0a1.84,1.84,0,0,1-.09.38l-1,3.06H206L204.71,15h.71l.88,3.19a1.78,1.78,0,0,1,.06.38h0a2,2,0,0,1,.07-.39l1-3.18h.63l.88,3.2c0,.1,0,.23.06.38h0a2.22,2.22,0,0,1,.07-.38L210,15Z" fill="#00b0f0"/><path d="M211,19v-.73a2,2,0,0,0,1.22.41c.6,0,.9-.2.9-.59a.52.52,0,0,0-.08-.29.7.7,0,0,0-.21-.21,1.69,1.69,0,0,0-.3-.17l-.38-.15a4.92,4.92,0,0,1-.5-.22,2.09,2.09,0,0,1-.36-.26,1.15,1.15,0,0,1-.21-.33,1.1,1.1,0,0,1-.08-.43,1,1,0,0,1,.14-.52,1.15,1.15,0,0,1,.37-.39,1.92,1.92,0,0,1,.52-.24,2.35,2.35,0,0,1,.6-.07,2.4,2.4,0,0,1,1,.19v.69a1.88,1.88,0,0,0-1.08-.31,1.18,1.18,0,0,0-.34,0,1,1,0,0,0-.27.12.75.75,0,0,0-.17.19.59.59,0,0,0,0,.52.49.49,0,0,0,.18.2,1.47,1.47,0,0,0,.28.16l.38.15c.19.08.36.15.51.23a2.08,2.08,0,0,1,.38.25,1.27,1.27,0,0,1,.24.33,1.06,1.06,0,0,1,.09.45,1.1,1.1,0,0,1-.14.55,1.25,1.25,0,0,1-.38.38,1.7,1.7,0,0,1-.53.23,2.61,2.61,0,0,1-.64.08A2.39,2.39,0,0,1,211,19Z" fill="#00b0f0"/><path d="M45.19,27.3H40.94v-.54h4.25Z" fill="#00b0f0"/><path d="M53.1,29.4h-.7V25.1a5.23,5.23,0,0,1,0-.82h0a3.2,3.2,0,0,1-.19.37L49.16,29.4H48.3v-6H49v4.2a5.33,5.33,0,0,1,0,.87h0c.06-.12.14-.25.23-.4l3-4.67h.9Z" fill="#00b0f0"/><path d="M59.17,29.4h-.68V25.89c-.06.18-.15.44-.28.78L57.15,29.4h-.61l-1.1-2.73c0-.14-.15-.4-.28-.78V29.4h-.58V25.15h.86l1.12,2.77c.08.2.19.48.31.84l.3-.83,1.09-2.78h.91Z" fill="#00b0f0"/><path d="M63.45,29.4h-.68V27.64H62.2q-.41,0-.75.66l-.55,1.1h-.79l.72-1.32a1.24,1.24,0,0,1,.6-.6,1.14,1.14,0,0,1-.76-.36,1.07,1.07,0,0,1-.26-.75,1.06,1.06,0,0,1,.41-.89A1.76,1.76,0,0,1,62,25.15h1.49Zm-.68-2.33V25.73H62c-.57,0-.86.21-.86.65s.28.69.84.69Z" fill="#00b0f0"/><path d="M70.68,29.4H70V25.73H67.83V29.4h-.68V25.15h3.53Z" fill="#00b0f0"/><path d="M73.83,29.5a1.94,1.94,0,0,1-1.5-.6,2.19,2.19,0,0,1-.57-1.58,2.3,2.3,0,0,1,.59-1.67,2.11,2.11,0,0,1,1.58-.6,1.89,1.89,0,0,1,1.48.58,2.64,2.64,0,0,1,0,3.25A2,2,0,0,1,73.83,29.5Zm0-3.88a1.32,1.32,0,0,0-1,.44,1.87,1.87,0,0,0-.38,1.24,1.72,1.72,0,0,0,.39,1.19,1.29,1.29,0,0,0,1,.43,1.24,1.24,0,0,0,1-.42,2.26,2.26,0,0,0,0-2.45A1.21,1.21,0,0,0,73.88,25.62Z" fill="#00b0f0"/><path d="M80.13,29.4h-.67V25.72h-1a8.89,8.89,0,0,1-.58,2.9,1.25,1.25,0,0,1-1.11.83,1.32,1.32,0,0,1-.37-.05v-.59a.68.68,0,0,0,.32.07c.61,0,1-1.24,1.17-3.73h2.23Z" fill="#00b0f0"/><path d="M81.51,29.4V25.15h.68v1.63h1.15a1.47,1.47,0,0,1,1,.34,1.18,1.18,0,0,1,.39.95,1.25,1.25,0,0,1-.39,1,1.37,1.37,0,0,1-1,.36Zm.68-2v1.45h1c.57,0,.85-.24.85-.74s-.29-.71-.85-.71Z" fill="#00b0f0"/><path d="M85.44,29.28v-.67a2.69,2.69,0,0,0,1.3.31c.75,0,1.12-.24,1.12-.72s-.41-.7-1.23-.7h-.42v-.58h.4c.72,0,1.08-.22,1.08-.67a.53.53,0,0,0-.25-.46,1.2,1.2,0,0,0-.68-.17,2.87,2.87,0,0,0-1.24.31V25.3a3.85,3.85,0,0,1,1.3-.26c1,0,1.55.38,1.55,1.14a1,1,0,0,1-.23.64,1.09,1.09,0,0,1-.65.35v0a1.13,1.13,0,0,1,.76.32.94.94,0,0,1,.29.71,1.12,1.12,0,0,1-.47.93,2.2,2.2,0,0,1-1.29.34A3.32,3.32,0,0,1,85.44,29.28Z" fill="#00b0f0"/><path d="M91.36,29.5a1.94,1.94,0,0,1-1.5-.6,2.19,2.19,0,0,1-.57-1.58,2.3,2.3,0,0,1,.59-1.67,2.11,2.11,0,0,1,1.58-.6,1.89,1.89,0,0,1,1.48.58,2.3,2.3,0,0,1,.54,1.62,2.26,2.26,0,0,1-.58,1.63A2,2,0,0,1,91.36,29.5Zm0-3.88a1.32,1.32,0,0,0-1,.44A1.87,1.87,0,0,0,90,27.3a1.72,1.72,0,0,0,.39,1.19,1.29,1.29,0,0,0,1,.43,1.27,1.27,0,0,0,1-.42,2.32,2.32,0,0,0,0-2.45A1.25,1.25,0,0,0,91.41,25.62Z" fill="#00b0f0"/><path d="M94.56,29.4V25.15h1.86a1.66,1.66,0,0,1,1,.27.92.92,0,0,1,.36.76.94.94,0,0,1-.81,1c.65.08,1,.41,1,1a1.09,1.09,0,0,1-.4.87,1.44,1.44,0,0,1-1,.36Zm.69-3.67v1.19h1c.54,0,.82-.21.82-.64s-.25-.55-.74-.55Zm0,1.77v1.31h1.17c.56,0,.83-.22.83-.66s-.31-.65-.93-.65Z" fill="#00b0f0"/><path d="M102.11,29.4h-.68v-.67h0a1.54,1.54,0,0,1-2.3.43,1.17,1.17,0,0,1-.36-.89c0-.8.47-1.26,1.41-1.39l1.27-.18c0-.72-.29-1.08-.88-1.08a2.07,2.07,0,0,0-1.38.52v-.7a2.68,2.68,0,0,1,1.44-.39c1,0,1.5.52,1.5,1.58Zm-.68-2.15-1,.14a1.64,1.64,0,0,0-.71.23.68.68,0,0,0-.24.6.67.67,0,0,0,.22.51.87.87,0,0,0,.59.19,1.12,1.12,0,0,0,.84-.35,1.28,1.28,0,0,0,.33-.9Z" fill="#00b0f0"/><path d="M106.06,25.73h-1.27V29.4h-.68V25.73h-1.28v-.58h3.23Z" fill="#00b0f0"/><path d="M110.29,27.44h-3a1.63,1.63,0,0,0,.39,1.1,1.32,1.32,0,0,0,1,.38,2.11,2.11,0,0,0,1.32-.47v.64a2.47,2.47,0,0,1-1.48.41,1.84,1.84,0,0,1-1.42-.58,2.39,2.39,0,0,1-.51-1.63,2.36,2.36,0,0,1,.56-1.62,1.8,1.8,0,0,1,1.4-.62,1.61,1.61,0,0,1,1.29.54,2.25,2.25,0,0,1,.45,1.49Zm-.69-.58a1.4,1.4,0,0,0-.29-.91,1,1,0,0,0-.78-.33,1.07,1.07,0,0,0-.81.34,1.52,1.52,0,0,0-.42.9Z" fill="#00b0f0"/><path d="M114.42,29.4h-.67V25.72h-1a8.89,8.89,0,0,1-.58,2.9,1.25,1.25,0,0,1-1.11.83,1.32,1.32,0,0,1-.37-.05v-.59a.68.68,0,0,0,.32.07c.61,0,1-1.24,1.17-3.73h2.23Z" fill="#00b0f0"/><path d="M118.71,29.4H118V27.64h-.57q-.4,0-.75.66l-.55,1.1h-.79l.71-1.32a1.3,1.3,0,0,1,.61-.6,1.14,1.14,0,0,1-.76-.36,1.2,1.2,0,0,1,.14-1.64,1.81,1.81,0,0,1,1.15-.33h1.49ZM118,27.07V25.73h-.81c-.57,0-.86.21-.86.65s.28.69.84.69Z" fill="#00b0f0"/><path d="M126,29.4h-.62V26c-.06.12-.15.29-.28.51l-2,2.89h-.7V25.15H123V28.5a3.9,3.9,0,0,1,.21-.42l2-2.93H126Z" fill="#00b0f0"/><path d="M133.2,29.4h-.68V25.73h-2.17V29.4h-.68V25.15h3.53Z" fill="#00b0f0"/><path d="M137.62,29.4h-.68v-.67h0a1.54,1.54,0,0,1-2.3.43,1.17,1.17,0,0,1-.36-.89c0-.8.47-1.26,1.41-1.39l1.27-.18c0-.72-.29-1.08-.88-1.08a2.07,2.07,0,0,0-1.38.52v-.7a2.68,2.68,0,0,1,1.44-.39c1,0,1.5.52,1.5,1.58Zm-.68-2.15-1,.14a1.65,1.65,0,0,0-.72.23.68.68,0,0,0-.24.6.7.7,0,0,0,.22.51.87.87,0,0,0,.59.19,1.12,1.12,0,0,0,.84-.35,1.28,1.28,0,0,0,.33-.9Z" fill="#00b0f0"/><path d="M139.6,28.78h0v2.57h-.68v-6.2h.68v.74h0a1.62,1.62,0,0,1,1.47-.84,1.55,1.55,0,0,1,1.28.57,2.35,2.35,0,0,1,.46,1.53,2.58,2.58,0,0,1-.52,1.7,1.71,1.71,0,0,1-1.41.65A1.42,1.42,0,0,1,139.6,28.78Zm0-1.71v.59a1.25,1.25,0,0,0,.35.89,1.1,1.1,0,0,0,.87.37,1.16,1.16,0,0,0,1-.47,2.2,2.2,0,0,0,.35-1.32,1.71,1.71,0,0,0-.33-1.11,1.09,1.09,0,0,0-.89-.4,1.2,1.2,0,0,0-1,.41A1.54,1.54,0,0,0,139.58,27.07Z" fill="#00b0f0"/><path d="M145.68,29.5a2,2,0,0,1-1.51-.6,2.23,2.23,0,0,1-.56-1.58,2.26,2.26,0,0,1,.59-1.67,2.1,2.1,0,0,1,1.58-.6,1.91,1.91,0,0,1,1.48.58,2.68,2.68,0,0,1,0,3.25A2,2,0,0,1,145.68,29.5Zm0-3.88a1.31,1.31,0,0,0-1,.44,1.82,1.82,0,0,0-.38,1.24,1.77,1.77,0,0,0,.38,1.19,1.32,1.32,0,0,0,1,.43,1.25,1.25,0,0,0,1-.42,2.26,2.26,0,0,0,0-2.45A1.23,1.23,0,0,0,145.73,25.62Z" fill="#00b0f0"/><path d="M152,29.4h-.68V25.72h-1a8.83,8.83,0,0,1-.59,2.9,1.23,1.23,0,0,1-1.11.83,1.25,1.25,0,0,1-.36-.05v-.59a.67.67,0,0,0,.31.07c.61,0,1-1.24,1.18-3.73H152Z" fill="#00b0f0"/><path d="M153.36,29.4V25.15H154v1.63h1.15a1.49,1.49,0,0,1,1,.34,1.18,1.18,0,0,1,.39.95,1.25,1.25,0,0,1-.39,1,1.38,1.38,0,0,1-1,.36Zm.68-2v1.45h1c.57,0,.85-.24.85-.74s-.29-.71-.86-.71Z" fill="#00b0f0"/></g><line x1="75.52" y1="54.53" x2="162.7" y2="54.53" fill="none" stroke="#505050" stroke-miterlimit="10"/></svg>