<svg xmlns="http://www.w3.org/2000/svg" viewBox="0 0 218.9 90.4"><title>OJ104544462</title><path d="M60.2,66.8H46V38.4H60.2v7.7H61V37.7H45.3V67.6H61V65.2h-.8Z" transform="translate(-0.4 -1.9)" fill="#0078d7"/><path d="M59.5,39.2H46.8v4.6H59.5Zm-9.6,1.9h6.5v.8H49.9ZM56.5,43H49.9v-.8h6.6Z" transform="translate(-0.4 -1.9)" fill="#0078d7"/><path d="M46.8,44.6v3h8.6V46.1h4.1V44.6Z" transform="translate(-0.4 -1.9)" fill="#0078d7"/><rect x="46.4" y="46.5" width="8.6" height="2.68" fill="#0078d7"/><path d="M46.8,66H59.4v-.8h-4V51.9H46.8V66Zm1.5-2.7h2.3v1.2H48.3Z" transform="translate(-0.4 -1.9)" fill="#0078d7"/><path d="M70,63H67.6V61.1H65V63H62.6a1.2,1.2,0,0,0-1.3,1.1h10A1.2,1.2,0,0,0,70,63Z" transform="translate(-0.4 -1.9)" fill="#0078d7"/><path d="M74.9,49H57.8c-.4,0-.7.2-.7.6V59.7a.7.7,0,0,0,.7.6H74.9a.6.6,0,0,0,.6-.6V49.6A.6.6,0,0,0,74.9,49Zm-1.1,9.8h-15V50.5h15Z" transform="translate(-0.4 -1.9)" fill="#0078d7"/><path d="M70.2,56.3V52.9l-3.5-1.8-3.5,1.7v3.6l3.5,1.8ZM65.8,54l.9-.4.9.4-.9.5Zm0-1.1.9-.4.9.4-.9.5Zm1.9,4.5-.9.5V57l.9-.5Zm0-1.2-.9.6v-1l.9-.5Zm0-1.1-.9.5v-.9l.9-.5Zm-.8-1.6.9-.5.9.5-.9.4Zm2,3.3-.9.5v-.9l.9-.5Zm0-1.2-.9.6v-1l.9-.5Zm0-1.1L68,55v-.9l.9-.5ZM70,56.2l-.9.5v-.9l.9-.5Zm0-1.1-.9.4v-.9l.9-.4ZM70,54l-.9.4v-.9L70,53Zm-.2-1.1-.9.4-.9-.4.9-.4Zm-1.1-.6-.9.5-.9-.5.9-.4Zm-2-1,.9.4-.9.5-.9-.5Zm-1.1.6.8.4-.8.5-.9-.5Zm-1.1.6.9.4-.9.4-.9-.4Zm-.3,4.2-.8-.4v-.9l.8.4Zm0-1.2-.8-.4v-.9l.8.4Zm0-1.1-.8-.4v-.9l.8.4Zm1.2,2.9-.9-.5v-.9l.9.5Zm0-1.1-.9-.6v-.9l.9.5Zm0-1.2-.9-.5v-.9l.9.5Zm-.7-1.5.9-.5.9.5-.9.5Zm1.9,4.4-1-.5v-.9l1,.5Zm0-1.1-1-.5v-.9l1,.5Zm0-1.2-1-.5v-.9l1,.5Z" transform="translate(-0.4 -1.9)" fill="#0078d7"/><path d="M7.8,44.8c-2.3.5-3.6,3.1-2.9,5.6a4.6,4.6,0,0,0,5.3,3.7,4.5,4.5,0,0,0,2.9-5.7A4.3,4.3,0,0,0,7.8,44.8Z" transform="translate(-0.4 -1.9)" fill="#008bfd"/><path d="M12.8,54.8c-.5,0-.9.8-1.6,1.1a2.7,2.7,0,0,1-3.1,0C6.2,55,6,54.2,4.4,54.2s-4,2.8-4,6.9H16a14,14,0,0,0-1.1-4.2C13.8,54.8,13.2,54.8,12.8,54.8Z" transform="translate(-0.4 -1.9)" fill="#008bfd"/><path d="M14.2,49.8H10.1a.8.8,0,0,0-.7.7v2.8a.8.8,0,0,0,.8.7h.7v5.2a1,1,0,0,0,1,1,.9.9,0,0,0,1-.9h.2v-.7c0-.2.3-.3.3-.3v-.4c-.3-.1-.5-.3-.5-.4v-.3l.2-.2a3.3,3.3,0,0,0,.3-.6,2.2,2.2,0,0,1-.3-.5c-.1-.1-.1-.4-.2-.5v-.2a2.7,2.7,0,0,1,.8-1.1h.5a.6.6,0,0,0,.6-.6v-3A.7.7,0,0,0,14.2,49.8Zm-2.4,9.6c0,.2,0,.3-.2.3s-.2-.2-.2-.3V54.6c0-.3.1-.4.2-.4s.2.2.2.4Zm.3-7.8a.7.7,0,0,1-.6-.7.6.6,0,0,1,.6-.6.7.7,0,0,1,.7.6A.6.6,0,0,1,12.1,51.6Z" transform="translate(-0.4 -1.9)" fill="#008bfd" stroke="gray" stroke-linecap="round" stroke-linejoin="round" stroke-width="0.75"/><path d="M11.6,59.7c-.1,0-.3-.1-.3-.2v-5a.5.5,0,0,1,.3-.3c.1,0,.2.2.2.3v5.1C11.8,59.7,11.7,59.7,11.6,59.7Z" transform="translate(-0.4 -1.9)" fill="#fff"/><ellipse cx="11.8" cy="49" rx="0.7" ry="0.7" fill="#fff"/><path d="M191.8,41.7H171.3a1.1,1.1,0,0,0-1.1,1.1V59.5a1.1,1.1,0,0,0,1.1,1.1h5.2a3.3,3.3,0,0,0,3.2,2.3,3.4,3.4,0,1,0-3.2-4.5h-4.2V46.5h18.4V58.4h-3.5a7.6,7.6,0,0,0-11.1-5.6l1,2a4.8,4.8,0,0,1,2.6-.7,5.5,5.5,0,0,1,0,10.9,5.9,5.9,0,0,1-2.6-.7l-1,2a7.6,7.6,0,0,0,11.1-5.7h4.6a1,1,0,0,0,1-1.1V42.8A1,1,0,0,0,191.8,41.7Z" transform="translate(-0.4 -1.9)" fill="#008bfd"/><path d="M161.7,50.4l8,4-7.9,4a9,9,0,0,0-.1-8" transform="translate(-0.4 -1.9)" fill="#505050"/><path d="M162.7,54.5" transform="translate(-0.4 -1.9)" fill="#505050"/><path d="M149.3,80.2h-.8V74h-3.7v6.2H144v-7h5.3Z" transform="translate(-0.4 -1.9)"/><path d="M151.8,79.5h0v3H151V75.2h.8v.9h0a2,2,0,0,1,3.3-.3,3,3,0,0,1,.5,1.8,3.2,3.2,0,0,1-.6,2,2.1,2.1,0,0,1-1.7.7A1.9,1.9,0,0,1,151.8,79.5Zm0-2v.7a1.4,1.4,0,0,0,1.4,1.4,1.3,1.3,0,0,0,1.2-.5,3.4,3.4,0,0,0,.4-1.6,1.8,1.8,0,0,0-.4-1.3,1.4,1.4,0,0,0-1.1-.4,1.5,1.5,0,0,0-1.1.4A2,2,0,0,0,151.8,77.5Z" transform="translate(-0.4 -1.9)"/><path d="M161.1,80.2h-.8v-4c0,.2-.1.3-.3.6l-2.3,3.4h-.8v-5h.7v3.9l.3-.4,2.3-3.5h.9Z" transform="translate(-0.4 -1.9)"/><path d="M166.3,80.2h-.8V75.9h-1.1a13.9,13.9,0,0,1-.7,3.4,1.6,1.6,0,0,1-1.3,1H162v-.7h.3c.7,0,1.2-1.5,1.4-4.4h2.6Z" transform="translate(-0.4 -1.9)"/><path d="M170,80.3a2.1,2.1,0,0,1-1.7-.7,2.3,2.3,0,0,1-.7-1.8,2.6,2.6,0,0,1,.7-2,2.5,2.5,0,0,1,1.9-.7,2.1,2.1,0,0,1,1.7.7,2.7,2.7,0,0,1,.6,1.9,2.9,2.9,0,0,1-.6,1.9A2.5,2.5,0,0,1,170,80.3Zm.1-4.5a1.3,1.3,0,0,0-1.2.5,2.2,2.2,0,0,0,0,2.8,1.7,1.7,0,0,0,2.4,0,2.6,2.6,0,0,0,0-2.8A1.3,1.3,0,0,0,170.1,75.8Z" transform="translate(-0.4 -1.9)"/><path d="M180.5,80.2h-1.1l-2.3-2.5h0v2.5h-.7V77.7h-.1l-2.2,2.5H173l2.5-2.6-2.3-2.4h1l2.1,2.3h.1V75.2h.7v2.3h0l2.2-2.3h1L178,77.6Z" transform="translate(-0.4 -1.9)"/><path d="M185.3,77.9h-3.5a1.7,1.7,0,0,0,.4,1.3,1.6,1.6,0,0,0,1.2.4,2.4,2.4,0,0,0,1.6-.5v.7a2.7,2.7,0,0,1-1.8.5,2.1,2.1,0,0,1-1.7-.7,2.7,2.7,0,0,1-.6-1.9,2.9,2.9,0,0,1,.7-1.9,2,2,0,0,1,1.6-.7,2.1,2.1,0,0,1,1.6.6,3,3,0,0,1,.5,1.8Zm-.8-.7a1.5,1.5,0,0,0-.4-1.1,1.2,1.2,0,0,0-.9-.3,1,1,0,0,0-.9.4,1.2,1.2,0,0,0-.5,1Z" transform="translate(-0.4 -1.9)"/><path d="M190.7,80.2h-.8V77.9h-2.6v2.3h-.8v-5h.8v2.1h2.6V75.2h.8Z" transform="translate(-0.4 -1.9)"/><path d="M196.5,80.2h-.8v-4c0,.2-.1.3-.3.6l-2.3,3.4h-.8v-5h.7v3.9l.3-.4,2.3-3.5h.9Z" transform="translate(-0.4 -1.9)"/><path d="M202.1,77.9h-3.5a1.7,1.7,0,0,0,.4,1.3,1.6,1.6,0,0,0,1.2.4,2.4,2.4,0,0,0,1.6-.5v.7a2.7,2.7,0,0,1-1.8.5,1.9,1.9,0,0,1-1.6-.7,2.7,2.7,0,0,1-.7-1.9,2.9,2.9,0,0,1,.7-1.9,2.2,2.2,0,0,1,1.7-.7,2,2,0,0,1,1.5.6,3,3,0,0,1,.5,1.8Zm-.8-.7a2,2,0,0,0-.3-1.1,1.7,1.7,0,0,0-1-.3,1.1,1.1,0,0,0-.9.4,1.6,1.6,0,0,0-.5,1Z" transform="translate(-0.4 -1.9)"/><path d="M211.6,80.2h-.9l-.8-2H207l-.7,2h-.9l2.6-7h.9Zm-1.9-2.7-1.1-3c-.1-.1-.1-.2-.1-.5h-.1a.7.7,0,0,1-.1.5l-1.1,3Z" transform="translate(-0.4 -1.9)"/><path d="M213.4,77.6v2.6h-.8v-7h1.9a3,3,0,0,1,1.8.5,2.1,2.1,0,0,1,.6,1.6,1.9,1.9,0,0,1-.7,1.6,2.7,2.7,0,0,1-1.8.7Zm0-3.7v2.9h.9a1.7,1.7,0,0,0,1.3-.4,1.2,1.2,0,0,0,.4-1.1c0-.9-.5-1.4-1.6-1.4Z" transform="translate(-0.4 -1.9)"/><path d="M219,80.2h-.8v-7h.8Z" transform="translate(-0.4 -1.9)"/><path d="M20.3,6.5H17.6V5.9h2.7Z" transform="translate(-0.4 -1.9)" fill="#00b0f0"/><path d="M29.9,9h-.8V2.8H25.4V9h-.8V2h5.3Z" transform="translate(-0.4 -1.9)" fill="#00b0f0"/><path d="M33.7,9.1a2.4,2.4,0,0,1-1.8-.7,2.8,2.8,0,0,1-.6-1.8,2.6,2.6,0,0,1,.7-2,2.1,2.1,0,0,1,1.8-.7,2.1,2.1,0,0,1,1.8.7,2.7,2.7,0,0,1,.6,1.9,2.5,2.5,0,0,1-.7,1.9A2.1,2.1,0,0,1,33.7,9.1Zm.1-4.5a1.5,1.5,0,0,0-1.3.5,2,2,0,0,0-.4,1.4,2,2,0,0,0,.5,1.4,1.7,1.7,0,0,0,2.4,0,2.7,2.7,0,0,0,0-2.8A1.3,1.3,0,0,0,33.8,4.6Z" transform="translate(-0.4 -1.9)" fill="#00b0f0"/><path d="M40.6,4.7H39.1V9h-.8V4.7H36.8V4h3.8Z" transform="translate(-0.4 -1.9)" fill="#00b0f0"/><path d="M43.7,9.1a2.1,2.1,0,0,1-1.8-.7,2.9,2.9,0,0,1-.7-1.8,3,3,0,0,1,.7-2,2.5,2.5,0,0,1,1.9-.7,2.1,2.1,0,0,1,1.7.7,2.4,2.4,0,0,1,.7,1.9,2.9,2.9,0,0,1-.7,1.9A2.4,2.4,0,0,1,43.7,9.1Zm0-4.5a1.3,1.3,0,0,0-1.2.5,2,2,0,0,0-.4,1.4,2,2,0,0,0,.4,1.4,1.7,1.7,0,0,0,2.4,0,2,2,0,0,0,.4-1.4,2,2,0,0,0-.4-1.4A1.3,1.3,0,0,0,43.7,4.6Z" transform="translate(-0.4 -1.9)" fill="#00b0f0"/><path d="M51.6,9H50.5L48.3,6.6h-.1V9h-.8V4h.8V6.3h.1L50.4,4h1L49.1,6.4Z" transform="translate(-0.4 -1.9)" fill="#00b0f0"/><path d="M59.3,9H58.2L56,6.6h0V9h-.8V4H56V6.3h0L58.1,4h1L56.8,6.4Z" transform="translate(-0.4 -1.9)" fill="#00b0f0"/><path d="M62.2,9.1a2.4,2.4,0,0,1-1.8-.7,2.8,2.8,0,0,1-.6-1.8,2.6,2.6,0,0,1,.7-2,2.7,2.7,0,0,1,3.6,0,2.7,2.7,0,0,1,.6,1.9A2.5,2.5,0,0,1,64,8.4,2.1,2.1,0,0,1,62.2,9.1Zm.1-4.5a1.5,1.5,0,0,0-1.3.5,2,2,0,0,0-.4,1.4,2,2,0,0,0,.5,1.4,1.7,1.7,0,0,0,2.4,0,2.7,2.7,0,0,0,0-2.8A1.3,1.3,0,0,0,62.3,4.6Z" transform="translate(-0.4 -1.9)" fill="#00b0f0"/><path d="M70.3,10.8h-.6V9H65.9v1.8h-.6V8.3h.4A7.1,7.1,0,0,0,67,4h2.6V8.3h.7ZM68.8,8.3V4.7H67.7a8.9,8.9,0,0,1-1.1,3.6Z" transform="translate(-0.4 -1.9)" fill="#00b0f0"/><path d="M75,9h-.8V8.2h0a1.6,1.6,0,0,1-1.5.9,1.6,1.6,0,0,1-1.2-.4,1.2,1.2,0,0,1-.4-1c0-1,.5-1.5,1.6-1.7l1.5-.2c0-.8-.3-1.2-1-1.2a2.5,2.5,0,0,0-1.6.6V4.3a3.1,3.1,0,0,1,1.7-.4c1.1,0,1.7.6,1.7,1.8Zm-.8-2.5H73l-.8.3a.8.8,0,0,0-.3.7.6.6,0,0,0,.3.6c.1.2.4.2.7.2a1,1,0,0,0,.9-.4,1.3,1.3,0,0,0,.4-1Z" transform="translate(-0.4 -1.9)" fill="#00b0f0"/><path d="M82.9,9h-.8V8.2H82a1.6,1.6,0,0,1-1.5.9,1.6,1.6,0,0,1-1.2-.4,1.2,1.2,0,0,1-.4-1c0-1,.6-1.5,1.7-1.7l1.5-.2c0-.8-.4-1.2-1.1-1.2a2.5,2.5,0,0,0-1.6.6V4.3a3.3,3.3,0,0,1,1.7-.4,1.6,1.6,0,0,1,1.8,1.8Zm-.8-2.5H80.8l-.8.3a.8.8,0,0,0-.3.7.6.6,0,0,0,.3.6.8.8,0,0,0,.7.2,1.3,1.3,0,0,0,1-.4,1.8,1.8,0,0,0,.4-1Z" transform="translate(-0.4 -1.9)" fill="#00b0f0"/><path d="M84.4,9V4h2.1a2.1,2.1,0,0,1,1.2.3,1,1,0,0,1,.4.9,1,1,0,0,1-.9,1.2,1.1,1.1,0,0,1,1.1,1.2,1.3,1.3,0,0,1-.4,1,1.9,1.9,0,0,1-1.2.4Zm.8-4.3V6.1h1.2c.6,0,.9-.3.9-.8s-.3-.6-.8-.6Zm0,2.1V8.3h1.4c.6,0,.9-.3.9-.8s-.3-.7-1.1-.7Z" transform="translate(-0.4 -1.9)" fill="#00b0f0"/><path d="M92.8,4.7H91.3V9h-.8V4.7H89V4h3.8Z" transform="translate(-0.4 -1.9)" fill="#00b0f0"/><path d="M95.9,9.1a2.1,2.1,0,0,1-1.8-.7,2.4,2.4,0,0,1-.7-1.8,3,3,0,0,1,.7-2A2.5,2.5,0,0,1,96,3.9a2.1,2.1,0,0,1,1.7.7,2.7,2.7,0,0,1,.6,1.9,2.9,2.9,0,0,1-.6,1.9A2.4,2.4,0,0,1,95.9,9.1Zm0-4.5a1.3,1.3,0,0,0-1.2.5,2,2,0,0,0-.5,1.4,2,2,0,0,0,.5,1.4,1.7,1.7,0,0,0,2.4,0,2,2,0,0,0,.4-1.4,2,2,0,0,0-.4-1.4A1.3,1.3,0,0,0,95.9,4.6Z" transform="translate(-0.4 -1.9)" fill="#00b0f0"/><path d="M100.4,8.3h0v3h-.8V4h.8v.9h0a1.9,1.9,0,0,1,1.8-1,2,2,0,0,1,1.5.6,3.5,3.5,0,0,1,.5,1.8,3.3,3.3,0,0,1-.6,2.1,2.1,2.1,0,0,1-1.7.7A1.9,1.9,0,0,1,100.4,8.3Zm0-2V7a1.8,1.8,0,0,0,.4,1,1.3,1.3,0,0,0,1,.4,1.3,1.3,0,0,0,1.2-.5,2.5,2.5,0,0,0,.4-1.6A1.8,1.8,0,0,0,103,5a1.2,1.2,0,0,0-1-.4,1.6,1.6,0,0,0-1.2.4A2.8,2.8,0,0,0,100.4,6.3Z" transform="translate(-0.4 -1.9)" fill="#00b0f0"/><path d="M109.7,9H109V5l-.4.6L106.3,9h-.8V4h.7V7.9l.3-.4L108.9,4h.8Z" transform="translate(-0.4 -1.9)" fill="#00b0f0"/><path d="M110.9,8.9V8.1a3.3,3.3,0,0,0,1.5.3c.9,0,1.3-.2,1.3-.8s-.4-.8-1.4-.8h-.5V6.1h.5c.8,0,1.2-.3,1.2-.8a.8.8,0,0,0-.2-.5,1.1,1.1,0,0,0-.8-.2,4,4,0,0,0-1.5.3V4.2l1.5-.3c1.2,0,1.8.4,1.8,1.3a1.1,1.1,0,0,1-.2.8,2,2,0,0,1-.8.4h0a1.3,1.3,0,0,1,.9.4,1.1,1.1,0,0,1,.3.8,1.2,1.2,0,0,1-.5,1.1,2.4,2.4,0,0,1-1.5.4Z" transform="translate(-0.4 -1.9)" fill="#00b0f0"/><path d="M119.3,9h-.8V8.2h0a1.6,1.6,0,0,1-1.5.9,1.6,1.6,0,0,1-1.2-.4,1.2,1.2,0,0,1-.4-1c0-1,.5-1.5,1.6-1.7l1.5-.2c0-.8-.3-1.2-1-1.2a2.5,2.5,0,0,0-1.6.6V4.3a3.1,3.1,0,0,1,1.7-.4c1.2,0,1.7.6,1.7,1.8Zm-.8-2.5h-1.2l-.8.3a.8.8,0,0,0-.3.7.6.6,0,0,0,.3.6.8.8,0,0,0,.7.2,1.3,1.3,0,0,0,1-.4,1.7,1.7,0,0,0,.3-1Z" transform="translate(-0.4 -1.9)" fill="#00b0f0"/><path d="M125.7,10.8h-.6V9h-4.2V4h.8V8.3h2.5V4h.8V8.3h.7Z" transform="translate(-0.4 -1.9)" fill="#00b0f0"/><path d="M131,9h-.7V5c0,.1-.2.3-.3.6L127.7,9h-.8V4h.7V7.9c0-.1.1-.2.2-.4L130.2,4h.8Z" transform="translate(-0.4 -1.9)" fill="#00b0f0"/><path d="M136.9,9h-.8V5l-.3.6L133.5,9h-.8V4h.7V7.9c0-.1.1-.2.3-.4L136,4h.9Z" transform="translate(-0.4 -1.9)" fill="#00b0f0"/><path d="M143.3,10.6h-.7a6.4,6.4,0,0,1-1.5-4.3A6.4,6.4,0,0,1,142.6,2h.7a6.6,6.6,0,0,0-1.5,4.3A6.6,6.6,0,0,0,143.3,10.6Z" transform="translate(-0.4 -1.9)" fill="#00b0f0"/><path d="M147.6,8.8a2.5,2.5,0,0,1-1.3.3,2.1,2.1,0,0,1-1.7-.7,2.1,2.1,0,0,1-.7-1.8,2.7,2.7,0,0,1,.7-2,2.5,2.5,0,0,1,1.9-.7l1.2.2v.8a2.7,2.7,0,0,0-1.2-.3,1.5,1.5,0,0,0-1.3.5,2.2,2.2,0,0,0-.5,1.4,2,2,0,0,0,.5,1.4,1.3,1.3,0,0,0,1.2.5,1.6,1.6,0,0,0,1.2-.4Z" transform="translate(-0.4 -1.9)" fill="#00b0f0"/><path d="M152.5,6.3V9h-.8V2h1.9a3,3,0,0,1,1.8.5,2.1,2.1,0,0,1,.6,1.6,2,2,0,0,1-.7,1.6,2.9,2.9,0,0,1-1.9.6Zm0-3.6V5.6h.9a1.8,1.8,0,0,0,1.3-.4,1.2,1.2,0,0,0,.4-1.1c0-.9-.5-1.4-1.6-1.4Z" transform="translate(-0.4 -1.9)" fill="#00b0f0"/><path d="M162.2,9H161l-2.7-3.2-.2-.3h0V9h-.8V2h.8V5.3h0l.2-.3,2.6-3H162l-3,3.4Z" transform="translate(-0.4 -1.9)" fill="#00b0f0"/><path d="M167.4,8.7a3.6,3.6,0,0,1-1.9.4,3.2,3.2,0,0,1-2.4-.9,3.7,3.7,0,0,1-.9-2.6,3.6,3.6,0,0,1,1-2.7,3.4,3.4,0,0,1,2.6-1,3.8,3.8,0,0,1,1.6.3V3a4.2,4.2,0,0,0-1.6-.4,2.8,2.8,0,0,0-2,.8,3.2,3.2,0,0,0-.7,2.2,2.7,2.7,0,0,0,.7,2,2.2,2.2,0,0,0,1.8.8,3.5,3.5,0,0,0,1.8-.5Z" transform="translate(-0.4 -1.9)" fill="#00b0f0"/><path d="M172.6,9h-3.7V2h3.5v.7h-2.7V5.1h2.5v.7h-2.5V8.3h2.9Z" transform="translate(-0.4 -1.9)" fill="#00b0f0"/><path d="M173.8,10.6h-.7a6.6,6.6,0,0,0,1.5-4.3A6.6,6.6,0,0,0,173.1,2h.7a6.6,6.6,0,0,1,0,8.6Z" transform="translate(-0.4 -1.9)" fill="#00b0f0"/><path d="M20.3,18.5H17.6v-.6h2.7Z" transform="translate(-0.4 -1.9)" fill="#00b0f0"/><path d="M24.1,21V14h2a2,2,0,0,1,1.4.4,1.4,1.4,0,0,1,.6,1.2,1.3,1.3,0,0,1-.4,1,2.7,2.7,0,0,1-.8.7h0A1.5,1.5,0,0,1,28.4,19a1.7,1.7,0,0,1-.6,1.4,2.5,2.5,0,0,1-1.7.6Zm.8-6.3V17h.9a1.5,1.5,0,0,0,1-.3,1,1,0,0,0,.4-.9c0-.7-.4-1.1-1.3-1.1Zm0,3v2.6H26a2.1,2.1,0,0,0,1.2-.4,1.2,1.2,0,0,0,.3-.9c0-.9-.5-1.3-1.6-1.3Z" transform="translate(-0.4 -1.9)" fill="#00b0f0"/><path d="M32.9,20.8a3.2,3.2,0,0,1-1.4.3,2.1,2.1,0,0,1-1.7-.7,2.5,2.5,0,0,1-.7-1.8,3.2,3.2,0,0,1,.7-2,2.5,2.5,0,0,1,1.9-.7l1.2.2v.8a2.7,2.7,0,0,0-1.2-.3,1.7,1.7,0,0,0-1.3.5,2.1,2.1,0,0,0-.4,1.4,2,2,0,0,0,.4,1.4,1.4,1.4,0,0,0,1.3.5,1.9,1.9,0,0,0,1.2-.4Z" transform="translate(-0.4 -1.9)" fill="#00b0f0"/><path d="M37,16.7H35.5V21h-.8V16.7H33.2V16H37Z" transform="translate(-0.4 -1.9)" fill="#00b0f0"/><path d="M38.5,20.3h0v3h-.8V16h.8v.9h0a1.9,1.9,0,0,1,1.7-1,2.1,2.1,0,0,1,1.6.6,3.5,3.5,0,0,1,.5,1.8,3.3,3.3,0,0,1-.6,2.1,2.1,2.1,0,0,1-1.7.7A1.9,1.9,0,0,1,38.5,20.3Zm0-2V19a1.4,1.4,0,0,0,1.4,1.4,1.3,1.3,0,0,0,1.2-.5,3.4,3.4,0,0,0,.4-1.6,2.5,2.5,0,0,0-.4-1.3,1.4,1.4,0,0,0-1.1-.4,1.5,1.5,0,0,0-1.1.4A2,2,0,0,0,38.5,18.3Z" transform="translate(-0.4 -1.9)" fill="#00b0f0"/><path d="M45.4,21.1a2.4,2.4,0,0,1-1.8-.7,2.8,2.8,0,0,1-.6-1.8,2.6,2.6,0,0,1,.7-2,2.7,2.7,0,0,1,3.6,0,2.7,2.7,0,0,1,.6,1.9,2.5,2.5,0,0,1-.7,1.9A2.1,2.1,0,0,1,45.4,21.1Zm.1-4.5a1.3,1.3,0,0,0-1.2.5,2.2,2.2,0,0,0,0,2.8,1.7,1.7,0,0,0,2.4,0,2.6,2.6,0,0,0,0-2.8A1.3,1.3,0,0,0,45.5,16.6Z" transform="translate(-0.4 -1.9)" fill="#00b0f0"/><path d="M53,18.7H49.4a1.7,1.7,0,0,0,.5,1.3,1.6,1.6,0,0,0,1.2.4,2.3,2.3,0,0,0,1.5-.5v.7a2.3,2.3,0,0,1-1.7.5,2.1,2.1,0,0,1-1.7-.7,2.7,2.7,0,0,1-.6-1.9,2.5,2.5,0,0,1,.7-1.9,1.9,1.9,0,0,1,1.6-.7,1.9,1.9,0,0,1,1.5.6,2.4,2.4,0,0,1,.6,1.8Zm-.9-.7a2,2,0,0,0-.3-1.1,1.2,1.2,0,0,0-.9-.3,1.3,1.3,0,0,0-1,.4,2.3,2.3,0,0,0-.5,1Z" transform="translate(-0.4 -1.9)" fill="#00b0f0"/><path d="M58.1,21h-.8V18.7H54.7V21h-.8V16h.8v2h2.6V16h.8Z" transform="translate(-0.4 -1.9)" fill="#00b0f0"/><path d="M63.6,21h-.8V18.7H60.2V21h-.8V16h.8v2h2.6V16h.8Z" transform="translate(-0.4 -1.9)" fill="#00b0f0"/><path d="M68.5,21h-.8v-.8h0a1.6,1.6,0,0,1-1.5.9,1.6,1.6,0,0,1-1.2-.4,1.2,1.2,0,0,1-.4-1c0-1,.5-1.5,1.6-1.7l1.5-.2c0-.8-.3-1.2-1-1.2a2.5,2.5,0,0,0-1.6.6v-.9a3.1,3.1,0,0,1,1.7-.4c1.1,0,1.7.6,1.7,1.8Zm-.8-2.5H66.5l-.8.3a.8.8,0,0,0-.3.7.6.6,0,0,0,.3.6c.1.2.4.2.7.2a1,1,0,0,0,.9-.4,1.3,1.3,0,0,0,.4-1Z" transform="translate(-0.4 -1.9)" fill="#00b0f0"/><path d="M73.2,21h-.8V18.9h-.7c-.3,0-.6.3-.8.8L70.2,21h-.9l.8-1.5a2.9,2.9,0,0,1,.7-.8,1.3,1.3,0,0,1-.9-.4,1.4,1.4,0,0,1,.2-1.9,2,2,0,0,1,1.4-.4h1.7Zm-.8-2.7V16.7h-.9c-.7,0-1,.2-1,.7a.8.8,0,0,0,.9.9Z" transform="translate(-0.4 -1.9)" fill="#00b0f0"/><path d="M81.2,21h-.8V16.7H77.9V21h-.8V16h4.1Z" transform="translate(-0.4 -1.9)" fill="#00b0f0"/><path d="M83.4,20.3h0v3h-.8V16h.8v.9h0a1.9,1.9,0,0,1,1.7-1,1.8,1.8,0,0,1,1.5.6,2.8,2.8,0,0,1,.6,1.8,3.3,3.3,0,0,1-.6,2.1,2.1,2.1,0,0,1-1.7.7A1.9,1.9,0,0,1,83.4,20.3Zm0-2V19a1.4,1.4,0,0,0,1.4,1.4,1.3,1.3,0,0,0,1.2-.5,3.4,3.4,0,0,0,.4-1.6A2.5,2.5,0,0,0,86,17a1.4,1.4,0,0,0-1.1-.4,1.5,1.5,0,0,0-1.1.4A2,2,0,0,0,83.4,18.3Z" transform="translate(-0.4 -1.9)" fill="#00b0f0"/><path d="M90.3,21.1a2.4,2.4,0,0,1-1.8-.7,2.8,2.8,0,0,1-.6-1.8,2.6,2.6,0,0,1,.7-2,2.1,2.1,0,0,1,1.8-.7,2.3,2.3,0,0,1,1.8.7,2.7,2.7,0,0,1,.6,1.9,2.5,2.5,0,0,1-.7,1.9A2.1,2.1,0,0,1,90.3,21.1Zm.1-4.5a1.4,1.4,0,0,0-1.3.5,2,2,0,0,0-.4,1.4,2,2,0,0,0,.4,1.4,1.5,1.5,0,0,0,1.3.5,1.3,1.3,0,0,0,1.2-.5,2.7,2.7,0,0,0,0-2.8A1.3,1.3,0,0,0,90.4,16.6Z" transform="translate(-0.4 -1.9)" fill="#00b0f0"/><path d="M93.8,21V16H96a2.1,2.1,0,0,1,1.2.3,1.3,1.3,0,0,1,.4.9,1.1,1.1,0,0,1-1,1.2q1.2.2,1.2,1.2a1.4,1.4,0,0,1-.5,1,1.6,1.6,0,0,1-1.2.4Zm.8-4.3v1.4h1.2c.7,0,1-.3,1-.8s-.3-.6-.9-.6Zm0,2.1v1.5H96c.7,0,1-.3,1-.8s-.4-.7-1.1-.7Z" transform="translate(-0.4 -1.9)" fill="#00b0f0"/><path d="M102.9,18.7H99.4a1.7,1.7,0,0,0,.4,1.3,1.6,1.6,0,0,0,1.2.4,2,2,0,0,0,1.5-.5v.7a2.3,2.3,0,0,1-1.7.5,2.1,2.1,0,0,1-1.7-.7,2.7,2.7,0,0,1-.6-1.9,2.5,2.5,0,0,1,.7-1.9,2,2,0,0,1,1.6-.7,2.1,2.1,0,0,1,1.6.6,3,3,0,0,1,.5,1.8Zm-.8-.7a1.5,1.5,0,0,0-.4-1.1,1.2,1.2,0,0,0-.9-.3,1,1,0,0,0-.9.4,1.2,1.2,0,0,0-.5,1Z" transform="translate(-0.4 -1.9)" fill="#00b0f0"/><path d="M104.7,20.3h-.1v3h-.8V16h.8v.9h.1a1.8,1.8,0,0,1,1.7-1,2,2,0,0,1,1.5.6,2.7,2.7,0,0,1,.5,1.8,3.3,3.3,0,0,1-.6,2.1,1.9,1.9,0,0,1-1.6.7A1.6,1.6,0,0,1,104.7,20.3Zm-.1-2V19a1.4,1.4,0,0,0,.5,1,1.2,1.2,0,0,0,1,.4,1.2,1.2,0,0,0,1.1-.5,2.5,2.5,0,0,0,.4-1.6,1.8,1.8,0,0,0-.4-1.3,1.2,1.2,0,0,0-1-.4,1.4,1.4,0,0,0-1.1.4A2.1,2.1,0,0,0,104.6,18.3Z" transform="translate(-0.4 -1.9)" fill="#00b0f0"/><path d="M113.6,21h-1.1l-2.2-2.4h0V21h-.8V16h.8v2.3h0l2.1-2.3h1l-2.3,2.4Z" transform="translate(-0.4 -1.9)" fill="#00b0f0"/><path d="M117.8,21H117v-.8h0a1.8,1.8,0,0,1-1.6.9,1.2,1.2,0,0,1-1.1-.4,1.2,1.2,0,0,1-.5-1c0-1,.6-1.5,1.7-1.7l1.5-.2c0-.8-.4-1.2-1.1-1.2a2.5,2.5,0,0,0-1.6.6v-.9a3.3,3.3,0,0,1,1.7-.4,1.6,1.6,0,0,1,1.8,1.8Zm-.8-2.5h-1.2l-.9.3a.8.8,0,0,0-.3.7.6.6,0,0,0,.3.6.8.8,0,0,0,.7.2,1.3,1.3,0,0,0,1-.4,1.8,1.8,0,0,0,.4-1Z" transform="translate(-0.4 -1.9)" fill="#00b0f0"/><path d="M125.7,21h-.8V16.7h-2.6V21h-.8V16h4.2Z" transform="translate(-0.4 -1.9)" fill="#00b0f0"/><path d="M129.1,21.1a2.1,2.1,0,0,1-1.7-.7,2.4,2.4,0,0,1-.7-1.8,2.6,2.6,0,0,1,.7-2,2.5,2.5,0,0,1,1.9-.7,2.1,2.1,0,0,1,1.7.7,2.7,2.7,0,0,1,.6,1.9,2.9,2.9,0,0,1-.6,1.9A2.5,2.5,0,0,1,129.1,21.1Zm.1-4.5a1.3,1.3,0,0,0-1.2.5,2.2,2.2,0,0,0,0,2.8,1.7,1.7,0,0,0,2.4,0,2,2,0,0,0,.4-1.4,2,2,0,0,0-.4-1.4A1.3,1.3,0,0,0,129.2,16.6Z" transform="translate(-0.4 -1.9)" fill="#00b0f0"/><path d="M137,22.8h-.7V21h-3.7v1.8h-.7V20.3h.5a7.8,7.8,0,0,0,1.3-4.3h2.6v4.3h.7Zm-1.5-2.5V16.7h-1.1a7.7,7.7,0,0,1-1.2,3.6Z" transform="translate(-0.4 -1.9)" fill="#00b0f0"/><path d="M141.5,21h-.8V16.7h-1.1a13.9,13.9,0,0,1-.7,3.4,1.6,1.6,0,0,1-1.3,1h-.5v-.7h.4c.7,0,1.2-1.5,1.4-4.4h2.6Z" transform="translate(-0.4 -1.9)" fill="#00b0f0"/><path d="M147.1,21h-.7V17l-.4.6L143.7,21h-.8V16h.7v3.9l.3-.4,2.4-3.5h.8Z" transform="translate(-0.4 -1.9)" fill="#00b0f0"/><path d="M152.6,21h-.8V18.7h-2.5V21h-.8V16h.8v2h2.5V16h.8Z" transform="translate(-0.4 -1.9)" fill="#00b0f0"/><path d="M158.1,21h-.8V18.7h-2.5V21H154V16h.8v2h2.5V16h.8Z" transform="translate(-0.4 -1.9)" fill="#00b0f0"/><path d="M161.6,21.1a2.3,2.3,0,0,1-1.8-.7,2.8,2.8,0,0,1-.6-1.8,3,3,0,0,1,.6-2,2.5,2.5,0,0,1,1.9-.7,2.4,2.4,0,0,1,1.8.7,2.7,2.7,0,0,1,.6,1.9,2.5,2.5,0,0,1-.7,1.9A2.3,2.3,0,0,1,161.6,21.1Zm0-4.5a1.3,1.3,0,0,0-1.2.5,2,2,0,0,0-.4,1.4,2,2,0,0,0,.4,1.4,1.3,1.3,0,0,0,1.2.5c.6,0,1-.1,1.2-.5a2.2,2.2,0,0,0,0-2.8C162.6,16.7,162.2,16.6,161.6,16.6Z" transform="translate(-0.4 -1.9)" fill="#00b0f0"/><path d="M168.5,20.8a2.9,2.9,0,0,1-1.4.3,2.2,2.2,0,0,1-1.7-.7,2.4,2.4,0,0,1-.6-1.8,2.7,2.7,0,0,1,.7-2,2.4,2.4,0,0,1,1.9-.7l1.1.2v.8a2.1,2.1,0,0,0-1.2-.3,1.3,1.3,0,0,0-1.2.5,1.7,1.7,0,0,0-.5,1.4,2,2,0,0,0,.4,1.4,1.7,1.7,0,0,0,1.3.5,1.9,1.9,0,0,0,1.2-.4Z" transform="translate(-0.4 -1.9)" fill="#00b0f0"/><path d="M172.6,16.7h-1.5V21h-.8V16.7h-1.5V16h3.8Z" transform="translate(-0.4 -1.9)" fill="#00b0f0"/><path d="M177.5,21h-.7V17a1.6,1.6,0,0,0-.3.6L174.2,21h-.9V16h.8v3.9l.2-.4,2.4-3.5h.8Z" transform="translate(-0.4 -1.9)" fill="#00b0f0"/><path d="M189.8,14l-2,7h-1l-1.4-5.1a1.7,1.7,0,0,1-.1-.7h0a2.5,2.5,0,0,1-.2.7L183.7,21h-1l-2-7h.9l1.5,5.4c0,.2.1.4.1.7h0a2.5,2.5,0,0,1,.2-.7l1.5-5.4h.8l1.5,5.4c0,.2.1.4.1.7h0a2.5,2.5,0,0,1,.2-.7l1.4-5.4Z" transform="translate(-0.4 -1.9)" fill="#00b0f0"/><path d="M190.9,14.7h-.4c-.1-.1-.1-.2-.1-.4a.6.6,0,0,1,.1-.4h.8a.6.6,0,0,1,.1.4c0,.2,0,.3-.1.4Zm.4,6.3h-.8V16h.8Z" transform="translate(-0.4 -1.9)" fill="#00b0f0"/><path d="M196.8,21H196V18.1q0-1.5-1.2-1.5a1.3,1.3,0,0,0-1,.4,2.1,2.1,0,0,0-.4,1.1V21h-.8V16h.8v.8h.1a1.7,1.7,0,0,1,1.6-.9,1.9,1.9,0,0,1,1.3.5,3.3,3.3,0,0,1,.4,1.5Z" transform="translate(-0.4 -1.9)" fill="#00b0f0"/><path d="M202.3,21h-.8v-.9h0a1.8,1.8,0,0,1-1.7,1,1.6,1.6,0,0,1-1.5-.7,2.4,2.4,0,0,1-.6-1.8,3.2,3.2,0,0,1,.6-2,2.1,2.1,0,0,1,1.7-.7,1.5,1.5,0,0,1,1.5.8h0V13.6h.8Zm-.8-2.3V18a1.4,1.4,0,0,0-1.4-1.4,1.3,1.3,0,0,0-1.2.5,2.7,2.7,0,0,0-.4,1.5,2.5,2.5,0,0,0,.4,1.3,1.3,1.3,0,0,0,1.1.5,1.4,1.4,0,0,0,1.1-.4A2,2,0,0,0,201.5,18.7Z" transform="translate(-0.4 -1.9)" fill="#00b0f0"/><path d="M205.8,21.1a2.1,2.1,0,0,1-1.8-.7,2.9,2.9,0,0,1-.7-1.8,3,3,0,0,1,.7-2,2.5,2.5,0,0,1,1.9-.7,2.1,2.1,0,0,1,1.7.7,2.4,2.4,0,0,1,.7,1.9,2.9,2.9,0,0,1-.7,1.9A2.4,2.4,0,0,1,205.8,21.1Zm0-4.5a1.3,1.3,0,0,0-1.2.5,2,2,0,0,0-.4,1.4,2,2,0,0,0,.4,1.4,1.3,1.3,0,0,0,1.2.5c.6,0,1-.1,1.2-.5a2,2,0,0,0,.4-1.4,2,2,0,0,0-.4-1.4C206.8,16.7,206.4,16.6,205.8,16.6Z" transform="translate(-0.4 -1.9)" fill="#00b0f0"/><path d="M215.6,16l-1.5,5h-.8l-1.1-3.6V17h-.1a.8.8,0,0,1-.1.4L210.9,21h-.8l-1.5-5h.8l1.1,3.8v.4h.1a1.1,1.1,0,0,1,.1-.5l1.1-3.7h.8l1,3.8c0,.1.1.2.1.4h0a.6.6,0,0,1,.1-.4l1-3.8Z" transform="translate(-0.4 -1.9)" fill="#00b0f0"/><path d="M216,20.8V20a2.3,2.3,0,0,0,1.4.4c.7,0,1.1-.2,1.1-.7s-.1-.2-.1-.3l-.3-.3h-.3l-.5-.2-.6-.3-.4-.3a.5.5,0,0,1-.2-.4.7.7,0,0,1-.1-.5,1.3,1.3,0,0,1,.1-.6c.1-.2.3-.3.5-.5l.6-.2h.7l1.2.2v.8a2.8,2.8,0,0,0-1.3-.3h-.7c-.1.1-.2.2-.2.3a.5.5,0,0,0,0,.6l.2.2.3.2.5.2.6.2.4.3.3.4a1.3,1.3,0,0,1,.1.6,1.4,1.4,0,0,1-.2.6l-.4.5-.6.2h-.8A2.5,2.5,0,0,1,216,20.8Z" transform="translate(-0.4 -1.9)" fill="#00b0f0"/><path d="M20.3,30.5H17.6v-.6h2.7Z" transform="translate(-0.4 -1.9)" fill="#00b0f0"/><path d="M30.2,33h-.8V27.9a2.2,2.2,0,0,1,.1-.9h-.1a.8.8,0,0,1-.2.4L25.6,33h-1V26h.8v6h0l.3-.5L29.2,26h1Z" transform="translate(-0.4 -1.9)" fill="#00b0f0"/><path d="M37.4,33h-.8V28.9a4.6,4.6,0,0,0-.3.9L35,33h-.7L33,29.8a4.6,4.6,0,0,1-.3-.9V33H32V28h1l1.3,3.3.4.9.3-.9L36.3,28h1.1Z" transform="translate(-0.4 -1.9)" fill="#00b0f0"/><path d="M42.4,33h-.8V30.9H41c-.4,0-.7.3-.9.8L39.4,33h-.9l.8-1.5a2.9,2.9,0,0,1,.7-.8,1.8,1.8,0,0,1-.9-.4,1.4,1.4,0,0,1,.2-1.9,2,2,0,0,1,1.4-.4h1.7Zm-.8-2.7V28.7h-.9c-.7,0-1,.2-1,.7a.8.8,0,0,0,.9.9Z" transform="translate(-0.4 -1.9)" fill="#00b0f0"/><path d="M50.9,33h-.8V28.7H47.6V33h-.8V28h4.1Z" transform="translate(-0.4 -1.9)" fill="#00b0f0"/><path d="M54.6,33.1a2.1,2.1,0,0,1-1.7-.7,2.4,2.4,0,0,1-.7-1.8,2.6,2.6,0,0,1,.7-2,2.4,2.4,0,0,1,1.9-.7,2.1,2.1,0,0,1,1.7.7,2.7,2.7,0,0,1,.6,1.9,2.5,2.5,0,0,1-.7,1.9A2.1,2.1,0,0,1,54.6,33.1Zm.1-4.5a1.3,1.3,0,0,0-1.2.5,2.2,2.2,0,0,0,0,2.8,1.7,1.7,0,0,0,2.4,0,2,2,0,0,0,.4-1.4,2,2,0,0,0-.4-1.4A1.3,1.3,0,0,0,54.7,28.6Z" transform="translate(-0.4 -1.9)" fill="#00b0f0"/><path d="M62,33h-.7V28.7H60.1a10.4,10.4,0,0,1-.7,3.4,1.6,1.6,0,0,1-1.3,1h-.4v-.7H58c.8,0,1.2-1.5,1.4-4.4H62Z" transform="translate(-0.4 -1.9)" fill="#00b0f0"/><path d="M63.7,33V28h.8v1.9h1.3a1.5,1.5,0,0,1,1.7,1.5,1.7,1.7,0,0,1-.5,1.2,1.5,1.5,0,0,1-1.1.4Zm.8-2.4v1.7h1.2c.6,0,1-.3,1-.9s-.4-.8-1-.8Z" transform="translate(-0.4 -1.9)" fill="#00b0f0"/><path d="M68.3,32.9v-.8a3.3,3.3,0,0,0,1.5.3c.9,0,1.3-.2,1.3-.8s-.4-.8-1.4-.8h-.5v-.7h.5c.8,0,1.2-.3,1.2-.8a.5.5,0,0,0-.3-.5c-.1-.2-.4-.2-.8-.2l-1.4.3v-.7a4,4,0,0,1,1.5-.3c1.2,0,1.8.4,1.8,1.3a1.9,1.9,0,0,1-.2.8l-.8.4h0a1.3,1.3,0,0,1,.9.4,1.1,1.1,0,0,1,.3.8,1.2,1.2,0,0,1-.5,1.1,2.4,2.4,0,0,1-1.5.4Z" transform="translate(-0.4 -1.9)" fill="#00b0f0"/><path d="M75.3,33.1a2.1,2.1,0,0,1-1.8-.7,2.4,2.4,0,0,1-.7-1.8,3,3,0,0,1,.7-2,2.5,2.5,0,0,1,1.9-.7,2.1,2.1,0,0,1,1.7.7,2.7,2.7,0,0,1,.6,1.9,2.9,2.9,0,0,1-.6,1.9A2.4,2.4,0,0,1,75.3,33.1Zm0-4.5a1.3,1.3,0,0,0-1.2.5,2.2,2.2,0,0,0,0,2.8,1.7,1.7,0,0,0,2.4,0,2,2,0,0,0,.4-1.4,2,2,0,0,0-.4-1.4A1.3,1.3,0,0,0,75.3,28.6Z" transform="translate(-0.4 -1.9)" fill="#00b0f0"/><path d="M79,33V28h2.2a2.1,2.1,0,0,1,1.2.3,1,1,0,0,1,.4.9,1.1,1.1,0,0,1-1,1.2q1.2.2,1.2,1.2a1.4,1.4,0,0,1-.5,1,1.6,1.6,0,0,1-1.2.4Zm.8-4.3v1.4H81c.7,0,1-.3,1-.8s-.3-.6-.9-.6Zm0,2.1v1.5h1.4c.7,0,1-.3,1-.8s-.4-.7-1.1-.7Z" transform="translate(-0.4 -1.9)" fill="#00b0f0"/><path d="M87.9,33h-.8v-.8h0a1.8,1.8,0,0,1-1.6.9,1.4,1.4,0,0,1-1.1-.4,1.2,1.2,0,0,1-.4-1c0-1,.5-1.5,1.6-1.7l1.5-.2c0-.8-.3-1.2-1-1.2a2.7,2.7,0,0,0-1.7.6v-.9a3.3,3.3,0,0,1,1.7-.4,1.6,1.6,0,0,1,1.8,1.8Zm-.8-2.5H85.9l-.8.3a.8.8,0,0,0-.3.7.7.7,0,0,0,.9.8,1.2,1.2,0,0,0,1-.4,1.3,1.3,0,0,0,.4-1Z" transform="translate(-0.4 -1.9)" fill="#00b0f0"/><path d="M92.6,28.7H91.1V33h-.8V28.7H88.7V28h3.9Z" transform="translate(-0.4 -1.9)" fill="#00b0f0"/><path d="M97.5,30.7H94a1.7,1.7,0,0,0,.5,1.3,1.2,1.2,0,0,0,1.1.4,2.4,2.4,0,0,0,1.6-.5v.7a2.6,2.6,0,0,1-1.8.5,1.9,1.9,0,0,1-1.6-.7,2.7,2.7,0,0,1-.6-1.9,2.9,2.9,0,0,1,.6-1.9,2.2,2.2,0,0,1,1.7-.7,2,2,0,0,1,1.5.6,2.4,2.4,0,0,1,.5,1.8Zm-.8-.7a2,2,0,0,0-.3-1.1,1.2,1.2,0,0,0-.9-.3,1.3,1.3,0,0,0-1,.4,1.6,1.6,0,0,0-.5,1Z" transform="translate(-0.4 -1.9)" fill="#00b0f0"/><path d="M102.4,33h-.8V28.7h-1.2a8.3,8.3,0,0,1-.7,3.4,1.5,1.5,0,0,1-1.3,1H98v-.7h.4c.7,0,1.2-1.5,1.4-4.4h2.6Z" transform="translate(-0.4 -1.9)" fill="#00b0f0"/><path d="M107.4,33h-.8V30.9H106c-.4,0-.7.3-.9.8l-.7,1.3h-.9l.8-1.5a2,2,0,0,1,.8-.8,1.3,1.3,0,0,1-.9-.4,1.2,1.2,0,0,1-.3-.9,1.2,1.2,0,0,1,.4-1,2.1,2.1,0,0,1,1.4-.4h1.7Zm-.8-2.7V28.7h-.9c-.7,0-1,.2-1,.7s.3.9,1,.9Z" transform="translate(-0.4 -1.9)" fill="#00b0f0"/><path d="M116,33h-.8V29a1.5,1.5,0,0,1-.3.6L112.6,33h-.8V28h.7v3.9l.3-.4,2.3-3.5h.9Z" transform="translate(-0.4 -1.9)" fill="#00b0f0"/><path d="M124.5,33h-.8V28.7h-2.6V33h-.8V28h4.2Z" transform="translate(-0.4 -1.9)" fill="#00b0f0"/><path d="M129.7,33h-.8v-.8h0a1.8,1.8,0,0,1-1.6.9,1.2,1.2,0,0,1-1.1-.4,1.2,1.2,0,0,1-.5-1c0-1,.6-1.5,1.7-1.7l1.5-.2c0-.8-.4-1.2-1-1.2a2.5,2.5,0,0,0-1.7.6v-.9a3.3,3.3,0,0,1,1.7-.4,1.6,1.6,0,0,1,1.8,1.8Zm-.8-2.5h-1.2l-.9.3c-.2.1-.2.4-.2.7s0,.5.2.6a.8.8,0,0,0,.7.2,1.4,1.4,0,0,0,1.4-1.4Z" transform="translate(-0.4 -1.9)" fill="#00b0f0"/><path d="M132,32.3h0v3h-.8V28h.8v.9h0a1.9,1.9,0,0,1,1.7-1,1.8,1.8,0,0,1,1.5.6,2.8,2.8,0,0,1,.6,1.8,3.3,3.3,0,0,1-.6,2.1,2.1,2.1,0,0,1-1.7.7A1.9,1.9,0,0,1,132,32.3Zm0-2V31a1.4,1.4,0,0,0,1.4,1.4,1.3,1.3,0,0,0,1.2-.5,3.4,3.4,0,0,0,.4-1.6,2.5,2.5,0,0,0-.4-1.3,1.4,1.4,0,0,0-1.1-.4,1.5,1.5,0,0,0-1.1.4A2,2,0,0,0,132,30.3Z" transform="translate(-0.4 -1.9)" fill="#00b0f0"/><path d="M139.2,33.1a2.1,2.1,0,0,1-1.8-.7,2.4,2.4,0,0,1-.7-1.8,3,3,0,0,1,.7-2,2.5,2.5,0,0,1,1.9-.7,2.1,2.1,0,0,1,1.7.7,2.7,2.7,0,0,1,.6,1.9,2.9,2.9,0,0,1-.6,1.9A2.4,2.4,0,0,1,139.2,33.1Zm0-4.5a1.3,1.3,0,0,0-1.2.5,2.2,2.2,0,0,0,0,2.8,1.7,1.7,0,0,0,2.4,0,2,2,0,0,0,.4-1.4,2,2,0,0,0-.4-1.4A1.3,1.3,0,0,0,139.2,28.6Z" transform="translate(-0.4 -1.9)" fill="#00b0f0"/><path d="M146.6,33h-.8V28.7h-1.2a8.3,8.3,0,0,1-.7,3.4,1.5,1.5,0,0,1-1.3,1h-.4v-.7h.4c.7,0,1.1-1.5,1.3-4.4h2.7Z" transform="translate(-0.4 -1.9)" fill="#00b0f0"/><path d="M148.2,33V28h.8v1.9h1.3a1.7,1.7,0,0,1,1.3.4,1.5,1.5,0,0,1,.4,1.1,1.4,1.4,0,0,1-1.6,1.6Zm.8-2.4v1.7h1.2c.7,0,1-.3,1-.9s-.3-.8-1-.8Z" transform="translate(-0.4 -1.9)" fill="#00b0f0"/><path d="M165.9,54h-8.3l-53,.2H75.3a.9.9,0,0,0-.4.5.8.8,0,0,0,.4.7c.2.1.5,0,.8,0l41.9-.2h47.9Z" transform="translate(-0.4 -1.9)" fill="#505050"/><path d="M33.1,78H31.9l-2.7-3.2c-.1-.1-.1-.2-.2-.2h0V78h-.8V71H29v3.3h0l.2-.2L31.8,71h1.1l-3,3.4Z" transform="translate(-0.4 -1.9)"/><path d="M37.6,78h-.8V73.7H35.6a10.4,10.4,0,0,1-.7,3.4,1.3,1.3,0,0,1-1.3,1h-.4v-.7h.3c.8,0,1.2-1.5,1.4-4.4h2.7Z" transform="translate(-0.4 -1.9)"/><path d="M42.8,78H42v-.8h0a1.8,1.8,0,0,1-1.6.9,1.2,1.2,0,0,1-1.1-.4,1.2,1.2,0,0,1-.5-1c0-1,.6-1.5,1.7-1.6l1.5-.3c0-.8-.4-1.2-1.1-1.2a2.5,2.5,0,0,0-1.6.6v-.8a3.4,3.4,0,0,1,1.7-.5c1.2,0,1.8.6,1.8,1.9ZM42,75.5H40.8l-.9.3a.9.9,0,0,0-.3.7.6.6,0,0,0,.3.6.9.9,0,0,0,.7.3,1.4,1.4,0,0,0,1-.5,1.5,1.5,0,0,0,.4-1Z" transform="translate(-0.4 -1.9)"/><path d="M47.7,77.8a2.9,2.9,0,0,1-1.4.3,2.2,2.2,0,0,1-1.7-.7,2.4,2.4,0,0,1-.6-1.8,2.7,2.7,0,0,1,.7-2,2.4,2.4,0,0,1,1.9-.7l1.1.2V74a1.6,1.6,0,0,0-1.2-.4,1.7,1.7,0,0,0-1.2.5,2,2,0,0,0-.5,1.5,1.8,1.8,0,0,0,.4,1.3,1.8,1.8,0,0,0,1.3.6,2.1,2.1,0,0,0,1.2-.5Z" transform="translate(-0.4 -1.9)"/><path d="M52.4,77.8a3.2,3.2,0,0,1-1.4.3,2.1,2.1,0,0,1-1.7-.7,2.1,2.1,0,0,1-.7-1.8,2.7,2.7,0,0,1,.7-2,2.5,2.5,0,0,1,1.9-.7l1.2.2V74a1.9,1.9,0,0,0-1.2-.4,1.9,1.9,0,0,0-1.3.5,2.5,2.5,0,0,0-.5,1.5,1.9,1.9,0,0,0,.5,1.3,1.4,1.4,0,0,0,1.2.6,2.1,2.1,0,0,0,1.3-.5Z" transform="translate(-0.4 -1.9)"/><path d="M57.8,78h-.7V74a2.1,2.1,0,0,1-.4.6L54.4,78h-.8V73h.7v4c.1-.1.1-.3.3-.5L56.9,73h.9Z" transform="translate(-0.4 -1.9)"/><path d="M63.4,78h-.8V76a3.3,3.3,0,0,1-1.6.5c-1.1,0-1.7-.6-1.7-1.8V73h.8v1.7a1,1,0,0,0,1,1.1,3,3,0,0,0,1.5-.5V73h.8Z" transform="translate(-0.4 -1.9)"/><path d="M69.1,75.7H65.6A1.7,1.7,0,0,0,66,77a1.7,1.7,0,0,0,1.2.5,2.5,2.5,0,0,0,1.6-.6v.8a3.4,3.4,0,0,1-1.8.4,2.2,2.2,0,0,1-1.7-.7,2.5,2.5,0,0,1-.6-1.9,3.2,3.2,0,0,1,.7-1.9,2,2,0,0,1,1.6-.7,2.1,2.1,0,0,1,1.6.6,3.2,3.2,0,0,1,.5,1.8Zm-.8-.7a1.2,1.2,0,0,0-.4-1,1,1,0,0,0-.9-.4,1.1,1.1,0,0,0-.9.4,1.2,1.2,0,0,0-.5,1Z" transform="translate(-0.4 -1.9)"/><path d="M73.7,77.8a2.5,2.5,0,0,1-1.3.3,2.4,2.4,0,0,1-1.8-.7,2.4,2.4,0,0,1-.6-1.8,2.7,2.7,0,0,1,.7-2,2.5,2.5,0,0,1,1.9-.7l1.2.2V74a1.9,1.9,0,0,0-1.2-.4,1.9,1.9,0,0,0-1.3.5,2.5,2.5,0,0,0-.5,1.5,1.9,1.9,0,0,0,.5,1.3,1.4,1.4,0,0,0,1.2.6,1.8,1.8,0,0,0,1.2-.5Z" transform="translate(-0.4 -1.9)"/><path d="M79.1,78H78l-2.2-2.4h0V78H75V73h.8v2.3h0L77.9,73h1l-2.3,2.4Z" transform="translate(-0.4 -1.9)"/><path d="M82.1,78.1a2.1,2.1,0,0,1-1.8-.7,2.3,2.3,0,0,1-.7-1.8,3,3,0,0,1,.7-2,2.5,2.5,0,0,1,1.9-.7,2.1,2.1,0,0,1,1.7.7,2.7,2.7,0,0,1,.6,1.9,2.9,2.9,0,0,1-.6,1.9A2.4,2.4,0,0,1,82.1,78.1Zm0-4.5a1.3,1.3,0,0,0-1.2.5,2.2,2.2,0,0,0,0,2.8,1.4,1.4,0,0,0,1.2.6,1.7,1.7,0,0,0,1.2-.5,2.4,2.4,0,0,0,.4-1.5,2,2,0,0,0-.4-1.4A1.3,1.3,0,0,0,82.1,73.6Z" transform="translate(-0.4 -1.9)"/><path d="M89.9,75.7H86.3a1.7,1.7,0,0,0,.5,1.3,1.7,1.7,0,0,0,1.2.5,2.4,2.4,0,0,0,1.5-.6v.8a2.9,2.9,0,0,1-1.7.4,2.1,2.1,0,0,1-1.7-.7,2.5,2.5,0,0,1-.6-1.9,2.6,2.6,0,0,1,.7-1.9,2,2,0,0,1,1.6-.7,1.8,1.8,0,0,1,1.5.6,2.6,2.6,0,0,1,.6,1.8ZM89,75a1.5,1.5,0,0,0-.3-1,1,1,0,0,0-.9-.4,1.3,1.3,0,0,0-1,.4,2.3,2.3,0,0,0-.5,1Z" transform="translate(-0.4 -1.9)"/><path d="M34.6,90h-.8V85.7H31.2V90h-.8V85h4.2Z" transform="translate(-0.4 -1.9)"/><path d="M37.1,89.3H37v3h-.8V85H37v.9h.1a1.8,1.8,0,0,1,1.7-1,1.8,1.8,0,0,1,1.5.7,2.4,2.4,0,0,1,.5,1.8,3.2,3.2,0,0,1-.6,2,1.9,1.9,0,0,1-1.6.7A1.6,1.6,0,0,1,37.1,89.3Zm-.1-2V88a1.8,1.8,0,0,0,.4,1,1.6,1.6,0,0,0,1.1.5,1.4,1.4,0,0,0,1.1-.6,2.4,2.4,0,0,0,.4-1.5,2.1,2.1,0,0,0-.4-1.4,1.2,1.2,0,0,0-1-.4c-.5,0-.9.1-1.1.5A1.7,1.7,0,0,0,37,87.3Z" transform="translate(-0.4 -1.9)"/><path d="M46.3,90h-.7V86l-.3.6L43,90h-.9V85h.8v4l.2-.5L45.5,85h.8Z" transform="translate(-0.4 -1.9)"/><path d="M51.6,90h-.8V85.7H49.7a13.9,13.9,0,0,1-.7,3.4c-.4.7-.8,1-1.3,1h-.5v-.7h.4c.7,0,1.2-1.5,1.4-4.4h2.6Z" transform="translate(-0.4 -1.9)"/><path d="M55.3,90.1a2.1,2.1,0,0,1-1.7-.7,2.3,2.3,0,0,1-.7-1.8,2.6,2.6,0,0,1,.7-2,2.5,2.5,0,0,1,1.9-.7,2.1,2.1,0,0,1,1.7.7,2.7,2.7,0,0,1,.6,1.9,2.9,2.9,0,0,1-.6,1.9A2.5,2.5,0,0,1,55.3,90.1Zm.1-4.5a1.3,1.3,0,0,0-1.2.5,2.2,2.2,0,0,0,0,2.8,1.4,1.4,0,0,0,1.2.6,1.7,1.7,0,0,0,1.2-.5,2.4,2.4,0,0,0,.4-1.5,2,2,0,0,0-.4-1.4A1.3,1.3,0,0,0,55.4,85.6Z" transform="translate(-0.4 -1.9)"/><path d="M65.8,90H64.7l-2.2-2.5h-.1V90h-.7V87.5h0L59.4,90H58.3l2.5-2.6L58.5,85h1l2.2,2.4h0V85h.7v2.4h.1L64.6,85h1l-2.3,2.4Z" transform="translate(-0.4 -1.9)"/><path d="M70.6,87.7H67.1a1.7,1.7,0,0,0,.5,1.3,1.3,1.3,0,0,0,1.1.5,2.5,2.5,0,0,0,1.6-.6v.8a3.2,3.2,0,0,1-1.8.4,1.9,1.9,0,0,1-1.6-.7,2.5,2.5,0,0,1-.6-1.9,3.1,3.1,0,0,1,.6-1.9,2.2,2.2,0,0,1,1.7-.7,2,2,0,0,1,1.5.6,2.6,2.6,0,0,1,.5,1.8Zm-.8-.7a1.5,1.5,0,0,0-.3-1,1,1,0,0,0-.9-.4,1.3,1.3,0,0,0-1,.4,1.6,1.6,0,0,0-.5,1Z" transform="translate(-0.4 -1.9)"/><path d="M76,90h-.8V87.7H72.7V90h-.8V85h.8v2.1h2.5V85H76Z" transform="translate(-0.4 -1.9)"/><path d="M81.8,90h-.7V86c0,.2-.2.4-.3.6L78.5,90h-.8V85h.7v4l.2-.5L81,85h.8Z" transform="translate(-0.4 -1.9)"/><path d="M87.5,87.7H84a1.7,1.7,0,0,0,.4,1.3,1.7,1.7,0,0,0,1.2.5,2.5,2.5,0,0,0,1.6-.6v.8a3.4,3.4,0,0,1-1.8.4,1.9,1.9,0,0,1-1.6-.7,2.2,2.2,0,0,1-.7-1.9,3.2,3.2,0,0,1,.7-1.9,2.1,2.1,0,0,1,1.7-.7,2,2,0,0,1,1.5.6,3.2,3.2,0,0,1,.5,1.8Zm-.8-.7a1.5,1.5,0,0,0-.3-1,1.3,1.3,0,0,0-1-.4,1.1,1.1,0,0,0-.9.4,1.2,1.2,0,0,0-.5,1Z" transform="translate(-0.4 -1.9)"/></svg>