<svg xmlns="http://www.w3.org/2000/svg" viewBox="0 0 204.71 66.15"><title>OJ104546516</title><line x1="62.13" y1="20.99" x2="163.68" y2="20.99" fill="none" stroke="#505050" stroke-miterlimit="10"/><path d="M69.66,9.34H63.58c-.23,0-.38.15-.38.46V12a.35.35,0,0,0,.38.37H67v3.39c0,.23.15.38.45.38h2.18a.35.35,0,0,0,.37-.38v-6A.35.35,0,0,0,69.66,9.34Zm-17.19,21H49V27c0-.22-.15-.37-.45-.37H46.4A.35.35,0,0,0,46,27v6a.36.36,0,0,0,.38.39h6.07c.23,0,.38-.15.38-.46V30.72A.36.36,0,0,0,52.47,30.34Zm13.58-3.69a.9.9,0,0,0-.45.08l-2.32-4.07a2.77,2.77,0,0,0-1.88-4.81,3,3,0,0,0-1.12.22L57.8,14.61a2,2,0,0,0,.53-1.5A2.33,2.33,0,1,0,56,15.44a2.38,2.38,0,0,0,.75-.15l2.48,3.54a2.82,2.82,0,0,0-.68,1.43l-7.2.6a1.78,1.78,0,0,0-1.65-1,1.88,1.88,0,0,0,0,3.76,1.92,1.92,0,0,0,1.87-1.58l7.06-.6a3.74,3.74,0,0,0,.67,1.2L57.5,25.6h-.22a1.88,1.88,0,1,0,1.87,1.88,2.13,2.13,0,0,0-.52-1.35l1.72-2.86a4,4,0,0,0,1,.15,3.38,3.38,0,0,0,.82-.15l2.33,4.06a2.34,2.34,0,0,0-.68,1.58,2.18,2.18,0,1,0,2.25-2.26Z" fill="#007efd"/><g style="isolation:isolate"><path d="M43.93,44.85h-.65V40H40.43v4.87h-.64V39.38h4.14Z" fill="#007efd"/><path d="M45.71,44.28h0v2.36h-.62V41h.62v.68h0a1.45,1.45,0,0,1,1.35-.77,1.41,1.41,0,0,1,1.17.52,2.18,2.18,0,0,1,.42,1.4,2.41,2.41,0,0,1-.47,1.57,1.59,1.59,0,0,1-1.3.59A1.29,1.29,0,0,1,45.71,44.28Zm0-1.57v.54a1.14,1.14,0,0,0,.32.82,1,1,0,0,0,.79.34,1,1,0,0,0,.89-.43A2,2,0,0,0,48,42.77a1.53,1.53,0,0,0-.31-1,1,1,0,0,0-.81-.37,1.13,1.13,0,0,0-.88.38A1.39,1.39,0,0,0,45.69,42.71Z" fill="#007efd"/><path d="M52.73,44.85h-.57V41.73c0,.11-.14.27-.25.47L50.1,44.85h-.64V41H50V44c0-.07.1-.2.2-.38L52.08,41h.65Z" fill="#007efd"/><path d="M56.64,44.85H56V41.48h-.91a8,8,0,0,1-.53,2.65,1.08,1.08,0,0,1-1.36.72v-.54a.59.59,0,0,0,.29.07c.56,0,.92-1.15,1.08-3.43h2Z" fill="#007efd"/><path d="M59.34,44.94A1.78,1.78,0,0,1,58,44.39a2,2,0,0,1-.52-1.45A2.09,2.09,0,0,1,58,41.41a1.92,1.92,0,0,1,1.45-.55,1.73,1.73,0,0,1,1.36.53,2.13,2.13,0,0,1,.49,1.49,2.09,2.09,0,0,1-.53,1.5A1.85,1.85,0,0,1,59.34,44.94Zm0-3.56a1.21,1.21,0,0,0-1,.41,1.7,1.7,0,0,0-.35,1.13A1.56,1.56,0,0,0,58.44,44a1.18,1.18,0,0,0,1,.4,1.15,1.15,0,0,0,.93-.39,1.74,1.74,0,0,0,.32-1.12,1.76,1.76,0,0,0-.32-1.12A1.13,1.13,0,0,0,59.39,41.38Z" fill="#007efd"/><path d="M67.26,44.85h-.84l-1.75-1.93h0v1.93h-.59V42.92h0L62.3,44.85h-.83l1.93-2L61.59,41h.79l1.67,1.82h0V41h.59v1.82h0L66.34,41h.81l-1.83,1.89Z" fill="#007efd"/><path d="M70.84,43.05H68.09a1.48,1.48,0,0,0,.35,1,1.22,1.22,0,0,0,.92.35A1.89,1.89,0,0,0,70.57,44v.58a2.24,2.24,0,0,1-1.36.38,1.64,1.64,0,0,1-1.29-.53,2.18,2.18,0,0,1-.48-1.5A2.09,2.09,0,0,1,68,41.43a1.65,1.65,0,0,1,1.28-.57,1.44,1.44,0,0,1,1.18.49,2.07,2.07,0,0,1,.42,1.38Zm-.64-.53a1.26,1.26,0,0,0-.26-.84.89.89,0,0,0-.71-.3,1,1,0,0,0-.75.32,1.4,1.4,0,0,0-.38.82Z" fill="#007efd"/><path d="M74.83,44.85h-.62V43.07h-2v1.78h-.63V41h.63v1.6h2V41h.62Z" fill="#007efd"/><path d="M79.17,44.85H78.6V41.73c0,.11-.14.27-.25.47l-1.8,2.65H75.9V41h.57V44c0-.07.1-.2.2-.38L78.52,41h.65Z" fill="#007efd"/><path d="M83.37,43.05H80.62a1.48,1.48,0,0,0,.35,1,1.22,1.22,0,0,0,.92.35A1.91,1.91,0,0,0,83.1,44v.58a2.24,2.24,0,0,1-1.36.38,1.67,1.67,0,0,1-1.3-.53,2.23,2.23,0,0,1-.47-1.5,2.09,2.09,0,0,1,.52-1.48,1.65,1.65,0,0,1,1.28-.57,1.46,1.46,0,0,1,1.18.49,2.07,2.07,0,0,1,.42,1.38Zm-.64-.53a1.26,1.26,0,0,0-.26-.84.89.89,0,0,0-.71-.3,1,1,0,0,0-.75.32,1.34,1.34,0,0,0-.38.82Z" fill="#007efd"/><path d="M84.69,44l-.61,1.87h-.44L84.08,44Z" fill="#007efd"/><path d="M18,53.64h0V56h-.63V50.31H18V51h0a1.47,1.47,0,0,1,1.35-.77,1.43,1.43,0,0,1,1.18.52,2.18,2.18,0,0,1,.42,1.4,2.41,2.41,0,0,1-.48,1.57,1.58,1.58,0,0,1-1.3.59A1.32,1.32,0,0,1,18,53.64Zm0-1.57v.54a1.17,1.17,0,0,0,.31.83,1.06,1.06,0,0,0,.8.33,1,1,0,0,0,.89-.43,2,2,0,0,0,.32-1.21,1.59,1.59,0,0,0-.3-1,1,1,0,0,0-.82-.37,1.11,1.11,0,0,0-.87.38A1.39,1.39,0,0,0,18,52.07Z" fill="#007efd"/><path d="M24.56,54.21h-.62V53.6h0a1.31,1.31,0,0,1-1.19.7,1.33,1.33,0,0,1-.92-.31,1.08,1.08,0,0,1-.33-.82c0-.73.43-1.15,1.29-1.27l1.17-.17c0-.66-.27-1-.8-1a1.94,1.94,0,0,0-1.28.48v-.64a2.48,2.48,0,0,1,1.33-.36c.92,0,1.37.48,1.37,1.45Zm-.62-2-.94.13a1.59,1.59,0,0,0-.66.22.62.62,0,0,0-.22.54.58.58,0,0,0,.21.47.77.77,0,0,0,.54.18,1,1,0,0,0,.77-.32,1.19,1.19,0,0,0,.3-.83Z" fill="#007efd"/><path d="M28.56,48.39V49a1.14,1.14,0,0,1-.5.18,7.19,7.19,0,0,0-1.2.24,1.08,1.08,0,0,0-.56.52A3,3,0,0,0,26,51.05h0a1.48,1.48,0,0,1,1.3-.66,1.61,1.61,0,0,1,1.25.53,2,2,0,0,1,.47,1.4,2.08,2.08,0,0,1-.5,1.44,1.69,1.69,0,0,1-1.32.54,1.64,1.64,0,0,1-1.39-.64,3,3,0,0,1-.48-1.82,6.38,6.38,0,0,1,.17-1.57,2.22,2.22,0,0,1,.49-1,1.53,1.53,0,0,1,.69-.45,11.62,11.62,0,0,1,1.3-.28A2.18,2.18,0,0,0,28.56,48.39ZM26,51.67v.54a2.51,2.51,0,0,0,.1.6,1.57,1.57,0,0,0,.25.52,1.12,1.12,0,0,0,1.74.05,1.54,1.54,0,0,0,.32-1,1.6,1.6,0,0,0-.33-1.06,1.12,1.12,0,0,0-.89-.4A1.29,1.29,0,0,0,26,51.67Z" fill="#007efd"/><path d="M31.5,54.3a1.78,1.78,0,0,1-1.38-.55,2,2,0,0,1-.52-1.45,2.1,2.1,0,0,1,.54-1.53,1.92,1.92,0,0,1,1.45-.55,1.73,1.73,0,0,1,1.36.53,2.13,2.13,0,0,1,.49,1.49,2.09,2.09,0,0,1-.53,1.5A1.85,1.85,0,0,1,31.5,54.3Zm0-3.56a1.2,1.2,0,0,0-.95.41,1.7,1.7,0,0,0-.35,1.13,1.56,1.56,0,0,0,.36,1.09,1.18,1.18,0,0,0,.94.4,1.16,1.16,0,0,0,.94-.39,1.74,1.74,0,0,0,.32-1.12,1.76,1.76,0,0,0-.32-1.12A1.14,1.14,0,0,0,31.54,50.74Z" fill="#007efd"/><path d="M36.69,50.84H35.52v3.37H34.9V50.84H33.73v-.53h3Z" fill="#007efd"/><path d="M40,54.21h-.62V53.6h0a1.32,1.32,0,0,1-1.2.7,1.3,1.3,0,0,1-.91-.31,1.08,1.08,0,0,1-.33-.82c0-.73.43-1.15,1.29-1.27l1.17-.17q0-1-.81-1a1.92,1.92,0,0,0-1.27.48v-.64a2.42,2.42,0,0,1,1.32-.36c.92,0,1.38.48,1.38,1.45Zm-.62-2-1,.13a1.59,1.59,0,0,0-.65.22.71.71,0,0,0,0,1,.8.8,0,0,0,.54.18,1,1,0,0,0,.77-.32,1.2,1.2,0,0,0,.31-.83Z" fill="#007efd"/><path d="M42.75,52.44h-1.1v1.77H41v-3.9h.63v1.6h1.11a1.9,1.9,0,0,1,.59-1.25,1.75,1.75,0,0,1,1.25-.44,1.6,1.6,0,0,1,1.29.52,2.61,2.61,0,0,1,0,3,1.72,1.72,0,0,1-1.35.56,1.65,1.65,0,0,1-1.27-.49A2.14,2.14,0,0,1,42.75,52.44Zm1.8-1.7c-.78,0-1.17.51-1.17,1.52s.4,1.51,1.18,1.51,1.16-.5,1.16-1.51S45.33,50.74,44.55,50.74Z" fill="#007efd"/><path d="M52.73,55.63h-.55V54.21h-5v-3.9h.62v3.37h1.55V50.31H50v3.37h1.55V50.31h.63v3.37h.58Z" fill="#007efd"/><path d="M56.54,52.41H53.78a1.48,1.48,0,0,0,.35,1,1.24,1.24,0,0,0,.92.35,1.93,1.93,0,0,0,1.22-.43v.58a2.28,2.28,0,0,1-1.36.38,1.64,1.64,0,0,1-1.3-.53,2.18,2.18,0,0,1-.47-1.5,2.13,2.13,0,0,1,.51-1.48,1.66,1.66,0,0,1,1.28-.57,1.48,1.48,0,0,1,1.19.49,2.07,2.07,0,0,1,.42,1.38Zm-.64-.53a1.32,1.32,0,0,0-.26-.84.91.91,0,0,0-.72-.3,1,1,0,0,0-.75.32,1.46,1.46,0,0,0-.38.82Z" fill="#007efd"/><path d="M60.42,52.41H57.67a1.44,1.44,0,0,0,.35,1,1.22,1.22,0,0,0,.92.35,1.91,1.91,0,0,0,1.21-.43v.58a2.26,2.26,0,0,1-1.36.38,1.67,1.67,0,0,1-1.3-.53,2.23,2.23,0,0,1-.47-1.5,2.09,2.09,0,0,1,.52-1.48,1.65,1.65,0,0,1,1.28-.57,1.46,1.46,0,0,1,1.18.49,2.07,2.07,0,0,1,.42,1.38Zm-.64-.53a1.26,1.26,0,0,0-.26-.84.89.89,0,0,0-.71-.3,1,1,0,0,0-.76.32,1.46,1.46,0,0,0-.38.82Z" fill="#007efd"/><path d="M66.13,48.39V49a1.19,1.19,0,0,1-.5.18,6.75,6.75,0,0,0-1.2.24,1,1,0,0,0-.56.52,2.78,2.78,0,0,0-.28,1.14h0a1.5,1.5,0,0,1,1.31-.66,1.59,1.59,0,0,1,1.24.53,2,2,0,0,1,.47,1.4,2.08,2.08,0,0,1-.49,1.44,1.71,1.71,0,0,1-1.33.54,1.61,1.61,0,0,1-1.38-.64,2.92,2.92,0,0,1-.49-1.82,5.9,5.9,0,0,1,.18-1.57,2.21,2.21,0,0,1,.48-1,1.65,1.65,0,0,1,.69-.45,12.78,12.78,0,0,1,1.3-.28A2.13,2.13,0,0,0,66.13,48.39Zm-2.55,3.28v.54a2.08,2.08,0,0,0,.09.6,1.79,1.79,0,0,0,.25.52,1,1,0,0,0,.39.33,1.06,1.06,0,0,0,.51.11,1,1,0,0,0,.84-.39,1.48,1.48,0,0,0,.32-1,1.6,1.6,0,0,0-.33-1.06,1.1,1.1,0,0,0-.89-.4A1.28,1.28,0,0,0,63.58,51.67Z" fill="#007efd"/><path d="M70.57,52.41H67.81a1.48,1.48,0,0,0,.35,1,1.24,1.24,0,0,0,.93.35,1.91,1.91,0,0,0,1.21-.43v.58a2.28,2.28,0,0,1-1.36.38,1.66,1.66,0,0,1-1.3-.53,2.18,2.18,0,0,1-.47-1.5,2.13,2.13,0,0,1,.51-1.48A1.66,1.66,0,0,1,69,50.22a1.48,1.48,0,0,1,1.19.49,2.07,2.07,0,0,1,.42,1.38Zm-.64-.53a1.26,1.26,0,0,0-.26-.84.89.89,0,0,0-.72-.3,1,1,0,0,0-.75.32,1.46,1.46,0,0,0-.38.82Z" fill="#007efd"/><path d="M71,54.1v-.62a2.41,2.41,0,0,0,1.19.29c.69,0,1-.22,1-.66s-.37-.64-1.13-.64H71.7v-.53h.36c.67,0,1-.21,1-.62a.48.48,0,0,0-.23-.42,1.13,1.13,0,0,0-.63-.16,2.53,2.53,0,0,0-1.13.29v-.58a3.4,3.4,0,0,1,1.18-.24c1,0,1.43.35,1.43,1a.86.86,0,0,1-.21.58,1,1,0,0,1-.59.33v0a1.06,1.06,0,0,1,.69.29.86.86,0,0,1,.26.66,1,1,0,0,1-.43.85,2,2,0,0,1-1.18.31A3,3,0,0,1,71,54.1Z" fill="#007efd"/><path d="M79.56,48.39V49a1.19,1.19,0,0,1-.51.18,6.79,6.79,0,0,0-1.19.24,1,1,0,0,0-.56.52A2.78,2.78,0,0,0,77,51.05h0a1.5,1.5,0,0,1,1.3-.66,1.59,1.59,0,0,1,1.25.53,2,2,0,0,1,.47,1.4,2.08,2.08,0,0,1-.49,1.44,1.71,1.71,0,0,1-1.33.54,1.61,1.61,0,0,1-1.38-.64,2.92,2.92,0,0,1-.49-1.82,5.9,5.9,0,0,1,.18-1.57,2.21,2.21,0,0,1,.48-1,1.65,1.65,0,0,1,.69-.45,12.18,12.18,0,0,1,1.3-.28A2.13,2.13,0,0,0,79.56,48.39ZM77,51.67v.54a2.08,2.08,0,0,0,.09.6,1.79,1.79,0,0,0,.25.52,1,1,0,0,0,.39.33,1.06,1.06,0,0,0,.51.11,1,1,0,0,0,.84-.39,1.48,1.48,0,0,0,.32-1,1.6,1.6,0,0,0-.33-1.06,1.1,1.1,0,0,0-.89-.4A1.28,1.28,0,0,0,77,51.67Z" fill="#007efd"/><path d="M81.5,53.64h0V56h-.63V50.31h.63V51h0a1.47,1.47,0,0,1,1.35-.77,1.43,1.43,0,0,1,1.18.52,2.18,2.18,0,0,1,.42,1.4A2.41,2.41,0,0,1,84,53.71a1.58,1.58,0,0,1-1.3.59A1.32,1.32,0,0,1,81.5,53.64Zm0-1.57v.54a1.17,1.17,0,0,0,.31.83,1.06,1.06,0,0,0,.8.33,1,1,0,0,0,.89-.43,2,2,0,0,0,.32-1.21,1.59,1.59,0,0,0-.3-1,1,1,0,0,0-.81-.37,1.11,1.11,0,0,0-.88.38A1.39,1.39,0,0,0,81.49,52.07Z" fill="#007efd"/><path d="M88.05,54.21h-.63V53.6h0a1.43,1.43,0,0,1-2.12.39,1.08,1.08,0,0,1-.33-.82c0-.73.43-1.15,1.29-1.27l1.17-.17c0-.66-.27-1-.8-1a1.9,1.9,0,0,0-1.27.48v-.64a2.42,2.42,0,0,1,1.32-.36c.92,0,1.38.48,1.38,1.45Zm-.63-2-.94.13a1.49,1.49,0,0,0-.65.22.6.6,0,0,0-.23.54.58.58,0,0,0,.21.47.77.77,0,0,0,.54.18,1,1,0,0,0,.77-.32,1.19,1.19,0,0,0,.3-.83Z" fill="#007efd"/><path d="M92.13,50.31l-1.79,4.52C90,55.64,89.57,56,89,56a1.24,1.24,0,0,1-.41,0v-.56a1.09,1.09,0,0,0,.37.07.77.77,0,0,0,.71-.56L90,54.2l-1.52-3.89h.69l1.06,3s0,.13.08.3h0a2.27,2.27,0,0,1,.08-.29l1.1-3Z" fill="#007efd"/><path d="M92.28,54.1v-.62a2.41,2.41,0,0,0,1.19.29c.69,0,1-.22,1-.66s-.37-.64-1.13-.64H93v-.53h.36c.67,0,1-.21,1-.62a.48.48,0,0,0-.23-.42,1.13,1.13,0,0,0-.63-.16,2.6,2.6,0,0,0-1.14.29v-.58a3.49,3.49,0,0,1,1.19-.24c.95,0,1.43.35,1.43,1a.86.86,0,0,1-.21.58,1,1,0,0,1-.6.33v0a1.07,1.07,0,0,1,.7.29.86.86,0,0,1,.26.66,1,1,0,0,1-.43.85,2,2,0,0,1-1.18.31A3,3,0,0,1,92.28,54.1Z" fill="#007efd"/><path d="M99,52.41H96.27a1.48,1.48,0,0,0,.35,1,1.22,1.22,0,0,0,.92.35,1.91,1.91,0,0,0,1.21-.43v.58a2.24,2.24,0,0,1-1.36.38,1.67,1.67,0,0,1-1.3-.53,2.23,2.23,0,0,1-.47-1.5,2.09,2.09,0,0,1,.52-1.48,1.65,1.65,0,0,1,1.28-.57,1.46,1.46,0,0,1,1.18.49A2.07,2.07,0,0,1,99,52.09Zm-.64-.53a1.26,1.26,0,0,0-.26-.84.89.89,0,0,0-.71-.3,1,1,0,0,0-.75.32,1.4,1.4,0,0,0-.38.82Z" fill="#007efd"/><path d="M100.41,53.64h0V56h-.63V50.31h.63V51h0a1.47,1.47,0,0,1,1.35-.77,1.43,1.43,0,0,1,1.18.52,2.18,2.18,0,0,1,.42,1.4,2.41,2.41,0,0,1-.48,1.57,1.58,1.58,0,0,1-1.3.59A1.32,1.32,0,0,1,100.41,53.64Zm0-1.57v.54a1.17,1.17,0,0,0,.31.83,1.06,1.06,0,0,0,.8.33,1,1,0,0,0,.89-.43,2,2,0,0,0,.32-1.21,1.59,1.59,0,0,0-.3-1,1,1,0,0,0-.82-.37,1.11,1.11,0,0,0-.87.38A1.39,1.39,0,0,0,100.4,52.07Z" fill="#007efd"/><path d="M107,54.21h-.63V53.6h0a1.43,1.43,0,0,1-2.12.39,1.08,1.08,0,0,1-.33-.82c0-.73.43-1.15,1.29-1.27l1.17-.17c0-.66-.27-1-.8-1a1.94,1.94,0,0,0-1.28.48v-.64a2.48,2.48,0,0,1,1.33-.36c.92,0,1.38.48,1.38,1.45Zm-.63-2-.94.13a1.59,1.59,0,0,0-.66.22.62.62,0,0,0-.22.54.58.58,0,0,0,.21.47.77.77,0,0,0,.54.18,1,1,0,0,0,.77-.32,1.19,1.19,0,0,0,.3-.83Z" fill="#007efd"/></g><path d="M7.85,13.61a4.49,4.49,0,0,0-3,5.66c.66,2.56,3,4.22,5.27,3.67a4.5,4.5,0,0,0,3-5.67C12.57,14.61,10.16,12.94,7.85,13.61Z" fill="#008bfd"/><path d="M12.79,23.63c-.44,0-.88.78-1.54,1.11s-1.32.89-3.18,0S6,23.08,4.44,23.08.38,25.85.38,30H16a12.14,12.14,0,0,0-1.1-4.22C13.77,23.63,13.23,23.63,12.79,23.63Z" fill="#008bfd"/><path d="M14.19,18.69H10.07a.71.71,0,0,0-.65.66V22.2a.73.73,0,0,0,.76.66h.76V28a1,1,0,0,0,1,1.1,1,1,0,0,0,1-1h.21v-.65c0-.22.33-.33.33-.33V26.8c-.33-.11-.54-.33-.54-.44V26l.21-.22a3.55,3.55,0,0,0,.33-.54,2.4,2.4,0,0,1-.33-.55c-.1-.11-.1-.33-.21-.44v-.22a2.51,2.51,0,0,1,.76-1.1h.54a.7.7,0,0,0,.65-.65v-3A.63.63,0,0,0,14.19,18.69ZM11.8,28.22c0,.22,0,.33-.21.33s-.22-.22-.22-.33V23.4c0-.22.11-.33.22-.33s.21.22.21.33Zm.33-7.78a.69.69,0,0,1-.65-.65.7.7,0,0,1,.65-.66.71.71,0,0,1,.65.66A.62.62,0,0,1,12.13,20.44Z" fill="#008bfd" stroke="gray" stroke-linecap="round" stroke-linejoin="round" stroke-width="0.75"/><path d="M11.57,28.53a.24.24,0,0,1-.22-.22v-5a.22.22,0,1,1,.44,0v5.11C11.79,28.53,11.68,28.53,11.57,28.53Z" fill="#fff"/><ellipse cx="12.14" cy="19.77" rx="0.66" ry="0.67" fill="#fff"/><path d="M191.76,8.21h-20.5a1.09,1.09,0,0,0-1.09,1.1V26.05a1.1,1.1,0,0,0,1.09,1.11h5.28a3.29,3.29,0,0,0,3.21,2.27,3.38,3.38,0,0,0,0-6.75A3.29,3.29,0,0,0,176.54,25h-4.19V13h18.31V25h-3.45a7.61,7.61,0,0,0-7.46-6.56,8.25,8.25,0,0,0-3.64.92l1,2a5.27,5.27,0,0,1,2.55-.67,5.46,5.46,0,0,1,0,10.91,5.27,5.27,0,0,1-2.55-.67l-1,2a7.51,7.51,0,0,0,3.64.92,7.61,7.61,0,0,0,7.46-6.56h4.55a1.1,1.1,0,0,0,1.09-1.11V9.31A1.14,1.14,0,0,0,191.76,8.21Z" fill="#008bfd"/><g style="isolation:isolate"><path d="M164.06,44.85h-.64V40h-2.86v4.87h-.64V39.38h4.14Z" fill="#008bfd"/><path d="M165.84,44.28h0v2.36h-.63V41h.63v.68h0a1.47,1.47,0,0,1,1.35-.77,1.44,1.44,0,0,1,1.18.52,2.18,2.18,0,0,1,.42,1.4,2.41,2.41,0,0,1-.48,1.57,1.58,1.58,0,0,1-1.3.59A1.31,1.31,0,0,1,165.84,44.28Zm0-1.57v.54a1.13,1.13,0,0,0,.31.82,1.12,1.12,0,0,0,1.69-.09,2,2,0,0,0,.32-1.21,1.59,1.59,0,0,0-.3-1,1,1,0,0,0-.82-.37,1.11,1.11,0,0,0-.87.38A1.39,1.39,0,0,0,165.83,42.71Z" fill="#008bfd"/><path d="M172.86,44.85h-.56V41.73l-.26.47-1.8,2.65h-.65V41h.57V44c0-.07.1-.2.2-.38L172.21,41h.65Z" fill="#008bfd"/><path d="M176.77,44.85h-.62V41.48h-.9a8.23,8.23,0,0,1-.54,2.65,1.14,1.14,0,0,1-1,.77,1,1,0,0,1-.33,0v-.54a.57.57,0,0,0,.29.07c.56,0,.91-1.15,1.07-3.43h2.05Z" fill="#008bfd"/><path d="M179.47,44.94a1.81,1.81,0,0,1-1.38-.55,2,2,0,0,1-.51-1.45,2.12,2.12,0,0,1,.53-1.53,1.94,1.94,0,0,1,1.45-.55,1.75,1.75,0,0,1,1.37.53,2.17,2.17,0,0,1,.49,1.49,2.13,2.13,0,0,1-.53,1.5A1.86,1.86,0,0,1,179.47,44.94Zm.05-3.56a1.19,1.19,0,0,0-1,.41,1.65,1.65,0,0,0-.35,1.13,1.55,1.55,0,0,0,.35,1.09,1.2,1.2,0,0,0,1,.4,1.15,1.15,0,0,0,.93-.39,1.68,1.68,0,0,0,.33-1.12,1.7,1.7,0,0,0-.33-1.12A1.13,1.13,0,0,0,179.52,41.38Z" fill="#008bfd"/><path d="M187.4,44.85h-.85l-1.74-1.93h0v1.93h-.59V42.92h0l-1.74,1.93h-.84l1.94-2L181.72,41h.8l1.66,1.82h0V41h.59v1.82h0L186.48,41h.8l-1.82,1.89Z" fill="#008bfd"/><path d="M191,43.05h-2.76a1.48,1.48,0,0,0,.35,1,1.26,1.26,0,0,0,.93.35,1.91,1.91,0,0,0,1.21-.43v.58a2.28,2.28,0,0,1-1.36.38,1.66,1.66,0,0,1-1.3-.53,2.18,2.18,0,0,1-.47-1.5,2.13,2.13,0,0,1,.51-1.48,1.66,1.66,0,0,1,1.28-.57,1.48,1.48,0,0,1,1.19.49,2.07,2.07,0,0,1,.42,1.38Zm-.64-.53a1.26,1.26,0,0,0-.26-.84.89.89,0,0,0-.72-.3,1,1,0,0,0-.75.32,1.46,1.46,0,0,0-.38.82Z" fill="#008bfd"/><path d="M195,44.85h-.62V43.07h-2v1.78h-.62V41h.62v1.6h2V41H195Z" fill="#008bfd"/><path d="M199.3,44.85h-.56V41.73c-.06.11-.14.27-.26.47l-1.8,2.65H196V41h.58V44c0-.07.09-.2.19-.38L198.65,41h.65Z" fill="#008bfd"/><path d="M203.51,43.05h-2.76a1.48,1.48,0,0,0,.35,1,1.24,1.24,0,0,0,.92.35,1.93,1.93,0,0,0,1.22-.43v.58a2.28,2.28,0,0,1-1.36.38,1.64,1.64,0,0,1-1.3-.53,2.18,2.18,0,0,1-.48-1.5,2.14,2.14,0,0,1,.52-1.48,1.65,1.65,0,0,1,1.28-.57,1.48,1.48,0,0,1,1.19.49,2.07,2.07,0,0,1,.42,1.38Zm-.64-.53a1.32,1.32,0,0,0-.26-.84.91.91,0,0,0-.72-.3,1,1,0,0,0-.75.32,1.4,1.4,0,0,0-.38.82Z" fill="#008bfd"/><path d="M180.91,54.21h-.71l-.58-1.53h-2.31l-.55,1.53h-.71l2.1-5.47h.66Zm-1.49-2.11-.86-2.33a1.82,1.82,0,0,1-.09-.36h0a3.11,3.11,0,0,1-.09.36l-.85,2.33Z" fill="#008bfd"/><path d="M182.16,52.14v2.07h-.64V48.74H183a2,2,0,0,1,1.36.43,1.55,1.55,0,0,1,.48,1.21,1.68,1.68,0,0,1-.53,1.27,2.05,2.05,0,0,1-1.45.49Zm0-2.82v2.24h.67a1.5,1.5,0,0,0,1-.3,1.08,1.08,0,0,0,.35-.85c0-.73-.43-1.09-1.28-1.09Z" fill="#008bfd"/><path d="M186.33,54.21h-.64V48.74h.64Z" fill="#008bfd"/></g><path d="M161.69,17l8.05,4-8,4a9,9,0,0,0,0-8" fill="#505050"/><rect x="73.89" y="0.37" width="90.38" height="20" fill="none"/><g style="isolation:isolate"><path d="M82,13.37h-.65V8.51H78.49v4.86h-.64V7.91H82Z" fill="#00b0f0"/><path d="M85,13.47a1.84,1.84,0,0,1-1.38-.55,2,2,0,0,1-.51-1.45,2.08,2.08,0,0,1,.53-1.53A1.93,1.93,0,0,1,85,9.38a1.76,1.76,0,0,1,1.37.54,2.15,2.15,0,0,1,.48,1.49,2.08,2.08,0,0,1-.52,1.49A1.85,1.85,0,0,1,85,13.47Zm0-3.56a1.19,1.19,0,0,0-1,.41,1.65,1.65,0,0,0-.35,1.13,1.57,1.57,0,0,0,.35,1.09,1.2,1.2,0,0,0,1,.4,1.15,1.15,0,0,0,.93-.39,1.7,1.7,0,0,0,.32-1.12,1.68,1.68,0,0,0-.32-1.12A1.13,1.13,0,0,0,85,9.91Z" fill="#00b0f0"/><path d="M90.34,10H89.17v3.36h-.62V10H87.37V9.47h3Z" fill="#00b0f0"/><path d="M92.72,13.47a1.84,1.84,0,0,1-1.38-.55,2,2,0,0,1-.51-1.45,2.08,2.08,0,0,1,.53-1.53,1.93,1.93,0,0,1,1.45-.56,1.73,1.73,0,0,1,1.36.54,2.11,2.11,0,0,1,.49,1.49,2.08,2.08,0,0,1-.52,1.49A1.85,1.85,0,0,1,92.72,13.47Zm0-3.56a1.19,1.19,0,0,0-1,.41,1.65,1.65,0,0,0-.36,1.13,1.58,1.58,0,0,0,.36,1.09,1.2,1.2,0,0,0,1,.4,1.15,1.15,0,0,0,.93-.39A1.7,1.7,0,0,0,94,11.43a1.68,1.68,0,0,0-.32-1.12A1.13,1.13,0,0,0,92.77,9.91Z" fill="#00b0f0"/><path d="M98.9,13.37H98L96.3,11.5h0v1.87h-.63V9.47h.63v1.79h0l1.64-1.79h.82L97,11.36Z" fill="#00b0f0"/><path d="M104.91,13.37H104l-1.72-1.87h0v1.87h-.62V9.47h.62v1.79h0L104,9.47h.82L103,11.36Z" fill="#00b0f0"/><path d="M107.18,13.47a1.84,1.84,0,0,1-1.38-.55,2,2,0,0,1-.51-1.45,2.12,2.12,0,0,1,.53-1.53,1.94,1.94,0,0,1,1.45-.56,1.76,1.76,0,0,1,1.37.54,2.16,2.16,0,0,1,.49,1.49,2.09,2.09,0,0,1-.53,1.49A1.83,1.83,0,0,1,107.18,13.47Zm0-3.56a1.19,1.19,0,0,0-1,.41,1.65,1.65,0,0,0-.35,1.13,1.57,1.57,0,0,0,.35,1.09,1.2,1.2,0,0,0,1,.4,1.15,1.15,0,0,0,.93-.39,1.7,1.7,0,0,0,.33-1.12,1.68,1.68,0,0,0-.33-1.12A1.13,1.13,0,0,0,107.23,9.91Z" fill="#00b0f0"/><path d="M113.52,14.8H113V13.37h-2.91V14.8h-.53v-2h.35a5.91,5.91,0,0,0,1-3.38h2v3.38h.57Zm-1.2-2V10h-.86a6.13,6.13,0,0,1-.89,2.85Z" fill="#00b0f0"/><path d="M117.18,13.37h-.62v-.6h0a1.32,1.32,0,0,1-1.2.7,1.3,1.3,0,0,1-.91-.31,1.08,1.08,0,0,1-.33-.82c0-.73.43-1.15,1.29-1.27l1.17-.17q0-1-.81-1a1.92,1.92,0,0,0-1.27.48V9.75a2.46,2.46,0,0,1,1.33-.37c.91,0,1.37.49,1.37,1.46Zm-.62-2-.94.13a1.46,1.46,0,0,0-.66.22.6.6,0,0,0-.22.54.62.62,0,0,0,.2.47.81.81,0,0,0,.55.18,1,1,0,0,0,.76-.33,1.12,1.12,0,0,0,.31-.82Z" fill="#00b0f0"/><path d="M123.6,9.47,121.8,14c-.32.81-.76,1.21-1.34,1.21a1.53,1.53,0,0,1-.41-.05V14.6a1,1,0,0,0,.37.07.78.78,0,0,0,.71-.56l.31-.74-1.52-3.9h.69l1,3a1.77,1.77,0,0,1,.08.29h0a2.73,2.73,0,0,1,.07-.29l1.11-3Z" fill="#00b0f0"/><path d="M126.93,13.2a2,2,0,0,1-1.07.27,1.79,1.79,0,0,1-1.35-.55,2,2,0,0,1-.51-1.4,2.19,2.19,0,0,1,.55-1.55A1.94,1.94,0,0,1,126,9.38a2.13,2.13,0,0,1,.9.19v.64a1.56,1.56,0,0,0-.92-.3,1.27,1.27,0,0,0-1,.43,1.63,1.63,0,0,0-.38,1.12,1.53,1.53,0,0,0,.36,1.08,1.22,1.22,0,0,0,1,.4,1.54,1.54,0,0,0,1-.34Z" fill="#00b0f0"/><path d="M130.32,10h-1.17v3.36h-.62V10h-1.18V9.47h3Z" fill="#00b0f0"/><path d="M131.71,12.81h0v2.36h-.63V9.47h.63v.69h0a1.48,1.48,0,0,1,1.35-.78,1.45,1.45,0,0,1,1.18.53,2.16,2.16,0,0,1,.42,1.4,2.43,2.43,0,0,1-.48,1.57,1.58,1.58,0,0,1-1.3.59A1.32,1.32,0,0,1,131.71,12.81Zm0-1.57v.54a1.13,1.13,0,0,0,.31.82,1.12,1.12,0,0,0,1.69-.09A2,2,0,0,0,134,11.3a1.55,1.55,0,0,0-.3-1,1,1,0,0,0-.82-.37,1.08,1.08,0,0,0-.87.38A1.39,1.39,0,0,0,131.7,11.24Z" fill="#00b0f0"/><path d="M137.29,13.47a1.81,1.81,0,0,1-1.38-.55,2,2,0,0,1-.52-1.45,2.09,2.09,0,0,1,.54-1.53,1.93,1.93,0,0,1,1.45-.56,1.75,1.75,0,0,1,1.36.54,2.11,2.11,0,0,1,.49,1.49,2.09,2.09,0,0,1-.53,1.49A1.82,1.82,0,0,1,137.29,13.47Zm0-3.56a1.19,1.19,0,0,0-1,.41,1.7,1.7,0,0,0-.35,1.13,1.62,1.62,0,0,0,.35,1.09,1.21,1.21,0,0,0,1,.4,1.12,1.12,0,0,0,.93-.39,1.7,1.7,0,0,0,.33-1.12,1.68,1.68,0,0,0-.33-1.12A1.1,1.1,0,0,0,137.33,9.91Z" fill="#00b0f0"/><path d="M143.49,13.37h-.56V10.26c-.05.11-.14.27-.25.46l-1.81,2.65h-.64V9.47h.57v3.08a2.42,2.42,0,0,1,.2-.38l1.85-2.7h.64Zm-.22-5.79a1.24,1.24,0,0,1-.44.85,1.46,1.46,0,0,1-.94.31,1.44,1.44,0,0,1-.94-.31,1.2,1.2,0,0,1-.4-.85h.62a.67.67,0,0,0,.73.71.74.74,0,0,0,.51-.18.9.9,0,0,0,.24-.53Z" fill="#00b0f0"/><path d="M147.42,13.2a2,2,0,0,1-1.07.27,1.79,1.79,0,0,1-1.35-.55,2,2,0,0,1-.51-1.4A2.19,2.19,0,0,1,145,10a1.94,1.94,0,0,1,1.48-.59,2.13,2.13,0,0,1,.9.19v.64a1.56,1.56,0,0,0-.92-.3,1.27,1.27,0,0,0-1,.43,1.63,1.63,0,0,0-.38,1.12,1.53,1.53,0,0,0,.36,1.08,1.22,1.22,0,0,0,1,.4,1.54,1.54,0,0,0,1-.34Z" fill="#00b0f0"/><path d="M150.81,10h-1.17v3.36H149V10h-1.18V9.47h3Z" fill="#00b0f0"/><path d="M151.56,13.37V9.47h1.7a1.47,1.47,0,0,1,.91.26.83.83,0,0,1,.33.7.86.86,0,0,1-.75.92c.6.07.9.38.9.9a1,1,0,0,1-.37.8,1.3,1.3,0,0,1-.91.32Zm.63-3.36v1.1h.93c.51,0,.76-.2.76-.59s-.23-.51-.68-.51Zm0,1.63v1.2h1.08c.5,0,.76-.2.76-.61s-.29-.59-.85-.59Z" fill="#00b0f0"/><path d="M158.49,13.37h-.63v-.6h0a1.43,1.43,0,0,1-2.12.39,1.08,1.08,0,0,1-.33-.82c0-.73.43-1.15,1.29-1.27l1.17-.17c0-.66-.27-1-.8-1a1.9,1.9,0,0,0-1.27.48V9.75a2.43,2.43,0,0,1,1.32-.37c.92,0,1.38.49,1.38,1.46Zm-.63-2-.94.13a1.46,1.46,0,0,0-.66.22.62.62,0,0,0-.22.54.59.59,0,0,0,.21.47.77.77,0,0,0,.54.18,1,1,0,0,0,.77-.33,1.15,1.15,0,0,0,.3-.82Z" fill="#00b0f0"/></g></svg>