<svg xmlns="http://www.w3.org/2000/svg" viewBox="0 0 203.4 64"><title>OJ104546516</title><path d="M69.7,9.3H63.6c-.3,0-.4.2-.4.5V12c0,.2.1.3.4.3H67v3.4c0,.3.2.4.5.4h2.2c.2,0,.3-.1.3-.4v-6C70,9.5,69.9,9.3,69.7,9.3Zm-17.2,21H49V26.9c0-.2-.1-.3-.4-.3H46.4c-.2,0-.4.1-.4.3V33c0,.2.2.3.4.3h6.1c.2,0,.3-.1.3-.4V30.7C52.8,30.5,52.7,30.3,52.5,30.3ZM66,26.6h-.4l-2.3-4a3.1,3.1,0,0,0,.9-2.1,2.9,2.9,0,0,0-2.8-2.8,2,2,0,0,0-1.1.3l-2.5-3.5a2,2,0,0,0,.5-1.5A2.3,2.3,0,1,0,56,15.4h.7l2.5,3.5a3,3,0,0,0-.7,1.5l-7.2.6a1.8,1.8,0,0,0-1.6-1,1.8,1.8,0,0,0-1.9,1.9,1.8,1.8,0,0,0,1.9,1.8,1.9,1.9,0,0,0,1.9-1.5l7-.6a7.5,7.5,0,0,0,.7,1.2l-1.8,2.9h-.2a1.8,1.8,0,0,0-1.9,1.9,1.9,1.9,0,1,0,3.7,0,2.2,2.2,0,0,0-.5-1.4l1.7-2.8h1.8l2.4,4a2.4,2.4,0,0,0-.7,1.6,2.2,2.2,0,1,0,4.4,0A2.3,2.3,0,0,0,66,26.6Z" transform="translate(-0.4 -1)" fill="#007efd"/><path d="M7.8,13.6a4.5,4.5,0,0,0-2.9,5.7,4.5,4.5,0,0,0,5.3,3.6c2.3-.5,3.6-3.1,2.9-5.6S10.2,12.9,7.8,13.6Z" transform="translate(-0.4 -1)" fill="#008bfd"/><path d="M12.8,23.6c-.5,0-.9.8-1.6,1.1s-1.3.9-3.1,0S6,23.1,4.4,23.1.4,25.8.4,30H16a15.1,15.1,0,0,0-1.1-4.3C13.8,23.6,13.2,23.6,12.8,23.6Z" transform="translate(-0.4 -1)" fill="#008bfd"/><path d="M14.2,18.7H10.1c-.3,0-.7.3-.7.6v2.9a.9.9,0,0,0,.8.7h.7V28a1,1,0,0,0,1,1.1.9.9,0,0,0,1-1h.2v-.6a.4.4,0,0,1,.3-.4v-.3c-.3-.1-.5-.3-.5-.4V26l.2-.2.3-.5a3.3,3.3,0,0,1-.3-.6c-.1-.1-.1-.3-.2-.4v-.2a2.1,2.1,0,0,1,.8-1.1h.5c.3,0,.6-.4.6-.7v-3A.6.6,0,0,0,14.2,18.7Zm-2.4,9.5c0,.2,0,.3-.2.3s-.2-.2-.2-.3V23.4c0-.2.1-.3.2-.3s.2.2.2.3Zm.3-7.8a.6.6,0,0,1-.6-.6c0-.3.3-.7.6-.7a.8.8,0,0,1,.7.7C12.8,20.1,12.6,20.4,12.1,20.4Z" transform="translate(-0.4 -1)" fill="#008bfd" stroke="gray" stroke-linecap="round" stroke-linejoin="round" stroke-width="0.75"/><path d="M11.6,28.5l-.3-.2v-5c0-.1.2-.2.3-.2a.2.2,0,0,1,.2.2v5.1C11.8,28.5,11.7,28.5,11.6,28.5Z" transform="translate(-0.4 -1)" fill="#fff"/><ellipse cx="11.8" cy="18.8" rx="0.7" ry="0.7" fill="#fff"/><path d="M186.8,8.2H166.3a1.1,1.1,0,0,0-1.1,1.1V26a1.1,1.1,0,0,0,1.1,1.2h5.2a3.4,3.4,0,0,0,3.3,2.2,3.4,3.4,0,0,0,0-6.7,3.4,3.4,0,0,0-3.3,2.2h-4.1V13h18.3V24.9h-3.5a7.6,7.6,0,0,0-7.4-6.5,9.2,9.2,0,0,0-3.7.9l1,2a4.8,4.8,0,0,1,2.6-.7,5.5,5.5,0,0,1,0,10.9,4.8,4.8,0,0,1-2.6-.7l-1,2a7.8,7.8,0,0,0,3.7.9,7.6,7.6,0,0,0,7.4-6.5h4.6a1.1,1.1,0,0,0,1.1-1.2V9.3A1.2,1.2,0,0,0,186.8,8.2Z" transform="translate(-0.4 -1)" fill="#008bfd"/><path d="M156.7,17l8,4-7.9,4a9,9,0,0,0-.1-8" transform="translate(-0.4 -1)" fill="#505050"/><path d="M157.7,21" transform="translate(-0.4 -1)" fill="#505050"/><path d="M35.8,41.8H35V35.9H31.6v5.9h-.8V35.1h5Z" transform="translate(-0.4 -1)"/><path d="M38,41.1h0V44h-.8V37H38v.9h0a1.7,1.7,0,0,1,1.6-1,1.8,1.8,0,0,1,1.5.7,3.2,3.2,0,0,1-.1,3.6,1.9,1.9,0,0,1-1.6.7A1.6,1.6,0,0,1,38,41.1Zm0-1.9v.7a1.4,1.4,0,0,0,.4,1,1.3,1.3,0,0,0,.9.4,1.3,1.3,0,0,0,1.1-.6,2,2,0,0,0,.4-1.4,1.7,1.7,0,0,0-.4-1.3,1.1,1.1,0,0,0-1-.4,1.2,1.2,0,0,0-1,.4A1.6,1.6,0,0,0,38,39.2Z" transform="translate(-0.4 -1)"/><path d="M46.5,41.8h-.6V38l-.4.6-2.2,3.2h-.7V37h.7v3.8l.2-.5L45.7,37h.8Z" transform="translate(-0.4 -1)"/><path d="M51.3,41.8h-.8V37.7H49.4a9.5,9.5,0,0,1-.6,3.2c-.3.6-.7,1-1.2,1h-.5v-.7h.4c.7,0,1.1-1.4,1.3-4.2h2.5Z" transform="translate(-0.4 -1)"/><path d="M54.6,41.9a2.1,2.1,0,0,1-1.7-.7,2.4,2.4,0,0,1-.6-1.7,2.9,2.9,0,0,1,.6-1.9,2.9,2.9,0,0,1,1.8-.7,2.1,2.1,0,0,1,1.7.7,2.4,2.4,0,0,1,.6,1.8,2.5,2.5,0,0,1-.7,1.8A2.1,2.1,0,0,1,54.6,41.9Zm0-4.3a1.3,1.3,0,0,0-1.1.5,1.8,1.8,0,0,0-.4,1.3,2,2,0,0,0,.4,1.4,1.6,1.6,0,0,0,1.1.5,1.7,1.7,0,0,0,1.2-.5,2.6,2.6,0,0,0,.4-1.4,2.2,2.2,0,0,0-.4-1.3A1.3,1.3,0,0,0,54.6,37.6Z" transform="translate(-0.4 -1)"/><path d="M64.2,41.8h-1l-2.1-2.4h0v2.4h-.8V39.4h0l-2.1,2.4h-1l2.3-2.5L57.3,37h1l2,2.3h0V37h.8v2.3h0l2-2.3h1l-2.2,2.3Z" transform="translate(-0.4 -1)"/><path d="M68.6,39.6H65.3a1.6,1.6,0,0,0,.4,1.2,1.3,1.3,0,0,0,1.1.5,2.4,2.4,0,0,0,1.5-.6v.7a2.3,2.3,0,0,1-1.7.5,2.1,2.1,0,0,1-1.6-.6,3.6,3.6,0,0,1-.5-1.9,2.8,2.8,0,0,1,.6-1.8,2.2,2.2,0,0,1,1.6-.7,1.7,1.7,0,0,1,1.4.6,2.9,2.9,0,0,1,.5,1.7Zm-.8-.6a1.8,1.8,0,0,0-.3-1.1,1.3,1.3,0,0,0-1.8.1,1.3,1.3,0,0,0-.4,1Z" transform="translate(-0.4 -1)"/><path d="M73.5,41.8h-.8V39.6H70.3v2.2h-.8V37h.8v2h2.4V37h.8Z" transform="translate(-0.4 -1)"/><path d="M78.7,41.8h-.6V38l-.4.6-2.1,3.2h-.8V37h.7v3.8l.2-.5L78,37h.7Z" transform="translate(-0.4 -1)"/><path d="M83.9,39.6H80.5a2.1,2.1,0,0,0,.4,1.2,1.7,1.7,0,0,0,1.2.5,2,2,0,0,0,1.4-.6v.7a2.1,2.1,0,0,1-1.6.5,2.1,2.1,0,0,1-1.6-.6,2.9,2.9,0,0,1-.6-1.9,2.8,2.8,0,0,1,.6-1.8,2.6,2.6,0,0,1,1.6-.7,2,2,0,0,1,1.5.6,2.9,2.9,0,0,1,.5,1.7Zm-.8-.6a1.8,1.8,0,0,0-.3-1.1,1.2,1.2,0,0,0-.9-.3,1,1,0,0,0-.9.4c-.3.2-.4.5-.5,1Z" transform="translate(-0.4 -1)"/><path d="M85.5,40.7,84.7,43h-.5l.5-2.3Z" transform="translate(-0.4 -1)"/><path d="M24.6,51.6h0v2.9h-.8v-7h.8v.9h0a1.6,1.6,0,0,1,1.6-1,1.5,1.5,0,0,1,1.4.7,2.4,2.4,0,0,1,.6,1.7,2.9,2.9,0,0,1-.6,1.9,1.9,1.9,0,0,1-1.6.7A1.6,1.6,0,0,1,24.6,51.6Zm0-1.9v.7a1.9,1.9,0,0,0,.3,1,1.8,1.8,0,0,0,1,.4,1.3,1.3,0,0,0,1.1-.6,2,2,0,0,0,.4-1.4,1.7,1.7,0,0,0-.4-1.3,1.4,1.4,0,0,0-2,0A1.6,1.6,0,0,0,24.6,49.7Z" transform="translate(-0.4 -1)"/><path d="M32.5,52.3h-.7v-.7h0a1.9,1.9,0,0,1-1.5.8,1.4,1.4,0,0,1-1.1-.4,1.2,1.2,0,0,1-.4-1c0-.9.5-1.4,1.6-1.5l1.4-.2c0-.8-.3-1.2-1-1.2a2,2,0,0,0-1.5.6v-.8a2.8,2.8,0,0,1,1.6-.5c1.1,0,1.6.6,1.6,1.8Zm-.7-2.4H30.6l-.8.3a1.2,1.2,0,0,0-.2.7c0,.2,0,.4.2.5a.9.9,0,0,0,.7.3,1.3,1.3,0,0,0,.9-.4,1.3,1.3,0,0,0,.4-1Z" transform="translate(-0.4 -1)"/><path d="M37.4,45.2v.7a.8.8,0,0,1-.6.2l-1.5.3a1.1,1.1,0,0,0-.6.7,3.4,3.4,0,0,0-.4,1.4h0a1.8,1.8,0,0,1,1.6-.9,2,2,0,0,1,1.5.7,2.7,2.7,0,0,1,0,3.4,1.9,1.9,0,0,1-1.6.7,2.1,2.1,0,0,1-1.7-.8,3.4,3.4,0,0,1-.6-2.2,10.1,10.1,0,0,1,.2-1.9,6.7,6.7,0,0,1,.6-1.2l.9-.5,1.5-.4Zm-3.1,4v.7a1.7,1.7,0,0,0,.1.7l.3.6.5.4.6.2a1.2,1.2,0,0,0,1-.5,1.6,1.6,0,0,0,.4-1.2,1.7,1.7,0,0,0-.4-1.3,1.3,1.3,0,0,0-1.1-.5A1.5,1.5,0,0,0,34.3,49.2Z" transform="translate(-0.4 -1)"/><path d="M41,52.4a2.1,2.1,0,0,1-1.7-.7,2.4,2.4,0,0,1-.6-1.7,2.3,2.3,0,0,1,2.4-2.6,2.1,2.1,0,0,1,1.7.7,2.4,2.4,0,0,1,.6,1.8,2.5,2.5,0,0,1-.7,1.8A2.1,2.1,0,0,1,41,52.4Zm0-4.3a1.3,1.3,0,0,0-1.1.5,1.8,1.8,0,0,0-.4,1.3,2,2,0,0,0,.4,1.4,1.6,1.6,0,0,0,1.1.5,1.7,1.7,0,0,0,1.2-.5,2.6,2.6,0,0,0,.4-1.4,2.2,2.2,0,0,0-.4-1.3A1.3,1.3,0,0,0,41,48.1Z" transform="translate(-0.4 -1)"/><path d="M47.3,48.2H45.9v4.1h-.8V48.2H43.7v-.7h3.6Z" transform="translate(-0.4 -1)"/><path d="M51.4,52.3h-.8v-.7h0a1.6,1.6,0,0,1-1.5.8A1.5,1.5,0,0,1,48,52a1.5,1.5,0,0,1-.4-1c0-.9.6-1.4,1.6-1.5l1.4-.2c0-.8-.3-1.2-1-1.2a2.4,2.4,0,0,0-1.5.6v-.8a3,3,0,0,1,1.6-.5c1.1,0,1.7.6,1.7,1.8Zm-.8-2.4H49.5l-.8.3a.8.8,0,0,0-.3.7.5.5,0,0,0,.3.5.6.6,0,0,0,.6.3,1.8,1.8,0,0,0,1-.4,1.7,1.7,0,0,0,.3-1Z" transform="translate(-0.4 -1)"/><path d="M54.7,50.1H53.3v2.2h-.7V47.5h.7v2h1.4a2.1,2.1,0,0,1,.7-1.5,2,2,0,0,1,1.5-.6,1.9,1.9,0,0,1,1.6.7,3,3,0,0,1,0,3.6,2.1,2.1,0,0,1-1.7.7,2,2,0,0,1-1.5-.6A2.2,2.2,0,0,1,54.7,50.1Zm2.2-2c-1,0-1.4.6-1.4,1.8s.4,1.9,1.4,1.9,1.4-.6,1.4-1.9S57.8,48.1,56.9,48.1Z" transform="translate(-0.4 -1)"/><path d="M66.8,54h-.6V52.3H60.1V47.5h.7v4.1h1.9V47.5h.8v4.1h1.9V47.5h.7v4.1h.7Z" transform="translate(-0.4 -1)"/><path d="M71.5,50.1H68.1a1.7,1.7,0,0,0,.5,1.2,1.3,1.3,0,0,0,1.1.5,2.4,2.4,0,0,0,1.5-.6v.7a2.5,2.5,0,0,1-1.7.5,2.1,2.1,0,0,1-1.6-.6,2.9,2.9,0,0,1-.6-1.9,2.4,2.4,0,0,1,.7-1.8,2.1,2.1,0,0,1,1.5-.7A2,2,0,0,1,71,48a2.9,2.9,0,0,1,.5,1.7Zm-.8-.6a1.8,1.8,0,0,0-.3-1.1,1.3,1.3,0,0,0-1.8.1c-.3.2-.4.5-.5,1Z" transform="translate(-0.4 -1)"/><path d="M76.2,50.1H72.9a1.6,1.6,0,0,0,.4,1.2,1.4,1.4,0,0,0,1.1.5,2.4,2.4,0,0,0,1.5-.6v.7a2.3,2.3,0,0,1-1.7.5,2.3,2.3,0,0,1-1.6-.6,3.6,3.6,0,0,1-.5-1.9,2.8,2.8,0,0,1,.6-1.8,2.2,2.2,0,0,1,1.6-.7,1.7,1.7,0,0,1,1.4.6,2.9,2.9,0,0,1,.5,1.7Zm-.8-.6a1.8,1.8,0,0,0-.3-1.1,1.3,1.3,0,0,0-1.8.1,1.3,1.3,0,0,0-.4,1Z" transform="translate(-0.4 -1)"/><path d="M83.2,45.2v.7l-.6.2-1.5.3a1.2,1.2,0,0,0-.7.7,2.4,2.4,0,0,0-.3,1.4h0a1.8,1.8,0,0,1,1.6-.9,2.1,2.1,0,0,1,1.5.7,2.7,2.7,0,0,1,0,3.4,2.1,2.1,0,0,1-1.7.7,1.9,1.9,0,0,1-1.6-.8,3.4,3.4,0,0,1-.6-2.2,5.5,5.5,0,0,1,.2-1.9,2.3,2.3,0,0,1,.6-1.2l.8-.5,1.6-.4Zm-3.1,4v.7a1.7,1.7,0,0,0,.1.7.9.9,0,0,0,.3.6c.1.2.3.3.4.4l.7.2a1.4,1.4,0,0,0,1-.5,1.6,1.6,0,0,0,.4-1.2,1.7,1.7,0,0,0-.4-1.3,1.4,1.4,0,0,0-1.1-.5A1.5,1.5,0,0,0,80.1,49.2Z" transform="translate(-0.4 -1)"/><path d="M88.6,50.1H85.2a2.1,2.1,0,0,0,.4,1.2,1.7,1.7,0,0,0,1.2.5,2,2,0,0,0,1.4-.6v.7a2.1,2.1,0,0,1-1.6.5,2.1,2.1,0,0,1-1.6-.6,2.9,2.9,0,0,1-.6-1.9,2.4,2.4,0,0,1,.7-1.8,2.1,2.1,0,0,1,1.5-.7,2,2,0,0,1,1.5.6,2.9,2.9,0,0,1,.5,1.7Zm-.8-.6a1.8,1.8,0,0,0-.3-1.1,1.2,1.2,0,0,0-.9-.3,1,1,0,0,0-.9.4c-.3.2-.4.5-.5,1Z" transform="translate(-0.4 -1)"/><path d="M89.1,52.2v-.8a3.3,3.3,0,0,0,1.4.4c.9,0,1.3-.3,1.3-.8s-.5-.8-1.4-.8h-.5v-.7h.5c.8,0,1.2-.2,1.2-.7a.5.5,0,0,0-.3-.5.8.8,0,0,0-.7-.2,3.2,3.2,0,0,0-1.4.3v-.7l1.4-.3c1.2,0,1.8.5,1.8,1.3a.9.9,0,0,1-.3.7l-.7.4h0a2,2,0,0,1,.8.4,1.1,1.1,0,0,1,.3.8,1,1,0,0,1-.5,1,2,2,0,0,1-1.4.4Z" transform="translate(-0.4 -1)"/><path d="M43.2,55.7v.7a.8.8,0,0,1-.6.2l-1.5.3a1.2,1.2,0,0,0-.7.7,3.7,3.7,0,0,0-.3,1.4h0a1.8,1.8,0,0,1,1.6-.9,2.1,2.1,0,0,1,1.5.7,2.7,2.7,0,0,1,0,3.4,1.9,1.9,0,0,1-1.6.7,2,2,0,0,1-1.7-.8,3.4,3.4,0,0,1-.6-2.2,10.1,10.1,0,0,1,.2-1.9,6.7,6.7,0,0,1,.6-1.2l.8-.5,1.6-.4Zm-3.1,4v.7a1.7,1.7,0,0,0,.1.7l.3.6a1,1,0,0,0,.5.4l.6.2a1.2,1.2,0,0,0,1-.5,1.6,1.6,0,0,0,.4-1.2,1.7,1.7,0,0,0-.4-1.3,1.4,1.4,0,0,0-1.1-.5A1.5,1.5,0,0,0,40.1,59.7Z" transform="translate(-0.4 -1)"/><path d="M45.6,62.1h-.1V65h-.7V58h.7v.9h.1a1.6,1.6,0,0,1,1.6-1,1.5,1.5,0,0,1,1.4.7,2.4,2.4,0,0,1,.6,1.7,2.9,2.9,0,0,1-.6,1.9,1.9,1.9,0,0,1-1.6.7A1.6,1.6,0,0,1,45.6,62.1Zm-.1-1.9v.7a2.1,2.1,0,0,0,.4,1,1.8,1.8,0,0,0,1,.4,1.3,1.3,0,0,0,1.1-.6,2.6,2.6,0,0,0,.4-1.4A1.7,1.7,0,0,0,48,59a1.2,1.2,0,0,0-1-.4,1.5,1.5,0,0,0-1.1.4A2.1,2.1,0,0,0,45.5,60.2Z" transform="translate(-0.4 -1)"/><path d="M53.5,62.8h-.7v-.7h-.1a1.6,1.6,0,0,1-1.4.8,1.2,1.2,0,0,1-1.1-.4,1.2,1.2,0,0,1-.4-1q0-1.3,1.5-1.5l1.5-.2c0-.8-.4-1.2-1-1.2a2.5,2.5,0,0,0-1.6.6v-.8a3.1,3.1,0,0,1,1.7-.5c1.1,0,1.6.6,1.6,1.8Zm-.7-2.4H51.6l-.8.3c-.2.1-.2.4-.2.7s0,.4.2.5a.9.9,0,0,0,.7.3,1.5,1.5,0,0,0,.9-.4,1.8,1.8,0,0,0,.4-1Z" transform="translate(-0.4 -1)"/><path d="M58.5,58l-2.2,5.6c-.4.9-.9,1.4-1.6,1.4h-.5v-.7h.4a1.1,1.1,0,0,0,.9-.7l.4-.9L54,58h.9l1.2,3.7c.1,0,.1.2.1.4h.1a.8.8,0,0,1,.1-.4L57.7,58Z" transform="translate(-0.4 -1)"/><path d="M58.7,62.7v-.8a3.3,3.3,0,0,0,1.4.4c.9,0,1.3-.3,1.3-.8s-.5-.8-1.4-.8h-.5V60H60c.8,0,1.2-.2,1.2-.7a.5.5,0,0,0-.3-.5.8.8,0,0,0-.7-.2,3.2,3.2,0,0,0-1.4.3v-.7l1.4-.3c1.2,0,1.8.5,1.8,1.3a.9.9,0,0,1-.3.7l-.7.4h0a2,2,0,0,1,.8.4,1.1,1.1,0,0,1,.3.8,1,1,0,0,1-.5,1,2,2,0,0,1-1.4.4Z" transform="translate(-0.4 -1)"/><path d="M66.9,60.6H63.5a2.2,2.2,0,0,0,.5,1.2,1.3,1.3,0,0,0,1.1.5,2.4,2.4,0,0,0,1.5-.6v.7a2.3,2.3,0,0,1-1.7.5,2.1,2.1,0,0,1-1.6-.6,2.9,2.9,0,0,1-.5-1.9,2.8,2.8,0,0,1,.6-1.8,2.1,2.1,0,0,1,1.5-.7,1.9,1.9,0,0,1,1.5.6,2.9,2.9,0,0,1,.5,1.7Zm-.8-.6a1.8,1.8,0,0,0-.3-1.1A1.3,1.3,0,0,0,64,59a1.3,1.3,0,0,0-.4,1Z" transform="translate(-0.4 -1)"/><path d="M68.6,62.1h0V65h-.8V58h.8v.9h0a1.7,1.7,0,0,1,1.6-1,1.8,1.8,0,0,1,1.5.7,3.2,3.2,0,0,1-.1,3.6,1.9,1.9,0,0,1-1.6.7A1.6,1.6,0,0,1,68.6,62.1Zm0-1.9v.7a1.4,1.4,0,0,0,.4,1,1.3,1.3,0,0,0,.9.4,1.3,1.3,0,0,0,1.1-.6,2,2,0,0,0,.4-1.4A1.7,1.7,0,0,0,71,59a1.1,1.1,0,0,0-1-.4,1.2,1.2,0,0,0-1,.4A1.6,1.6,0,0,0,68.6,60.2Z" transform="translate(-0.4 -1)"/><path d="M76.6,62.8h-.8v-.7h0a1.8,1.8,0,0,1-1.5.8,1.4,1.4,0,0,1-1.1-.4,1.2,1.2,0,0,1-.4-1c0-.9.5-1.4,1.6-1.5l1.4-.2c0-.8-.3-1.2-1-1.2a2,2,0,0,0-1.5.6v-.8a2.8,2.8,0,0,1,1.6-.5c1.1,0,1.7.6,1.7,1.8Zm-.8-2.4H74.7l-.8.3a.8.8,0,0,0-.3.7.8.8,0,0,0,.2.5.9.9,0,0,0,.7.3,1.3,1.3,0,0,0,.9-.4,1.3,1.3,0,0,0,.4-1Z" transform="translate(-0.4 -1)"/><path d="M153.6,41.8h-.8V35.9h-3.5v5.9h-.8V35.1h5.1Z" transform="translate(-0.4 -1)"/><path d="M156,41.1h-.1V44h-.7V37h.7v.9h.1a1.6,1.6,0,0,1,1.6-1,1.5,1.5,0,0,1,1.4.7,2.3,2.3,0,0,1,.5,1.7,2.9,2.9,0,0,1-.5,1.9,1.9,1.9,0,0,1-1.6.7A1.6,1.6,0,0,1,156,41.1Zm-.1-1.9v.7a2.1,2.1,0,0,0,.4,1,1.8,1.8,0,0,0,1,.4,1.3,1.3,0,0,0,1.1-.6,2.6,2.6,0,0,0,.4-1.4,2.2,2.2,0,0,0-.4-1.3,1.2,1.2,0,0,0-1-.4,1.5,1.5,0,0,0-1.1.4A2.1,2.1,0,0,0,155.9,39.2Z" transform="translate(-0.4 -1)"/><path d="M164.7,41.8h-.6V38l-.4.6-2.2,3.2h-.7V37h.7v3.8l.2-.5L164,37h.7Z" transform="translate(-0.4 -1)"/><path d="M169.7,41.8H169V37.7h-1.1a9,9,0,0,1-.7,3.2c-.3.6-.7,1-1.2,1h-.4v-.7h.3c.7,0,1.2-1.4,1.4-4.2h2.4Z" transform="translate(-0.4 -1)"/><path d="M173.3,41.9a2.1,2.1,0,0,1-1.7-.7,2.4,2.4,0,0,1-.6-1.7,2.9,2.9,0,0,1,.6-1.9,2.7,2.7,0,0,1,1.8-.7,1.9,1.9,0,0,1,1.6.7,3,3,0,0,1,0,3.6A2.1,2.1,0,0,1,173.3,41.9Zm0-4.3a1.2,1.2,0,0,0-1.1.5,1.9,1.9,0,0,0-.5,1.3,2,2,0,0,0,.5,1.4,1.4,1.4,0,0,0,1.1.5,1.7,1.7,0,0,0,1.2-.5,2.6,2.6,0,0,0,.4-1.4,2.2,2.2,0,0,0-.4-1.3A1.3,1.3,0,0,0,173.3,37.6Z" transform="translate(-0.4 -1)"/><path d="M183.2,41.8h-1.1L180,39.4h0v2.4h-.7V39.4h-.1l-2.1,2.4h-1l2.4-2.5L176.2,37h1l2,2.3h.1V37h.7v2.3h0l2-2.3h1l-2.2,2.3Z" transform="translate(-0.4 -1)"/><path d="M187.8,39.6h-3.4a2.1,2.1,0,0,0,.4,1.2,1.7,1.7,0,0,0,1.2.5,2,2,0,0,0,1.4-.6v.7a2.1,2.1,0,0,1-1.6.5,2.1,2.1,0,0,1-1.6-.6,2.9,2.9,0,0,1-.6-1.9,2.8,2.8,0,0,1,.6-1.8,2.6,2.6,0,0,1,1.6-.7,1.7,1.7,0,0,1,1.4.6,2.4,2.4,0,0,1,.6,1.7ZM187,39a1.8,1.8,0,0,0-.3-1.1,1.2,1.2,0,0,0-.9-.3,1,1,0,0,0-.9.4c-.3.2-.4.5-.5,1Z" transform="translate(-0.4 -1)"/><path d="M192.9,41.8h-.8V39.6h-2.4v2.2h-.8V37h.8v2h2.4V37h.8Z" transform="translate(-0.4 -1)"/><path d="M198.4,41.8h-.7V38a1.6,1.6,0,0,0-.3.6l-2.2,3.2h-.8V37h.7v3.8l.2-.5,2.3-3.3h.8Z" transform="translate(-0.4 -1)"/><path d="M203.7,39.6h-3.3a1.6,1.6,0,0,0,.4,1.2,1.4,1.4,0,0,0,1.1.5,2,2,0,0,0,1.5-.6v.7a2.3,2.3,0,0,1-1.7.5,1.9,1.9,0,0,1-1.5-.6,2.9,2.9,0,0,1-.6-1.9,2.8,2.8,0,0,1,.6-1.8,2.4,2.4,0,0,1,1.6-.7,1.7,1.7,0,0,1,1.4.6,2.3,2.3,0,0,1,.5,1.7Zm-.8-.6a1.8,1.8,0,0,0-.3-1.1,1.1,1.1,0,0,0-.8-.3,1.3,1.3,0,0,0-1,.4,1.3,1.3,0,0,0-.4,1Z" transform="translate(-0.4 -1)"/><path d="M174.9,53.2H174l-.7-1.9h-2.8l-.6,1.9H169l2.5-6.7h.8Zm-1.8-2.6L172,47.8a1.3,1.3,0,0,0-.1-.5h0a.7.7,0,0,1-.1.5l-1,2.8Z" transform="translate(-0.4 -1)"/><path d="M176.7,50.7v2.5h-.8V46.5h1.8a2.4,2.4,0,0,1,1.7.6,1.7,1.7,0,0,1,.6,1.4,2.2,2.2,0,0,1-.7,1.6,2.4,2.4,0,0,1-1.8.6Zm0-3.5V50h.8a2.1,2.1,0,0,0,1.2-.4,1.2,1.2,0,0,0,.4-1c0-.9-.5-1.4-1.5-1.4Z" transform="translate(-0.4 -1)"/><path d="M182,53.2h-.8V46.5h.8Z" transform="translate(-0.4 -1)"/><path d="M97.1,8h-.8V1.8H92.6V8h-.8V1h5.3Z" transform="translate(-0.4 -1)" fill="#00b0f0"/><path d="M100.7,8.1a2.1,2.1,0,0,1-1.8-.7,2.9,2.9,0,0,1-.7-1.8,3,3,0,0,1,.7-2,2.5,2.5,0,0,1,1.9-.7,2.1,2.1,0,0,1,1.7.7,2.4,2.4,0,0,1,.7,1.9,2.9,2.9,0,0,1-.7,1.9A2.4,2.4,0,0,1,100.7,8.1Zm0-4.5a1.3,1.3,0,0,0-1.2.5,2,2,0,0,0-.4,1.4,2,2,0,0,0,.4,1.4,1.7,1.7,0,0,0,2.4,0,2,2,0,0,0,.4-1.4,2,2,0,0,0-.4-1.4A1.3,1.3,0,0,0,100.7,3.6Z" transform="translate(-0.4 -1)" fill="#00b0f0"/><path d="M107.3,3.7h-1.5V8H105V3.7h-1.5V3h3.8Z" transform="translate(-0.4 -1)" fill="#00b0f0"/><path d="M110.1,8.1a2.1,2.1,0,0,1-1.7-.7,2.4,2.4,0,0,1-.7-1.8,2.6,2.6,0,0,1,.7-2,2.4,2.4,0,0,1,1.9-.7,2.1,2.1,0,0,1,1.7.7,2.7,2.7,0,0,1,.6,1.9,2.5,2.5,0,0,1-.7,1.9A2.1,2.1,0,0,1,110.1,8.1Zm.1-4.5a1.3,1.3,0,0,0-1.2.5,2,2,0,0,0-.5,1.4,2,2,0,0,0,.5,1.4,1.7,1.7,0,0,0,2.4,0,2,2,0,0,0,.4-1.4,2,2,0,0,0-.4-1.4A1.3,1.3,0,0,0,110.2,3.6Z" transform="translate(-0.4 -1)" fill="#00b0f0"/><path d="M117.8,8h-1.1l-2.2-2.4h0V8h-.8V3h.8V5.3h0L116.6,3h1l-2.3,2.4Z" transform="translate(-0.4 -1)" fill="#00b0f0"/><path d="M125,8h-1.1l-2.2-2.4h0V8h-.8V3h.8V5.3h0L123.8,3h1l-2.3,2.4Z" transform="translate(-0.4 -1)" fill="#00b0f0"/><path d="M127.7,8.1a2.1,2.1,0,0,1-1.8-.7,2.9,2.9,0,0,1-.7-1.8,3,3,0,0,1,.7-2,2.5,2.5,0,0,1,1.9-.7,2.1,2.1,0,0,1,1.7.7,2.4,2.4,0,0,1,.7,1.9,2.9,2.9,0,0,1-.7,1.9A2.4,2.4,0,0,1,127.7,8.1Zm0-4.5a1.3,1.3,0,0,0-1.2.5,2,2,0,0,0-.4,1.4,2,2,0,0,0,.4,1.4,1.3,1.3,0,0,0,1.2.5,1.2,1.2,0,0,0,1.2-.5,2,2,0,0,0,.4-1.4,2,2,0,0,0-.4-1.4A1.2,1.2,0,0,0,127.7,3.6Z" transform="translate(-0.4 -1)" fill="#00b0f0"/><path d="M135.6,9.8h-.7V8h-3.7V9.8h-.7V7.3h.4A7.1,7.1,0,0,0,132.2,3h2.6V7.3h.8ZM134,7.3V3.7h-1.1a8.9,8.9,0,0,1-1.1,3.6Z" transform="translate(-0.4 -1)" fill="#00b0f0"/><path d="M140,8h-.8V7.2h0a1.8,1.8,0,0,1-1.6.9,1.2,1.2,0,0,1-1.1-.4,1.2,1.2,0,0,1-.5-1c0-1,.6-1.5,1.7-1.7l1.5-.2c0-.8-.4-1.2-1-1.2a2.7,2.7,0,0,0-1.7.6V3.3a3.3,3.3,0,0,1,1.7-.4A1.6,1.6,0,0,1,140,4.7Zm-.8-2.5H138l-.9.3a1.2,1.2,0,0,0-.2.7c0,.3,0,.5.2.6a.8.8,0,0,0,.7.2A1.4,1.4,0,0,0,139.2,6Z" transform="translate(-0.4 -1)" fill="#00b0f0"/><path d="M96.6,12l-2.3,5.8c-.4,1-1,1.5-1.7,1.5H92v-.7h.5c.4,0,.7-.3.9-.8l.4-.9-1.9-5h.9l1.3,3.8c0,.1.1.2.1.4h.1v-.3L95.8,12Z" transform="translate(-0.4 -1)" fill="#00b0f0"/><path d="M100.6,16.8a2.9,2.9,0,0,1-1.4.3,2.2,2.2,0,0,1-1.7-.7,2.4,2.4,0,0,1-.6-1.8,2.7,2.7,0,0,1,.7-2,2.4,2.4,0,0,1,1.9-.7l1.1.2v.8a2.1,2.1,0,0,0-1.2-.3,1.3,1.3,0,0,0-1.2.5,2.2,2.2,0,0,0-.5,1.4,2,2,0,0,0,.4,1.4,1.7,1.7,0,0,0,1.3.5,1.9,1.9,0,0,0,1.2-.4Z" transform="translate(-0.4 -1)" fill="#00b0f0"/><path d="M104.7,12.7h-1.5V17h-.8V12.7h-1.5V12h3.8Z" transform="translate(-0.4 -1)" fill="#00b0f0"/><path d="M106.2,16.3h0v3h-.8V12h.8v.9h0a1.9,1.9,0,0,1,1.8-1,1.8,1.8,0,0,1,1.5.7,2.9,2.9,0,0,1,.5,1.7,3.3,3.3,0,0,1-.6,2.1,1.9,1.9,0,0,1-1.7.7A1.9,1.9,0,0,1,106.2,16.3Zm0-2V15a1.8,1.8,0,0,0,.4,1,1.4,1.4,0,0,0,1.1.4,1.3,1.3,0,0,0,1.1-.5,2.5,2.5,0,0,0,.4-1.6,1.8,1.8,0,0,0-.4-1.3,1.2,1.2,0,0,0-1-.4,1.2,1.2,0,0,0-1.1.4A2.1,2.1,0,0,0,106.2,14.3Z" transform="translate(-0.4 -1)" fill="#00b0f0"/><path d="M113.1,17.1a2.1,2.1,0,0,1-1.7-.7,2.4,2.4,0,0,1-.7-1.8,2.6,2.6,0,0,1,.7-2,2.5,2.5,0,0,1,1.9-.7,2.1,2.1,0,0,1,1.7.7,2.7,2.7,0,0,1,.6,1.9,2.9,2.9,0,0,1-.6,1.9A2.5,2.5,0,0,1,113.1,17.1Zm.1-4.5a1.3,1.3,0,0,0-1.2.5,2,2,0,0,0-.5,1.4,2,2,0,0,0,.5,1.4,1.7,1.7,0,0,0,2.4,0,2,2,0,0,0,.4-1.4,2,2,0,0,0-.4-1.4A1.3,1.3,0,0,0,113.2,12.6Z" transform="translate(-0.4 -1)" fill="#00b0f0"/><path d="M120.9,17h-.8V13a1.5,1.5,0,0,1-.3.6L117.5,17h-.8V12h.7v3.9l.3-.4L120,12h.9Zm-.3-7.4a2.4,2.4,0,0,1-.6,1.1,2.6,2.6,0,0,1-2.4,0,1.6,1.6,0,0,1-.5-1.1h.8a.8.8,0,0,0,.9.9.9.9,0,0,0,.7-.3,1.6,1.6,0,0,0,.3-.6Z" transform="translate(-0.4 -1)" fill="#00b0f0"/><path d="M125.6,16.8a2.5,2.5,0,0,1-1.3.3,2.4,2.4,0,0,1-1.8-.7,2.4,2.4,0,0,1-.6-1.8,2.7,2.7,0,0,1,.7-2,2.5,2.5,0,0,1,1.9-.7l1.1.2v.8a2,2,0,0,0-1.1-.3,1.4,1.4,0,0,0-1.3.5,2.2,2.2,0,0,0-.5,1.4,2,2,0,0,0,.5,1.4,1.3,1.3,0,0,0,1.2.5,1.7,1.7,0,0,0,1.2-.4Z" transform="translate(-0.4 -1)" fill="#00b0f0"/><path d="M129.7,12.7h-1.5V17h-.8V12.7h-1.5V12h3.8Z" transform="translate(-0.4 -1)" fill="#00b0f0"/><path d="M130.4,17V12h2.2a2.1,2.1,0,0,1,1.2.3,1,1,0,0,1,.4.9,1,1,0,0,1-.9,1.2,1.1,1.1,0,0,1,1.1,1.2,1.1,1.1,0,0,1-.5,1,1.5,1.5,0,0,1-1.1.4Zm.8-4.3v1.4h1.3c.6,0,.9-.3.9-.8s-.3-.6-.9-.6Zm0,2.1v1.5h1.4c.7,0,1-.2,1-.8s-.4-.7-1.1-.7Z" transform="translate(-0.4 -1)" fill="#00b0f0"/><path d="M139.1,17h-.8v-.8h0a1.8,1.8,0,0,1-1.6.9,1.6,1.6,0,0,1-1.2-.4,1.5,1.5,0,0,1-.4-1c0-1,.6-1.5,1.7-1.7l1.5-.2c0-.8-.4-1.2-1.1-1.2a2.5,2.5,0,0,0-1.6.6v-.9a3.3,3.3,0,0,1,1.7-.4,1.6,1.6,0,0,1,1.8,1.8Zm-.8-2.5h-1.2l-.9.3a.8.8,0,0,0-.3.7.6.6,0,0,0,.3.6.8.8,0,0,0,.7.2,1.3,1.3,0,0,0,1-.4,1.8,1.8,0,0,0,.4-1Z" transform="translate(-0.4 -1)" fill="#00b0f0"/><path d="M158.8,20.4h-7.9l-50.1.2H74.4l-1.2.2c-.2,0-.5.3-.4.5a.8.8,0,0,0,.4.6h.7l39.7-.2h45.2Z" transform="translate(-0.4 -1)" fill="#505050"/></svg>