<svg xmlns="http://www.w3.org/2000/svg" viewBox="0 0 88.81 48.79"><title>OJ104440674</title><path d="M7.85,6.78a4.49,4.49,0,0,0-3,5.66c.66,2.55,3,4.22,5.27,3.66a4.49,4.49,0,0,0,3-5.66C12.57,7.78,10.16,6.11,7.85,6.78Z" fill="#008bfd"/><path d="M12.78,16.79c-.43,0-.88.78-1.54,1.11s-1.31.89-3.17,0S6,16.24,4.43,16.24s-4,2.77-4,6.88H16a12.19,12.19,0,0,0-1.11-4.22C13.77,16.79,13.23,16.79,12.78,16.79Z" fill="#008bfd"/><path d="M14.19,11.85H10.07a.71.71,0,0,0-.65.66v2.85a.72.72,0,0,0,.76.65h.76v5.15a1,1,0,0,0,1,1.1,1,1,0,0,0,1-1h.21v-.65c0-.22.33-.33.33-.33V20c-.33-.11-.54-.33-.54-.44v-.33L13.1,19a3.55,3.55,0,0,0,.33-.54,2.4,2.4,0,0,1-.33-.55c-.1-.11-.1-.33-.21-.44v-.22a2.51,2.51,0,0,1,.76-1.1h.54a.7.7,0,0,0,.65-.65v-3A.63.63,0,0,0,14.19,11.85ZM11.8,21.38c0,.22,0,.33-.21.33s-.22-.22-.22-.33V16.56c0-.22.11-.33.22-.33s.21.22.21.33Zm.33-7.78a.69.69,0,0,1-.65-.65.7.7,0,0,1,.65-.66.71.71,0,0,1,.65.66A.62.62,0,0,1,12.13,13.6Z" fill="#008bfd" stroke="gray" stroke-linecap="round" stroke-linejoin="round" stroke-width="0.75"/><path d="M11.57,21.69a.24.24,0,0,1-.22-.22v-5a.22.22,0,1,1,.44,0v5.11C11.79,21.69,11.68,21.69,11.57,21.69Z" fill="#fff"/><ellipse cx="12.14" cy="12.93" rx="0.66" ry="0.67" fill="#fff"/><path d="M70,24.41A11.81,11.81,0,0,1,53.2,22.12,12.55,12.55,0,0,1,55.44,4.83a11.72,11.72,0,0,1,7.29-2.54,11.89,11.89,0,0,1,9.55,4.84A12.54,12.54,0,0,1,70,24.41ZM73.7,6A13.57,13.57,0,0,0,54.34,3.36a14.45,14.45,0,0,0-2.55,19.88,13.65,13.65,0,0,0,11,5.55,13.45,13.45,0,0,0,8.39-2.92A14.44,14.44,0,0,0,73.7,6Z" fill="#008bfd"/><path d="M56.06,17.18a17,17,0,0,1-2-2.35,18.32,18.32,0,0,0-1.66,6.89c.11.16.11.28.23.44a13.4,13.4,0,0,0,2,2.05A14.18,14.18,0,0,1,56.06,17.18Z" fill="#008bfd"/><path d="M60.68,7.74a21,21,0,0,0-3.33,3,16.41,16.41,0,0,0-1.61,2,15,15,0,0,0,1.9,2.47,16.84,16.84,0,0,1,2.2-2.57A27.32,27.32,0,0,1,63,10.07C62.17,9.31,61.39,8.54,60.68,7.74Z" fill="#008bfd"/><path d="M72.15,7a12.55,12.55,0,0,0-1.73-1.83,12.55,12.55,0,0,0-8,1.54c.76.84,1.51,1.62,2.24,2.36C69,6.59,72.15,7,72.15,7Z" fill="#008bfd"/><path d="M54.61,14.59a19.94,19.94,0,0,1,1.19-2.07,9.83,9.83,0,0,1-1.6-6.79,13.19,13.19,0,0,0-1.29,1.61C52.53,8.94,52.51,11.5,54.61,14.59Z" fill="#008bfd"/><path d="M59.91,17.36a22.67,22.67,0,0,1-2.27-2.13,13.68,13.68,0,0,0-1.14,1.95,25.18,25.18,0,0,0,2.09,1.91,19.18,19.18,0,0,0,12.56,4.38,9.27,9.27,0,0,0,1.54-1.94C71.46,21.79,66.2,22.47,59.91,17.36Z" fill="#008bfd"/><path d="M54.55,14.83a16.24,16.24,0,0,0,2,2.35,14.7,14.7,0,0,1,1.14-1.95,15,15,0,0,1-1.9-2.47A15.67,15.67,0,0,0,54.55,14.83Z" fill="#008bfd"/><path d="M63,10.07a99.43,99.43,0,0,0,11.15,8.82,9.82,9.82,0,0,0,.33-1.05A96.8,96.8,0,0,1,64.61,9,16,16,0,0,0,63,10.07Z" fill="#008bfd"/><path d="M62.38,6.65c-1.1-1.18-2.22-2.44-3.36-3.8a11.13,11.13,0,0,0-1.59.67,26.74,26.74,0,0,0,3.24,4.22A15.69,15.69,0,0,1,62.38,6.65Z" fill="#008bfd"/><path d="M62.45,6.62A20.57,20.57,0,0,0,60.58,7.8c.72.79,1.45,1.6,2.25,2.36.57-.4,1.34-.89,1.87-1.19C64,8.24,63.21,7.45,62.45,6.62Z" fill="#008bfd"/><path d="M62.25,6.51a14.89,14.89,0,0,0-1.67,1.13c.72.79,1.74,1.81,2.54,2.57.57-.4,1.05-.81,1.58-1.11C64,8.37,63,7.35,62.25,6.51Z" fill="#008bfd"/><path d="M68.3,13.06a2.71,2.71,0,0,0-.48,3.71,2.55,2.55,0,0,0,3.63.5,2.71,2.71,0,0,0,.48-3.71A2.55,2.55,0,0,0,68.3,13.06Z" fill="#008bfd"/><path d="M63.25,19.05a2.52,2.52,0,0,0-.45,3.44,2.37,2.37,0,0,0,3.36.45,2.49,2.49,0,0,0,.44-3.43A2.35,2.35,0,0,0,63.25,19.05Z" fill="#008bfd"/><path d="M54,11.87a3.79,3.79,0,0,0-.68,5.21,3.58,3.58,0,0,0,5.1.7,3.8,3.8,0,0,0,.67-5.23A3.58,3.58,0,0,0,54,11.87Z" fill="#008bfd"/><g style="isolation:isolate"><path d="M54.56,37.57V31.26h1.8a2,2,0,0,1,1.29.4,1.3,1.3,0,0,1,.48,1,1.52,1.52,0,0,1-.29.94,1.56,1.56,0,0,1-.8.56v0a1.59,1.59,0,0,1,1,.48,1.44,1.44,0,0,1,.38,1,1.63,1.63,0,0,1-.58,1.31,2.11,2.11,0,0,1-1.46.51Zm.74-5.64v2h.76a1.41,1.41,0,0,0,.95-.3,1,1,0,0,0,.35-.82c0-.61-.4-.92-1.21-.92Zm0,2.7V36.9h1a1.52,1.52,0,0,0,1-.31,1.06,1.06,0,0,0,.36-.84c0-.75-.51-1.12-1.52-1.12Z" fill="#008bfd"/><path d="M63,35.49H59.84a1.69,1.69,0,0,0,.4,1.16,1.39,1.39,0,0,0,1.07.41,2.21,2.21,0,0,0,1.4-.5v.68a2.61,2.61,0,0,1-1.57.43,1.89,1.89,0,0,1-1.5-.61,2.5,2.5,0,0,1-.55-1.73,2.44,2.44,0,0,1,.6-1.71A1.9,1.9,0,0,1,61.17,33a1.68,1.68,0,0,1,1.36.57A2.35,2.35,0,0,1,63,35.12Zm-.74-.61a1.46,1.46,0,0,0-.3-1,1,1,0,0,0-.83-.34,1.16,1.16,0,0,0-.86.36,1.59,1.59,0,0,0-.44,1Z" fill="#008bfd"/><path d="M67.36,30.85v.68a1.6,1.6,0,0,1-.58.2A8,8,0,0,0,65.4,32a1.27,1.27,0,0,0-.65.59,3.64,3.64,0,0,0-.32,1.33h0a1.71,1.71,0,0,1,1.5-.77,1.85,1.85,0,0,1,1.44.61,2.69,2.69,0,0,1,0,3.27,2,2,0,0,1-1.53.63,1.85,1.85,0,0,1-1.59-.74,3.37,3.37,0,0,1-.56-2.1,6.67,6.67,0,0,1,.2-1.8,2.5,2.5,0,0,1,.56-1.12,1.85,1.85,0,0,1,.79-.51c.29-.09.8-.2,1.5-.33A2.14,2.14,0,0,0,67.36,30.85Zm-2.94,3.79v.62a2.62,2.62,0,0,0,.11.69,1.86,1.86,0,0,0,.29.6,1.26,1.26,0,0,0,.44.39,1.41,1.41,0,0,0,.59.12,1.19,1.19,0,0,0,1-.45,1.73,1.73,0,0,0,.38-1.15,1.86,1.86,0,0,0-.38-1.23,1.29,1.29,0,0,0-1-.45A1.47,1.47,0,0,0,64.42,34.64Z" fill="#008bfd"/><path d="M71.17,35.34h-2.4v-.57h2.4Z" fill="#008bfd"/><path d="M42.07,45.57h-.72V41.68H39.06v3.89h-.72v-4.5h3.73Z" fill="#008bfd"/><path d="M44.05,44.91h0v2.73h-.72V41.07H44v.79h0A1.69,1.69,0,0,1,45.6,41a1.66,1.66,0,0,1,1.36.6,2.5,2.5,0,0,1,.49,1.62A2.81,2.81,0,0,1,46.9,45a1.84,1.84,0,0,1-1.5.68A1.48,1.48,0,0,1,44.05,44.91Zm0-1.81v.63a1.36,1.36,0,0,0,.36,1,1.23,1.23,0,0,0,.92.38,1.2,1.2,0,0,0,1-.5,2.25,2.25,0,0,0,.37-1.39A1.84,1.84,0,0,0,46.36,42a1.15,1.15,0,0,0-.94-.42,1.28,1.28,0,0,0-1,.43A1.63,1.63,0,0,0,44,43.1Z" fill="#008bfd"/><path d="M52.14,45.57h-.65V42c-.06.12-.16.3-.29.53l-2.08,3.06h-.75v-4.5H49v3.54c0-.08.11-.23.23-.43l2.14-3.11h.74Z" fill="#008bfd"/><path d="M56.66,45.57H56V41.68H54.9a9.34,9.34,0,0,1-.62,3.06,1.32,1.32,0,0,1-1.17.89,1.14,1.14,0,0,1-.39-.06V45a.72.72,0,0,0,.33.07c.65,0,1.06-1.32,1.25-4h2.36Z" fill="#008bfd"/><path d="M59.78,45.67a2.1,2.1,0,0,1-1.6-.63,2.36,2.36,0,0,1-.59-1.67,2.39,2.39,0,0,1,.62-1.77A2.2,2.2,0,0,1,59.88,41a2,2,0,0,1,1.57.62,2.8,2.8,0,0,1,0,3.44A2.15,2.15,0,0,1,59.78,45.67Zm0-4.1a1.36,1.36,0,0,0-1.1.47,1.93,1.93,0,0,0-.4,1.3,1.79,1.79,0,0,0,.41,1.26,1.36,1.36,0,0,0,1.09.46,1.32,1.32,0,0,0,1.07-.45,2,2,0,0,0,.38-1.29A2,2,0,0,0,60.9,42,1.32,1.32,0,0,0,59.83,41.57Z" fill="#008bfd"/><path d="M68.92,45.57H68l-2-2.23h0v2.23h-.69V43.34h0l-2,2.23h-1l2.23-2.33-2.09-2.17h.92l1.92,2.1h0v-2.1h.69v2.1h0l1.93-2.1h.92l-2.1,2.17Z" fill="#008bfd"/><path d="M73.05,43.49H69.87a1.65,1.65,0,0,0,.41,1.16,1.36,1.36,0,0,0,1.06.41,2.19,2.19,0,0,0,1.4-.5v.68a2.61,2.61,0,0,1-1.57.43,1.89,1.89,0,0,1-1.5-.61,2.54,2.54,0,0,1-.54-1.73,2.44,2.44,0,0,1,.59-1.71A1.92,1.92,0,0,1,71.2,41a1.7,1.7,0,0,1,1.37.57,2.4,2.4,0,0,1,.48,1.59Zm-.74-.61a1.46,1.46,0,0,0-.3-1,1,1,0,0,0-.82-.34,1.19,1.19,0,0,0-.87.36,1.65,1.65,0,0,0-.44,1Z" fill="#008bfd"/><path d="M77.65,45.57h-.72v-2H74.64v2h-.72v-4.5h.72v1.84h2.29V41.07h.72Z" fill="#008bfd"/><path d="M82.66,45.57H82V42c-.06.12-.16.3-.29.53l-2.08,3.06h-.75v-4.5h.66v3.54l.23-.43,2.14-3.11h.75Z" fill="#008bfd"/><path d="M87.51,43.49H84.33a1.69,1.69,0,0,0,.4,1.16,1.39,1.39,0,0,0,1.07.41,2.16,2.16,0,0,0,1.39-.5v.68a2.55,2.55,0,0,1-1.56.43,1.89,1.89,0,0,1-1.5-.61,2.5,2.5,0,0,1-.55-1.73,2.44,2.44,0,0,1,.6-1.71A1.9,1.9,0,0,1,85.66,41a1.68,1.68,0,0,1,1.36.57,2.4,2.4,0,0,1,.49,1.59Zm-.74-.61a1.52,1.52,0,0,0-.3-1,1,1,0,0,0-.83-.34,1.15,1.15,0,0,0-.86.36,1.59,1.59,0,0,0-.44,1Z" fill="#008bfd"/></g></svg>