<svg xmlns="http://www.w3.org/2000/svg" viewBox="0 0 424.04 484"><title>OJ104440672</title><path d="M70,24.4a11.81,11.81,0,0,1-16.84-2.29A12.56,12.56,0,0,1,55.43,4.82a11.82,11.82,0,0,1,16.84,2.3A12.54,12.54,0,0,1,70,24.4ZM73.69,6A13.57,13.57,0,0,0,54.33,3.36a14.43,14.43,0,0,0-2.55,19.87,13.62,13.62,0,0,0,11,5.55,13.45,13.45,0,0,0,8.39-2.92A14.44,14.44,0,0,0,73.69,6Z" fill="#008bfd"/><path d="M56.06,17.19a17,17,0,0,1-2-2.35,18.28,18.28,0,0,0-1.66,6.88c.11.16.11.29.23.44a12.55,12.55,0,0,0,2,2.05A14.13,14.13,0,0,1,56.06,17.19Z" fill="#008bfd"/><path d="M60.67,7.74a21,21,0,0,0-3.33,3,15.71,15.71,0,0,0-1.61,2,15.42,15.42,0,0,0,1.9,2.46,16.32,16.32,0,0,1,2.2-2.56A26.47,26.47,0,0,1,63,10.06C62.16,9.3,61.38,8.53,60.67,7.74Z" fill="#008bfd"/><path d="M72.15,7a12,12,0,0,0-1.73-1.82,12.53,12.53,0,0,0-8,1.53c.76.84,1.51,1.63,2.24,2.36C69,6.59,72.15,7,72.15,7Z" fill="#008bfd"/><path d="M54.34,15a19.82,19.82,0,0,1,1.19-2.06,9.84,9.84,0,0,1-1.6-6.79,13.09,13.09,0,0,0-1.29,1.6C52.26,9.34,52.24,11.9,54.34,15Z" fill="#008bfd"/><path d="M59.9,17.37a21.6,21.6,0,0,1-2.27-2.14,14.25,14.25,0,0,0-1.14,1.95,23.54,23.54,0,0,0,2.09,1.91,19.12,19.12,0,0,0,12.56,4.38,9,9,0,0,0,1.54-1.94C71.45,21.79,66.19,22.48,59.9,17.37Z" fill="#008bfd"/><path d="M54.55,14.83a15.72,15.72,0,0,0,2,2.35,15.36,15.36,0,0,1,1.14-1.95,15.42,15.42,0,0,1-1.9-2.46A15.58,15.58,0,0,0,54.55,14.83Z" fill="#008bfd"/><path d="M63,10.07a97,97,0,0,0,11.15,8.82,9.82,9.82,0,0,0,.33-1.05A95.51,95.51,0,0,1,64.61,9Q63.82,9.47,63,10.07Z" fill="#008bfd"/><path d="M62.38,6.66Q60.73,4.89,59,2.86a10.05,10.05,0,0,0-1.59.66,26.3,26.3,0,0,0,3.24,4.22A17.22,17.22,0,0,1,62.38,6.66Z" fill="#008bfd"/><path d="M62.45,6.62a18.74,18.74,0,0,0-1.87,1.19c.72.78,1.45,1.59,2.25,2.35.57-.4,1.34-.88,1.87-1.18C64,8.25,63.21,7.46,62.45,6.62Z" fill="#008bfd"/><path d="M62.25,6.52a16.24,16.24,0,0,0-1.67,1.12c.72.79,1.74,1.81,2.54,2.57.57-.4,1.05-.8,1.58-1.11C64,8.38,63,7.35,62.25,6.52Z" fill="#008bfd"/><path d="M68.3,13.07a2.7,2.7,0,0,0-.48,3.7,2.56,2.56,0,0,0,3.63.51,2.72,2.72,0,0,0,.48-3.72A2.55,2.55,0,0,0,68.3,13.07Z" fill="#008bfd"/><path d="M63.13,19.19a2.52,2.52,0,0,0-.45,3.44,2.37,2.37,0,0,0,3.36.45,2.49,2.49,0,0,0,.44-3.43A2.36,2.36,0,0,0,63.13,19.19Z" fill="#008bfd"/><path d="M54,11.86a3.79,3.79,0,0,0-.68,5.21,3.58,3.58,0,0,0,5.1.7,3.8,3.8,0,0,0,.67-5.23A3.59,3.59,0,0,0,54,11.86Z" fill="#008bfd"/><path d="M70,164a11.81,11.81,0,0,1-16.84-2.29,12.56,12.56,0,0,1,2.24-17.29,11.82,11.82,0,0,1,16.84,2.3A12.54,12.54,0,0,1,70,164Zm3.66-18.41A13.57,13.57,0,0,0,54.33,143a14.43,14.43,0,0,0-2.55,19.87,13.62,13.62,0,0,0,11,5.55,13.45,13.45,0,0,0,8.39-2.92A14.44,14.44,0,0,0,73.69,145.6Z" fill="#008bfd"/><path d="M56.06,156.8a17,17,0,0,1-2-2.35,18.28,18.28,0,0,0-1.66,6.88c.11.16.11.29.23.44a12.55,12.55,0,0,0,2,2A14.13,14.13,0,0,1,56.06,156.8Z" fill="#008bfd"/><path d="M60.67,147.35a21,21,0,0,0-3.33,3,15.71,15.71,0,0,0-1.61,2,15.42,15.42,0,0,0,1.9,2.46,16.32,16.32,0,0,1,2.2-2.56A26.47,26.47,0,0,1,63,149.67C62.16,148.91,61.38,148.14,60.67,147.35Z" fill="#008bfd"/><path d="M72.15,146.55a12,12,0,0,0-1.73-1.82,12.53,12.53,0,0,0-8,1.53c.76.84,1.51,1.63,2.24,2.36C69,146.19,72.15,146.55,72.15,146.55Z" fill="#008bfd"/><path d="M54.34,154.58a19.82,19.82,0,0,1,1.19-2.06,9.84,9.84,0,0,1-1.6-6.79,13.09,13.09,0,0,0-1.29,1.6C52.26,148.94,52.24,151.5,54.34,154.58Z" fill="#008bfd"/><path d="M59.9,157a21.6,21.6,0,0,1-2.27-2.14,14.25,14.25,0,0,0-1.14,1.95,23.54,23.54,0,0,0,2.09,1.91,19.12,19.12,0,0,0,12.56,4.38,9,9,0,0,0,1.54-1.94C71.45,161.4,66.19,162.09,59.9,157Z" fill="#008bfd"/><path d="M54.55,154.44a15.72,15.72,0,0,0,2,2.35,15.36,15.36,0,0,1,1.14-1.95,15.42,15.42,0,0,1-1.9-2.46A15.58,15.58,0,0,0,54.55,154.44Z" fill="#008bfd"/><path d="M63,149.67a97,97,0,0,0,11.15,8.82,9.82,9.82,0,0,0,.33-1.05,95.51,95.51,0,0,1-9.83-8.82Q63.82,149.07,63,149.67Z" fill="#008bfd"/><path d="M62.38,146.27q-1.65-1.77-3.36-3.8a10.05,10.05,0,0,0-1.59.66,26.3,26.3,0,0,0,3.24,4.22A17.22,17.22,0,0,1,62.38,146.27Z" fill="#008bfd"/><path d="M62.45,146.23a18.74,18.74,0,0,0-1.87,1.19c.72.78,1.45,1.59,2.25,2.35.57-.4,1.34-.88,1.87-1.18C64,147.86,63.21,147.07,62.45,146.23Z" fill="#008bfd"/><path d="M62.25,146.12a16.24,16.24,0,0,0-1.67,1.12c.72.79,1.74,1.81,2.54,2.57.57-.4,1.05-.8,1.58-1.11C64,148,63,147,62.25,146.12Z" fill="#008bfd"/><path d="M68.3,152.68a2.7,2.7,0,0,0-.48,3.7,2.56,2.56,0,0,0,3.63.51,2.72,2.72,0,0,0,.48-3.72A2.55,2.55,0,0,0,68.3,152.68Z" fill="#008bfd"/><path d="M63.13,158.8a2.52,2.52,0,0,0-.45,3.44,2.37,2.37,0,0,0,3.36.45,2.49,2.49,0,0,0,.44-3.43A2.36,2.36,0,0,0,63.13,158.8Z" fill="#008bfd"/><path d="M54,151.47a3.79,3.79,0,0,0-.68,5.21,3.58,3.58,0,0,0,5.1.7,3.8,3.8,0,0,0,.67-5.23A3.59,3.59,0,0,0,54,151.47Z" fill="#008bfd"/><path d="M70,94.28A11.81,11.81,0,0,1,53.19,92,12.56,12.56,0,0,1,55.43,74.7,11.82,11.82,0,0,1,72.27,77,12.54,12.54,0,0,1,70,94.28Zm3.66-18.41a13.57,13.57,0,0,0-19.36-2.63,14.43,14.43,0,0,0-2.55,19.87,13.62,13.62,0,0,0,11,5.55,13.45,13.45,0,0,0,8.39-2.92A14.44,14.44,0,0,0,73.69,75.87Z" fill="#008bfd"/><path d="M56.06,87.07a17,17,0,0,1-2-2.35,18.28,18.28,0,0,0-1.66,6.88c.11.16.11.29.23.44a12.55,12.55,0,0,0,2,2A14.13,14.13,0,0,1,56.06,87.07Z" fill="#008bfd"/><path d="M60.67,77.62a21,21,0,0,0-3.33,3,15.71,15.71,0,0,0-1.61,2.05,15.42,15.42,0,0,0,1.9,2.46,16.32,16.32,0,0,1,2.2-2.56A26.47,26.47,0,0,1,63,79.94C62.16,79.18,61.38,78.41,60.67,77.62Z" fill="#008bfd"/><path d="M72.15,76.83A12,12,0,0,0,70.42,75a12.53,12.53,0,0,0-8,1.53c.76.84,1.51,1.63,2.24,2.36C69,76.47,72.15,76.83,72.15,76.83Z" fill="#008bfd"/><path d="M54.34,84.86a19.82,19.82,0,0,1,1.19-2.06A9.84,9.84,0,0,1,53.93,76a13.09,13.09,0,0,0-1.29,1.6C52.26,79.22,52.24,81.78,54.34,84.86Z" fill="#008bfd"/><path d="M59.9,87.25a21.6,21.6,0,0,1-2.27-2.14,14.25,14.25,0,0,0-1.14,2A23.54,23.54,0,0,0,58.58,89a19.12,19.12,0,0,0,12.56,4.38,9,9,0,0,0,1.54-1.94C71.45,91.67,66.19,92.36,59.9,87.25Z" fill="#008bfd"/><path d="M54.55,84.71a15.72,15.72,0,0,0,2,2.35,15.36,15.36,0,0,1,1.14-2,15.42,15.42,0,0,1-1.9-2.46A15.58,15.58,0,0,0,54.55,84.71Z" fill="#008bfd"/><path d="M63,80a97,97,0,0,0,11.15,8.82,9.82,9.82,0,0,0,.33-1,95.51,95.51,0,0,1-9.83-8.82Q63.82,79.35,63,80Z" fill="#008bfd"/><path d="M62.38,76.54q-1.65-1.77-3.36-3.8a10.05,10.05,0,0,0-1.59.66,26.3,26.3,0,0,0,3.24,4.22A17.22,17.22,0,0,1,62.38,76.54Z" fill="#008bfd"/><path d="M62.45,76.5a18.74,18.74,0,0,0-1.87,1.19c.72.78,1.45,1.59,2.25,2.35.57-.4,1.34-.88,1.87-1.18C64,78.13,63.21,77.34,62.45,76.5Z" fill="#008bfd"/><path d="M62.25,76.4a16.24,16.24,0,0,0-1.67,1.12c.72.79,1.74,1.81,2.54,2.57.57-.4,1.05-.8,1.58-1.11C64,78.26,63,77.23,62.25,76.4Z" fill="#008bfd"/><path d="M68.3,83a2.7,2.7,0,0,0-.48,3.7,2.56,2.56,0,0,0,3.63.51,2.72,2.72,0,0,0,.48-3.72A2.55,2.55,0,0,0,68.3,83Z" fill="#008bfd"/><path d="M63.13,89.07a2.52,2.52,0,0,0-.45,3.44A2.37,2.37,0,0,0,66,93a2.49,2.49,0,0,0,.44-3.43A2.36,2.36,0,0,0,63.13,89.07Z" fill="#008bfd"/><path d="M54,81.74A3.79,3.79,0,0,0,53.31,87a3.58,3.58,0,0,0,5.1.7,3.8,3.8,0,0,0,.67-5.23A3.59,3.59,0,0,0,54,81.74Z" fill="#008bfd"/><g style="isolation:isolate"><path d="M35.29,250.69v-6.3h1.79a2,2,0,0,1,1.3.4,1.3,1.3,0,0,1,.48,1,1.59,1.59,0,0,1-.29.94,1.56,1.56,0,0,1-.8.56v0a1.63,1.63,0,0,1,1,.48,1.49,1.49,0,0,1,.38,1,1.63,1.63,0,0,1-.58,1.31,2.11,2.11,0,0,1-1.46.5Zm.74-5.63v2h.76a1.41,1.41,0,0,0,1-.3,1,1,0,0,0,.35-.82c0-.61-.41-.92-1.21-.92Zm0,2.7V250h1a1.54,1.54,0,0,0,1-.31,1.06,1.06,0,0,0,.36-.84c0-.75-.51-1.12-1.52-1.12Z" fill="#008bfd"/><path d="M44,248.62H40.79a1.65,1.65,0,0,0,.41,1.16,1.36,1.36,0,0,0,1.06.41,2.19,2.19,0,0,0,1.4-.5v.68a2.61,2.61,0,0,1-1.57.43,1.89,1.89,0,0,1-1.5-.61,2.54,2.54,0,0,1-.54-1.73,2.44,2.44,0,0,1,.59-1.71,1.92,1.92,0,0,1,1.48-.66,1.7,1.7,0,0,1,1.37.57,2.4,2.4,0,0,1,.48,1.59Zm-.74-.61a1.44,1.44,0,0,0-.3-1,1,1,0,0,0-.82-.34,1.19,1.19,0,0,0-.87.36,1.65,1.65,0,0,0-.44.95Z" fill="#008bfd"/><path d="M48.54,244v.68a1.6,1.6,0,0,1-.58.2,8,8,0,0,0-1.38.28,1.23,1.23,0,0,0-.65.59,3.45,3.45,0,0,0-.32,1.33h0a1.71,1.71,0,0,1,1.5-.77,1.88,1.88,0,0,1,1.44.61,2.69,2.69,0,0,1,0,3.27,2,2,0,0,1-1.53.63,1.88,1.88,0,0,1-1.6-.74,3.43,3.43,0,0,1-.56-2.1,6.64,6.64,0,0,1,.21-1.8,2.5,2.5,0,0,1,.56-1.12,1.8,1.8,0,0,1,.79-.51,14.73,14.73,0,0,1,1.5-.33A2.25,2.25,0,0,0,48.54,244Zm-2.94,3.79v.62a2.26,2.26,0,0,0,.11.69,1.68,1.68,0,0,0,.29.6,1.26,1.26,0,0,0,.44.39,1.38,1.38,0,0,0,.59.12,1.2,1.2,0,0,0,1-.45,1.73,1.73,0,0,0,.37-1.15,1.81,1.81,0,0,0-.38-1.23,1.26,1.26,0,0,0-1-.45A1.46,1.46,0,0,0,45.6,247.77Z" fill="#008bfd"/><path d="M52.58,248.47h-2.4v-.57h2.4Z" fill="#008bfd"/><path d="M57.61,250.69h-.72v-3.88h-2.3v3.88h-.72v-4.5h3.74Z" fill="#008bfd"/><path d="M59.8,250h0v2.73h-.72v-6.58h.72v.8h0a1.72,1.72,0,0,1,1.56-.9,1.66,1.66,0,0,1,1.36.6,2.56,2.56,0,0,1,.49,1.62,2.81,2.81,0,0,1-.55,1.81,1.85,1.85,0,0,1-1.51.68A1.51,1.51,0,0,1,59.8,250Zm0-1.81v.63a1.36,1.36,0,0,0,.36.95,1.23,1.23,0,0,0,.92.38,1.2,1.2,0,0,0,1-.5,2.32,2.32,0,0,0,.37-1.39,1.84,1.84,0,0,0-.35-1.18,1.15,1.15,0,0,0-.94-.42,1.27,1.27,0,0,0-1,.43A1.59,1.59,0,0,0,59.79,248.23Z" fill="#008bfd"/><path d="M68.13,250.69h-.65v-3.58l-.3.53-2.08,3.05h-.74v-4.5H65v3.55a4.47,4.47,0,0,1,.22-.43l2.14-3.12h.75Z" fill="#008bfd"/><path d="M72.87,250.69h-.72v-3.88h-1a9.34,9.34,0,0,1-.62,3.06,1.32,1.32,0,0,1-1.18.89.89.89,0,0,1-.38-.07v-.61a.72.72,0,0,0,.33.07c.65,0,1.06-1.32,1.24-4h2.37Z" fill="#008bfd"/><path d="M76.21,250.8a2.06,2.06,0,0,1-1.59-.63,2.33,2.33,0,0,1-.6-1.67,2.43,2.43,0,0,1,.62-1.77,2.2,2.2,0,0,1,1.67-.64,2,2,0,0,1,1.58.62,2.47,2.47,0,0,1,.56,1.72,2.38,2.38,0,0,1-.61,1.72A2.13,2.13,0,0,1,76.21,250.8Zm.05-4.1a1.36,1.36,0,0,0-1.1.47,1.93,1.93,0,0,0-.4,1.3,1.79,1.79,0,0,0,.41,1.26,1.36,1.36,0,0,0,1.09.46,1.33,1.33,0,0,0,1.08-.45,2,2,0,0,0,.37-1.29,2,2,0,0,0-.37-1.3A1.33,1.33,0,0,0,76.26,246.7Z" fill="#008bfd"/><path d="M85.58,250.69h-1l-2-2.22h0v2.22h-.68v-2.22h0l-2,2.22h-1l2.23-2.32L79,246.19h.91l1.93,2.11h0v-2.11h.68v2.11h0l1.92-2.11h.93l-2.1,2.18Z" fill="#008bfd"/><path d="M89.93,248.62H86.76a1.64,1.64,0,0,0,.4,1.16,1.36,1.36,0,0,0,1.06.41,2.17,2.17,0,0,0,1.4-.5v.68a2.59,2.59,0,0,1-1.57.43,1.92,1.92,0,0,1-1.5-.61,2.54,2.54,0,0,1-.54-1.73,2.48,2.48,0,0,1,.59-1.71,1.92,1.92,0,0,1,1.48-.66,1.7,1.7,0,0,1,1.37.57,2.4,2.4,0,0,1,.48,1.59Zm-.74-.61a1.44,1.44,0,0,0-.3-1,1,1,0,0,0-.82-.34,1.19,1.19,0,0,0-.87.36,1.72,1.72,0,0,0-.44.95Z" fill="#008bfd"/><path d="M59.28,261.49h-.72v-2h-2.3v2h-.72V257h.72v1.85h2.3V257h.72Z" fill="#008bfd"/><path d="M64.51,261.49h-.65V257.9c-.07.13-.16.31-.3.54l-2.07,3.05h-.75V257h.66v3.55a3.31,3.31,0,0,1,.23-.43L63.76,257h.75Z" fill="#008bfd"/><path d="M69.58,259.42H66.41a1.64,1.64,0,0,0,.4,1.16,1.37,1.37,0,0,0,1.07.41,2.16,2.16,0,0,0,1.39-.5v.68a2.59,2.59,0,0,1-1.57.43,1.88,1.88,0,0,1-1.49-.61,2.5,2.5,0,0,1-.55-1.73,2.44,2.44,0,0,1,.6-1.71,1.9,1.9,0,0,1,1.47-.66,1.7,1.7,0,0,1,1.37.57,2.4,2.4,0,0,1,.48,1.59Zm-.73-.61a1.5,1.5,0,0,0-.31-1,1,1,0,0,0-.82-.34,1.15,1.15,0,0,0-.86.36,1.59,1.59,0,0,0-.44.95Z" fill="#008bfd"/></g><path d="M305.43,284h-20.5a1.1,1.1,0,0,0-1.09,1.11v16.74a1.09,1.09,0,0,0,1.09,1.1h5.28a3.29,3.29,0,0,0,3.21,2.27,3.38,3.38,0,0,0,0-6.75,3.29,3.29,0,0,0-3.21,2.27H286v-12h18.31v12h-3.45a7.61,7.61,0,0,0-7.46-6.56,8.25,8.25,0,0,0-3.64.92l1,2a5.27,5.27,0,0,1,2.55-.67,5.46,5.46,0,0,1,0,10.92,5.28,5.28,0,0,1-2.55-.68l-1,2a7.4,7.4,0,0,0,3.64.92,7.61,7.61,0,0,0,7.46-6.56h4.55a1.09,1.09,0,0,0,1.09-1.1V285.08A1.14,1.14,0,0,0,305.43,284Z" fill="#008bfd"/><g style="isolation:isolate"><path d="M274,322h-.75v-5.62H270V322h-.75v-6.31H274Z" fill="#008bfd"/><path d="M276.31,321.34h0v2.72h-.72v-6.57h.72v.79h0a1.72,1.72,0,0,1,1.56-.9,1.66,1.66,0,0,1,1.36.6,2.56,2.56,0,0,1,.48,1.62,2.75,2.75,0,0,1-.55,1.81,1.82,1.82,0,0,1-1.5.68A1.52,1.52,0,0,1,276.31,321.34Zm0-1.82v.63a1.36,1.36,0,0,0,.37,1,1.19,1.19,0,0,0,.92.38,1.18,1.18,0,0,0,1-.5,2.25,2.25,0,0,0,.38-1.39,1.84,1.84,0,0,0-.35-1.18,1.16,1.16,0,0,0-.94-.42,1.27,1.27,0,0,0-1,.43A1.61,1.61,0,0,0,276.29,319.52Z" fill="#008bfd"/><path d="M284.64,322H284V318.4l-.3.53L281.61,322h-.74v-4.5h.65V321l.23-.43,2.14-3.11h.75Z" fill="#008bfd"/><path d="M289.38,322h-.72V318.1h-1a9.27,9.27,0,0,1-.62,3.06,1.33,1.33,0,0,1-1.18.89,1,1,0,0,1-.38-.06v-.62a.72.72,0,0,0,.33.07c.64,0,1.06-1.31,1.24-3.95h2.37Z" fill="#008bfd"/><path d="M292.72,322.09a2.1,2.1,0,0,1-1.6-.63,2.36,2.36,0,0,1-.59-1.67,2.43,2.43,0,0,1,.62-1.77,2.2,2.2,0,0,1,1.67-.64,2,2,0,0,1,1.57.62,2.8,2.8,0,0,1,0,3.44A2.11,2.11,0,0,1,292.72,322.09Zm0-4.1a1.36,1.36,0,0,0-1.1.47,1.93,1.93,0,0,0-.4,1.3,1.77,1.77,0,0,0,.41,1.26,1.36,1.36,0,0,0,1.09.46,1.31,1.31,0,0,0,1.07-.45,2,2,0,0,0,.38-1.29,2,2,0,0,0-.38-1.3A1.31,1.31,0,0,0,292.77,318Z" fill="#008bfd"/><path d="M302.09,322h-1l-2-2.23h0V322h-.69v-2.23h0l-2,2.23h-1l2.23-2.32-2.1-2.18h.92l1.93,2.1h0v-2.1h.69v2.1h0l1.92-2.1H302l-2.11,2.18Z" fill="#008bfd"/><path d="M306.44,319.92h-3.18a1.73,1.73,0,0,0,.41,1.16,1.39,1.39,0,0,0,1.06.4,2.19,2.19,0,0,0,1.4-.5v.68a2.61,2.61,0,0,1-1.57.43,1.89,1.89,0,0,1-1.5-.61,2.54,2.54,0,0,1-.54-1.73,2.44,2.44,0,0,1,.59-1.71,1.92,1.92,0,0,1,1.48-.66A1.7,1.7,0,0,1,306,318a2.4,2.4,0,0,1,.48,1.59Zm-.74-.61a1.47,1.47,0,0,0-.3-1,1,1,0,0,0-.82-.34,1.19,1.19,0,0,0-.87.36,1.68,1.68,0,0,0-.44,1Z" fill="#008bfd"/><path d="M311.27,322h-.72v-2.05h-2.3V322h-.72v-4.5h.72v1.84h2.3v-1.84h.72Z" fill="#008bfd"/><path d="M316.5,322h-.65V318.4l-.3.53L313.47,322h-.74v-4.5h.65V321l.23-.43,2.14-3.11h.75Z" fill="#008bfd"/><path d="M321.57,319.92h-3.18a1.73,1.73,0,0,0,.41,1.16,1.39,1.39,0,0,0,1.06.4,2.19,2.19,0,0,0,1.4-.5v.68a2.61,2.61,0,0,1-1.57.43,1.9,1.9,0,0,1-1.5-.61,2.54,2.54,0,0,1-.54-1.73,2.48,2.48,0,0,1,.59-1.71,1.92,1.92,0,0,1,1.48-.66,1.7,1.7,0,0,1,1.37.57,2.4,2.4,0,0,1,.48,1.59Zm-.74-.61a1.47,1.47,0,0,0-.3-1,1,1,0,0,0-.82-.34,1.19,1.19,0,0,0-.87.36,1.75,1.75,0,0,0-.44,1Z" fill="#008bfd"/><path d="M294.26,332.79h-.81l-.67-1.77h-2.67l-.63,1.77h-.82l2.41-6.31h.77Zm-1.72-2.43-1-2.69a2.61,2.61,0,0,1-.1-.42h0a2.17,2.17,0,0,1-.1.42l-1,2.69Z" fill="#008bfd"/><path d="M295.93,330.4v2.39h-.74v-6.31h1.73a2.28,2.28,0,0,1,1.57.5,1.74,1.74,0,0,1,.55,1.38,1.91,1.91,0,0,1-.61,1.47,2.37,2.37,0,0,1-1.67.57Zm0-3.25v2.59h.77a1.76,1.76,0,0,0,1.17-.35,1.25,1.25,0,0,0,.4-1c0-.83-.49-1.25-1.48-1.25Z" fill="#008bfd"/><path d="M301,332.79h-.74v-6.31H301Z" fill="#008bfd"/></g><path d="M77.21,427.2H71.13c-.23,0-.38.14-.38.45v2.18a.36.36,0,0,0,.38.38h3.45v3.38c0,.22.15.37.45.37h2.18a.35.35,0,0,0,.37-.37v-6A.34.34,0,0,0,77.21,427.2ZM60,448.18H56.57V444.8c0-.22-.15-.37-.45-.37H54a.35.35,0,0,0-.38.37v6a.35.35,0,0,0,.38.37H60c.23,0,.38-.15.38-.46v-2.18A.36.36,0,0,0,60,448.18ZM73.6,444.5a.9.9,0,0,0-.45.08l-2.32-4.06a2.9,2.9,0,0,0,.9-2,2.79,2.79,0,0,0-3.9-2.56l-2.48-3.47a2,2,0,0,0,.53-1.5,2.33,2.33,0,1,0-2.33,2.32,2.38,2.38,0,0,0,.75-.14l2.48,3.54a2.82,2.82,0,0,0-.68,1.43l-7.2.6a1.78,1.78,0,0,0-1.65-1,1.88,1.88,0,0,0,0,3.76,1.92,1.92,0,0,0,1.87-1.59l7.06-.6a3.94,3.94,0,0,0,.67,1.22l-1.8,2.93h-.22a1.88,1.88,0,1,0,1.87,1.88,2.11,2.11,0,0,0-.52-1.35l1.72-2.86a4.59,4.59,0,0,0,1,.15,3.94,3.94,0,0,0,.82-.15L72,445.18a2.3,2.3,0,0,0-.68,1.57,2.18,2.18,0,1,0,2.25-2.25Z" fill="#007efd"/><g style="isolation:isolate"><path d="M49.27,464.5h-.75v-5.62H45.23v5.62h-.75v-6.3h4.79Z" fill="#007efd"/><path d="M51.32,463.85h0v2.72h-.72V460h.72v.79h0a1.69,1.69,0,0,1,1.55-.9,1.63,1.63,0,0,1,1.36.61,2.47,2.47,0,0,1,.49,1.62,2.79,2.79,0,0,1-.55,1.81,1.84,1.84,0,0,1-1.5.67A1.49,1.49,0,0,1,51.32,463.85Zm0-1.82v.63a1.36,1.36,0,0,0,.36.95,1.2,1.2,0,0,0,.92.39,1.22,1.22,0,0,0,1-.5,2.31,2.31,0,0,0,.37-1.4,1.79,1.79,0,0,0-.35-1.17,1.13,1.13,0,0,0-.94-.43,1.29,1.29,0,0,0-1,.44A1.61,1.61,0,0,0,51.3,462Z" fill="#007efd"/><path d="M59.42,464.5h-.65v-3.59l-.3.53-2.08,3.06h-.74V460h.65v3.55c0-.09.12-.23.23-.44L58.67,460h.75Z" fill="#007efd"/><path d="M63.93,464.5h-.71v-3.89h-1a9.35,9.35,0,0,1-.62,3.07,1.31,1.31,0,0,1-1.17.88,1.14,1.14,0,0,1-.39-.06v-.62a.73.73,0,0,0,.33.08c.65,0,1.06-1.32,1.25-4h2.36Z" fill="#007efd"/><path d="M67.05,464.6a2.1,2.1,0,0,1-1.6-.63,2.35,2.35,0,0,1-.59-1.67,2.46,2.46,0,0,1,.62-1.77,2.24,2.24,0,0,1,1.67-.64,2,2,0,0,1,1.57.62,2.46,2.46,0,0,1,.57,1.72,2.42,2.42,0,0,1-.61,1.73A2.14,2.14,0,0,1,67.05,464.6Zm0-4.1A1.39,1.39,0,0,0,66,461a1.94,1.94,0,0,0-.4,1.3,1.82,1.82,0,0,0,.41,1.27,1.4,1.4,0,0,0,1.09.46,1.31,1.31,0,0,0,1.07-.45,2,2,0,0,0,.38-1.29,1.92,1.92,0,0,0-.38-1.3A1.28,1.28,0,0,0,67.1,460.5Z" fill="#007efd"/><path d="M76.19,464.5h-1l-2-2.23h0v2.23H72.5v-2.23h0l-2,2.23h-1l2.24-2.32L69.64,460h.92l1.92,2.1h0V460h.69v2.1h0l1.93-2.1h.93L74,462.18Z" fill="#007efd"/><path d="M80.32,462.43H77.14a1.71,1.71,0,0,0,.41,1.16,1.4,1.4,0,0,0,1.06.41,2.24,2.24,0,0,0,1.4-.5v.67a2.61,2.61,0,0,1-1.57.43,1.9,1.9,0,0,1-1.5-.61,2.9,2.9,0,0,1,0-3.44,1.92,1.92,0,0,1,1.48-.66,1.7,1.7,0,0,1,1.37.57,2.41,2.41,0,0,1,.48,1.59Zm-.74-.61a1.43,1.43,0,0,0-.3-1,1,1,0,0,0-.82-.35,1.19,1.19,0,0,0-.87.36,1.71,1.71,0,0,0-.44,1Z" fill="#007efd"/><path d="M84.92,464.5H84.2v-2H81.91v2h-.72V460h.72v1.84H84.2V460h.72Z" fill="#007efd"/><path d="M89.93,464.5h-.65v-3.59l-.3.53L86.9,464.5h-.74V460h.65v3.55c0-.09.12-.23.23-.44L89.18,460h.75Z" fill="#007efd"/><path d="M94.78,462.43H91.6a1.71,1.71,0,0,0,.4,1.16,1.42,1.42,0,0,0,1.07.41,2.22,2.22,0,0,0,1.39-.5v.67a2.55,2.55,0,0,1-1.56.43,1.89,1.89,0,0,1-1.5-.61,2.86,2.86,0,0,1,0-3.44,1.9,1.9,0,0,1,1.48-.66,1.68,1.68,0,0,1,1.36.57,2.36,2.36,0,0,1,.49,1.59Zm-.74-.61a1.43,1.43,0,0,0-.3-1,1,1,0,0,0-.83-.35,1.16,1.16,0,0,0-.86.36,1.65,1.65,0,0,0-.44,1Z" fill="#007efd"/><path d="M96.3,463.5l-.7,2.16h-.52l.52-2.16Z" fill="#007efd"/><path d="M10.9,475.3v-4.5h2a1.74,1.74,0,0,1,1.05.29,1,1,0,0,1,.38.81,1,1,0,0,1-.86,1.06c.69.09,1,.44,1,1a1.21,1.21,0,0,1-.43.93,1.56,1.56,0,0,1-1,.37Zm.72-3.89v1.27H12.7c.58,0,.87-.23.87-.68s-.26-.59-.78-.59Zm0,1.88v1.39h1.25c.58,0,.88-.23.88-.7s-.33-.69-1-.69Z" fill="#007efd"/><path d="M15.44,475.3v-4.5h.73v1.72h1.21a1.62,1.62,0,0,1,1.1.37,1.26,1.26,0,0,1,.4,1,1.3,1.3,0,0,1-.41,1,1.45,1.45,0,0,1-1,.38Zm.73-2.15v1.53h1.08c.59,0,.89-.26.89-.79s-.3-.74-.9-.74Zm4.2,2.15h-.72v-4.5h.72Z" fill="#007efd"/><path d="M25.34,475.3h-.72v-3.89H22.33v3.89H21.6v-4.5h3.74Z" fill="#007efd"/><path d="M28.46,475.4a2.1,2.1,0,0,1-1.6-.63,2.35,2.35,0,0,1-.59-1.67,2.42,2.42,0,0,1,.62-1.77,2.24,2.24,0,0,1,1.67-.64,2,2,0,0,1,1.57.62,2.82,2.82,0,0,1,0,3.45A2.14,2.14,0,0,1,28.46,475.4Zm.05-4.1a1.39,1.39,0,0,0-1.1.47,1.94,1.94,0,0,0-.4,1.3,1.86,1.86,0,0,0,.4,1.27,1.43,1.43,0,0,0,1.1.46,1.32,1.32,0,0,0,1.07-.45,2,2,0,0,0,.38-1.29,2,2,0,0,0-.38-1.3A1.3,1.3,0,0,0,28.51,471.3Z" fill="#007efd"/><path d="M34.91,475.3h-.72v-3.89h-1a9.4,9.4,0,0,1-.61,3.07,1.33,1.33,0,0,1-1.18.88,1.14,1.14,0,0,1-.39-.06v-.62a.81.81,0,0,0,.34.08c.64,0,1.06-1.32,1.24-4h2.37Z" fill="#007efd"/><path d="M39.88,475.3h-.73v-2H36.86v2h-.72v-4.5h.72v1.84h2.29V470.8h.73Z" fill="#007efd"/><path d="M44.19,475.3h-.73v-1.86h-.6c-.29,0-.55.23-.79.7l-.58,1.16h-.84l.76-1.39a1.39,1.39,0,0,1,.63-.64,1.21,1.21,0,0,1-.8-.38,1.19,1.19,0,0,1-.28-.79,1.15,1.15,0,0,1,.44-1,1.84,1.84,0,0,1,1.21-.35h1.58Zm-.73-2.47v-1.42h-.85c-.6,0-.91.23-.91.69s.3.73.89.73Z" fill="#007efd"/><path d="M47.41,473.26H46.13v2h-.72v-4.5h.72v1.84h1.28a2.28,2.28,0,0,1,.68-1.43,2,2,0,0,1,1.45-.52,1.89,1.89,0,0,1,1.49.61,2.51,2.51,0,0,1,.53,1.73,2.53,2.53,0,0,1-.56,1.73,2,2,0,0,1-1.56.64,1.89,1.89,0,0,1-1.47-.56A2.34,2.34,0,0,1,47.41,473.26Zm2.07-2c-.9,0-1.35.59-1.35,1.76s.46,1.74,1.37,1.74,1.33-.58,1.33-1.74S50.38,471.3,49.48,471.3Z" fill="#007efd"/><path d="M58.92,476.94h-.63V475.3H52.5v-4.5h.72v3.89H55V470.8h.72v3.89h1.8V470.8h.72v3.89h.67Z" fill="#007efd"/><path d="M63.31,473.23H60.13a1.71,1.71,0,0,0,.41,1.16,1.4,1.4,0,0,0,1.06.41,2.22,2.22,0,0,0,1.4-.5V475a2.61,2.61,0,0,1-1.57.43,1.92,1.92,0,0,1-1.5-.61,2.9,2.9,0,0,1,0-3.44,1.92,1.92,0,0,1,1.48-.66,1.7,1.7,0,0,1,1.37.57,2.41,2.41,0,0,1,.48,1.59Zm-.74-.61a1.43,1.43,0,0,0-.3-1,1,1,0,0,0-.82-.35,1.19,1.19,0,0,0-.87.36,1.78,1.78,0,0,0-.44,1Z" fill="#007efd"/><path d="M67.79,473.23H64.62a1.66,1.66,0,0,0,.4,1.16,1.4,1.4,0,0,0,1.06.41,2.22,2.22,0,0,0,1.4-.5V475a2.59,2.59,0,0,1-1.57.43,1.92,1.92,0,0,1-1.5-.61,2.9,2.9,0,0,1,0-3.44,1.92,1.92,0,0,1,1.48-.66,1.7,1.7,0,0,1,1.37.57,2.41,2.41,0,0,1,.48,1.59Zm-.73-.61a1.48,1.48,0,0,0-.31-1,1,1,0,0,0-.82-.35,1.19,1.19,0,0,0-.87.36,1.7,1.7,0,0,0-.43,1Z" fill="#007efd"/><path d="M71.73,475.09a2.34,2.34,0,0,1-1.23.31,2.07,2.07,0,0,1-1.56-.62,2.3,2.3,0,0,1-.59-1.63,2.46,2.46,0,0,1,.64-1.78,2.22,2.22,0,0,1,1.7-.68,2.45,2.45,0,0,1,1,.22v.74a1.85,1.85,0,0,0-1.07-.35,1.45,1.45,0,0,0-1.13.49,1.91,1.91,0,0,0-.44,1.3,1.81,1.81,0,0,0,.41,1.25,1.43,1.43,0,0,0,1.12.46,1.83,1.83,0,0,0,1.11-.39Z" fill="#007efd"/><path d="M75.67,475.3H75v-1.86h-.61c-.29,0-.55.23-.79.7L73,475.3h-.84l.76-1.39a1.36,1.36,0,0,1,.64-.64,1.22,1.22,0,0,1-.81-.38,1.18,1.18,0,0,1-.27-.79,1.15,1.15,0,0,1,.43-1,1.84,1.84,0,0,1,1.21-.35h1.58ZM75,472.83v-1.42h-.86c-.6,0-.91.23-.91.69s.3.73.89.73Z" fill="#007efd"/><path d="M82.61,468.58v.68a1.43,1.43,0,0,1-.58.2,7.73,7.73,0,0,0-1.38.29,1.23,1.23,0,0,0-.65.59,3.53,3.53,0,0,0-.32,1.32h0a1.71,1.71,0,0,1,1.5-.76,1.82,1.82,0,0,1,1.44.61,2.32,2.32,0,0,1,.54,1.61,2.37,2.37,0,0,1-.57,1.66,2,2,0,0,1-1.53.62,1.87,1.87,0,0,1-1.59-.73,3.37,3.37,0,0,1-.56-2.1,6.75,6.75,0,0,1,.2-1.81,2.51,2.51,0,0,1,.56-1.11,2,2,0,0,1,.79-.52c.29-.09.8-.2,1.5-.33A1.8,1.8,0,0,0,82.61,468.58Zm-2.94,3.79V473a2.76,2.76,0,0,0,.11.69,1.91,1.91,0,0,0,.29.59,1.09,1.09,0,0,0,.44.39,1.28,1.28,0,0,0,.59.13,1.19,1.19,0,0,0,1-.45,1.76,1.76,0,0,0,.38-1.16,1.85,1.85,0,0,0-.38-1.22,1.27,1.27,0,0,0-1-.46A1.49,1.49,0,0,0,79.67,472.37Z" fill="#007efd"/><path d="M87.74,473.23H84.56a1.71,1.71,0,0,0,.4,1.16,1.42,1.42,0,0,0,1.07.41,2.22,2.22,0,0,0,1.39-.5V475a2.56,2.56,0,0,1-1.57.43,1.88,1.88,0,0,1-1.49-.61,2.86,2.86,0,0,1,0-3.44,1.9,1.9,0,0,1,1.48-.66,1.69,1.69,0,0,1,1.36.57,2.42,2.42,0,0,1,.49,1.59Zm-.74-.61a1.54,1.54,0,0,0-.3-1,1.05,1.05,0,0,0-.83-.35,1.15,1.15,0,0,0-.86.36,1.65,1.65,0,0,0-.44,1Z" fill="#007efd"/><path d="M88.22,475.17v-.71a2.79,2.79,0,0,0,1.38.33c.79,0,1.19-.25,1.19-.75s-.44-.75-1.31-.75H89v-.61h.42c.77,0,1.15-.24,1.15-.71a.58.58,0,0,0-.26-.49,1.29,1.29,0,0,0-.73-.18,2.92,2.92,0,0,0-1.31.33V471a4.09,4.09,0,0,1,1.37-.27c1.1,0,1.65.4,1.65,1.21a1,1,0,0,1-.25.67,1.17,1.17,0,0,1-.68.38v0a1.25,1.25,0,0,1,.8.34,1,1,0,0,1,.31.75,1.16,1.16,0,0,1-.5,1,2.23,2.23,0,0,1-1.37.37A3.33,3.33,0,0,1,88.22,475.17Z" fill="#007efd"/><path d="M98.11,468.58v.68a1.43,1.43,0,0,1-.58.2,7.73,7.73,0,0,0-1.38.29,1.19,1.19,0,0,0-.65.59,3.18,3.18,0,0,0-.32,1.32h0a1.71,1.71,0,0,1,1.5-.76,1.85,1.85,0,0,1,1.44.61,2.32,2.32,0,0,1,.54,1.61,2.37,2.37,0,0,1-.57,1.66,2,2,0,0,1-1.53.62,1.9,1.9,0,0,1-1.6-.73,3.43,3.43,0,0,1-.56-2.1,7.19,7.19,0,0,1,.2-1.81,2.74,2.74,0,0,1,.56-1.11,2,2,0,0,1,.8-.52,14.73,14.73,0,0,1,1.5-.33A2,2,0,0,0,98.11,468.58Zm-2.94,3.79V473a2.74,2.74,0,0,0,.1.69,2.16,2.16,0,0,0,.29.59,1.18,1.18,0,0,0,.45.39,1.25,1.25,0,0,0,.59.13,1.2,1.2,0,0,0,1-.45,1.75,1.75,0,0,0,.37-1.16,1.85,1.85,0,0,0-.38-1.22,1.24,1.24,0,0,0-1-.46A1.48,1.48,0,0,0,95.17,472.37Z" fill="#007efd"/><path d="M100.35,474.65h0v2.72h-.72V470.8h.72v.79h0a1.72,1.72,0,0,1,1.56-.9,1.64,1.64,0,0,1,1.36.61,2.52,2.52,0,0,1,.48,1.62,2.85,2.85,0,0,1-.54,1.81,1.84,1.84,0,0,1-1.51.67A1.52,1.52,0,0,1,100.35,474.65Zm0-1.82v.63a1.36,1.36,0,0,0,.36,1,1.2,1.2,0,0,0,.92.39,1.22,1.22,0,0,0,1-.5,2.38,2.38,0,0,0,.37-1.4,1.79,1.79,0,0,0-.35-1.17,1.14,1.14,0,0,0-.94-.43,1.24,1.24,0,0,0-1,.44A1.56,1.56,0,0,0,100.34,472.83Z" fill="#007efd"/><path d="M107.9,475.3h-.72v-.7h0a1.65,1.65,0,0,1-2.43.45,1.21,1.21,0,0,1-.38-.95c0-.84.49-1.33,1.48-1.46l1.35-.19c0-.77-.31-1.15-.93-1.15a2.18,2.18,0,0,0-1.46.55v-.74a2.79,2.79,0,0,1,1.53-.42c1.05,0,1.58.56,1.58,1.68Zm-.72-2.28-1.08.15a1.78,1.78,0,0,0-.76.25.72.72,0,0,0-.25.63.68.68,0,0,0,.23.54.92.92,0,0,0,.63.21,1.16,1.16,0,0,0,.88-.38,1.36,1.36,0,0,0,.35-.95Z" fill="#007efd"/><path d="M112.62,470.8,110.55,476c-.37.93-.89,1.4-1.56,1.4a1.58,1.58,0,0,1-.47-.06v-.65a1.2,1.2,0,0,0,.43.08.87.87,0,0,0,.81-.65l.37-.85-1.76-4.49h.8l1.21,3.46c0,.05.05.16.1.34h0l.09-.33,1.28-3.47Z" fill="#007efd"/><path d="M112.79,475.17v-.71a2.75,2.75,0,0,0,1.37.33c.8,0,1.19-.25,1.19-.75s-.43-.75-1.3-.75h-.45v-.61H114c.76,0,1.14-.24,1.14-.71a.56.56,0,0,0-.26-.49,1.28,1.28,0,0,0-.72-.18,2.86,2.86,0,0,0-1.31.33V471a4,4,0,0,1,1.37-.27c1.09,0,1.64.4,1.64,1.21a1,1,0,0,1-.24.67,1.2,1.2,0,0,1-.69.38v0a1.28,1.28,0,0,1,.81.34,1,1,0,0,1,.3.75,1.16,1.16,0,0,1-.5,1,2.2,2.2,0,0,1-1.36.37A3.33,3.33,0,0,1,112.79,475.17Z" fill="#007efd"/><path d="M120.57,473.23h-3.18a1.66,1.66,0,0,0,.41,1.16,1.39,1.39,0,0,0,1.06.41,2.24,2.24,0,0,0,1.4-.5V475a2.61,2.61,0,0,1-1.57.43,1.89,1.89,0,0,1-1.5-.61,2.52,2.52,0,0,1-.54-1.72,2.48,2.48,0,0,1,.59-1.72,1.92,1.92,0,0,1,1.48-.66,1.71,1.71,0,0,1,1.37.57,2.41,2.41,0,0,1,.48,1.59Zm-.74-.61a1.43,1.43,0,0,0-.3-1,1,1,0,0,0-.82-.35,1.19,1.19,0,0,0-.87.36,1.71,1.71,0,0,0-.44,1Z" fill="#007efd"/><path d="M122.17,474.65h0v2.72h-.72V470.8h.72v.79h0a1.72,1.72,0,0,1,1.56-.9,1.64,1.64,0,0,1,1.36.61,2.52,2.52,0,0,1,.48,1.62,2.79,2.79,0,0,1-.55,1.81,1.81,1.81,0,0,1-1.5.67A1.52,1.52,0,0,1,122.17,474.65Zm0-1.82v.63a1.36,1.36,0,0,0,.37,1,1.29,1.29,0,0,0,1.94-.11,2.31,2.31,0,0,0,.38-1.4,1.79,1.79,0,0,0-.35-1.17,1.14,1.14,0,0,0-.94-.43,1.24,1.24,0,0,0-1,.44A1.57,1.57,0,0,0,122.15,472.83Z" fill="#007efd"/><path d="M129.72,475.3H129v-.7h0a1.65,1.65,0,0,1-2.43.45,1.21,1.21,0,0,1-.38-.95c0-.84.49-1.33,1.48-1.46l1.35-.19c0-.77-.31-1.15-.93-1.15a2.18,2.18,0,0,0-1.46.55v-.74a2.78,2.78,0,0,1,1.52-.42q1.59,0,1.59,1.68ZM129,473l-1.08.15a1.78,1.78,0,0,0-.76.25.72.72,0,0,0-.26.63.68.68,0,0,0,.24.54.9.9,0,0,0,.63.21,1.16,1.16,0,0,0,.88-.38,1.36,1.36,0,0,0,.35-.95Z" fill="#007efd"/></g><path d="M71.17,279.66H54.32c-1.48,0-1.5.4-1.5,2.23v29.55c0,1.83,0,2.17,1.49,2.22H71.17c1.47-.05,1.49-.39,1.49-2.22V281.89C72.66,280.06,72.64,279.71,71.17,279.66Zm-10.76,1.15h4.67a.18.18,0,0,1,0,.36H60.41a.18.18,0,0,1,0-.36Zm.12,31.09H59.39c-.19,0-.34-.07-.34-.27s.15-.26.34-.26h1.14c.19,0,.35.07.35.26S60.72,311.9,60.53,311.9Zm3,.2H62c-.26,0-.47-.11-.47-.37s.21-.36.47-.36h1.55c.26,0,.47.1.47.37S63.78,312.1,63.52,312.1Zm2.59-.2H65c-.18,0-.34-.08-.34-.27s.16-.27.34-.27h1.14c.19,0,.34.08.34.27S66.3,311.9,66.11,311.9Zm5.12-3.45c0,1.56-.14,1.9-1.56,1.92H55.81c-1.41,0-1.56-.36-1.56-1.92V283.87c0-1.63.16-1.63,1.74-1.63h13.5c1.59,0,1.75,0,1.75,1.63Z" fill="#008bfd"/><path d="M70.26,284.87c0-1.57-.19-1.58-1.73-1.58H56.9c-1.54,0-1.69,0-1.69,1.58v22.54c0,1.57.16,1.85,1.69,1.85H68.53c1.54,0,1.73-.28,1.73-1.86Zm-8,16.65-4.77-2.83V293l4.77,2.82ZM58,292.25l4.76-2.81,4.78,2.83-4.75,2.81Zm10,6.44-4.77,2.83v-5.63L68,293.07Z" fill="#008bfd"/><g style="isolation:isolate"><g style="isolation:isolate"><path d="M46.31,326.17h-.74v-4.23a12.28,12.28,0,0,1,.07-1.23h0a4.16,4.16,0,0,1-.19.61l-2.15,4.85h-.36l-2.15-4.81a2.9,2.9,0,0,1-.19-.65h0c0,.26,0,.67,0,1.24v4.22h-.71v-6.3h1l1.93,4.39a5.06,5.06,0,0,1,.29.76h0c.12-.35.23-.61.3-.78l2-4.37h.93Z" fill="#008bfd"/><path d="M49.75,326.27a2.06,2.06,0,0,1-1.59-.63,2.33,2.33,0,0,1-.6-1.67,2.43,2.43,0,0,1,.62-1.77,2.2,2.2,0,0,1,1.67-.64,2.06,2.06,0,0,1,1.58.62A2.51,2.51,0,0,1,52,323.9a2.38,2.38,0,0,1-.61,1.72A2.1,2.1,0,0,1,49.75,326.27Zm0-4.1a1.39,1.39,0,0,0-1.1.47,1.94,1.94,0,0,0-.4,1.3,1.77,1.77,0,0,0,.41,1.26,1.37,1.37,0,0,0,1.09.47,1.3,1.3,0,0,0,1.08-.46,2,2,0,0,0,.37-1.28,2,2,0,0,0-.37-1.3A1.3,1.3,0,0,0,49.8,322.17Z" fill="#008bfd"/><path d="M56.62,319.45v.68a1.43,1.43,0,0,1-.58.2,9.07,9.07,0,0,0-1.38.28,1.25,1.25,0,0,0-.65.6,3.34,3.34,0,0,0-.32,1.32h0a1.71,1.71,0,0,1,1.5-.77,1.86,1.86,0,0,1,1.44.61,2.7,2.7,0,0,1,0,3.28,2,2,0,0,1-1.53.62,1.9,1.9,0,0,1-1.6-.73,3.44,3.44,0,0,1-.56-2.11,6.69,6.69,0,0,1,.21-1.8,2.51,2.51,0,0,1,.56-1.11,2,2,0,0,1,.79-.52,14.73,14.73,0,0,1,1.5-.33A2.25,2.25,0,0,0,56.62,319.45Zm-2.94,3.79v.62a2.26,2.26,0,0,0,.11.69,1.68,1.68,0,0,0,.29.6,1.16,1.16,0,0,0,.44.39,1.38,1.38,0,0,0,.59.13,1.19,1.19,0,0,0,1-.45,1.75,1.75,0,0,0,.37-1.16,1.85,1.85,0,0,0-.38-1.23,1.26,1.26,0,0,0-1-.45A1.48,1.48,0,0,0,53.68,323.24Z" fill="#008bfd"/><path d="M62.12,326.17h-.65v-3.59c-.06.12-.16.3-.29.53l-2.08,3.06h-.75v-4.5H59v3.54c0-.08.11-.23.23-.43l2.14-3.11h.74Z" fill="#008bfd"/><path d="M66.87,326.17h-.72v-3.89H65.1a9.47,9.47,0,0,1-.61,3.07,1.33,1.33,0,0,1-1.18.88,1.14,1.14,0,0,1-.39-.06v-.62a.81.81,0,0,0,.34.08c.64,0,1.06-1.32,1.24-4h2.37Z" fill="#008bfd"/><path d="M68.32,326.17v-4.5H69v1.72h1.22a1.58,1.58,0,0,1,1.09.37,1.24,1.24,0,0,1,.41,1,1.35,1.35,0,0,1-.41,1,1.45,1.45,0,0,1-1,.38ZM69,324v1.54h1.09c.59,0,.89-.26.89-.79s-.3-.75-.9-.75Z" fill="#008bfd"/><path d="M76.59,326.17h-.72v-2.05H73.58v2.05h-.72v-4.5h.72v1.84h2.29v-1.84h.72Z" fill="#008bfd"/><path d="M79.93,326.27a2.09,2.09,0,0,1-1.59-.63,2.32,2.32,0,0,1-.59-1.67,2.39,2.39,0,0,1,.62-1.77,2.2,2.2,0,0,1,1.67-.64,2,2,0,0,1,1.57.62,2.46,2.46,0,0,1,.57,1.72,2.42,2.42,0,0,1-.61,1.72A2.12,2.12,0,0,1,79.93,326.27Zm.06-4.1a1.38,1.38,0,0,0-1.1.47,2,2,0,0,0-.41,1.3,1.82,1.82,0,0,0,.41,1.26,1.41,1.41,0,0,0,1.1.47,1.3,1.3,0,0,0,1.07-.46,2,2,0,0,0,.38-1.28,2,2,0,0,0-.38-1.3A1.3,1.3,0,0,0,80,322.17Z" fill="#008bfd"/><path d="M86.94,324.1H83.77a1.66,1.66,0,0,0,.4,1.16,1.4,1.4,0,0,0,1.06.41,2.22,2.22,0,0,0,1.4-.5v.67a2.59,2.59,0,0,1-1.57.43,1.92,1.92,0,0,1-1.5-.61,2.52,2.52,0,0,1-.54-1.72,2.45,2.45,0,0,1,.6-1.72,1.88,1.88,0,0,1,1.47-.66,1.7,1.7,0,0,1,1.37.57,2.4,2.4,0,0,1,.48,1.59Zm-.73-.61a1.48,1.48,0,0,0-.31-1,1,1,0,0,0-.82-.35,1.19,1.19,0,0,0-.87.36,1.67,1.67,0,0,0-.43,1Z" fill="#008bfd"/><path d="M41.5,337h-.72v-3.89H38.49V337h-.72v-4.5H41.5Z" fill="#008bfd"/><path d="M43.7,336.32h0V339H43v-6.57h.72v.79h0a1.72,1.72,0,0,1,1.56-.9,1.64,1.64,0,0,1,1.36.61,2.52,2.52,0,0,1,.48,1.62,2.74,2.74,0,0,1-.55,1.8,1.79,1.79,0,0,1-1.5.68A1.52,1.52,0,0,1,43.7,336.32Zm0-1.82v.63a1.36,1.36,0,0,0,.37.95A1.29,1.29,0,0,0,46,336a2.31,2.31,0,0,0,.38-1.4A1.79,1.79,0,0,0,46,333.4a1.14,1.14,0,0,0-.94-.43,1.24,1.24,0,0,0-1,.44A1.57,1.57,0,0,0,43.68,334.5Z" fill="#008bfd"/><path d="M52,337h-.65v-3.59l-.3.53L49,337h-.75v-4.5h.66V336l.23-.43,2.14-3.11H52Z" fill="#008bfd"/><path d="M56.77,337h-.72v-3.89H55a9.47,9.47,0,0,1-.61,3.07,1.34,1.34,0,0,1-1.18.88,1,1,0,0,1-.38-.06v-.62a.73.73,0,0,0,.33.08c.64,0,1.06-1.32,1.24-4h2.37Z" fill="#008bfd"/><path d="M60.11,337.07a2.1,2.1,0,0,1-1.6-.63,2.36,2.36,0,0,1-.59-1.67,2.43,2.43,0,0,1,.62-1.77,2.2,2.2,0,0,1,1.67-.64,2,2,0,0,1,1.57.62,2.46,2.46,0,0,1,.57,1.72,2.38,2.38,0,0,1-.61,1.72A2.11,2.11,0,0,1,60.11,337.07Zm0-4.1a1.39,1.39,0,0,0-1.1.47,1.94,1.94,0,0,0-.4,1.3,1.77,1.77,0,0,0,.41,1.26,1.37,1.37,0,0,0,1.09.47,1.28,1.28,0,0,0,1.07-.46,2,2,0,0,0,.38-1.28,2,2,0,0,0-.38-1.3A1.28,1.28,0,0,0,60.16,333Z" fill="#008bfd"/><path d="M69.48,337h-1l-2-2.23h0V337h-.69v-2.23h0l-2,2.23h-1L65,334.65l-2.1-2.18h.92l1.93,2.1h0v-2.1h.69v2.1h0l1.92-2.1h.93l-2.11,2.18Z" fill="#008bfd"/><path d="M73.83,334.9H70.65a1.71,1.71,0,0,0,.41,1.16,1.4,1.4,0,0,0,1.06.41,2.24,2.24,0,0,0,1.4-.5v.67a2.61,2.61,0,0,1-1.57.43,1.89,1.89,0,0,1-1.5-.61,2.53,2.53,0,0,1-.54-1.73A2.44,2.44,0,0,1,70.5,333a1.92,1.92,0,0,1,1.48-.66,1.7,1.7,0,0,1,1.37.57,2.4,2.4,0,0,1,.48,1.59Zm-.74-.61a1.43,1.43,0,0,0-.3-1A1,1,0,0,0,72,333a1.19,1.19,0,0,0-.87.36,1.68,1.68,0,0,0-.44,1Z" fill="#008bfd"/><path d="M78.66,337h-.72v-2.05h-2.3V337h-.72v-4.5h.72v1.84h2.3v-1.84h.72Z" fill="#008bfd"/><path d="M83.89,337h-.65v-3.59l-.3.53L80.86,337h-.74v-4.5h.65V336l.23-.43,2.14-3.11h.75Z" fill="#008bfd"/><path d="M89,334.9H85.78a1.71,1.71,0,0,0,.41,1.16,1.4,1.4,0,0,0,1.06.41,2.24,2.24,0,0,0,1.4-.5v.67a2.61,2.61,0,0,1-1.57.43,1.9,1.9,0,0,1-1.5-.61,2.53,2.53,0,0,1-.54-1.73,2.48,2.48,0,0,1,.59-1.71,1.92,1.92,0,0,1,1.48-.66,1.7,1.7,0,0,1,1.37.57,2.4,2.4,0,0,1,.48,1.59Zm-.74-.61a1.43,1.43,0,0,0-.3-1,1,1,0,0,0-.82-.35,1.19,1.19,0,0,0-.87.36,1.75,1.75,0,0,0-.44,1Z" fill="#008bfd"/></g></g><path d="M275.36,292.72l8,4-8,4a9.08,9.08,0,0,0,0-8" fill="#505050"/><path d="M67.79,384.27H53.58V355.89H67.79v7.68h.76v-8.44H52.82V385H68.55v-2.32h-.76Z" fill="#0078d7"/><path d="M67,356.69H54.38v4.58H67Zm-9.58,1.91H64v.76H57.44ZM64,360.45H57.41v-.77H64Z" fill="#0078d7"/><path d="M54.34,362v3h8.6v-1.53H67V362Z" fill="#0078d7"/><rect x="54.34" y="365.86" width="8.6" height="2.68" fill="#0078d7"/><path d="M54.34,383.5H67v-.79H62.91V369.33h-8.6V383.5Zm1.53-2.74h2.29V382H55.87Z" fill="#0078d7"/><path d="M77.57,380.45H75.11v-1.88H72.6v1.88H70.15a1.32,1.32,0,0,0-1.31,1.14h10A1.28,1.28,0,0,0,77.57,380.45Z" fill="#0078d7"/><path d="M82.4,366.47H65.3a.64.64,0,0,0-.67.6V377.2a.64.64,0,0,0,.67.6H82.4a.64.64,0,0,0,.67-.6V367.07A.62.62,0,0,0,82.4,366.47Zm-1,9.84H66.32V368H81.38Z" fill="#0078d7"/><path d="M77.76,373.82v-3.44l-3.51-1.85-3.5,1.78v3.54l3.5,1.81Zm-4.4-2.3.89-.44.86.44-.86.48Zm0-1.14.86-.45.86.45-.86.47Zm1.91,4.52-1,.51v-.93l1-.5Zm0-1.18-1,.51v-.92l1-.51Zm0-1.11-1,.51v-.93l1-.51ZM74.48,371l.86-.45.89.45-.86.45Zm2,3.34-1,.51v-.92l1-.51Zm0-1.17-1,.5v-.92l1-.51Zm0-1.15-1,.51v-.89l1-.51Zm1,1.75-.86.45v-.93l.86-.44Zm0-1.15-.86.45v-.92l.86-.45Zm0-1.14-.86.44V371l.86-.45Zm-.19-1.05-.89.44-.89-.44.86-.45Zm-1.11-.58-.89.45-.86-.45.86-.44Zm-2-1.05.86.45-.86.44-.89-.44Zm-1.11.61.86.44-.86.45-.86-.45Zm-1.08.57.89.45-.89.44-.9-.44Zm-.26,4.27-.86-.45v-.92l.86.44Zm0-1.18-.86-.45v-.92l.86.45Zm0-1.15-.86-.44v-.89l.86.44ZM73,374.8l-1-.51v-.92l1,.51Zm0-1.18-1-.5v-.93l1,.51Zm0-1.14L72,372v-.89l1,.51Zm-.7-1.53.89-.45L74,371l-.89.48Zm1.88,4.46-1-.51V374l1,.51Zm0-1.15-1-.51v-.92l1,.51Zm0-1.14-1-.51v-.93l1,.51Z" fill="#0078d7"/><g style="isolation:isolate"><path d="M43.29,394.88h-1L39.83,392a1.91,1.91,0,0,1-.17-.22h0v3.1H38.9v-6.3h.74v3h0a2.22,2.22,0,0,1,.17-.22l2.35-2.74h.92l-2.7,3Z" fill="#0078d7"/><path d="M47.31,394.88h-.72V391h-1a9.35,9.35,0,0,1-.62,3.07,1.31,1.31,0,0,1-1.17.88,1.14,1.14,0,0,1-.39-.06v-.62a.73.73,0,0,0,.33.08c.65,0,1.06-1.32,1.25-4h2.36Z" fill="#0078d7"/><path d="M52,394.88h-.72v-.7h0a1.49,1.49,0,0,1-1.38.8,1.45,1.45,0,0,1-1-.35,1.21,1.21,0,0,1-.38-.95c0-.84.49-1.33,1.48-1.46l1.35-.19c0-.77-.31-1.15-.93-1.15a2.23,2.23,0,0,0-1.46.55v-.73a2.7,2.7,0,0,1,1.52-.43Q52,390.27,52,392Zm-.72-2.28-1.08.15a1.78,1.78,0,0,0-.76.25.72.72,0,0,0-.26.63.68.68,0,0,0,.24.54.9.9,0,0,0,.63.21,1.16,1.16,0,0,0,.88-.38,1.34,1.34,0,0,0,.35-.95Z" fill="#0078d7"/><path d="M56.42,394.67a2.34,2.34,0,0,1-1.23.31,2,2,0,0,1-1.56-.62,2.3,2.3,0,0,1-.59-1.63,2.46,2.46,0,0,1,.64-1.78,2.22,2.22,0,0,1,1.7-.68,2.53,2.53,0,0,1,1,.22v.74a1.9,1.9,0,0,0-1.08-.35,1.46,1.46,0,0,0-1.13.5,1.89,1.89,0,0,0-.44,1.29,1.81,1.81,0,0,0,.41,1.25,1.43,1.43,0,0,0,1.12.46,1.83,1.83,0,0,0,1.11-.39Z" fill="#0078d7"/><path d="M60.57,394.67a2.29,2.29,0,0,1-1.23.31,2,2,0,0,1-1.55-.62,2.3,2.3,0,0,1-.59-1.63,2.46,2.46,0,0,1,.64-1.78,2.22,2.22,0,0,1,1.7-.68,2.45,2.45,0,0,1,1,.22v.74a1.85,1.85,0,0,0-1.07-.35,1.44,1.44,0,0,0-1.13.5,1.84,1.84,0,0,0-.44,1.29,1.81,1.81,0,0,0,.41,1.25,1.43,1.43,0,0,0,1.12.46,1.78,1.78,0,0,0,1.1-.39Z" fill="#0078d7"/><path d="M65.43,394.88h-.65v-3.59c-.06.13-.16.3-.29.53l-2.08,3.06h-.75v-4.5h.66v3.55c0-.09.11-.23.23-.44l2.14-3.11h.74Z" fill="#0078d7"/><path d="M70.52,394.88H69.8v-1.81a3.05,3.05,0,0,1-1.46.43c-1,0-1.51-.53-1.51-1.6v-1.52h.72v1.49c0,.65.29,1,.85,1a3.12,3.12,0,0,0,1.4-.37v-2.1h.72Z" fill="#0078d7"/><path d="M75.59,392.81H72.42a1.66,1.66,0,0,0,.4,1.16,1.4,1.4,0,0,0,1.06.41,2.22,2.22,0,0,0,1.4-.5v.68a2.65,2.65,0,0,1-1.57.42,1.92,1.92,0,0,1-1.5-.61,2.52,2.52,0,0,1-.54-1.72,2.44,2.44,0,0,1,.6-1.71,1.87,1.87,0,0,1,1.47-.67,1.7,1.7,0,0,1,1.37.58,2.37,2.37,0,0,1,.48,1.58Zm-.73-.61a1.48,1.48,0,0,0-.31-1,1,1,0,0,0-.82-.35,1.15,1.15,0,0,0-.86.36,1.65,1.65,0,0,0-.44,1Z" fill="#0078d7"/><path d="M79.75,394.67a2.29,2.29,0,0,1-1.23.31,2,2,0,0,1-1.55-.62,2.25,2.25,0,0,1-.59-1.63A2.5,2.5,0,0,1,77,391a2.25,2.25,0,0,1,1.7-.68,2.46,2.46,0,0,1,1.05.22v.74a1.85,1.85,0,0,0-1.07-.35,1.44,1.44,0,0,0-1.13.5,1.84,1.84,0,0,0-.45,1.29,1.77,1.77,0,0,0,.42,1.25,1.42,1.42,0,0,0,1.11.46,1.79,1.79,0,0,0,1.11-.39Z" fill="#0078d7"/><path d="M84.58,394.88h-1l-2-2.16h0v2.16h-.72v-4.5h.72v2.06h0l1.89-2.06h.94l-2.08,2.17Z" fill="#0078d7"/><path d="M87.2,395a2.07,2.07,0,0,1-1.6-.63,2.35,2.35,0,0,1-.59-1.67,2.42,2.42,0,0,1,.62-1.77,2.24,2.24,0,0,1,1.67-.64,2,2,0,0,1,1.57.62,2.82,2.82,0,0,1,0,3.45A2.14,2.14,0,0,1,87.2,395Zm0-4.1a1.39,1.39,0,0,0-1.1.47,2,2,0,0,0-.4,1.31,1.85,1.85,0,0,0,.4,1.26,1.4,1.4,0,0,0,1.1.46,1.32,1.32,0,0,0,1.07-.45,2,2,0,0,0,.38-1.29,2,2,0,0,0-.38-1.3A1.3,1.3,0,0,0,87.25,390.88Z" fill="#0078d7"/><path d="M94.21,392.81H91a1.66,1.66,0,0,0,.4,1.16,1.41,1.41,0,0,0,1.07.41,2.22,2.22,0,0,0,1.39-.5v.68a2.65,2.65,0,0,1-1.57.42,1.88,1.88,0,0,1-1.49-.61,2.47,2.47,0,0,1-.55-1.72,2.44,2.44,0,0,1,.6-1.71,1.87,1.87,0,0,1,1.47-.67,1.7,1.7,0,0,1,1.37.58,2.37,2.37,0,0,1,.49,1.58Zm-.74-.61a1.54,1.54,0,0,0-.3-1,1.05,1.05,0,0,0-.83-.35,1.15,1.15,0,0,0-.86.36,1.65,1.65,0,0,0-.44,1Z" fill="#0078d7"/><path d="M44.65,405.68h-.73V401.8H41.63v3.88h-.72v-4.5h3.74Z" fill="#0078d7"/><path d="M46.84,405h0v2.72H46.1v-6.57h.73V402h0a1.72,1.72,0,0,1,1.56-.9,1.67,1.67,0,0,1,1.36.61,2.52,2.52,0,0,1,.48,1.62,2.79,2.79,0,0,1-.55,1.81,1.82,1.82,0,0,1-1.5.68A1.53,1.53,0,0,1,46.84,405Zm0-1.81v.62a1.34,1.34,0,0,0,.36,1,1.29,1.29,0,0,0,1.94-.11,2.29,2.29,0,0,0,.38-1.39,1.8,1.8,0,0,0-.35-1.18,1.14,1.14,0,0,0-.94-.43,1.27,1.27,0,0,0-1,.44A1.59,1.59,0,0,0,46.83,403.22Z" fill="#0078d7"/><path d="M55.17,405.68h-.65v-3.59l-.3.53-2.08,3.06H51.4v-4.5h.65v3.55c0-.09.12-.23.23-.44l2.14-3.11h.75Z" fill="#0078d7"/><path d="M59.91,405.68h-.72v-3.89h-1a9.35,9.35,0,0,1-.62,3.07,1.32,1.32,0,0,1-1.18.88,1,1,0,0,1-.38-.06v-.62a.73.73,0,0,0,.33.08c.64,0,1.06-1.32,1.24-4h2.37Z" fill="#0078d7"/><path d="M63.25,405.79a2.07,2.07,0,0,1-1.6-.64,2.35,2.35,0,0,1-.59-1.67,2.46,2.46,0,0,1,.62-1.77,2.24,2.24,0,0,1,1.67-.64,2,2,0,0,1,1.57.62,2.46,2.46,0,0,1,.57,1.72,2.41,2.41,0,0,1-.61,1.73A2.15,2.15,0,0,1,63.25,405.79Zm0-4.11a1.39,1.39,0,0,0-1.1.47,2,2,0,0,0-.4,1.31,1.81,1.81,0,0,0,.41,1.26,1.36,1.36,0,0,0,1.09.46,1.31,1.31,0,0,0,1.07-.45,1.91,1.91,0,0,0,.38-1.29,1.94,1.94,0,0,0-.38-1.3A1.28,1.28,0,0,0,63.3,401.68Z" fill="#0078d7"/><path d="M72.62,405.68h-1l-2-2.22h0v2.22h-.68v-2.22h0l-2,2.22h-1l2.23-2.32-2.1-2.18H67l1.93,2.11h0v-2.11h.68v2.11h0l1.92-2.11h.93l-2.1,2.18Z" fill="#0078d7"/><path d="M77,403.61H73.79a1.71,1.71,0,0,0,.41,1.16,1.4,1.4,0,0,0,1.06.41,2.24,2.24,0,0,0,1.4-.5v.68a2.68,2.68,0,0,1-1.57.43,1.92,1.92,0,0,1-1.5-.62,2.52,2.52,0,0,1-.54-1.72,2.48,2.48,0,0,1,.59-1.71,1.93,1.93,0,0,1,1.48-.67,1.7,1.7,0,0,1,1.37.58,2.39,2.39,0,0,1,.48,1.58Zm-.74-.61a1.43,1.43,0,0,0-.3-1,1,1,0,0,0-.82-.35,1.16,1.16,0,0,0-.87.37,1.72,1.72,0,0,0-.44.95Z" fill="#0078d7"/><path d="M81.8,405.68h-.72v-2h-2.3v2h-.72v-4.5h.72V403h2.3v-1.85h.72Z" fill="#0078d7"/><path d="M87,405.68h-.65v-3.59l-.3.53L84,405.68h-.74v-4.5h.66v3.55a4.3,4.3,0,0,1,.22-.44l2.14-3.11H87Z" fill="#0078d7"/><path d="M92.1,403.61H88.92a1.71,1.71,0,0,0,.41,1.16,1.4,1.4,0,0,0,1.06.41,2.22,2.22,0,0,0,1.4-.5v.68a2.68,2.68,0,0,1-1.57.43,1.92,1.92,0,0,1-1.5-.62,2.52,2.52,0,0,1-.54-1.72,2.48,2.48,0,0,1,.59-1.71,1.93,1.93,0,0,1,1.48-.67,1.7,1.7,0,0,1,1.37.58,2.39,2.39,0,0,1,.48,1.58Zm-.74-.61a1.43,1.43,0,0,0-.3-1,1,1,0,0,0-.82-.35,1.16,1.16,0,0,0-.87.37,1.72,1.72,0,0,0-.44.95Z" fill="#0078d7"/></g><path d="M7.85,152.05a4.49,4.49,0,0,0-3,5.66c.66,2.56,3,4.22,5.27,3.67a4.49,4.49,0,0,0,3-5.66C12.57,153.05,10.16,151.39,7.85,152.05Z" fill="#008bfd"/><path d="M12.78,162.07c-.43,0-.88.77-1.54,1.11s-1.31.88-3.17,0-2.1-1.67-3.64-1.67-4,2.78-4,6.88H16a12.24,12.24,0,0,0-1.11-4.22C13.77,162.07,13.23,162.07,12.78,162.07Z" fill="#008bfd"/><path d="M14.19,157.12H10.07a.71.71,0,0,0-.65.66v2.85a.73.73,0,0,0,.76.66h.76v5.15a1,1,0,0,0,1,1.09,1,1,0,0,0,1-1h.21v-.66c0-.22.33-.33.33-.33v-.33c-.33-.11-.54-.33-.54-.44v-.32l.21-.22a3.53,3.53,0,0,0,.33-.55,2.4,2.4,0,0,1-.33-.55c-.1-.11-.1-.33-.21-.44v-.22a2.52,2.52,0,0,1,.76-1.09h.54a.71.71,0,0,0,.65-.66v-3A.63.63,0,0,0,14.19,157.12Zm-2.39,9.54c0,.22,0,.33-.21.33s-.22-.22-.22-.33v-4.82c0-.22.11-.33.22-.33s.21.22.21.33Zm.33-7.78a.66.66,0,0,1,0-1.32.71.71,0,0,1,.65.66A.63.63,0,0,1,12.13,158.88Z" fill="#008bfd" stroke="gray" stroke-linecap="round" stroke-linejoin="round" stroke-width="0.75"/><path d="M11.57,167a.24.24,0,0,1-.22-.22v-5a.22.22,0,1,1,.44,0v5.1C11.79,167,11.68,167,11.57,167Z" fill="#fff"/><ellipse cx="12.14" cy="158.2" rx="0.66" ry="0.67" fill="#fff"/><path d="M275.36,292.71l8,4-8,4a9.06,9.06,0,0,0,0-8" fill="#505050"/><path d="M275.37,292.71l8,4-8,4a9,9,0,0,0,0-8" fill="#505050"/><path d="M275.37,292.71l8,4-8,4a9,9,0,0,0,0-8" fill="#505050"/><path d="M275.37,292.71l8,4-8,4a9,9,0,0,0,0-8" fill="#505050"/><path d="M403.6,284H383.1a1.1,1.1,0,0,0-1.09,1.11v16.74a1.09,1.09,0,0,0,1.09,1.1h5.28a3.29,3.29,0,0,0,3.21,2.27,3.38,3.38,0,0,0,0-6.75,3.29,3.29,0,0,0-3.21,2.27h-4.19v-12H402.5v12h-3.45a7.61,7.61,0,0,0-7.46-6.56,8.25,8.25,0,0,0-3.64.92l1,2a5.27,5.27,0,0,1,2.55-.67,5.46,5.46,0,0,1,0,10.92,5.28,5.28,0,0,1-2.55-.68l-1,2a7.4,7.4,0,0,0,3.64.92,7.61,7.61,0,0,0,7.46-6.56h4.55a1.09,1.09,0,0,0,1.09-1.1V285.08A1.14,1.14,0,0,0,403.6,284Z" fill="#008bfd"/><g style="isolation:isolate"><path d="M373.22,322h-.75v-5.62h-3.29V322h-.75v-6.31h4.79Z" fill="#008bfd"/><path d="M375.27,321.34h0v2.72h-.72v-6.57h.72v.79h0a1.69,1.69,0,0,1,1.55-.9,1.65,1.65,0,0,1,1.36.6,2.5,2.5,0,0,1,.49,1.62,2.75,2.75,0,0,1-.55,1.81,1.84,1.84,0,0,1-1.5.68A1.49,1.49,0,0,1,375.27,321.34Zm0-1.82v.63a1.36,1.36,0,0,0,.36,1,1.31,1.31,0,0,0,1.95-.12,2.25,2.25,0,0,0,.37-1.39,1.84,1.84,0,0,0-.35-1.18,1.15,1.15,0,0,0-.94-.42,1.28,1.28,0,0,0-1,.43A1.65,1.65,0,0,0,375.25,319.52Z" fill="#008bfd"/><path d="M383.37,322h-.66V318.4c-.06.12-.16.3-.29.53L380.34,322h-.75v-4.5h.66V321l.23-.43,2.14-3.11h.75Z" fill="#008bfd"/><path d="M387.88,322h-.71V318.1h-1.05a9.27,9.27,0,0,1-.62,3.06,1.32,1.32,0,0,1-1.17.89,1.14,1.14,0,0,1-.39-.06v-.62a.72.72,0,0,0,.33.07c.65,0,1.06-1.31,1.25-3.95h2.36Z" fill="#008bfd"/><path d="M391,322.09a2.1,2.1,0,0,1-1.6-.63,2.36,2.36,0,0,1-.59-1.67,2.39,2.39,0,0,1,.62-1.77,2.2,2.2,0,0,1,1.67-.64,2,2,0,0,1,1.57.62,2.45,2.45,0,0,1,.57,1.72,2.38,2.38,0,0,1-.61,1.72A2.11,2.11,0,0,1,391,322.09Zm.05-4.1a1.36,1.36,0,0,0-1.1.47,1.93,1.93,0,0,0-.4,1.3A1.77,1.77,0,0,0,390,321a1.36,1.36,0,0,0,1.09.46,1.31,1.31,0,0,0,1.07-.45,1.91,1.91,0,0,0,.38-1.29,2,2,0,0,0-.38-1.3A1.31,1.31,0,0,0,391.05,318Z" fill="#008bfd"/><path d="M400.14,322h-1l-2-2.23h0V322h-.68v-2.23h0l-2,2.23h-1l2.23-2.32-2.09-2.18h.92l1.92,2.1h0v-2.1h.68v2.1h0l1.93-2.1H400l-2.1,2.18Z" fill="#008bfd"/><path d="M404.27,319.92h-3.18a1.73,1.73,0,0,0,.41,1.16,1.39,1.39,0,0,0,1.06.4,2.19,2.19,0,0,0,1.4-.5v.68a2.61,2.61,0,0,1-1.57.43,1.89,1.89,0,0,1-1.5-.61,2.54,2.54,0,0,1-.54-1.73,2.44,2.44,0,0,1,.59-1.71,1.92,1.92,0,0,1,1.48-.66,1.71,1.71,0,0,1,1.37.57,2.4,2.4,0,0,1,.48,1.59Zm-.74-.61a1.47,1.47,0,0,0-.3-1,1,1,0,0,0-.82-.34,1.19,1.19,0,0,0-.87.36,1.68,1.68,0,0,0-.44,1Z" fill="#008bfd"/><path d="M408.87,322h-.72v-2.05h-2.29V322h-.72v-4.5h.72v1.84h2.29v-1.84h.72Z" fill="#008bfd"/><path d="M413.88,322h-.65V318.4l-.3.53L410.85,322h-.74v-4.5h.65V321l.23-.43,2.14-3.11h.75Z" fill="#008bfd"/><path d="M418.73,319.92h-3.18a1.73,1.73,0,0,0,.4,1.16,1.42,1.42,0,0,0,1.07.4,2.16,2.16,0,0,0,1.39-.5v.68a2.55,2.55,0,0,1-1.56.43,1.89,1.89,0,0,1-1.5-.61,2.5,2.5,0,0,1-.55-1.73,2.44,2.44,0,0,1,.6-1.71,1.9,1.9,0,0,1,1.48-.66,1.69,1.69,0,0,1,1.36.57,2.35,2.35,0,0,1,.49,1.59Zm-.74-.61a1.53,1.53,0,0,0-.3-1,1,1,0,0,0-.83-.34,1.15,1.15,0,0,0-.86.36,1.62,1.62,0,0,0-.44,1Z" fill="#008bfd"/><path d="M392.66,332.79h-.82l-.67-1.77H388.5l-.63,1.77h-.82l2.42-6.31h.76Zm-1.73-2.43-1-2.69c0-.09-.06-.23-.1-.42h0a2.07,2.07,0,0,1-.11.42l-1,2.69Z" fill="#008bfd"/><path d="M394.1,330.4v2.39h-.74v-6.31h1.73a2.29,2.29,0,0,1,1.57.5,1.74,1.74,0,0,1,.55,1.38,1.88,1.88,0,0,1-.62,1.47,2.34,2.34,0,0,1-1.66.57Zm0-3.25v2.59h.77a1.76,1.76,0,0,0,1.17-.35,1.29,1.29,0,0,0,.4-1c0-.83-.49-1.25-1.48-1.25Z" fill="#008bfd"/><path d="M398.91,332.79h-.74v-6.31h.74Z" fill="#008bfd"/></g><path d="M373.53,292.71l8,4-8,4a9.08,9.08,0,0,0,0-8" fill="#505050"/><path d="M10.33,216.18a4.49,4.49,0,0,0-3,5.66c.66,2.56,3,4.22,5.27,3.67a4.49,4.49,0,0,0,3-5.66C15.05,217.18,12.64,215.52,10.33,216.18Z" fill="#008bfd"/><path d="M15.27,226.2c-.44,0-.88.77-1.54,1.11s-1.32.88-3.18,0-2.09-1.67-3.63-1.67-4.06,2.78-4.06,6.88H18.45a12.14,12.14,0,0,0-1.1-4.22C16.25,226.2,15.71,226.2,15.27,226.2Z" fill="#008bfd"/><path d="M16.67,221.25H12.55a.71.71,0,0,0-.65.66v2.85a.73.73,0,0,0,.76.66h.76v5.15a1,1,0,0,0,1,1.09,1,1,0,0,0,1-1h.21V230c0-.22.33-.33.33-.33v-.33c-.33-.11-.54-.33-.54-.44v-.32l.21-.22a3.53,3.53,0,0,0,.33-.55,2.4,2.4,0,0,1-.33-.55c-.1-.11-.1-.33-.21-.44v-.22a2.52,2.52,0,0,1,.76-1.09h.54a.71.71,0,0,0,.65-.66v-3A.63.63,0,0,0,16.67,221.25Zm-2.39,9.54c0,.22,0,.33-.21.33s-.22-.22-.22-.33V226c0-.22.11-.33.22-.33s.21.22.21.33Zm.33-7.78a.66.66,0,0,1,0-1.32.71.71,0,0,1,.65.66A.63.63,0,0,1,14.61,223Z" fill="#008bfd" stroke="gray" stroke-linecap="round" stroke-linejoin="round" stroke-width="0.75"/><path d="M14.05,231.09a.24.24,0,0,1-.22-.22v-5a.22.22,0,1,1,.44,0V231C14.27,231.09,14.16,231.09,14.05,231.09Z" fill="#fff"/><ellipse cx="14.62" cy="222.34" rx="0.66" ry="0.67" fill="#fff"/><path d="M7.85,76.58a4.49,4.49,0,0,0-3,5.66c.66,2.56,3,4.22,5.27,3.67a4.49,4.49,0,0,0,3-5.66C12.57,77.58,10.16,75.92,7.85,76.58Z" fill="#008bfd"/><path d="M12.78,86.6c-.43,0-.88.77-1.54,1.11s-1.31.88-3.17,0S6,86,4.43,86s-4,2.78-4,6.88H16a12.24,12.24,0,0,0-1.11-4.22C13.77,86.6,13.23,86.6,12.78,86.6Z" fill="#008bfd"/><path d="M14.19,81.65H10.07a.71.71,0,0,0-.65.66v2.85a.73.73,0,0,0,.76.66h.76V91a1,1,0,0,0,1,1.09,1,1,0,0,0,1-1h.21v-.66c0-.22.33-.33.33-.33v-.33c-.33-.11-.54-.33-.54-.44V89l.21-.22a3.53,3.53,0,0,0,.33-.55,2.4,2.4,0,0,1-.33-.55c-.1-.11-.1-.33-.21-.44V87a2.52,2.52,0,0,1,.76-1.09h.54a.71.71,0,0,0,.65-.66v-3A.63.63,0,0,0,14.19,81.65ZM11.8,91.19c0,.22,0,.33-.21.33s-.22-.22-.22-.33V86.37c0-.22.11-.33.22-.33s.21.22.21.33Zm.33-7.78a.66.66,0,0,1,0-1.32.71.71,0,0,1,.65.66A.63.63,0,0,1,12.13,83.41Z" fill="#008bfd" stroke="gray" stroke-linecap="round" stroke-linejoin="round" stroke-width="0.75"/><path d="M11.57,91.49a.24.24,0,0,1-.22-.22v-5a.22.22,0,1,1,.44,0v5.1C11.79,91.49,11.68,91.49,11.57,91.49Z" fill="#fff"/><ellipse cx="12.14" cy="82.73" rx="0.66" ry="0.67" fill="#fff"/><path d="M10.33,368.69a4.49,4.49,0,0,0-3,5.66c.66,2.56,3,4.22,5.27,3.67a4.49,4.49,0,0,0,3-5.66C15.05,369.69,12.64,368,10.33,368.69Z" fill="#008bfd"/><path d="M15.27,378.71c-.44,0-.88.77-1.54,1.11s-1.32.88-3.18,0-2.09-1.67-3.63-1.67S2.86,380.93,2.86,385H18.45a12.14,12.14,0,0,0-1.1-4.22C16.25,378.71,15.71,378.71,15.27,378.71Z" fill="#008bfd"/><path d="M16.67,373.76H12.55a.71.71,0,0,0-.65.66v2.85a.73.73,0,0,0,.76.66h.76v5.15a1,1,0,0,0,1,1.09,1,1,0,0,0,1-1h.21v-.66c0-.22.33-.33.33-.33v-.33c-.33-.11-.54-.33-.54-.44v-.32l.21-.22a3.53,3.53,0,0,0,.33-.55,2.4,2.4,0,0,1-.33-.55c-.1-.11-.1-.33-.21-.44v-.22a2.52,2.52,0,0,1,.76-1.09h.54a.71.71,0,0,0,.65-.66v-3A.63.63,0,0,0,16.67,373.76Zm-2.39,9.54c0,.22,0,.33-.21.33s-.22-.22-.22-.33v-4.82c0-.22.11-.33.22-.33s.21.22.21.33Zm.33-7.78a.66.66,0,0,1,0-1.32.71.71,0,0,1,.65.66A.63.63,0,0,1,14.61,375.52Z" fill="#008bfd" stroke="gray" stroke-linecap="round" stroke-linejoin="round" stroke-width="0.75"/><path d="M14.05,383.6a.24.24,0,0,1-.22-.22v-5a.22.22,0,1,1,.44,0v5.1C14.27,383.6,14.16,383.6,14.05,383.6Z" fill="#fff"/><ellipse cx="14.62" cy="374.84" rx="0.66" ry="0.67" fill="#fff"/><path d="M10.33,431.4a4.49,4.49,0,0,0-3,5.66c.66,2.56,3,4.22,5.27,3.67a4.49,4.49,0,0,0,3-5.66C15.05,432.4,12.64,430.74,10.33,431.4Z" fill="#008bfd"/><path d="M15.27,441.42c-.44,0-.88.77-1.54,1.11s-1.32.88-3.18,0-2.09-1.67-3.63-1.67-4.06,2.78-4.06,6.88H18.45a12.14,12.14,0,0,0-1.1-4.22C16.25,441.42,15.71,441.42,15.27,441.42Z" fill="#008bfd"/><path d="M16.67,436.47H12.55a.71.71,0,0,0-.65.66V440a.73.73,0,0,0,.76.66h.76v5.15a1,1,0,0,0,1,1.09,1,1,0,0,0,1-1h.21v-.66c0-.22.33-.33.33-.33v-.33c-.33-.11-.54-.33-.54-.44v-.32l.21-.22a3.53,3.53,0,0,0,.33-.55,2.4,2.4,0,0,1-.33-.55c-.1-.11-.1-.33-.21-.44v-.22a2.52,2.52,0,0,1,.76-1.09h.54a.71.71,0,0,0,.65-.66v-3A.63.63,0,0,0,16.67,436.47ZM14.28,446c0,.22,0,.33-.21.33s-.22-.22-.22-.33v-4.82c0-.22.11-.33.22-.33s.21.22.21.33Zm.33-7.78a.66.66,0,0,1,0-1.32.71.71,0,0,1,.65.66A.63.63,0,0,1,14.61,438.23Z" fill="#008bfd" stroke="gray" stroke-linecap="round" stroke-linejoin="round" stroke-width="0.75"/><path d="M14.05,446.31a.24.24,0,0,1-.22-.22v-5a.22.22,0,1,1,.44,0v5.1C14.27,446.31,14.16,446.31,14.05,446.31Z" fill="#fff"/><ellipse cx="14.62" cy="437.56" rx="0.66" ry="0.67" fill="#fff"/><g style="isolation:isolate"><path d="M31,41.39a2.74,2.74,0,0,1-2.14-.88,3.28,3.28,0,0,1-.81-2.3,3.49,3.49,0,0,1,.82-2.43,2.88,2.88,0,0,1,2.24-.9,2.68,2.68,0,0,1,2.1.88,3.28,3.28,0,0,1,.8,2.29,3.49,3.49,0,0,1-.82,2.44A2.8,2.8,0,0,1,31,41.39Zm.05-5.84a2,2,0,0,0-1.61.71,3.18,3.18,0,0,0,0,3.76,2,2,0,0,0,1.57.71,2.09,2.09,0,0,0,1.64-.68,2.8,2.8,0,0,0,.59-1.89,2.85,2.85,0,0,0-.58-1.93A2,2,0,0,0,31.07,35.55Z" fill="#008bfd"/><path d="M39.09,42.92h-.61V41.29H35.13v1.63h-.61V40.67h.4a6.69,6.69,0,0,0,1.17-3.88h2.34v3.88h.66Zm-1.38-2.25V37.4h-1a6.89,6.89,0,0,1-1,3.27Z" fill="#008bfd"/><path d="M43.83,41.29h-.72v-2h-2.3v2h-.72v-4.5h.72v1.84h2.3V36.79h.72Z" fill="#008bfd"/><path d="M47.17,41.39a2.1,2.1,0,0,1-1.6-.63A2.36,2.36,0,0,1,45,39.09a2.43,2.43,0,0,1,.62-1.77,2.2,2.2,0,0,1,1.67-.64,2,2,0,0,1,1.57.62A2.45,2.45,0,0,1,49.41,39a2.38,2.38,0,0,1-.61,1.72A2.15,2.15,0,0,1,47.17,41.39Zm0-4.1a1.36,1.36,0,0,0-1.1.47,1.93,1.93,0,0,0-.4,1.3,1.79,1.79,0,0,0,.41,1.26,1.36,1.36,0,0,0,1.09.46,1.31,1.31,0,0,0,1.07-.45A2,2,0,0,0,48.67,39a2,2,0,0,0-.38-1.3A1.31,1.31,0,0,0,47.22,37.29Z" fill="#008bfd"/><path d="M53.63,41.08a2.34,2.34,0,0,1-1.23.31,2,2,0,0,1-1.56-.63,2.26,2.26,0,0,1-.59-1.62,2.49,2.49,0,0,1,.64-1.79,2.21,2.21,0,0,1,1.7-.67,2.35,2.35,0,0,1,1,.22v.74a1.83,1.83,0,0,0-1.08-.35,1.45,1.45,0,0,0-1.13.49,1.89,1.89,0,0,0-.44,1.3,1.78,1.78,0,0,0,.42,1.25,1.42,1.42,0,0,0,1.11.45,1.83,1.83,0,0,0,1.11-.39Z" fill="#008bfd"/><path d="M57.54,37.4H56.19v3.89h-.72V37.4H54.12v-.61h3.42Z" fill="#008bfd"/><path d="M59.15,40.63h0v2.73h-.72V36.79h.72v.79h0a1.69,1.69,0,0,1,1.55-.9,1.66,1.66,0,0,1,1.36.6,2.5,2.5,0,0,1,.49,1.62A2.81,2.81,0,0,1,62,40.71a1.84,1.84,0,0,1-1.5.68A1.48,1.48,0,0,1,59.15,40.63Zm0-1.81v.63a1.36,1.36,0,0,0,.36.95,1.23,1.23,0,0,0,.92.38,1.2,1.2,0,0,0,1-.5,2.25,2.25,0,0,0,.37-1.39,1.84,1.84,0,0,0-.35-1.18,1.15,1.15,0,0,0-.94-.42,1.28,1.28,0,0,0-1,.43A1.63,1.63,0,0,0,59.13,38.82Z" fill="#008bfd"/><path d="M66.92,41.29H66.2v-.71h0a1.64,1.64,0,0,1-2.43.46,1.23,1.23,0,0,1-.38-.95c0-.84.49-1.33,1.48-1.47l1.35-.19q0-1.14-.93-1.14a2.22,2.22,0,0,0-1.47.55V37.1a2.84,2.84,0,0,1,1.53-.42q1.59,0,1.59,1.68ZM66.2,39l-1.09.15a1.78,1.78,0,0,0-.75.25.72.72,0,0,0-.26.63.68.68,0,0,0,.24.54.94.94,0,0,0,.62.2,1.16,1.16,0,0,0,.89-.37,1.36,1.36,0,0,0,.35-.95Z" fill="#008bfd"/><path d="M72,41.29h-.72v-2H69v2h-.72v-4.5H69v1.84h2.29V36.79H72Z" fill="#008bfd"/><path d="M77.24,41.29h-.65V37.7c-.06.12-.16.3-.29.53l-2.08,3.06h-.75v-4.5h.66v3.54c0-.08.11-.23.23-.43l2.14-3.11h.74Z" fill="#008bfd"/><path d="M82.33,41.29h-.72V39.47a3.07,3.07,0,0,1-1.46.44c-1,0-1.51-.54-1.51-1.6V36.79h.72v1.48c0,.66.29,1,.85,1a3.14,3.14,0,0,0,1.4-.38V36.79h.72Z" fill="#008bfd"/><path d="M87.52,41.29H86.8v-2H84.51v2h-.72v-4.5h.72v1.84H86.8V36.79h.72Z" fill="#008bfd"/><path d="M90.86,41.39a2.09,2.09,0,0,1-1.59-.63,2.33,2.33,0,0,1-.6-1.67,2.43,2.43,0,0,1,.62-1.77A2.22,2.22,0,0,1,91,36.68a2,2,0,0,1,1.57.62A2.49,2.49,0,0,1,93.1,39a2.38,2.38,0,0,1-.61,1.72A2.13,2.13,0,0,1,90.86,41.39Zm0-4.1a1.34,1.34,0,0,0-1.09.47,1.93,1.93,0,0,0-.41,1.3,1.84,1.84,0,0,0,.41,1.26,1.38,1.38,0,0,0,1.09.46A1.33,1.33,0,0,0,92,40.33,2,2,0,0,0,92.36,39a2,2,0,0,0-.37-1.3A1.33,1.33,0,0,0,90.91,37.29Z" fill="#008bfd"/><path d="M97.87,39.21H94.69a1.74,1.74,0,0,0,.41,1.17,1.39,1.39,0,0,0,1.06.4,2.19,2.19,0,0,0,1.4-.5V41a2.61,2.61,0,0,1-1.57.43,1.89,1.89,0,0,1-1.5-.61A2.54,2.54,0,0,1,94,39.05a2.48,2.48,0,0,1,.59-1.71A1.92,1.92,0,0,1,96,36.68a1.7,1.7,0,0,1,1.37.57,2.4,2.4,0,0,1,.48,1.59Zm-.74-.61a1.46,1.46,0,0,0-.3-1,1,1,0,0,0-.82-.34,1.19,1.19,0,0,0-.87.36,1.65,1.65,0,0,0-.44,1Z" fill="#008bfd"/><path d="M41.27,52.09h-.72V48.2h-2.3v3.89h-.72v-4.5h3.74Z" fill="#008bfd"/><path d="M43.46,51.43h0v2.73h-.72V47.59h.72v.79h0a1.72,1.72,0,0,1,1.56-.9,1.66,1.66,0,0,1,1.36.6,2.56,2.56,0,0,1,.49,1.62,2.81,2.81,0,0,1-.55,1.81,1.85,1.85,0,0,1-1.51.68A1.51,1.51,0,0,1,43.46,51.43Zm0-1.81v.63a1.36,1.36,0,0,0,.36,1,1.23,1.23,0,0,0,.92.38,1.2,1.2,0,0,0,1-.5,2.32,2.32,0,0,0,.37-1.39,1.84,1.84,0,0,0-.35-1.18,1.15,1.15,0,0,0-.94-.42,1.27,1.27,0,0,0-1,.43A1.59,1.59,0,0,0,43.45,49.62Z" fill="#008bfd"/><path d="M51.79,52.09h-.65V48.5c-.07.12-.16.3-.3.53l-2.08,3.06H48v-4.5h.66v3.54a3.31,3.31,0,0,1,.23-.43L51,47.59h.75Z" fill="#008bfd"/><path d="M56.53,52.09h-.72V48.2h-1a9.34,9.34,0,0,1-.62,3.06,1.32,1.32,0,0,1-1.18.89,1.12,1.12,0,0,1-.38-.06v-.62a.72.72,0,0,0,.33.07c.65,0,1.06-1.32,1.25-3.95h2.36Z" fill="#008bfd"/><path d="M59.87,52.19a2.06,2.06,0,0,1-1.59-.63,2.33,2.33,0,0,1-.6-1.67,2.43,2.43,0,0,1,.62-1.77A2.21,2.21,0,0,1,60,47.48a2,2,0,0,1,1.57.62,2.49,2.49,0,0,1,.56,1.72,2.38,2.38,0,0,1-.61,1.72A2.13,2.13,0,0,1,59.87,52.19Zm.05-4.1a1.36,1.36,0,0,0-1.1.47,1.93,1.93,0,0,0-.4,1.3,1.84,1.84,0,0,0,.41,1.26,1.38,1.38,0,0,0,1.09.46A1.33,1.33,0,0,0,61,51.13a2,2,0,0,0,.37-1.29,2,2,0,0,0-.37-1.3A1.33,1.33,0,0,0,59.92,48.09Z" fill="#008bfd"/><path d="M69.24,52.09h-1l-2-2.23h0v2.23h-.68V49.86h0l-2,2.23h-1l2.23-2.33-2.09-2.17h.91l1.93,2.1h0v-2.1h.68v2.1h0l1.93-2.1h.92L67,49.76Z" fill="#008bfd"/><path d="M73.59,50H70.42a1.64,1.64,0,0,0,.4,1.16,1.36,1.36,0,0,0,1.06.41,2.17,2.17,0,0,0,1.4-.5v.68a2.59,2.59,0,0,1-1.57.43,1.92,1.92,0,0,1-1.5-.61,2.54,2.54,0,0,1-.54-1.73,2.44,2.44,0,0,1,.6-1.71,1.88,1.88,0,0,1,1.47-.66,1.7,1.7,0,0,1,1.37.57,2.4,2.4,0,0,1,.48,1.59Zm-.73-.61a1.52,1.52,0,0,0-.31-1,1,1,0,0,0-.82-.34,1.19,1.19,0,0,0-.87.36,1.64,1.64,0,0,0-.43.95Z" fill="#008bfd"/><path d="M78.42,52.09H77.7V50H75.4v2.05h-.72v-4.5h.72v1.84h2.3V47.59h.72Z" fill="#008bfd"/><path d="M83.65,52.09H83V48.5c-.07.12-.16.3-.3.53l-2.07,3.06h-.75v-4.5h.66v3.54a3.31,3.31,0,0,1,.23-.43l2.13-3.11h.75Z" fill="#008bfd"/><path d="M88.72,50H85.55a1.64,1.64,0,0,0,.4,1.16,1.36,1.36,0,0,0,1.06.41,2.17,2.17,0,0,0,1.4-.5v.68a2.59,2.59,0,0,1-1.57.43,1.92,1.92,0,0,1-1.5-.61,2.54,2.54,0,0,1-.54-1.73,2.44,2.44,0,0,1,.6-1.71,1.9,1.9,0,0,1,1.47-.66,1.7,1.7,0,0,1,1.37.57,2.4,2.4,0,0,1,.48,1.59ZM88,49.4a1.52,1.52,0,0,0-.31-1,1,1,0,0,0-.82-.34,1.15,1.15,0,0,0-.86.36,1.59,1.59,0,0,0-.44.95Z" fill="#008bfd"/></g><path d="M7.85,6.77a4.49,4.49,0,0,0-3,5.66c.66,2.56,3,4.22,5.27,3.67a4.49,4.49,0,0,0,3-5.66C12.57,7.77,10.16,6.11,7.85,6.77Z" fill="#008bfd"/><path d="M12.78,16.79c-.43,0-.88.77-1.54,1.11s-1.31.88-3.17,0S6,16.23,4.43,16.23s-4,2.78-4,6.88H16a12.24,12.24,0,0,0-1.11-4.22C13.77,16.79,13.23,16.79,12.78,16.79Z" fill="#008bfd"/><path d="M14.19,11.84H10.07a.71.71,0,0,0-.65.66v2.85a.73.73,0,0,0,.76.66h.76v5.15a1,1,0,0,0,1,1.09,1,1,0,0,0,1-1h.21v-.66c0-.22.33-.33.33-.33V20c-.33-.11-.54-.33-.54-.44v-.32L13.1,19a3.53,3.53,0,0,0,.33-.55,2.4,2.4,0,0,1-.33-.55c-.1-.11-.1-.33-.21-.44v-.22a2.52,2.52,0,0,1,.76-1.09h.54a.71.71,0,0,0,.65-.66v-3A.63.63,0,0,0,14.19,11.84ZM11.8,21.38c0,.22,0,.33-.21.33s-.22-.22-.22-.33V16.56c0-.22.11-.33.22-.33s.21.22.21.33Zm.33-7.78a.66.66,0,0,1,0-1.32.71.71,0,0,1,.65.66A.63.63,0,0,1,12.13,13.6Z" fill="#008bfd" stroke="gray" stroke-linecap="round" stroke-linejoin="round" stroke-width="0.75"/><path d="M11.57,21.68a.24.24,0,0,1-.22-.22v-5a.22.22,0,1,1,.44,0v5.1C11.79,21.68,11.68,21.68,11.57,21.68Z" fill="#fff"/><ellipse cx="12.14" cy="12.93" rx="0.66" ry="0.67" fill="#fff"/><g style="isolation:isolate"><path d="M28.31,111.09v-6.3H30.1a1.94,1.94,0,0,1,1.3.4,1.28,1.28,0,0,1,.48,1,1.54,1.54,0,0,1-.29.93,1.56,1.56,0,0,1-.8.56v0a1.63,1.63,0,0,1,1,.48,1.5,1.5,0,0,1,.38,1.06,1.65,1.65,0,0,1-.58,1.31,2.17,2.17,0,0,1-1.46.5Zm.74-5.64v2h.76a1.46,1.46,0,0,0,1-.29,1,1,0,0,0,.35-.83c0-.61-.41-.92-1.21-.92Zm0,2.7v2.27h1a1.49,1.49,0,0,0,1-.31,1,1,0,0,0,.36-.84c0-.75-.51-1.12-1.52-1.12Z" fill="#008bfd"/><path d="M37,109H33.81a1.66,1.66,0,0,0,.41,1.16,1.4,1.4,0,0,0,1.06.41,2.24,2.24,0,0,0,1.4-.5v.67a2.61,2.61,0,0,1-1.57.43,1.89,1.89,0,0,1-1.5-.61,2.52,2.52,0,0,1-.54-1.72,2.48,2.48,0,0,1,.59-1.72,1.92,1.92,0,0,1,1.48-.66,1.71,1.71,0,0,1,1.37.57,2.41,2.41,0,0,1,.48,1.59Zm-.74-.61a1.43,1.43,0,0,0-.3-1,1,1,0,0,0-.82-.35,1.19,1.19,0,0,0-.87.36,1.71,1.71,0,0,0-.44,1Z" fill="#008bfd"/><path d="M41.56,104.37v.68a1.43,1.43,0,0,1-.58.2,7.73,7.73,0,0,0-1.38.29,1.23,1.23,0,0,0-.65.59,3.34,3.34,0,0,0-.32,1.32h0a1.71,1.71,0,0,1,1.5-.76,1.85,1.85,0,0,1,1.44.61,2.32,2.32,0,0,1,.54,1.61,2.37,2.37,0,0,1-.57,1.66,2,2,0,0,1-1.53.62,1.9,1.9,0,0,1-1.6-.73,3.43,3.43,0,0,1-.56-2.1,6.72,6.72,0,0,1,.21-1.81,2.51,2.51,0,0,1,.56-1.11,1.91,1.91,0,0,1,.79-.52,14.73,14.73,0,0,1,1.5-.33A2,2,0,0,0,41.56,104.37Zm-2.94,3.79v.63a2.37,2.37,0,0,0,.11.69,1.71,1.71,0,0,0,.29.59,1.09,1.09,0,0,0,.44.39,1.25,1.25,0,0,0,.59.13,1.2,1.2,0,0,0,1-.45,1.75,1.75,0,0,0,.37-1.16,1.8,1.8,0,0,0-.38-1.22,1.24,1.24,0,0,0-1-.46A1.48,1.48,0,0,0,38.62,108.16Z" fill="#008bfd"/><path d="M45.59,108.86H43.2v-.56h2.39Z" fill="#008bfd"/><path d="M50.63,111.09h-.72V107.2h-2.3v3.89h-.72v-4.5h3.74Z" fill="#008bfd"/><path d="M52.82,110.44h0v2.72h-.72v-6.57h.72v.79h0a1.72,1.72,0,0,1,1.56-.9,1.64,1.64,0,0,1,1.36.61,2.52,2.52,0,0,1,.49,1.62,2.85,2.85,0,0,1-.55,1.81,1.84,1.84,0,0,1-1.51.67A1.52,1.52,0,0,1,52.82,110.44Zm0-1.82v.63a1.36,1.36,0,0,0,.36,1,1.2,1.2,0,0,0,.92.39,1.22,1.22,0,0,0,1-.5,2.38,2.38,0,0,0,.37-1.4,1.79,1.79,0,0,0-.35-1.17,1.14,1.14,0,0,0-.94-.43,1.24,1.24,0,0,0-1,.44A1.56,1.56,0,0,0,52.81,108.62Z" fill="#008bfd"/><path d="M61.15,111.09H60.5V107.5l-.3.53-2.08,3.06h-.74v-4.5H58v3.55a3.46,3.46,0,0,1,.22-.44l2.14-3.11h.75Z" fill="#008bfd"/><path d="M65.89,111.09h-.72V107.2h-1a9.35,9.35,0,0,1-.62,3.07,1.31,1.31,0,0,1-1.18.88,1.08,1.08,0,0,1-.38-.06v-.62a.73.73,0,0,0,.33.08c.65,0,1.06-1.32,1.24-4h2.37Z" fill="#008bfd"/><path d="M69.23,111.19a2.06,2.06,0,0,1-1.59-.63,2.31,2.31,0,0,1-.6-1.67,2.46,2.46,0,0,1,.62-1.77,2.24,2.24,0,0,1,1.67-.64,2.06,2.06,0,0,1,1.58.62,2.51,2.51,0,0,1,.56,1.72,2.42,2.42,0,0,1-.61,1.73A2.12,2.12,0,0,1,69.23,111.19Zm0-4.1a1.39,1.39,0,0,0-1.1.47,1.94,1.94,0,0,0-.4,1.3,1.82,1.82,0,0,0,.41,1.27,1.4,1.4,0,0,0,1.09.46,1.33,1.33,0,0,0,1.08-.45,2,2,0,0,0,.37-1.29,2,2,0,0,0-.37-1.3A1.3,1.3,0,0,0,69.28,107.09Z" fill="#008bfd"/><path d="M78.6,111.09h-1l-2-2.23h0v2.23h-.68v-2.23h0l-2,2.23h-1l2.23-2.32-2.09-2.18H73l1.93,2.1h0v-2.1h.68v2.1h0l1.92-2.1h.93l-2.1,2.18Z" fill="#008bfd"/><path d="M83,109H79.78a1.66,1.66,0,0,0,.4,1.16,1.4,1.4,0,0,0,1.06.41,2.22,2.22,0,0,0,1.4-.5v.67a2.59,2.59,0,0,1-1.57.43,1.92,1.92,0,0,1-1.5-.61,2.9,2.9,0,0,1,.05-3.44,1.92,1.92,0,0,1,1.48-.66,1.7,1.7,0,0,1,1.37.57,2.41,2.41,0,0,1,.48,1.59Zm-.74-.61a1.43,1.43,0,0,0-.3-1,1,1,0,0,0-.82-.35,1.19,1.19,0,0,0-.87.36,1.78,1.78,0,0,0-.44,1Z" fill="#008bfd"/><path d="M87.78,111.09h-.72v-2h-2.3v2H84v-4.5h.72v1.84h2.3v-1.84h.72Z" fill="#008bfd"/><path d="M93,111.09h-.65V107.5l-.3.53L90,111.09h-.74v-4.5h.66v3.55a3.46,3.46,0,0,1,.22-.44l2.14-3.11H93Z" fill="#008bfd"/><path d="M98.08,109H94.91a1.66,1.66,0,0,0,.4,1.16,1.4,1.4,0,0,0,1.06.41,2.22,2.22,0,0,0,1.4-.5v.67a2.59,2.59,0,0,1-1.57.43,1.92,1.92,0,0,1-1.5-.61,2.9,2.9,0,0,1,0-3.44,1.92,1.92,0,0,1,1.48-.66,1.7,1.7,0,0,1,1.37.57,2.41,2.41,0,0,1,.48,1.59Zm-.74-.61a1.43,1.43,0,0,0-.3-1,1,1,0,0,0-.82-.35,1.19,1.19,0,0,0-.87.36,1.78,1.78,0,0,0-.44,1Z" fill="#008bfd"/></g><path d="M10.33,288.82a4.49,4.49,0,0,0-3,5.66c.66,2.56,3,4.22,5.27,3.67a4.49,4.49,0,0,0,3-5.66C15.05,289.82,12.64,288.16,10.33,288.82Z" fill="#008bfd"/><path d="M15.27,298.84c-.44,0-.88.77-1.54,1.11s-1.32.88-3.18,0-2.09-1.67-3.63-1.67-4.06,2.78-4.06,6.88H18.45a12.14,12.14,0,0,0-1.1-4.22C16.25,298.84,15.71,298.84,15.27,298.84Z" fill="#008bfd"/><path d="M16.67,293.89H12.55a.71.71,0,0,0-.65.66v2.85a.73.73,0,0,0,.76.66h.76v5.15a1,1,0,0,0,1,1.09,1,1,0,0,0,1-1h.21v-.66c0-.22.33-.33.33-.33V302c-.33-.11-.54-.33-.54-.44v-.32l.21-.22a3.53,3.53,0,0,0,.33-.55,2.4,2.4,0,0,1-.33-.55c-.1-.11-.1-.33-.21-.44v-.22a2.52,2.52,0,0,1,.76-1.09h.54a.71.71,0,0,0,.65-.66v-3A.63.63,0,0,0,16.67,293.89Zm-2.39,9.54c0,.22,0,.33-.21.33s-.22-.22-.22-.33v-4.82c0-.22.11-.33.22-.33s.21.22.21.33Zm.33-7.78a.66.66,0,0,1,0-1.32.71.71,0,0,1,.65.66A.63.63,0,0,1,14.61,295.65Z" fill="#008bfd" stroke="gray" stroke-linecap="round" stroke-linejoin="round" stroke-width="0.75"/><path d="M14.05,303.73a.24.24,0,0,1-.22-.22v-5a.22.22,0,1,1,.44,0v5.1C14.27,303.73,14.16,303.73,14.05,303.73Z" fill="#fff"/><ellipse cx="14.62" cy="294.98" rx="0.66" ry="0.67" fill="#fff"/><path d="M264.46,263.21l-15.91,11.42,6.08,18.48h19.66l6.08-18.48Z" fill="#fff" stroke="#000" stroke-linecap="round" stroke-linejoin="round" stroke-width="0.24"/><path d="M264.14,270.32a4.49,4.49,0,0,0-3,5.66c.66,2.56,3,4.22,5.27,3.67a4.49,4.49,0,0,0,3-5.66C268.86,271.32,266.45,269.66,264.14,270.32Z" fill="#008bfd"/><path d="M269.07,280.34c-.44,0-.88.77-1.54,1.11s-1.32.88-3.18,0-2.09-1.67-3.63-1.67-4.06,2.78-4.06,6.88h15.59a12.14,12.14,0,0,0-1.1-4.22C270.05,280.34,269.51,280.34,269.07,280.34Z" fill="#008bfd"/><path d="M270.48,275.4h-4.12a.71.71,0,0,0-.65.66v2.85a.73.73,0,0,0,.76.66h.76v5.15a1,1,0,0,0,1,1.09,1,1,0,0,0,1-1h.21v-.66c0-.22.33-.33.33-.33v-.33c-.33-.11-.54-.33-.54-.44v-.32l.21-.22a3.53,3.53,0,0,0,.33-.55,2.4,2.4,0,0,1-.33-.55c-.1-.11-.1-.33-.21-.44v-.22a2.52,2.52,0,0,1,.76-1.09h.54a.71.71,0,0,0,.65-.66v-3A.63.63,0,0,0,270.48,275.4Zm-2.39,9.54c0,.22,0,.33-.21.33s-.22-.22-.22-.33v-4.82c0-.22.11-.33.22-.33s.21.22.21.33Zm.33-7.78a.66.66,0,0,1,0-1.32.71.71,0,0,1,.65.66A.63.63,0,0,1,268.42,277.16Z" fill="#008bfd" stroke="gray" stroke-linecap="round" stroke-linejoin="round" stroke-width="0.75"/><path d="M267.86,285.23a.24.24,0,0,1-.22-.22v-5a.22.22,0,1,1,.44,0v5.1C268.08,285.23,268,285.23,267.86,285.23Z" fill="#fff"/><ellipse cx="268.43" cy="276.48" rx="0.66" ry="0.67" fill="#fff"/><line x1="276.38" y1="296.73" x2="73.36" y2="296.73" fill="none" stroke="#505050" stroke-miterlimit="10"/><line x1="374.72" y1="296.73" x2="307.18" y2="296.73" fill="none" stroke="#505050" stroke-miterlimit="10"/><path d="M77.1,154h75.16C167.5,154,179,164.68,179,183v73.78c0,18-1,40,37,40" fill="none" stroke="#505050" stroke-miterlimit="10"/><path d="M77.1,224.92h75.16c15.24,0,26.74,10.66,26.74,29" fill="none" stroke="#505050" stroke-miterlimit="10"/><path d="M77.1,439.45h75.16c15.24,0,26.74-10.66,26.74-29V336.69c0-18-1-39.95,37-39.95" fill="none" stroke="#505050" stroke-miterlimit="10"/><path d="M83.32,368.55h70.57c14.31,0,25.11-10.65,25.11-29" fill="none" stroke="#505050" stroke-miterlimit="10"/><g style="isolation:isolate"><path d="M30.81,181.06a2.75,2.75,0,0,1-2.14-.89,3.25,3.25,0,0,1-.81-2.29,3.45,3.45,0,0,1,.82-2.43,2.9,2.9,0,0,1,2.24-.91,2.72,2.72,0,0,1,2.1.88,3.32,3.32,0,0,1,.8,2.3,3.46,3.46,0,0,1-.82,2.44A2.8,2.8,0,0,1,30.81,181.06Zm.06-5.85a2,2,0,0,0-1.62.72,2.78,2.78,0,0,0-.62,1.88,2.74,2.74,0,0,0,.61,1.87,2,2,0,0,0,1.57.71,2.08,2.08,0,0,0,1.64-.67,2.78,2.78,0,0,0,.6-1.9,2.94,2.94,0,0,0-.58-1.93A2,2,0,0,0,30.87,175.21Z" fill="#008bfd"/><path d="M38.89,182.59h-.62V181H34.93v1.64h-.62v-2.25h.4a6.72,6.72,0,0,0,1.17-3.89h2.34v3.89h.67Zm-1.39-2.25v-3.28h-1a7,7,0,0,1-1,3.28Z" fill="#008bfd"/><path d="M43.62,181H42.9v-2H40.6v2h-.72v-4.5h.72v1.85h2.3v-1.85h.72Z" fill="#008bfd"/><path d="M47,181.06a2.06,2.06,0,0,1-1.59-.63,2.33,2.33,0,0,1-.6-1.68,2.46,2.46,0,0,1,.62-1.77,2.23,2.23,0,0,1,1.67-.63,2,2,0,0,1,1.58.62,2.46,2.46,0,0,1,.56,1.71,2.41,2.41,0,0,1-.61,1.73A2.13,2.13,0,0,1,47,181.06ZM47,177a1.37,1.37,0,0,0-1.1.48,1.91,1.91,0,0,0-.4,1.3,1.81,1.81,0,0,0,.41,1.26,1.36,1.36,0,0,0,1.09.46,1.33,1.33,0,0,0,1.08-.45,2,2,0,0,0,.37-1.29,2,2,0,0,0-.37-1.3A1.33,1.33,0,0,0,47,177Z" fill="#008bfd"/><path d="M53.42,180.74a2.35,2.35,0,0,1-1.23.32,2.06,2.06,0,0,1-1.56-.63,2.29,2.29,0,0,1-.59-1.62,2.53,2.53,0,0,1,.64-1.79,2.23,2.23,0,0,1,1.7-.67,2.32,2.32,0,0,1,1,.22v.73a1.88,1.88,0,0,0-1.08-.35,1.47,1.47,0,0,0-1.13.5,1.89,1.89,0,0,0-.44,1.3A1.76,1.76,0,0,0,51.2,180a1.41,1.41,0,0,0,1.11.46,1.83,1.83,0,0,0,1.11-.39Z" fill="#008bfd"/><path d="M57.33,177.07H56V181h-.72v-3.88H53.91v-.62h3.42Z" fill="#008bfd"/><path d="M58.94,180.3h0V183H58.2v-6.57h.72v.79h0a1.7,1.7,0,0,1,1.55-.89,1.65,1.65,0,0,1,1.36.6,2.47,2.47,0,0,1,.49,1.62,2.77,2.77,0,0,1-.55,1.81,1.84,1.84,0,0,1-1.5.68A1.48,1.48,0,0,1,58.94,180.3Zm0-1.81v.62a1.34,1.34,0,0,0,.36.95,1.2,1.2,0,0,0,.92.39,1.22,1.22,0,0,0,1-.5,2.27,2.27,0,0,0,.37-1.39,1.77,1.77,0,0,0-.35-1.18,1.15,1.15,0,0,0-.94-.43,1.29,1.29,0,0,0-1,.44A1.63,1.63,0,0,0,58.92,178.49Z" fill="#008bfd"/><path d="M66.71,181H66v-.7h0a1.5,1.5,0,0,1-1.38.81,1.45,1.45,0,0,1-1.05-.36,1.21,1.21,0,0,1-.38-.94c0-.84.49-1.33,1.48-1.47L66,178.1c0-.77-.31-1.15-.93-1.15a2.19,2.19,0,0,0-1.46.56v-.74a2.79,2.79,0,0,1,1.53-.42c1.05,0,1.58.56,1.58,1.67ZM66,178.68l-1.08.14a1.78,1.78,0,0,0-.76.25.72.72,0,0,0-.25.63.68.68,0,0,0,.23.54.92.92,0,0,0,.63.21,1.12,1.12,0,0,0,.88-.38,1.34,1.34,0,0,0,.35-.95Z" fill="#008bfd"/><path d="M71.81,181h-.73v-2H68.79v2h-.72v-4.5h.72v1.85h2.29v-1.85h.73Z" fill="#008bfd"/><path d="M77,181h-.65v-3.59c-.06.13-.16.3-.29.53L74,181h-.75v-4.5h.66V180c0-.09.11-.23.23-.44l2.14-3.11H77Z" fill="#008bfd"/><path d="M82.12,181H81.4v-1.81a3,3,0,0,1-1.46.43c-1,0-1.51-.53-1.51-1.6v-1.52h.72v1.49c0,.66.29,1,.86,1a3.14,3.14,0,0,0,1.39-.38v-2.1h.72Z" fill="#008bfd"/><path d="M87.31,181h-.72v-2H84.3v2h-.72v-4.5h.72v1.85h2.29v-1.85h.72Z" fill="#008bfd"/><path d="M90.65,181.06a2.09,2.09,0,0,1-1.59-.63,2.33,2.33,0,0,1-.6-1.68,2.46,2.46,0,0,1,.62-1.77,2.27,2.27,0,0,1,1.68-.63,2,2,0,0,1,1.57.62,2.42,2.42,0,0,1,.56,1.71,2.44,2.44,0,0,1-.6,1.73A2.15,2.15,0,0,1,90.65,181.06Zm.06-4.11a1.35,1.35,0,0,0-1.1.48,1.91,1.91,0,0,0-.41,1.3,1.85,1.85,0,0,0,.41,1.26,1.38,1.38,0,0,0,1.1.46,1.32,1.32,0,0,0,1.07-.45,2,2,0,0,0,.38-1.29,2,2,0,0,0-.38-1.3A1.33,1.33,0,0,0,90.71,177Z" fill="#008bfd"/><path d="M97.66,178.88H94.49a1.66,1.66,0,0,0,.4,1.16,1.36,1.36,0,0,0,1.06.41,2.22,2.22,0,0,0,1.4-.5v.68a2.65,2.65,0,0,1-1.57.43,1.92,1.92,0,0,1-1.5-.62,2.89,2.89,0,0,1,0-3.43,1.92,1.92,0,0,1,1.48-.66,1.7,1.7,0,0,1,1.37.57,2.39,2.39,0,0,1,.48,1.58Zm-.74-.61a1.44,1.44,0,0,0-.3-1,1,1,0,0,0-.82-.35,1.16,1.16,0,0,0-.87.37,1.72,1.72,0,0,0-.44,1Z" fill="#008bfd"/><path d="M41.06,191.75h-.72v-3.88H38v3.88h-.72v-4.5h3.74Z" fill="#008bfd"/><path d="M43.26,191.1h0v2.72h-.72v-6.57h.72V188h0a1.68,1.68,0,0,1,1.55-.89,1.66,1.66,0,0,1,1.36.6,2.47,2.47,0,0,1,.49,1.62,2.83,2.83,0,0,1-.55,1.81,1.84,1.84,0,0,1-1.5.68A1.48,1.48,0,0,1,43.26,191.1Zm0-1.81v.62a1.34,1.34,0,0,0,.36,1,1.2,1.2,0,0,0,.92.39,1.22,1.22,0,0,0,1-.5,2.27,2.27,0,0,0,.37-1.39,1.82,1.82,0,0,0-.35-1.18,1.15,1.15,0,0,0-.94-.43,1.29,1.29,0,0,0-1,.44A1.63,1.63,0,0,0,43.24,189.29Z" fill="#008bfd"/><path d="M51.58,191.75h-.65v-3.59c-.07.13-.16.3-.3.53l-2.07,3.06h-.75v-4.5h.66v3.55a3.23,3.23,0,0,1,.23-.44l2.13-3.11h.75Z" fill="#008bfd"/><path d="M56.32,191.75H55.6v-3.89h-1a9.35,9.35,0,0,1-.62,3.07,1.31,1.31,0,0,1-1.17.88,1.14,1.14,0,0,1-.39-.06v-.62a.62.62,0,0,0,.33.08c.65,0,1.06-1.32,1.25-4h2.36Z" fill="#008bfd"/><path d="M59.66,191.86a2.08,2.08,0,0,1-1.59-.63,2.33,2.33,0,0,1-.6-1.68,2.46,2.46,0,0,1,.62-1.77,2.25,2.25,0,0,1,1.68-.63,2,2,0,0,1,1.57.62,2.46,2.46,0,0,1,.56,1.71,2.41,2.41,0,0,1-.61,1.73A2.13,2.13,0,0,1,59.66,191.86Zm.05-4.11a1.33,1.33,0,0,0-1.09.48,1.91,1.91,0,0,0-.41,1.3,1.85,1.85,0,0,0,.41,1.26,1.38,1.38,0,0,0,1.09.46,1.33,1.33,0,0,0,1.08-.45,2,2,0,0,0,.37-1.29,2,2,0,0,0-.37-1.3A1.3,1.3,0,0,0,59.71,187.75Z" fill="#008bfd"/><path d="M69,191.75h-1l-2-2.22h0v2.22h-.68v-2.22h0l-2,2.22h-1l2.23-2.32-2.09-2.18h.92l1.92,2.11h0v-2.11H66v2.11h0L68,187.25h.92l-2.1,2.18Z" fill="#008bfd"/><path d="M73.39,189.68H70.21a1.66,1.66,0,0,0,.4,1.16,1.41,1.41,0,0,0,1.07.41,2.22,2.22,0,0,0,1.39-.5v.68a2.65,2.65,0,0,1-1.57.43,1.89,1.89,0,0,1-1.49-.62,2.85,2.85,0,0,1,0-3.43,1.9,1.9,0,0,1,1.48-.66,1.69,1.69,0,0,1,1.36.57,2.39,2.39,0,0,1,.49,1.58Zm-.74-.61a1.54,1.54,0,0,0-.3-1,1.05,1.05,0,0,0-.83-.35,1.12,1.12,0,0,0-.86.37,1.59,1.59,0,0,0-.44.95Z" fill="#008bfd"/><path d="M78.21,191.75h-.72v-2H75.2v2h-.72v-4.5h.72v1.85h2.29v-1.85h.72Z" fill="#008bfd"/><path d="M83.44,191.75h-.65v-3.59c-.06.13-.16.3-.29.53l-2.08,3.06h-.75v-4.5h.66v3.55a3.23,3.23,0,0,1,.23-.44l2.13-3.11h.75Z" fill="#008bfd"/><path d="M88.52,189.68H85.34a1.66,1.66,0,0,0,.4,1.16,1.41,1.41,0,0,0,1.07.41,2.22,2.22,0,0,0,1.39-.5v.68a2.63,2.63,0,0,1-1.57.43,1.89,1.89,0,0,1-1.49-.62,2.85,2.85,0,0,1,0-3.43,1.9,1.9,0,0,1,1.48-.66,1.69,1.69,0,0,1,1.36.57,2.39,2.39,0,0,1,.49,1.58Zm-.74-.61a1.54,1.54,0,0,0-.3-1,1.05,1.05,0,0,0-.83-.35,1.12,1.12,0,0,0-.86.37,1.59,1.59,0,0,0-.44.95Z" fill="#008bfd"/></g><path d="M70,233.73a11.81,11.81,0,0,1-16.84-2.29,12.56,12.56,0,0,1,2.24-17.29,11.82,11.82,0,0,1,16.84,2.3A12.54,12.54,0,0,1,70,233.73Zm3.66-18.41a13.57,13.57,0,0,0-19.36-2.63,14.43,14.43,0,0,0-2.55,19.87,13.62,13.62,0,0,0,11,5.55,13.45,13.45,0,0,0,8.39-2.92A14.44,14.44,0,0,0,73.69,215.32Z" fill="#008bfd"/><path d="M56.06,226.52a17,17,0,0,1-2-2.35,18.28,18.28,0,0,0-1.66,6.88c.11.16.11.29.23.44a12.55,12.55,0,0,0,2,2A14.13,14.13,0,0,1,56.06,226.52Z" fill="#008bfd"/><path d="M60.67,217.08a21,21,0,0,0-3.33,3,15.71,15.71,0,0,0-1.61,2.05,15.42,15.42,0,0,0,1.9,2.46,16.32,16.32,0,0,1,2.2-2.56A26.47,26.47,0,0,1,63,219.4C62.16,218.64,61.38,217.87,60.67,217.08Z" fill="#008bfd"/><path d="M72.15,216.28a12,12,0,0,0-1.73-1.82,12.53,12.53,0,0,0-8,1.53c.76.84,1.51,1.63,2.24,2.36C69,215.92,72.15,216.28,72.15,216.28Z" fill="#008bfd"/><path d="M54.34,224.31a19.82,19.82,0,0,1,1.19-2.06,9.84,9.84,0,0,1-1.6-6.79,13.09,13.09,0,0,0-1.29,1.6C52.26,218.67,52.24,221.23,54.34,224.31Z" fill="#008bfd"/><path d="M59.9,226.7a21.6,21.6,0,0,1-2.27-2.14,14.25,14.25,0,0,0-1.14,1.95,23.54,23.54,0,0,0,2.09,1.91,19.12,19.12,0,0,0,12.56,4.38,9,9,0,0,0,1.54-1.94C71.45,231.12,66.19,231.81,59.9,226.7Z" fill="#008bfd"/><path d="M54.55,224.16a15.72,15.72,0,0,0,2,2.35,15.36,15.36,0,0,1,1.14-1.95,15.42,15.42,0,0,1-1.9-2.46A15.58,15.58,0,0,0,54.55,224.16Z" fill="#008bfd"/><path d="M63,219.4a97,97,0,0,0,11.15,8.82,9.82,9.82,0,0,0,.33-1.05,95.51,95.51,0,0,1-9.83-8.82Q63.82,218.8,63,219.4Z" fill="#008bfd"/><path d="M62.38,216q-1.65-1.77-3.36-3.8a10.05,10.05,0,0,0-1.59.66,26.3,26.3,0,0,0,3.24,4.22A17.22,17.22,0,0,1,62.38,216Z" fill="#008bfd"/><path d="M62.45,216a18.74,18.74,0,0,0-1.87,1.19c.72.78,1.45,1.59,2.25,2.35.57-.4,1.34-.88,1.87-1.18C64,217.58,63.21,216.79,62.45,216Z" fill="#008bfd"/><path d="M62.25,215.85A16.24,16.24,0,0,0,60.58,217c.72.79,1.74,1.81,2.54,2.57.57-.4,1.05-.8,1.58-1.11C64,217.71,63,216.68,62.25,215.85Z" fill="#008bfd"/><path d="M68.3,222.4a2.7,2.7,0,0,0-.48,3.7,2.56,2.56,0,0,0,3.63.51,2.72,2.72,0,0,0,.48-3.72A2.55,2.55,0,0,0,68.3,222.4Z" fill="#008bfd"/><path d="M63.13,228.53a2.52,2.52,0,0,0-.45,3.44,2.37,2.37,0,0,0,3.36.45,2.49,2.49,0,0,0,.44-3.43A2.36,2.36,0,0,0,63.13,228.53Z" fill="#008bfd"/><path d="M54,221.2a3.79,3.79,0,0,0-.68,5.21,3.58,3.58,0,0,0,5.1.7,3.8,3.8,0,0,0,.67-5.23A3.59,3.59,0,0,0,54,221.2Z" fill="#008bfd"/></svg>