<svg xmlns="http://www.w3.org/2000/svg" viewBox="0 0 204.71 69.22"><title>OJ104546510</title><g style="isolation:isolate"><path d="M94.31,13.38h-.66V10.82h-2.9v2.56H90.1V7.78h.65v2.45h2.9V7.78h.66Z" fill="#00b0f0"/><path d="M98.91,11.54H96.08a1.49,1.49,0,0,0,.36,1,1.26,1.26,0,0,0,1,.36,1.94,1.94,0,0,0,1.24-.44v.6a2.36,2.36,0,0,1-1.39.38,1.72,1.72,0,0,1-1.34-.54,2.27,2.27,0,0,1-.48-1.54A2.2,2.2,0,0,1,96,9.87a1.69,1.69,0,0,1,1.31-.58,1.5,1.5,0,0,1,1.22.5,2.16,2.16,0,0,1,.43,1.41ZM98.25,11a1.29,1.29,0,0,0-.27-.87.92.92,0,0,0-.73-.31,1,1,0,0,0-.77.33,1.47,1.47,0,0,0-.39.85Z" fill="#00b0f0"/><path d="M102.61,13.38H102V11.72h-.54c-.25,0-.49.21-.7.63l-.52,1h-.74l.67-1.24a1.22,1.22,0,0,1,.57-.56,1.12,1.12,0,0,1-.72-.35,1,1,0,0,1-.24-.7,1,1,0,0,1,.38-.84,1.67,1.67,0,0,1,1.08-.31h1.4ZM102,11.19V9.93h-.76c-.54,0-.81.2-.81.61s.27.65.79.65Z" fill="#00b0f0"/><path d="M103.9,13.38v-4h1.74a1.49,1.49,0,0,1,.93.26.86.86,0,0,1,.35.72.88.88,0,0,1-.77.94c.61.08.92.39.92.93a1.06,1.06,0,0,1-.38.82,1.37,1.37,0,0,1-.94.33Zm.64-3.45v1.12h1c.52,0,.77-.2.77-.6s-.23-.52-.69-.52Zm0,1.67v1.23h1.11q.78,0,.78-.63t-.87-.6Z" fill="#00b0f0"/><path d="M111.46,13.38h-.64V11.56h-2v1.82h-.64v-4h.64V11h2V9.38h.64Z" fill="#00b0f0"/><path d="M112.75,13.38v-4h.65v1.53h1.07a1.44,1.44,0,0,1,1,.32,1.16,1.16,0,0,1,.36.9,1.18,1.18,0,0,1-.36.91,1.29,1.29,0,0,1-.92.34Zm.65-1.92v1.37h1c.53,0,.79-.23.79-.7s-.26-.67-.8-.67Zm3.73,1.92h-.63v-4h.63Z" fill="#00b0f0"/><path d="M121.78,13.38h-.58V10.19a5.31,5.31,0,0,1-.26.47l-1.85,2.72h-.66v-4H119v3.15c0-.07.1-.2.2-.39l1.9-2.76h.66Zm-.23-6a1.24,1.24,0,0,1-.45.87,1.44,1.44,0,0,1-1,.32,1.47,1.47,0,0,1-1-.32,1.19,1.19,0,0,1-.4-.87h.63a.7.7,0,0,0,.75.74.73.73,0,0,0,.52-.2.91.91,0,0,0,.25-.54Z" fill="#00b0f0"/><path d="M128.59,13.38H128V9.93h-2v3.45h-.64v-4h3.32Z" fill="#00b0f0"/><path d="M131.56,13.47a1.85,1.85,0,0,1-1.42-.56,2.08,2.08,0,0,1-.53-1.48,2.16,2.16,0,0,1,.56-1.58,1.94,1.94,0,0,1,1.48-.56,1.78,1.78,0,0,1,1.4.55,2.17,2.17,0,0,1,.5,1.52A2.18,2.18,0,0,1,133,12.9,1.9,1.9,0,0,1,131.56,13.47Zm.05-3.65a1.23,1.23,0,0,0-1,.42,1.73,1.73,0,0,0-.36,1.16,1.62,1.62,0,0,0,.36,1.12,1.23,1.23,0,0,0,1,.41,1.16,1.16,0,0,0,.95-.4,1.76,1.76,0,0,0,.34-1.14,1.8,1.8,0,0,0-.34-1.16A1.16,1.16,0,0,0,131.61,9.82Z" fill="#00b0f0"/><path d="M137.09,9.93h-1.2v3.45h-.64V9.93H134V9.38h3.05Z" fill="#00b0f0"/><path d="M139.53,13.47a1.85,1.85,0,0,1-1.42-.56,2.08,2.08,0,0,1-.53-1.48,2.2,2.2,0,0,1,.55-1.58,2,2,0,0,1,1.49-.56,1.79,1.79,0,0,1,1.4.55,2.17,2.17,0,0,1,.5,1.52A2.18,2.18,0,0,1,141,12.9,1.9,1.9,0,0,1,139.53,13.47Zm.05-3.65a1.21,1.21,0,0,0-1,.42,1.73,1.73,0,0,0-.36,1.16,1.62,1.62,0,0,0,.36,1.12,1.22,1.22,0,0,0,1,.41,1.16,1.16,0,0,0,.95-.4,1.76,1.76,0,0,0,.33-1.14,1.8,1.8,0,0,0-.33-1.16A1.16,1.16,0,0,0,139.58,9.82Z" fill="#00b0f0"/><path d="M145.86,13.38H145l-1.77-1.92h0v1.92h-.64v-4h.64v1.83h0l1.68-1.83h.84l-1.86,1.93Z" fill="#00b0f0"/></g><path d="M66,32.83a11.78,11.78,0,0,1-16.84-2.29,12.56,12.56,0,0,1,2.24-17.29,11.82,11.82,0,0,1,16.84,2.3A12.54,12.54,0,0,1,66,32.83Zm3.66-18.41a13.57,13.57,0,0,0-19.36-2.63,14.43,14.43,0,0,0-2.55,19.87A13.55,13.55,0,0,0,67.13,34.3,14.45,14.45,0,0,0,69.69,14.42Z" fill="#008bfd"/><path d="M52.06,25.61a17,17,0,0,1-2-2.35,18.28,18.28,0,0,0-1.66,6.88c.11.16.11.29.23.45a13.4,13.4,0,0,0,2,2.05A14.14,14.14,0,0,1,52.06,25.61Z" fill="#008bfd"/><path d="M56.67,16.17a21,21,0,0,0-3.33,3,15.71,15.71,0,0,0-1.61,2.05,15.93,15.93,0,0,0,1.9,2.47,15.93,15.93,0,0,1,2.2-2.57A26.31,26.31,0,0,1,59,18.5C58.16,17.73,57.38,17,56.67,16.17Z" fill="#008bfd"/><path d="M68.14,15.37a12.47,12.47,0,0,0-1.73-1.82,12.55,12.55,0,0,0-8,1.54c.76.83,1.51,1.62,2.24,2.36C65,15,68.14,15.37,68.14,15.37Z" fill="#008bfd"/><path d="M55.9,25.79a22.67,22.67,0,0,1-2.27-2.13,13.15,13.15,0,0,0-1.14,1.95,25.16,25.16,0,0,0,2.09,1.9A19.15,19.15,0,0,0,67.14,31.9,9.13,9.13,0,0,0,68.68,30C67.45,30.21,62.19,30.9,55.9,25.79Z" fill="#008bfd"/><path d="M50.54,23.26a16.8,16.8,0,0,0,2,2.35,14.09,14.09,0,0,1,1.14-1.95,15.93,15.93,0,0,1-1.9-2.47A15.67,15.67,0,0,0,50.54,23.26Z" fill="#008bfd"/><path d="M59,18.49a98.68,98.68,0,0,0,11.15,8.83,10.76,10.76,0,0,0,.33-1.06,95,95,0,0,1-9.83-8.81A17.67,17.67,0,0,0,59,18.49Z" fill="#008bfd"/><path d="M58.38,15.08c-1.1-1.18-2.22-2.44-3.36-3.8a11.09,11.09,0,0,0-1.59.66,26.8,26.8,0,0,0,3.24,4.23A15.69,15.69,0,0,1,58.38,15.08Z" fill="#008bfd"/><path d="M58.45,15a18.74,18.74,0,0,0-1.87,1.19c.72.79,1.45,1.59,2.25,2.36.57-.41,1.34-.89,1.87-1.19C60,16.67,59.21,15.88,58.45,15Z" fill="#008bfd"/><path d="M58.25,14.94a14.89,14.89,0,0,0-1.67,1.13c.72.78,1.74,1.8,2.54,2.57a18.53,18.53,0,0,1,1.58-1.11C60,16.8,59,15.78,58.25,14.94Z" fill="#008bfd"/><path d="M64.3,21.49a2.71,2.71,0,0,0-.48,3.71,2.55,2.55,0,0,0,3.63.5A2.72,2.72,0,0,0,67.93,22,2.55,2.55,0,0,0,64.3,21.49Z" fill="#008bfd"/><path d="M59.24,27.83a2.51,2.51,0,0,0-.45,3.43,2.37,2.37,0,0,0,3.36.46,2.49,2.49,0,0,0,.44-3.43A2.35,2.35,0,0,0,59.24,27.83Z" fill="#008bfd"/><path d="M50,20.3a3.79,3.79,0,0,0-.68,5.21,3.57,3.57,0,0,0,5.1.69A3.8,3.8,0,0,0,55.08,21,3.58,3.58,0,0,0,50,20.3Z" fill="#008bfd"/><path d="M50.6,23.07A19.94,19.94,0,0,1,51.79,21a9.83,9.83,0,0,1-1.6-6.79,13.9,13.9,0,0,0-1.29,1.6C48.52,17.42,48.5,20,50.6,23.07Z" fill="#008bfd" fill-rule="evenodd"/><g style="isolation:isolate"><path d="M31.89,47A2.47,2.47,0,0,1,30,46.24a2.93,2.93,0,0,1-.72-2.05A3,3,0,0,1,30,42a2.55,2.55,0,0,1,2-.81,2.41,2.41,0,0,1,1.87.78,3,3,0,0,1,.71,2.05,3.1,3.1,0,0,1-.73,2.17A2.49,2.49,0,0,1,31.89,47Zm0-5.19a1.81,1.81,0,0,0-1.43.63,2.83,2.83,0,0,0,0,3.34,1.73,1.73,0,0,0,1.4.63,1.85,1.85,0,0,0,1.45-.6,2.47,2.47,0,0,0,.53-1.68,2.56,2.56,0,0,0-.52-1.72A1.76,1.76,0,0,0,31.93,41.83Z" fill="#008bfd"/><path d="M38.86,48.39h-.54V46.93h-3v1.46h-.55v-2h.36a6,6,0,0,0,1-3.46h2.08v3.46h.59Zm-1.23-2V43.47h-.89a6.19,6.19,0,0,1-.91,2.92Z" fill="#008bfd"/><path d="M42.87,46.93h-.64V45.11h-2v1.82h-.64v-4h.64v1.64h2V42.93h.64Z" fill="#008bfd"/><path d="M45.64,47a1.84,1.84,0,0,1-1.42-.56A2.08,2.08,0,0,1,43.69,45a2.2,2.2,0,0,1,.55-1.58,2,2,0,0,1,1.49-.57,1.8,1.8,0,0,1,1.4.56,2.51,2.51,0,0,1,0,3.06A1.91,1.91,0,0,1,45.64,47Zm0-3.65a1.21,1.21,0,0,0-1,.42A1.73,1.73,0,0,0,44.35,45a1.62,1.62,0,0,0,.36,1.12,1.21,1.21,0,0,0,1,.41,1.16,1.16,0,0,0,1-.4A1.76,1.76,0,0,0,47,44.94a1.8,1.8,0,0,0-.33-1.16A1.17,1.17,0,0,0,45.68,43.37Z" fill="#008bfd"/><path d="M51.18,46.74a2,2,0,0,1-1.09.28,1.79,1.79,0,0,1-1.38-.55A2,2,0,0,1,48.18,45a2.21,2.21,0,0,1,.57-1.59,2,2,0,0,1,1.51-.6,2.12,2.12,0,0,1,.93.2v.66a1.65,1.65,0,0,0-1-.32,1.3,1.3,0,0,0-1,.44A1.7,1.7,0,0,0,48.84,45a1.57,1.57,0,0,0,.37,1.11,1.25,1.25,0,0,0,1,.4,1.62,1.62,0,0,0,1-.34Z" fill="#008bfd"/><path d="M54.46,43.48h-1.2v3.45h-.64V43.48h-1.2v-.55h3Z" fill="#008bfd"/><path d="M55.69,46.35h0v2.42H55V42.93h.64v.7h0a1.51,1.51,0,0,1,1.38-.8,1.48,1.48,0,0,1,1.21.54,2.29,2.29,0,0,1,.43,1.44,2.46,2.46,0,0,1-.49,1.61,1.64,1.64,0,0,1-1.34.6A1.33,1.33,0,0,1,55.69,46.35Zm0-1.61v.56a1.2,1.2,0,0,0,.32.84,1.16,1.16,0,0,0,1.73-.1,2.05,2.05,0,0,0,.33-1.24,1.6,1.6,0,0,0-.31-1,1,1,0,0,0-.83-.38,1.14,1.14,0,0,0-.9.39A1.43,1.43,0,0,0,55.67,44.74Z" fill="#008bfd"/><path d="M62.4,46.93h-.65V46.3h0a1.47,1.47,0,0,1-2.17.41,1.14,1.14,0,0,1-.33-.84c0-.75.44-1.19,1.32-1.31l1.19-.17c0-.68-.27-1-.82-1a1.94,1.94,0,0,0-1.3.5v-.66A2.46,2.46,0,0,1,61,42.83q1.41,0,1.41,1.5Zm-.65-2-1,.14a1.46,1.46,0,0,0-.67.22.72.72,0,0,0,0,1,.84.84,0,0,0,.56.18,1,1,0,0,0,.78-.33,1.19,1.19,0,0,0,.31-.85Z" fill="#008bfd"/><path d="M66.72,46.93h-.64V45.11H64v1.82H63.4v-4H64v1.64h2V42.93h.64Z" fill="#008bfd"/><path d="M71.17,46.93h-.58V43.74a5.31,5.31,0,0,1-.26.47l-1.85,2.72h-.66v-4h.59v3.15a3.67,3.67,0,0,1,.2-.39l1.9-2.76h.66Z" fill="#008bfd"/><path d="M75.49,46.93h-.64V45.32a2.77,2.77,0,0,1-1.29.38c-.9,0-1.35-.47-1.35-1.42V42.93h.64v1.32c0,.58.26.88.76.88a2.67,2.67,0,0,0,1.24-.34V42.93h.64Z" fill="#008bfd"/><path d="M79.91,46.93h-.64V45.11h-2v1.82h-.64v-4h.64v1.64h2V42.93h.64Z" fill="#008bfd"/><path d="M82.68,47a1.84,1.84,0,0,1-1.42-.56A2.08,2.08,0,0,1,80.73,45a2.2,2.2,0,0,1,.55-1.58,2,2,0,0,1,1.49-.57,1.8,1.8,0,0,1,1.4.56,2.51,2.51,0,0,1,0,3.06A1.91,1.91,0,0,1,82.68,47Zm0-3.65a1.21,1.21,0,0,0-1,.42A1.73,1.73,0,0,0,81.39,45a1.62,1.62,0,0,0,.36,1.12,1.21,1.21,0,0,0,1,.41,1.16,1.16,0,0,0,1-.4A1.76,1.76,0,0,0,84,44.94a1.8,1.8,0,0,0-.33-1.16A1.17,1.17,0,0,0,82.72,43.37Z" fill="#008bfd"/><path d="M88.71,45.09H85.88a1.49,1.49,0,0,0,.36,1,1.26,1.26,0,0,0,1,.36A2,2,0,0,0,88.43,46v.6A2.36,2.36,0,0,1,87,47a1.72,1.72,0,0,1-1.34-.54,2.27,2.27,0,0,1-.48-1.54,2.2,2.2,0,0,1,.53-1.52,1.7,1.7,0,0,1,1.31-.59,1.51,1.51,0,0,1,1.22.51,2.16,2.16,0,0,1,.43,1.41Zm-.66-.54a1.29,1.29,0,0,0-.27-.87.92.92,0,0,0-.73-.31,1,1,0,0,0-.77.33,1.47,1.47,0,0,0-.39.85Z" fill="#008bfd"/><path d="M40.59,56.53H40V53.07h-2v3.46h-.64v-4h3.32Z" fill="#008bfd"/><path d="M42.35,56h0v2.42h-.64V52.53h.64v.7h0a1.51,1.51,0,0,1,1.38-.8,1.48,1.48,0,0,1,1.21.54,2.29,2.29,0,0,1,.43,1.44A2.46,2.46,0,0,1,44.88,56a1.62,1.62,0,0,1-1.34.6A1.33,1.33,0,0,1,42.35,56Zm0-1.61v.56a1.2,1.2,0,0,0,.32.84,1.16,1.16,0,0,0,1.73-.1,2.05,2.05,0,0,0,.33-1.24,1.6,1.6,0,0,0-.31-1,1,1,0,0,0-.83-.38,1.14,1.14,0,0,0-.9.39A1.43,1.43,0,0,0,42.33,54.34Z" fill="#008bfd"/><path d="M49.54,56.53H49V53.34l-.26.47-1.85,2.72h-.67v-4h.59v3.15c0-.07.1-.2.2-.39l1.9-2.76h.66Z" fill="#008bfd"/><path d="M53.56,56.53h-.64V53.07H52a8.17,8.17,0,0,1-.55,2.73,1.16,1.16,0,0,1-1,.78,1.11,1.11,0,0,1-.34,0V56a.73.73,0,0,0,.29.07c.57,0,.94-1.18,1.11-3.52h2.1Z" fill="#008bfd"/><path d="M56.33,56.62a1.85,1.85,0,0,1-1.42-.56,2.09,2.09,0,0,1-.53-1.49A2.19,2.19,0,0,1,54.93,53a2,2,0,0,1,1.49-.57,1.83,1.83,0,0,1,1.4.55,2.22,2.22,0,0,1,.5,1.53,2.18,2.18,0,0,1-.54,1.54A1.9,1.9,0,0,1,56.33,56.62ZM56.38,53a1.21,1.21,0,0,0-1,.42A1.73,1.73,0,0,0,55,54.55a1.64,1.64,0,0,0,.36,1.12,1.22,1.22,0,0,0,1,.41,1.16,1.16,0,0,0,.95-.4,1.76,1.76,0,0,0,.33-1.14,1.8,1.8,0,0,0-.33-1.16A1.16,1.16,0,0,0,56.38,53Z" fill="#008bfd"/><path d="M64.46,56.53h-.87l-1.79-2h0v2h-.61v-2h0l-1.79,2h-.86l2-2.06-1.87-1.94h.82l1.71,1.87h0V52.53h.61V54.4h0l1.71-1.87h.82l-1.87,1.94Z" fill="#008bfd"/><path d="M68.13,54.69H65.3a1.49,1.49,0,0,0,.36,1,1.26,1.26,0,0,0,1,.36,2,2,0,0,0,1.24-.44v.6a2.36,2.36,0,0,1-1.39.38,1.72,1.72,0,0,1-1.34-.54,2.27,2.27,0,0,1-.48-1.54A2.2,2.2,0,0,1,65.17,53a1.7,1.7,0,0,1,1.31-.59,1.51,1.51,0,0,1,1.22.51,2.16,2.16,0,0,1,.43,1.41Zm-.66-.54a1.28,1.28,0,0,0-.27-.87.92.92,0,0,0-.73-.31,1,1,0,0,0-.77.33,1.47,1.47,0,0,0-.39.85Z" fill="#008bfd"/><path d="M72.22,56.53h-.64V54.71h-2v1.82H68.9v-4h.64v1.64h2V52.53h.64Z" fill="#008bfd"/><path d="M76.67,56.53h-.58V53.34l-.26.47L74,56.53h-.67v-4h.59v3.15c0-.07.1-.2.2-.39L76,52.53h.67Z" fill="#008bfd"/><path d="M81,54.69H78.15a1.49,1.49,0,0,0,.36,1,1.26,1.26,0,0,0,.95.36,2,2,0,0,0,1.24-.44v.6a2.37,2.37,0,0,1-1.4.38A1.71,1.71,0,0,1,78,56.08a2.27,2.27,0,0,1-.48-1.54A2.2,2.2,0,0,1,78,53a1.7,1.7,0,0,1,1.31-.59,1.51,1.51,0,0,1,1.22.51A2.16,2.16,0,0,1,81,54.35Zm-.66-.54a1.28,1.28,0,0,0-.27-.87.92.92,0,0,0-.73-.31,1,1,0,0,0-.77.33,1.47,1.47,0,0,0-.39.85Z" fill="#008bfd"/></g><path d="M191.76,10.11h-20.5a1.1,1.1,0,0,0-1.09,1.11V28a1.09,1.09,0,0,0,1.09,1.1h5.28a3.29,3.29,0,0,0,3.21,2.27,3.37,3.37,0,0,0,0-6.74,3.29,3.29,0,0,0-3.21,2.27h-4.19v-12h18.31v12h-3.45a7.61,7.61,0,0,0-7.46-6.57,8.25,8.25,0,0,0-3.64.92l1,2a5.28,5.28,0,0,1,2.55-.68,5.46,5.46,0,0,1,0,10.92,5.28,5.28,0,0,1-2.55-.68l-1,2a7.51,7.51,0,0,0,3.64.92,7.61,7.61,0,0,0,7.46-6.57h4.55a1.09,1.09,0,0,0,1.09-1.1V11.22A1.14,1.14,0,0,0,191.76,10.11Z" fill="#008bfd"/><g style="isolation:isolate"><path d="M162.52,48.63h-.66v-5h-2.93v5h-.66V43h4.25Z" fill="#008bfd"/><path d="M164.34,48.05h0v2.42h-.64V44.63h.64v.7h0a1.53,1.53,0,0,1,1.39-.8,1.46,1.46,0,0,1,1.2.54,2.23,2.23,0,0,1,.44,1.44,2.51,2.51,0,0,1-.49,1.61,1.64,1.64,0,0,1-1.34.6A1.33,1.33,0,0,1,164.34,48.05Zm0-1.61V47a1.16,1.16,0,0,0,.32.84,1.06,1.06,0,0,0,.82.34,1.08,1.08,0,0,0,.91-.44,2.05,2.05,0,0,0,.33-1.24,1.6,1.6,0,0,0-.31-1,1,1,0,0,0-.83-.38,1.12,1.12,0,0,0-.9.39A1.43,1.43,0,0,0,164.33,46.44Z" fill="#008bfd"/><path d="M171.54,48.63H171V45.44a5.31,5.31,0,0,1-.26.47l-1.85,2.72h-.66v-4h.59v3.15c0-.07.1-.2.2-.39l1.9-2.76h.66Z" fill="#008bfd"/><path d="M175.56,48.63h-.64V45.17H174a8.37,8.37,0,0,1-.55,2.73,1.11,1.11,0,0,1-1.39.73v-.55a.73.73,0,0,0,.3.07c.57,0,.94-1.17,1.11-3.52h2.1Z" fill="#008bfd"/><path d="M178.33,48.72a1.82,1.82,0,0,1-1.42-.56,2.08,2.08,0,0,1-.53-1.48,2.16,2.16,0,0,1,.55-1.58,2,2,0,0,1,1.49-.57,1.8,1.8,0,0,1,1.4.56,2.51,2.51,0,0,1,0,3.06A1.91,1.91,0,0,1,178.33,48.72Zm0-3.65a1.21,1.21,0,0,0-1,.42,1.73,1.73,0,0,0-.36,1.16,1.62,1.62,0,0,0,.36,1.12,1.21,1.21,0,0,0,1,.41,1.18,1.18,0,0,0,1-.4,1.76,1.76,0,0,0,.33-1.14,1.8,1.8,0,0,0-.33-1.16A1.18,1.18,0,0,0,178.37,45.07Z" fill="#008bfd"/><path d="M186.45,48.63h-.86l-1.79-2h0v2h-.61v-2h0l-1.8,2h-.85l2-2.06-1.86-1.94h.82l1.71,1.87h0V44.63h.61V46.5h0l1.71-1.87h.82l-1.87,1.94Z" fill="#008bfd"/><path d="M190.12,46.79H187.3a1.49,1.49,0,0,0,.36,1,1.24,1.24,0,0,0,.94.36,2,2,0,0,0,1.25-.44v.6a2.37,2.37,0,0,1-1.4.38,1.7,1.7,0,0,1-1.33-.54,2.27,2.27,0,0,1-.48-1.54,2.15,2.15,0,0,1,.53-1.52,1.7,1.7,0,0,1,1.31-.59,1.49,1.49,0,0,1,1.21.51,2.1,2.1,0,0,1,.43,1.41Zm-.65-.54a1.29,1.29,0,0,0-.27-.87.94.94,0,0,0-.73-.31,1,1,0,0,0-.77.33,1.47,1.47,0,0,0-.39.85Z" fill="#008bfd"/><path d="M194.21,48.63h-.64V46.81h-2v1.82h-.64v-4h.64v1.64h2V44.63h.64Z" fill="#008bfd"/><path d="M198.66,48.63h-.58V45.44a5.31,5.31,0,0,1-.26.47L196,48.63h-.66v-4h.59v3.15c0-.07.1-.2.2-.39l1.9-2.76h.66Z" fill="#008bfd"/><path d="M203,46.79h-2.82a1.49,1.49,0,0,0,.36,1,1.24,1.24,0,0,0,.94.36,2,2,0,0,0,1.25-.44v.6a2.39,2.39,0,0,1-1.4.38,1.7,1.7,0,0,1-1.33-.54,2.27,2.27,0,0,1-.48-1.54,2.19,2.19,0,0,1,.52-1.52,1.73,1.73,0,0,1,1.32-.59,1.49,1.49,0,0,1,1.21.51,2.1,2.1,0,0,1,.43,1.41Zm-.65-.54a1.29,1.29,0,0,0-.27-.87.94.94,0,0,0-.73-.31,1,1,0,0,0-.77.33,1.47,1.47,0,0,0-.39.85Z" fill="#008bfd"/><path d="M180.9,58.23h-.73l-.59-1.57H177.2l-.56,1.57h-.73l2.15-5.6h.68Zm-1.54-2.16-.88-2.39a1.62,1.62,0,0,1-.08-.37h0a2.87,2.87,0,0,1-.09.37l-.87,2.39Z" fill="#008bfd"/><path d="M182.18,56.11v2.12h-.66v-5.6h1.54a2,2,0,0,1,1.39.43,1.59,1.59,0,0,1,.5,1.24,1.71,1.71,0,0,1-.55,1.3,2.1,2.1,0,0,1-1.48.51Zm0-2.89v2.3h.68a1.57,1.57,0,0,0,1-.31,1.1,1.1,0,0,0,.36-.88c0-.74-.44-1.11-1.31-1.11Z" fill="#008bfd"/><path d="M186.46,58.23h-.66v-5.6h.66Z" fill="#008bfd"/></g><path d="M161.69,18.87l8.05,4-8,4a9,9,0,0,0,0-8" fill="#505050"/><path d="M7.85,15.21a4.49,4.49,0,0,0-3,5.66c.66,2.55,3,4.22,5.27,3.66a4.49,4.49,0,0,0,3-5.66C12.57,16.2,10.16,14.54,7.85,15.21Z" fill="#008bfd"/><path d="M12.79,25.22c-.44,0-.88.78-1.54,1.11s-1.32.89-3.18,0S6,24.66,4.44,24.66.38,27.44.38,31.55H16a12.09,12.09,0,0,0-1.1-4.22C13.77,25.22,13.23,25.22,12.79,25.22Z" fill="#008bfd"/><path d="M14.19,20.28H10.07a.71.71,0,0,0-.65.65v2.85a.73.73,0,0,0,.76.66h.76v5.15a1,1,0,0,0,1,1.1,1,1,0,0,0,1-1h.21V29c0-.22.33-.33.33-.33v-.33c-.33-.1-.54-.32-.54-.43v-.33l.21-.22a3.53,3.53,0,0,0,.33-.55,2.4,2.4,0,0,1-.33-.55c-.1-.11-.1-.33-.21-.44v-.21a2.51,2.51,0,0,1,.76-1.1h.54a.71.71,0,0,0,.65-.66v-3A.63.63,0,0,0,14.19,20.28ZM11.8,29.81c0,.22,0,.33-.21.33s-.22-.22-.22-.33V25c0-.22.11-.33.22-.33s.21.22.21.33ZM12.13,22a.66.66,0,0,1,0-1.32.71.71,0,0,1,.65.66A.63.63,0,0,1,12.13,22Z" fill="#008bfd" stroke="gray" stroke-linecap="round" stroke-linejoin="round" stroke-width="0.75"/><path d="M11.57,30.12a.25.25,0,0,1-.22-.23v-5a.22.22,0,1,1,.44,0V30C11.79,30.12,11.68,30.12,11.57,30.12Z" fill="#fff"/><ellipse cx="12.14" cy="21.35" rx="0.66" ry="0.67" fill="#fff"/><line x1="72.53" y1="22.87" x2="162.7" y2="22.87" fill="none" stroke="#505050" stroke-miterlimit="10"/></svg>