<svg xmlns="http://www.w3.org/2000/svg" viewBox="0 0 201.3 58.7"><title>OJ104546510</title><path d="M66,32.8a11.6,11.6,0,0,1-7.3,2.6,11.9,11.9,0,0,1-9.5-4.9,12.7,12.7,0,0,1,2.2-17.3,11.9,11.9,0,0,1,7.3-2.5,12.2,12.2,0,0,1,9.6,4.8A12.6,12.6,0,0,1,66,32.8Zm3.7-18.4a13.7,13.7,0,0,0-11-5.5,13.4,13.4,0,0,0-8.4,2.9,14.4,14.4,0,0,0-2.5,19.9,13.6,13.6,0,0,0,10.9,5.5,13.2,13.2,0,0,0,8.4-2.9A14.5,14.5,0,0,0,69.7,14.4Z" transform="translate(-0.4 -5.9)" fill="#008bfd"/><path d="M52.1,25.6a19.2,19.2,0,0,1-2-2.3,17.4,17.4,0,0,0-1.7,6.8,1.3,1.3,0,0,0,.3.5,9.5,9.5,0,0,0,2,2A13.7,13.7,0,0,1,52.1,25.6Z" transform="translate(-0.4 -5.9)" fill="#008bfd"/><path d="M56.7,16.2a21.1,21.1,0,0,0-3.4,2.9l-1.6,2.1a18.4,18.4,0,0,0,1.9,2.5,17.8,17.8,0,0,1,2.2-2.6A22.9,22.9,0,0,1,59,18.5C58.2,17.7,57.4,17,56.7,16.2Z" transform="translate(-0.4 -5.9)" fill="#008bfd"/><path d="M68.1,15.4a15.4,15.4,0,0,0-1.7-1.9,13.3,13.3,0,0,0-8,1.6l2.2,2.3C65,15,68.1,15.4,68.1,15.4Z" transform="translate(-0.4 -5.9)" fill="#008bfd"/><path d="M50.5,32.6l1.2-2a9.8,9.8,0,0,1-1.6-6.8c-.4.5-.9,1-1.3,1.6A9.1,9.1,0,0,0,50.5,32.6Z" transform="translate(-0.4 -5.9)" fill="#008bfd"/><path d="M55.9,25.8a24,24,0,0,1-2.3-2.1l-1.1,1.9a19.9,19.9,0,0,0,2.1,1.9,19.1,19.1,0,0,0,12.5,4.4A8.9,8.9,0,0,0,68.7,30C67.4,30.2,62.2,30.9,55.9,25.8Z" transform="translate(-0.4 -5.9)" fill="#008bfd"/><path d="M50.5,23.3c.6.7,1.2,1.5,2,2.3l1.1-1.9a18.4,18.4,0,0,1-1.9-2.5Z" transform="translate(-0.4 -5.9)" fill="#008bfd"/><path d="M59,18.5a85.5,85.5,0,0,0,11.1,8.8l.3-1a115.2,115.2,0,0,1-9.8-8.8A7,7,0,0,0,59,18.5Z" transform="translate(-0.4 -5.9)" fill="#008bfd"/><path d="M58.4,15.1,55,11.3l-1.6.6a26,26,0,0,0,3.3,4.3Z" transform="translate(-0.4 -5.9)" fill="#008bfd"/><path d="M58.4,15l-1.8,1.2,2.2,2.4,1.9-1.2Z" transform="translate(-0.4 -5.9)" fill="#008bfd"/><path d="M58.2,14.9l-1.6,1.2a29.5,29.5,0,0,0,2.5,2.5l1.6-1.1Z" transform="translate(-0.4 -5.9)" fill="#008bfd"/><path d="M64.3,21.5a2.8,2.8,0,0,0-.5,3.7,2.5,2.5,0,0,0,3.6.5,2.6,2.6,0,0,0,.5-3.7A2.5,2.5,0,0,0,64.3,21.5Z" transform="translate(-0.4 -5.9)" fill="#008bfd"/><path d="M49.3,28.1a2.5,2.5,0,0,0-.4,3.4,2.3,2.3,0,0,0,3.3.5,2.4,2.4,0,0,0-2.9-3.9Z" transform="translate(-0.4 -5.9)" fill="#008bfd"/><path d="M50,20.3a3.8,3.8,0,0,0-.7,5.2,3.6,3.6,0,0,0,5.1.7,3.8,3.8,0,0,0,.7-5.2A3.6,3.6,0,0,0,50,20.3Z" transform="translate(-0.4 -5.9)" fill="#008bfd"/><path d="M183.8,10.1H163.3a1.1,1.1,0,0,0-1.1,1.1V28a1.1,1.1,0,0,0,1.1,1.1h5.2a3.4,3.4,0,0,0,3.3,2.2,3.4,3.4,0,0,0,0-6.7,3.4,3.4,0,0,0-3.3,2.3h-4.1v-12h18.3v12h-3.5a7.6,7.6,0,0,0-7.4-6.6,9.2,9.2,0,0,0-3.7.9l1,2a4.8,4.8,0,0,1,2.6-.7,5.5,5.5,0,0,1,5.4,5.5,5.4,5.4,0,0,1-5.4,5.4,4.8,4.8,0,0,1-2.6-.7l-1,2a7.8,7.8,0,0,0,3.7.9,7.6,7.6,0,0,0,7.4-6.5h4.6a1.1,1.1,0,0,0,1.1-1.1V11.2A1.2,1.2,0,0,0,183.8,10.1Z" transform="translate(-0.4 -5.9)" fill="#008bfd"/><path d="M153.7,18.9l8,4-7.9,4a9.3,9.3,0,0,0,0-8" transform="translate(-0.4 -5.9)" fill="#505050"/><path d="M154.7,22.9" transform="translate(-0.4 -5.9)" fill="#505050"/><path d="M7.8,15.2a4.5,4.5,0,0,0-2.9,5.7,4.5,4.5,0,0,0,5.3,3.6c2.3-.5,3.6-3.1,2.9-5.6S10.2,14.5,7.8,15.2Z" transform="translate(-0.4 -5.9)" fill="#008bfd"/><path d="M12.8,25.2c-.5,0-.9.8-1.6,1.1s-1.3.9-3.1,0S6,24.7,4.4,24.7s-4,2.7-4,6.8H16a14.7,14.7,0,0,0-1.1-4.2C13.8,25.2,13.2,25.2,12.8,25.2Z" transform="translate(-0.4 -5.9)" fill="#008bfd"/><path d="M14.2,20.3H10.1c-.3,0-.7.3-.7.6v2.9c0,.3.4.6.8.6h.7v5.2a1.1,1.1,0,0,0,1,1.1,1,1,0,0,0,1-1h.2V29c0-.2.3-.3.3-.3v-.3c-.3-.1-.5-.3-.5-.5v-.3l.2-.2a3.3,3.3,0,0,0,.3-.6l-.3-.5c-.1-.1-.1-.3-.2-.4v-.3a2.7,2.7,0,0,1,.8-1.1h.5a.6.6,0,0,0,.6-.6v-3A.6.6,0,0,0,14.2,20.3Zm-2.4,9.5c0,.2,0,.3-.2.3s-.2-.2-.2-.3V25c0-.2.1-.3.2-.3s.2.2.2.3Zm.3-7.8a.6.6,0,0,1-.6-.6.7.7,0,0,1,.6-.7.7.7,0,0,1,.7.7C12.8,21.7,12.6,22,12.1,22Z" transform="translate(-0.4 -5.9)" fill="#008bfd" stroke="gray" stroke-linecap="round" stroke-linejoin="round" stroke-width="0.75"/><path d="M11.6,30.1c-.1,0-.3-.1-.3-.2v-5l.3-.2.2.2V30C11.8,30.1,11.7,30.1,11.6,30.1Z" transform="translate(-0.4 -5.9)" fill="#fff"/><ellipse cx="11.8" cy="15.4" rx="0.7" ry="0.7" fill="#fff"/><path d="M22.9,50.5a3,3,0,0,1-2.4-1,3.5,3.5,0,0,1-.9-2.5,3.7,3.7,0,0,1,.9-2.7,3.2,3.2,0,0,1,2.5-1,3.2,3.2,0,0,1,2.4.9,4.2,4.2,0,0,1,.8,2.6,4,4,0,0,1-.9,2.7A3,3,0,0,1,22.9,50.5ZM23,44a2.2,2.2,0,0,0-1.8.8,2.8,2.8,0,0,0-.7,2.1,3.1,3.1,0,0,0,.7,2.1,2.1,2.1,0,0,0,1.7.8,2.2,2.2,0,0,0,1.8-.8,3.5,3.5,0,0,0,0-4.2A2.1,2.1,0,0,0,23,44Z" transform="translate(-0.4 -5.9)"/><path d="M31.9,52.2h-.7V50.4H27.5v1.8h-.7V49.7h.4a7.1,7.1,0,0,0,1.3-4.3h2.6v4.3h.8Zm-1.6-2.5V46.1H29.2a7.6,7.6,0,0,1-1.1,3.6Z" transform="translate(-0.4 -5.9)"/><path d="M37.1,50.4h-.8V48.1H33.8v2.3H33v-5h.8v2h2.5v-2h.8Z" transform="translate(-0.4 -5.9)"/><path d="M40.8,50.5a2.1,2.1,0,0,1-1.7-.7,2.5,2.5,0,0,1-.7-1.9,2.4,2.4,0,0,1,.7-1.9,2.5,2.5,0,0,1,1.9-.7,2.4,2.4,0,0,1,1.7.6,3,3,0,0,1,.6,2,2.9,2.9,0,0,1-.6,1.9A2.5,2.5,0,0,1,40.8,50.5Zm.1-4.6a1.4,1.4,0,0,0-1.2.6,2.2,2.2,0,0,0,0,2.8,1.7,1.7,0,0,0,2.4,0,2,2,0,0,0,.4-1.4,2.4,2.4,0,0,0-.4-1.5A1.7,1.7,0,0,0,40.9,45.9Z" transform="translate(-0.4 -5.9)"/><path d="M48,50.1a2,2,0,0,1-1.3.4,2.3,2.3,0,0,1-1.8-.7,2.8,2.8,0,0,1-.6-1.8,2.7,2.7,0,0,1,.7-2,2.5,2.5,0,0,1,1.9-.7,2,2,0,0,1,1.1.2v.8a2.1,2.1,0,0,0-1.2-.4,1.4,1.4,0,0,0-1.2.6,2,2,0,0,0-.5,1.4,1.6,1.6,0,0,0,.5,1.4,1.3,1.3,0,0,0,1.2.5,1.9,1.9,0,0,0,1.2-.4Z" transform="translate(-0.4 -5.9)"/><path d="M52.4,46.1H50.9v4.3h-.8V46.1H48.6v-.7h3.8Z" transform="translate(-0.4 -5.9)"/><path d="M54.2,49.7h-.1v3h-.8V45.4h.8v.9h.1a1.7,1.7,0,0,1,1.7-1,2,2,0,0,1,1.5.6,2.7,2.7,0,0,1,.5,1.8,3,3,0,0,1-.6,2,1.9,1.9,0,0,1-1.6.8A1.6,1.6,0,0,1,54.2,49.7Zm-.1-2.1v.7a1.8,1.8,0,0,0,.4,1.1,1.4,1.4,0,0,0,1.1.4,1.6,1.6,0,0,0,1.1-.5,2.5,2.5,0,0,0,.4-1.6,1.8,1.8,0,0,0-.4-1.3,1.2,1.2,0,0,0-1-.5,1.3,1.3,0,0,0-1.1.5A1.8,1.8,0,0,0,54.1,47.6Z" transform="translate(-0.4 -5.9)"/><path d="M62.8,50.4H62v-.8h0a1.8,1.8,0,0,1-1.6.9,1.2,1.2,0,0,1-1.1-.4,1.4,1.4,0,0,1-.5-1c0-1,.6-1.5,1.7-1.7l1.5-.2c0-.8-.4-1.3-1-1.3a2.3,2.3,0,0,0-1.7.7v-.9a3.3,3.3,0,0,1,1.7-.4,1.6,1.6,0,0,1,1.8,1.8ZM62,47.8l-1.2.2-.9.3a1.2,1.2,0,0,0-.2.7,1.4,1.4,0,0,0,.2.6l.7.2a1.3,1.3,0,0,0,1-.4,1.4,1.4,0,0,0,.4-1.1Z" transform="translate(-0.4 -5.9)"/><path d="M68.5,50.4h-.8V48.1H65.1v2.3h-.8v-5h.8v2h2.6v-2h.8Z" transform="translate(-0.4 -5.9)"/><path d="M74.3,50.4h-.8v-4a1.5,1.5,0,0,1-.3.6l-2.3,3.4h-.8v-5h.7v3.9l.3-.5,2.3-3.4h.9Z" transform="translate(-0.4 -5.9)"/><path d="M79.9,50.4h-.8v-2a3.4,3.4,0,0,1-1.6.4,1.5,1.5,0,0,1-1.7-1.7V45.4h.8V47c0,.8.3,1.1,1,1.1a3.1,3.1,0,0,0,1.5-.4V45.4h.8Z" transform="translate(-0.4 -5.9)"/><path d="M85.7,50.4h-.8V48.1H82.3v2.3h-.8v-5h.8v2h2.6v-2h.8Z" transform="translate(-0.4 -5.9)"/><path d="M89.4,50.5a2.4,2.4,0,0,1-1.8-.7,2.9,2.9,0,0,1-.6-1.9,2.4,2.4,0,0,1,.7-1.9,2.1,2.1,0,0,1,1.8-.7,2.6,2.6,0,0,1,1.8.6,3,3,0,0,1,.6,2,2.5,2.5,0,0,1-.7,1.9A2.1,2.1,0,0,1,89.4,50.5Zm.1-4.6a1.5,1.5,0,0,0-1.3.6,2.6,2.6,0,0,0,0,2.8,1.4,1.4,0,0,0,1.3.5c.5,0,.9-.1,1.1-.5a2,2,0,0,0,.5-1.4,2.5,2.5,0,0,0-.5-1.5A1.3,1.3,0,0,0,89.5,45.9Z" transform="translate(-0.4 -5.9)"/><path d="M97.2,48.1H93.7a1.8,1.8,0,0,0,.4,1.3,1.6,1.6,0,0,0,1.2.4,2.7,2.7,0,0,0,1.5-.5V50a2.9,2.9,0,0,1-1.7.5,2.1,2.1,0,0,1-1.7-.7,2.7,2.7,0,0,1-.6-1.9,2.5,2.5,0,0,1,.7-1.9,2,2,0,0,1,1.6-.7,1.8,1.8,0,0,1,1.5.6,2.4,2.4,0,0,1,.6,1.8Zm-.8-.7a1.8,1.8,0,0,0-.4-1.1,1.2,1.2,0,0,0-1.8,0,1.6,1.6,0,0,0-.5,1.1Z" transform="translate(-0.4 -5.9)"/><path d="M34.3,62.4h-.8V58.1H30.9v4.3h-.8v-5h4.2Z" transform="translate(-0.4 -5.9)"/><path d="M36.7,61.7h0v3h-.8V57.4h.8v.9h0a1.9,1.9,0,0,1,1.8-1,2,2,0,0,1,1.5.6,3.5,3.5,0,0,1,.5,1.8,3,3,0,0,1-.6,2,2.1,2.1,0,0,1-1.7.8A1.9,1.9,0,0,1,36.7,61.7Zm0-2.1v.7a1.4,1.4,0,0,0,.4,1.1,1.3,1.3,0,0,0,1,.4,1.7,1.7,0,0,0,1.2-.5,2.5,2.5,0,0,0,.4-1.6,1.8,1.8,0,0,0-.4-1.3,1.4,1.4,0,0,0-1-.5,1.7,1.7,0,0,0-1.2.5A2.5,2.5,0,0,0,36.7,59.6Z" transform="translate(-0.4 -5.9)"/><path d="M46,62.4h-.7v-4l-.4.6-2.3,3.4h-.8v-5h.7v3.9l.3-.5,2.3-3.4H46Z" transform="translate(-0.4 -5.9)"/><path d="M51.2,62.4h-.7V58.1H49.3a10.4,10.4,0,0,1-.7,3.4,1.5,1.5,0,0,1-1.3.9h-.4v-.7h.3c.8,0,1.2-1.5,1.4-4.4h2.6Z" transform="translate(-0.4 -5.9)"/><path d="M55,62.5a2.1,2.1,0,0,1-1.8-.7,2.5,2.5,0,0,1-.7-1.9,2.7,2.7,0,0,1,.7-1.9,2.5,2.5,0,0,1,1.9-.7,2.4,2.4,0,0,1,1.7.6,3,3,0,0,1,.6,2,2.9,2.9,0,0,1-.6,1.9A2.4,2.4,0,0,1,55,62.5Zm0-4.6a1.4,1.4,0,0,0-1.2.6,2.2,2.2,0,0,0,0,2.8,1.7,1.7,0,0,0,2.4,0,2,2,0,0,0,.4-1.4,2.4,2.4,0,0,0-.4-1.5A1.7,1.7,0,0,0,55,57.9Z" transform="translate(-0.4 -5.9)"/><path d="M65.4,62.4H64.3L62,59.9h0v2.5h-.7V59.9h-.1L59,62.4H57.9l2.5-2.6-2.3-2.4h1l2.1,2.3h.1V57.4H62v2.3h0l2.2-2.3h1l-2.3,2.4Z" transform="translate(-0.4 -5.9)"/><path d="M70.2,60.1H66.7a1.8,1.8,0,0,0,.4,1.3,1.6,1.6,0,0,0,1.2.4,3,3,0,0,0,1.6-.5V62a3.5,3.5,0,0,1-1.8.5,1.9,1.9,0,0,1-1.6-.7,2.4,2.4,0,0,1-.7-1.9,2.9,2.9,0,0,1,.7-1.9,2.1,2.1,0,0,1,1.7-.7,2,2,0,0,1,1.5.6,3,3,0,0,1,.5,1.8Zm-.8-.7a1.8,1.8,0,0,0-.3-1.1,1.8,1.8,0,0,0-1-.4,1.5,1.5,0,0,0-.9.4,1.6,1.6,0,0,0-.5,1.1Z" transform="translate(-0.4 -5.9)"/><path d="M75.6,62.4h-.8V60.1H72.2v2.3h-.8v-5h.8v2h2.6v-2h.8Z" transform="translate(-0.4 -5.9)"/><path d="M81.4,62.4h-.7v-4l-.4.6L78,62.4h-.8v-5h.7v3.9l.3-.5,2.3-3.4h.9Z" transform="translate(-0.4 -5.9)"/><path d="M87,60.1H83.5a2.5,2.5,0,0,0,.4,1.3,1.6,1.6,0,0,0,1.2.4,3,3,0,0,0,1.6-.5V62a3.2,3.2,0,0,1-1.8.5,1.9,1.9,0,0,1-1.6-.7,2.7,2.7,0,0,1-.6-1.9,2.9,2.9,0,0,1,.6-1.9,2.2,2.2,0,0,1,1.7-.7,2,2,0,0,1,1.5.6,3,3,0,0,1,.5,1.8Zm-.8-.7a1.8,1.8,0,0,0-.3-1.1,1.8,1.8,0,0,0-1-.4,1.8,1.8,0,0,0-.9.4,2.2,2.2,0,0,0-.5,1.1Z" transform="translate(-0.4 -5.9)"/><path d="M151.1,50.4h-.9V44.1h-3.6v6.3h-.8v-7h5.3Z" transform="translate(-0.4 -5.9)"/><path d="M153.3,49.7h0v3h-.8V45.4h.8v.9h0a1.9,1.9,0,0,1,1.8-1,2,2,0,0,1,1.5.6,3.5,3.5,0,0,1,.5,1.8,3,3,0,0,1-.6,2,2,2,0,0,1-1.7.8A1.9,1.9,0,0,1,153.3,49.7Zm0-2.1v.7a1.8,1.8,0,0,0,.4,1.1,1.4,1.4,0,0,0,1.1.4,1.6,1.6,0,0,0,1.1-.5,2.5,2.5,0,0,0,.4-1.6,1.8,1.8,0,0,0-.4-1.3,1.2,1.2,0,0,0-1-.5,1.3,1.3,0,0,0-1.1.5A1.7,1.7,0,0,0,153.3,47.6Z" transform="translate(-0.4 -5.9)"/><path d="M162.3,50.4h-.7v-4c0,.1-.2.3-.3.6L159,50.4h-.8v-5h.7v3.9l.2-.5,2.4-3.4h.8Z" transform="translate(-0.4 -5.9)"/><path d="M167.4,50.4h-.8V46.1h-1.2a10.4,10.4,0,0,1-.7,3.4,1.4,1.4,0,0,1-1.3.9H163v-.7h.4c.7,0,1.1-1.5,1.3-4.4h2.7Z" transform="translate(-0.4 -5.9)"/><path d="M170.8,50.5a2.1,2.1,0,0,1-1.7-.7,2.5,2.5,0,0,1-.7-1.9,2.4,2.4,0,0,1,.7-1.9,2.3,2.3,0,0,1,1.8-.7,2.4,2.4,0,0,1,1.8.6,3,3,0,0,1,.6,2,2.5,2.5,0,0,1-.7,1.9A2.1,2.1,0,0,1,170.8,50.5Zm.1-4.6a1.4,1.4,0,0,0-1.2.6,2.2,2.2,0,0,0,0,2.8,1.7,1.7,0,0,0,1.2.5,1.3,1.3,0,0,0,1.2-.5,2,2,0,0,0,.4-1.4,2.4,2.4,0,0,0-.4-1.5A1.7,1.7,0,0,0,170.9,45.9Z" transform="translate(-0.4 -5.9)"/><path d="M181,50.4h-1.1l-2.2-2.5h-.1v2.5h-.7V47.9h0l-2.3,2.5h-1l2.4-2.6-2.3-2.4h1l2.2,2.3h0V45.4h.7v2.3h.1l2.1-2.3h1l-2.3,2.4Z" transform="translate(-0.4 -5.9)"/><path d="M185.6,48.1H182a2.5,2.5,0,0,0,.5,1.3,1.6,1.6,0,0,0,1.2.4,2.7,2.7,0,0,0,1.5-.5V50a2.9,2.9,0,0,1-1.7.5,2.1,2.1,0,0,1-1.7-.7,2.7,2.7,0,0,1-.6-1.9,2.5,2.5,0,0,1,.7-1.9,2,2,0,0,1,1.6-.7,1.8,1.8,0,0,1,1.5.6,2.4,2.4,0,0,1,.6,1.8Zm-.8-.7a1.8,1.8,0,0,0-.4-1.1,1.3,1.3,0,0,0-.9-.4,1.8,1.8,0,0,0-1,.4,2.1,2.1,0,0,0-.4,1.1Z" transform="translate(-0.4 -5.9)"/><path d="M190.7,50.4h-.8V48.1h-2.6v2.3h-.8v-5h.8v2h2.6v-2h.8Z" transform="translate(-0.4 -5.9)"/><path d="M196.2,50.4h-.7v-4c0,.1-.2.3-.3.6l-2.3,3.4h-.8v-5h.7v3.9l.2-.5,2.4-3.4h.8Z" transform="translate(-0.4 -5.9)"/><path d="M201.6,48.1h-3.5a1.9,1.9,0,0,0,.5,1.3,1.2,1.2,0,0,0,1.1.4,3,3,0,0,0,1.6-.5V50a3,3,0,0,1-1.8.5,1.9,1.9,0,0,1-1.6-.7,2.7,2.7,0,0,1-.6-1.9,2.9,2.9,0,0,1,.6-1.9,2.2,2.2,0,0,1,1.7-.7,2,2,0,0,1,1.5.6,2.4,2.4,0,0,1,.5,1.8Zm-.8-.7a1.8,1.8,0,0,0-.3-1.1,1.3,1.3,0,0,0-.9-.4,1.8,1.8,0,0,0-1,.4,2.2,2.2,0,0,0-.5,1.1Z" transform="translate(-0.4 -5.9)"/><path d="M172.7,62.4h-.9l-.8-2h-2.9l-.7,2h-1l2.7-7h.9Zm-1.9-2.7-1.1-3c-.1-.1-.1-.3-.2-.5h0a.7.7,0,0,1-.1.5l-1.1,3Z" transform="translate(-0.4 -5.9)"/><path d="M174.3,59.7v2.7h-.8v-7h1.9a2.9,2.9,0,0,1,1.7.5,2.1,2.1,0,0,1,.6,1.6,2,2,0,0,1-.7,1.6,2.4,2.4,0,0,1-1.8.6Zm0-3.6V59h.8a1.7,1.7,0,0,0,1.3-.4,1.4,1.4,0,0,0,.5-1.1c0-.9-.6-1.4-1.7-1.4Z" transform="translate(-0.4 -5.9)"/><path d="M179.6,62.4h-.8v-7h.8Z" transform="translate(-0.4 -5.9)"/><path d="M84.5,13.4h-.9V10.2H80v3.2h-.8v-7H80v3h3.6v-3h.9Z" transform="translate(-0.4 -5.9)" fill="#00b0f0"/><path d="M90.2,11.1H86.7a1.8,1.8,0,0,0,.4,1.3,1.6,1.6,0,0,0,1.2.4,3,3,0,0,0,1.6-.5V13a3.5,3.5,0,0,1-1.8.5,2.2,2.2,0,0,1-1.7-.7,2.7,2.7,0,0,1-.6-1.9A2.9,2.9,0,0,1,86.5,9a2,2,0,0,1,1.6-.7,2.1,2.1,0,0,1,1.6.6,3,3,0,0,1,.5,1.8Zm-.8-.7A1.4,1.4,0,0,0,89,9.3a1.3,1.3,0,0,0-.9-.4,1.5,1.5,0,0,0-.9.4,1.6,1.6,0,0,0-.5,1.1Z" transform="translate(-0.4 -5.9)" fill="#00b0f0"/><path d="M94.8,13.4H94V11.3h-.6c-.4,0-.7.3-.9.8l-.7,1.3h-.9l.8-1.6a1.8,1.8,0,0,1,.8-.7,1.3,1.3,0,0,1-.9-.4,1.2,1.2,0,0,1-.3-.9,1.2,1.2,0,0,1,.4-1,2.1,2.1,0,0,1,1.4-.4h1.7ZM94,10.6V9.1h-.9c-.7,0-1,.2-1,.7s.3.8,1,.8Z" transform="translate(-0.4 -5.9)" fill="#00b0f0"/><path d="M96.4,13.4v-5h2.2a2.1,2.1,0,0,1,1.2.3,1,1,0,0,1,.4.9,1.2,1.2,0,0,1-.9,1.2c.7.1,1.1.5,1.1,1.1a1.6,1.6,0,0,1-.5,1.1,2.1,2.1,0,0,1-1.1.4Zm.8-4.3v1.4h1.2c.7,0,1-.3,1-.8s-.3-.6-.9-.6Zm0,2.1v1.5h1.4c.7,0,1-.3,1-.8s-.4-.7-1.1-.7Z" transform="translate(-0.4 -5.9)" fill="#00b0f0"/><path d="M105.9,13.4h-.8V11.1h-2.6v2.3h-.8v-5h.8v2h2.6v-2h.8Z" transform="translate(-0.4 -5.9)" fill="#00b0f0"/><path d="M107.5,13.4v-5h.8v1.9h1.4a1.6,1.6,0,0,1,1.2.4,1.4,1.4,0,0,1,.4,1.1,1.6,1.6,0,0,1-.4,1.2,2.1,2.1,0,0,1-1.2.4Zm.8-2.4v1.7h1.2c.7,0,1-.3,1-.9s-.3-.8-1-.8Zm4.7,2.4h-.8v-5h.8Z" transform="translate(-0.4 -5.9)" fill="#00b0f0"/><path d="M118.8,13.4h-.7v-4l-.4.6-2.3,3.4h-.8v-5h.7v3.9a1.1,1.1,0,0,0,.3-.5L118,8.4h.8Zm-.3-7.5a1.1,1.1,0,0,1-.6,1.1,1.6,1.6,0,0,1-1.2.4,1.7,1.7,0,0,1-1.2-.4,1.6,1.6,0,0,1-.5-1.1h.8c.1.7.4,1,1,1a.9.9,0,0,0,.6-.3.8.8,0,0,0,.3-.7Z" transform="translate(-0.4 -5.9)" fill="#00b0f0"/><path d="M127.3,13.4h-.8V9.1H124v4.3h-.8v-5h4.1Z" transform="translate(-0.4 -5.9)" fill="#00b0f0"/><path d="M131,13.5a2.4,2.4,0,0,1-1.8-.7,2.9,2.9,0,0,1-.6-1.9,2.4,2.4,0,0,1,.7-1.9,2.3,2.3,0,0,1,1.8-.7,2.1,2.1,0,0,1,1.8.7,2.5,2.5,0,0,1,.6,1.9,2.5,2.5,0,0,1-.7,1.9A2.1,2.1,0,0,1,131,13.5Zm.1-4.6a1.4,1.4,0,0,0-1.2.6,2,2,0,0,0-.5,1.4,2,2,0,0,0,.5,1.4,1.7,1.7,0,0,0,2.4,0,2.6,2.6,0,0,0,.4-1.4,3.3,3.3,0,0,0-.4-1.5A1.7,1.7,0,0,0,131.1,8.9Z" transform="translate(-0.4 -5.9)" fill="#00b0f0"/><path d="M137.9,9.1h-1.5v4.3h-.8V9.1h-1.5V8.4h3.8Z" transform="translate(-0.4 -5.9)" fill="#00b0f0"/><path d="M141,13.5a2.1,2.1,0,0,1-1.8-.7,2.9,2.9,0,0,1-.7-1.9,2.7,2.7,0,0,1,.7-1.9,2.5,2.5,0,0,1,1.9-.7,2.1,2.1,0,0,1,1.7.7,2.2,2.2,0,0,1,.7,1.9,2.9,2.9,0,0,1-.7,1.9A2.4,2.4,0,0,1,141,13.5Zm0-4.6a1.4,1.4,0,0,0-1.2.6,2,2,0,0,0-.4,1.4,2,2,0,0,0,.4,1.4,1.3,1.3,0,0,0,1.2.5c.6,0,1-.1,1.2-.5a2,2,0,0,0,.4-1.4,2.4,2.4,0,0,0-.4-1.5A1.4,1.4,0,0,0,141,8.9Z" transform="translate(-0.4 -5.9)" fill="#00b0f0"/><path d="M148.9,13.4h-1.1L145.6,11h-.1v2.4h-.8v-5h.8v2.3h.1l2.1-2.3h1l-2.3,2.4Z" transform="translate(-0.4 -5.9)" fill="#00b0f0"/><path d="M157.7,22.2H75.4a2.5,2.5,0,0,0-1.2.2c-.2,0-.5.3-.4.5a1.1,1.1,0,0,0,.3.6h.8l38.6-.2,44.2-.2Z" transform="translate(-0.4 -5.9)" fill="#505050"/></svg>