<svg xmlns="http://www.w3.org/2000/svg" viewBox="0 0 203.5 47.1"><title>OJ104546506</title><path d="M16,9.8.1,21.2,6.2,39.7H25.9l6-18.5Z" transform="translate(0 -6.3)" fill="#fff" stroke="#000" stroke-linecap="round" stroke-linejoin="round" stroke-width="0.24"/><path d="M15.7,16.9a4.6,4.6,0,0,0-3,5.7c.7,2.5,3,4.2,5.3,3.7a4.6,4.6,0,0,0,3-5.7A4.5,4.5,0,0,0,15.7,16.9Z" transform="translate(0 -6.3)" fill="#008bfd"/><path d="M20.6,27c-.4,0-.8.7-1.5,1.1a2.9,2.9,0,0,1-3.2,0c-1.8-.9-2.1-1.7-3.6-1.7s-4.1,2.8-4.1,6.9H23.8a11.4,11.4,0,0,0-1.1-4.2C21.6,27,21.1,27,20.6,27Z" transform="translate(0 -6.3)" fill="#008bfd"/><path d="M22.1,22H17.9a.7.7,0,0,0-.6.7v2.8a.7.7,0,0,0,.7.7h.8v5.1a1,1,0,0,0,1,1.1,1,1,0,0,0,1-1H21v-.6c0-.2.3-.3.3-.3v-.4c-.3-.1-.5-.3-.5-.4v-.3l.2-.3.3-.5A1.6,1.6,0,0,1,21,28c-.1-.1-.1-.3-.2-.4v-.2a2.2,2.2,0,0,1,.7-1.1h.6a.7.7,0,0,0,.6-.7V22.7C22.7,22.3,22.5,22,22.1,22Zm-2.4,9.5c0,.3,0,.4-.2.4s-.3-.2-.3-.4V26.7a.3.3,0,0,1,.3-.3c.2,0,.2.2.2.3Zm.3-7.7a.8.8,0,0,1-.7-.7c0-.3.4-.6.7-.6a.6.6,0,0,1,.6.6A.7.7,0,0,1,20,23.8Z" transform="translate(0 -6.3)" fill="#008bfd" stroke="gray" stroke-linecap="round" stroke-linejoin="round" stroke-width="0.75"/><path d="M19.4,31.8l-.2-.2v-5a.2.2,0,1,1,.4,0v5.1C19.6,31.8,19.5,31.8,19.4,31.8Z" transform="translate(0 -6.3)" fill="#fff"/><ellipse cx="20" cy="16.8" rx="0.7" ry="0.7" fill="#fff"/><path d="M77.2,9.3H56.7a1.1,1.1,0,0,0-1.1,1.1V27.1a1,1,0,0,0,1.1,1.1H62a3.2,3.2,0,0,0,3.2,2.3,3.4,3.4,0,1,0,0-6.7A3.3,3.3,0,0,0,62,26H57.8V14.1H76.1V26H72.7a7.6,7.6,0,0,0-7.5-6.5,7.4,7.4,0,0,0-3.6.9l1,2a4.6,4.6,0,0,1,2.6-.7,5.4,5.4,0,0,1,5.4,5.4,5.5,5.5,0,0,1-5.4,5.5,4.6,4.6,0,0,1-2.6-.7l-1,2a7.4,7.4,0,0,0,3.6.9,7.6,7.6,0,0,0,7.5-6.6h4.5a1,1,0,0,0,1.1-1.1V10.4A1.1,1.1,0,0,0,77.2,9.3Z" transform="translate(0 -6.3)" fill="#008bfd"/><path d="M186.6,8.8H166.1A1.1,1.1,0,0,0,165,9.9V26.6a1.1,1.1,0,0,0,1.1,1.2h5.3a3.3,3.3,0,0,0,3.2,2.2,3.4,3.4,0,0,0,0-6.7,3.3,3.3,0,0,0-3.2,2.2h-4.2V13.6h18.3V25.5h-3.4a7.6,7.6,0,0,0-7.5-6.5,8.3,8.3,0,0,0-3.6.9l1,2a4.5,4.5,0,0,1,2.5-.7,5.5,5.5,0,0,1,0,10.9,4.5,4.5,0,0,1-2.5-.7l-1,2a7.1,7.1,0,0,0,3.6.9,7.6,7.6,0,0,0,7.5-6.5h4.5a1.1,1.1,0,0,0,1.1-1.2V9.9A1.2,1.2,0,0,0,186.6,8.8Z" transform="translate(0 -6.3)" fill="#008bfd"/><path d="M156.5,17.6l8.1,4-8,4a9,9,0,0,0,0-8" transform="translate(0 -6.3)" fill="#505050"/><path d="M157.5,21.6" transform="translate(0 -6.3)" fill="#505050"/><path d="M84.6,13.5a2.6,2.6,0,0,1-2.3-1,3.5,3.5,0,0,1-.9-2.5,3.7,3.7,0,0,1,.9-2.7,3,3,0,0,1,2.5-1,3.2,3.2,0,0,1,2.3.9A3.7,3.7,0,0,1,88,9.8a4,4,0,0,1-.9,2.7A3,3,0,0,1,84.6,13.5ZM84.7,7a2.5,2.5,0,0,0-1.8.8,2.8,2.8,0,0,0-.7,2.1,3.1,3.1,0,0,0,.7,2.1,2.1,2.1,0,0,0,1.7.8,2.6,2.6,0,0,0,1.9-.8,3.3,3.3,0,0,0,.6-2.1,3.3,3.3,0,0,0-.6-2.1A2.3,2.3,0,0,0,84.7,7Z" transform="translate(0 -6.3)" fill="#00b0f0"/><path d="M92.1,9.1H90.6v4.3h-.8V9.1H88.3V8.4h3.8Z" transform="translate(0 -6.3)" fill="#00b0f0"/><path d="M99.4,13.4h-.7v-4l-.4.6L96,13.4h-.8v-5h.7v3.9l.3-.5,2.3-3.4h.9Z" transform="translate(0 -6.3)" fill="#00b0f0"/><path d="M106.1,13.4h-.8V9.3a4.6,4.6,0,0,0-.3.9l-1.3,3.2H103l-1.3-3.2a4.6,4.6,0,0,1-.3-.9v4.1h-.7v-5h1l1.3,3.2a10.4,10.4,0,0,1,.4,1l.4-.9L105,8.4h1.1Z" transform="translate(0 -6.3)" fill="#00b0f0"/><path d="M111.4,11.1h-3.5a1.9,1.9,0,0,0,.5,1.3,1.2,1.2,0,0,0,1.1.4,3,3,0,0,0,1.6-.5V13a3,3,0,0,1-1.8.5,1.9,1.9,0,0,1-1.6-.7,2.7,2.7,0,0,1-.6-1.9,2.9,2.9,0,0,1,.6-1.9,2.2,2.2,0,0,1,1.7-.7,2,2,0,0,1,1.5.6,2.4,2.4,0,0,1,.5,1.8Zm-.8-.7a1.8,1.8,0,0,0-.3-1.1,1.3,1.3,0,0,0-.9-.4,1.8,1.8,0,0,0-1,.4,2.2,2.2,0,0,0-.5,1.1Z" transform="translate(0 -6.3)" fill="#00b0f0"/><path d="M116.5,13.4h-.8V11.1h-2.6v2.3h-.8v-5h.8v2h2.6v-2h.8Z" transform="translate(0 -6.3)" fill="#00b0f0"/><path d="M122,13.4h-.7v-4a1.6,1.6,0,0,0-.3.6l-2.4,3.4h-.8v-5h.8v3.9c0-.1.1-.2.2-.5l2.4-3.4h.8Z" transform="translate(0 -6.3)" fill="#00b0f0"/><path d="M129.9,13.4h-.8V9.1h-2.5v4.3h-.8v-5h4.1Z" transform="translate(0 -6.3)" fill="#00b0f0"/><path d="M133.3,13.5a2.1,2.1,0,0,1-1.7-.7,2.5,2.5,0,0,1-.7-1.9,2.4,2.4,0,0,1,.7-1.9,2.3,2.3,0,0,1,1.8-.7,2.4,2.4,0,0,1,1.8.6,3,3,0,0,1,.6,2,2.5,2.5,0,0,1-.7,1.9A2.1,2.1,0,0,1,133.3,13.5Zm.1-4.6a1.4,1.4,0,0,0-1.2.6,2,2,0,0,0-.5,1.4,2,2,0,0,0,.5,1.4,1.7,1.7,0,0,0,1.2.5,1.3,1.3,0,0,0,1.2-.5,2,2,0,0,0,.4-1.4,2.4,2.4,0,0,0-.4-1.5A1.7,1.7,0,0,0,133.4,8.9Z" transform="translate(0 -6.3)" fill="#00b0f0"/><path d="M139.9,9.1h-1.5v4.3h-.8V9.1h-1.5V8.4h3.8Z" transform="translate(0 -6.3)" fill="#00b0f0"/><path d="M142.7,13.5a2.4,2.4,0,0,1-1.8-.7,2.9,2.9,0,0,1-.6-1.9,2.7,2.7,0,0,1,.6-1.9,2.5,2.5,0,0,1,1.9-.7,2.6,2.6,0,0,1,1.8.6,3,3,0,0,1,.6,2,2.5,2.5,0,0,1-.7,1.9A2.1,2.1,0,0,1,142.7,13.5Zm.1-4.6a1.5,1.5,0,0,0-1.3.6,2,2,0,0,0-.4,1.4,2,2,0,0,0,.4,1.4,1.7,1.7,0,0,0,1.3.5c.5,0,.9-.1,1.1-.5a2,2,0,0,0,.5-1.4,2.5,2.5,0,0,0-.5-1.5A1.3,1.3,0,0,0,142.8,8.9Z" transform="translate(0 -6.3)" fill="#00b0f0"/><path d="M150.3,13.4h-1.1L147,11h0v2.4h-.8v-5h.8v2.3h0l2.1-2.3h1l-2.3,2.4Z" transform="translate(0 -6.3)" fill="#00b0f0"/><path d="M154.4,13.4h-.8v-.8h0a1.8,1.8,0,0,1-1.5.9,1.6,1.6,0,0,1-1.2-.4,1.4,1.4,0,0,1-.4-1.1c0-.9.5-1.4,1.6-1.6l1.5-.2c0-.8-.3-1.3-1-1.3a2.7,2.7,0,0,0-1.7.6V8.7a3.3,3.3,0,0,1,1.7-.4,1.6,1.6,0,0,1,1.8,1.8Zm-.8-2.6-1.2.2-.8.3a.8.8,0,0,0-.3.7,1.4,1.4,0,0,0,.2.6l.7.2a1.2,1.2,0,0,0,1-.4,1.4,1.4,0,0,0,.4-1.1Z" transform="translate(0 -6.3)" fill="#00b0f0"/><path d="M159.7,21h-7.5l-47.3.2H78.8c-.2.1-.5.4-.5.5a.8.8,0,0,0,.4.7h.7l37.5-.2h42.8Z" transform="translate(0 -6.3)" fill="#505050"/><path d="M45.4,44.4h-.8V38.1H40.9v6.3h-.8v-7h5.3Z" transform="translate(0 -6.3)"/><path d="M47.7,43.7h0v3h-.8V39.4h.8v.9h0a1.9,1.9,0,0,1,1.7-1,1.8,1.8,0,0,1,1.5.6,2.8,2.8,0,0,1,.6,1.8,3,3,0,0,1-.6,2,2.3,2.3,0,0,1-1.7.8A1.6,1.6,0,0,1,47.7,43.7Zm0-2.1v.7a1.5,1.5,0,0,0,.4,1.1,1.2,1.2,0,0,0,1,.4,1.3,1.3,0,0,0,1.1-.5,2.5,2.5,0,0,0,.4-1.6,2.5,2.5,0,0,0-.3-1.3,1.5,1.5,0,0,0-2.2,0A1.6,1.6,0,0,0,47.7,41.6Z" transform="translate(0 -6.3)"/><path d="M56.7,44.4H56v-4l-.4.6-2.3,3.4h-.8v-5h.7v3.9l.3-.5,2.4-3.4h.8Z" transform="translate(0 -6.3)"/><path d="M61.7,44.4h-.8V40.1H59.7a10.9,10.9,0,0,1-.6,3.4,1.6,1.6,0,0,1-1.4.9h-.4v-.7h.4c.7,0,1.2-1.5,1.4-4.4h2.6Z" transform="translate(0 -6.3)"/><path d="M65.2,44.5a2.1,2.1,0,0,1-1.8-.7,2.5,2.5,0,0,1-.7-1.9,2.7,2.7,0,0,1,.7-1.9,2.5,2.5,0,0,1,1.9-.7,2.4,2.4,0,0,1,1.7.6,3,3,0,0,1,.7,2,2.9,2.9,0,0,1-.7,1.9A2.4,2.4,0,0,1,65.2,44.5Zm0-4.6a1.4,1.4,0,0,0-1.2.6,2.2,2.2,0,0,0,0,2.8,1.7,1.7,0,0,0,1.2.5,1.3,1.3,0,0,0,1.2-.5,2,2,0,0,0,.4-1.4,2.4,2.4,0,0,0-.4-1.5A1.7,1.7,0,0,0,65.2,39.9Z" transform="translate(0 -6.3)"/><path d="M75.3,44.4H74.2L72,41.9h0v2.5h-.8V41.9h0L69,44.4H67.9l2.5-2.6L68,39.4h1.1l2.1,2.3h0V39.4H72v2.3h0l2.1-2.3h1.1l-2.4,2.4Z" transform="translate(0 -6.3)"/><path d="M79.9,42.1H76.4a1.8,1.8,0,0,0,.4,1.3,1.6,1.6,0,0,0,1.2.4,3,3,0,0,0,1.6-.5V44a3.5,3.5,0,0,1-1.8.5,1.9,1.9,0,0,1-1.6-.7,2.7,2.7,0,0,1-.7-1.9,2.9,2.9,0,0,1,.7-1.9,2.2,2.2,0,0,1,1.7-.7,2,2,0,0,1,1.5.6,3,3,0,0,1,.5,1.8Zm-.8-.7a1.8,1.8,0,0,0-.3-1.1,1.8,1.8,0,0,0-1-.4,1.5,1.5,0,0,0-.9.4,2.2,2.2,0,0,0-.5,1.1Z" transform="translate(0 -6.3)"/><path d="M85,44.4h-.8V42.1H81.7v2.3h-.8v-5h.8v2h2.5v-2H85Z" transform="translate(0 -6.3)"/><path d="M90.6,44.4h-.7v-4l-.4.6-2.3,3.4h-.8v-5h.7v3.9l.3-.5,2.4-3.4h.8Z" transform="translate(0 -6.3)"/><path d="M96,42.1H92.4a2.5,2.5,0,0,0,.5,1.3,1.6,1.6,0,0,0,1.2.4,2.7,2.7,0,0,0,1.5-.5V44a2.9,2.9,0,0,1-1.7.5,2.1,2.1,0,0,1-1.7-.7,2.7,2.7,0,0,1-.6-1.9,2.5,2.5,0,0,1,.7-1.9,2,2,0,0,1,1.6-.7,1.8,1.8,0,0,1,1.5.6,2.4,2.4,0,0,1,.6,1.8Zm-.8-.7a2.8,2.8,0,0,0-.4-1.1,1.3,1.3,0,0,0-.9-.4,1.8,1.8,0,0,0-1,.4,2.1,2.1,0,0,0-.4,1.1Z" transform="translate(0 -6.3)"/><path d="M67,53.4h-.9l-.7-2h-3l-.7,2h-.9l2.7-7h.8Zm-1.9-2.7-1.1-3a4.3,4.3,0,0,1-.1-.5h0c-.1.2-.1.4-.2.5l-1,3Z" transform="translate(0 -6.3)"/><path d="M68.6,50.7v2.7h-.8v-7h1.9a2.6,2.6,0,0,1,1.7.5,1.9,1.9,0,0,1,.7,1.6,2.4,2.4,0,0,1-.7,1.6,2.9,2.9,0,0,1-1.9.6Zm0-3.6V50h.9a1.8,1.8,0,0,0,1.3-.4,1.4,1.4,0,0,0,.4-1.1c0-.9-.5-1.4-1.6-1.4Z" transform="translate(0 -6.3)"/><path d="M74,53.4h-.9v-7H74Z" transform="translate(0 -6.3)"/><path d="M152.9,44.4h-.8V38.1h-3.6v6.3h-.9v-7h5.3Z" transform="translate(0 -6.3)"/><path d="M155.2,43.7h0v3h-.8V39.4h.8v.9h0a1.9,1.9,0,0,1,1.8-1,2,2,0,0,1,1.5.6,3.5,3.5,0,0,1,.5,1.8,3,3,0,0,1-.6,2,2.1,2.1,0,0,1-1.7.8A1.9,1.9,0,0,1,155.2,43.7Zm0-2.1v.7a1.5,1.5,0,0,0,.4,1.1,1.3,1.3,0,0,0,1,.4,1.7,1.7,0,0,0,1.2-.5,3.4,3.4,0,0,0,.4-1.6,1.8,1.8,0,0,0-.4-1.3,1.4,1.4,0,0,0-1-.5,1.7,1.7,0,0,0-1.2.5A1.6,1.6,0,0,0,155.2,41.6Z" transform="translate(0 -6.3)"/><path d="M164.2,44.4h-.7v-4l-.3.6-2.3,3.4H160v-5h.8v3.9l.2-.5,2.4-3.4h.8Z" transform="translate(0 -6.3)"/><path d="M169.2,44.4h-.8V40.1h-1.1a10.4,10.4,0,0,1-.7,3.4,1.5,1.5,0,0,1-1.3.9h-.4v-.7h.3c.8,0,1.2-1.5,1.4-4.4h2.6Z" transform="translate(0 -6.3)"/><path d="M172.7,44.5a2.4,2.4,0,0,1-1.8-.7,2.9,2.9,0,0,1-.6-1.9A2.4,2.4,0,0,1,171,40a2.1,2.1,0,0,1,1.8-.7,2.6,2.6,0,0,1,1.8.6,3,3,0,0,1,.6,2,2.5,2.5,0,0,1-.7,1.9A2.1,2.1,0,0,1,172.7,44.5Zm.1-4.6a1.5,1.5,0,0,0-1.3.6,2.6,2.6,0,0,0,0,2.8,2.1,2.1,0,0,0,1.3.5,1.3,1.3,0,0,0,1.2-.5,2.6,2.6,0,0,0,.4-1.4,3.3,3.3,0,0,0-.4-1.5A1.7,1.7,0,0,0,172.8,39.9Z" transform="translate(0 -6.3)"/><path d="M182.9,44.4h-1.1l-2.3-2.5h0v2.5h-.7V41.9h-.1l-2.2,2.5h-1.1l2.5-2.6-2.3-2.4h1l2.1,2.3h.1V39.4h.7v2.3h0l2.2-2.3h1l-2.3,2.4Z" transform="translate(0 -6.3)"/><path d="M187.5,42.1h-3.6a1.9,1.9,0,0,0,.5,1.3,1.6,1.6,0,0,0,1.2.4,3,3,0,0,0,1.5-.5V44a2.9,2.9,0,0,1-1.7.5,2.1,2.1,0,0,1-1.7-.7,2.7,2.7,0,0,1-.6-1.9,2.5,2.5,0,0,1,.7-1.9,1.9,1.9,0,0,1,1.6-.7,1.8,1.8,0,0,1,1.5.6,2.4,2.4,0,0,1,.6,1.8Zm-.9-.7a1.8,1.8,0,0,0-.3-1.1,1.3,1.3,0,0,0-.9-.4,1.8,1.8,0,0,0-1,.4,3.7,3.7,0,0,0-.5,1.1Z" transform="translate(0 -6.3)"/><path d="M192.6,44.4h-.8V42.1h-2.6v2.3h-.8v-5h.8v2h2.6v-2h.8Z" transform="translate(0 -6.3)"/><path d="M198.1,44.4h-.7v-4a1.6,1.6,0,0,0-.3.6l-2.3,3.4h-.9v-5h.8v3.9l.2-.5,2.4-3.4h.8Z" transform="translate(0 -6.3)"/><path d="M203.5,42.1H200a1.8,1.8,0,0,0,.4,1.3,1.6,1.6,0,0,0,1.2.4,3,3,0,0,0,1.6-.5V44a3.5,3.5,0,0,1-1.8.5,1.9,1.9,0,0,1-1.6-.7,2.7,2.7,0,0,1-.6-1.9,2.9,2.9,0,0,1,.6-1.9,2.2,2.2,0,0,1,1.7-.7,2,2,0,0,1,1.5.6,3,3,0,0,1,.5,1.8Zm-.8-.7a1.8,1.8,0,0,0-.3-1.1,1.8,1.8,0,0,0-1-.4,1.5,1.5,0,0,0-.9.4,2.2,2.2,0,0,0-.5,1.1Z" transform="translate(0 -6.3)"/><path d="M174.5,53.4h-.9l-.7-2h-3l-.7,2h-.9l2.7-7h.9Zm-1.9-2.7-1.1-3a1.1,1.1,0,0,0-.1-.5h0a4.3,4.3,0,0,1-.1.5l-1.1,3Z" transform="translate(0 -6.3)"/><path d="M176.1,50.7v2.7h-.8v-7h2a2.9,2.9,0,0,1,1.7.5,2.1,2.1,0,0,1,.6,1.6,2,2,0,0,1-.7,1.6,2.4,2.4,0,0,1-1.8.6Zm0-3.6V50h.9a1.7,1.7,0,0,0,1.3-.4,1.4,1.4,0,0,0,.5-1.1c0-.9-.6-1.4-1.7-1.4Z" transform="translate(0 -6.3)"/><path d="M181.5,53.4h-.8v-7h.8Z" transform="translate(0 -6.3)"/></svg>