<svg xmlns="http://www.w3.org/2000/svg" viewBox="0 0 205.55 55.68"><title>OJ104546506</title><path d="M16,9.82.12,21.25,6.2,39.73H25.86l6.08-18.48Z" fill="#fff" stroke="#000" stroke-linecap="round" stroke-linejoin="round" stroke-width="0.24"/><path d="M15.7,16.94a4.49,4.49,0,0,0-3,5.66c.66,2.55,3,4.22,5.27,3.67a4.5,4.5,0,0,0,3-5.67C20.42,17.94,18,16.27,15.7,16.94Z" fill="#008bfd"/><path d="M20.64,27c-.44,0-.88.78-1.54,1.11s-1.32.89-3.18,0-2.09-1.66-3.63-1.66-4.06,2.77-4.06,6.88H23.82a12.09,12.09,0,0,0-1.1-4.22C21.62,27,21.08,27,20.64,27Z" fill="#008bfd"/><path d="M22.05,22H17.93a.71.71,0,0,0-.65.66v2.85a.72.72,0,0,0,.76.65h.76v5.15a1,1,0,0,0,1,1.1,1,1,0,0,0,1-1H21v-.65c0-.22.33-.33.33-.33v-.33c-.33-.11-.54-.33-.54-.44v-.33l.21-.22a3.55,3.55,0,0,0,.33-.54A2.4,2.4,0,0,1,21,28c-.1-.11-.1-.33-.21-.44v-.22a2.51,2.51,0,0,1,.76-1.1h.54a.7.7,0,0,0,.65-.65v-3A.63.63,0,0,0,22.05,22Zm-2.39,9.53c0,.22,0,.33-.21.33s-.22-.22-.22-.33V26.72c0-.22.11-.33.22-.33s.21.22.21.33ZM20,23.76a.69.69,0,0,1-.65-.65.7.7,0,0,1,.65-.66.71.71,0,0,1,.65.66A.62.62,0,0,1,20,23.76Z" fill="#008bfd" stroke="gray" stroke-linecap="round" stroke-linejoin="round" stroke-width="0.75"/><path d="M19.43,31.85a.24.24,0,0,1-.22-.22v-5a.22.22,0,0,1,.44,0v5.11C19.65,31.85,19.54,31.85,19.43,31.85Z" fill="#fff"/><ellipse cx="20" cy="23.09" rx="0.66" ry="0.67" fill="#fff"/><path d="M192.6,8.81H172.1A1.09,1.09,0,0,0,171,9.91V26.65a1.1,1.1,0,0,0,1.09,1.11h5.28A3.29,3.29,0,0,0,180.59,30a3.38,3.38,0,0,0,0-6.75,3.29,3.29,0,0,0-3.21,2.27h-4.19v-12H191.5v12h-3.45A7.61,7.61,0,0,0,180.59,19a8.25,8.25,0,0,0-3.64.92l1,2a5.27,5.27,0,0,1,2.55-.67,5.46,5.46,0,0,1,0,10.91,5.27,5.27,0,0,1-2.55-.67l-1,2a7.51,7.51,0,0,0,3.64.92,7.61,7.61,0,0,0,7.46-6.56h4.55a1.1,1.1,0,0,0,1.09-1.11V9.91A1.14,1.14,0,0,0,192.6,8.81Z" fill="#008bfd"/><g style="isolation:isolate"><path d="M163.46,43.19h-.67v-5h-2.92v5h-.66v-5.6h4.25Z" fill="#008bfd"/><path d="M165.28,42.61h0V45h-.64V39.19h.64v.7h0a1.51,1.51,0,0,1,1.38-.79,1.46,1.46,0,0,1,1.21.53,2.23,2.23,0,0,1,.43,1.44,2.46,2.46,0,0,1-.49,1.61,1.62,1.62,0,0,1-1.33.6A1.33,1.33,0,0,1,165.28,42.61Zm0-1.61v.56a1.17,1.17,0,0,0,.33.84,1,1,0,0,0,.81.34,1.07,1.07,0,0,0,.92-.44,2.05,2.05,0,0,0,.33-1.24,1.68,1.68,0,0,0-.31-1.05,1,1,0,0,0-.84-.37,1.17,1.17,0,0,0-.9.38A1.48,1.48,0,0,0,165.26,41Z" fill="#008bfd"/><path d="M172.48,43.19h-.58V40c-.06.11-.14.27-.26.47l-1.85,2.72h-.66v-4h.58v3.15a3.54,3.54,0,0,1,.21-.38l1.89-2.77h.67Z" fill="#008bfd"/><path d="M176.49,43.19h-.63V39.73h-.93a8.31,8.31,0,0,1-.55,2.73,1.18,1.18,0,0,1-1,.78.87.87,0,0,1-.34-.05v-.55a.6.6,0,0,0,.3.07c.57,0,.94-1.17,1.1-3.52h2.1Z" fill="#008bfd"/><path d="M179.26,43.28a1.82,1.82,0,0,1-1.41-.56,2,2,0,0,1-.53-1.48,2.17,2.17,0,0,1,.55-1.58,2,2,0,0,1,1.49-.56,1.77,1.77,0,0,1,1.39.55,2.13,2.13,0,0,1,.5,1.52,2.18,2.18,0,0,1-.54,1.54A1.9,1.9,0,0,1,179.26,43.28Zm.05-3.64a1.2,1.2,0,0,0-1,.42,1.7,1.7,0,0,0-.36,1.15,1.58,1.58,0,0,0,.37,1.12,1.2,1.2,0,0,0,1,.41,1.16,1.16,0,0,0,.95-.4,1.71,1.71,0,0,0,.34-1.14,1.75,1.75,0,0,0-.34-1.16A1.16,1.16,0,0,0,179.31,39.64Z" fill="#008bfd"/><path d="M187.39,43.19h-.87l-1.79-2h0v2h-.61v-2h0l-1.79,2h-.86l2-2.06-1.86-1.94h.81l1.71,1.87h0V39.19h.61v1.87h0l1.71-1.87h.83l-1.87,1.94Z" fill="#008bfd"/><path d="M191.06,41.35h-2.82a1.47,1.47,0,0,0,.36,1,1.24,1.24,0,0,0,.94.36,1.92,1.92,0,0,0,1.24-.44v.6a2.27,2.27,0,0,1-1.39.38,1.68,1.68,0,0,1-1.33-.54,2.2,2.2,0,0,1-.49-1.53,2.22,2.22,0,0,1,.53-1.53,1.71,1.71,0,0,1,1.32-.58,1.52,1.52,0,0,1,1.21.5,2.1,2.1,0,0,1,.43,1.41Zm-.66-.54a1.35,1.35,0,0,0-.26-.87.94.94,0,0,0-.74-.3,1,1,0,0,0-.77.32,1.5,1.5,0,0,0-.39.85Z" fill="#008bfd"/><path d="M195.15,43.19h-.64V41.37h-2v1.82h-.64v-4h.64v1.64h2V39.19h.64Z" fill="#008bfd"/><path d="M199.6,43.19H199V40c-.06.11-.14.27-.26.47l-1.85,2.72h-.66v-4h.58v3.15A3.54,3.54,0,0,1,197,42l1.89-2.77h.67Z" fill="#008bfd"/><path d="M203.91,41.35h-2.82a1.47,1.47,0,0,0,.36,1,1.22,1.22,0,0,0,.94.36,1.92,1.92,0,0,0,1.24-.44v.6a2.27,2.27,0,0,1-1.39.38,1.68,1.68,0,0,1-1.33-.54,2.2,2.2,0,0,1-.49-1.53,2.22,2.22,0,0,1,.53-1.53,1.69,1.69,0,0,1,1.32-.58,1.52,1.52,0,0,1,1.21.5,2.1,2.1,0,0,1,.43,1.41Zm-.66-.54a1.35,1.35,0,0,0-.26-.87.94.94,0,0,0-.74-.3,1,1,0,0,0-.77.32,1.5,1.5,0,0,0-.39.85Z" fill="#008bfd"/><path d="M180.74,52.79H180l-.59-1.57H177l-.56,1.57h-.73l2.15-5.6h.68Zm-1.54-2.16-.88-2.39a2.44,2.44,0,0,1-.08-.37h0a1.33,1.33,0,0,1-.09.37l-.87,2.39Z" fill="#008bfd"/><path d="M182,50.67v2.12h-.66v-5.6h1.54a2,2,0,0,1,1.39.44,1.55,1.55,0,0,1,.5,1.23,1.7,1.7,0,0,1-.55,1.3,2.1,2.1,0,0,1-1.48.51Zm0-2.89v2.3h.69a1.51,1.51,0,0,0,1-.31,1.1,1.1,0,0,0,.36-.88c0-.74-.44-1.11-1.31-1.11Z" fill="#008bfd"/><path d="M186.3,52.79h-.66v-5.6h.66Z" fill="#008bfd"/></g><g style="isolation:isolate"><path d="M92.56,13.47a2.44,2.44,0,0,1-1.91-.79,2.89,2.89,0,0,1-.72-2,3.14,3.14,0,0,1,.73-2.16,2.58,2.58,0,0,1,2-.8,2.39,2.39,0,0,1,1.87.78,2.93,2.93,0,0,1,.71,2,3.06,3.06,0,0,1-.73,2.17A2.5,2.5,0,0,1,92.56,13.47Zm0-5.2a1.8,1.8,0,0,0-1.43.64,2.44,2.44,0,0,0-.55,1.67,2.48,2.48,0,0,0,.54,1.67,1.75,1.75,0,0,0,1.4.63,1.84,1.84,0,0,0,1.45-.6,2.43,2.43,0,0,0,.53-1.69A2.57,2.57,0,0,0,94,8.88,1.8,1.8,0,0,0,92.6,8.27Z" fill="#00b0f0"/><path d="M98.76,9.92h-1.2v3.45h-.64V9.92H95.71V9.37h3.05Z" fill="#00b0f0"/><path d="M105.07,13.37h-.58V10.18c-.06.12-.14.27-.26.48l-1.85,2.71h-.66v-4h.58v3.16a4.41,4.41,0,0,1,.21-.39l1.9-2.77h.66Z" fill="#00b0f0"/><path d="M110.69,13.37h-.64V10.08c0,.16-.14.41-.26.73l-1,2.56h-.58l-1-2.56c-.05-.14-.14-.38-.26-.73v3.29h-.55v-4h.81L108.24,12l.29.79.28-.77,1-2.63h.86Z" fill="#00b0f0"/><path d="M115.2,11.53h-2.83a1.52,1.52,0,0,0,.36,1,1.26,1.26,0,0,0,1,.36,2,2,0,0,0,1.24-.45v.61a2.36,2.36,0,0,1-1.39.38,1.69,1.69,0,0,1-1.34-.55,2.23,2.23,0,0,1-.48-1.53,2.2,2.2,0,0,1,.53-1.52,1.7,1.7,0,0,1,1.31-.59,1.51,1.51,0,0,1,1.22.51,2.1,2.1,0,0,1,.43,1.41Zm-.66-.54a1.25,1.25,0,0,0-.27-.86.89.89,0,0,0-.73-.31,1.06,1.06,0,0,0-.77.32,1.5,1.5,0,0,0-.39.85Z" fill="#00b0f0"/><path d="M119.49,13.37h-.64V11.56h-2v1.81h-.64v-4h.64V11h2V9.37h.64Z" fill="#00b0f0"/><path d="M124.14,13.37h-.58V10.18l-.26.48-1.85,2.71h-.67v-4h.59v3.16a3.68,3.68,0,0,1,.2-.39l1.9-2.77h.67Z" fill="#00b0f0"/><path d="M130.94,13.37h-.64V9.92h-2v3.45h-.64v-4h3.32Z" fill="#00b0f0"/><path d="M133.91,13.47a1.85,1.85,0,0,1-1.41-.56,2.06,2.06,0,0,1-.53-1.49,2.15,2.15,0,0,1,.55-1.57A2,2,0,0,1,134,9.28a1.77,1.77,0,0,1,1.39.55,2.18,2.18,0,0,1,.51,1.53,2.1,2.1,0,0,1-.55,1.53A1.87,1.87,0,0,1,133.91,13.47ZM134,9.82a1.23,1.23,0,0,0-1,.42,1.73,1.73,0,0,0-.36,1.16,1.64,1.64,0,0,0,.37,1.12,1.23,1.23,0,0,0,1,.41,1.19,1.19,0,0,0,1-.4,1.77,1.77,0,0,0,.33-1.15,1.77,1.77,0,0,0-.33-1.15A1.2,1.2,0,0,0,134,9.82Z" fill="#00b0f0"/><path d="M139.44,9.92h-1.2v3.45h-.64V9.92h-1.2V9.37h3Z" fill="#00b0f0"/><path d="M141.88,13.47a1.85,1.85,0,0,1-1.41-.56,2.06,2.06,0,0,1-.53-1.49,2.15,2.15,0,0,1,.55-1.57A2,2,0,0,1,142,9.28a1.77,1.77,0,0,1,1.39.55,2.17,2.17,0,0,1,.5,1.53,2.13,2.13,0,0,1-.54,1.53A1.87,1.87,0,0,1,141.88,13.47Zm.05-3.65a1.23,1.23,0,0,0-1,.42,1.73,1.73,0,0,0-.36,1.16,1.59,1.59,0,0,0,.37,1.12,1.23,1.23,0,0,0,1,.41,1.16,1.16,0,0,0,.95-.4,1.72,1.72,0,0,0,.34-1.15,1.72,1.72,0,0,0-.34-1.15A1.16,1.16,0,0,0,141.93,9.82Z" fill="#00b0f0"/><path d="M148.22,13.37h-.9l-1.77-1.92h0v1.92h-.64v-4h.64v1.84h0l1.68-1.84h.84l-1.85,1.93Z" fill="#00b0f0"/><path d="M151.74,13.37h-.64v-.62h0a1.34,1.34,0,0,1-1.23.72,1.3,1.3,0,0,1-.93-.32,1.08,1.08,0,0,1-.34-.84c0-.74.44-1.18,1.32-1.3l1.2-.17c0-.68-.28-1-.83-1a2,2,0,0,0-1.3.49V9.66a2.46,2.46,0,0,1,1.36-.38c.94,0,1.41.5,1.41,1.49Zm-.64-2-1,.13a1.74,1.74,0,0,0-.67.22.66.66,0,0,0-.23.57.59.59,0,0,0,.21.47.79.79,0,0,0,.56.19,1,1,0,0,0,.79-.33,1.25,1.25,0,0,0,.31-.85Z" fill="#00b0f0"/></g><path d="M77.23,9.3H56.73a1.09,1.09,0,0,0-1.09,1.1V27.14a1.1,1.1,0,0,0,1.09,1.11H62a3.29,3.29,0,0,0,3.21,2.27,3.38,3.38,0,0,0,0-6.75A3.29,3.29,0,0,0,62,26H57.82v-12H76.13V26H72.68a7.61,7.61,0,0,0-7.46-6.56,8.25,8.25,0,0,0-3.64.92l1,2a5.27,5.27,0,0,1,2.55-.67,5.46,5.46,0,0,1,0,10.91,5.27,5.27,0,0,1-2.55-.67l-1,2a7.51,7.51,0,0,0,3.64.92,7.61,7.61,0,0,0,7.46-6.56h4.55a1.1,1.1,0,0,0,1.09-1.11V10.4A1.14,1.14,0,0,0,77.23,9.3Z" fill="#008bfd"/><g style="isolation:isolate"><path d="M48.18,42.77h-.66v-5H44.59v5h-.66v-5.6h4.25Z" fill="#008bfd"/><path d="M50.21,42.19h0v2.42h-.64V38.77h.64v.71h0a1.49,1.49,0,0,1,1.38-.8,1.44,1.44,0,0,1,1.2.54,2.19,2.19,0,0,1,.44,1.44,2.45,2.45,0,0,1-.49,1.6,1.62,1.62,0,0,1-1.34.61A1.33,1.33,0,0,1,50.21,42.19Zm0-1.61v.56a1.2,1.2,0,0,0,.32.84,1.09,1.09,0,0,0,.82.35,1.06,1.06,0,0,0,.91-.45,2,2,0,0,0,.33-1.24,1.57,1.57,0,0,0-.31-1,1,1,0,0,0-.83-.38,1.14,1.14,0,0,0-.9.39A1.4,1.4,0,0,0,50.19,40.58Z" fill="#008bfd"/><path d="M57.6,42.77H57V39.58l-.27.47-1.84,2.72h-.67v-4h.59v3.16a3.68,3.68,0,0,1,.2-.39l1.9-2.77h.66Z" fill="#008bfd"/><path d="M61.82,42.77h-.64V39.32h-.93A8,8,0,0,1,59.7,42a1.16,1.16,0,0,1-1,.79,1,1,0,0,1-.35-.06v-.55a.63.63,0,0,0,.3.07c.57,0,.94-1.17,1.11-3.52h2.1Z" fill="#008bfd"/><path d="M64.79,42.87a1.87,1.87,0,0,1-1.42-.56,2.1,2.1,0,0,1-.53-1.49,2.17,2.17,0,0,1,.55-1.57,2,2,0,0,1,1.49-.57,1.79,1.79,0,0,1,1.4.55,2.22,2.22,0,0,1,.5,1.53,2.13,2.13,0,0,1-.54,1.53A1.92,1.92,0,0,1,64.79,42.87Zm0-3.65a1.21,1.21,0,0,0-1,.42,1.71,1.71,0,0,0-.36,1.16,1.66,1.66,0,0,0,.36,1.12,1.25,1.25,0,0,0,1,.41,1.19,1.19,0,0,0,1-.4,1.77,1.77,0,0,0,.33-1.15,1.82,1.82,0,0,0-.33-1.16A1.16,1.16,0,0,0,64.83,39.22Z" fill="#008bfd"/><path d="M73.12,42.77h-.87l-1.79-2h0v2h-.61v-2h0l-1.79,2h-.86l2-2.06-1.86-1.94h.82l1.71,1.87h0V38.77h.61v1.87h0l1.71-1.87H73l-1.87,1.94Z" fill="#008bfd"/><path d="M77,40.93H74.16a1.47,1.47,0,0,0,.36,1,1.23,1.23,0,0,0,1,.37,2,2,0,0,0,1.24-.45v.6a2.3,2.3,0,0,1-1.4.39A1.69,1.69,0,0,1,74,42.32a2.23,2.23,0,0,1-.48-1.53A2.15,2.15,0,0,1,74,39.27a1.7,1.7,0,0,1,1.31-.59,1.51,1.51,0,0,1,1.22.51A2.16,2.16,0,0,1,77,40.6Zm-.66-.54a1.25,1.25,0,0,0-.27-.86.89.89,0,0,0-.73-.31,1.06,1.06,0,0,0-.77.32,1.5,1.5,0,0,0-.39.85Z" fill="#008bfd"/><path d="M81.28,42.77h-.65V41h-2v1.81H78v-4h.64v1.64h2V38.77h.65Z" fill="#008bfd"/><path d="M85.92,42.77h-.57V39.58l-.27.47-1.84,2.72h-.67v-4h.59v3.16a3.68,3.68,0,0,1,.2-.39l1.9-2.77h.66Z" fill="#008bfd"/><path d="M90.44,40.93H87.61A1.47,1.47,0,0,0,88,42a1.23,1.23,0,0,0,1,.37,2,2,0,0,0,1.24-.45v.6a2.3,2.3,0,0,1-1.4.39,1.67,1.67,0,0,1-1.33-.55A2.23,2.23,0,0,1,87,40.79a2.15,2.15,0,0,1,.53-1.52,1.7,1.7,0,0,1,1.31-.59,1.52,1.52,0,0,1,1.22.51,2.16,2.16,0,0,1,.43,1.41Zm-.66-.54a1.25,1.25,0,0,0-.27-.86.89.89,0,0,0-.73-.31,1.06,1.06,0,0,0-.77.32,1.5,1.5,0,0,0-.39.85Z" fill="#008bfd"/><path d="M66.16,52.37h-.72l-.6-1.57H62.47l-.56,1.57h-.73l2.15-5.6H64Zm-1.53-2.16-.88-2.38a2.39,2.39,0,0,1-.09-.38h0a3.63,3.63,0,0,1-.09.38l-.87,2.38Z" fill="#008bfd"/><path d="M67.64,50.26v2.11H67v-5.6h1.54a2.05,2.05,0,0,1,1.39.44,1.55,1.55,0,0,1,.49,1.23,1.7,1.7,0,0,1-.55,1.31,2.08,2.08,0,0,1-1.48.51Zm0-2.9v2.3h.69a1.54,1.54,0,0,0,1-.31,1.1,1.1,0,0,0,.35-.88c0-.74-.43-1.11-1.31-1.11Z" fill="#008bfd"/><path d="M72.12,52.37h-.65v-5.6h.65Z" fill="#008bfd"/></g><path d="M162.52,17.59l8.06,4-7.94,4a9,9,0,0,0-.06-8" fill="#505050"/><line x1="78.32" y1="21.56" x2="163.55" y2="21.56" fill="none" stroke="#505050" stroke-miterlimit="10"/></svg>