<?xml version="1.0" encoding="utf-8"?>
<!-- Generator: Adobe Illustrator 23.0.6, SVG Export Plug-In . SVG Version: 6.00 Build 0)  -->
<svg version="1.1" xmlns="http://www.w3.org/2000/svg" xmlns:xlink="http://www.w3.org/1999/xlink" x="0px" y="0px" width="204.7px"
	 height="64.8px" viewBox="0 0 204.7 64.8" style="enable-background:new 0 0 204.7 64.8;" xml:space="preserve">
<style type="text/css">
	.st0{fill-rule:evenodd;clip-rule:evenodd;fill:#008BFD;}
	.st1{fill-rule:evenodd;clip-rule:evenodd;fill:#505050;}
	
		.st2{fill-rule:evenodd;clip-rule:evenodd;fill:#008BFD;stroke:#808080;stroke-width:0.75;stroke-linecap:round;stroke-linejoin:round;stroke-miterlimit:3;}
	.st3{fill-rule:evenodd;clip-rule:evenodd;fill:#FFFFFF;}
	.st4{fill:#505050;}
	.st5{fill:none;}
	.st6{fill:#00B0F0;}
	.st7{display:none;}
	.st8{display:inline;}
	.st9{enable-background:new    ;}
	.st10{display:inline;fill:#505050;}
</style>
<g id="shapes">
	<g id="group1112-1_1_" transform="translate(43.141,-20.0036)">
		<g id="group1113-2_1_">
			<g id="shape1114-3_1_">
				<path class="st0" d="M22.9,60.4c-2.2,1.7-4.8,2.5-7.3,2.5c-3.6,0-7.2-1.7-9.6-4.8C2,52.7,3,45,8.3,40.8c2.2-1.7,4.8-2.5,7.3-2.5
					c3.6,0,7.2,1.7,9.5,4.8C29.2,48.5,28.2,56.3,22.9,60.4z M26.6,42c-2.7-3.7-6.8-5.6-11-5.6c-2.9,0-5.9,1-8.4,2.9
					C1.2,44.1,0,53,4.6,59.2c2.7,3.7,6.8,5.5,11,5.5c2.9,0,5.9-0.9,8.4-2.9C30,57.1,31.2,48.2,26.6,42z"/>
			</g>
		</g>
		<g id="group1115-5_1_" transform="translate(4.95554,-4.39536)">
			<g id="group1116-6_1_" transform="translate(0.341805,-0.176482)">
				<g id="group1117-7_1_" transform="translate(0.437248,3.2685E-13)">
					<g id="shape1118-8_1_">
						<path class="st0" d="M3.6,57.8c-0.8-0.8-1.4-1.6-2-2.3c-1.1,2.4-1.6,4.9-1.7,6.9c0.1,0.2,0.1,0.3,0.2,0.4c0.6,0.8,1.3,1.5,2,2
							C2.1,63.2,2.3,60.5,3.6,57.8z"/>
					</g>
				</g>
				<g id="shape1119-10_1_" transform="translate(3.29213,-8.97695)">
					<path class="st0" d="M4.9,57.3c-1.1,0.8-2.2,1.8-3.3,3c-0.6,0.7-1.1,1.3-1.6,2c0.5,0.8,1.1,1.6,1.9,2.5
						c0.6-0.9,1.3-1.7,2.2-2.6c1.1-1.1,2.2-1.9,3.1-2.6C6.4,58.8,5.7,58.1,4.9,57.3z"/>
				</g>
				<g id="group1120-12_1_" transform="translate(9.93516,-15.1958)">
					<g id="shape1121-13_1_">
						<path class="st0" d="M9.8,62.7C9.3,62,8.7,61.4,8,60.9c-1.9-0.3-4.7-0.3-8,1.5c0.8,0.8,1.5,1.6,2.2,2.4
							C6.6,62.3,9.8,62.7,9.8,62.7z"/>
					</g>
				</g>
				<g id="group1122-15_1_" transform="translate(1.10162E-13,-9.38012)">
					<g id="shape1123-16_1_">
						<path class="st0" d="M2.1,64.8c0.3-0.7,0.7-1.4,1.2-2.1c-1.9-3.1-1.8-5.6-1.6-6.8c-0.5,0.5-0.9,1-1.3,1.6
							C0,59.1,0,61.7,2.1,64.8z"/>
					</g>
				</g>
				<g id="group1124-18_1_" transform="translate(4.05148,-0.740211)">
					<g id="shape1125-19_1_">
						<path class="st0" d="M3.4,58.7c-0.9-0.7-1.6-1.4-2.3-2.1c-0.5,0.7-0.8,1.3-1.1,2c0.6,0.6,1.3,1.3,2.1,1.9
							c4.9,4,9.8,4.4,12.6,4.4c0.2,0,1-1.2,1.5-1.9C15,63.1,9.7,63.8,3.4,58.7z"/>
					</g>
				</g>
				<g id="group1126-21_1_" transform="translate(2.10339,-7.03041)">
					<g id="shape1127-22_1_">
						<path class="st0" d="M0,62.4c0.5,0.8,1.1,1.5,2,2.3c0.3-0.6,0.7-1.3,1.1-1.9c-0.8-0.9-1.4-1.7-1.9-2.5C0.7,61,0.3,61.8,0,62.4
							z"/>
					</g>
				</g>
				<g id="group1128-24_1_" transform="translate(10.5195,-5.3233)">
					<g id="shape1129-25_1_">
						<path class="st0" d="M0,56c4.5,4.3,9.8,7.9,11.1,8.8c0.1-0.3,0.2-0.7,0.3-1c-1.4-1.1-5.3-4.2-9.8-8.8C1.1,55.2,0.6,55.6,0,56z
							"/>
					</g>
				</g>
				<g id="group1130-27_1_" transform="translate(4.98729,-16.4714)">
					<g id="shape1131-28_1_">
						<path class="st0" d="M5,63.7c-1.1-1.2-2.2-2.5-3.4-3.8C1,60.1,0.5,60.3,0,60.6c0.8,1.4,2,2.8,3.2,4.2C3.8,64.4,4.4,64,5,63.7z
							"/>
					</g>
				</g>
				<g id="shape1132-30_1_" transform="translate(8.13763,-14.0503)">
					<path class="st0" d="M1.9,61.2C1.3,61.5,0.6,62,0,62.4c0.7,0.8,1.5,1.6,2.3,2.3c0.6-0.4,1.3-0.9,1.9-1.2
						C3.4,62.9,2.6,62.1,1.9,61.2z"/>
				</g>
				<g id="shape1133-32_1_" transform="translate(8.1369,-14.0039)">
					<path class="st0" d="M1.7,61.1c-0.6,0.3-1.1,0.7-1.7,1.1C0.7,63,1.7,64,2.5,64.8c0.6-0.4,1-0.8,1.6-1.1
						C3.4,63,2.4,61.9,1.7,61.1z"/>
				</g>
			</g>
			<g id="group1134-34_1_" transform="translate(14.8617,-6.23662)">
				<g id="shape1135-35_1_">
					<path class="st0" d="M1.3,59.7c-1.1,0.9-1.3,2.5-0.5,3.7c0.9,1.2,2.5,1.4,3.6,0.5C5.6,63,5.8,61.3,5,60.2
						C4.1,59,2.5,58.8,1.3,59.7z"/>
				</g>
			</g>
			<g id="group1136-37_1_" transform="translate(9.65099,-2.13163E-13)">
				<g id="shape1137-38_1_">
					<path class="st0" d="M1.2,60.1c-1,0.8-1.2,2.4-0.4,3.4c0.8,1.1,2.3,1.3,3.4,0.5c1-0.8,1.2-2.3,0.4-3.4
						C3.8,59.5,2.3,59.3,1.2,60.1z"/>
				</g>
			</g>
			<g id="group1138-40_1_" transform="translate(0,-5.36433)">
				<g id="shape1139-41_1_">
					<path class="st0" d="M1.9,57.6c-1.6,1.3-1.9,3.6-0.7,5.2c1.2,1.6,3.5,1.9,5.1,0.7S8.2,60,7,58.3C5.8,56.7,3.5,56.4,1.9,57.6z"
						/>
				</g>
			</g>
		</g>
	</g>
	<path class="st0" d="M191.8,17.8h-20.5c-0.6,0-1.1,0.5-1.1,1.1v16.7c0,0.6,0.5,1.1,1.1,1.1h5.3c0.4,1.3,1.7,2.3,3.2,2.3
		c1.8,0,3.3-1.5,3.3-3.4s-1.5-3.4-3.3-3.4c-1.5,0-2.8,0.9-3.2,2.3h-4.2V22.6h18.3v11.9h-3.4c-0.5-3.7-3.7-6.6-7.5-6.6
		c-1.3,0-2.5,0.4-3.6,0.9l1,2c0.7-0.4,1.7-0.7,2.6-0.7c2.9,0,5.4,2.5,5.4,5.5c0,3-2.4,5.5-5.4,5.5c-0.9,0-1.8-0.3-2.6-0.7l-1,2
		c1.1,0.6,2.4,0.9,3.6,0.9c3.8,0,7-2.9,7.5-6.6h4.6c0.6,0,1.1-0.5,1.1-1.1V19C192.9,18.4,192.4,17.8,191.8,17.8z"/>
	<g id="shape1142-51_1_" transform="translate(73.5133,-41.2635)">
		<g transform="scale(-2.68,-2.68) ">
			<g id="lend5_1_">
				<path class="st1" d="M88.2,67.9l8,4l-8,4C89.5,73.3,89.5,70.4,88.2,67.9"/>
			</g>
		</g>
	</g>
	<g id="group1143-57_1_" transform="translate(0.375,-25.6729)">
		<g id="group1144-58_1_">
			<g id="group1145-59_1_">
				<g id="group1146-60_1_" transform="translate(3.8518,-6.4617)">
					<g id="shape1147-61_1_">
						<path class="st0" d="M3.6,54.9c-2.3,0.6-3.6,3.1-3,5.7c0.7,2.5,3,4.2,5.3,3.7c2.3-0.6,3.6-3.1,3-5.7
							C8.3,55.9,5.9,54.2,3.6,54.9z"/>
					</g>
				</g>
				<g id="group1148-63_1_">
					<g id="shape1149-64_1_">
						<path class="st0" d="M12.4,58.5c-0.4,0-0.9,0.8-1.5,1.1c-0.7,0.3-1.3,0.9-3.2,0c-1.9-0.9-2.1-1.7-3.6-1.7
							c-1.5,0-4.1,2.8-4.1,6.9h15.6c0,0-0.2-2.8-1.1-4.2C13.4,58.5,12.9,58.5,12.4,58.5z"/>
					</g>
				</g>
			</g>
		</g>
		<g id="group1150-66_1_" transform="translate(9.0485,-0.85947)">
			<g id="shape1151-67_1_">
				<path class="st2" d="M4.8,54.4H0.7C0.3,54.4,0,54.7,0,55v2.9c0,0.3,0.3,0.7,0.8,0.7h0.8v5.1c0,0.7,0.4,1.1,1,1.1s1-0.4,1-1
					c0.1,0,0.2,0,0.2,0s0-0.5,0-0.7c0-0.2,0.3-0.3,0.3-0.3v-0.3c-0.3-0.1-0.5-0.3-0.5-0.4v-0.3c0.1-0.1,0.2-0.2,0.2-0.2
					C3.8,61.4,4,61,4,61s-0.3-0.4-0.3-0.5c-0.1-0.1-0.1-0.3-0.2-0.4v-0.2c0.1-0.5,0.8-1.1,0.8-1.1h0.5c0.3,0,0.7-0.3,0.7-0.7v-3
					C5.4,54.7,5.2,54.4,4.8,54.4z M2.4,63.9c0,0.2,0,0.3-0.2,0.3C2,64.2,2,64,2,63.9v-4.8c0-0.2,0.1-0.3,0.2-0.3
					c0.2,0,0.2,0.2,0.2,0.3V63.9z M2.7,56.1c-0.3,0-0.7-0.3-0.7-0.7c0-0.3,0.3-0.7,0.7-0.7c0.3,0,0.6,0.3,0.6,0.7
					C3.4,55.8,3.1,56.1,2.7,56.1z"/>
			</g>
			<g id="shape1152-69_1_" transform="translate(1.92482,-0.570755)">
				<path class="st3" d="M0.2,64.8c-0.1,0-0.2-0.1-0.2-0.2v-5c0-0.1,0.1-0.2,0.2-0.2s0.2,0.1,0.2,0.2v5.1
					C0.4,64.8,0.3,64.8,0.2,64.8z"/>
			</g>
			<g id="shape1153-71_1_" transform="translate(2.05993,-8.66317)">
				<ellipse class="st3" cx="0.7" cy="64.1" rx="0.7" ry="0.7"/>
			</g>
		</g>
	</g>
	<path class="st4" d="M163.3,31.5H73.7c-0.4,0-0.8-0.3-0.8-0.8v-0.2c0-0.4,0.3-0.8,0.8-0.8h89.5c0.4,0,0.8,0.3,0.8,0.8v0.2
		C164,31.1,163.7,31.5,163.3,31.5z"/>
</g>
<g id="text">
	<rect x="65.1" y="0.4" class="st5" width="114.2" height="20"/>
	<g>
		<path d="M29.1,57.8v-5.6h1.6c0.5,0,0.9,0.1,1.2,0.4s0.4,0.5,0.4,0.9c0,0.3-0.1,0.6-0.3,0.8s-0.4,0.4-0.7,0.5v0
			c0.4,0,0.7,0.2,0.9,0.4s0.3,0.6,0.3,0.9c0,0.5-0.2,0.9-0.5,1.2s-0.8,0.4-1.3,0.4H29.1z M29.8,52.8v1.8h0.7c0.4,0,0.6-0.1,0.8-0.3
			s0.3-0.4,0.3-0.7c0-0.5-0.4-0.8-1.1-0.8H29.8z M29.8,55.2v2h0.9c0.4,0,0.7-0.1,0.9-0.3s0.3-0.4,0.3-0.8c0-0.7-0.5-1-1.4-1H29.8z"
			/>
		<path d="M36.6,55.9h-2.8c0,0.4,0.1,0.8,0.4,1s0.5,0.4,0.9,0.4c0.5,0,0.9-0.1,1.2-0.4v0.6c-0.4,0.3-0.8,0.4-1.4,0.4
			c-0.6,0-1-0.2-1.3-0.5s-0.5-0.9-0.5-1.5c0-0.6,0.2-1.1,0.5-1.5s0.8-0.6,1.3-0.6s0.9,0.2,1.2,0.5s0.4,0.8,0.4,1.4V55.9z M35.9,55.4
			c0-0.4-0.1-0.7-0.3-0.9s-0.4-0.3-0.7-0.3c-0.3,0-0.6,0.1-0.8,0.3s-0.3,0.5-0.4,0.8H35.9z"/>
		<path d="M40.4,51.8v0.6c-0.1,0.1-0.3,0.1-0.5,0.2c-0.6,0.1-1,0.2-1.2,0.3s-0.4,0.3-0.6,0.5s-0.2,0.7-0.3,1.2h0
			c0.3-0.5,0.8-0.7,1.3-0.7c0.5,0,1,0.2,1.3,0.5s0.5,0.8,0.5,1.4c0,0.6-0.2,1.1-0.5,1.5s-0.8,0.6-1.4,0.6c-0.6,0-1.1-0.2-1.4-0.7
			s-0.5-1.1-0.5-1.9c0-0.6,0.1-1.2,0.2-1.6s0.3-0.8,0.5-1s0.4-0.4,0.7-0.5s0.7-0.2,1.3-0.3C40.1,52,40.3,51.9,40.4,51.8z M37.8,55.2
			v0.6c0,0.2,0,0.4,0.1,0.6s0.1,0.4,0.3,0.5s0.2,0.3,0.4,0.3s0.3,0.1,0.5,0.1c0.4,0,0.6-0.1,0.9-0.4s0.3-0.6,0.3-1
			c0-0.5-0.1-0.8-0.3-1.1s-0.5-0.4-0.9-0.4C38.5,54.4,38.1,54.7,37.8,55.2z"/>
		<path d="M43.8,55.8h-2.1v-0.5h2.1V55.8z"/>
		<path d="M48,57.8h-0.6v-3.5h-2v3.5h-0.6v-4H48V57.8z"/>
		<path d="M49.7,57.2L49.7,57.2l0,2.4h-0.6v-5.8h0.6v0.7h0c0.3-0.5,0.8-0.8,1.4-0.8c0.5,0,0.9,0.2,1.2,0.5s0.4,0.8,0.4,1.4
			c0,0.7-0.2,1.2-0.5,1.6s-0.8,0.6-1.3,0.6C50.4,57.9,50,57.7,49.7,57.2z M49.7,55.6v0.6c0,0.3,0.1,0.6,0.3,0.8s0.5,0.3,0.8,0.3
			c0.4,0,0.7-0.1,0.9-0.4s0.3-0.7,0.3-1.2c0-0.4-0.1-0.8-0.3-1s-0.5-0.4-0.8-0.4c-0.4,0-0.7,0.1-0.9,0.4S49.7,55.2,49.7,55.6z"/>
		<path d="M56.9,57.8h-0.6v-3.2c-0.1,0.1-0.1,0.3-0.3,0.5l-1.8,2.7h-0.7v-4h0.6v3.2c0-0.1,0.1-0.2,0.2-0.4l1.9-2.8h0.7V57.8z"/>
		<path d="M60.9,57.8h-0.6v-3.5h-0.9c-0.1,1.3-0.3,2.2-0.5,2.7s-0.6,0.8-1,0.8c-0.1,0-0.2,0-0.3-0.1v-0.6c0.1,0,0.2,0.1,0.3,0.1
			c0.6,0,0.9-1.2,1.1-3.5h2.1V57.8z"/>
		<path d="M63.6,57.9c-0.6,0-1.1-0.2-1.4-0.6s-0.5-0.9-0.5-1.5c0-0.7,0.2-1.2,0.6-1.6s0.9-0.6,1.5-0.6c0.6,0,1.1,0.2,1.4,0.6
			s0.5,0.9,0.5,1.5c0,0.6-0.2,1.1-0.5,1.5S64.2,57.9,63.6,57.9z M63.6,54.2c-0.4,0-0.7,0.1-1,0.4s-0.4,0.7-0.4,1.2
			c0,0.5,0.1,0.8,0.4,1.1s0.6,0.4,1,0.4c0.4,0,0.7-0.1,1-0.4s0.3-0.6,0.3-1.1c0-0.5-0.1-0.9-0.3-1.2S64,54.2,63.6,54.2z"/>
		<path d="M71.7,57.8h-0.9l-1.8-2h0v2h-0.6v-2h0l-1.8,2h-0.9l2-2.1l-1.9-1.9h0.8l1.7,1.9h0v-1.9H69v1.9h0l1.7-1.9h0.8l-1.9,1.9
			L71.7,57.8z"/>
		<path d="M75.3,55.9h-2.8c0,0.4,0.1,0.8,0.4,1s0.5,0.4,0.9,0.4c0.5,0,0.9-0.1,1.2-0.4v0.6c-0.4,0.3-0.8,0.4-1.4,0.4
			c-0.6,0-1-0.2-1.3-0.5s-0.5-0.9-0.5-1.5c0-0.6,0.2-1.1,0.5-1.5s0.8-0.6,1.3-0.6s0.9,0.2,1.2,0.5s0.4,0.8,0.4,1.4V55.9z M74.6,55.4
			c0-0.4-0.1-0.7-0.3-0.9s-0.4-0.3-0.7-0.3c-0.3,0-0.6,0.1-0.8,0.3s-0.3,0.5-0.4,0.8H74.6z"/>
		<path d="M79.4,57.8h-0.6V56h-2v1.8H76v-4h0.6v1.6h2v-1.6h0.6V57.8z"/>
		<path d="M83.8,57.8h-0.6v-3.2c-0.1,0.1-0.1,0.3-0.3,0.5l-1.8,2.7h-0.7v-4H81v3.2c0-0.1,0.1-0.2,0.2-0.4l1.9-2.8h0.7V57.8z"/>
		<path d="M88,55.9h-2.8c0,0.4,0.1,0.8,0.4,1s0.5,0.4,0.9,0.4c0.5,0,0.9-0.1,1.2-0.4v0.6c-0.4,0.3-0.8,0.4-1.4,0.4
			c-0.6,0-1-0.2-1.3-0.5s-0.5-0.9-0.5-1.5c0-0.6,0.2-1.1,0.5-1.5s0.8-0.6,1.3-0.6s0.9,0.2,1.2,0.5S88,55,88,55.6V55.9z M87.4,55.4
			c0-0.4-0.1-0.7-0.3-0.9s-0.4-0.3-0.7-0.3c-0.3,0-0.6,0.1-0.8,0.3s-0.3,0.5-0.4,0.8H87.4z"/>
	</g>
	<g>
		<path d="M141.3,56.4h-0.7v-5h-2.9v5H137v-5.6h4.3V56.4z"/>
		<path d="M143.1,55.8L143.1,55.8l0,2.4h-0.6v-5.8h0.6v0.7h0c0.3-0.5,0.8-0.8,1.4-0.8c0.5,0,0.9,0.2,1.2,0.5s0.4,0.8,0.4,1.4
			c0,0.7-0.2,1.2-0.5,1.6s-0.8,0.6-1.3,0.6C143.8,56.5,143.4,56.2,143.1,55.8z M143.1,54.2v0.6c0,0.3,0.1,0.6,0.3,0.8
			s0.5,0.3,0.8,0.3c0.4,0,0.7-0.1,0.9-0.4s0.3-0.7,0.3-1.2c0-0.4-0.1-0.8-0.3-1s-0.5-0.4-0.8-0.4c-0.4,0-0.7,0.1-0.9,0.4
			S143.1,53.8,143.1,54.2z"/>
		<path d="M150.2,56.4h-0.6v-3.2c-0.1,0.1-0.1,0.3-0.3,0.5l-1.8,2.7h-0.7v-4h0.6v3.2c0-0.1,0.1-0.2,0.2-0.4l1.9-2.8h0.7V56.4z"/>
		<path d="M154.2,56.4h-0.6v-3.5h-0.9c-0.1,1.3-0.3,2.2-0.5,2.7s-0.6,0.8-1,0.8c-0.1,0-0.2,0-0.3-0.1v-0.6c0.1,0,0.2,0.1,0.3,0.1
			c0.6,0,0.9-1.2,1.1-3.5h2.1V56.4z"/>
		<path d="M156.9,56.5c-0.6,0-1.1-0.2-1.4-0.6S155,55,155,54.4c0-0.7,0.2-1.2,0.6-1.6s0.9-0.6,1.5-0.6c0.6,0,1.1,0.2,1.4,0.6
			s0.5,0.9,0.5,1.5c0,0.6-0.2,1.1-0.5,1.5S157.5,56.5,156.9,56.5z M157,52.8c-0.4,0-0.7,0.1-1,0.4s-0.4,0.7-0.4,1.2
			c0,0.5,0.1,0.8,0.4,1.1s0.6,0.4,1,0.4c0.4,0,0.7-0.1,1-0.4s0.3-0.6,0.3-1.1c0-0.5-0.1-0.9-0.3-1.2S157.4,52.8,157,52.8z"/>
		<path d="M165,56.4h-0.9l-1.8-2h0v2h-0.6v-2h0l-1.8,2h-0.9l2-2.1l-1.9-1.9h0.8l1.7,1.9h0v-1.9h0.6v1.9h0l1.7-1.9h0.8l-1.9,1.9
			L165,56.4z"/>
		<path d="M168.7,54.5h-2.8c0,0.4,0.1,0.8,0.4,1s0.5,0.4,0.9,0.4c0.5,0,0.9-0.1,1.2-0.4v0.6c-0.4,0.3-0.8,0.4-1.4,0.4
			c-0.6,0-1-0.2-1.3-0.5s-0.5-0.9-0.5-1.5c0-0.6,0.2-1.1,0.5-1.5s0.8-0.6,1.3-0.6s0.9,0.2,1.2,0.5s0.4,0.8,0.4,1.4V54.5z M168,54
			c0-0.4-0.1-0.7-0.3-0.9s-0.4-0.3-0.7-0.3c-0.3,0-0.6,0.1-0.8,0.3s-0.3,0.5-0.4,0.8H168z"/>
		<path d="M172.7,56.4h-0.6v-1.8h-2v1.8h-0.6v-4h0.6V54h2v-1.6h0.6V56.4z"/>
		<path d="M177.1,56.4h-0.6v-3.2c-0.1,0.1-0.1,0.3-0.3,0.5l-1.8,2.7h-0.7v-4h0.6v3.2c0-0.1,0.1-0.2,0.2-0.4l1.9-2.8h0.7V56.4z"/>
		<path d="M181.4,54.5h-2.8c0,0.4,0.1,0.8,0.4,1s0.5,0.4,0.9,0.4c0.5,0,0.9-0.1,1.2-0.4v0.6c-0.4,0.3-0.8,0.4-1.4,0.4
			c-0.6,0-1-0.2-1.3-0.5s-0.5-0.9-0.5-1.5c0-0.6,0.2-1.1,0.5-1.5s0.8-0.6,1.3-0.6s0.9,0.2,1.2,0.5s0.4,0.8,0.4,1.4V54.5z M180.7,54
			c0-0.4-0.1-0.7-0.3-0.9s-0.4-0.3-0.7-0.3c-0.3,0-0.6,0.1-0.8,0.3s-0.3,0.5-0.4,0.8H180.7z"/>
		<path d="M188.5,56.4h-0.7l-0.6-1.6h-2.4l-0.6,1.6h-0.7l2.1-5.6h0.7L188.5,56.4z M187,54.2l-0.9-2.4c0-0.1-0.1-0.2-0.1-0.4h0
			c0,0.2-0.1,0.3-0.1,0.4l-0.9,2.4H187z"/>
		<path d="M189.7,54.3v2.1h-0.7v-5.6h1.5c0.6,0,1.1,0.1,1.4,0.4s0.5,0.7,0.5,1.2s-0.2,1-0.5,1.3s-0.9,0.5-1.5,0.5H189.7z
			 M189.7,51.4v2.3h0.7c0.5,0,0.8-0.1,1-0.3s0.4-0.5,0.4-0.9c0-0.7-0.4-1.1-1.3-1.1H189.7z"/>
		<path d="M194,56.4h-0.7v-5.6h0.7V56.4z"/>
	</g>
	<g>
		<path class="st6" d="M80.1,14.4h-0.7v-5h-2.9v5h-0.7V8.8h4.3V14.4z"/>
		<path class="st6" d="M82.9,14.5c-0.6,0-1.1-0.2-1.4-0.6S81,13,81,12.4c0-0.7,0.2-1.2,0.6-1.6s0.9-0.6,1.5-0.6
			c0.6,0,1.1,0.2,1.4,0.6s0.5,0.9,0.5,1.5c0,0.6-0.2,1.1-0.5,1.5S83.5,14.5,82.9,14.5z M83,10.8c-0.4,0-0.7,0.1-1,0.4
			s-0.4,0.7-0.4,1.2c0,0.5,0.1,0.8,0.4,1.1s0.6,0.4,1,0.4c0.4,0,0.7-0.1,1-0.4s0.3-0.6,0.3-1.1c0-0.5-0.1-0.9-0.3-1.2
			S83.4,10.8,83,10.8z"/>
		<path class="st6" d="M88.2,10.9H87v3.5h-0.6v-3.5h-1.2v-0.5h3V10.9z"/>
		<path class="st6" d="M90.4,14.5c-0.6,0-1.1-0.2-1.4-0.6s-0.5-0.9-0.5-1.5c0-0.7,0.2-1.2,0.6-1.6s0.9-0.6,1.5-0.6
			c0.6,0,1.1,0.2,1.4,0.6s0.5,0.9,0.5,1.5c0,0.6-0.2,1.1-0.5,1.5S91,14.5,90.4,14.5z M90.4,10.8c-0.4,0-0.7,0.1-1,0.4
			s-0.4,0.7-0.4,1.2c0,0.5,0.1,0.8,0.4,1.1s0.6,0.4,1,0.4c0.4,0,0.7-0.1,1-0.4s0.3-0.6,0.3-1.1c0-0.5-0.1-0.9-0.3-1.2
			S90.9,10.8,90.4,10.8z"/>
		<path class="st6" d="M96.5,14.4h-0.9l-1.8-1.9h0v1.9h-0.6v-4h0.6v1.8h0l1.7-1.8h0.8l-1.9,1.9L96.5,14.4z"/>
		<path class="st6" d="M102.2,14.4h-0.9l-1.8-1.9h0v1.9h-0.6v-4h0.6v1.8h0l1.7-1.8h0.8l-1.9,1.9L102.2,14.4z"/>
		<path class="st6" d="M104.3,14.5c-0.6,0-1.1-0.2-1.4-0.6s-0.5-0.9-0.5-1.5c0-0.7,0.2-1.2,0.6-1.6s0.9-0.6,1.5-0.6
			c0.6,0,1.1,0.2,1.4,0.6s0.5,0.9,0.5,1.5c0,0.6-0.2,1.1-0.5,1.5S104.9,14.5,104.3,14.5z M104.3,10.8c-0.4,0-0.7,0.1-1,0.4
			s-0.4,0.7-0.4,1.2c0,0.5,0.1,0.8,0.4,1.1s0.6,0.4,1,0.4c0.4,0,0.7-0.1,1-0.4s0.3-0.6,0.3-1.1c0-0.5-0.1-0.9-0.3-1.2
			S104.7,10.8,104.3,10.8z"/>
		<path class="st6" d="M110.5,15.8H110v-1.5h-3v1.5h-0.5v-2h0.4c0.7-1,1-2.1,1-3.5h2.1v3.5h0.6V15.8z M109.3,13.8v-2.9h-0.9
			c-0.1,1.1-0.4,2-0.9,2.9H109.3z"/>
		<path class="st6" d="M114,14.4h-0.6v-0.6h0c-0.3,0.5-0.7,0.7-1.2,0.7c-0.4,0-0.7-0.1-0.9-0.3s-0.3-0.5-0.3-0.8
			c0-0.7,0.4-1.2,1.3-1.3l1.2-0.2c0-0.7-0.3-1-0.8-1c-0.5,0-0.9,0.2-1.3,0.5v-0.7c0.4-0.3,0.8-0.4,1.4-0.4c0.9,0,1.4,0.5,1.4,1.5
			V14.4z M113.4,12.3l-1,0.1c-0.3,0-0.5,0.1-0.7,0.2s-0.2,0.3-0.2,0.6c0,0.2,0.1,0.4,0.2,0.5s0.3,0.2,0.6,0.2c0.3,0,0.6-0.1,0.8-0.3
			s0.3-0.5,0.3-0.8V12.3z"/>
		<path class="st6" d="M119.8,14.4h-0.6v-0.6h0c-0.3,0.5-0.7,0.7-1.2,0.7c-0.4,0-0.7-0.1-0.9-0.3s-0.3-0.5-0.3-0.8
			c0-0.7,0.4-1.2,1.3-1.3l1.2-0.2c0-0.7-0.3-1-0.8-1c-0.5,0-0.9,0.2-1.3,0.5v-0.7c0.4-0.3,0.8-0.4,1.4-0.4c0.9,0,1.4,0.5,1.4,1.5
			V14.4z M119.2,12.3l-1,0.1c-0.3,0-0.5,0.1-0.7,0.2s-0.2,0.3-0.2,0.6c0,0.2,0.1,0.4,0.2,0.5s0.3,0.2,0.6,0.2c0.3,0,0.6-0.1,0.8-0.3
			s0.3-0.5,0.3-0.8V12.3z"/>
		<path class="st6" d="M120.8,14.4v-4h1.7c0.4,0,0.7,0.1,0.9,0.3s0.3,0.4,0.3,0.7c0,0.5-0.3,0.8-0.8,0.9c0.6,0.1,0.9,0.4,0.9,0.9
			c0,0.3-0.1,0.6-0.4,0.8s-0.6,0.3-0.9,0.3H120.8z M121.4,10.9V12h1c0.5,0,0.8-0.2,0.8-0.6c0-0.3-0.2-0.5-0.7-0.5H121.4z
			 M121.4,12.6v1.2h1.1c0.5,0,0.8-0.2,0.8-0.6c0-0.4-0.3-0.6-0.9-0.6H121.4z"/>
		<path class="st6" d="M127.3,10.9h-1.2v3.5h-0.6v-3.5h-1.2v-0.5h3V10.9z"/>
		<path class="st6" d="M129.5,14.5c-0.6,0-1.1-0.2-1.4-0.6s-0.5-0.9-0.5-1.5c0-0.7,0.2-1.2,0.6-1.6s0.9-0.6,1.5-0.6
			c0.6,0,1.1,0.2,1.4,0.6s0.5,0.9,0.5,1.5c0,0.6-0.2,1.1-0.5,1.5S130.1,14.5,129.5,14.5z M129.6,10.8c-0.4,0-0.7,0.1-1,0.4
			s-0.4,0.7-0.4,1.2c0,0.5,0.1,0.8,0.4,1.1s0.6,0.4,1,0.4c0.4,0,0.7-0.1,1-0.4s0.3-0.6,0.3-1.1c0-0.5-0.1-0.9-0.3-1.2
			S130,10.8,129.6,10.8z"/>
		<path class="st6" d="M132.9,13.8L132.9,13.8l0,2.4h-0.6v-5.8h0.6v0.7h0c0.3-0.5,0.8-0.8,1.4-0.8c0.5,0,0.9,0.2,1.2,0.5
			s0.4,0.8,0.4,1.4c0,0.7-0.2,1.2-0.5,1.6s-0.8,0.6-1.3,0.6C133.6,14.5,133.2,14.2,132.9,13.8z M132.9,12.2v0.6
			c0,0.3,0.1,0.6,0.3,0.8s0.5,0.3,0.8,0.3c0.4,0,0.7-0.1,0.9-0.4s0.3-0.7,0.3-1.2c0-0.4-0.1-0.8-0.3-1s-0.5-0.4-0.8-0.4
			c-0.4,0-0.7,0.1-0.9,0.4S132.9,11.8,132.9,12.2z"/>
		<path class="st6" d="M140.1,14.4h-0.6v-3.2c-0.1,0.1-0.1,0.3-0.3,0.5l-1.8,2.7h-0.7v-4h0.6v3.2c0-0.1,0.1-0.2,0.2-0.4l1.9-2.8h0.7
			V14.4z"/>
		<path class="st6" d="M140.8,14.3v-0.6c0.3,0.2,0.8,0.3,1.2,0.3c0.7,0,1.1-0.2,1.1-0.7c0-0.4-0.4-0.7-1.2-0.7h-0.4V12h0.4
			c0.7,0,1-0.2,1-0.6c0-0.2-0.1-0.3-0.2-0.4s-0.4-0.2-0.6-0.2c-0.4,0-0.8,0.1-1.2,0.3v-0.6c0.4-0.2,0.8-0.2,1.2-0.2
			c1,0,1.5,0.4,1.5,1.1c0,0.2-0.1,0.4-0.2,0.6s-0.3,0.3-0.6,0.3v0c0.3,0,0.5,0.1,0.7,0.3s0.3,0.4,0.3,0.7c0,0.4-0.1,0.7-0.4,0.9
			s-0.7,0.3-1.2,0.3C141.5,14.5,141.1,14.4,140.8,14.3z"/>
		<path class="st6" d="M147.3,14.4h-0.6v-0.6h0c-0.3,0.5-0.7,0.7-1.2,0.7c-0.4,0-0.7-0.1-0.9-0.3s-0.3-0.5-0.3-0.8
			c0-0.7,0.4-1.2,1.3-1.3l1.2-0.2c0-0.7-0.3-1-0.8-1c-0.5,0-0.9,0.2-1.3,0.5v-0.7c0.4-0.3,0.8-0.4,1.4-0.4c0.9,0,1.4,0.5,1.4,1.5
			V14.4z M146.7,12.3l-1,0.1c-0.3,0-0.5,0.1-0.7,0.2s-0.2,0.3-0.2,0.6c0,0.2,0.1,0.4,0.2,0.5s0.3,0.2,0.6,0.2c0.3,0,0.6-0.1,0.8-0.3
			s0.3-0.5,0.3-0.8V12.3z"/>
		<path class="st6" d="M152.2,15.8h-0.6v-1.5h-3.4v-4h0.6v3.5h2v-3.5h0.6v3.5h0.6V15.8z"/>
		<path class="st6" d="M156.2,14.4h-0.6v-3.2c-0.1,0.1-0.1,0.3-0.3,0.5l-1.8,2.7h-0.7v-4h0.6v3.2c0-0.1,0.1-0.2,0.2-0.4l1.9-2.8h0.7
			V14.4z"/>
		<path class="st6" d="M160.6,14.4h-0.6v-3.2c-0.1,0.1-0.1,0.3-0.3,0.5l-1.8,2.7h-0.7v-4h0.6v3.2c0-0.1,0.1-0.2,0.2-0.4l1.9-2.8h0.7
			V14.4z"/>
	</g>
</g>
<g id="src" xmlns:ev="http://www.w3.org/2001/xml-events" xmlns:v="http://schemas.microsoft.com/visio/2003/SVGExtensions/" class="st7">
	<g class="st8">
		<g id="group1112-1" transform="translate(43.141,-20.0036)">
			<g id="group1113-2">
				<g id="shape1114-3">
					<path class="st0" d="M22.9,60.4c-2.2,1.7-4.8,2.5-7.3,2.5c-3.6,0-7.2-1.7-9.6-4.8C2,52.7,3,45,8.3,40.8
						c2.2-1.7,4.8-2.5,7.3-2.5c3.6,0,7.2,1.7,9.5,4.8C29.2,48.5,28.2,56.3,22.9,60.4z M26.6,42c-2.7-3.7-6.8-5.6-11-5.6
						c-2.9,0-5.9,1-8.4,2.9C1.2,44.1,0,53,4.6,59.2c2.7,3.7,6.8,5.5,11,5.5c2.9,0,5.9-0.9,8.4-2.9C30,57.1,31.2,48.2,26.6,42z"/>
				</g>
			</g>
			<g id="group1115-5" transform="translate(4.95554,-4.39536)">
				<g id="group1116-6" transform="translate(0.341805,-0.176482)">
					<g id="group1117-7" transform="translate(0.437248,3.2685E-13)">
						<g id="shape1118-8">
							<path class="st0" d="M3.6,57.8c-0.8-0.8-1.4-1.6-2-2.3c-1.1,2.4-1.6,4.9-1.7,6.9c0.1,0.2,0.1,0.3,0.2,0.4
								c0.6,0.8,1.3,1.5,2,2C2.1,63.2,2.3,60.5,3.6,57.8z"/>
						</g>
					</g>
					<g id="shape1119-10" transform="translate(3.29213,-8.97695)">
						<path class="st0" d="M4.9,57.3c-1.1,0.8-2.2,1.8-3.3,3c-0.6,0.7-1.1,1.3-1.6,2c0.5,0.8,1.1,1.6,1.9,2.5
							c0.6-0.9,1.3-1.7,2.2-2.6c1.1-1.1,2.2-1.9,3.1-2.6C6.4,58.8,5.7,58.1,4.9,57.3z"/>
					</g>
					<g id="group1120-12" transform="translate(9.93516,-15.1958)">
						<g id="shape1121-13">
							<path class="st0" d="M9.8,62.7C9.3,62,8.7,61.4,8,60.9c-1.9-0.3-4.7-0.3-8,1.5c0.8,0.8,1.5,1.6,2.2,2.4
								C6.6,62.3,9.8,62.7,9.8,62.7z"/>
						</g>
					</g>
					<g id="group1122-15" transform="translate(1.10162E-13,-9.38012)">
						<g id="shape1123-16">
							<path class="st0" d="M2.1,64.8c0.3-0.7,0.7-1.4,1.2-2.1c-1.9-3.1-1.8-5.6-1.6-6.8c-0.5,0.5-0.9,1-1.3,1.6
								C0,59.1,0,61.7,2.1,64.8z"/>
						</g>
					</g>
					<g id="group1124-18" transform="translate(4.05148,-0.740211)">
						<g id="shape1125-19">
							<path class="st0" d="M3.4,58.7c-0.9-0.7-1.6-1.4-2.3-2.1c-0.5,0.7-0.8,1.3-1.1,2c0.6,0.6,1.3,1.3,2.1,1.9
								c4.9,4,9.8,4.4,12.6,4.4c0.2,0,1-1.2,1.5-1.9C15,63.1,9.7,63.8,3.4,58.7z"/>
						</g>
					</g>
					<g id="group1126-21" transform="translate(2.10339,-7.03041)">
						<g id="shape1127-22">
							<path class="st0" d="M0,62.4c0.5,0.8,1.1,1.5,2,2.3c0.3-0.6,0.7-1.3,1.1-1.9c-0.8-0.9-1.4-1.7-1.9-2.5
								C0.7,61,0.3,61.8,0,62.4z"/>
						</g>
					</g>
					<g id="group1128-24" transform="translate(10.5195,-5.3233)">
						<g id="shape1129-25">
							<path class="st0" d="M0,56c4.5,4.3,9.8,7.9,11.1,8.8c0.1-0.3,0.2-0.7,0.3-1c-1.4-1.1-5.3-4.2-9.8-8.8C1.1,55.2,0.6,55.6,0,56
								z"/>
						</g>
					</g>
					<g id="group1130-27" transform="translate(4.98729,-16.4714)">
						<g id="shape1131-28">
							<path class="st0" d="M5,63.7c-1.1-1.2-2.2-2.5-3.4-3.8C1,60.1,0.5,60.3,0,60.6c0.8,1.4,2,2.8,3.2,4.2C3.8,64.4,4.4,64,5,63.7
								z"/>
						</g>
					</g>
					<g id="shape1132-30" transform="translate(8.13763,-14.0503)">
						<path class="st0" d="M1.9,61.2C1.3,61.5,0.6,62,0,62.4c0.7,0.8,1.5,1.6,2.3,2.3c0.6-0.4,1.3-0.9,1.9-1.2
							C3.4,62.9,2.6,62.1,1.9,61.2z"/>
					</g>
					<g id="shape1133-32" transform="translate(8.1369,-14.0039)">
						<path class="st0" d="M1.7,61.1c-0.6,0.3-1.1,0.7-1.7,1.1C0.7,63,1.7,64,2.5,64.8c0.6-0.4,1-0.8,1.6-1.1
							C3.4,63,2.4,61.9,1.7,61.1z"/>
					</g>
				</g>
				<g id="group1134-34" transform="translate(14.8617,-6.23662)">
					<g id="shape1135-35">
						<path class="st0" d="M1.3,59.7c-1.1,0.9-1.3,2.5-0.5,3.7c0.9,1.2,2.5,1.4,3.6,0.5C5.6,63,5.8,61.3,5,60.2
							C4.1,59,2.5,58.8,1.3,59.7z"/>
					</g>
				</g>
				<g id="group1136-37" transform="translate(9.65099,-2.13163E-13)">
					<g id="shape1137-38">
						<path class="st0" d="M1.2,60.1c-1,0.8-1.2,2.4-0.4,3.4c0.8,1.1,2.3,1.3,3.4,0.5c1-0.8,1.2-2.3,0.4-3.4
							C3.8,59.5,2.3,59.3,1.2,60.1z"/>
					</g>
				</g>
				<g id="group1138-40" transform="translate(0,-5.36433)">
					<g id="shape1139-41">
						<path class="st0" d="M1.9,57.6c-1.6,1.3-1.9,3.6-0.7,5.2c1.2,1.6,3.5,1.9,5.1,0.7S8.2,60,7,58.3C5.8,56.7,3.5,56.4,1.9,57.6z"
							/>
					</g>
				</g>
			</g>
			<g id="shape1112-43">
				<g class="st9">
					<path d="M-4.2,77.8v-7h2c0.6,0,1.1,0.1,1.4,0.4s0.5,0.7,0.5,1.2c0,0.4-0.1,0.7-0.3,1s-0.5,0.5-0.9,0.6v0
						c0.5,0.1,0.8,0.2,1.1,0.5c0.3,0.3,0.4,0.7,0.4,1.2c0,0.6-0.2,1.1-0.6,1.5s-1,0.6-1.6,0.6H-4.2z M-3.4,71.5v2.3h0.8
						c0.4,0,0.8-0.1,1.1-0.3c0.3-0.2,0.4-0.5,0.4-0.9c0-0.7-0.4-1-1.3-1H-3.4z M-3.4,74.5V77h1.1c0.5,0,0.9-0.1,1.1-0.3
						s0.4-0.5,0.4-0.9c0-0.8-0.6-1.2-1.7-1.2H-3.4z"/>
					<path d="M5.5,75.5H1.9c0,0.6,0.2,1,0.4,1.3s0.7,0.5,1.2,0.5c0.6,0,1.1-0.2,1.6-0.6v0.8c-0.4,0.3-1,0.5-1.7,0.5
						c-0.7,0-1.3-0.2-1.7-0.7s-0.6-1.1-0.6-1.9c0-0.8,0.2-1.4,0.7-1.9c0.4-0.5,1-0.7,1.6-0.7s1.2,0.2,1.5,0.6s0.5,1,0.5,1.8V75.5z
						 M4.6,74.8c0-0.5-0.1-0.8-0.3-1.1s-0.5-0.4-0.9-0.4c-0.4,0-0.7,0.1-1,0.4S2,74.4,1.9,74.8H4.6z"/>
					<path d="M10.5,70.3v0.8c-0.1,0.1-0.3,0.2-0.6,0.2c-0.7,0.1-1.2,0.2-1.5,0.3s-0.5,0.3-0.7,0.7s-0.3,0.8-0.4,1.5h0
						c0.4-0.6,0.9-0.8,1.7-0.8c0.7,0,1.2,0.2,1.6,0.7s0.6,1,0.6,1.8c0,0.8-0.2,1.4-0.6,1.8s-1,0.7-1.7,0.7c-0.8,0-1.4-0.3-1.8-0.8
						c-0.4-0.5-0.6-1.3-0.6-2.3c0-0.8,0.1-1.5,0.2-2c0.1-0.5,0.4-1,0.6-1.2s0.6-0.5,0.9-0.6s0.9-0.2,1.7-0.4
						C10.1,70.5,10.4,70.4,10.5,70.3z M7.3,74.5v0.7c0,0.3,0,0.5,0.1,0.8s0.2,0.5,0.3,0.7S8,77,8.2,77.1s0.4,0.1,0.7,0.1
						c0.4,0,0.8-0.2,1.1-0.5c0.3-0.3,0.4-0.8,0.4-1.3c0-0.6-0.1-1-0.4-1.4s-0.7-0.5-1.1-0.5C8.1,73.6,7.6,73.9,7.3,74.5z"/>
					<path d="M15,75.3h-2.7v-0.6H15V75.3z"/>
					<path d="M20.6,77.8h-0.8v-4.3h-2.5v4.3h-0.8v-5h4.2V77.8z"/>
					<path d="M23,77.1L23,77.1l0,3h-0.8v-7.3H23v0.9h0c0.4-0.7,1-1,1.7-1c0.6,0,1.1,0.2,1.5,0.7c0.4,0.4,0.5,1,0.5,1.8
						c0,0.8-0.2,1.5-0.6,2s-1,0.8-1.7,0.8C23.9,77.9,23.4,77.6,23,77.1z M23,75.1v0.7c0,0.4,0.1,0.8,0.4,1.1s0.6,0.4,1,0.4
						c0.5,0,0.9-0.2,1.1-0.6s0.4-0.9,0.4-1.5c0-0.6-0.1-1-0.4-1.3s-0.6-0.5-1-0.5c-0.5,0-0.8,0.2-1.1,0.5C23.2,74.2,23,74.6,23,75.1
						z"/>
					<path d="M32.3,77.8h-0.7v-4c-0.1,0.1-0.2,0.3-0.3,0.6l-2.3,3.4h-0.8v-5h0.7v3.9c0-0.1,0.1-0.3,0.3-0.5l2.4-3.5h0.8V77.8z"/>
					<path d="M37.6,77.8h-0.8v-4.3h-1.2c-0.1,1.6-0.4,2.8-0.7,3.4s-0.8,1-1.3,1c-0.2,0-0.3,0-0.4-0.1v-0.7c0.1,0.1,0.2,0.1,0.4,0.1
						c0.7,0,1.2-1.5,1.4-4.4h2.6V77.8z"/>
					<path d="M41.3,77.9c-0.7,0-1.3-0.2-1.8-0.7c-0.4-0.5-0.7-1.1-0.7-1.9c0-0.8,0.2-1.5,0.7-2s1.1-0.7,1.9-0.7
						c0.7,0,1.3,0.2,1.7,0.7s0.6,1.1,0.6,1.9c0,0.8-0.2,1.4-0.7,1.9C42.6,77.7,42,77.9,41.3,77.9z M41.3,73.3
						c-0.5,0-0.9,0.2-1.2,0.5c-0.3,0.4-0.4,0.8-0.4,1.4c0,0.6,0.2,1.1,0.5,1.4s0.7,0.5,1.2,0.5c0.5,0,0.9-0.2,1.2-0.5
						s0.4-0.8,0.4-1.4c0-0.6-0.1-1.1-0.4-1.4S41.8,73.3,41.3,73.3z"/>
					<path d="M51.7,77.8h-1.1l-2.2-2.5h0v2.5h-0.8v-2.5h0l-2.2,2.5h-1.1l2.5-2.6l-2.3-2.4h1l2.1,2.3h0v-2.3h0.8v2.3h0l2.1-2.3h1
						l-2.3,2.4L51.7,77.8z"/>
					<path d="M56.5,75.5H53c0,0.6,0.2,1,0.4,1.3s0.7,0.5,1.2,0.5c0.6,0,1.1-0.2,1.6-0.6v0.8c-0.4,0.3-1,0.5-1.7,0.5
						c-0.7,0-1.3-0.2-1.7-0.7s-0.6-1.1-0.6-1.9c0-0.8,0.2-1.4,0.7-1.9c0.4-0.5,1-0.7,1.6-0.7s1.2,0.2,1.5,0.6s0.5,1,0.5,1.8V75.5z
						 M55.7,74.8c0-0.5-0.1-0.8-0.3-1.1s-0.5-0.4-0.9-0.4c-0.4,0-0.7,0.1-1,0.4s-0.4,0.6-0.5,1.1H55.7z"/>
					<path d="M61.9,77.8h-0.8v-2.3h-2.5v2.3h-0.8v-5h0.8v2.1h2.5v-2.1h0.8V77.8z"/>
					<path d="M67.7,77.8H67v-4c-0.1,0.1-0.2,0.3-0.3,0.6l-2.3,3.4h-0.8v-5h0.7v3.9c0-0.1,0.1-0.3,0.3-0.5l2.4-3.5h0.8V77.8z"/>
					<path d="M73.3,75.5h-3.5c0,0.6,0.2,1,0.4,1.3c0.3,0.3,0.7,0.5,1.2,0.5c0.6,0,1.1-0.2,1.6-0.6v0.8c-0.4,0.3-1,0.5-1.7,0.5
						c-0.7,0-1.3-0.2-1.7-0.7c-0.4-0.5-0.6-1.1-0.6-1.9c0-0.8,0.2-1.4,0.7-1.9c0.4-0.5,1-0.7,1.6-0.7s1.2,0.2,1.5,0.6
						c0.4,0.4,0.5,1,0.5,1.8V75.5z M72.5,74.8c0-0.5-0.1-0.8-0.3-1.1s-0.5-0.4-0.9-0.4c-0.4,0-0.7,0.1-1,0.4s-0.4,0.6-0.5,1.1H72.5z
						"/>
					<v:paragraph  v:horizAlign="1"></v:paragraph>
					<v:tabList></v:tabList>
				</g>
			</g>
		</g>
		<g id="shape1140-45" transform="translate(65.0994,-44.409)">
			<rect x="0" y="44.8" class="st5" width="114.2" height="20"/>
			<g class="st9">
				<path class="st6" d="M10.6,57.8H9.7v-6.2H6.1v6.2H5.2v-7h5.3V57.8z"/>
				<path class="st6" d="M14.3,57.9c-0.7,0-1.3-0.2-1.8-0.7c-0.4-0.5-0.7-1.1-0.7-1.9c0-0.8,0.2-1.5,0.7-2s1.1-0.7,1.9-0.7
					c0.7,0,1.3,0.2,1.7,0.7s0.6,1.1,0.6,1.9c0,0.8-0.2,1.4-0.7,1.9C15.7,57.7,15.1,57.9,14.3,57.9z M14.4,53.3
					c-0.5,0-0.9,0.2-1.2,0.5c-0.3,0.4-0.4,0.8-0.4,1.4c0,0.6,0.2,1.1,0.5,1.4s0.7,0.5,1.2,0.5c0.5,0,0.9-0.2,1.2-0.5
					s0.4-0.8,0.4-1.4c0-0.6-0.1-1.1-0.4-1.4S14.9,53.3,14.4,53.3z"/>
				<path class="st6" d="M21.3,53.5h-1.5v4.3H19v-4.3h-1.5v-0.7h3.8V53.5z"/>
				<path class="st6" d="M24.3,57.9c-0.7,0-1.3-0.2-1.8-0.7c-0.4-0.5-0.7-1.1-0.7-1.9c0-0.8,0.2-1.5,0.7-2s1.1-0.7,1.9-0.7
					c0.7,0,1.3,0.2,1.7,0.7s0.6,1.1,0.6,1.9c0,0.8-0.2,1.4-0.7,1.9C25.7,57.7,25.1,57.9,24.3,57.9z M24.4,53.3
					c-0.5,0-0.9,0.2-1.2,0.5c-0.3,0.4-0.4,0.8-0.4,1.4c0,0.6,0.2,1.1,0.5,1.4s0.7,0.5,1.2,0.5c0.5,0,0.9-0.2,1.2-0.5
					s0.4-0.8,0.4-1.4c0-0.6-0.1-1.1-0.4-1.4S24.9,53.3,24.4,53.3z"/>
				<path class="st6" d="M32.2,57.8h-1.1l-2.2-2.4h0v2.4h-0.8v-5h0.8v2.3h0l2.1-2.3h1l-2.3,2.4L32.2,57.8z"/>
				<path class="st6" d="M39.9,57.8h-1.1l-2.2-2.4h0v2.4h-0.8v-5h0.8v2.3h0l2.1-2.3h1l-2.3,2.4L39.9,57.8z"/>
				<path class="st6" d="M42.9,57.9c-0.7,0-1.3-0.2-1.8-0.7c-0.4-0.5-0.7-1.1-0.7-1.9c0-0.8,0.2-1.5,0.7-2s1.1-0.7,1.9-0.7
					c0.7,0,1.3,0.2,1.7,0.7c0.4,0.5,0.6,1.1,0.6,1.9c0,0.8-0.2,1.4-0.7,1.9C44.2,57.7,43.6,57.9,42.9,57.9z M42.9,53.3
					c-0.5,0-0.9,0.2-1.2,0.5c-0.3,0.4-0.4,0.8-0.4,1.4c0,0.6,0.2,1.1,0.5,1.4s0.7,0.5,1.2,0.5c0.5,0,0.9-0.2,1.2-0.5
					s0.4-0.8,0.4-1.4c0-0.6-0.1-1.1-0.4-1.4S43.4,53.3,42.9,53.3z"/>
				<path class="st6" d="M51,59.6h-0.7v-1.8h-3.7v1.8h-0.7v-2.5h0.4c0.9-1.2,1.3-2.7,1.3-4.3h2.6v4.3H51V59.6z M49.4,57.1v-3.6h-1.1
					c-0.1,1.3-0.5,2.6-1.1,3.6H49.4z"/>
				<path class="st6" d="M55.7,57.8h-0.8V57h0c-0.3,0.6-0.9,0.9-1.5,0.9c-0.5,0-0.9-0.1-1.2-0.4c-0.3-0.3-0.4-0.6-0.4-1
					c0-0.9,0.5-1.5,1.7-1.6l1.5-0.2c0-0.8-0.3-1.3-1-1.3c-0.6,0-1.1,0.2-1.6,0.6v-0.8c0.5-0.3,1.1-0.5,1.7-0.5
					c1.2,0,1.8,0.6,1.8,1.9V57.8z M54.9,55.3l-1.2,0.2c-0.4,0.1-0.7,0.1-0.8,0.3c-0.2,0.1-0.3,0.4-0.3,0.7c0,0.2,0.1,0.4,0.3,0.6
					c0.2,0.2,0.4,0.2,0.7,0.2c0.4,0,0.7-0.1,1-0.4s0.4-0.6,0.4-1.1V55.3z"/>
				<path class="st6" d="M63.5,57.8h-0.8V57h0c-0.3,0.6-0.9,0.9-1.5,0.9c-0.5,0-0.9-0.1-1.2-0.4c-0.3-0.3-0.4-0.6-0.4-1
					c0-0.9,0.5-1.5,1.7-1.6l1.5-0.2c0-0.8-0.3-1.3-1-1.3c-0.6,0-1.1,0.2-1.6,0.6v-0.8c0.5-0.3,1.1-0.5,1.7-0.5
					c1.2,0,1.8,0.6,1.8,1.9V57.8z M62.7,55.3l-1.2,0.2c-0.4,0.1-0.7,0.1-0.8,0.3c-0.2,0.1-0.3,0.4-0.3,0.7c0,0.2,0.1,0.4,0.3,0.6
					c0.2,0.2,0.4,0.2,0.7,0.2c0.4,0,0.7-0.1,1-0.4s0.4-0.6,0.4-1.1V55.3z"/>
				<path class="st6" d="M65,57.8v-5h2.2c0.5,0,0.9,0.1,1.2,0.3c0.3,0.2,0.4,0.5,0.4,0.9c0,0.6-0.3,1-1,1.2c0.8,0.1,1.1,0.5,1.1,1.2
					c0,0.4-0.2,0.7-0.5,1c-0.3,0.3-0.7,0.4-1.2,0.4H65z M65.8,53.5v1.4H67c0.6,0,1-0.3,1-0.8c0-0.4-0.3-0.7-0.9-0.7H65.8z
					 M65.8,55.6v1.5h1.4c0.6,0,1-0.3,1-0.8c0-0.5-0.4-0.8-1.1-0.8H65.8z"/>
				<path class="st6" d="M73.4,53.5h-1.5v4.3h-0.8v-4.3h-1.5v-0.7h3.8V53.5z"/>
				<path class="st6" d="M76.5,57.9c-0.7,0-1.3-0.2-1.8-0.7c-0.4-0.5-0.7-1.1-0.7-1.9c0-0.8,0.2-1.5,0.7-2s1.1-0.7,1.9-0.7
					c0.7,0,1.3,0.2,1.7,0.7c0.4,0.5,0.6,1.1,0.6,1.9c0,0.8-0.2,1.4-0.7,1.9C77.9,57.7,77.3,57.9,76.5,57.9z M76.6,53.3
					c-0.5,0-0.9,0.2-1.2,0.5c-0.3,0.4-0.4,0.8-0.4,1.4c0,0.6,0.2,1.1,0.5,1.4s0.7,0.5,1.2,0.5c0.5,0,0.9-0.2,1.2-0.5
					s0.4-0.8,0.4-1.4c0-0.6-0.1-1.1-0.4-1.4S77.1,53.3,76.6,53.3z"/>
				<path class="st6" d="M81.1,57.1L81.1,57.1l0,3h-0.8v-7.3h0.8v0.9h0c0.4-0.7,1-1,1.7-1c0.6,0,1.1,0.2,1.5,0.7
					c0.4,0.4,0.5,1,0.5,1.8c0,0.8-0.2,1.5-0.6,2c-0.4,0.5-1,0.8-1.7,0.8C81.9,57.9,81.4,57.6,81.1,57.1z M81.1,55v0.7
					c0,0.4,0.1,0.8,0.4,1.1s0.6,0.4,1,0.4c0.5,0,0.9-0.2,1.1-0.6c0.3-0.4,0.4-0.9,0.4-1.5c0-0.6-0.1-1-0.4-1.3
					c-0.3-0.3-0.6-0.5-1-0.5c-0.5,0-0.8,0.2-1.1,0.5C81.2,54.1,81.1,54.6,81.1,55z"/>
				<path class="st6" d="M90.3,57.8h-0.7v-4c-0.1,0.1-0.2,0.3-0.3,0.6L87,57.8h-0.8v-5h0.7v3.9c0-0.1,0.1-0.3,0.3-0.5l2.4-3.5h0.8
					V57.8z"/>
				<path class="st6" d="M91.5,57.6v-0.8c0.4,0.2,0.9,0.4,1.5,0.4c0.9,0,1.3-0.3,1.3-0.8c0-0.6-0.5-0.8-1.5-0.8h-0.5v-0.7h0.5
					c0.8,0,1.3-0.3,1.3-0.8c0-0.2-0.1-0.4-0.3-0.5s-0.5-0.2-0.8-0.2c-0.5,0-1,0.1-1.5,0.4V53c0.6-0.2,1.1-0.3,1.5-0.3
					c1.2,0,1.8,0.4,1.8,1.3c0,0.3-0.1,0.5-0.3,0.7s-0.4,0.3-0.8,0.4v0c0.4,0,0.7,0.2,0.9,0.4s0.3,0.5,0.3,0.8c0,0.5-0.2,0.8-0.6,1.1
					c-0.4,0.3-0.9,0.4-1.5,0.4C92.4,57.9,91.9,57.8,91.5,57.6z"/>
				<path class="st6" d="M100,57.8h-0.8V57h0c-0.3,0.6-0.9,0.9-1.5,0.9c-0.5,0-0.9-0.1-1.2-0.4c-0.3-0.3-0.4-0.6-0.4-1
					c0-0.9,0.5-1.5,1.7-1.6l1.5-0.2c0-0.8-0.3-1.3-1-1.3c-0.6,0-1.1,0.2-1.6,0.6v-0.8c0.5-0.3,1.1-0.5,1.7-0.5
					c1.2,0,1.8,0.6,1.8,1.9V57.8z M99.2,55.3L98,55.4c-0.4,0.1-0.7,0.1-0.8,0.3c-0.2,0.1-0.3,0.4-0.3,0.7c0,0.2,0.1,0.4,0.3,0.6
					c0.2,0.2,0.4,0.2,0.7,0.2c0.4,0,0.7-0.1,1-0.4s0.4-0.6,0.4-1.1V55.3z"/>
				<path class="st6" d="M106.4,59.6h-0.7v-1.8h-4.2v-5h0.8v4.3h2.5v-4.3h0.8v4.3h0.7V59.6z"/>
				<path class="st6" d="M111.7,57.8H111v-4c-0.1,0.1-0.2,0.3-0.3,0.6l-2.3,3.4h-0.8v-5h0.7v3.9c0-0.1,0.1-0.3,0.3-0.5l2.4-3.5h0.8
					V57.8z"/>
				<path class="st6" d="M117.5,57.8h-0.7v-4c-0.1,0.1-0.2,0.3-0.3,0.6l-2.3,3.4h-0.8v-5h0.7v3.9c0-0.1,0.1-0.3,0.3-0.5l2.4-3.5h0.8
					V57.8z"/>
				<v:paragraph  v:horizAlign="1"></v:paragraph>
				<v:tabList></v:tabList>
			</g>
		</g>
		<g id="shape1141-48" transform="translate(170.17,-21.421)">
			<path class="st0" d="M21.6,39.3H1.1c-0.6,0-1.1,0.5-1.1,1.1v16.7c0,0.6,0.5,1.1,1.1,1.1h5.3c0.4,1.3,1.7,2.3,3.2,2.3
				c1.8,0,3.3-1.5,3.3-3.4s-1.5-3.4-3.3-3.4c-1.5,0-2.8,0.9-3.2,2.3H2.2V44.1h18.3V56H17c-0.5-3.7-3.7-6.6-7.5-6.6
				c-1.3,0-2.5,0.4-3.6,0.9l1,2c0.7-0.4,1.7-0.7,2.6-0.7c2.9,0,5.4,2.5,5.4,5.5c0,3-2.4,5.5-5.4,5.5c-0.9,0-1.8-0.3-2.6-0.7l-1,2
				c1.1,0.6,2.4,0.9,3.6,0.9c3.8,0,7-2.9,7.5-6.6h4.5c0.6,0,1.1-0.5,1.1-1.1V40.4C22.7,39.8,22.2,39.3,21.6,39.3z"/>
			<g class="st9">
				<path d="M-0.3,77.8h-0.8v-6.2h-3.7v6.2h-0.8v-7h5.3V77.8z"/>
				<path d="M2.3,77.1L2.3,77.1l0,3H1.4v-7.3h0.8v0.9h0c0.4-0.7,1-1,1.7-1c0.6,0,1.1,0.2,1.5,0.7c0.4,0.4,0.5,1,0.5,1.8
					c0,0.8-0.2,1.5-0.6,2c-0.4,0.5-1,0.8-1.7,0.8C3.1,77.9,2.6,77.6,2.3,77.1z M2.2,75.1v0.7c0,0.4,0.1,0.8,0.4,1.1s0.6,0.4,1,0.4
					c0.5,0,0.9-0.2,1.1-0.6s0.4-0.9,0.4-1.5c0-0.6-0.1-1-0.4-1.3c-0.3-0.3-0.6-0.5-1-0.5c-0.5,0-0.8,0.2-1.1,0.5
					C2.4,74.2,2.2,74.6,2.2,75.1z"/>
				<path d="M11.5,77.8h-0.7v-4c-0.1,0.1-0.2,0.3-0.3,0.6l-2.3,3.4H7.3v-5h0.7v3.9c0-0.1,0.1-0.3,0.3-0.5l2.4-3.5h0.8V77.8z"/>
				<path d="M16.8,77.8H16v-4.3h-1.2c-0.1,1.6-0.4,2.8-0.7,3.4s-0.8,1-1.3,1c-0.2,0-0.3,0-0.4-0.1v-0.7c0.1,0.1,0.2,0.1,0.4,0.1
					c0.7,0,1.2-1.5,1.4-4.4h2.6V77.8z"/>
				<path d="M20.5,77.9c-0.7,0-1.3-0.2-1.8-0.7c-0.4-0.5-0.7-1.1-0.7-1.9c0-0.8,0.2-1.5,0.7-2s1.1-0.7,1.9-0.7
					c0.7,0,1.3,0.2,1.7,0.7s0.6,1.1,0.6,1.9c0,0.8-0.2,1.4-0.7,1.9C21.9,77.7,21.3,77.9,20.5,77.9z M20.6,73.3
					c-0.5,0-0.9,0.2-1.2,0.5c-0.3,0.4-0.4,0.8-0.4,1.4c0,0.6,0.2,1.1,0.5,1.4s0.7,0.5,1.2,0.5c0.5,0,0.9-0.2,1.2-0.5
					s0.4-0.8,0.4-1.4c0-0.6-0.1-1.1-0.4-1.4S21.1,73.3,20.6,73.3z"/>
				<path d="M30.9,77.8h-1.1l-2.2-2.5h0v2.5h-0.8v-2.5h0l-2.2,2.5h-1.1l2.5-2.6l-2.3-2.4h1l2.1,2.3h0v-2.3h0.8v2.3h0l2.1-2.3h1
					l-2.3,2.4L30.9,77.8z"/>
				<path d="M35.7,75.5h-3.5c0,0.6,0.2,1,0.4,1.3c0.3,0.3,0.7,0.5,1.2,0.5c0.6,0,1.1-0.2,1.6-0.6v0.8c-0.4,0.3-1,0.5-1.7,0.5
					c-0.7,0-1.3-0.2-1.7-0.7c-0.4-0.5-0.6-1.1-0.6-1.9c0-0.8,0.2-1.4,0.7-1.9c0.4-0.5,1-0.7,1.6-0.7s1.2,0.2,1.5,0.6
					c0.4,0.4,0.5,1,0.5,1.8V75.5z M34.9,74.8c0-0.5-0.1-0.8-0.3-1.1s-0.5-0.4-0.9-0.4c-0.4,0-0.7,0.1-1,0.4s-0.4,0.6-0.5,1.1H34.9z"
					/>
				<v:paragraph  v:horizAlign="1"></v:paragraph>
				<v:tabList></v:tabList>
			</g>
		</g>
		<g id="shape1142-51" transform="translate(73.5133,-41.2635)">
			<g transform="scale(-2.68,-2.68) ">
				<g id="lend5">
					<path class="st1" d="M88.2,67.9l8,4l-8,4C89.5,73.3,89.5,70.4,88.2,67.9"/>
				</g>
			</g>
		</g>
		<g id="group1143-57" transform="translate(0.375,-25.6729)">
			<g id="group1144-58">
				<g id="group1145-59">
					<g id="group1146-60" transform="translate(3.8518,-6.4617)">
						<g id="shape1147-61">
							<path class="st0" d="M3.6,54.9c-2.3,0.6-3.6,3.1-3,5.7c0.7,2.5,3,4.2,5.3,3.7c2.3-0.6,3.6-3.1,3-5.7
								C8.3,55.9,5.9,54.2,3.6,54.9z"/>
						</g>
					</g>
					<g id="group1148-63">
						<g id="shape1149-64">
							<path class="st0" d="M12.4,58.5c-0.4,0-0.9,0.8-1.5,1.1c-0.7,0.3-1.3,0.9-3.2,0c-1.9-0.9-2.1-1.7-3.6-1.7
								c-1.5,0-4.1,2.8-4.1,6.9h15.6c0,0-0.2-2.8-1.1-4.2C13.4,58.5,12.9,58.5,12.4,58.5z"/>
						</g>
					</g>
				</g>
			</g>
			<g id="group1150-66" transform="translate(9.0485,-0.85947)">
				<g id="shape1151-67">
					<path class="st2" d="M4.8,54.4H0.7C0.3,54.4,0,54.7,0,55v2.9c0,0.3,0.3,0.7,0.8,0.7h0.8v5.1c0,0.7,0.4,1.1,1,1.1s1-0.4,1-1
						c0.1,0,0.2,0,0.2,0s0-0.5,0-0.7c0-0.2,0.3-0.3,0.3-0.3v-0.3c-0.3-0.1-0.5-0.3-0.5-0.4v-0.3c0.1-0.1,0.2-0.2,0.2-0.2
						C3.8,61.4,4,61,4,61s-0.3-0.4-0.3-0.5c-0.1-0.1-0.1-0.3-0.2-0.4v-0.2c0.1-0.5,0.8-1.1,0.8-1.1h0.5c0.3,0,0.7-0.3,0.7-0.7v-3
						C5.4,54.7,5.2,54.4,4.8,54.4z M2.4,63.9c0,0.2,0,0.3-0.2,0.3C2,64.2,2,64,2,63.9v-4.8c0-0.2,0.1-0.3,0.2-0.3
						c0.2,0,0.2,0.2,0.2,0.3V63.9z M2.7,56.1c-0.3,0-0.7-0.3-0.7-0.7c0-0.3,0.3-0.7,0.7-0.7c0.3,0,0.6,0.3,0.6,0.7
						C3.4,55.8,3.1,56.1,2.7,56.1z"/>
				</g>
				<g id="shape1152-69" transform="translate(1.92482,-0.570755)">
					<path class="st3" d="M0.2,64.8c-0.1,0-0.2-0.1-0.2-0.2v-5c0-0.1,0.1-0.2,0.2-0.2s0.2,0.1,0.2,0.2v5.1
						C0.4,64.8,0.3,64.8,0.2,64.8z"/>
				</g>
				<g id="shape1153-71" transform="translate(2.05993,-8.66317)">
					<ellipse class="st3" cx="0.7" cy="64.1" rx="0.7" ry="0.7"/>
				</g>
			</g>
		</g>
	</g>
	<path class="st10" d="M163.3,31.5H73.7c-0.4,0-0.8-0.3-0.8-0.8v-0.2c0-0.4,0.3-0.8,0.8-0.8h89.5c0.4,0,0.8,0.3,0.8,0.8v0.2
		C164,31.1,163.7,31.5,163.3,31.5z"/>
</g>
</svg>
