<svg xmlns="http://www.w3.org/2000/svg" viewBox="0 0 204.71 64.78"><title>OJ104440671</title><path d="M66,40.4a11.81,11.81,0,0,1-16.84-2.29,12.56,12.56,0,0,1,2.24-17.29,11.82,11.82,0,0,1,16.84,2.3A12.54,12.54,0,0,1,66,40.4ZM69.69,22a13.57,13.57,0,0,0-19.36-2.63,14.43,14.43,0,0,0-2.55,19.87,13.62,13.62,0,0,0,11,5.55,13.45,13.45,0,0,0,8.39-2.92A14.44,14.44,0,0,0,69.69,22Z" fill="#008bfd"/><path d="M52.06,33.18a17,17,0,0,1-2-2.35,18.28,18.28,0,0,0-1.66,6.88c.11.16.11.29.23.44a12.55,12.55,0,0,0,2,2.05A14.13,14.13,0,0,1,52.06,33.18Z" fill="#008bfd"/><path d="M56.67,23.74a21,21,0,0,0-3.33,3,15.71,15.71,0,0,0-1.61,2.05,15.42,15.42,0,0,0,1.9,2.46,16.32,16.32,0,0,1,2.2-2.56A26.47,26.47,0,0,1,59,26.06C58.16,25.3,57.38,24.53,56.67,23.74Z" fill="#008bfd"/><path d="M68.14,22.94a12,12,0,0,0-1.73-1.82,12.53,12.53,0,0,0-8,1.53c.76.84,1.51,1.63,2.24,2.36C65,22.58,68.14,22.94,68.14,22.94Z" fill="#008bfd"/><path d="M50.34,31a19.82,19.82,0,0,1,1.19-2.06,9.84,9.84,0,0,1-1.6-6.79,13.09,13.09,0,0,0-1.29,1.6C48.26,25.33,48.24,27.89,50.34,31Z" fill="#008bfd"/><path d="M55.9,33.36a21.6,21.6,0,0,1-2.27-2.14,14.25,14.25,0,0,0-1.14,2,23.54,23.54,0,0,0,2.09,1.91,19.12,19.12,0,0,0,12.56,4.38,9,9,0,0,0,1.54-1.94C67.45,37.78,62.19,38.47,55.9,33.36Z" fill="#008bfd"/><path d="M50.54,30.82a15.72,15.72,0,0,0,2,2.35,15.36,15.36,0,0,1,1.14-2,15.42,15.42,0,0,1-1.9-2.46A15.58,15.58,0,0,0,50.54,30.82Z" fill="#008bfd"/><path d="M59,26.06a97,97,0,0,0,11.15,8.82,9.82,9.82,0,0,0,.33-1.05A95.51,95.51,0,0,1,60.61,25Q59.82,25.46,59,26.06Z" fill="#008bfd"/><path d="M58.38,22.65q-1.65-1.77-3.36-3.8a10.05,10.05,0,0,0-1.59.66,26.3,26.3,0,0,0,3.24,4.22A17.22,17.22,0,0,1,58.38,22.65Z" fill="#008bfd"/><path d="M58.45,22.61a18.74,18.74,0,0,0-1.87,1.19c.72.78,1.45,1.59,2.25,2.35.57-.4,1.34-.88,1.87-1.18C60,24.24,59.21,23.45,58.45,22.61Z" fill="#008bfd"/><path d="M58.25,22.51a16.24,16.24,0,0,0-1.67,1.12c.72.79,1.74,1.81,2.54,2.57.57-.4,1.05-.8,1.58-1.11C60,24.37,59,23.34,58.25,22.51Z" fill="#008bfd"/><path d="M64.3,29.06a2.7,2.7,0,0,0-.48,3.7,2.56,2.56,0,0,0,3.63.51,2.72,2.72,0,0,0,.48-3.72A2.55,2.55,0,0,0,64.3,29.06Z" fill="#008bfd"/><path d="M59.13,35.19a2.52,2.52,0,0,0-.45,3.44,2.37,2.37,0,0,0,3.36.45,2.49,2.49,0,0,0,.44-3.43A2.36,2.36,0,0,0,59.13,35.19Z" fill="#008bfd"/><path d="M50,27.86a3.79,3.79,0,0,0-.68,5.21,3.58,3.58,0,0,0,5.1.7,3.8,3.8,0,0,0,.67-5.23A3.59,3.59,0,0,0,50,27.86Z" fill="#008bfd"/><g style="isolation:isolate"><path d="M27.75,57.79v-5.6h1.6a1.74,1.74,0,0,1,1.15.35,1.17,1.17,0,0,1,.42.93,1.35,1.35,0,0,1-.25.82,1.33,1.33,0,0,1-.72.5v0a1.42,1.42,0,0,1,.91.43,1.29,1.29,0,0,1,.34.94,1.47,1.47,0,0,1-.51,1.16,1.93,1.93,0,0,1-1.31.45Zm.66-5v1.81h.67a1.31,1.31,0,0,0,.85-.26.94.94,0,0,0,.31-.73c0-.55-.36-.82-1.08-.82Zm0,2.4v2h.89a1.33,1.33,0,0,0,.89-.27.91.91,0,0,0,.32-.75q0-1-1.35-1Z" fill="#008bfd"/><path d="M35.47,56H32.64A1.49,1.49,0,0,0,33,57a1.26,1.26,0,0,0,1,.36,2,2,0,0,0,1.24-.44v.6a2.37,2.37,0,0,1-1.4.38,1.71,1.71,0,0,1-1.33-.54A2.27,2.27,0,0,1,32,55.8a2.15,2.15,0,0,1,.53-1.52,1.7,1.7,0,0,1,1.31-.59A1.51,1.51,0,0,1,35,54.2a2.16,2.16,0,0,1,.43,1.41Zm-.66-.55a1.27,1.27,0,0,0-.27-.86.89.89,0,0,0-.73-.31,1,1,0,0,0-.77.33,1.47,1.47,0,0,0-.39.84Z" fill="#008bfd"/><path d="M39.53,51.82v.6a1.24,1.24,0,0,1-.52.18,7.46,7.46,0,0,0-1.23.25,1.07,1.07,0,0,0-.57.53,2.93,2.93,0,0,0-.29,1.17h0a1.53,1.53,0,0,1,1.33-.68,1.61,1.61,0,0,1,1.28.55A2,2,0,0,1,40,55.85a2.09,2.09,0,0,1-.51,1.47,1.76,1.76,0,0,1-1.36.56,1.68,1.68,0,0,1-1.42-.65,3.06,3.06,0,0,1-.5-1.87,6.22,6.22,0,0,1,.18-1.61,2.35,2.35,0,0,1,.5-1,1.65,1.65,0,0,1,.71-.45A11.41,11.41,0,0,1,39,52,1.89,1.89,0,0,0,39.53,51.82Zm-2.61,3.37v.55a2.1,2.1,0,0,0,.09.61,1.75,1.75,0,0,0,.26.53,1.08,1.08,0,0,0,.39.35,1.29,1.29,0,0,0,.53.11,1.06,1.06,0,0,0,.86-.4,1.56,1.56,0,0,0,.33-1,1.65,1.65,0,0,0-.34-1.1,1.11,1.11,0,0,0-.91-.4A1.28,1.28,0,0,0,36.92,55.19Z" fill="#008bfd"/><path d="M43.11,55.81H41v-.5h2.13Z" fill="#008bfd"/><path d="M47.59,57.79H47V54.33h-2v3.46h-.64v-4h3.32Z" fill="#008bfd"/><path d="M49.54,57.21h0v2.42h-.64V53.79h.64v.7h0a1.53,1.53,0,0,1,1.38-.8,1.46,1.46,0,0,1,1.21.54,2.23,2.23,0,0,1,.43,1.44,2.53,2.53,0,0,1-.48,1.61,1.65,1.65,0,0,1-1.34.6A1.33,1.33,0,0,1,49.54,57.21Zm0-1.61v.55a1.19,1.19,0,0,0,.33.85,1.05,1.05,0,0,0,.82.34,1.09,1.09,0,0,0,.91-.44,2.05,2.05,0,0,0,.33-1.24,1.64,1.64,0,0,0-.31-1,1,1,0,0,0-.84-.38,1.14,1.14,0,0,0-.9.39A1.46,1.46,0,0,0,49.52,55.6Z" fill="#008bfd"/><path d="M56.94,57.79h-.58V54.6l-.26.47-1.85,2.72h-.66v-4h.58v3.15a2.72,2.72,0,0,1,.21-.39l1.89-2.76h.67Z" fill="#008bfd"/><path d="M61.15,57.79h-.63V54.33h-.93A8.44,8.44,0,0,1,59,57.06a1.18,1.18,0,0,1-1,.78,1.16,1.16,0,0,1-.34-.05v-.55a.73.73,0,0,0,.3.07c.57,0,.94-1.18,1.1-3.52h2.1Z" fill="#008bfd"/><path d="M64.12,57.88a1.85,1.85,0,0,1-1.41-.56,2,2,0,0,1-.53-1.49,2.15,2.15,0,0,1,.55-1.57,2,2,0,0,1,1.49-.57,1.81,1.81,0,0,1,1.39.55,2.17,2.17,0,0,1,.5,1.53,2.13,2.13,0,0,1-.54,1.53A1.87,1.87,0,0,1,64.12,57.88Zm0-3.65a1.23,1.23,0,0,0-1,.42,1.73,1.73,0,0,0-.36,1.16,1.59,1.59,0,0,0,.37,1.12,1.23,1.23,0,0,0,1,.41,1.16,1.16,0,0,0,1-.4,2.11,2.11,0,0,0,0-2.3A1.16,1.16,0,0,0,64.17,54.23Z" fill="#008bfd"/><path d="M72.45,57.79h-.87l-1.79-2h0v2h-.61v-2h0l-1.79,2h-.85l2-2.07-1.86-1.93h.81l1.71,1.87h0V53.79h.61v1.87h0l1.72-1.87h.82l-1.87,1.93Z" fill="#008bfd"/><path d="M76.32,56H73.5a1.49,1.49,0,0,0,.36,1,1.24,1.24,0,0,0,.94.36A2,2,0,0,0,76,56.9v.6a2.34,2.34,0,0,1-1.39.38,1.68,1.68,0,0,1-1.33-.54,2.28,2.28,0,0,1-.49-1.54,2.2,2.2,0,0,1,.53-1.52,1.72,1.72,0,0,1,1.32-.59,1.49,1.49,0,0,1,1.21.51,2.1,2.1,0,0,1,.43,1.41Zm-.65-.55a1.38,1.38,0,0,0-.27-.86.9.9,0,0,0-.73-.31,1,1,0,0,0-.77.33,1.41,1.41,0,0,0-.39.84Z" fill="#008bfd"/><path d="M80.61,57.79H80V56h-2v1.82h-.64v-4h.64v1.64h2V53.79h.64Z" fill="#008bfd"/><path d="M85.26,57.79h-.58V54.6l-.26.47-1.85,2.72h-.66v-4h.58v3.15a2.72,2.72,0,0,1,.21-.39l1.9-2.76h.66Z" fill="#008bfd"/><path d="M89.77,56H87a1.49,1.49,0,0,0,.36,1,1.24,1.24,0,0,0,.94.36,2,2,0,0,0,1.24-.44v.6a2.34,2.34,0,0,1-1.39.38,1.68,1.68,0,0,1-1.33-.54,2.23,2.23,0,0,1-.49-1.54,2.2,2.2,0,0,1,.53-1.52,1.72,1.72,0,0,1,1.32-.59,1.5,1.5,0,0,1,1.21.51,2.1,2.1,0,0,1,.43,1.41Zm-.66-.55a1.32,1.32,0,0,0-.26-.86.91.91,0,0,0-.74-.31,1,1,0,0,0-.76.33,1.42,1.42,0,0,0-.4.84Z" fill="#008bfd"/></g><rect x="65.1" y="0.37" width="114.21" height="20" fill="none"/><g style="isolation:isolate"><path d="M79.2,13.37h-.66v-5H75.61v5H75V7.77H79.2Z" fill="#00b0f0"/><path d="M82,13.46a1.85,1.85,0,0,1-1.42-.56,2.08,2.08,0,0,1-.53-1.48,2.22,2.22,0,0,1,.55-1.58,2,2,0,0,1,1.49-.56,1.79,1.79,0,0,1,1.4.55,2.18,2.18,0,0,1,.5,1.53,2.17,2.17,0,0,1-.54,1.53A1.9,1.9,0,0,1,82,13.46Zm0-3.64a1.21,1.21,0,0,0-1,.42,1.7,1.7,0,0,0-.36,1.15,1.67,1.67,0,0,0,.36,1.13,1.25,1.25,0,0,0,1,.41,1.17,1.17,0,0,0,1-.41,1.76,1.76,0,0,0,.33-1.14A1.8,1.8,0,0,0,83,10.22,1.16,1.16,0,0,0,82.08,9.82Z" fill="#00b0f0"/><path d="M87.37,9.92h-1.2v3.45h-.64V9.92H84.32V9.37h3.05Z" fill="#00b0f0"/><path d="M89.61,13.46a1.84,1.84,0,0,1-1.42-.56,2.08,2.08,0,0,1-.53-1.48,2.22,2.22,0,0,1,.55-1.58,2,2,0,0,1,1.49-.56,1.79,1.79,0,0,1,1.4.55,2.18,2.18,0,0,1,.5,1.53,2.17,2.17,0,0,1-.54,1.53A1.91,1.91,0,0,1,89.61,13.46Zm0-3.64a1.21,1.21,0,0,0-1,.42,1.7,1.7,0,0,0-.36,1.15,1.67,1.67,0,0,0,.36,1.13,1.25,1.25,0,0,0,1,.41,1.17,1.17,0,0,0,1-.41,1.76,1.76,0,0,0,.33-1.14,1.8,1.8,0,0,0-.33-1.16A1.16,1.16,0,0,0,89.65,9.82Z" fill="#00b0f0"/><path d="M95.74,13.37h-.9l-1.76-1.92h0v1.92h-.64v-4h.64V11.2h0l1.68-1.83h.84L93.74,11.3Z" fill="#00b0f0"/><path d="M101.51,13.37h-.9l-1.76-1.92h0v1.92h-.64v-4h.64V11.2h0l1.68-1.83h.84L99.51,11.3Z" fill="#00b0f0"/><path d="M103.64,13.46a1.85,1.85,0,0,1-1.42-.56,2.08,2.08,0,0,1-.53-1.48,2.22,2.22,0,0,1,.55-1.58,2,2,0,0,1,1.49-.56,1.79,1.79,0,0,1,1.4.55,2.18,2.18,0,0,1,.5,1.53,2.17,2.17,0,0,1-.54,1.53A1.9,1.9,0,0,1,103.64,13.46Zm0-3.64a1.21,1.21,0,0,0-1,.42,1.7,1.7,0,0,0-.36,1.15,1.67,1.67,0,0,0,.36,1.13,1.27,1.27,0,0,0,1,.41,1.16,1.16,0,0,0,1-.41,1.76,1.76,0,0,0,.34-1.14,1.8,1.8,0,0,0-.34-1.16A1.16,1.16,0,0,0,103.69,9.82Z" fill="#00b0f0"/><path d="M109.94,14.83h-.54V13.37h-3v1.46h-.54v-2h.35a6,6,0,0,0,1-3.46h2.08v3.46h.59Zm-1.23-2V9.91h-.89a6.19,6.19,0,0,1-.91,2.92Z" fill="#00b0f0"/><path d="M113.49,13.37h-.64v-.62h0a1.48,1.48,0,0,1-2.17.4,1.11,1.11,0,0,1-.34-.84c0-.75.44-1.18,1.32-1.31l1.2-.16c0-.68-.27-1-.82-1a2,2,0,0,0-1.31.49V9.65a2.5,2.5,0,0,1,1.36-.37c.94,0,1.41.49,1.41,1.49Zm-.64-2-1,.13a1.59,1.59,0,0,0-.67.22.64.64,0,0,0-.23.56.6.6,0,0,0,.21.48.81.81,0,0,0,.55.19,1,1,0,0,0,.79-.34,1.16,1.16,0,0,0,.31-.84Z" fill="#00b0f0"/><path d="M119.35,13.37h-.64v-.62h0a1.48,1.48,0,0,1-2.17.4,1.11,1.11,0,0,1-.34-.84c0-.75.44-1.18,1.32-1.31l1.2-.16c0-.68-.27-1-.82-1a2,2,0,0,0-1.31.49V9.65a2.5,2.5,0,0,1,1.36-.37c.94,0,1.41.49,1.41,1.49Zm-.64-2-1,.13a1.59,1.59,0,0,0-.67.22.64.64,0,0,0-.23.56.6.6,0,0,0,.21.48.82.82,0,0,0,.56.19,1,1,0,0,0,.78-.34,1.16,1.16,0,0,0,.31-.84Z" fill="#00b0f0"/><path d="M120.36,13.37v-4h1.74a1.54,1.54,0,0,1,.94.26.89.89,0,0,1,.34.72.87.87,0,0,1-.77.94c.61.08.92.39.92.93a1.06,1.06,0,0,1-.38.82,1.36,1.36,0,0,1-.93.33ZM121,9.92V11h1q.78,0,.78-.6c0-.35-.24-.52-.7-.52Zm0,1.67v1.23h1.11q.78,0,.78-.63t-.87-.6Z" fill="#00b0f0"/><path d="M126.91,9.92h-1.2v3.45h-.64V9.92h-1.2V9.37h3Z" fill="#00b0f0"/><path d="M129.15,13.46a1.82,1.82,0,0,1-1.41-.56,2,2,0,0,1-.53-1.48,2.17,2.17,0,0,1,.55-1.58,2,2,0,0,1,1.49-.56,1.77,1.77,0,0,1,1.39.55,2.14,2.14,0,0,1,.51,1.53,2.13,2.13,0,0,1-.55,1.53A1.9,1.9,0,0,1,129.15,13.46Zm0-3.64a1.23,1.23,0,0,0-1,.42,1.7,1.7,0,0,0-.36,1.15,1.67,1.67,0,0,0,.37,1.13,1.23,1.23,0,0,0,1,.41,1.2,1.2,0,0,0,1-.41,1.76,1.76,0,0,0,.33-1.14,1.8,1.8,0,0,0-.33-1.16A1.19,1.19,0,0,0,129.2,9.82Z" fill="#00b0f0"/><path d="M132.63,12.79h0v2.42H132V9.37h.64v.7h0A1.5,1.5,0,0,1,134,9.28a1.46,1.46,0,0,1,1.2.53,2.23,2.23,0,0,1,.44,1.44,2.46,2.46,0,0,1-.49,1.61,1.64,1.64,0,0,1-1.34.6A1.33,1.33,0,0,1,132.63,12.79Zm0-1.61v.56a1.2,1.2,0,0,0,.32.84,1.09,1.09,0,0,0,.82.35,1.06,1.06,0,0,0,.91-.45,2.05,2.05,0,0,0,.33-1.24,1.62,1.62,0,0,0-.31-1.05,1,1,0,0,0-.83-.37,1.17,1.17,0,0,0-.9.38A1.43,1.43,0,0,0,132.61,11.18Z" fill="#00b0f0"/><path d="M139.82,13.37h-.57V10.18l-.27.47-1.84,2.72h-.67v-4h.59v3.15c0-.07.1-.2.2-.38l1.9-2.77h.66Z" fill="#00b0f0"/><path d="M140.58,13.26v-.63a2.54,2.54,0,0,0,1.23.29c.7,0,1.06-.22,1.06-.67s-.39-.66-1.16-.66h-.4V11h.38q1,0,1-.63a.5.5,0,0,0-.24-.43,1.08,1.08,0,0,0-.64-.16,2.66,2.66,0,0,0-1.17.29V9.52a3.45,3.45,0,0,1,1.22-.25c1,0,1.46.36,1.46,1.08a.91.91,0,0,1-.21.6,1.1,1.1,0,0,1-.61.33v0a1.05,1.05,0,0,1,.71.3.9.9,0,0,1,.27.67,1,1,0,0,1-.44.87,2,2,0,0,1-1.21.33A3.07,3.07,0,0,1,140.58,13.26Z" fill="#00b0f0"/><path d="M147.15,13.37h-.64v-.62h0a1.33,1.33,0,0,1-1.23.71,1.31,1.31,0,0,1-.93-.31,1.08,1.08,0,0,1-.34-.84c0-.75.44-1.18,1.32-1.31l1.2-.16c0-.68-.28-1-.82-1a2,2,0,0,0-1.31.49V9.65a2.48,2.48,0,0,1,1.36-.37c.94,0,1.41.49,1.41,1.49Zm-.64-2-1,.13a1.64,1.64,0,0,0-.67.22.64.64,0,0,0-.22.56.6.6,0,0,0,.21.48.8.8,0,0,0,.55.19,1,1,0,0,0,.79-.34,1.16,1.16,0,0,0,.31-.84Z" fill="#00b0f0"/><path d="M152.07,14.83h-.55V13.37h-3.36v-4h.64v3.46h2V9.37h.64v3.46h.59Z" fill="#00b0f0"/><path d="M156.11,13.37h-.58V10.18c-.06.11-.14.27-.26.47l-1.85,2.72h-.66v-4h.58v3.15c0-.07.1-.2.21-.38l1.9-2.77h.66Z" fill="#00b0f0"/><path d="M160.56,13.37H160V10.18l-.26.47-1.85,2.72h-.66v-4h.58v3.15a3.54,3.54,0,0,1,.21-.38l1.89-2.77h.67Z" fill="#00b0f0"/></g><path d="M191.76,17.85h-20.5A1.1,1.1,0,0,0,170.17,19V35.7a1.09,1.09,0,0,0,1.09,1.1h5.28a3.29,3.29,0,0,0,3.21,2.27,3.37,3.37,0,0,0,0-6.74,3.29,3.29,0,0,0-3.21,2.26h-4.19v-12h18.31v12h-3.45A7.61,7.61,0,0,0,179.75,28a8.25,8.25,0,0,0-3.64.92l1,2a5.39,5.39,0,0,1,2.55-.67,5.46,5.46,0,0,1,0,10.92,5.28,5.28,0,0,1-2.55-.68l-1,2a7.4,7.4,0,0,0,3.64.92,7.61,7.61,0,0,0,7.46-6.56h4.55a1.09,1.09,0,0,0,1.09-1.1V19A1.14,1.14,0,0,0,191.76,17.85Z" fill="#008bfd"/><g style="isolation:isolate"><path d="M162.62,53H162V48H159v5h-.66v-5.6h4.25Z" fill="#008bfd"/><path d="M164.44,52.45h0v2.42h-.64V49h.64v.7h0a1.51,1.51,0,0,1,1.38-.8,1.46,1.46,0,0,1,1.21.54,2.23,2.23,0,0,1,.43,1.44,2.47,2.47,0,0,1-.49,1.61,1.62,1.62,0,0,1-1.33.6A1.33,1.33,0,0,1,164.44,52.45Zm0-1.61v.55a1.18,1.18,0,0,0,.33.85,1,1,0,0,0,.81.34,1.11,1.11,0,0,0,.92-.44,2.05,2.05,0,0,0,.33-1.24,1.64,1.64,0,0,0-.31-1,1,1,0,0,0-.84-.38,1.14,1.14,0,0,0-.9.39A1.46,1.46,0,0,0,164.42,50.84Z" fill="#008bfd"/><path d="M171.64,53h-.58V49.84l-.26.47L169,53h-.66V49h.58v3.15c0-.08.1-.2.2-.39L171,49h.67Z" fill="#008bfd"/><path d="M175.65,53H175V49.57h-.93a8.23,8.23,0,0,1-.54,2.73,1.18,1.18,0,0,1-1,.78,1.11,1.11,0,0,1-.34,0v-.55a.73.73,0,0,0,.29.07c.58,0,.95-1.18,1.11-3.52h2.1Z" fill="#008bfd"/><path d="M178.42,53.12a1.89,1.89,0,0,1-1.42-.56,2.08,2.08,0,0,1-.52-1.49A2.15,2.15,0,0,1,177,49.5a2,2,0,0,1,1.48-.57,1.81,1.81,0,0,1,1.4.55,2.17,2.17,0,0,1,.5,1.53,2.13,2.13,0,0,1-.54,1.53A1.87,1.87,0,0,1,178.42,53.12Zm.05-3.65a1.23,1.23,0,0,0-1,.42,1.73,1.73,0,0,0-.36,1.16,1.59,1.59,0,0,0,.37,1.12,1.23,1.23,0,0,0,1,.41,1.16,1.16,0,0,0,.95-.4,2.11,2.11,0,0,0,0-2.3A1.16,1.16,0,0,0,178.47,49.47Z" fill="#008bfd"/><path d="M186.55,53h-.87l-1.79-2h0v2h-.61v-2h0l-1.79,2h-.86l2-2.07L180.72,49h.82l1.71,1.87h0V49h.61V50.9h0L185.6,49h.83L184.56,51Z" fill="#008bfd"/><path d="M190.22,51.19H187.4a1.54,1.54,0,0,0,.35,1,1.26,1.26,0,0,0,.95.36,2,2,0,0,0,1.24-.44v.6a2.34,2.34,0,0,1-1.39.38,1.68,1.68,0,0,1-1.33-.54,2.23,2.23,0,0,1-.49-1.54,2.2,2.2,0,0,1,.53-1.52,1.7,1.7,0,0,1,1.32-.59,1.5,1.5,0,0,1,1.21.51,2.1,2.1,0,0,1,.43,1.41Zm-.66-.55a1.32,1.32,0,0,0-.26-.86.91.91,0,0,0-.74-.31,1,1,0,0,0-.77.33,1.47,1.47,0,0,0-.39.84Z" fill="#008bfd"/><path d="M194.31,53h-.64V51.21h-2V53H191V49h.64v1.64h2V49h.64Z" fill="#008bfd"/><path d="M198.76,53h-.58V49.84l-.26.47L196.07,53h-.66V49H196v3.15c0-.08.1-.2.2-.39l1.9-2.76h.67Z" fill="#008bfd"/><path d="M203.07,51.19h-2.82a1.49,1.49,0,0,0,.35,1,1.26,1.26,0,0,0,1,.36,2,2,0,0,0,1.24-.44v.6a2.34,2.34,0,0,1-1.39.38,1.68,1.68,0,0,1-1.33-.54,2.23,2.23,0,0,1-.49-1.54,2.2,2.2,0,0,1,.53-1.52,1.7,1.7,0,0,1,1.31-.59,1.51,1.51,0,0,1,1.22.51,2.1,2.1,0,0,1,.43,1.41Zm-.66-.55a1.32,1.32,0,0,0-.26-.86.91.91,0,0,0-.74-.31,1,1,0,0,0-.77.33,1.47,1.47,0,0,0-.39.84Z" fill="#008bfd"/><path d="M179.9,62h-.73l-.59-1.57H176.2L175.64,62h-.73l2.15-5.6h.68Zm-1.54-2.16-.88-2.39a1.62,1.62,0,0,1-.08-.37h0a3.37,3.37,0,0,1-.09.37l-.87,2.39Z" fill="#008bfd"/><path d="M181.18,59.91V62h-.66v-5.6h1.54a2,2,0,0,1,1.39.43,1.58,1.58,0,0,1,.5,1.24,1.71,1.71,0,0,1-.55,1.3,2.11,2.11,0,0,1-1.49.51Zm0-2.89v2.3h.68a1.57,1.57,0,0,0,1-.31,1.1,1.1,0,0,0,.36-.88c0-.74-.44-1.11-1.31-1.11Z" fill="#008bfd"/><path d="M185.46,62h-.66v-5.6h.66Z" fill="#008bfd"/></g><path d="M161.7,26.59l8,4-8,4a9,9,0,0,0,0-8" fill="#505050"/><path d="M7.85,22.77a4.5,4.5,0,0,0-3,5.67c.66,2.55,3,4.21,5.27,3.66a4.49,4.49,0,0,0,3-5.66C12.57,23.77,10.16,22.11,7.85,22.77Z" fill="#008bfd"/><path d="M12.79,32.79c-.44,0-.88.77-1.54,1.11s-1.32.88-3.18,0S6,32.23,4.44,32.23.38,35,.38,39.11H16a12.05,12.05,0,0,0-1.1-4.21C13.77,32.79,13.23,32.79,12.79,32.79Z" fill="#008bfd"/><path d="M14.19,27.84H10.07a.71.71,0,0,0-.65.66v2.85a.73.73,0,0,0,.76.66h.76v5.15a1,1,0,0,0,1,1.09,1,1,0,0,0,1-1h.21v-.66c0-.22.33-.33.33-.33V36c-.33-.11-.54-.33-.54-.44v-.32L13.1,35a3.53,3.53,0,0,0,.33-.55,2.4,2.4,0,0,1-.33-.55c-.1-.11-.1-.33-.21-.44v-.22a2.52,2.52,0,0,1,.76-1.09h.54a.71.71,0,0,0,.65-.66v-3A.63.63,0,0,0,14.19,27.84ZM11.8,37.38c0,.22,0,.33-.21.33s-.22-.22-.22-.33V32.56c0-.22.11-.33.22-.33s.21.22.21.33Zm.33-7.78a.66.66,0,0,1,0-1.32.71.71,0,0,1,.65.66A.63.63,0,0,1,12.13,29.6Z" fill="#008bfd" stroke="gray" stroke-linecap="round" stroke-linejoin="round" stroke-width="0.75"/><path d="M11.57,37.68a.24.24,0,0,1-.22-.22v-5a.22.22,0,1,1,.44,0v5.1C11.79,37.68,11.68,37.68,11.57,37.68Z" fill="#fff"/><ellipse cx="12.14" cy="28.92" rx="0.66" ry="0.67" fill="#fff"/><line x1="162.7" y1="30.61" x2="72.52" y2="30.61" fill="none" stroke="#505050" stroke-miterlimit="10"/></svg>