<svg xmlns="http://www.w3.org/2000/svg" xmlns:xlink="http://www.w3.org/1999/xlink" viewBox="0 0 475.66 150.2"><defs><style>.cls-1{fill:#505050;}.cls-12,.cls-2{fill:#fff;}.cls-3,.cls-9{fill:#ebebeb;}.cls-13,.cls-4{fill:#0072c6;}.cls-5{fill:#d2d2d2;}.cls-6{fill:none;}.cls-10,.cls-6,.cls-9{stroke:#000;}.cls-10,.cls-11,.cls-12,.cls-13,.cls-6,.cls-9{stroke-miterlimit:10;}.cls-7{fill:#1a1a1f;}.cls-8{fill:#0078d4;}.cls-9{stroke-width:0.75px;}.cls-10,.cls-12,.cls-13{stroke-width:0.05px;}.cls-11{fill:#1e1e1e;stroke:#1e1e1e;stroke-width:0.06px;}.cls-12{stroke:#fff;}.cls-13{stroke:#0072c6;}</style><symbol id="New_Symbol_44" data-name="New Symbol 44" viewBox="0 0 20 20"><circle class="cls-1" cx="10" cy="10" r="10"/><path class="cls-2" d="M12,14V8.58h1.25V7.45H12V5.6H10.65V7.42H6.85V8.56q.51.58,1.05,1.26a12.66,12.66,0,0,1,1,1.38c.29.47.64.94.93,1.41A13,13,0,0,1,10.55,14ZM10.65,8.58v3.5a19.76,19.76,0,0,0-1.26-2C9,9.51,8.58,9,8.22,8.56Z"/></symbol><symbol id="New_Symbol_43" data-name="New Symbol 43" viewBox="0 0 20 20"><circle class="cls-1" cx="10" cy="10" r="10"/><path class="cls-2" d="M7.39,5.88V7.16a3,3,0,0,1,1.85-.65,2.19,2.19,0,0,1,1.34.38,1.23,1.23,0,0,1,.5,1c0,1-.73,1.43-2.18,1.43H8.24v1.12h.63c1.29,0,1.94.45,1.94,1.35S10.3,13,9.29,13a2.48,2.48,0,0,1-1.58-.6v1.23a4.08,4.08,0,0,0,2,.48,2.64,2.64,0,0,0,1.79-.56,1.76,1.76,0,0,0,.67-1.44A2,2,0,0,0,10.5,10h0a2.19,2.19,0,0,0,1.43-.63A1.89,1.89,0,0,0,12.5,8a2.22,2.22,0,0,0-.85-1.82,3.4,3.4,0,0,0-2.24-.7A3.84,3.84,0,0,0,7.39,5.88Z"/></symbol><symbol id="New_Symbol_42" data-name="New Symbol 42" viewBox="0 0 20 20"><circle class="cls-1" cx="10" cy="10" r="10"/><path class="cls-2" d="M12.5,5.57H7.24v.65A2.58,2.58,0,0,0,7.35,7a3.93,3.93,0,0,0,.3.66,4.92,4.92,0,0,0,.44.58c.17.18.35.35.54.52l.59.5c.2.15.39.31.58.47s.35.3.5.45a4.11,4.11,0,0,1,.38.45,2.55,2.55,0,0,1,.24.5,1.84,1.84,0,0,1,.09.57,1.42,1.42,0,0,1-.1.58,1.33,1.33,0,0,1-.29.41,1.17,1.17,0,0,1-.44.26,2.05,2.05,0,0,1-.55.05,2.73,2.73,0,0,1-1.05-.24,3.75,3.75,0,0,1-1-.72v1.31a2.85,2.85,0,0,0,.52.33,2.7,2.7,0,0,0,.55.24,3,3,0,0,0,.59.15,3.64,3.64,0,0,0,.66,0,3.77,3.77,0,0,0,1-.14,2.2,2.2,0,0,0,.79-.44,2,2,0,0,0,.51-.73,2.46,2.46,0,0,0,.18-1,2.88,2.88,0,0,0-.13-.92,2.65,2.65,0,0,0-.36-.76,4,4,0,0,0-.56-.67c-.21-.21-.46-.43-.73-.65l-.67-.53c-.23-.18-.43-.35-.61-.51a3.5,3.5,0,0,1-.44-.5.9.9,0,0,1-.16-.5H12.5Z"/></symbol><symbol id="New_Symbol_41" data-name="New Symbol 41" viewBox="0 0 20 20"><circle class="cls-1" cx="10" cy="10" r="10"/><path class="cls-2" d="M11.19,14.16V5.57H9.83V12.5A4.06,4.06,0,0,0,9,12a9,9,0,0,0-1-.33v1.21l.65.24.63.27.62.34c.21.13.42.27.64.43Z"/></symbol></defs><title>OJ104329356</title><g id="bg"><g id="Shapes"><rect class="cls-2" width="475.66" height="150.2"/><rect class="cls-3" y="0.2" width="105" height="150"/><rect class="cls-4" x="371" y="0.2" width="104.66" height="90"/><rect class="cls-5" x="371" y="95.2" width="104.66" height="55"/><line class="cls-6" x1="105" y1="15.2" x2="365.57" y2="15.2"/><polygon points="364.48 18.94 370.95 15.2 364.48 11.46 364.48 18.94"/><line class="cls-6" x1="110.38" y1="45.08" x2="370.95" y2="45.08"/><polygon points="111.48 48.82 105 45.08 111.48 41.34 111.48 48.82"/><line class="cls-6" x1="105" y1="105.36" x2="365.57" y2="105.36"/><polygon points="364.48 109.1 370.95 105.36 364.48 101.62 364.48 109.1"/><line class="cls-6" x1="110.43" y1="140.67" x2="371" y2="140.67"/><polygon points="111.52 144.41 105.05 140.67 111.52 136.93 111.52 144.41"/><use width="20" height="20" transform="matrix(1, 0, 0, -1, 158.88, 150.2)" xlink:href="#New_Symbol_44"/><use width="20" height="20" transform="matrix(1, 0, 0, -1, 158.88, 115.36)" xlink:href="#New_Symbol_43"/><use width="20" height="20" transform="matrix(1, 0, 0, -1, 158.88, 55.08)" xlink:href="#New_Symbol_42"/><use width="20" height="20" transform="matrix(1, 0, 0, -1, 158.88, 25.2)" xlink:href="#New_Symbol_41"/><path class="cls-7" d="M20.53,28.67A1.52,1.52,0,0,1,22,27.14h62.9a1.52,1.52,0,0,1,1.53,1.51V65.87A1.52,1.52,0,0,1,85,67.4H22.06a1.52,1.52,0,0,1-1.53-1.51V28.67Zm-3.48-1.78V67.58a3.29,3.29,0,0,0,3.29,3.29H86.66A3.29,3.29,0,0,0,90,67.63V26.89a3.29,3.29,0,0,0-3.28-3.3H20.34a3.29,3.29,0,0,0-3.29,3.29Z" transform="translate(-1)"/><path class="cls-7" d="M14.37,74.37H92.63a.87.87,0,0,1,.87.87h0v2.57a.87.87,0,0,1-.87.87H14.37a.87.87,0,0,1-.87-.87h0V75.25a.87.87,0,0,1,.86-.88Z" transform="translate(-1)"/><path class="cls-2" d="M44.57,75.91H62.43a.25.25,0,0,1,.25.25v.74a.26.26,0,0,1-.25.26H44.57a.26.26,0,0,1-.25-.26v-.74A.25.25,0,0,1,44.57,75.91Z" transform="translate(-1)"/><path class="cls-8" d="M38,36.29l12.67-1.72V46.75L38,46.83ZM50.66,48.16V60.35L38,58.61V48.08ZM52.2,34.35,69,31.9V46.6l-16.8.13ZM69,48.27V62.9L52.2,60.54V48.24Z" transform="translate(-1)"/><polygon class="cls-9" points="192.55 26.2 184.99 31.64 187.88 40.45 197.22 40.45 200.11 31.64 192.55 26.2"/></g><g id="Text"><polygon class="cls-9" points="192.55 86.46 184.99 91.9 187.88 100.71 197.22 100.71 200.11 91.9 192.55 86.46"/></g></g><g id="txt"><path class="cls-10" d="M21.05,99H18.66l-2.45-3.65a2.87,2.87,0,0,1-.22-.46h0V99H14.07v-8.4H16v4h0c0-.11.12-.26.23-.47l2.32-3.5H20.8l-2.93,4Z" transform="translate(-1)"/><path class="cls-10" d="M27.81,99H25.94V94.3h-1A9.69,9.69,0,0,1,24,98a2,2,0,0,1-1.8,1,2.36,2.36,0,0,1-.72-.11V97.69a1.08,1.08,0,0,0,.44.09c.36,0,.67-.34.91-1A19.44,19.44,0,0,0,23.45,93h4.36Z" transform="translate(-1)"/><path class="cls-10" d="M34.36,99H32.61v-.86h0a2,2,0,0,1-1.79,1,1.86,1.86,0,0,1-1.37-.5,1.79,1.79,0,0,1-.5-1.32q0-1.74,2.07-2l1.63-.22c0-.66-.36-1-1.07-1a3.64,3.64,0,0,0-2,.64v-1.4A4.67,4.67,0,0,1,30.57,93a5.63,5.63,0,0,1,1.22-.15,2.27,2.27,0,0,1,2.57,2.56Zm-1.74-2.43v-.41l-1.09.14c-.6.08-.9.35-.9.82a.7.7,0,0,0,.21.52.89.89,0,0,0,.6.2,1.1,1.1,0,0,0,.85-.36A1.31,1.31,0,0,0,32.62,96.56Z" transform="translate(-1)"/><path class="cls-10" d="M40.37,98.78a3.69,3.69,0,0,1-1.81.36,3.06,3.06,0,0,1-2.24-.84,2.9,2.9,0,0,1-.86-2.16,3.19,3.19,0,0,1,.92-2.41,3.38,3.38,0,0,1,2.45-.88,3.14,3.14,0,0,1,1.54.28V94.7a2.13,2.13,0,0,0-1.3-.44,1.71,1.71,0,0,0-1.26.47A1.74,1.74,0,0,0,37.35,96a1.71,1.71,0,0,0,.44,1.25,1.66,1.66,0,0,0,1.23.45,2.42,2.42,0,0,0,1.35-.43Z" transform="translate(-1)"/><path class="cls-10" d="M46.13,98.78a3.69,3.69,0,0,1-1.81.36,3.06,3.06,0,0,1-2.24-.84,2.9,2.9,0,0,1-.86-2.16,3.19,3.19,0,0,1,.92-2.41,3.38,3.38,0,0,1,2.45-.88,3.14,3.14,0,0,1,1.54.28V94.7a2.13,2.13,0,0,0-1.3-.44,1.71,1.71,0,0,0-1.26.47A1.74,1.74,0,0,0,43.11,96a1.71,1.71,0,0,0,.44,1.25,1.66,1.66,0,0,0,1.23.45,2.42,2.42,0,0,0,1.35-.43Z" transform="translate(-1)"/><path class="cls-10" d="M53.31,99H51.63V95.07a7.61,7.61,0,0,1-.5.85l-2,3.07H47.34V93H49V96.8a5.24,5.24,0,0,1,.41-.74l2-3.07h1.83Z" transform="translate(-1)"/><path class="cls-10" d="M60.51,99H58.66V96.92a3.74,3.74,0,0,1-1.82.53,1.82,1.82,0,0,1-2-2.07V93h1.78v2.1c0,.62.27.93.82.93a2.7,2.7,0,0,0,1.26-.36V93h1.85Z" transform="translate(-1)"/><path class="cls-10" d="M67.47,96.52H63.55c.07.87.62,1.31,1.65,1.31a3.24,3.24,0,0,0,1.74-.47v1.33a4.5,4.5,0,0,1-2.16.45,2.79,2.79,0,0,1-3.06-3,3.2,3.2,0,0,1,.87-2.37,2.9,2.9,0,0,1,2.13-.87,2.62,2.62,0,0,1,2,.78,3,3,0,0,1,.72,2.11Zm-1.72-1.14c0-.86-.35-1.29-1-1.29a1,1,0,0,0-.77.37,1.72,1.72,0,0,0-.4.92Z" transform="translate(-1)"/><path class="cls-10" d="M73.12,98.78a3.69,3.69,0,0,1-1.81.36,3,3,0,0,1-2.24-.84,2.9,2.9,0,0,1-.86-2.16,3.19,3.19,0,0,1,.92-2.41,3.38,3.38,0,0,1,2.45-.88,3.14,3.14,0,0,1,1.54.28V94.7a2.13,2.13,0,0,0-1.3-.44,1.71,1.71,0,0,0-1.26.47A1.75,1.75,0,0,0,70.09,96a1.71,1.71,0,0,0,.45,1.25,1.64,1.64,0,0,0,1.22.45,2.45,2.45,0,0,0,1.36-.43Z" transform="translate(-1)"/><path class="cls-10" d="M80.32,99H78.1l-1.89-2.93h0V99H74.33V93h1.85v2.82h0L78.05,93h2.2L78,95.85Z" transform="translate(-1)"/><path class="cls-10" d="M83.71,99.14a3.23,3.23,0,0,1-2.36-.84A3,3,0,0,1,80.49,96a3.05,3.05,0,0,1,.89-2.33,3.37,3.37,0,0,1,2.41-.84,3.19,3.19,0,0,1,2.34.84A3,3,0,0,1,87,95.91a3.15,3.15,0,0,1-.88,2.36A3.23,3.23,0,0,1,83.71,99.14Zm0-4.88a1.24,1.24,0,0,0-1,.46A2,2,0,0,0,82.37,96c0,1.16.46,1.73,1.39,1.73s1.33-.59,1.33-1.77S84.65,94.26,83.75,94.26Z" transform="translate(-1)"/><path class="cls-10" d="M93.57,96.52H89.66c.06.87.61,1.31,1.64,1.31A3.24,3.24,0,0,0,93,97.36v1.33a4.5,4.5,0,0,1-2.16.45,2.81,2.81,0,0,1-3.06-3,3.2,3.2,0,0,1,.87-2.37,2.9,2.9,0,0,1,2.13-.87,2.6,2.6,0,0,1,2,.78,3,3,0,0,1,.72,2.11Zm-1.71-1.14q0-1.29-1-1.29a1,1,0,0,0-.77.37,1.71,1.71,0,0,0-.39.92Z" transform="translate(-1)"/><path class="cls-10" d="M22.8,113.39H20.94V108.7H18.87v4.69H17v-6H22.8Z" transform="translate(-1)"/><path class="cls-10" d="M26.23,112.7h0v3.45H24.36v-8.76h1.85v.91h0a2.18,2.18,0,0,1,1.93-1,2.14,2.14,0,0,1,1.8.8,3.36,3.36,0,0,1,.64,2.17,3.71,3.71,0,0,1-.74,2.41,2.41,2.41,0,0,1-2,.91A1.88,1.88,0,0,1,26.23,112.7Zm-.05-2.46v.48a1.52,1.52,0,0,0,.33,1,1.06,1.06,0,0,0,.86.39,1.12,1.12,0,0,0,1-.49,2.36,2.36,0,0,0,.35-1.38c0-1.06-.41-1.58-1.23-1.58a1.15,1.15,0,0,0-.93.43A1.69,1.69,0,0,0,26.18,110.24Z" transform="translate(-1)"/><path class="cls-10" d="M37.76,113.39H36.08v-3.92a6.3,6.3,0,0,1-.49.85l-2,3.07H31.8v-6h1.69v3.81a6.47,6.47,0,0,1,.41-.74l2-3.07h1.82Z" transform="translate(-1)"/><path class="cls-10" d="M45,113.39H43.14V108.7h-1a9.69,9.69,0,0,1-1,3.74,2,2,0,0,1-1.8,1,2.36,2.36,0,0,1-.72-.11v-1.26a1.08,1.08,0,0,0,.44.09c.36,0,.67-.34.91-1a19.75,19.75,0,0,0,.66-3.77H45Z" transform="translate(-1)"/><path class="cls-10" d="M49.42,113.54a3.2,3.2,0,0,1-2.35-.84,3.47,3.47,0,0,1,0-4.61,3.37,3.37,0,0,1,2.41-.84,3.19,3.19,0,0,1,2.34.84,3,3,0,0,1,.85,2.22,3.15,3.15,0,0,1-.88,2.36A3.24,3.24,0,0,1,49.42,113.54Zm0-4.87a1.23,1.23,0,0,0-1,.45,2,2,0,0,0-.36,1.27c0,1.16.46,1.73,1.39,1.73s1.33-.59,1.33-1.77S50.37,108.67,49.47,108.67Z" transform="translate(-1)"/><path class="cls-10" d="M63.07,113.39H60.89l-1.94-3h0v3H57.11v-3h0l-1.92,3H53l2.27-3.14L53,107.39h2.18l1.87,2.85h0v-2.85h1.82v2.85h0l1.88-2.85H63l-2.23,2.86Z" transform="translate(-1)"/><path class="cls-10" d="M69.08,110.92H65.16c.07.87.61,1.31,1.65,1.31a3.24,3.24,0,0,0,1.74-.47v1.33a4.53,4.53,0,0,1-2.16.45,2.79,2.79,0,0,1-3.06-3.05,3.2,3.2,0,0,1,.87-2.37,2.88,2.88,0,0,1,2.13-.87,2.63,2.63,0,0,1,2,.78,3,3,0,0,1,.72,2.11Zm-1.72-1.14c0-.86-.35-1.28-1-1.28a1,1,0,0,0-.77.36,1.72,1.72,0,0,0-.4.92Z" transform="translate(-1)"/><path class="cls-10" d="M76,113.39H74.1v-2.5H72v2.5H70.18v-6H72v2.22H74.1v-2.22H76Z" transform="translate(-1)"/><path class="cls-10" d="M83.49,113.39H81.8v-3.92a6.3,6.3,0,0,1-.49.85l-2,3.07H77.52v-6h1.69v3.81c.13-.27.27-.51.41-.74l2-3.07h1.83Z" transform="translate(-1)"/><path class="cls-10" d="M90.44,110.92H86.53c.06.87.61,1.31,1.64,1.31a3.24,3.24,0,0,0,1.74-.47v1.33a4.5,4.5,0,0,1-2.16.45,2.81,2.81,0,0,1-3.06-3.05,3.2,3.2,0,0,1,.87-2.37,2.9,2.9,0,0,1,2.13-.87,2.62,2.62,0,0,1,2,.78,3,3,0,0,1,.72,2.11Zm-1.72-1.14c0-.86-.34-1.28-1-1.28a1,1,0,0,0-.77.36,1.72,1.72,0,0,0-.4.92Z" transform="translate(-1)"/><path class="cls-10" d="M39.28,119.39l-2.22,8.4H35l-1.39-5.39a5,5,0,0,1-.14-.94h0a4.86,4.86,0,0,1-.15.94l-1.43,5.39H29.64l-2.21-8.4H29.5l1.19,5.6a7.57,7.57,0,0,1,.11,1h0a5.71,5.71,0,0,1,.17-1l1.53-5.57h2L35.93,125a7.13,7.13,0,0,1,.14.91h0a6,6,0,0,1,.12-.94l1.16-5.61Z" transform="translate(-1)"/><path class="cls-10" d="M41.1,120.84a1.09,1.09,0,0,1-.76-.27.92.92,0,0,1-.3-.69.88.88,0,0,1,.3-.68,1.13,1.13,0,0,1,.76-.26,1.17,1.17,0,0,1,.78.26,1,1,0,0,1,0,1.37A1.12,1.12,0,0,1,41.1,120.84Zm.92,7H40.17v-6H42Z" transform="translate(-1)"/><path class="cls-10" d="M49.37,127.79H47.53v-3.33c0-.93-.34-1.4-1-1.4a1,1,0,0,0-.79.37,1.4,1.4,0,0,0-.31.94v3.42H43.58v-6h1.85v.95h0a2.12,2.12,0,0,1,1.93-1.09c1.33,0,2,.82,2,2.47Z" transform="translate(-1)"/><path class="cls-10" d="M56.71,127.79H54.86V127h0a2.06,2.06,0,0,1-1.85,1,2.29,2.29,0,0,1-1.81-.79,3.28,3.28,0,0,1-.69-2.22,3.57,3.57,0,0,1,.76-2.39,2.47,2.47,0,0,1,2-.89,1.66,1.66,0,0,1,1.61.83h0v-3.57h1.85Zm-1.82-2.91v-.46a1.4,1.4,0,0,0-.34-1,1.1,1.1,0,0,0-.88-.39,1.12,1.12,0,0,0-1,.49,2.24,2.24,0,0,0-.35,1.33,1.94,1.94,0,0,0,.33,1.21,1.19,1.19,0,0,0,1.85,0A1.91,1.91,0,0,0,54.89,124.88Z" transform="translate(-1)"/><path class="cls-10" d="M61.13,127.94a3.23,3.23,0,0,1-2.36-.84,3.47,3.47,0,0,1,0-4.61,3.37,3.37,0,0,1,2.41-.84,3.18,3.18,0,0,1,2.34.84,3,3,0,0,1,.85,2.22,3.18,3.18,0,0,1-.87,2.36A3.27,3.27,0,0,1,61.13,127.94Zm0-4.88a1.24,1.24,0,0,0-1,.46,2,2,0,0,0-.36,1.27c0,1.16.46,1.73,1.39,1.73s1.33-.59,1.33-1.77S62.07,123.06,61.17,123.06Z" transform="translate(-1)"/><path class="cls-10" d="M74.29,121.79l-1.73,6H70.62l-.89-3.51a3.68,3.68,0,0,1-.1-.77h0a5,5,0,0,1-.12.74l-1,3.54H66.61l-1.69-6H66.8l.83,3.92a4.75,4.75,0,0,1,.09.67h0a3.82,3.82,0,0,1,.11-.7l1-3.89h1.76l.93,3.92a6.6,6.6,0,0,1,.08.68h0a5.06,5.06,0,0,1,.1-.68l.78-3.92Z" transform="translate(-1)"/><path class="cls-10" d="M74.78,127.63v-1.5a3.33,3.33,0,0,0,.91.41,3,3,0,0,0,.86.14,1.79,1.79,0,0,0,.77-.14.43.43,0,0,0,.29-.41.37.37,0,0,0-.13-.29,1.32,1.32,0,0,0-.33-.2l-.44-.16-.47-.16a4.68,4.68,0,0,1-.63-.29,1.62,1.62,0,0,1-.45-.36,1.25,1.25,0,0,1-.28-.47,1.79,1.79,0,0,1-.1-.64,1.61,1.61,0,0,1,.22-.87,1.84,1.84,0,0,1,.58-.6,3.15,3.15,0,0,1,.84-.34,4.53,4.53,0,0,1,1-.1,5.52,5.52,0,0,1,.81.06,5.58,5.58,0,0,1,.81.18v1.43a2.76,2.76,0,0,0-.75-.31,3.11,3.11,0,0,0-.79-.1,1.79,1.79,0,0,0-.34,0,1.1,1.1,0,0,0-.29.09.6.6,0,0,0-.19.16.34.34,0,0,0-.07.22.4.4,0,0,0,.1.28.84.84,0,0,0,.28.2,2.72,2.72,0,0,0,.38.16l.41.13a6.16,6.16,0,0,1,.67.28,2.55,2.55,0,0,1,.51.36,1.58,1.58,0,0,1,.33.48,1.69,1.69,0,0,1,.11.66,1.67,1.67,0,0,1-.23.91,1.9,1.9,0,0,1-.61.62,3,3,0,0,1-.89.34,5,5,0,0,1-1,.11A5.17,5.17,0,0,1,74.78,127.63Z" transform="translate(-1)"/><path class="cls-11" d="M213.42,86.29h-1V82.46h-4.35v3.83h-1v-8.4h1v3.69h4.35V77.89h1Z" transform="translate(-1)"/><path class="cls-11" d="M220.52,78.78H218.1v7.51h-1V78.78h-2.42v-.89h5.83Z" transform="translate(-1)"/><path class="cls-11" d="M227,78.78h-2.42v7.51h-1V78.78h-2.42v-.89H227Z" transform="translate(-1)"/><path class="cls-11" d="M229.2,83.12v3.17h-1v-8.4h2.31a3,3,0,0,1,2.09.66,2.34,2.34,0,0,1,.74,1.85,2.55,2.55,0,0,1-.83,2,3.18,3.18,0,0,1-2.22.76Zm0-4.34v3.45h1a2.33,2.33,0,0,0,1.56-.47,1.64,1.64,0,0,0,.54-1.31c0-1.11-.66-1.67-2-1.67Z" transform="translate(-1)"/><path class="cls-11" d="M244.36,85.72a5.56,5.56,0,0,1-2.81.71,3.82,3.82,0,0,1-2.91-1.16,4.24,4.24,0,0,1-1.11-3.07,4.37,4.37,0,0,1,1.23-3.2,4.24,4.24,0,0,1,3.13-1.25,5.27,5.27,0,0,1,2.3.45v1.09a4.41,4.41,0,0,0-2.41-.65,3,3,0,0,0-2.32,1,4.07,4.07,0,0,0-.06,5,2.93,2.93,0,0,0,2.27.91,3.54,3.54,0,0,0,1.71-.39V82.8h-1.84v-.89h2.82Z" transform="translate(-1)"/><path class="cls-11" d="M250.7,86.29h-4.46v-8.4h4.27v.89h-3.28v2.8h3v.88h-3V85.4h3.47Z" transform="translate(-1)"/><path class="cls-11" d="M257.21,78.78h-2.43v7.51h-1V78.78h-2.42v-.89h5.83Z" transform="translate(-1)"/><path class="cls-11" d="M267.44,83.19h-2.37v2.36h-.78V83.19h-2.36V82.4h2.36V80h.78V82.4h2.37Z" transform="translate(-1)"/><path class="cls-11" d="M213.46,100.49h-1V95.55c-.09.25-.22.62-.4,1.1l-1.5,3.84h-.86l-1.55-3.84-.4-1.1v4.94H207v-6h1.22l1.58,3.92c.12.28.26.68.44,1.18l.43-1.16,1.53-3.94h1.28Z" transform="translate(-1)"/><path class="cls-11" d="M219.63,100.49h-1v-.93h0a2,2,0,0,1-1.84,1.07,2,2,0,0,1-1.41-.47,1.64,1.64,0,0,1-.5-1.26c0-1.12.66-1.77,2-2l1.8-.25c0-1-.42-1.53-1.24-1.53a3,3,0,0,0-2,.74v-1a3.68,3.68,0,0,1,2-.57c1.41,0,2.12.75,2.12,2.24Zm-1-3-1.45.2a2.3,2.3,0,0,0-1,.33,1,1,0,0,0-.34.84.92.92,0,0,0,.31.72,1.25,1.25,0,0,0,.84.28,1.52,1.52,0,0,0,1.18-.51,1.77,1.77,0,0,0,.47-1.26Z" transform="translate(-1)"/><path class="cls-11" d="M222.35,99.63h0v3.62h-1V94.49h1v1.06h0a2.26,2.26,0,0,1,2.07-1.2,2.18,2.18,0,0,1,1.81.81,3.31,3.31,0,0,1,.65,2.16,3.71,3.71,0,0,1-.73,2.41,2.44,2.44,0,0,1-2,.9A2,2,0,0,1,222.35,99.63Zm0-2.42V98a1.81,1.81,0,0,0,.48,1.27,1.72,1.72,0,0,0,2.59-.15,3.09,3.09,0,0,0,.5-1.86,2.41,2.41,0,0,0-.46-1.57,1.54,1.54,0,0,0-1.26-.57,1.73,1.73,0,0,0-1.35.58A2.2,2.2,0,0,0,222.33,97.21Z" transform="translate(-1)"/><path class="cls-11" d="M233.33,100.49H232l-2.65-2.88h0v2.88h-1v-6h1v2.75h0l2.52-2.75h1.26l-2.78,2.9Z" transform="translate(-1)"/><path class="cls-11" d="M239.06,97.73h-4.23a2.23,2.23,0,0,0,.53,1.55,1.89,1.89,0,0,0,1.42.55,3,3,0,0,0,1.87-.67v.9a3.53,3.53,0,0,1-2.1.57,2.53,2.53,0,0,1-2-.81,3.34,3.34,0,0,1-.73-2.3,3.29,3.29,0,0,1,.79-2.29,2.58,2.58,0,0,1,2-.88,2.28,2.28,0,0,1,1.82.76,3.19,3.19,0,0,1,.64,2.12Zm-1-.81a2,2,0,0,0-.4-1.3,1.4,1.4,0,0,0-1.1-.46,1.54,1.54,0,0,0-1.16.49,2.21,2.21,0,0,0-.58,1.27Z" transform="translate(-1)"/><path class="cls-11" d="M241.43,99.63h0v3.62h-1V94.49h1v1.06h0a2.26,2.26,0,0,1,2.07-1.2,2.18,2.18,0,0,1,1.81.81,3.31,3.31,0,0,1,.65,2.16,3.71,3.71,0,0,1-.73,2.41,2.45,2.45,0,0,1-2,.9A2,2,0,0,1,241.43,99.63Zm0-2.42V98a1.82,1.82,0,0,0,.49,1.27,1.72,1.72,0,0,0,2.59-.15,3.09,3.09,0,0,0,.5-1.86,2.47,2.47,0,0,0-.46-1.57,1.54,1.54,0,0,0-1.26-.57,1.73,1.73,0,0,0-1.35.58A2.16,2.16,0,0,0,241.4,97.21Z" transform="translate(-1)"/><path class="cls-11" d="M255.87,102.68h-.81v-2.19h-4.47v2.19h-.82v-3h.54a9.09,9.09,0,0,0,1.56-5.19H255v5.19h.89Zm-1.85-3V95.31h-1.33a9.32,9.32,0,0,1-1.36,4.37Z" transform="translate(-1)"/><path class="cls-11" d="M259.64,100.63a2.79,2.79,0,0,1-2.13-.84,3.15,3.15,0,0,1-.79-2.23,3.26,3.26,0,0,1,.83-2.36,3,3,0,0,1,2.23-.85,2.69,2.69,0,0,1,2.09.83,3.75,3.75,0,0,1-.05,4.59A2.85,2.85,0,0,1,259.64,100.63Zm.07-5.47a1.84,1.84,0,0,0-1.47.63,2.59,2.59,0,0,0-.53,1.74,2.46,2.46,0,0,0,.54,1.68,1.85,1.85,0,0,0,1.46.62,1.76,1.76,0,0,0,1.43-.61,2.58,2.58,0,0,0,.5-1.72,2.62,2.62,0,0,0-.5-1.73A1.73,1.73,0,0,0,259.71,95.16Z" transform="translate(-1)"/><path class="cls-11" d="M268.18,100.22a3.1,3.1,0,0,1-1.64.41,2.68,2.68,0,0,1-2.07-.83,3,3,0,0,1-.79-2.17,3.32,3.32,0,0,1,.85-2.38,3,3,0,0,1,2.27-.9,3.06,3.06,0,0,1,1.39.3v1a2.45,2.45,0,0,0-1.43-.47,2,2,0,0,0-1.51.66,2.51,2.51,0,0,0-.58,1.73,2.4,2.4,0,0,0,.55,1.67,1.92,1.92,0,0,0,1.48.61,2.4,2.4,0,0,0,1.48-.53Z" transform="translate(-1)"/><path class="cls-11" d="M273.33,95.31h-1.8v5.18h-1V95.31h-1.81v-.82h4.57Z" transform="translate(-1)"/><path class="cls-11" d="M279.19,94.49l-2.76,7c-.5,1.25-1.19,1.87-2.08,1.87a2.12,2.12,0,0,1-.62-.08v-.86a1.73,1.73,0,0,0,.56.11,1.17,1.17,0,0,0,1.09-.87l.48-1.14-2.34-6h1.07l1.62,4.62c0,.06.06.21.12.46h0c0-.1.06-.24.12-.45l1.7-4.63Z" transform="translate(-1)"/><path class="cls-11" d="M285.13,100.49h-1V95.31h-3.06v5.18h-1v-6h5Z" transform="translate(-1)"/><path class="cls-11" d="M291.29,100.49h-1v-.93h0a2,2,0,0,1-1.85,1.07,2,2,0,0,1-1.4-.47,1.65,1.65,0,0,1-.51-1.26c0-1.12.66-1.77,2-2l1.79-.25q0-1.53-1.23-1.53a3,3,0,0,0-2,.74v-1a3.68,3.68,0,0,1,2-.57c1.41,0,2.11.75,2.11,2.24Zm-1-3-1.44.2a2.3,2.3,0,0,0-1,.33,1,1,0,0,0-.34.84.92.92,0,0,0,.31.72,1.25,1.25,0,0,0,.84.28,1.54,1.54,0,0,0,1.18-.51,1.76,1.76,0,0,0,.46-1.26Z" transform="translate(-1)"/><path class="cls-12" d="M398,33.21h-1.89V26.46h-3.48v6.75h-1.89v-8.4H398Z" transform="translate(-1)"/><path class="cls-12" d="M405.42,33.21h-1.87V28.52h-1a9.69,9.69,0,0,1-1,3.74,2,2,0,0,1-1.8,1,2.36,2.36,0,0,1-.72-.11V31.91a1.08,1.08,0,0,0,.44.09c.36,0,.67-.34.91-1a19.44,19.44,0,0,0,.66-3.76h4.36Z" transform="translate(-1)"/><path class="cls-12" d="M412,33.21h-1.76v-.86h0a2,2,0,0,1-1.79,1,1.86,1.86,0,0,1-1.37-.5,1.79,1.79,0,0,1-.5-1.32q0-1.74,2.07-2l1.63-.22c0-.66-.36-1-1.07-1a3.7,3.7,0,0,0-2,.63V27.57a4.67,4.67,0,0,1,1.06-.35,5.63,5.63,0,0,1,1.22-.15A2.27,2.27,0,0,1,412,29.63Zm-1.74-2.43v-.41l-1.09.14c-.6.08-.91.35-.91.82a.67.67,0,0,0,.22.51.84.84,0,0,0,.6.21,1.1,1.1,0,0,0,.85-.36A1.31,1.31,0,0,0,410.23,30.78Z" transform="translate(-1)"/><path class="cls-12" d="M417.92,28.62h-1.61v4.59h-1.86V28.62h-1.62V27.21h5.09Z" transform="translate(-1)"/><path class="cls-12" d="M423.5,33.28V36h-1.72V33.28h-.29a3.12,3.12,0,0,1-2.31-.83,3,3,0,0,1-.84-2.21,3,3,0,0,1,.84-2.26,3.13,3.13,0,0,1,2.32-.84h.28V24.62h1.72v2.52h.27a3.23,3.23,0,0,1,2.34.83,3.06,3.06,0,0,1,.84,2.27,3,3,0,0,1-.84,2.21,3.16,3.16,0,0,1-2.32.83ZM421.78,32V28.45h-.1a1.32,1.32,0,0,0-1.07.47,2,2,0,0,0-.39,1.32,1.9,1.9,0,0,0,.39,1.26,1.35,1.35,0,0,0,1.1.48Zm1.72-3.53V32h.08a1.33,1.33,0,0,0,1.09-.48,1.85,1.85,0,0,0,.4-1.26,2,2,0,0,0-.39-1.32,1.34,1.34,0,0,0-1.08-.47Z" transform="translate(-1)"/><path class="cls-12" d="M431,33.36a3.23,3.23,0,0,1-2.36-.84,3.05,3.05,0,0,1-.86-2.28,3.05,3.05,0,0,1,.89-2.33,3.37,3.37,0,0,1,2.41-.84,3.18,3.18,0,0,1,2.34.84,3,3,0,0,1,.85,2.22,3.18,3.18,0,0,1-.87,2.36A3.27,3.27,0,0,1,431,33.36Zm0-4.88a1.24,1.24,0,0,0-1,.46,2,2,0,0,0-.36,1.27c0,1.16.47,1.73,1.39,1.73s1.34-.59,1.34-1.77S431.93,28.48,431,28.48Z" transform="translate(-1)"/><path class="cls-12" d="M437.34,32.52h0V36h-1.85V27.21h1.85v.91h0a2.36,2.36,0,0,1,3.73-.25A3.42,3.42,0,0,1,441.7,30a3.65,3.65,0,0,1-.74,2.41,2.4,2.4,0,0,1-2,.91A1.87,1.87,0,0,1,437.34,32.52Zm0-2.47v.49a1.51,1.51,0,0,0,.32,1,1.08,1.08,0,0,0,.86.39,1.14,1.14,0,0,0,1-.49,2.37,2.37,0,0,0,.34-1.38q0-1.59-1.23-1.59a1.15,1.15,0,0,0-.92.44A1.68,1.68,0,0,0,437.29,30.05Z" transform="translate(-1)"/><path class="cls-12" d="M450.67,33.21h-1.73V28.54a9.51,9.51,0,0,1-.31,1.11l-1.17,3.56h-1.63l-1.16-3.56a7.31,7.31,0,0,1-.31-1.1v4.66H442.9v-6h2.44l1.14,3.42a7.21,7.21,0,0,1,.29,1.07,9.66,9.66,0,0,1,.3-1.05l1.13-3.44h2.47Z" transform="translate(-1)"/><path class="cls-12" d="M457.22,33.21h-1.75v-.86h0a2,2,0,0,1-1.78,1,1.88,1.88,0,0,1-1.38-.5,1.79,1.79,0,0,1-.5-1.32q0-1.74,2.07-2l1.63-.22c0-.66-.36-1-1.07-1a3.7,3.7,0,0,0-2,.63V27.57a4.67,4.67,0,0,1,1.06-.35,5.7,5.7,0,0,1,1.22-.15,2.27,2.27,0,0,1,2.57,2.56Zm-1.74-2.43v-.41l-1.09.14c-.6.08-.9.35-.9.82a.64.64,0,0,0,.22.51.8.8,0,0,0,.59.21,1.1,1.1,0,0,0,.85-.36A1.31,1.31,0,0,0,455.48,30.78Z" transform="translate(-1)"/><path class="cls-12" d="M385.9,41.61l-2.44,6.48c-.59,1.56-1.47,2.34-2.65,2.34a3.46,3.46,0,0,1-1.11-.15V48.8a1.53,1.53,0,0,0,.8.22,1,1,0,0,0,1-.67l.32-.75-2.44-6h2.05l1.12,3.65a5,5,0,0,1,.16.81h0a5.22,5.22,0,0,1,.19-.79l1.13-3.67Z" transform="translate(-1)"/><path class="cls-12" d="M392.49,49.8H391V47.61h-4V49.8h-1.49V46.31H386a9,9,0,0,0,1.35-4.7h4.21v4.7h.95Zm-2.8-3.49v-3.4h-.92a7.93,7.93,0,0,1-1,3.4Z" transform="translate(-1)"/><path class="cls-12" d="M396.42,47.76a3.23,3.23,0,0,1-2.36-.84,3.47,3.47,0,0,1,0-4.61,3.38,3.38,0,0,1,2.41-.84,3.16,3.16,0,0,1,2.34.84,3,3,0,0,1,.85,2.22,3.18,3.18,0,0,1-.87,2.36A3.27,3.27,0,0,1,396.42,47.76Zm.05-4.88a1.24,1.24,0,0,0-1,.46,1.92,1.92,0,0,0-.37,1.27c0,1.16.47,1.73,1.4,1.73s1.33-.59,1.33-1.77S397.36,42.88,396.47,42.88Z" transform="translate(-1)"/><path class="cls-12" d="M405.44,47.4a3.69,3.69,0,0,1-1.81.36,3.06,3.06,0,0,1-2.24-.84,2.89,2.89,0,0,1-.85-2.16,3.16,3.16,0,0,1,.92-2.41,3.36,3.36,0,0,1,2.45-.88,3.1,3.1,0,0,1,1.53.28v1.57a2.1,2.1,0,0,0-1.29-.44,1.82,1.82,0,0,0-1.29,3,1.66,1.66,0,0,0,1.23.45,2.42,2.42,0,0,0,1.35-.43Z" transform="translate(-1)"/><path class="cls-12" d="M411.14,43h-1.6v4.59h-1.87V43h-1.61V41.61h5.08Z" transform="translate(-1)"/><path class="cls-12" d="M414.8,47.76a3.23,3.23,0,0,1-2.36-.84,3.47,3.47,0,0,1,0-4.61,3.38,3.38,0,0,1,2.41-.84,3.2,3.2,0,0,1,2.35.84,3,3,0,0,1,.85,2.22,3.18,3.18,0,0,1-.88,2.36A3.24,3.24,0,0,1,414.8,47.76Zm.05-4.88a1.24,1.24,0,0,0-1,.46,1.92,1.92,0,0,0-.37,1.27c0,1.16.47,1.73,1.4,1.73s1.33-.59,1.33-1.77S415.74,42.88,414.85,42.88Z" transform="translate(-1)"/><path class="cls-12" d="M419.28,47.61v-6h3.35c1.43,0,2.14.49,2.14,1.47a1.25,1.25,0,0,1-.33.88,1.61,1.61,0,0,1-.88.47,1.76,1.76,0,0,1,1,.46,1.26,1.26,0,0,1,.38.92,1.65,1.65,0,0,1-.58,1.31,2.39,2.39,0,0,1-1.6.49Zm1.85-4.87V44H422q.84,0,.84-.66c0-.4-.27-.6-.8-.6Zm0,2.35v1.37h1.06c.59,0,.89-.24.89-.72s-.3-.65-.91-.65Z" transform="translate(-1)"/><path class="cls-12" d="M431.62,45.14h-3.91c.06.87.61,1.31,1.64,1.31a3.24,3.24,0,0,0,1.74-.47v1.33a4.5,4.5,0,0,1-2.16.45,2.81,2.81,0,0,1-3.06-3,3.2,3.2,0,0,1,.87-2.37,2.9,2.9,0,0,1,2.13-.87,2.6,2.6,0,0,1,2,.78,3,3,0,0,1,.72,2.11ZM429.91,44q0-1.29-1.05-1.29a1,1,0,0,0-.77.37,1.71,1.71,0,0,0-.39.92Z" transform="translate(-1)"/><path class="cls-12" d="M434.6,46.92h0v3.45h-1.86V41.61h1.86v.91h0a2.36,2.36,0,0,1,3.73-.25,3.42,3.42,0,0,1,.63,2.17,3.65,3.65,0,0,1-.74,2.41,2.4,2.4,0,0,1-2,.91A1.87,1.87,0,0,1,434.6,46.92Zm-.05-2.46v.48a1.57,1.57,0,0,0,.32,1,1.08,1.08,0,0,0,.87.39,1.14,1.14,0,0,0,1-.49,2.36,2.36,0,0,0,.35-1.38c0-1.06-.41-1.59-1.24-1.59a1.15,1.15,0,0,0-.92.44A1.69,1.69,0,0,0,434.55,44.46Z" transform="translate(-1)"/><path class="cls-12" d="M445.56,45.14h-3.92c.06.87.61,1.31,1.65,1.31A3.24,3.24,0,0,0,445,46v1.33a4.56,4.56,0,0,1-2.16.45,2.79,2.79,0,0,1-3.06-3,3.24,3.24,0,0,1,.86-2.37,2.9,2.9,0,0,1,2.14-.87,2.63,2.63,0,0,1,2,.78,3,3,0,0,1,.72,2.11ZM443.84,44c0-.86-.35-1.29-1-1.29a1,1,0,0,0-.77.37,1.72,1.72,0,0,0-.4.92Z" transform="translate(-1)"/><path class="cls-12" d="M452.44,47.61h-1.86v-2.5h-2.07v2.5h-1.85v-6h1.85v2.22h2.07V41.61h1.86Z" transform="translate(-1)"/><path class="cls-12" d="M460,47.61h-1.68V43.69a6.3,6.3,0,0,1-.49.85l-2,3.07H454v-6h1.69v3.81a6.47,6.47,0,0,1,.41-.74l2-3.07H460Z" transform="translate(-1)"/><path class="cls-12" d="M467.49,47.61h-1.68V43.69a6.3,6.3,0,0,1-.49.85l-2,3.07h-1.75v-6h1.69v3.81a6.47,6.47,0,0,1,.41-.74l2-3.07h1.82Zm-.43-8.86a2.13,2.13,0,0,1-.8,1.48,2.69,2.69,0,0,1-1.73.55,2.73,2.73,0,0,1-1.75-.55,2,2,0,0,1-.75-1.48h1.35a1,1,0,0,0,.37.74,1.21,1.21,0,0,0,.8.29,1.17,1.17,0,0,0,.79-.29,1,1,0,0,0,.37-.74Z" transform="translate(-1)"/><path class="cls-12" d="M397,62h-1.87V57c0-.55,0-1.15.07-1.8h0a9,9,0,0,1-.27,1.11l-2,5.71h-1.54l-2-5.65c-.05-.15-.14-.54-.26-1.17h-.05c.05.82.07,1.55.07,2.18V62h-1.7v-8.4h2.77l1.72,5a7.48,7.48,0,0,1,.29,1.2h0c.11-.46.22-.87.33-1.21l1.72-5H397Z" transform="translate(-1)"/><path class="cls-12" d="M403.72,62H402v-.86h0a2,2,0,0,1-1.79,1,1.86,1.86,0,0,1-1.37-.5,1.75,1.75,0,0,1-.5-1.32c0-1.16.68-1.83,2.06-2l1.63-.22c0-.66-.35-1-1.06-1a3.65,3.65,0,0,0-2,.63V56.37a4.57,4.57,0,0,1,1.05-.35,5.71,5.71,0,0,1,1.23-.15,2.26,2.26,0,0,1,2.56,2.56ZM402,59.58v-.41l-1.09.14c-.6.08-.9.35-.9.82a.64.64,0,0,0,.22.51.82.82,0,0,0,.59.21,1.08,1.08,0,0,0,.85-.36A1.31,1.31,0,0,0,402,59.58Z" transform="translate(-1)"/><path class="cls-12" d="M411.15,62h-1.68V58.09a7.59,7.59,0,0,1-.49.85l-2,3.07h-1.75V56h1.69v3.81a6.47,6.47,0,0,1,.41-.74l2-3.07h1.82Zm-.43-8.86a2.13,2.13,0,0,1-.8,1.48,2.69,2.69,0,0,1-1.73.55,2.73,2.73,0,0,1-1.75-.55,2,2,0,0,1-.75-1.48H407a1,1,0,0,0,.37.74,1.19,1.19,0,0,0,.8.29,1.17,1.17,0,0,0,.79-.29,1.08,1.08,0,0,0,.37-.74Z" transform="translate(-1)"/><path class="cls-12" d="M418.71,62h-2.23l-1.89-2.93h0V62h-1.85V56h1.85v2.82h0L416.44,56h2.19l-2.2,2.86Z" transform="translate(-1)"/><path class="cls-12" d="M421.3,61.32h0v3.45h-1.85V56h1.85v.91h0a2.18,2.18,0,0,1,1.93-1.05,2.14,2.14,0,0,1,1.8.8,3.4,3.4,0,0,1,.64,2.17,3.66,3.66,0,0,1-.75,2.41,2.4,2.4,0,0,1-2,.91A1.87,1.87,0,0,1,421.3,61.32Zm-.05-2.47v.48a1.53,1.53,0,0,0,.33,1,1.05,1.05,0,0,0,.86.39,1.12,1.12,0,0,0,1-.49,2.36,2.36,0,0,0,.35-1.38q0-1.59-1.23-1.59a1.18,1.18,0,0,0-.93.43A1.73,1.73,0,0,0,421.25,58.85Z" transform="translate(-1)"/><path class="cls-12" d="M429.73,62.16a3.23,3.23,0,0,1-2.36-.84,3.47,3.47,0,0,1,0-4.61,3.37,3.37,0,0,1,2.41-.84,3.18,3.18,0,0,1,2.34.84,3,3,0,0,1,.85,2.22,3.18,3.18,0,0,1-.87,2.36A3.27,3.27,0,0,1,429.73,62.16Zm0-4.88a1.24,1.24,0,0,0-1,.46,2,2,0,0,0-.36,1.27c0,1.16.47,1.73,1.4,1.73s1.33-.59,1.33-1.77S430.67,57.28,429.77,57.28Z" transform="translate(-1)"/><path class="cls-12" d="M438.75,61.8a3.69,3.69,0,0,1-1.81.36,3.06,3.06,0,0,1-2.24-.84,2.89,2.89,0,0,1-.85-2.16,3.19,3.19,0,0,1,.91-2.41,3.38,3.38,0,0,1,2.45-.88,3.14,3.14,0,0,1,1.54.28v1.57a2.12,2.12,0,0,0-1.29-.44,1.71,1.71,0,0,0-1.27.47,2,2,0,0,0,0,2.54,1.66,1.66,0,0,0,1.23.45,2.42,2.42,0,0,0,1.35-.43Z" transform="translate(-1)"/><path class="cls-12" d="M442.82,62.16a3.24,3.24,0,0,1-2.36-.84,3,3,0,0,1-.85-2.28,3,3,0,0,1,.89-2.33,3.34,3.34,0,0,1,2.4-.84,3.2,3.2,0,0,1,2.35.84,3,3,0,0,1,.85,2.22,3.15,3.15,0,0,1-.88,2.36A3.24,3.24,0,0,1,442.82,62.16Zm.05-4.88a1.21,1.21,0,0,0-1,.46,2,2,0,0,0-.36,1.27c0,1.16.46,1.73,1.39,1.73s1.33-.59,1.33-1.77S443.76,57.28,442.87,57.28Z" transform="translate(-1)"/><path class="cls-12" d="M452.09,62.08V64.8h-1.73V62.08h-.29a3.12,3.12,0,0,1-2.31-.83,3,3,0,0,1-.84-2.21,3,3,0,0,1,.84-2.26,3.13,3.13,0,0,1,2.32-.84h.28V53.42h1.73v2.52h.26a3.2,3.2,0,0,1,2.34.83,3.06,3.06,0,0,1,.84,2.27,3,3,0,0,1-.84,2.21,3.14,3.14,0,0,1-2.32.83Zm-1.73-1.3V57.25h-.1a1.33,1.33,0,0,0-1.07.47A2,2,0,0,0,448.8,59a1.9,1.9,0,0,0,.39,1.26,1.35,1.35,0,0,0,1.1.48Zm1.73-3.53v3.53h.07a1.32,1.32,0,0,0,1.09-.48,1.85,1.85,0,0,0,.4-1.26,2,2,0,0,0-.39-1.32,1.33,1.33,0,0,0-1.07-.47Z" transform="translate(-1)"/><path class="cls-12" d="M461,57.42h-1.61V62h-1.86V57.42h-1.62V56H461Z" transform="translate(-1)"/><path class="cls-13" d="M393.4,119.23h-2.06l-.6-1.87h-3l-.59,1.87h-2.05l3.06-8.4h2.25Zm-3.09-3.32-.9-2.82a3.12,3.12,0,0,1-.14-.76h0a3.06,3.06,0,0,1-.15.73l-.91,2.85Z" transform="translate(-1)"/><path class="cls-13" d="M396.34,116.34v2.89h-1.89v-8.4h3c2.11,0,3.17.89,3.17,2.68a2.58,2.58,0,0,1-.91,2,3.62,3.62,0,0,1-2.43.78Zm0-4.06v2.62h.75c1,0,1.51-.44,1.51-1.32s-.5-1.3-1.51-1.3Z" transform="translate(-1)"/><path class="cls-13" d="M403.72,119.23h-1.9v-8.4h1.9Z" transform="translate(-1)"/><path class="cls-13" d="M418.51,119.23h-1.87v-5c0-.55,0-1.15.07-1.8h0a9,9,0,0,1-.27,1.11l-2,5.71h-1.54l-2-5.65c-.05-.15-.14-.54-.26-1.17h-.05c.05.82.07,1.55.07,2.18v4.64h-1.7v-8.4h2.77l1.71,5a6.58,6.58,0,0,1,.3,1.2h0c.1-.46.22-.87.33-1.21l1.72-5h2.7Z" transform="translate(-1)"/><path class="cls-13" d="M421.18,112.28a1.06,1.06,0,0,1-.77-.28.88.88,0,0,1-.3-.68.87.87,0,0,1,.3-.68,1.14,1.14,0,0,1,.77-.26,1.16,1.16,0,0,1,.77.26.89.89,0,0,1,.29.68.91.91,0,0,1-.29.69A1.11,1.11,0,0,1,421.18,112.28Zm.91,7h-1.85v-6h1.85Z" transform="translate(-1)"/><path class="cls-13" d="M428.2,119a3.72,3.72,0,0,1-1.81.36,3,3,0,0,1-2.24-.84,2.9,2.9,0,0,1-.86-2.16,3.19,3.19,0,0,1,.92-2.41,3.38,3.38,0,0,1,2.45-.88,3.14,3.14,0,0,1,1.54.28v1.57a2.13,2.13,0,0,0-1.3-.44,1.71,1.71,0,0,0-1.26.47,1.75,1.75,0,0,0-.47,1.29,1.71,1.71,0,0,0,.45,1.25,1.64,1.64,0,0,0,1.22.45,2.47,2.47,0,0,0,1.36-.43Z" transform="translate(-1)"/><path class="cls-13" d="M433.32,114.9a1.61,1.61,0,0,0-.78-.18,1.14,1.14,0,0,0-.94.44,1.93,1.93,0,0,0-.34,1.21v2.86h-1.85v-6h1.85v1.12h0a1.6,1.6,0,0,1,1.59-1.22,1.12,1.12,0,0,1,.45.07Z" transform="translate(-1)"/><path class="cls-13" d="M437,119.38a3.23,3.23,0,0,1-2.36-.84,3.47,3.47,0,0,1,0-4.61,3.37,3.37,0,0,1,2.41-.84,3.16,3.16,0,0,1,2.34.84,3,3,0,0,1,.85,2.22,3.18,3.18,0,0,1-.87,2.36A3.27,3.27,0,0,1,437,119.38Zm0-4.88a1.24,1.24,0,0,0-1,.46,2,2,0,0,0-.36,1.27c0,1.15.47,1.73,1.4,1.73s1.33-.59,1.33-1.77S437.94,114.5,437,114.5Z" transform="translate(-1)"/><path class="cls-13" d="M441.08,119.07v-1.5a3.82,3.82,0,0,0,.91.41,3,3,0,0,0,.86.14,1.84,1.84,0,0,0,.78-.14.42.42,0,0,0,.28-.41.37.37,0,0,0-.13-.29.88.88,0,0,0-.33-.2,2.52,2.52,0,0,0-.44-.16c-.16,0-.32-.1-.46-.16a4.68,4.68,0,0,1-.63-.29,1.54,1.54,0,0,1-.46-.36,1.44,1.44,0,0,1-.28-.48,1.7,1.7,0,0,1-.1-.63,1.61,1.61,0,0,1,.22-.87,1.88,1.88,0,0,1,.59-.6,3,3,0,0,1,.83-.34,4.62,4.62,0,0,1,1-.1,5.49,5.49,0,0,1,.8.06,5.3,5.3,0,0,1,.81.18v1.43a2.76,2.76,0,0,0-.75-.31,3.11,3.11,0,0,0-.79-.1,1.87,1.87,0,0,0-.34,0,1,1,0,0,0-.28.09.54.54,0,0,0-.2.16.4.4,0,0,0,0,.5.79.79,0,0,0,.27.2l.38.16.41.13a6.16,6.16,0,0,1,.67.28,2.55,2.55,0,0,1,.51.36,1.29,1.29,0,0,1,.33.48,1.66,1.66,0,0,1,.12.66,1.76,1.76,0,0,1-.23.91,1.81,1.81,0,0,1-.62.61,2.75,2.75,0,0,1-.88.35,5.37,5.37,0,0,1-2.88-.2Z" transform="translate(-1)"/><path class="cls-13" d="M449.61,119.38a3.24,3.24,0,0,1-2.36-.84,3,3,0,0,1-.85-2.28,3,3,0,0,1,.89-2.33,3.34,3.34,0,0,1,2.4-.84,3.2,3.2,0,0,1,2.35.84,3,3,0,0,1,.85,2.22,3.15,3.15,0,0,1-.88,2.36A3.24,3.24,0,0,1,449.61,119.38Zm.05-4.88a1.21,1.21,0,0,0-1,.46,2,2,0,0,0-.36,1.27c0,1.15.46,1.73,1.39,1.73s1.33-.59,1.33-1.77S450.55,114.5,449.66,114.5Z" transform="translate(-1)"/><path class="cls-13" d="M457.82,111.77a1.76,1.76,0,0,0-.68-.14c-.6,0-.89.32-.89,1v.64h1.37v1.37h-1.37v4.63H454.4V114.6h-1v-1.37h1v-.74a2.12,2.12,0,0,1,.67-1.65,2.52,2.52,0,0,1,1.81-.63,3.11,3.11,0,0,1,.94.12Z" transform="translate(-1)"/><path class="cls-13" d="M462.36,119.16a2.62,2.62,0,0,1-1.23.22,1.76,1.76,0,0,1-2-2V114.6h-1v-1.37h1v-1.29l1.84-.53v1.82h1.35v1.37H461V117c0,.63.25.94.75.94a1.27,1.27,0,0,0,.6-.17Z" transform="translate(-1)"/><path class="cls-13" d="M414.48,133.07a6.08,6.08,0,0,1-3.06.71,4.4,4.4,0,0,1-3.19-1.12,4.08,4.08,0,0,1-1.17-3.09,4.29,4.29,0,0,1,1.28-3.23,4.65,4.65,0,0,1,3.39-1.25,6.8,6.8,0,0,1,2.36.37v1.77a4.73,4.73,0,0,0-2.38-.56,2.58,2.58,0,0,0-1.92.77,2.82,2.82,0,0,0-.74,2,2.78,2.78,0,0,0,.67,2,2.31,2.31,0,0,0,1.79.71,2.52,2.52,0,0,0,1.08-.19v-1.64h-1.68v-1.51h3.57Z" transform="translate(-1)"/><path class="cls-13" d="M419.85,129.3a1.61,1.61,0,0,0-.78-.18,1.12,1.12,0,0,0-.94.44,1.93,1.93,0,0,0-.34,1.21v2.86h-1.85v-6h1.85v1.12h0a1.59,1.59,0,0,1,1.58-1.22,1.14,1.14,0,0,1,.46.07Z" transform="translate(-1)"/><path class="cls-13" d="M425.7,133.63H424v-.86h0a2,2,0,0,1-1.79,1,1.86,1.86,0,0,1-1.37-.5,1.75,1.75,0,0,1-.5-1.32c0-1.16.69-1.83,2.06-2l1.63-.22c0-.66-.35-1-1.06-1a3.65,3.65,0,0,0-2,.63V128a4.67,4.67,0,0,1,1.06-.35,5.56,5.56,0,0,1,1.22-.15,2.26,2.26,0,0,1,2.56,2.56ZM424,131.2v-.41l-1.09.14c-.6.08-.9.35-.9.82a.64.64,0,0,0,.22.51.84.84,0,0,0,.6.21,1.07,1.07,0,0,0,.84-.36A1.31,1.31,0,0,0,424,131.2Z" transform="translate(-1)"/><path class="cls-13" d="M429,132.94h0v3.45h-1.85v-8.76H429v.91h0a2.18,2.18,0,0,1,1.93-1,2.14,2.14,0,0,1,1.8.8,3.34,3.34,0,0,1,.64,2.17,3.71,3.71,0,0,1-.74,2.41,2.41,2.41,0,0,1-2,.91A1.88,1.88,0,0,1,429,132.94Zm-.05-2.47V131a1.52,1.52,0,0,0,.33,1,1.06,1.06,0,0,0,.86.39,1.12,1.12,0,0,0,1-.49,2.36,2.36,0,0,0,.35-1.38q0-1.59-1.23-1.59a1.18,1.18,0,0,0-.93.43A1.73,1.73,0,0,0,429,130.47Z" transform="translate(-1)"/><path class="cls-13" d="M440.37,133.63h-1.85v-3.41q0-1.32-1-1.32a1,1,0,0,0-.79.37,1.4,1.4,0,0,0-.31.94v3.42h-1.85v-8.88h1.85v3.77h0a2.11,2.11,0,0,1,1.85-1q2,0,2,2.46Z" transform="translate(-1)"/><path class="cls-11" d="M193.38,10.57h-1V3.08H188v7.49h-1V2.17h6.38Z" transform="translate(-1)"/><path class="cls-11" d="M197.84,10.71a2.77,2.77,0,0,1-2.12-.84,3.11,3.11,0,0,1-.8-2.23,3.25,3.25,0,0,1,.83-2.36A3,3,0,0,1,198,4.43a2.68,2.68,0,0,1,2.1.83,3.27,3.27,0,0,1,.75,2.29,3.25,3.25,0,0,1-.81,2.3A2.87,2.87,0,0,1,197.84,10.71Zm.07-5.47a1.81,1.81,0,0,0-1.46.63,2.58,2.58,0,0,0-.54,1.73,2.47,2.47,0,0,0,.54,1.69,1.85,1.85,0,0,0,1.46.61,1.75,1.75,0,0,0,1.43-.6,2.59,2.59,0,0,0,.5-1.72,2.61,2.61,0,0,0-.5-1.73A1.73,1.73,0,0,0,197.91,5.24Z" transform="translate(-1)"/><path class="cls-11" d="M206.64,10.57h-.95V5.38h-1.4a12.33,12.33,0,0,1-.82,4.09,1.76,1.76,0,0,1-1.57,1.18,1.52,1.52,0,0,1-.51-.08V9.74a.93.93,0,0,0,.44.11c.86,0,1.42-1.76,1.66-5.28h3.15Z" transform="translate(-1)"/><path class="cls-11" d="M213.27,4.57l-2.76,7q-.73,1.86-2.07,1.86a2.28,2.28,0,0,1-.63-.07v-.86a1.76,1.76,0,0,0,.57.1,1.19,1.19,0,0,0,1.09-.87l.48-1.13-2.35-6h1.07l1.62,4.62.13.45h0c0-.09.06-.24.12-.44l1.7-4.63Z" transform="translate(-1)"/><path class="cls-11" d="M219,10.57h-1V8.16a4.12,4.12,0,0,1-1.94.57c-1.35,0-2-.71-2-2.13v-2h1v2q0,1.32,1.14,1.32a4.08,4.08,0,0,0,1.86-.51V4.57h1Z" transform="translate(-1)"/><path class="cls-11" d="M225.71,7.81h-4.24A2.3,2.3,0,0,0,222,9.36a1.88,1.88,0,0,0,1.42.54,2.89,2.89,0,0,0,1.86-.67v.91a3.47,3.47,0,0,1-2.09.57,2.53,2.53,0,0,1-2-.82,3.35,3.35,0,0,1-.72-2.3,3.28,3.28,0,0,1,.79-2.28,2.54,2.54,0,0,1,2-.88,2.22,2.22,0,0,1,1.82.76,3.18,3.18,0,0,1,.65,2.12Zm-1-.81a2,2,0,0,0-.41-1.3,1.35,1.35,0,0,0-1.09-.46,1.57,1.57,0,0,0-1.16.48A2.25,2.25,0,0,0,221.48,7Z" transform="translate(-1)"/><path class="cls-11" d="M232.05,10.57h-1V7.85H228v2.72h-1v-6h1V7h3.06V4.57h1Z" transform="translate(-1)"/><path class="cls-11" d="M238.92,10.57h-.86V5.78c-.09.17-.22.41-.4.71l-2.77,4.08h-1v-6h.88V9.3a4.08,4.08,0,0,1,.3-.58l2.85-4.15h1Z" transform="translate(-1)"/><path class="cls-11" d="M245.6,7.81h-4.24a2.3,2.3,0,0,0,.54,1.55,1.87,1.87,0,0,0,1.42.54,2.93,2.93,0,0,0,1.86-.67v.91a3.5,3.5,0,0,1-2.09.57,2.53,2.53,0,0,1-2-.82,3.36,3.36,0,0,1-.73-2.3,3.29,3.29,0,0,1,.8-2.28,2.53,2.53,0,0,1,2-.88,2.24,2.24,0,0,1,1.82.76,3.18,3.18,0,0,1,.65,2.12Zm-1-.81a2,2,0,0,0-.4-1.3,1.36,1.36,0,0,0-1.1-.46,1.55,1.55,0,0,0-1.15.48A2.25,2.25,0,0,0,241.37,7Z" transform="translate(-1)"/><path class="cls-11" d="M256.63,10.57h-.95V5.62l-.4,1.11-1.5,3.84h-.86l-1.55-3.84c-.08-.21-.22-.58-.4-1.11v5h-.83v-6h1.23L253,8.48c.11.29.26.68.43,1.19l.43-1.16,1.54-3.94h1.28Z" transform="translate(-1)"/><path class="cls-11" d="M262.77,10.57h-1V9.63h0a2,2,0,0,1-1.85,1.08,2,2,0,0,1-1.4-.47A1.65,1.65,0,0,1,258,9c0-1.13.66-1.78,2-2l1.8-.25c0-1-.41-1.53-1.24-1.53a2.9,2.9,0,0,0-1.95.74V5a3.73,3.73,0,0,1,2-.56c1.41,0,2.12.75,2.12,2.24Zm-1-3-1.45.2a2.65,2.65,0,0,0-1,.33,1,1,0,0,0-.34.85.9.9,0,0,0,.32.71,1.18,1.18,0,0,0,.83.28,1.55,1.55,0,0,0,1.18-.5,1.8,1.8,0,0,0,.47-1.27Z" transform="translate(-1)"/><path class="cls-11" d="M265.47,9.7h0v3.63h-1V4.57h1v1h0a2.27,2.27,0,0,1,2.07-1.19,2.2,2.2,0,0,1,1.81.8A3.31,3.31,0,0,1,270,7.39a3.73,3.73,0,0,1-.73,2.42,2.45,2.45,0,0,1-2,.9A2,2,0,0,1,265.47,9.7Zm0-2.42v.84a1.78,1.78,0,0,0,.49,1.26,1.72,1.72,0,0,0,2.59-.15,3,3,0,0,0,.5-1.85,2.47,2.47,0,0,0-.46-1.57,1.54,1.54,0,0,0-1.26-.57,1.7,1.7,0,0,0-1.35.58A2.15,2.15,0,0,0,265.44,7.28Z" transform="translate(-1)"/><path class="cls-11" d="M276.42,10.57h-1.34l-2.65-2.88h0v2.88h-1v-6h1V7.32h0L275,4.57h1.26l-2.79,2.89Z" transform="translate(-1)"/><path class="cls-11" d="M282.13,7.81H277.9a2.21,2.21,0,0,0,.54,1.55,1.85,1.85,0,0,0,1.41.54,2.94,2.94,0,0,0,1.87-.67v.91a3.52,3.52,0,0,1-2.09.57,2.52,2.52,0,0,1-2-.82,3.31,3.31,0,0,1-.73-2.3,3.29,3.29,0,0,1,.8-2.28,2.51,2.51,0,0,1,2-.88,2.25,2.25,0,0,1,1.82.76,3.18,3.18,0,0,1,.64,2.12Zm-1-.81a2,2,0,0,0-.4-1.3,1.37,1.37,0,0,0-1.1-.46,1.55,1.55,0,0,0-1.15.48A2.19,2.19,0,0,0,277.91,7Z" transform="translate(-1)"/><path class="cls-11" d="M284.47,9.7h0v3.63h-1V4.57h1v1h0a2.3,2.3,0,0,1,2.08-1.19,2.21,2.21,0,0,1,1.81.8A3.37,3.37,0,0,1,289,7.39a3.73,3.73,0,0,1-.73,2.42,2.46,2.46,0,0,1-2,.9A2,2,0,0,1,284.47,9.7Zm0-2.42v.84a1.77,1.77,0,0,0,.48,1.26,1.73,1.73,0,0,0,2.6-.15,3,3,0,0,0,.5-1.85,2.41,2.41,0,0,0-.47-1.57,1.52,1.52,0,0,0-1.25-.57,1.7,1.7,0,0,0-1.35.58A2.15,2.15,0,0,0,284.45,7.28Z" transform="translate(-1)"/><path class="cls-11" d="M294.74,10.57h-1V9.63h0a2.2,2.2,0,0,1-3.25.61A1.65,1.65,0,0,1,290,9c0-1.13.66-1.78,2-2l1.8-.25q0-1.53-1.23-1.53a2.91,2.91,0,0,0-2,.74V5a3.76,3.76,0,0,1,2-.56c1.41,0,2.11.75,2.11,2.24Zm-1-3-1.44.2a2.53,2.53,0,0,0-1,.33,1,1,0,0,0-.34.85.89.89,0,0,0,.31.71,1.2,1.2,0,0,0,.84.28,1.56,1.56,0,0,0,1.18-.5,1.79,1.79,0,0,0,.46-1.27Z" transform="translate(-1)"/><path class="cls-11" d="M214.07,39.46h-1V33.82c0-.44,0-1,.09-1.63h0a5.05,5.05,0,0,1-.25.81L210,39.46h-.48l-2.87-6.41a5.64,5.64,0,0,1-.25-.86h0c0,.33.05.88.05,1.64v5.63h-1v-8.4h1.3l2.57,5.86a7.92,7.92,0,0,1,.39,1h0c.16-.46.3-.8.4-1l2.63-5.83h1.23Z" transform="translate(-1)"/><path class="cls-11" d="M220.38,39.46h-1v-.94h0a2.2,2.2,0,0,1-3.25.61,1.65,1.65,0,0,1-.51-1.26c0-1.12.66-1.78,2-2l1.79-.25q0-1.53-1.23-1.53a2.92,2.92,0,0,0-2,.74v-1a3.76,3.76,0,0,1,2-.56c1.41,0,2.12.75,2.12,2.24Zm-1-3-1.44.2a2.43,2.43,0,0,0-1,.34.93.93,0,0,0-.34.84.89.89,0,0,0,.31.71,1.2,1.2,0,0,0,.84.28,1.53,1.53,0,0,0,1.18-.5,1.79,1.79,0,0,0,.46-1.27Z" transform="translate(-1)"/><path class="cls-11" d="M223.1,38.59h0v3.63h-1V33.46h1v1h0a2.27,2.27,0,0,1,2.07-1.19,2.18,2.18,0,0,1,1.81.81,3.27,3.27,0,0,1,.65,2.15,3.73,3.73,0,0,1-.73,2.42,2.44,2.44,0,0,1-2,.9A2,2,0,0,1,223.1,38.59Zm0-2.42V37a1.77,1.77,0,0,0,.48,1.26,1.72,1.72,0,0,0,2.59-.15,3,3,0,0,0,.5-1.85,2.41,2.41,0,0,0-.46-1.57,1.54,1.54,0,0,0-1.26-.57,1.7,1.7,0,0,0-1.35.58A2.19,2.19,0,0,0,223.08,36.17Z" transform="translate(-1)"/><path class="cls-11" d="M234.08,39.46h-1.35l-2.65-2.88h0v2.88h-1v-6h1v2.75h0l2.52-2.75h1.26l-2.78,2.89Z" transform="translate(-1)"/><path class="cls-11" d="M239.81,36.7h-4.23a2.25,2.25,0,0,0,.53,1.55,1.88,1.88,0,0,0,1.42.54,2.94,2.94,0,0,0,1.87-.67V39a3.53,3.53,0,0,1-2.1.57,2.51,2.51,0,0,1-2-.82,3.83,3.83,0,0,1,.06-4.58,2.54,2.54,0,0,1,2-.88,2.26,2.26,0,0,1,1.83.76,3.18,3.18,0,0,1,.64,2.12Zm-1-.81a2,2,0,0,0-.4-1.3,1.37,1.37,0,0,0-1.1-.46,1.57,1.57,0,0,0-1.16.48,2.24,2.24,0,0,0-.58,1.28Z" transform="translate(-1)"/><path class="cls-11" d="M242.18,38.59h0v3.63h-1V33.46h1v1h0a2.27,2.27,0,0,1,2.07-1.19,2.19,2.19,0,0,1,1.81.81,3.27,3.27,0,0,1,.65,2.15A3.73,3.73,0,0,1,246,38.7a2.45,2.45,0,0,1-2,.9A2,2,0,0,1,242.18,38.59Zm0-2.42V37a1.73,1.73,0,0,0,.49,1.26,1.71,1.71,0,0,0,2.59-.15,3,3,0,0,0,.5-1.85,2.41,2.41,0,0,0-.47-1.57,1.51,1.51,0,0,0-1.25-.57,1.7,1.7,0,0,0-1.35.58A2.15,2.15,0,0,0,242.15,36.17Z" transform="translate(-1)"/><path class="cls-11" d="M256.62,41.65h-.81V39.46h-4.47v2.19h-.82v-3h.54a9.09,9.09,0,0,0,1.56-5.19h3.11v5.19h.89Zm-1.85-3V34.27h-1.33a9.33,9.33,0,0,1-1.36,4.38Z" transform="translate(-1)"/><path class="cls-11" d="M260.39,39.6a2.79,2.79,0,0,1-2.13-.84,3.15,3.15,0,0,1-.79-2.23,3.25,3.25,0,0,1,.83-2.36,3,3,0,0,1,2.23-.85,2.66,2.66,0,0,1,2.09.83,3.75,3.75,0,0,1-.05,4.59A2.88,2.88,0,0,1,260.39,39.6Zm.07-5.47a1.84,1.84,0,0,0-1.47.63,2.59,2.59,0,0,0-.53,1.74,2.46,2.46,0,0,0,.54,1.68,1.85,1.85,0,0,0,1.46.61,1.75,1.75,0,0,0,1.43-.6,2.59,2.59,0,0,0,.5-1.72,2.61,2.61,0,0,0-.5-1.73A1.73,1.73,0,0,0,260.46,34.13Z" transform="translate(-1)"/><path class="cls-11" d="M268.93,39.18a3.1,3.1,0,0,1-1.64.42,2.72,2.72,0,0,1-2.07-.83,3,3,0,0,1-.79-2.17,3.3,3.3,0,0,1,.85-2.38,3,3,0,0,1,2.27-.9,3.23,3.23,0,0,1,1.39.29v1a2.38,2.38,0,0,0-1.43-.47,2,2,0,0,0-1.51.66,2.5,2.5,0,0,0-.59,1.73,2.36,2.36,0,0,0,.56,1.66,1.89,1.89,0,0,0,1.48.61,2.39,2.39,0,0,0,1.48-.52Z" transform="translate(-1)"/><path class="cls-11" d="M274.08,34.28h-1.8v5.18h-1V34.28h-1.81v-.82h4.57Z" transform="translate(-1)"/><path class="cls-11" d="M279.94,33.46l-2.76,7c-.5,1.24-1.19,1.86-2.08,1.86a2.16,2.16,0,0,1-.62-.07v-.86a1.7,1.7,0,0,0,.56.1,1.17,1.17,0,0,0,1.09-.87l.48-1.13-2.34-6h1.07L277,38.08q0,.09.12.45h0c0-.09.06-.24.12-.44l1.7-4.63Z" transform="translate(-1)"/><path class="cls-11" d="M285.88,39.46h-1V34.28h-3.06v5.18h-1v-6h5Z" transform="translate(-1)"/><path class="cls-11" d="M292,39.46h-1v-.94h0a2.2,2.2,0,0,1-3.25.61,1.65,1.65,0,0,1-.51-1.26c0-1.12.66-1.78,2-2l1.79-.25q0-1.53-1.23-1.53a2.92,2.92,0,0,0-2,.74v-1a3.76,3.76,0,0,1,2-.56c1.41,0,2.11.75,2.11,2.24Zm-1-3-1.44.2a2.43,2.43,0,0,0-1,.34.93.93,0,0,0-.34.84.89.89,0,0,0,.31.71,1.2,1.2,0,0,0,.84.28,1.53,1.53,0,0,0,1.18-.5,1.79,1.79,0,0,0,.46-1.27Z" transform="translate(-1)"/><path class="cls-11" d="M190.39,135.57a3.66,3.66,0,0,1-2.86-1.18,4.33,4.33,0,0,1-1.08-3.06,4.66,4.66,0,0,1,1.1-3.24,3.83,3.83,0,0,1,3-1.2,3.6,3.6,0,0,1,2.8,1.17,4.37,4.37,0,0,1,1.07,3.06,4.7,4.7,0,0,1-1.09,3.26A3.78,3.78,0,0,1,190.39,135.57Zm.07-7.79a2.73,2.73,0,0,0-2.15.95,4.24,4.24,0,0,0,0,5,2.64,2.64,0,0,0,2.1.95,2.77,2.77,0,0,0,2.18-.91,3.68,3.68,0,0,0,.8-2.52,3.81,3.81,0,0,0-.78-2.57A2.62,2.62,0,0,0,190.46,127.78Z" transform="translate(-1)"/><path class="cls-11" d="M199.65,130.25h-1.8v5.18h-1v-5.18h-1.8v-.82h4.56Z" transform="translate(-1)"/><path class="cls-11" d="M200.77,135.43v-6h2.61a2.26,2.26,0,0,1,1.4.39,1.28,1.28,0,0,1,.51,1.07,1.32,1.32,0,0,1-1.14,1.42c.91.12,1.37.58,1.37,1.39a1.59,1.59,0,0,1-.56,1.23,2.08,2.08,0,0,1-1.41.5Zm1-5.18v1.69h1.44c.78,0,1.16-.3,1.16-.9s-.35-.79-1-.79Zm0,2.51v1.85h1.67c.77,0,1.16-.32,1.16-.94s-.43-.91-1.31-.91Z" transform="translate(-1)"/><path class="cls-11" d="M211.91,132.67h-4.23a2.21,2.21,0,0,0,.54,1.55,1.85,1.85,0,0,0,1.41.54,2.94,2.94,0,0,0,1.87-.67V135a3.52,3.52,0,0,1-2.09.57,2.52,2.52,0,0,1-2-.82,3.81,3.81,0,0,1,.07-4.58,2.51,2.51,0,0,1,2-.88,2.25,2.25,0,0,1,1.82.76,3.18,3.18,0,0,1,.64,2.12Zm-1-.81a2,2,0,0,0-.4-1.3,1.37,1.37,0,0,0-1.1-.46,1.59,1.59,0,0,0-1.16.48,2.24,2.24,0,0,0-.58,1.28Z" transform="translate(-1)"/><path class="cls-11" d="M217.1,130.25h-1.8v5.18h-1v-5.18h-1.81v-.82h4.57Z" transform="translate(-1)"/><path class="cls-11" d="M227.91,135.43h-1V131.6h-4.35v3.83h-1V127h1v3.68h4.35V127h1Z" transform="translate(-1)"/><path class="cls-11" d="M235.05,127.92h-2.43v7.51h-1v-7.51h-2.42V127h5.83Z" transform="translate(-1)"/><path class="cls-11" d="M241.54,127.92h-2.43v7.51h-1v-7.51H235.7V127h5.84Z" transform="translate(-1)"/><path class="cls-11" d="M243.8,132.25v3.18h-1V127h2.31a3.07,3.07,0,0,1,2.08.65,2.35,2.35,0,0,1,.75,1.86,2.55,2.55,0,0,1-.83,2,3.13,3.13,0,0,1-2.22.76Zm0-4.33v3.44h1a2.32,2.32,0,0,0,1.56-.46,1.64,1.64,0,0,0,.53-1.32c0-1.11-.65-1.66-2-1.66Z" transform="translate(-1)"/></g></svg>