<?xml version="1.0" encoding="utf-8"?>
<!-- Generator: Adobe Illustrator 23.0.6, SVG Export Plug-In . SVG Version: 6.00 Build 0)  -->
<svg version="1.1" xmlns="http://www.w3.org/2000/svg" xmlns:xlink="http://www.w3.org/1999/xlink" x="0px" y="0px"
	 viewBox="0 0 171 202.6" style="enable-background:new 0 0 171 202.6;" xml:space="preserve">
<style type="text/css">
	.st0{fill:#FFFFFF;}
	.st1{opacity:5.000000e-02;fill:#3C3C41;enable-background:new    ;}
	.st2{fill:#3C3C41;}
	.st3{opacity:0.2;fill:#3C3C41;enable-background:new    ;}
	.st4{fill:url(#SVGID_1_);}
	.st5{fill:#767676;}
	.st6{fill:#F2F2F2;}
	.st7{fill:url(#SVGID_2_);}
	.st8{fill:url(#SVGID_3_);}
	.st9{fill:url(#SVGID_4_);}
	.st10{fill:none;stroke:#3C3C41;stroke-miterlimit:10;}
	.st11{fill:url(#SVGID_5_);}
	.st12{fill:url(#SVGID_6_);}
	.st13{fill:url(#SVGID_7_);}
	.st14{fill:#50E6FF;}
	.st15{fill:#1490DF;}
	.st16{fill:#6EBCDB;}
	.st17{fill:#5DB4D7;}
	.st18{fill:#E6E6E6;}
	.st19{fill:#86D633;}
	.st20{fill:#1E1E1E;}
	.st21{display:none;}
	.st22{display:inline;}
	.st23{fill:url(#SVGID_8_);}
	.st24{fill:url(#SVGID_9_);}
	.st25{fill:url(#SVGID_10_);}
	.st26{fill:url(#SVGID_11_);}
	.st27{fill:url(#SVGID_12_);}
	.st28{fill:url(#SVGID_13_);}
	.st29{fill:url(#SVGID_14_);}
</style>
<g id="Target">
	<rect y="0" class="st0" width="170.5" height="202.6"/>
	<g>
		<g>
			<path class="st0" d="M20.5,120.5h145c2.8,0,5,2.2,5,5v45c0,2.8-2.2,5-5,5h-145c-2.8,0-5-2.2-5-5v-45
				C15.5,122.7,17.8,120.5,20.5,120.5z"/>
			<path class="st1" d="M20.5,120.5h145c2.8,0,5,2.2,5,5v45c0,2.8-2.2,5-5,5h-145c-2.8,0-5-2.2-5-5v-45
				C15.5,122.7,17.8,120.5,20.5,120.5z"/>
		</g>
		<path class="st2" d="M164.4,176h-1v-1h1V176z M161.4,176h-1v-1h1V176z M158.4,176h-1v-1h1V176z M155.4,176h-1v-1h1V176z
			 M152.4,176h-1v-1h1V176z M149.4,176h-1v-1h1V176z M146.4,176h-1v-1h1V176z M143.4,176h-1v-1h1V176z M140.4,176h-1v-1h1V176z
			 M137.4,176h-1v-1h1V176z M134.4,176h-1v-1h1V176z M131.4,176h-1v-1h1V176z M128.4,176h-1v-1h1V176z M125.4,176h-1v-1h1V176z
			 M122.4,176h-1v-1h1V176z M119.4,176h-1v-1h1V176z M116.4,176h-1v-1h1V176z M113.4,176h-1v-1h1V176z M110.4,176h-1v-1h1V176z
			 M107.4,176h-1v-1h1V176z M104.4,176h-1v-1h1V176z M101.4,176h-1v-1h1V176z M98.4,176h-1v-1h1V176z M95.4,176h-1v-1h1V176z
			 M92.4,176h-1v-1h1V176z M89.4,176h-1v-1h1V176z M86.4,176h-1v-1h1V176z M83.4,176h-1v-1h1V176z M80.4,176h-1v-1h1V176z M77.4,176
			h-1v-1h1V176z M74.4,176h-1v-1h1V176z M71.4,176h-1v-1h1V176z M68.4,176h-1v-1h1V176z M65.4,176h-1v-1h1V176z M62.4,176h-1v-1h1
			V176z M59.4,176h-1v-1h1V176z M56.4,176h-1v-1h1V176z M53.4,176h-1v-1h1V176z M20.3,176c-0.4,0-0.7-0.1-1.1-0.2l0.3-1
			c0.3,0.1,0.6,0.1,0.9,0.1L20.3,176z M166.5,175.9l-0.2-1c0.3-0.1,0.6-0.1,0.9-0.3l0.4,0.9C167.2,175.8,166.8,175.9,166.5,175.9
			L166.5,175.9z M17.2,174.8c-0.3-0.2-0.6-0.5-0.8-0.8l0.8-0.7c0.2,0.2,0.4,0.4,0.6,0.6L17.2,174.8z M169.3,174.4l-0.7-0.7
			c0.2-0.2,0.4-0.4,0.6-0.7l0.8,0.6C169.9,173.9,169.6,174.2,169.3,174.4L169.3,174.4z M15.3,172.2c-0.1-0.4-0.2-0.7-0.2-1.1l1-0.1
			c0,0.3,0.1,0.6,0.2,0.9L15.3,172.2z M170.9,171.6l-1-0.2c0.1-0.3,0.1-0.6,0.1-0.9l1-0.1v0.1C171,170.9,171,171.2,170.9,171.6
			L170.9,171.6z M16,169.1h-1v-1h1V169.1z M171,168.4h-1v-1h1V168.4z M16,166h-1v-1h1V166z M171,165.4h-1v-1h1V165.4z M16,163h-1v-1
			h1V163z M171,162.4h-1v-1h1V162.4z M16,160h-1v-1h1V160z M171,159.4h-1v-1h1V159.4z M16,157h-1v-1h1V157z M171,156.4h-1v-1h1
			V156.4z M16,154h-1v-1h1V154z M171,153.4h-1v-1h1V153.4z M16,151h-1v-1h1V151z M171,150.4h-1v-1h1V150.4z M16,148h-1v-1h1V148z
			 M171,147.4h-1v-1h1V147.4z M16,145h-1v-1h1V145z M171,144.4h-1v-1h1V144.4z M16,142h-1v-1h1V142z M171,141.4h-1v-1h1V141.4z
			 M16,139h-1v-1h1V139z M171,138.4h-1v-1h1V138.4z M16,136h-1v-1h1V136z M171,135.4h-1v-1h1V135.4z M16,133h-1v-1h1V133z
			 M171,132.4h-1v-1h1V132.4z M16,130h-1v-1h1V130z M171,129.4h-1v-1h1V129.4z M16,127h-1v-1h1V127z M171,126.4h-1v-0.9l1-0.1V126.4
			z M16.2,124.2l-1-0.3c0.1-0.3,0.3-0.7,0.4-1l0.9,0.5C16.4,123.6,16.3,123.9,16.2,124.2L16.2,124.2z M169.6,123.6
			c-0.1-0.3-0.3-0.5-0.4-0.8l0.8-0.6c0.2,0.3,0.4,0.6,0.5,1L169.6,123.6z M17.7,122l-0.6-0.8c0.3-0.2,0.6-0.4,0.9-0.6l0.5,0.9
			C18.2,121.6,17.9,121.8,17.7,122z M167.9,121.7c-0.3-0.2-0.5-0.3-0.8-0.4l0.3-0.9c0.4,0.1,0.7,0.3,1,0.5L167.9,121.7z M20.2,121
			l-0.1-1h0.4h0.6v1H20.2L20.2,121z M165.3,121h-1v-1h1V121z M162.3,121h-1v-1h1V121z M159.3,121h-1v-1h1V121z M156.3,121h-1v-1h1
			V121z M153.3,121h-1v-1h1V121z M150.3,121h-1v-1h1V121z M147.3,121h-1v-1h1V121z M144.3,121h-1v-1h1V121z M141.3,121h-1v-1h1V121z
			 M138.3,121h-1v-1h1V121z M135.3,121h-1v-1h1V121z M132.3,121h-1v-1h1V121z M129.3,121h-1v-1h1V121z M126.3,121h-1v-1h1V121z
			 M123.3,121h-1v-1h1V121z M120.3,121h-1v-1h1V121z M117.3,121h-1v-1h1V121z M114.3,121h-1v-1h1V121z M111.3,121h-1v-1h1V121z
			 M108.3,121h-1v-1h1V121z M105.3,121h-1v-1h1V121z M102.3,121h-1v-1h1V121z M99.3,121h-1v-1h1V121z M96.3,121h-1v-1h1V121z
			 M93.3,121h-1v-1h1V121z M90.3,121h-1v-1h1V121z M87.3,121h-1v-1h1V121z M84.3,121h-1v-1h1V121z M81.3,121h-1v-1h1V121z M78.3,121
			h-1v-1h1V121z M75.3,121h-1v-1h1V121z M72.3,121h-1v-1h1V121z M69.3,121h-1v-1h1V121z M66.3,121h-1v-1h1V121z M63.3,121h-1v-1h1
			V121z M60.3,121h-1v-1h1V121z M57.3,121h-1v-1h1V121z M54.3,121h-1v-1h1V121z M51.3,121h-1v-1h1V121z M48.3,121h-1v-1h1V121z
			 M45.3,121h-1v-1h1V121z M42.3,121h-1v-1h1V121z M39.3,121h-1v-1h1V121z M36.3,121h-1v-1h1V121z M33.3,121h-1v-1h1V121z M30.3,121
			h-1v-1h1V121z M27.3,121h-1v-1h1V121z M24.3,121h-1v-1h1V121z"/>
	</g>
	<g>
		<path class="st0" d="M95.9,130.5H161c0.2,0,0.3,0.1,0.3,0.3v29.4c0,0.2-0.1,0.3-0.3,0.3H95.9c-0.2,0-0.3-0.1-0.3-0.3v-29.4
			C95.6,130.6,95.7,130.5,95.9,130.5z"/>
		<path class="st3" d="M95.9,130.5H161c0.2,0,0.3,0.1,0.3,0.3v29.4c0,0.2-0.1,0.3-0.3,0.3H95.9c-0.2,0-0.3-0.1-0.3-0.3v-29.4
			C95.6,130.6,95.7,130.5,95.9,130.5z"/>
	</g>
	<g>
		
			<linearGradient id="SVGID_1_" gradientUnits="userSpaceOnUse" x1="92.63" y1="-2022.1987" x2="92.63" y2="-2009.4087" gradientTransform="matrix(1 0 0 -1 0 -1978.9785)">
			<stop  offset="0" style="stop-color:#32BEDD"/>
			<stop  offset="0.18" style="stop-color:#32CAEA"/>
			<stop  offset="0.41" style="stop-color:#32D2F2"/>
			<stop  offset="0.78" style="stop-color:#32D4F5"/>
		</linearGradient>
		<path class="st4" d="M81.8,30.4h21.7v12.1c0,0.4-0.3,0.7-0.7,0.7H82.5c-0.4,0-0.7-0.3-0.7-0.7l0,0V30.4z"/>
		<path class="st5" d="M82.5,25.8h20.2c0.4,0,0.7,0.3,0.7,0.7v0l0,0v3.9H81.8v-3.9C81.8,26.1,82.1,25.8,82.5,25.8z"/>
		<path class="st6" d="M85.1,27.2h15.1c0.2,0,0.4,0.2,0.4,0.4v1.1c0,0.2-0.2,0.4-0.4,0.4H85.1c-0.2,0-0.4-0.2-0.4-0.4v-1.1
			C84.7,27.4,84.9,27.2,85.1,27.2z"/>
		
			<linearGradient id="SVGID_2_" gradientUnits="userSpaceOnUse" x1="101.0849" y1="-2028.4785" x2="101.0849" y2="-2015.6887" gradientTransform="matrix(1 0 0 -1 0 -1978.9785)">
			<stop  offset="0" style="stop-color:#32BEDD"/>
			<stop  offset="0.18" style="stop-color:#32CAEA"/>
			<stop  offset="0.41" style="stop-color:#32D2F2"/>
			<stop  offset="0.78" style="stop-color:#32D4F5"/>
		</linearGradient>
		<path class="st7" d="M90.2,36.7h21.7v12.1c0,0.4-0.3,0.7-0.7,0.7l0,0H91c-0.4,0-0.7-0.3-0.7-0.7c0,0,0,0,0,0l0,0V36.7z"/>
		<path class="st5" d="M91,32.1h20.2c0.4,0,0.7,0.3,0.7,0.7l0,0l0,0v3.9H90.3v-3.9C90.3,32.4,90.6,32.1,91,32.1z"/>
		<path class="st6" d="M93.5,33.5h15.1c0.2,0,0.4,0.2,0.4,0.4V35c0,0.2-0.2,0.4-0.4,0.4H93.5c-0.2,0-0.4-0.2-0.4-0.4v-1.1
			C93.2,33.6,93.3,33.5,93.5,33.5z"/>
		<g>
			
				<linearGradient id="SVGID_3_" gradientUnits="userSpaceOnUse" x1="109.535" y1="-2034.7585" x2="109.535" y2="-2021.9585" gradientTransform="matrix(1 0 0 -1 0 -1978.9785)">
				<stop  offset="0" style="stop-color:#32BEDD"/>
				<stop  offset="0.18" style="stop-color:#32CAEA"/>
				<stop  offset="0.41" style="stop-color:#32D2F2"/>
				<stop  offset="0.78" style="stop-color:#32D4F5"/>
			</linearGradient>
			<path class="st8" d="M98.7,43h21.7v12.1c0,0.4-0.3,0.7-0.7,0.7c0,0,0,0,0,0H99.4c-0.4,0-0.7-0.3-0.7-0.7c0,0,0,0,0,0l0,0V43z"/>
			<path class="st5" d="M99.4,38.4h20.2c0.4,0,0.7,0.3,0.7,0.7c0,0,0,0,0,0V43H98.7v-3.9C98.7,38.7,99,38.4,99.4,38.4
				C99.4,38.4,99.4,38.4,99.4,38.4z"/>
			<g>
				<circle class="st6" cx="114.4" cy="48.6" r="1.8"/>
				<circle class="st6" cx="109.6" cy="48.6" r="1.8"/>
				<circle class="st6" cx="104.7" cy="48.6" r="1.8"/>
			</g>
			<path class="st6" d="M102,39.7h15.1c0.2,0,0.4,0.2,0.4,0.4v1.1c0,0.2-0.2,0.4-0.4,0.4H102c-0.2,0-0.4-0.2-0.4-0.4v-1.1
				C101.6,39.9,101.8,39.7,102,39.7z"/>
		</g>
	</g>
	<g>
		
			<linearGradient id="SVGID_4_" gradientUnits="userSpaceOnUse" x1="32.27" y1="307.4814" x2="32.27" y2="286.9014" gradientTransform="matrix(1 0 0 1 0 -252.6814)">
			<stop  offset="0" style="stop-color:#32BEDD"/>
			<stop  offset="0.18" style="stop-color:#32CAEA"/>
			<stop  offset="0.41" style="stop-color:#32D2F2"/>
			<stop  offset="0.78" style="stop-color:#32D4F5"/>
		</linearGradient>
		<path class="st9" d="M14.8,34.2h34.9v19.4c0,0.6-0.5,1.2-1.2,1.2H16c-0.6,0-1.2-0.5-1.2-1.2V34.2z"/>
		<path class="st5" d="M16,26.8h32.5c0.6,0,1.2,0.5,1.2,1.1c0,0,0,0,0,0.1v6.3H14.8V28C14.8,27.4,15.3,26.8,16,26.8
			C16,26.8,16,26.8,16,26.8z"/>
		<circle class="st6" cx="40.1" cy="43.2" r="2.8"/>
		<circle class="st6" cx="32.4" cy="43.2" r="2.8"/>
		<circle class="st6" cx="24.4" cy="43.2" r="2.8"/>
		<path class="st6" d="M20.1,29h24.3c0.3,0,0.6,0.3,0.6,0.6v1.9c0,0.3-0.3,0.6-0.6,0.6H20.1c-0.3,0-0.6-0.3-0.6-0.6v-1.9
			C19.5,29.3,19.8,29,20.1,29z"/>
	</g>
	<g>
		<line class="st10" x1="58.1" y1="138.5" x2="58.1" y2="115.9"/>
		<polygon class="st2" points="61.8,117 58.1,110.5 54.3,117 		"/>
	</g>
	<g>
		<path class="st10" d="M45.6,83.6H24.3c-2.8,0-5-2.2-5-5V63.3"/>
		<polygon class="st2" points="23.1,64.4 19.3,57.9 15.6,64.4 		"/>
	</g>
	<g>
		<path class="st10" d="M97.3,63.3v15.3c0,2.8-2.2,5-5,5H69"/>
		<polygon class="st2" points="93.6,64.4 97.3,57.9 101.1,64.4 		"/>
	</g>
	<g>
		
			<linearGradient id="SVGID_5_" gradientUnits="userSpaceOnUse" x1="38.255" y1="428.0264" x2="40.625" y2="430.3964" gradientTransform="matrix(1 0 0 1 2.9 -253.2214)">
			<stop  offset="0" style="stop-color:#86D633"/>
			<stop  offset="0.24" style="stop-color:#83D232"/>
			<stop  offset="0.5" style="stop-color:#7CC52F"/>
			<stop  offset="0.76" style="stop-color:#6FB02A"/>
			<stop  offset="1" style="stop-color:#5E9624"/>
		</linearGradient>
		<circle class="st11" cx="42.1" cy="175.8" r="1.7"/>
		
			<linearGradient id="SVGID_6_" gradientUnits="userSpaceOnUse" x1="32.9067" y1="428.034" x2="35.2667" y2="430.404" gradientTransform="matrix(1 0 0 1 2.9 -253.2214)">
			<stop  offset="0" style="stop-color:#86D633"/>
			<stop  offset="0.24" style="stop-color:#83D232"/>
			<stop  offset="0.5" style="stop-color:#7CC52F"/>
			<stop  offset="0.76" style="stop-color:#6FB02A"/>
			<stop  offset="1" style="stop-color:#5E9624"/>
		</linearGradient>
		<circle class="st12" cx="36.8" cy="175.8" r="1.7"/>
		
			<linearGradient id="SVGID_7_" gradientUnits="userSpaceOnUse" x1="27.5617" y1="428.029" x2="29.9217" y2="430.399" gradientTransform="matrix(1 0 0 1 2.9 -253.2214)">
			<stop  offset="0" style="stop-color:#86D633"/>
			<stop  offset="0.24" style="stop-color:#83D232"/>
			<stop  offset="0.5" style="stop-color:#7CC52F"/>
			<stop  offset="0.76" style="stop-color:#6FB02A"/>
			<stop  offset="1" style="stop-color:#5E9624"/>
		</linearGradient>
		<circle class="st13" cx="31.4" cy="175.8" r="1.7"/>
		<path class="st14" d="M32.6,182.5l-1,1c-0.2,0.2-0.4,0.2-0.6,0l0,0l-7.1-7.1c-0.3-0.3-0.3-0.9,0-1.2l0,0l1-1l0,0l7.7,7.7
			C32.8,182,32.8,182.3,32.6,182.5C32.7,182.4,32.7,182.4,32.6,182.5L32.6,182.5z"/>
		<path class="st15" d="M31.5,168.1l1,1c0.2,0.2,0.2,0.4,0,0.6l-7.6,7.6l0,0l-1-1c-0.3-0.3-0.3-0.9,0-1.2l0,0l7-7
			C31.1,168,31.4,168,31.5,168.1z"/>
		<path class="st14" d="M48.5,174.2l1,1c0.3,0.3,0.3,0.9,0,1.2l0,0l-7.1,7.1c-0.2,0.2-0.4,0.2-0.6,0c0,0,0,0,0,0l0,0l-1-1
			c-0.2-0.2-0.2-0.4,0-0.6c0,0,0,0,0,0l0,0L48.5,174.2z"/>
		<path class="st15" d="M49.5,176.3l-1,0.9l0,0l-7.6-7.6c-0.2-0.2-0.2-0.4,0-0.6l0,0l1-1c0.2-0.2,0.4-0.2,0.6,0c0,0,0,0,0,0l0,0l7,7
			C49.8,175.4,49.8,176,49.5,176.3L49.5,176.3L49.5,176.3z"/>
	</g>
	<g id="ad94e297-0e86-4eaf-aac0-d146ee9aea65">
		<g>
			<path class="st16" d="M54,100.2l-4.7-4.8c-0.3,0.1-0.5,0.1-0.8,0.1c-1.3,0-2.4-1.1-2.4-2.4s1.1-2.4,2.4-2.4c1,0,1.9,0.6,2.3,1.5
				h4.6v1.6h-4.6c-0.1,0.2-0.2,0.4-0.3,0.6l4.3,4.5l2.3-3.6V84.1h-3.2l4-4l3.9,4h-3.2v8.7l5.9-9l-6-6c-0.4-0.4-1-0.4-1.4,0
				c0,0,0,0,0,0l0,0L42.9,92.3c-0.4,0.4-0.4,1,0,1.4c0,0,0,0,0,0l0,0l14.5,14.5l-5.2-5.2L54,100.2z"/>
			<path class="st17" d="M57.3,100.4v-5.2l-2.3,3.6l1.7,1.8C56.8,100.6,57,100.5,57.3,100.4z"/>
			<path class="st17" d="M73.3,92.3l-8.5-8.5l-5.9,9v7.6c0.2,0.1,0.4,0.2,0.5,0.3l6.2-6.3c-0.1-0.2-0.2-0.4-0.3-0.6h-4.7v-1.6h4.7
				c0.5-1.2,1.9-1.8,3.2-1.3s1.8,1.9,1.3,3.2c-0.4,0.9-1.3,1.5-2.2,1.5c-0.2,0-0.5,0-0.7-0.1l-6.6,6.7c0.1,0.2,0.1,0.4,0.1,0.6
				c0.1,1.3-0.9,2.5-2.2,2.6c-1.3,0.1-2.5-0.9-2.6-2.2c0-0.1,0-0.2,0-0.2c0-0.3,0-0.6,0.1-0.9l-1.7-1.7l-1.8,2.8l5.2,5.2
				c0.4,0.4,1,0.4,1.4,0c0,0,0,0,0,0l14.5-14.5C73.6,93.4,73.7,92.7,73.3,92.3C73.3,92.3,73.3,92.3,73.3,92.3L73.3,92.3z"/>
			<path class="st18" d="M65.4,92.2h-4.7v1.6h4.7c-0.1-0.2-0.1-0.5-0.1-0.7C65.2,92.8,65.3,92.5,65.4,92.2z"/>
			<path class="st18" d="M50.8,93.8h4.5v-1.6h-4.6c0.1,0.3,0.2,0.6,0.2,0.9C51,93.4,50.9,93.6,50.8,93.8z"/>
			<path class="st18" d="M60.3,102.1l6.7-6.7c-0.5-0.2-1-0.5-1.3-1l-6.2,6.3C59.9,101.1,60.2,101.5,60.3,102.1z"/>
			<path class="st18" d="M56.7,100.7L55,98.9l-4.4-4.5c-0.3,0.5-0.7,0.8-1.3,1l4.7,4.8l1.7,1.8C55.9,101.5,56.2,101,56.7,100.7z"/>
			<path class="st0" d="M62,84.1l-3.9-4l-4,4h3.2v16.3c-0.2,0-0.4,0.1-0.6,0.3c-0.5,0.3-0.8,0.8-1,1.3c-0.4,1.3,0.3,2.6,1.6,3
				c1.3,0.4,2.6-0.3,3-1.6c0.1-0.2,0.1-0.5,0.1-0.7c0-0.2,0-0.4-0.1-0.6c-0.1-0.5-0.5-1-0.9-1.3c-0.2-0.1-0.3-0.2-0.5-0.3V84.1H62z
				 M58.1,104.1c-0.7,0-1.3-0.6-1.3-1.3c0-0.7,0.6-1.3,1.3-1.3s1.3,0.6,1.3,1.3l0,0l0,0C59.4,103.5,58.8,104.1,58.1,104.1
				L58.1,104.1z"/>
			<path class="st0" d="M50.6,94.4c0.1-0.2,0.2-0.4,0.3-0.6c0.1-0.2,0.1-0.5,0.1-0.7c0-0.3-0.1-0.6-0.2-0.9
				c-0.5-1.2-1.9-1.8-3.1-1.3c-1.2,0.5-1.8,1.9-1.3,3.1c0.4,0.9,1.2,1.5,2.2,1.5c0.3,0,0.5-0.1,0.8-0.1
				C49.8,95.2,50.3,94.9,50.6,94.4z M48.6,94.4c-0.7,0-1.4-0.6-1.4-1.3s0.6-1.3,1.3-1.3c0.7,0,1.4,0.6,1.4,1.3l0,0l0,0
				C50,93.8,49.4,94.4,48.6,94.4C48.6,94.4,48.6,94.4,48.6,94.4L48.6,94.4L48.6,94.4z"/>
			<path class="st0" d="M67,95.4c0.2,0.1,0.4,0.1,0.7,0.1c1.3,0,2.4-1.1,2.4-2.4s-1.1-2.4-2.4-2.4c-1,0-1.9,0.6-2.3,1.5
				c-0.1,0.3-0.2,0.6-0.2,0.9c0,0.2,0,0.5,0.1,0.7c0.1,0.2,0.2,0.4,0.3,0.6C66,94.9,66.5,95.3,67,95.4z M67.7,91.8
				c0.7,0.1,1.3,0.7,1.2,1.5c-0.1,0.7-0.7,1.3-1.5,1.2c-0.6-0.1-1.1-0.6-1.2-1.2c-0.1-0.7,0.4-1.4,1.2-1.5c0,0,0,0,0,0
				C67.5,91.8,67.5,91.8,67.7,91.8L67.7,91.8z"/>
			<path class="st19" d="M58.1,101.4c-0.7,0-1.3,0.6-1.3,1.3c0,0.7,0.6,1.3,1.3,1.3s1.3-0.6,1.3-1.3l0,0l0,0
				C59.4,102,58.8,101.4,58.1,101.4z"/>
			<circle class="st19" cx="48.5" cy="93.1" r="1.3"/>
			<path class="st19" d="M67.6,94.4c0.7,0,1.4-0.6,1.4-1.3c0-0.7-0.6-1.4-1.3-1.4c-0.7,0-1.4,0.6-1.4,1.3c0,0,0,0,0,0l0,0
				C66.3,93.9,66.9,94.4,67.6,94.4z"/>
		</g>
	</g>
	<g>
		<path class="st0" d="M25.5,130.5h65.1c0.2,0,0.3,0.1,0.3,0.3v29.4c0,0.2-0.1,0.3-0.3,0.3H25.5c-0.2,0-0.3-0.1-0.3-0.3v-29.4
			C25.2,130.6,25.4,130.5,25.5,130.5z"/>
		<path class="st3" d="M25.5,130.5h65.1c0.2,0,0.3,0.1,0.3,0.3v29.4c0,0.2-0.1,0.3-0.3,0.3H25.5c-0.2,0-0.3-0.1-0.3-0.3v-29.4
			C25.2,130.6,25.4,130.5,25.5,130.5z"/>
	</g>
</g>
<g id="Text_1_">
	<g>
		<path class="st20" d="M24.9,197.6v-8.7h2.4c0.7,0,1.3,0.2,1.8,0.6c0.4,0.4,0.7,0.8,0.7,1.4c0,0.5-0.1,0.9-0.4,1.3
			c-0.3,0.4-0.6,0.6-1.1,0.8v0c0.6,0.1,1,0.3,1.4,0.7c0.3,0.4,0.5,0.9,0.5,1.5c0,0.7-0.3,1.3-0.8,1.8s-1.2,0.7-2,0.7H24.9z
			 M25.9,189.9v2.8h1c0.6,0,1-0.1,1.3-0.4s0.5-0.6,0.5-1.1c0-0.8-0.5-1.3-1.6-1.3H25.9z M25.9,193.6v3.1h1.4c0.6,0,1.1-0.1,1.4-0.4
			c0.3-0.3,0.5-0.7,0.5-1.2c0-1-0.7-1.5-2.1-1.5H25.9z"/>
		<path class="st20" d="M37.1,197.6h-0.9v-5c-0.1,0.2-0.2,0.4-0.4,0.7l-2.8,4.2h-1v-6.2h0.9v4.9c0-0.1,0.2-0.3,0.3-0.6l2.9-4.3h1
			V197.6z"/>
		<path class="st20" d="M40.1,196.7L40.1,196.7l0,3.8h-1v-9.1h1v1.1h0c0.5-0.8,1.2-1.2,2.1-1.2c0.8,0,1.4,0.3,1.9,0.8
			c0.4,0.6,0.7,1.3,0.7,2.2c0,1-0.3,1.9-0.7,2.5c-0.5,0.6-1.2,0.9-2.1,0.9C41.2,197.8,40.5,197.4,40.1,196.7z M40.1,194.2v0.9
			c0,0.5,0.2,1,0.5,1.3c0.3,0.4,0.7,0.5,1.3,0.5c0.6,0,1.1-0.2,1.4-0.7s0.5-1.1,0.5-1.9c0-0.7-0.2-1.2-0.5-1.6
			c-0.3-0.4-0.7-0.6-1.3-0.6c-0.6,0-1,0.2-1.4,0.6C40.3,193.1,40.1,193.6,40.1,194.2z"/>
		<path class="st20" d="M50.2,192.3h-1.8v5.4h-1v-5.4h-1.8v-0.9h4.7V192.3z"/>
		<path class="st20" d="M56.4,191.4l-2.8,7.2c-0.5,1.3-1.2,1.9-2.1,1.9c-0.3,0-0.5,0-0.6-0.1v-0.9c0.2,0.1,0.4,0.1,0.6,0.1
			c0.5,0,0.9-0.3,1.1-0.9l0.5-1.2l-2.4-6.2h1.1l1.7,4.8c0,0.1,0.1,0.2,0.1,0.5h0c0-0.1,0.1-0.3,0.1-0.5l1.7-4.8H56.4z"/>
		<path class="st20" d="M61.9,197.6h-1v-1h0c-0.4,0.7-1.1,1.1-1.9,1.1c-0.6,0-1.1-0.2-1.4-0.5c-0.3-0.3-0.5-0.8-0.5-1.3
			c0-1.2,0.7-1.8,2-2l1.8-0.3c0-1.1-0.4-1.6-1.3-1.6c-0.7,0-1.4,0.3-2,0.8v-1c0.6-0.4,1.3-0.6,2.1-0.6c1.4,0,2.2,0.8,2.2,2.3V197.6z
			 M60.9,194.5l-1.5,0.2c-0.5,0.1-0.8,0.2-1,0.3s-0.3,0.5-0.3,0.9c0,0.3,0.1,0.6,0.3,0.7c0.2,0.2,0.5,0.3,0.9,0.3
			c0.5,0,0.9-0.2,1.2-0.5c0.3-0.3,0.5-0.8,0.5-1.3V194.5z"/>
		<path class="st20" d="M68.3,197.6h-1v-5.4h-1.4c-0.2,2-0.4,3.4-0.8,4.2c-0.4,0.8-0.9,1.2-1.6,1.2c-0.2,0-0.4,0-0.5-0.1v-0.9
			c0.1,0.1,0.3,0.1,0.5,0.1c0.9,0,1.4-1.8,1.7-5.5h3.2V197.6z"/>
		<path class="st20" d="M70.3,197.6v-6.2h1v2.4H73c0.6,0,1.1,0.2,1.5,0.5c0.4,0.3,0.6,0.8,0.6,1.4c0,0.6-0.2,1.1-0.6,1.4
			c-0.4,0.3-0.8,0.5-1.4,0.5H70.3z M71.3,194.7v2.1h1.5c0.8,0,1.2-0.4,1.2-1.1c0-0.7-0.4-1-1.2-1H71.3z"/>
		<path class="st20" d="M81.7,197.6h-1v-2.8h-3.1v2.8h-1v-6.2h1v2.6h3.1v-2.6h1V197.6z"/>
		<path class="st20" d="M88.1,197.6h-1v-1h0c-0.4,0.7-1.1,1.1-1.9,1.1c-0.6,0-1.1-0.2-1.4-0.5c-0.3-0.3-0.5-0.8-0.5-1.3
			c0-1.2,0.7-1.8,2-2l1.8-0.3c0-1.1-0.4-1.6-1.3-1.6c-0.7,0-1.4,0.3-2,0.8v-1c0.6-0.4,1.3-0.6,2.1-0.6c1.4,0,2.2,0.8,2.2,2.3V197.6z
			 M87.2,194.5l-1.5,0.2c-0.5,0.1-0.8,0.2-1,0.3s-0.3,0.5-0.3,0.9c0,0.3,0.1,0.6,0.3,0.7c0.2,0.2,0.5,0.3,0.9,0.3
			c0.5,0,0.9-0.2,1.2-0.5c0.3-0.3,0.5-0.8,0.5-1.3V194.5z"/>
		<path class="st20" d="M94.3,197.6h-1v-2.6h-0.8c-0.4,0-0.8,0.3-1.1,1l-0.8,1.6h-1.1l1-1.9c0.2-0.4,0.5-0.7,0.9-0.9
			c-0.5-0.1-0.8-0.2-1.1-0.5s-0.4-0.7-0.4-1.1c0-0.6,0.2-1,0.6-1.3c0.4-0.3,0.9-0.5,1.7-0.5h2.1V197.6z M93.3,194.2v-2h-1.2
			c-0.8,0-1.2,0.3-1.2,1c0,0.7,0.4,1,1.2,1H93.3z"/>
		<path class="st20" d="M103.9,197.4c-0.5,0.3-1,0.4-1.7,0.4c-0.9,0-1.6-0.3-2.1-0.9c-0.5-0.6-0.8-1.3-0.8-2.2c0-1,0.3-1.8,0.9-2.5
			c0.6-0.6,1.4-0.9,2.3-0.9c0.5,0,1,0.1,1.4,0.3v1c-0.5-0.3-0.9-0.5-1.5-0.5c-0.6,0-1.1,0.2-1.5,0.7c-0.4,0.5-0.6,1.1-0.6,1.8
			c0,0.7,0.2,1.3,0.6,1.7c0.4,0.4,0.9,0.6,1.5,0.6c0.5,0,1-0.2,1.5-0.5V197.4z"/>
		<path class="st20" d="M110.4,194.8h-4.3c0,0.7,0.2,1.2,0.6,1.6s0.8,0.6,1.5,0.6c0.7,0,1.3-0.2,1.9-0.7v0.9
			c-0.5,0.4-1.3,0.6-2.1,0.6c-0.9,0-1.5-0.3-2-0.8c-0.5-0.6-0.7-1.4-0.7-2.4c0-1,0.3-1.8,0.8-2.4s1.2-0.9,2-0.9s1.4,0.3,1.9,0.8
			c0.4,0.5,0.7,1.3,0.7,2.2V194.8z M109.4,193.9c0-0.6-0.1-1-0.4-1.3c-0.3-0.3-0.6-0.5-1.1-0.5c-0.5,0-0.9,0.2-1.2,0.5
			c-0.3,0.3-0.5,0.8-0.6,1.3H109.4z"/>
		<path class="st20" d="M115.8,192.3H114v5.4h-1v-5.4h-1.8v-0.9h4.7V192.3z"/>
		<path class="st20" d="M117.1,197.6v-6.2h1v2.4h1.7c0.6,0,1.1,0.2,1.5,0.5s0.6,0.8,0.6,1.4c0,0.6-0.2,1.1-0.6,1.4
			c-0.4,0.3-0.8,0.5-1.4,0.5H117.1z M118,194.7v2.1h1.5c0.8,0,1.2-0.4,1.2-1.1c0-0.7-0.4-1-1.2-1H118z"/>
	</g>
	<g>
		<path class="st20" d="M54,73.3h-1.2l-4.3-6.8c-0.1-0.2-0.2-0.3-0.3-0.5h0c0,0.2,0,0.6,0,1.2v6.2h-1v-8.5h1.3l4.2,6.7
			c0.2,0.3,0.3,0.5,0.3,0.6h0c0-0.2-0.1-0.7-0.1-1.3v-6h1V73.3z"/>
		<path class="st20" d="M62.8,73.3h-1.1l-0.9-2.4h-3.6l-0.8,2.4h-1.1l3.2-8.5h1L62.8,73.3z M60.5,70l-1.3-3.6c0-0.1-0.1-0.3-0.1-0.6
			h0c0,0.2-0.1,0.4-0.1,0.6L57.6,70H60.5z"/>
		<path class="st20" d="M68.1,65.7h-2.4v7.6h-1v-7.6h-2.4v-0.9h5.8V65.7z"/>
	</g>
	<g>
		<path class="st20" d="M6.6,12.3c-0.7,0-1.2-0.2-1.6-0.7s-0.6-1.1-0.6-1.8c0-0.8,0.2-1.4,0.6-1.9c0.4-0.5,1-0.7,1.7-0.7
			c0.7,0,1.2,0.2,1.6,0.7C8.7,8.4,8.9,9,8.9,9.7c0,0.8-0.2,1.4-0.6,1.9C7.8,12.1,7.3,12.3,6.6,12.3z M6.6,7.8
			c-0.5,0-0.9,0.2-1.2,0.6C5.1,8.7,4.9,9.2,4.9,9.8s0.2,1.1,0.5,1.5c0.3,0.4,0.7,0.6,1.2,0.6c0.5,0,0.9-0.2,1.2-0.5
			c0.3-0.4,0.5-0.8,0.5-1.5c0-0.6-0.1-1.1-0.4-1.5C7.5,7.9,7.1,7.8,6.6,7.8z"/>
		<path class="st20" d="M12.4,7v0.5c-0.1,0.1-0.2,0.1-0.4,0.2c-0.5,0.1-0.9,0.2-1.1,0.2c-0.2,0.1-0.4,0.2-0.5,0.5
			c-0.1,0.2-0.2,0.6-0.2,1h0c0.3-0.4,0.7-0.6,1.1-0.6c0.5,0,0.8,0.2,1.1,0.5c0.3,0.3,0.4,0.7,0.4,1.3c0,0.5-0.1,1-0.4,1.3
			c-0.3,0.3-0.7,0.5-1.2,0.5c-0.5,0-0.9-0.2-1.2-0.6c-0.3-0.4-0.4-0.9-0.4-1.6c0-0.6,0.1-1,0.2-1.4C9.8,8.3,10,8,10.2,7.8
			c0.2-0.2,0.4-0.3,0.6-0.4s0.6-0.2,1.1-0.3C12.1,7.1,12.3,7.1,12.4,7z M10.1,10v0.5c0,0.2,0,0.4,0.1,0.5c0.1,0.2,0.1,0.3,0.2,0.5
			s0.2,0.2,0.3,0.3s0.3,0.1,0.4,0.1c0.3,0,0.6-0.1,0.7-0.4c0.2-0.2,0.3-0.5,0.3-0.9c0-0.4-0.1-0.7-0.3-1c-0.2-0.2-0.5-0.4-0.8-0.4
			C10.7,9.3,10.4,9.5,10.1,10z"/>
		<path class="st20" d="M18.6,13.5h-0.5v-1.3h-4.4V8.7h0.5v3h1.4v-3h0.5v3h1.4v-3h0.6v3h0.5V13.5z"/>
		<path class="st20" d="M22.1,10.6h-2.4c0,0.4,0.1,0.7,0.3,0.9s0.5,0.3,0.8,0.3c0.4,0,0.7-0.1,1.1-0.4V12c-0.3,0.2-0.7,0.3-1.2,0.3
			c-0.5,0-0.9-0.2-1.1-0.5c-0.3-0.3-0.4-0.8-0.4-1.3c0-0.5,0.2-1,0.5-1.3c0.3-0.3,0.7-0.5,1.1-0.5s0.8,0.1,1,0.4s0.4,0.7,0.4,1.2
			V10.6z M21.6,10.1c0-0.3-0.1-0.6-0.2-0.8S21,9.1,20.7,9.1c-0.3,0-0.5,0.1-0.7,0.3c-0.2,0.2-0.3,0.4-0.3,0.7H21.6z"/>
		<path class="st20" d="M26,13.5h-0.5v-1.3h-2.6v1.3h-0.5v-1.8h0.3c0.6-0.9,0.9-1.9,0.9-3h1.8v3H26V13.5z M24.9,11.8V9.2h-0.8
			c-0.1,0.9-0.3,1.8-0.8,2.5H24.9z"/>
		<path class="st20" d="M28.1,12.3c-0.5,0-0.9-0.2-1.2-0.5c-0.3-0.3-0.5-0.8-0.5-1.3c0-0.6,0.2-1,0.5-1.4c0.3-0.3,0.7-0.5,1.3-0.5
			c0.5,0,0.9,0.2,1.2,0.5c0.3,0.3,0.4,0.8,0.4,1.3c0,0.6-0.2,1-0.5,1.3C29.1,12.1,28.7,12.3,28.1,12.3z M28.2,9.1
			c-0.4,0-0.6,0.1-0.8,0.4c-0.2,0.2-0.3,0.6-0.3,1c0,0.4,0.1,0.7,0.3,1s0.5,0.4,0.8,0.4c0.4,0,0.6-0.1,0.8-0.4
			c0.2-0.2,0.3-0.6,0.3-1c0-0.4-0.1-0.8-0.3-1C28.8,9.2,28.5,9.1,28.2,9.1z"/>
		<path class="st20" d="M33.1,12.1c-0.3,0.2-0.6,0.2-0.9,0.2c-0.5,0-0.9-0.2-1.2-0.5c-0.3-0.3-0.5-0.7-0.5-1.3c0-0.6,0.2-1,0.5-1.4
			c0.3-0.3,0.8-0.5,1.3-0.5c0.3,0,0.6,0.1,0.8,0.2v0.6c-0.3-0.2-0.5-0.3-0.8-0.3c-0.4,0-0.6,0.1-0.9,0.4c-0.2,0.3-0.3,0.6-0.3,1
			c0,0.4,0.1,0.7,0.3,1c0.2,0.2,0.5,0.4,0.9,0.4c0.3,0,0.6-0.1,0.8-0.3V12.1z"/>
		<path class="st20" d="M36.1,9.2h-1v3h-0.6v-3h-1V8.7h2.6V9.2z"/>
		<path class="st20" d="M39.5,8.7l-1.6,4.1c-0.3,0.7-0.7,1.1-1.2,1.1c-0.1,0-0.3,0-0.4,0v-0.5c0.1,0,0.2,0.1,0.3,0.1
			c0.3,0,0.5-0.2,0.6-0.5l0.3-0.7l-1.3-3.5h0.6l0.9,2.7c0,0,0,0.1,0.1,0.3h0c0-0.1,0-0.1,0.1-0.3l1-2.7H39.5z"/>
		<path class="st20" d="M42.9,12.2h-0.5v-3h-1.8v3h-0.5V8.7h2.9V12.2z"/>
		<path class="st20" d="M46.9,12.2h-0.5v-1.6h-1.8v1.6H44V8.7h0.5v1.4h1.8V8.7h0.5V12.2z"/>
		<path class="st20" d="M48,12.2V8.7h0.5v1.3h0.9c0.4,0,0.6,0.1,0.8,0.3c0.2,0.2,0.3,0.4,0.3,0.8c0,0.3-0.1,0.6-0.3,0.8
			s-0.5,0.3-0.8,0.3H48z M48.5,10.6v1.2h0.8c0.5,0,0.7-0.2,0.7-0.6c0-0.4-0.2-0.6-0.7-0.6H48.5z M51.7,12.2h-0.5V8.7h0.5V12.2z"/>
		<path class="st20" d="M55.7,12.2h-0.5V9.4c0,0.1-0.1,0.2-0.2,0.4l-1.6,2.4h-0.6V8.7h0.5v2.8c0-0.1,0.1-0.2,0.2-0.3l1.6-2.4h0.6
			V12.2z M55.5,7c0,0.3-0.2,0.6-0.4,0.8c-0.2,0.2-0.5,0.3-0.8,0.3c-0.3,0-0.6-0.1-0.8-0.3c-0.2-0.2-0.3-0.4-0.4-0.8h0.5
			c0,0.4,0.2,0.6,0.6,0.6c0.2,0,0.3-0.1,0.4-0.2C54.9,7.4,55,7.2,55,7H55.5z"/>
		<path class="st20" d="M59.4,12.2h-0.6V7.3h0.6V12.2z"/>
		<path class="st20" d="M61.2,10.4v1.9h-0.6V7.3h1.3c0.5,0,0.9,0.1,1.2,0.4c0.3,0.3,0.4,0.6,0.4,1.1s-0.2,0.8-0.5,1.1
			c-0.3,0.3-0.7,0.4-1.3,0.4H61.2z M61.2,7.8v2h0.6c0.4,0,0.7-0.1,0.9-0.3C62.9,9.4,63,9.1,63,8.8c0-0.6-0.4-1-1.1-1H61.2z"/>
		<path class="st20" d="M66.2,10.5h-1.8v-0.4h1.8V10.5z"/>
		<path class="st20" d="M29.3,20.6h-0.5v-0.5h0c-0.2,0.4-0.6,0.6-1.1,0.6c-0.3,0-0.6-0.1-0.8-0.3s-0.3-0.4-0.3-0.7
			c0-0.7,0.4-1,1.1-1.1l1-0.1c0-0.6-0.2-0.9-0.7-0.9c-0.4,0-0.8,0.1-1.1,0.4v-0.6c0.3-0.2,0.7-0.3,1.2-0.3c0.8,0,1.2,0.4,1.2,1.3
			V20.6z M28.7,18.9L27.9,19c-0.3,0-0.4,0.1-0.6,0.2c-0.1,0.1-0.2,0.3-0.2,0.5c0,0.2,0.1,0.3,0.2,0.4c0.1,0.1,0.3,0.2,0.5,0.2
			c0.3,0,0.5-0.1,0.7-0.3c0.2-0.2,0.3-0.4,0.3-0.7V18.9z"/>
		<path class="st20" d="M33.3,21.9h-0.5v-1.3h-2.6v1.3h-0.5v-1.8h0.3c0.6-0.9,0.9-1.9,0.9-3h1.8v3h0.5V21.9z M32.3,20.2v-2.5h-0.8
			c-0.1,0.9-0.3,1.8-0.8,2.5H32.3z"/>
		<path class="st20" d="M34.6,20.1L34.6,20.1l0,2.1h-0.5v-5.1h0.5v0.6h0c0.3-0.5,0.7-0.7,1.2-0.7c0.4,0,0.8,0.2,1,0.5
			c0.2,0.3,0.4,0.7,0.4,1.3c0,0.6-0.1,1.1-0.4,1.4c-0.3,0.4-0.7,0.5-1.1,0.5C35.2,20.7,34.9,20.5,34.6,20.1z M34.6,18.7v0.5
			c0,0.3,0.1,0.5,0.3,0.7c0.2,0.2,0.4,0.3,0.7,0.3c0.3,0,0.6-0.1,0.8-0.4c0.2-0.3,0.3-0.6,0.3-1.1c0-0.4-0.1-0.7-0.3-0.9
			c-0.2-0.2-0.4-0.3-0.7-0.3c-0.3,0-0.6,0.1-0.8,0.3C34.7,18.1,34.6,18.4,34.6,18.7z"/>
		<path class="st20" d="M40.9,19h-2.4c0,0.4,0.1,0.7,0.3,0.9s0.5,0.3,0.8,0.3c0.4,0,0.7-0.1,1.1-0.4v0.5c-0.3,0.2-0.7,0.3-1.2,0.3
			c-0.5,0-0.9-0.2-1.1-0.5c-0.3-0.3-0.4-0.8-0.4-1.3c0-0.5,0.2-1,0.5-1.3c0.3-0.3,0.7-0.5,1.1-0.5s0.8,0.1,1,0.4s0.4,0.7,0.4,1.2V19
			z M40.3,18.5c0-0.3-0.1-0.6-0.2-0.8s-0.4-0.3-0.6-0.3c-0.3,0-0.5,0.1-0.7,0.3c-0.2,0.2-0.3,0.4-0.3,0.7H40.3z"/>
		<path class="st20" d="M44,20.5c-0.3,0.2-0.6,0.2-0.9,0.2c-0.5,0-0.9-0.2-1.2-0.5c-0.3-0.3-0.5-0.7-0.5-1.3c0-0.6,0.2-1,0.5-1.4
			c0.3-0.3,0.8-0.5,1.3-0.5c0.3,0,0.6,0.1,0.8,0.2v0.6c-0.3-0.2-0.5-0.3-0.8-0.3c-0.4,0-0.6,0.1-0.9,0.4c-0.2,0.3-0.3,0.6-0.3,1
			c0,0.4,0.1,0.7,0.3,1c0.2,0.2,0.5,0.4,0.9,0.4c0.3,0,0.6-0.1,0.8-0.3V20.5z"/>
	</g>
	<g>
		<path class="st20" d="M87.9,12.2h-0.6V7.9h-2.5v4.4h-0.6V7.3h3.6V12.2z"/>
		<path class="st20" d="M89.6,11.7L89.6,11.7l0,2.1h-0.5V8.7h0.5v0.6h0c0.3-0.5,0.7-0.7,1.2-0.7c0.4,0,0.8,0.2,1,0.5
			c0.2,0.3,0.4,0.7,0.4,1.3c0,0.6-0.1,1.1-0.4,1.4c-0.3,0.4-0.7,0.5-1.1,0.5C90.2,12.3,89.9,12.1,89.6,11.7z M89.6,10.3v0.5
			c0,0.3,0.1,0.5,0.3,0.7c0.2,0.2,0.4,0.3,0.7,0.3c0.3,0,0.6-0.1,0.8-0.4s0.3-0.6,0.3-1.1c0-0.4-0.1-0.7-0.3-0.9S91,9.1,90.7,9.1
			c-0.3,0-0.6,0.1-0.8,0.3C89.7,9.7,89.6,10,89.6,10.3z"/>
		<path class="st20" d="M95.9,10.6h-2.4c0,0.4,0.1,0.7,0.3,0.9c0.2,0.2,0.5,0.3,0.8,0.3c0.4,0,0.7-0.1,1.1-0.4V12
			c-0.3,0.2-0.7,0.3-1.2,0.3c-0.5,0-0.9-0.2-1.1-0.5c-0.3-0.3-0.4-0.8-0.4-1.3c0-0.5,0.2-1,0.5-1.3c0.3-0.3,0.7-0.5,1.1-0.5
			s0.8,0.1,1,0.4s0.4,0.7,0.4,1.2V10.6z M95.3,10.1c0-0.3-0.1-0.6-0.2-0.8c-0.2-0.2-0.4-0.3-0.6-0.3c-0.3,0-0.5,0.1-0.7,0.3
			c-0.2,0.2-0.3,0.4-0.3,0.7H95.3z"/>
		<path class="st20" d="M98.7,12.3v1.6h-0.5v-1.6h-0.1c-0.5,0-0.9-0.2-1.2-0.5s-0.5-0.8-0.5-1.3c0-0.6,0.2-1,0.5-1.4
			c0.3-0.3,0.7-0.5,1.2-0.5h0.1V7.2h0.5v1.4h0.1c0.5,0,0.9,0.2,1.2,0.5c0.3,0.3,0.5,0.8,0.5,1.4c0,0.5-0.2,1-0.5,1.3
			s-0.7,0.5-1.2,0.5H98.7z M98.2,11.8V9.1h-0.1c-0.3,0-0.6,0.1-0.8,0.4c-0.2,0.2-0.3,0.6-0.3,1c0,0.4,0.1,0.7,0.3,1
			C97.5,11.7,97.8,11.8,98.2,11.8L98.2,11.8z M98.7,9.1v2.7h0.1c0.3,0,0.6-0.1,0.8-0.4c0.2-0.2,0.3-0.6,0.3-1c0-0.4-0.1-0.8-0.3-1
			C99.5,9.2,99.2,9.1,98.7,9.1L98.7,9.1z"/>
		<path class="st20" d="M104.3,12.2h-0.5V9.4c0,0.1-0.1,0.2-0.2,0.4l-1.6,2.4h-0.6V8.7h0.5v2.8c0-0.1,0.1-0.2,0.2-0.3l1.6-2.4h0.6
			V12.2z"/>
		<path class="st20" d="M108.3,12.2h-0.8l-1.5-1.7h0v1.7h-0.5V8.7h0.5v1.6h0l1.4-1.6h0.7l-1.6,1.7L108.3,12.2z"/>
		<path class="st20" d="M111.2,12.1c-0.3,0.2-0.6,0.2-0.9,0.2c-0.5,0-0.9-0.2-1.2-0.5c-0.3-0.3-0.5-0.7-0.5-1.3c0-0.6,0.2-1,0.5-1.4
			c0.3-0.3,0.8-0.5,1.3-0.5c0.3,0,0.6,0.1,0.8,0.2v0.6c-0.3-0.2-0.5-0.3-0.8-0.3c-0.4,0-0.6,0.1-0.9,0.4c-0.2,0.3-0.3,0.6-0.3,1
			c0,0.4,0.1,0.7,0.3,1s0.5,0.4,0.8,0.4c0.3,0,0.6-0.1,0.8-0.3V12.1z"/>
		<path class="st20" d="M114.5,12.2h-0.6V7.3h0.6V12.2z"/>
		<path class="st20" d="M116.3,10.4v1.9h-0.6V7.3h1.3c0.5,0,0.9,0.1,1.2,0.4c0.3,0.3,0.4,0.6,0.4,1.1s-0.2,0.8-0.5,1.1
			c-0.3,0.3-0.7,0.4-1.3,0.4H116.3z M116.3,7.8v2h0.6c0.4,0,0.7-0.1,0.9-0.3c0.2-0.2,0.3-0.4,0.3-0.8c0-0.6-0.4-1-1.1-1H116.3z"/>
		<path class="st20" d="M121.3,10.5h-1.8v-0.4h1.8V10.5z"/>
		<path class="st20" d="M94.9,20.6h-0.5v-0.5h0c-0.2,0.4-0.6,0.6-1.1,0.6c-0.3,0-0.6-0.1-0.8-0.3s-0.3-0.4-0.3-0.7
			c0-0.7,0.4-1,1.1-1.1l1-0.1c0-0.6-0.2-0.9-0.7-0.9c-0.4,0-0.8,0.1-1.1,0.4v-0.6c0.3-0.2,0.7-0.3,1.2-0.3c0.8,0,1.2,0.4,1.2,1.3
			V20.6z M94.4,18.9L93.5,19c-0.3,0-0.4,0.1-0.6,0.2c-0.1,0.1-0.2,0.3-0.2,0.5c0,0.2,0.1,0.3,0.2,0.4c0.1,0.1,0.3,0.2,0.5,0.2
			c0.3,0,0.5-0.1,0.7-0.3c0.2-0.2,0.3-0.4,0.3-0.7V18.9z"/>
		<path class="st20" d="M98.9,21.9h-0.5v-1.3h-2.6v1.3h-0.5v-1.8h0.3c0.6-0.9,0.9-1.9,0.9-3h1.8v3h0.5V21.9z M97.9,20.2v-2.5h-0.8
			c-0.1,0.9-0.3,1.8-0.8,2.5H97.9z"/>
		<path class="st20" d="M100.3,20.1L100.3,20.1l0,2.1h-0.5v-5.1h0.5v0.6h0c0.3-0.5,0.7-0.7,1.2-0.7c0.4,0,0.8,0.2,1,0.5
			c0.2,0.3,0.4,0.7,0.4,1.3c0,0.6-0.1,1.1-0.4,1.4c-0.3,0.4-0.7,0.5-1.1,0.5C100.9,20.7,100.5,20.5,100.3,20.1z M100.3,18.7v0.5
			c0,0.3,0.1,0.5,0.3,0.7c0.2,0.2,0.4,0.3,0.7,0.3c0.3,0,0.6-0.1,0.8-0.4c0.2-0.3,0.3-0.6,0.3-1.1c0-0.4-0.1-0.7-0.3-0.9
			c-0.2-0.2-0.4-0.3-0.7-0.3c-0.3,0-0.6,0.1-0.8,0.3C100.4,18.1,100.3,18.4,100.3,18.7z"/>
		<path class="st20" d="M106.5,19h-2.4c0,0.4,0.1,0.7,0.3,0.9c0.2,0.2,0.5,0.3,0.8,0.3c0.4,0,0.7-0.1,1.1-0.4v0.5
			c-0.3,0.2-0.7,0.3-1.2,0.3c-0.5,0-0.9-0.2-1.1-0.5c-0.3-0.3-0.4-0.8-0.4-1.3c0-0.5,0.2-1,0.5-1.3c0.3-0.3,0.7-0.5,1.1-0.5
			s0.8,0.1,1,0.4s0.4,0.7,0.4,1.2V19z M105.9,18.5c0-0.3-0.1-0.6-0.2-0.8c-0.2-0.2-0.4-0.3-0.6-0.3c-0.3,0-0.5,0.1-0.7,0.3
			s-0.3,0.4-0.3,0.7H105.9z"/>
		<path class="st20" d="M109.7,20.5c-0.3,0.2-0.6,0.2-0.9,0.2c-0.5,0-0.9-0.2-1.2-0.5c-0.3-0.3-0.5-0.7-0.5-1.3c0-0.6,0.2-1,0.5-1.4
			c0.3-0.3,0.8-0.5,1.3-0.5c0.3,0,0.6,0.1,0.8,0.2v0.6c-0.3-0.2-0.5-0.3-0.8-0.3c-0.4,0-0.6,0.1-0.9,0.4c-0.2,0.3-0.3,0.6-0.3,1
			c0,0.4,0.1,0.7,0.3,1c0.2,0.2,0.5,0.4,0.9,0.4c0.3,0,0.6-0.1,0.8-0.3V20.5z"/>
		<path class="st20" d="M113,20.6h-0.5v-0.5h0c-0.2,0.4-0.6,0.6-1.1,0.6c-0.3,0-0.6-0.1-0.8-0.3s-0.3-0.4-0.3-0.7
			c0-0.7,0.4-1,1.1-1.1l1-0.1c0-0.6-0.2-0.9-0.7-0.9c-0.4,0-0.8,0.1-1.1,0.4v-0.6c0.3-0.2,0.7-0.3,1.2-0.3c0.8,0,1.2,0.4,1.2,1.3
			V20.6z M112.4,18.9l-0.8,0.1c-0.3,0-0.4,0.1-0.6,0.2c-0.1,0.1-0.2,0.3-0.2,0.5c0,0.2,0.1,0.3,0.2,0.4c0.1,0.1,0.3,0.2,0.5,0.2
			c0.3,0,0.5-0.1,0.7-0.3c0.2-0.2,0.3-0.4,0.3-0.7V18.9z"/>
	</g>
	<g>
		<path class="st20" d="M108.4,148.9h-1v-7.8h-4.5v7.8h-1v-8.7h6.5V148.9z"/>
		<path class="st20" d="M113.1,149.1c-0.9,0-1.6-0.3-2.2-0.9s-0.8-1.4-0.8-2.3c0-1,0.3-1.9,0.8-2.4s1.3-0.9,2.3-0.9
			c0.9,0,1.6,0.3,2.1,0.9c0.5,0.6,0.8,1.4,0.8,2.4c0,1-0.3,1.8-0.8,2.4C114.7,148.8,114,149.1,113.1,149.1z M113.1,143.4
			c-0.6,0-1.1,0.2-1.5,0.7c-0.4,0.4-0.6,1-0.6,1.8c0,0.7,0.2,1.3,0.6,1.7s0.9,0.6,1.5,0.6c0.6,0,1.1-0.2,1.5-0.6s0.5-1,0.5-1.8
			c0-0.8-0.2-1.4-0.5-1.8C114.3,143.6,113.8,143.4,113.1,143.4z"/>
		<path class="st20" d="M123,151.2h-0.8v-2.3h-4.6v2.3h-0.8v-3.1h0.5c1-1.5,1.6-3.3,1.6-5.4h3.2v5.4h0.9V151.2z M121.1,148.1v-4.5
			h-1.4c-0.1,1.7-0.6,3.2-1.4,4.5H121.1z"/>
		<path class="st20" d="M128.5,148.7c-0.5,0.3-1,0.4-1.7,0.4c-0.9,0-1.6-0.3-2.1-0.9s-0.8-1.3-0.8-2.2c0-1,0.3-1.8,0.9-2.5
			c0.6-0.6,1.4-0.9,2.3-0.9c0.5,0,1,0.1,1.4,0.3v1c-0.5-0.3-0.9-0.5-1.5-0.5c-0.6,0-1.1,0.2-1.5,0.7c-0.4,0.5-0.6,1.1-0.6,1.8
			c0,0.7,0.2,1.3,0.6,1.7s0.9,0.6,1.5,0.6c0.5,0,1-0.2,1.5-0.5V148.7z"/>
		<path class="st20" d="M134.9,146.1h-4.3c0,0.7,0.2,1.2,0.6,1.6c0.4,0.4,0.8,0.6,1.5,0.6c0.7,0,1.3-0.2,1.9-0.7v0.9
			c-0.5,0.4-1.3,0.6-2.1,0.6c-0.9,0-1.5-0.3-2-0.8c-0.5-0.6-0.7-1.4-0.7-2.4c0-1,0.3-1.8,0.8-2.4c0.5-0.6,1.2-0.9,2-0.9
			s1.4,0.3,1.9,0.8c0.4,0.5,0.7,1.3,0.7,2.2V146.1z M133.9,145.2c0-0.6-0.1-1-0.4-1.3c-0.3-0.3-0.6-0.5-1.1-0.5
			c-0.5,0-0.9,0.2-1.2,0.5c-0.3,0.3-0.5,0.8-0.6,1.3H133.9z"/>
		<path class="st20" d="M140.2,143.6h-1.8v5.4h-1v-5.4h-1.8v-0.8h4.7V143.6z"/>
		<path class="st20" d="M141.4,148.9v-6.2h1v2.4h1.7c0.6,0,1.1,0.2,1.5,0.5s0.6,0.8,0.6,1.4c0,0.6-0.2,1.1-0.6,1.4s-0.8,0.5-1.4,0.5
			H141.4z M142.4,146v2.1h1.5c0.8,0,1.2-0.4,1.2-1.1c0-0.7-0.4-1-1.2-1H142.4z"/>
		<path class="st20" d="M154.5,142.5c0-0.3,0-0.5-0.1-0.7s-0.2-0.4-0.3-0.5c-0.1-0.1-0.3-0.2-0.5-0.3c-0.2-0.1-0.4-0.1-0.6-0.1
			c-0.2,0-0.4,0-0.6,0.1c-0.2,0.1-0.4,0.1-0.5,0.2s-0.3,0.2-0.5,0.3s-0.3,0.3-0.5,0.4v-1.1c0.3-0.3,0.6-0.5,0.9-0.6s0.8-0.2,1.3-0.2
			c0.4,0,0.7,0.1,1,0.2c0.3,0.1,0.6,0.3,0.8,0.5s0.4,0.4,0.5,0.7c0.1,0.3,0.2,0.6,0.2,1c0,0.3,0,0.7-0.1,0.9s-0.2,0.5-0.4,0.8
			c-0.2,0.2-0.4,0.5-0.6,0.7c-0.2,0.2-0.5,0.5-0.8,0.7c-0.4,0.3-0.7,0.5-1,0.7c-0.3,0.2-0.5,0.4-0.6,0.6c-0.2,0.2-0.3,0.4-0.3,0.5
			c-0.1,0.2-0.1,0.4-0.1,0.6h4.3v0.9h-5.3v-0.4c0-0.4,0-0.7,0.1-1s0.2-0.6,0.4-0.8c0.2-0.3,0.4-0.5,0.7-0.8s0.7-0.5,1.1-0.9
			c0.3-0.2,0.6-0.4,0.8-0.6c0.2-0.2,0.4-0.4,0.5-0.6c0.1-0.2,0.2-0.4,0.3-0.6C154.5,143,154.5,142.8,154.5,142.5z"/>
	</g>
	<g>
		<path class="st20" d="M37.9,148.9h-1v-7.8h-4.5v7.8h-1v-8.7h6.5V148.9z"/>
		<path class="st20" d="M42.5,149.1c-0.9,0-1.6-0.3-2.2-0.9s-0.8-1.4-0.8-2.3c0-1,0.3-1.9,0.8-2.4c0.6-0.6,1.3-0.9,2.3-0.9
			c0.9,0,1.6,0.3,2.1,0.9c0.5,0.6,0.8,1.4,0.8,2.4c0,1-0.3,1.8-0.8,2.4C44.2,148.8,43.4,149.1,42.5,149.1z M42.6,143.4
			c-0.6,0-1.1,0.2-1.5,0.7c-0.4,0.4-0.6,1-0.6,1.8c0,0.7,0.2,1.3,0.6,1.7s0.9,0.6,1.5,0.6c0.6,0,1.1-0.2,1.5-0.6s0.5-1,0.5-1.8
			c0-0.8-0.2-1.4-0.5-1.8C43.7,143.6,43.2,143.4,42.6,143.4z"/>
		<path class="st20" d="M52.4,151.2h-0.8v-2.3H47v2.3h-0.8v-3.1h0.5c1-1.5,1.6-3.3,1.6-5.4h3.2v5.4h0.9V151.2z M50.5,148.1v-4.5
			h-1.4c-0.1,1.7-0.6,3.2-1.4,4.5H50.5z"/>
		<path class="st20" d="M58,148.7c-0.5,0.3-1,0.4-1.7,0.4c-0.9,0-1.6-0.3-2.1-0.9c-0.5-0.6-0.8-1.3-0.8-2.2c0-1,0.3-1.8,0.9-2.5
			c0.6-0.6,1.4-0.9,2.3-0.9c0.5,0,1,0.1,1.4,0.3v1c-0.5-0.3-0.9-0.5-1.5-0.5c-0.6,0-1.1,0.2-1.5,0.7c-0.4,0.5-0.6,1.1-0.6,1.8
			c0,0.7,0.2,1.3,0.6,1.7s0.9,0.6,1.5,0.6c0.5,0,1-0.2,1.5-0.5V148.7z"/>
		<path class="st20" d="M64.3,146.1H60c0,0.7,0.2,1.2,0.6,1.6c0.4,0.4,0.8,0.6,1.5,0.6c0.7,0,1.3-0.2,1.9-0.7v0.9
			c-0.5,0.4-1.3,0.6-2.1,0.6c-0.9,0-1.5-0.3-2-0.8c-0.5-0.6-0.7-1.4-0.7-2.4c0-1,0.3-1.8,0.8-2.4c0.5-0.6,1.2-0.9,2-0.9
			s1.4,0.3,1.9,0.8s0.7,1.3,0.7,2.2V146.1z M63.3,145.2c0-0.6-0.1-1-0.4-1.3c-0.3-0.3-0.6-0.5-1.1-0.5c-0.5,0-0.9,0.2-1.2,0.5
			s-0.5,0.8-0.6,1.3H63.3z"/>
		<path class="st20" d="M69.7,143.6h-1.8v5.4h-1v-5.4H65v-0.8h4.7V143.6z"/>
		<path class="st20" d="M70.8,148.9v-6.2h1v2.4h1.7c0.6,0,1.1,0.2,1.5,0.5c0.4,0.3,0.6,0.8,0.6,1.4c0,0.6-0.2,1.1-0.6,1.4
			s-0.8,0.5-1.4,0.5H70.8z M71.8,146v2.1h1.5c0.8,0,1.2-0.4,1.2-1.1c0-0.7-0.4-1-1.2-1H71.8z"/>
		<path class="st20" d="M83.6,148.9h-1v-7.5c-0.1,0.1-0.2,0.2-0.3,0.3c-0.1,0.1-0.3,0.2-0.5,0.3c-0.2,0.1-0.4,0.2-0.6,0.3
			c-0.2,0.1-0.4,0.2-0.6,0.2v-1c0.2-0.1,0.4-0.1,0.7-0.2c0.2-0.1,0.5-0.2,0.7-0.3c0.2-0.1,0.5-0.3,0.7-0.4s0.4-0.3,0.5-0.4h0.4
			V148.9z"/>
	</g>
</g>
<g id="Source" class="st21">
	<g id="Shapes_1_" class="st22">
		<rect y="0" class="st0" width="170.5" height="202.6"/>
		<g>
			<g>
				<path class="st0" d="M20.5,120.5h145c2.8,0,5,2.2,5,5v45c0,2.8-2.2,5-5,5h-145c-2.8,0-5-2.2-5-5v-45
					C15.5,122.7,17.8,120.5,20.5,120.5z"/>
				<path class="st1" d="M20.5,120.5h145c2.8,0,5,2.2,5,5v45c0,2.8-2.2,5-5,5h-145c-2.8,0-5-2.2-5-5v-45
					C15.5,122.7,17.8,120.5,20.5,120.5z"/>
			</g>
			<path class="st2" d="M164.4,176h-1v-1h1V176z M161.4,176h-1v-1h1V176z M158.4,176h-1v-1h1V176z M155.4,176h-1v-1h1V176z
				 M152.4,176h-1v-1h1V176z M149.4,176h-1v-1h1V176z M146.4,176h-1v-1h1V176z M143.4,176h-1v-1h1V176z M140.4,176h-1v-1h1V176z
				 M137.4,176h-1v-1h1V176z M134.4,176h-1v-1h1V176z M131.4,176h-1v-1h1V176z M128.4,176h-1v-1h1V176z M125.4,176h-1v-1h1V176z
				 M122.4,176h-1v-1h1V176z M119.4,176h-1v-1h1V176z M116.4,176h-1v-1h1V176z M113.4,176h-1v-1h1V176z M110.4,176h-1v-1h1V176z
				 M107.4,176h-1v-1h1V176z M104.4,176h-1v-1h1V176z M101.4,176h-1v-1h1V176z M98.4,176h-1v-1h1V176z M95.4,176h-1v-1h1V176z
				 M92.4,176h-1v-1h1V176z M89.4,176h-1v-1h1V176z M86.4,176h-1v-1h1V176z M83.4,176h-1v-1h1V176z M80.4,176h-1v-1h1V176z
				 M77.4,176h-1v-1h1V176z M74.4,176h-1v-1h1V176z M71.4,176h-1v-1h1V176z M68.4,176h-1v-1h1V176z M65.4,176h-1v-1h1V176z
				 M62.4,176h-1v-1h1V176z M59.4,176h-1v-1h1V176z M56.4,176h-1v-1h1V176z M53.4,176h-1v-1h1V176z M20.3,176
				c-0.4,0-0.7-0.1-1.1-0.2l0.3-1c0.3,0.1,0.6,0.1,0.9,0.1L20.3,176z M166.5,175.9l-0.2-1c0.3-0.1,0.6-0.1,0.9-0.3l0.4,0.9
				C167.2,175.8,166.8,175.9,166.5,175.9L166.5,175.9z M17.2,174.8c-0.3-0.2-0.6-0.5-0.8-0.8l0.8-0.7c0.2,0.2,0.4,0.4,0.6,0.6
				L17.2,174.8z M169.3,174.4l-0.7-0.7c0.2-0.2,0.4-0.4,0.6-0.7l0.8,0.6C169.9,173.9,169.6,174.2,169.3,174.4L169.3,174.4z
				 M15.3,172.2c-0.1-0.4-0.2-0.7-0.2-1.1l1-0.1c0,0.3,0.1,0.6,0.2,0.9L15.3,172.2z M170.9,171.6l-1-0.2c0.1-0.3,0.1-0.6,0.1-0.9
				l1-0.1v0.1C171,170.9,171,171.2,170.9,171.6L170.9,171.6z M16,169.1h-1v-1h1V169.1z M171,168.4h-1v-1h1V168.4z M16,166h-1v-1h1
				V166z M171,165.4h-1v-1h1V165.4z M16,163h-1v-1h1V163z M171,162.4h-1v-1h1V162.4z M16,160h-1v-1h1V160z M171,159.4h-1v-1h1V159.4
				z M16,157h-1v-1h1V157z M171,156.4h-1v-1h1V156.4z M16,154h-1v-1h1V154z M171,153.4h-1v-1h1V153.4z M16,151h-1v-1h1V151z
				 M171,150.4h-1v-1h1V150.4z M16,148h-1v-1h1V148z M171,147.4h-1v-1h1V147.4z M16,145h-1v-1h1V145z M171,144.4h-1v-1h1V144.4z
				 M16,142h-1v-1h1V142z M171,141.4h-1v-1h1V141.4z M16,139h-1v-1h1V139z M171,138.4h-1v-1h1V138.4z M16,136h-1v-1h1V136z
				 M171,135.4h-1v-1h1V135.4z M16,133h-1v-1h1V133z M171,132.4h-1v-1h1V132.4z M16,130h-1v-1h1V130z M171,129.4h-1v-1h1V129.4z
				 M16,127h-1v-1h1V127z M171,126.4h-1v-0.9l1-0.1V126.4z M16.2,124.2l-1-0.3c0.1-0.3,0.3-0.7,0.4-1l0.9,0.5
				C16.4,123.6,16.3,123.9,16.2,124.2L16.2,124.2z M169.6,123.6c-0.1-0.3-0.3-0.5-0.4-0.8l0.8-0.6c0.2,0.3,0.4,0.6,0.5,1
				L169.6,123.6z M17.7,122l-0.6-0.8c0.3-0.2,0.6-0.4,0.9-0.6l0.5,0.9C18.2,121.6,17.9,121.8,17.7,122z M167.9,121.7
				c-0.3-0.2-0.5-0.3-0.8-0.4l0.3-0.9c0.4,0.1,0.7,0.3,1,0.5L167.9,121.7z M20.2,121l-0.1-1h0.4h0.6v1H20.2L20.2,121z M165.3,121h-1
				v-1h1V121z M162.3,121h-1v-1h1V121z M159.3,121h-1v-1h1V121z M156.3,121h-1v-1h1V121z M153.3,121h-1v-1h1V121z M150.3,121h-1v-1
				h1V121z M147.3,121h-1v-1h1V121z M144.3,121h-1v-1h1V121z M141.3,121h-1v-1h1V121z M138.3,121h-1v-1h1V121z M135.3,121h-1v-1h1
				V121z M132.3,121h-1v-1h1V121z M129.3,121h-1v-1h1V121z M126.3,121h-1v-1h1V121z M123.3,121h-1v-1h1V121z M120.3,121h-1v-1h1V121
				z M117.3,121h-1v-1h1V121z M114.3,121h-1v-1h1V121z M111.3,121h-1v-1h1V121z M108.3,121h-1v-1h1V121z M105.3,121h-1v-1h1V121z
				 M102.3,121h-1v-1h1V121z M99.3,121h-1v-1h1V121z M96.3,121h-1v-1h1V121z M93.3,121h-1v-1h1V121z M90.3,121h-1v-1h1V121z
				 M87.3,121h-1v-1h1V121z M84.3,121h-1v-1h1V121z M81.3,121h-1v-1h1V121z M78.3,121h-1v-1h1V121z M75.3,121h-1v-1h1V121z
				 M72.3,121h-1v-1h1V121z M69.3,121h-1v-1h1V121z M66.3,121h-1v-1h1V121z M63.3,121h-1v-1h1V121z M60.3,121h-1v-1h1V121z
				 M57.3,121h-1v-1h1V121z M54.3,121h-1v-1h1V121z M51.3,121h-1v-1h1V121z M48.3,121h-1v-1h1V121z M45.3,121h-1v-1h1V121z
				 M42.3,121h-1v-1h1V121z M39.3,121h-1v-1h1V121z M36.3,121h-1v-1h1V121z M33.3,121h-1v-1h1V121z M30.3,121h-1v-1h1V121z
				 M27.3,121h-1v-1h1V121z M24.3,121h-1v-1h1V121z"/>
		</g>
		<g>
			<path class="st0" d="M25.5,130.5h65.1c0.2,0,0.3,0.1,0.3,0.3v29.4c0,0.2-0.1,0.3-0.3,0.3H25.5c-0.2,0-0.3-0.1-0.3-0.3v-29.4
				C25.2,130.6,25.4,130.5,25.5,130.5z"/>
			<path class="st3" d="M25.5,130.5h65.1c0.2,0,0.3,0.1,0.3,0.3v29.4c0,0.2-0.1,0.3-0.3,0.3H25.5c-0.2,0-0.3-0.1-0.3-0.3v-29.4
				C25.2,130.6,25.4,130.5,25.5,130.5z"/>
		</g>
		<g>
			<path class="st0" d="M95.9,130.5H161c0.2,0,0.3,0.1,0.3,0.3v29.4c0,0.2-0.1,0.3-0.3,0.3H95.9c-0.2,0-0.3-0.1-0.3-0.3v-29.4
				C95.6,130.6,95.7,130.5,95.9,130.5z"/>
			<path class="st3" d="M95.9,130.5H161c0.2,0,0.3,0.1,0.3,0.3v29.4c0,0.2-0.1,0.3-0.3,0.3H95.9c-0.2,0-0.3-0.1-0.3-0.3v-29.4
				C95.6,130.6,95.7,130.5,95.9,130.5z"/>
		</g>
		<g>
			
				<linearGradient id="SVGID_8_" gradientUnits="userSpaceOnUse" x1="83.555" y1="-2014.1987" x2="83.555" y2="-2001.4087" gradientTransform="matrix(1 0 0 -1 0 -1978.9785)">
				<stop  offset="0" style="stop-color:#32BEDD"/>
				<stop  offset="0.18" style="stop-color:#32CAEA"/>
				<stop  offset="0.41" style="stop-color:#32D2F2"/>
				<stop  offset="0.78" style="stop-color:#32D4F5"/>
			</linearGradient>
			<path class="st23" d="M72.7,22.4h21.7v12.1c0,0.4-0.3,0.7-0.7,0.7H73.4c-0.4,0-0.7-0.3-0.7-0.7l0,0L72.7,22.4z"/>
			<path class="st5" d="M73.4,17.8h20.2c0.4,0,0.7,0.3,0.7,0.7v0l0,0v3.9H72.7v-3.9C72.7,18.1,73,17.8,73.4,17.8z"/>
			<path class="st6" d="M76,19.2h15.1c0.2,0,0.4,0.2,0.4,0.4v1.1c0,0.2-0.2,0.4-0.4,0.4H76c-0.2,0-0.4-0.2-0.4-0.4v-1.1
				C75.6,19.4,75.8,19.2,76,19.2z"/>
			
				<linearGradient id="SVGID_9_" gradientUnits="userSpaceOnUse" x1="92.01" y1="-2020.4785" x2="92.01" y2="-2007.6887" gradientTransform="matrix(1 0 0 -1 0 -1978.9785)">
				<stop  offset="0" style="stop-color:#32BEDD"/>
				<stop  offset="0.18" style="stop-color:#32CAEA"/>
				<stop  offset="0.41" style="stop-color:#32D2F2"/>
				<stop  offset="0.78" style="stop-color:#32D4F5"/>
			</linearGradient>
			<path class="st24" d="M81.2,28.7h21.7v12.1c0,0.4-0.3,0.7-0.7,0.7l0,0H81.9c-0.4,0-0.7-0.3-0.7-0.7c0,0,0,0,0,0l0,0V28.7z"/>
			<path class="st5" d="M81.9,24.1h20.2c0.4,0,0.7,0.3,0.7,0.7v0l0,0v3.9H81.2v-3.9C81.2,24.4,81.5,24.1,81.9,24.1z"/>
			<path class="st6" d="M84.4,25.5h15.1c0.2,0,0.4,0.2,0.4,0.4V27c0,0.2-0.2,0.4-0.4,0.4H84.4c-0.2,0-0.4-0.2-0.4-0.4v-1.1
				C84.1,25.6,84.2,25.5,84.4,25.5z"/>
			<g>
				
					<linearGradient id="SVGID_10_" gradientUnits="userSpaceOnUse" x1="100.46" y1="-2026.7585" x2="100.46" y2="-2013.9585" gradientTransform="matrix(1 0 0 -1 0 -1978.9785)">
					<stop  offset="0" style="stop-color:#32BEDD"/>
					<stop  offset="0.18" style="stop-color:#32CAEA"/>
					<stop  offset="0.41" style="stop-color:#32D2F2"/>
					<stop  offset="0.78" style="stop-color:#32D4F5"/>
				</linearGradient>
				<path class="st25" d="M89.6,35h21.7v12.1c0,0.4-0.3,0.7-0.7,0.7c0,0,0,0,0,0H90.4c-0.4,0-0.7-0.3-0.7-0.7c0,0,0,0,0,0l0,0V35z"
					/>
				<path class="st5" d="M90.4,30.4h20.2c0.4,0,0.7,0.3,0.7,0.7c0,0,0,0,0,0V35H89.6v-3.9C89.6,30.7,89.9,30.4,90.4,30.4
					C90.4,30.4,90.4,30.4,90.4,30.4z"/>
				<g>
					<circle class="st6" cx="105.3" cy="40.6" r="1.8"/>
					<circle class="st6" cx="100.5" cy="40.6" r="1.8"/>
					<circle class="st6" cx="95.6" cy="40.6" r="1.8"/>
				</g>
				<path class="st6" d="M92.9,31.7H108c0.2,0,0.4,0.2,0.4,0.4v1.1c0,0.2-0.2,0.4-0.4,0.4H92.9c-0.2,0-0.4-0.2-0.4-0.4v-1.1
					C92.5,31.9,92.7,31.7,92.9,31.7z"/>
			</g>
		</g>
		<g>
			
				<linearGradient id="SVGID_11_" gradientUnits="userSpaceOnUse" x1="22.57" y1="299.4814" x2="22.57" y2="278.9014" gradientTransform="matrix(1 0 0 1 0 -252.6814)">
				<stop  offset="0" style="stop-color:#32BEDD"/>
				<stop  offset="0.18" style="stop-color:#32CAEA"/>
				<stop  offset="0.41" style="stop-color:#32D2F2"/>
				<stop  offset="0.78" style="stop-color:#32D4F5"/>
			</linearGradient>
			<path class="st26" d="M5.1,26.2H40v19.4c0,0.6-0.5,1.2-1.2,1.2H6.3c-0.6,0-1.2-0.5-1.2-1.2V26.2z"/>
			<path class="st5" d="M6.3,18.8h32.5c0.6,0,1.2,0.5,1.2,1.1c0,0,0,0,0,0.1v6.3H5.1V20C5.1,19.4,5.6,18.8,6.3,18.8
				C6.3,18.8,6.3,18.8,6.3,18.8z"/>
			<circle class="st6" cx="30.4" cy="35.2" r="2.8"/>
			<circle class="st6" cx="22.7" cy="35.2" r="2.8"/>
			<circle class="st6" cx="14.7" cy="35.2" r="2.8"/>
			<path class="st6" d="M10.4,21h24.3c0.3,0,0.6,0.3,0.6,0.6v1.9c0,0.3-0.3,0.6-0.6,0.6H10.4c-0.3,0-0.6-0.3-0.6-0.6v-1.9
				C9.8,21.3,10.1,21,10.4,21z"/>
		</g>
		<g>
			<line class="st10" x1="58.1" y1="130.5" x2="58.1" y2="107.9"/>
			<polygon class="st2" points="61.8,109 58.1,102.5 54.3,109 			"/>
		</g>
		<g>
			<path class="st10" d="M45.6,75.6H24.3c-2.8,0-5-2.2-5-5V55.3"/>
			<polygon class="st2" points="23.1,56.4 19.3,49.9 15.6,56.4 			"/>
		</g>
		<g>
			<path class="st10" d="M97.3,55.3v15.3c0,2.8-2.2,5-5,5H69"/>
			<polygon class="st2" points="93.6,56.4 97.3,49.9 101.1,56.4 			"/>
		</g>
		<g>
			
				<linearGradient id="SVGID_12_" gradientUnits="userSpaceOnUse" x1="38.255" y1="428.0264" x2="40.625" y2="430.3964" gradientTransform="matrix(1 0 0 1 2.9 -253.2214)">
				<stop  offset="0" style="stop-color:#86D633"/>
				<stop  offset="0.24" style="stop-color:#83D232"/>
				<stop  offset="0.5" style="stop-color:#7CC52F"/>
				<stop  offset="0.76" style="stop-color:#6FB02A"/>
				<stop  offset="1" style="stop-color:#5E9624"/>
			</linearGradient>
			<circle class="st27" cx="42.1" cy="175.8" r="1.7"/>
			
				<linearGradient id="SVGID_13_" gradientUnits="userSpaceOnUse" x1="32.9067" y1="428.034" x2="35.2667" y2="430.404" gradientTransform="matrix(1 0 0 1 2.9 -253.2214)">
				<stop  offset="0" style="stop-color:#86D633"/>
				<stop  offset="0.24" style="stop-color:#83D232"/>
				<stop  offset="0.5" style="stop-color:#7CC52F"/>
				<stop  offset="0.76" style="stop-color:#6FB02A"/>
				<stop  offset="1" style="stop-color:#5E9624"/>
			</linearGradient>
			<circle class="st28" cx="36.8" cy="175.8" r="1.7"/>
			
				<linearGradient id="SVGID_14_" gradientUnits="userSpaceOnUse" x1="27.5617" y1="428.029" x2="29.9217" y2="430.399" gradientTransform="matrix(1 0 0 1 2.9 -253.2214)">
				<stop  offset="0" style="stop-color:#86D633"/>
				<stop  offset="0.24" style="stop-color:#83D232"/>
				<stop  offset="0.5" style="stop-color:#7CC52F"/>
				<stop  offset="0.76" style="stop-color:#6FB02A"/>
				<stop  offset="1" style="stop-color:#5E9624"/>
			</linearGradient>
			<circle class="st29" cx="31.4" cy="175.8" r="1.7"/>
			<path class="st14" d="M32.6,182.5l-1,1c-0.2,0.2-0.4,0.2-0.6,0l0,0l-7.1-7.1c-0.3-0.3-0.3-0.9,0-1.2l0,0l1-1l0,0l7.7,7.7
				C32.8,182,32.8,182.3,32.6,182.5C32.7,182.4,32.7,182.4,32.6,182.5L32.6,182.5z"/>
			<path class="st15" d="M31.5,168.1l1,1c0.2,0.2,0.2,0.4,0,0.6l-7.6,7.6l0,0l-1-1c-0.3-0.3-0.3-0.9,0-1.2l0,0l7-7
				C31.1,168,31.4,168,31.5,168.1z"/>
			<path class="st14" d="M48.5,174.2l1,1c0.3,0.3,0.3,0.9,0,1.2l0,0l-7.1,7.1c-0.2,0.2-0.4,0.2-0.6,0c0,0,0,0,0,0l0,0l-1-1
				c-0.2-0.2-0.2-0.4,0-0.6c0,0,0,0,0,0l0,0L48.5,174.2z"/>
			<path class="st15" d="M49.5,176.3l-1,0.9l0,0l-7.6-7.6c-0.2-0.2-0.2-0.4,0-0.6l0,0l1-1c0.2-0.2,0.4-0.2,0.6,0c0,0,0,0,0,0l0,0
				l7,7C49.8,175.4,49.8,176,49.5,176.3L49.5,176.3L49.5,176.3z"/>
		</g>
		<g id="ad94e297-0e86-4eaf-aac0-d146ee9aea65_1_">
			<g>
				<path class="st16" d="M54,92.2l-4.7-4.8c-0.3,0.1-0.5,0.1-0.8,0.1c-1.3,0-2.4-1.1-2.4-2.4s1.1-2.4,2.4-2.4c1,0,1.9,0.6,2.3,1.5
					h4.6v1.6h-4.6c-0.1,0.2-0.2,0.4-0.3,0.6l4.3,4.5l2.3-3.6V76.1h-3.2l4-4l3.9,4h-3.2v8.7l5.9-9l-6-6c-0.4-0.4-1-0.4-1.4,0
					c0,0,0,0,0,0l0,0L42.9,84.3c-0.4,0.4-0.4,1,0,1.4c0,0,0,0,0,0l0,0l14.5,14.5L52.2,95L54,92.2z"/>
				<path class="st17" d="M57.3,92.4v-5.2l-2.3,3.6l1.7,1.8C56.8,92.6,57,92.5,57.3,92.4z"/>
				<path class="st17" d="M73.3,84.3l-8.5-8.5l-5.9,9v7.6c0.2,0.1,0.4,0.2,0.5,0.3l6.2-6.3c-0.1-0.2-0.2-0.4-0.3-0.6h-4.7v-1.6h4.7
					c0.5-1.2,1.9-1.8,3.2-1.3s1.8,1.9,1.3,3.2c-0.4,0.9-1.3,1.5-2.2,1.5c-0.2,0-0.5,0-0.7-0.1l-6.6,6.7c0.1,0.2,0.1,0.4,0.1,0.6
					c0.1,1.3-0.9,2.5-2.2,2.6c-1.3,0.1-2.5-0.9-2.6-2.2c0-0.1,0-0.2,0-0.2c0-0.3,0-0.6,0.1-0.9L54,92.3L52.2,95l5.2,5.2
					c0.4,0.4,1,0.4,1.4,0c0,0,0,0,0,0l14.5-14.5C73.6,85.4,73.7,84.7,73.3,84.3C73.3,84.3,73.3,84.3,73.3,84.3L73.3,84.3z"/>
				<path class="st18" d="M65.4,84.2h-4.7v1.6h4.7c-0.1-0.2-0.1-0.5-0.1-0.7C65.2,84.8,65.3,84.5,65.4,84.2z"/>
				<path class="st18" d="M50.8,85.8h4.5v-1.6h-4.6c0.1,0.3,0.2,0.6,0.2,0.9C51,85.4,50.9,85.6,50.8,85.8z"/>
				<path class="st18" d="M60.3,94.1l6.7-6.7c-0.5-0.2-1-0.5-1.3-1l-6.2,6.3C59.9,93.1,60.2,93.5,60.3,94.1z"/>
				<path class="st18" d="M56.7,92.7L55,90.9l-4.4-4.5c-0.3,0.5-0.7,0.8-1.3,1l4.7,4.8l1.7,1.8C55.9,93.5,56.2,93,56.7,92.7z"/>
				<path class="st0" d="M62,76.1l-3.9-4l-4,4h3.2v16.3c-0.2,0-0.4,0.1-0.6,0.3c-0.5,0.3-0.8,0.8-1,1.3c-0.4,1.3,0.3,2.6,1.6,3
					c1.3,0.4,2.6-0.3,3-1.6c0.1-0.2,0.1-0.5,0.1-0.7c0-0.2,0-0.4-0.1-0.6c-0.1-0.5-0.5-1-0.9-1.3c-0.2-0.1-0.3-0.2-0.5-0.3V76.1H62z
					 M58.1,96.1c-0.7,0-1.3-0.6-1.3-1.3c0-0.7,0.6-1.3,1.3-1.3s1.3,0.6,1.3,1.3l0,0l0,0C59.4,95.5,58.8,96.1,58.1,96.1L58.1,96.1z"
					/>
				<path class="st0" d="M50.6,86.4c0.1-0.2,0.2-0.4,0.3-0.6c0.1-0.2,0.1-0.5,0.1-0.7c0-0.3-0.1-0.6-0.2-0.9
					c-0.5-1.2-1.9-1.8-3.1-1.3c-1.2,0.5-1.8,1.9-1.3,3.1c0.4,0.9,1.2,1.5,2.2,1.5c0.3,0,0.5-0.1,0.8-0.1
					C49.8,87.2,50.3,86.9,50.6,86.4z M48.6,86.4c-0.7,0-1.4-0.6-1.4-1.3s0.6-1.3,1.3-1.3c0.7,0,1.4,0.6,1.4,1.3l0,0l0,0
					C50,85.8,49.4,86.4,48.6,86.4C48.6,86.4,48.6,86.4,48.6,86.4L48.6,86.4L48.6,86.4z"/>
				<path class="st0" d="M67,87.4c0.2,0.1,0.4,0.1,0.7,0.1c1.3,0,2.4-1.1,2.4-2.4s-1.1-2.4-2.4-2.4c-1,0-1.9,0.6-2.3,1.5
					c-0.1,0.3-0.2,0.6-0.2,0.9c0,0.2,0,0.5,0.1,0.7c0.1,0.2,0.2,0.4,0.3,0.6C66,86.9,66.5,87.3,67,87.4z M67.7,83.8
					c0.7,0.1,1.3,0.7,1.2,1.5c-0.1,0.7-0.7,1.3-1.5,1.2c-0.6-0.1-1.1-0.6-1.2-1.2c-0.1-0.7,0.4-1.4,1.2-1.5c0,0,0,0,0,0
					C67.5,83.8,67.5,83.8,67.7,83.8L67.7,83.8z"/>
				<path class="st19" d="M58.1,93.4c-0.7,0-1.3,0.6-1.3,1.3c0,0.7,0.6,1.3,1.3,1.3s1.3-0.6,1.3-1.3l0,0l0,0
					C59.4,94,58.8,93.4,58.1,93.4z"/>
				<circle class="st19" cx="48.5" cy="85.1" r="1.3"/>
				<path class="st19" d="M67.6,86.4c0.7,0,1.4-0.6,1.4-1.3c0-0.7-0.6-1.4-1.3-1.4c-0.7,0-1.4,0.6-1.4,1.3c0,0,0,0,0,0l0,0
					C66.3,85.9,66.9,86.4,67.6,86.4z"/>
			</g>
		</g>
	</g>
	<g id="Text_2_" class="st22">
		<g>
			<path class="st20" d="M54,65.2h-1.2l-4.3-6.7c-0.1-0.2-0.2-0.3-0.3-0.5l0,0c0,0.4,0,0.8,0,1.2v6.1h-1v-8.4h1.3l4.2,6.6
				c0.1,0.2,0.2,0.4,0.3,0.6l0,0c0-0.4,0-0.8,0-1.3v-5.9h1V65.2z"/>
			<path class="st20" d="M62.7,65.2h-1.1l-0.9-2.3h-3.6l-0.8,2.3h-1.1l3.2-8.4h1L62.7,65.2z M60.4,62l-1.3-3.6
				C59,58.2,59,58,58.9,57.8l0,0c0,0.2-0.1,0.4-0.1,0.6L57.5,62H60.4z"/>
			<path class="st20" d="M68,57.7h-2.4v7.5h-1v-7.5h-2.4v-0.9H68V57.7z"/>
		</g>
		<g>
			<path class="st20" d="M34.7,148.5v-1.2c0.2,0.1,0.3,0.2,0.5,0.3c0.2,0.1,0.4,0.2,0.6,0.3c0.2,0.1,0.4,0.1,0.6,0.1
				c0.2,0,0.4,0,0.6,0c0.5,0,1-0.1,1.4-0.3c0.3-0.2,0.5-0.6,0.5-1c0-0.2,0-0.4-0.2-0.6c-0.1-0.2-0.3-0.3-0.4-0.5
				c-0.2-0.2-0.4-0.3-0.6-0.4l-0.8-0.4c-0.3-0.1-0.6-0.3-0.8-0.5c-0.2-0.1-0.5-0.3-0.7-0.5c-0.2-0.2-0.4-0.4-0.5-0.6
				c-0.1-0.3-0.2-0.6-0.2-0.8c0-0.4,0.1-0.7,0.3-1c0.2-0.3,0.4-0.5,0.7-0.7c0.3-0.2,0.6-0.3,1-0.4c0.4-0.1,0.7-0.1,1.1-0.1
				c0.6,0,1.3,0.1,1.9,0.3v1.1c-0.6-0.4-1.3-0.6-2-0.5c-0.2,0-0.4,0-0.7,0.1c-0.2,0-0.4,0.1-0.6,0.2c-0.2,0.1-0.3,0.2-0.4,0.4
				c-0.1,0.2-0.2,0.4-0.2,0.6c0,0.2,0,0.4,0.1,0.6c0.1,0.2,0.2,0.3,0.4,0.4c0.2,0.2,0.4,0.3,0.6,0.4l0.8,0.4
				c0.3,0.1,0.6,0.3,0.9,0.5c0.3,0.2,0.5,0.4,0.7,0.6c0.2,0.2,0.4,0.4,0.5,0.7c0.1,0.3,0.2,0.6,0.2,0.9c0,0.4-0.1,0.7-0.3,1.1
				c-0.2,0.3-0.4,0.5-0.7,0.7c-0.3,0.2-0.6,0.3-1,0.4c-0.4,0.1-0.8,0.1-1.2,0.1c-0.2,0-0.3,0-0.5,0l-0.6-0.1l-0.6-0.2
				C35,148.7,34.9,148.6,34.7,148.5z"/>
			<path class="st20" d="M46.4,148.8h-1v-1l0,0c-0.3,0.7-1.1,1.2-1.9,1.1c-1.5,0-2.2-0.9-2.2-2.6v-3.7h1v3.5c0,1.3,0.5,2,1.5,2
				c0.5,0,0.9-0.2,1.2-0.5c0.3-0.4,0.5-0.9,0.5-1.4v-3.6h1L46.4,148.8z"/>
			<path class="st20" d="M49.3,148L49.3,148v0.9h-1v-9.1h1v4.1l0,0c0.4-0.8,1.3-1.3,2.1-1.2c0.7,0,1.4,0.3,1.9,0.8
				c0.5,0.6,0.7,1.4,0.7,2.2c0,0.9-0.2,1.8-0.8,2.5c-0.5,0.6-1.3,1-2.1,0.9C50.4,149.1,49.7,148.7,49.3,148z M49.3,145.5v0.9
				c0,0.5,0.2,1,0.5,1.3c0.7,0.7,1.8,0.7,2.5,0c0.1-0.1,0.1-0.1,0.2-0.2c0.4-0.6,0.6-1.2,0.5-1.9c0-0.6-0.1-1.2-0.5-1.6
				c-0.3-0.4-0.8-0.6-1.3-0.6c-0.5,0-1,0.2-1.4,0.6C49.5,144.4,49.3,144.9,49.3,145.5L49.3,145.5z"/>
			<path class="st20" d="M60.6,148.8h-1v-3.5c0-1.3-0.5-2-1.4-2c-0.5,0-0.9,0.2-1.2,0.6c-0.3,0.4-0.5,0.9-0.5,1.4v3.5h-1v-6.2h1v1
				l0,0c0.4-0.7,1.2-1.2,2-1.2c0.6,0,1.2,0.2,1.6,0.7c0.4,0.6,0.6,1.2,0.5,1.9L60.6,148.8z"/>
			<path class="st20" d="M67.4,146h-4.4c0,0.6,0.2,1.1,0.5,1.6c0.4,0.4,0.9,0.6,1.5,0.6c0.7,0,1.4-0.2,1.9-0.7v0.9
				c-0.6,0.4-1.4,0.6-2.2,0.6c-0.8,0-1.5-0.3-2.1-0.9c-0.5-0.7-0.8-1.5-0.8-2.4c0-0.9,0.3-1.7,0.8-2.4c0.5-0.6,1.2-0.9,2-0.9
				c0.7,0,1.4,0.2,1.9,0.8c0.5,0.6,0.7,1.4,0.7,2.2L67.4,146z M66.4,145.2c0-0.5-0.1-1-0.4-1.3c-0.3-0.3-0.7-0.5-1.1-0.5
				c-0.4,0-0.9,0.2-1.2,0.5c-0.3,0.4-0.5,0.8-0.6,1.3H66.4z"/>
			<path class="st20" d="M71.8,148.8c-0.3,0.1-0.6,0.2-0.9,0.2c-1.1,0-1.6-0.6-1.6-1.8v-3.7h-1.1v-0.8h1.1v-1.5l1-0.3v1.8h1.6v0.8
				h-1.6v3.5c0,0.3,0,0.6,0.2,0.9c0.2,0.2,0.4,0.3,0.7,0.3c0.2,0,0.5-0.1,0.7-0.2V148.8z"/>
			<path class="st20" d="M79.9,148.8h-1v-7.5c-0.1,0.1-0.2,0.2-0.3,0.3c-0.2,0.1-0.3,0.2-0.5,0.3c-0.2,0.1-0.4,0.2-0.6,0.3
				c-0.2,0.1-0.4,0.1-0.6,0.2v-1c0.2-0.1,0.5-0.1,0.7-0.2c0.2-0.1,0.5-0.2,0.7-0.4c0.2-0.1,0.4-0.3,0.7-0.4s0.4-0.3,0.6-0.4h0.4
				L79.9,148.8z"/>
		</g>
		<g>
			<path class="st20" d="M105.1,148.5v-1.2c0.2,0.1,0.3,0.2,0.5,0.3c0.2,0.1,0.4,0.2,0.6,0.3l0.6,0.1c0.2,0,0.4,0,0.6,0
				c0.5,0,1-0.1,1.4-0.3c0.5-0.4,0.6-1.1,0.3-1.6c-0.1-0.2-0.3-0.4-0.4-0.5c-0.2-0.2-0.4-0.3-0.6-0.4l-0.8-0.4
				c-0.3-0.1-0.6-0.3-0.8-0.5c-0.3-0.1-0.5-0.3-0.7-0.5c-0.2-0.2-0.3-0.4-0.4-0.6c-0.3-0.6-0.2-1.3,0.1-1.9c0.2-0.3,0.4-0.5,0.7-0.7
				c0.3-0.2,0.6-0.3,1-0.4c0.4-0.1,0.7-0.1,1.1-0.1c0.6,0,1.3,0.1,1.9,0.3v1.1c-0.6-0.4-1.3-0.6-2-0.5c-0.2,0-0.4,0-0.7,0.1
				c-0.2,0-0.4,0.1-0.6,0.2c-0.2,0.1-0.3,0.2-0.4,0.4c-0.1,0.2-0.2,0.4-0.2,0.6c0,0.2,0,0.4,0.1,0.6c0.1,0.2,0.2,0.3,0.4,0.4
				c0.2,0.2,0.4,0.3,0.6,0.4l0.8,0.4c0.3,0.1,0.6,0.3,0.9,0.5c0.3,0.2,0.5,0.3,0.7,0.6c0.2,0.2,0.4,0.4,0.5,0.7
				c0.1,0.3,0.2,0.6,0.2,0.9c0,0.4-0.1,0.7-0.3,1.1c-0.2,0.3-0.4,0.5-0.7,0.7c-0.3,0.2-0.6,0.3-1,0.4c-0.4,0.1-0.8,0.1-1.2,0.1
				c-0.2,0-0.3,0-0.5,0l-0.6-0.1l-0.6-0.2C105.4,148.6,105.2,148.6,105.1,148.5z"/>
			<path class="st20" d="M116.8,148.8h-1v-1l0,0c-0.4,0.7-1.1,1.2-1.9,1.1c-1.5,0-2.2-0.9-2.2-2.6v-3.7h1v3.5c0,1.3,0.5,2,1.5,2
				c0.5,0,0.9-0.2,1.2-0.5c0.3-0.4,0.5-0.9,0.5-1.4v-3.6h1L116.8,148.8z"/>
			<path class="st20" d="M119.7,148L119.7,148v0.9h-1v-9.1h1v4.1l0,0c0.4-0.8,1.3-1.3,2.1-1.2c0.7,0,1.4,0.3,1.9,0.8
				c0.5,0.6,0.7,1.4,0.7,2.2c0,0.9-0.2,1.8-0.8,2.5c-0.5,0.6-1.3,1-2.1,0.9C120.8,149.1,120,148.7,119.7,148z M119.7,145.5v0.9
				c0,0.5,0.2,0.9,0.5,1.3c0.3,0.3,0.8,0.5,1.3,0.5c0.6,0,1.1-0.2,1.4-0.7c0.4-0.6,0.6-1.2,0.5-1.9c0-0.6-0.1-1.2-0.5-1.6
				c-0.3-0.4-0.8-0.6-1.3-0.6c-0.5,0-1,0.2-1.4,0.6C119.9,144.4,119.7,144.9,119.7,145.5L119.7,145.5z"/>
			<path class="st20" d="M131,148.8h-1v-3.5c0-1.3-0.5-2-1.4-2c-0.5,0-0.9,0.2-1.2,0.6c-0.3,0.4-0.5,0.9-0.5,1.4v3.5h-1v-6.2h1v1
				l0,0c0.4-0.7,1.2-1.2,2-1.2c0.6,0,1.2,0.2,1.6,0.7c0.4,0.5,0.6,1.2,0.5,1.9L131,148.8z"/>
			<path class="st20" d="M137.8,146h-4.4c0,0.6,0.2,1.1,0.6,1.6c0.4,0.4,0.9,0.6,1.5,0.6c0.7,0,1.4-0.2,1.9-0.7v0.9
				c-0.6,0.4-1.4,0.6-2.1,0.6c-0.8,0-1.5-0.3-2.1-0.9c-0.5-0.7-0.8-1.5-0.8-2.4c0-0.9,0.3-1.7,0.8-2.4c0.5-0.6,1.2-0.9,2-0.9
				c0.7,0,1.4,0.3,1.9,0.8c0.5,0.6,0.7,1.4,0.7,2.2L137.8,146z M136.8,145.2c0-0.5-0.1-1-0.4-1.3c-0.3-0.3-0.7-0.5-1.1-0.5
				c-0.4,0-0.9,0.2-1.2,0.5c-0.3,0.4-0.6,0.8-0.6,1.3H136.8z"/>
			<path class="st20" d="M142.2,148.8c-0.3,0.1-0.6,0.2-0.9,0.2c-1.1,0-1.6-0.6-1.6-1.8v-3.7h-1.1v-0.8h1.1v-1.5l1-0.3v1.8h1.6v0.8
				h-1.6v3.5c0,0.3,0,0.6,0.2,0.9c0.2,0.2,0.4,0.3,0.7,0.3c0.2,0,0.5-0.1,0.6-0.2L142.2,148.8z"/>
			<path class="st20" d="M150.6,142.4c0-0.2,0-0.5-0.1-0.7c-0.1-0.2-0.2-0.4-0.3-0.5c-0.1-0.1-0.3-0.2-0.5-0.3
				c-0.2-0.1-0.4-0.1-0.6-0.1c-0.2,0-0.4,0-0.6,0.1c-0.2,0.1-0.4,0.1-0.5,0.2c-0.2,0.1-0.3,0.2-0.5,0.3c-0.2,0.1-0.3,0.3-0.5,0.4
				v-1.1c0.3-0.3,0.6-0.5,0.9-0.6c0.4-0.1,0.8-0.2,1.3-0.2c0.3,0,0.7,0,1,0.1c0.3,0.1,0.6,0.2,0.8,0.4c0.2,0.2,0.4,0.5,0.5,0.7
				c0.1,0.3,0.2,0.7,0.2,1c0,0.3,0,0.6-0.1,0.9c-0.1,0.3-0.2,0.5-0.4,0.8c-0.2,0.3-0.4,0.5-0.6,0.7c-0.3,0.2-0.6,0.5-0.9,0.7
				c-0.4,0.3-0.7,0.5-1,0.7c-0.2,0.2-0.4,0.4-0.6,0.6c-0.1,0.2-0.3,0.3-0.3,0.5c-0.1,0.2-0.1,0.4-0.1,0.6h4.3v0.9h-5.4v-0.4
				c0-0.3,0-0.7,0.1-1c0.1-0.3,0.2-0.6,0.4-0.8c0.2-0.3,0.5-0.5,0.7-0.8c0.3-0.3,0.7-0.5,1.1-0.9c0.3-0.2,0.5-0.4,0.8-0.6
				c0.2-0.2,0.4-0.4,0.5-0.6c0.1-0.2,0.2-0.4,0.3-0.6C150.5,142.9,150.6,142.7,150.6,142.4z"/>
		</g>
		<g>
			<path class="st20" d="M2.1,7v3.2h-1V1.8h2.3C4.2,1.7,4.9,2,5.5,2.5C6,2.9,6.3,3.6,6.2,4.3c0,0.8-0.3,1.5-0.8,2
				C4.8,6.8,4,7.1,3.2,7H2.1z M2.1,2.7v3.5h1c0.6,0,1.1-0.1,1.5-0.5C5,5.3,5.2,4.8,5.2,4.3c0-1.1-0.7-1.7-2-1.7L2.1,2.7z"/>
			<path class="st20" d="M12.5,10.2h-1V9.2l0,0c-0.4,0.7-1.1,1.1-1.9,1.1c-1.4,0-2.2-0.9-2.2-2.5V4.2h1v3.4C8.5,8.9,9,9.5,10,9.5
				c0.4,0,0.9-0.2,1.1-0.5c0.3-0.4,0.5-0.9,0.4-1.3V4.2h1L12.5,10.2z"/>
			<path class="st20" d="M15.5,9.3L15.5,9.3v0.9h-1V1.3h1v3.9l0,0c0.4-0.8,1.2-1.2,2.1-1.2c0.7,0,1.4,0.3,1.8,0.8
				C19.8,5.5,20,6.2,20,7c0,0.9-0.2,1.7-0.7,2.4c-0.5,0.6-1.2,0.9-2,0.9C16.5,10.3,15.8,10,15.5,9.3z M15.5,6.9v0.8
				c0,0.5,0.1,0.9,0.5,1.2c0.7,0.7,1.8,0.7,2.4,0c0.1-0.1,0.1-0.1,0.2-0.2C18.9,8.3,19,7.7,19,7c0-0.6-0.1-1.1-0.5-1.6
				c-0.3-0.4-0.8-0.6-1.3-0.6c-0.5,0-1,0.2-1.3,0.6C15.6,5.9,15.4,6.4,15.5,6.9L15.5,6.9z"/>
			<path class="st20" d="M22.5,10.2h-1V1.3h1V10.2z"/>
			<path class="st20" d="M24.9,2.7c-0.2,0-0.3-0.1-0.4-0.2c-0.1-0.1-0.2-0.3-0.2-0.4c0-0.2,0.1-0.3,0.2-0.4c0.1-0.1,0.3-0.2,0.4-0.2
				c0.2,0,0.3,0.1,0.5,0.2c0.1,0.1,0.2,0.3,0.2,0.4c0,0.2-0.1,0.3-0.2,0.4C25.3,2.6,25.1,2.7,24.9,2.7z M25.4,10.2h-1v-6h1V10.2z"/>
			<path class="st20" d="M31.4,9.9c-0.5,0.3-1.1,0.4-1.6,0.4c-0.8,0-1.5-0.3-2.1-0.8c-0.5-0.6-0.8-1.4-0.8-2.2
				c0-0.9,0.3-1.7,0.9-2.3c0.6-0.6,1.4-0.9,2.3-0.9c0.5,0,1,0.1,1.4,0.3v1C31,5.1,30.5,4.9,30,4.9c-0.6,0-1.1,0.2-1.5,0.7
				c-0.4,0.5-0.6,1.1-0.6,1.7c0,0.6,0.2,1.2,0.5,1.7c0.4,0.4,1,0.7,1.5,0.6c0.5,0,1-0.2,1.4-0.5V9.9z"/>
			<path class="st20" d="M37.3,10.2h-1V1.8h1V10.2z"/>
			<path class="st20" d="M40.5,7v3.2h-1V1.8h2.3c0.8-0.1,1.5,0.2,2.1,0.7c0.5,0.5,0.8,1.2,0.7,1.9c0,0.8-0.3,1.5-0.8,2
				c-0.6,0.5-1.4,0.7-2.2,0.7H40.5z M40.5,2.7v3.5h1c0.6,0,1.1-0.1,1.6-0.5c0.4-0.3,0.6-0.8,0.5-1.3c0-1.1-0.7-1.7-2-1.7L40.5,2.7z"
				/>
		</g>
		<g>
			<path class="st20" d="M70.2,10.2h-1V1.8h1V10.2z"/>
			<path class="st20" d="M73.3,7v3.2h-1V1.8h2.3c0.8-0.1,1.5,0.2,2.1,0.7c0.5,0.5,0.8,1.2,0.7,1.9c0,0.8-0.3,1.5-0.8,2
				C76,6.8,75.2,7.1,74.4,7H73.3z M73.3,2.7v3.5h1c0.6,0,1.1-0.1,1.6-0.5c0.4-0.3,0.6-0.8,0.5-1.3c0-1.1-0.7-1.7-2-1.7L73.3,2.7z"/>
			<path class="st20" d="M83.3,7v3.2h-1V1.8h2.3c0.8-0.1,1.5,0.2,2.1,0.7c0.5,0.5,0.8,1.2,0.7,1.9c0,0.8-0.3,1.5-0.8,2
				C86,6.8,85.3,7.1,84.5,7H83.3z M83.3,2.7v3.5h1c0.6,0,1.1-0.1,1.6-0.5c0.4-0.3,0.6-0.8,0.5-1.3c0-1.1-0.7-1.7-2-1.7L83.3,2.7z"/>
			<path class="st20" d="M92.1,5.2C91.9,5,91.6,5,91.4,5c-0.4,0-0.8,0.2-1,0.6c-0.3,0.5-0.4,1-0.4,1.6v3H89v-6h1v1.2l0,0
				c0.1-0.4,0.3-0.7,0.6-1c0.3-0.2,0.6-0.4,0.9-0.3c0.2,0,0.4,0,0.6,0.1L92.1,5.2z"/>
			<path class="st20" d="M98,7.4h-4.3c0,0.6,0.2,1.1,0.5,1.6c0.4,0.4,0.9,0.6,1.4,0.5c0.7,0,1.3-0.2,1.9-0.7v0.9
				c-0.6,0.4-1.4,0.6-2.1,0.6c-0.8,0-1.5-0.3-2-0.8c-0.5-0.7-0.8-1.5-0.7-2.3c0-0.8,0.2-1.6,0.8-2.3c0.5-0.6,1.2-0.9,2-0.9
				c0.7,0,1.4,0.2,1.8,0.8C97.8,5.4,98,6.2,98,6.9V7.4z M97,6.6c0-0.5-0.1-0.9-0.4-1.3c-0.3-0.3-0.7-0.5-1.1-0.5
				c-0.4,0-0.9,0.2-1.2,0.5c-0.3,0.3-0.5,0.8-0.6,1.3L97,6.6z"/>
			<path class="st20" d="M102.4,2.2C102.2,2.1,102,2,101.7,2c-0.7,0-1,0.4-1,1.3v0.9h1.4V5h-1.4v5.2h-1V5h-1V4.2h1v-1
				c0-0.5,0.2-1.1,0.5-1.5c0.4-0.4,0.8-0.6,1.4-0.5c0.2,0,0.5,0,0.7,0.1L102.4,2.2z"/>
			<path class="st20" d="M103.7,2.7c-0.2,0-0.3-0.1-0.4-0.2c-0.1-0.1-0.2-0.3-0.2-0.4c0-0.2,0.1-0.3,0.2-0.4
				c0.1-0.1,0.3-0.2,0.4-0.2c0.3,0,0.6,0.3,0.6,0.6c0,0,0,0,0,0c0,0.2-0.1,0.3-0.2,0.4C104,2.6,103.8,2.7,103.7,2.7z M104.1,10.2h-1
				v-6h1V10.2z"/>
			<path class="st20" d="M110.4,4.2l-2,3l2,3h-1.1l-1.2-1.9l-0.3-0.5l0,0l-0.3,0.5l-1.2,1.9h-1.1l2.1-2.9l-2-3.1h1.1l1.2,2.1
				c0.1,0.2,0.2,0.3,0.3,0.5l0,0l1.5-2.5L110.4,4.2z"/>
		</g>
		<g>
			<path class="st20" d="M31.3,188.9l-3.2,8.7H27l-3.1-8.7H25l2.4,6.9c0.1,0.3,0.1,0.5,0.2,0.8l0,0c0-0.3,0.1-0.5,0.2-0.8l2.4-6.9
				H31.3z"/>
			<path class="st20" d="M33,189.8c-0.2,0-0.3-0.1-0.5-0.2c-0.1-0.1-0.2-0.3-0.2-0.5c0-0.2,0.1-0.3,0.2-0.5c0.1-0.1,0.3-0.2,0.5-0.2
				c0.2,0,0.3,0.1,0.5,0.2c0.1,0.1,0.2,0.3,0.2,0.5c0,0.2-0.1,0.3-0.2,0.4C33.3,189.7,33.2,189.8,33,189.8z M33.5,197.6h-1v-6.2h1
				V197.6z"/>
			<path class="st20" d="M38.6,192.4c-0.6-0.4-1.4-0.2-1.8,0.4c-0.3,0.5-0.5,1.1-0.4,1.6v3.1h-1v-6.2h1v1.3l0,0
				c0.1-0.4,0.3-0.7,0.6-1c0.3-0.2,0.6-0.4,1-0.4c0.2,0,0.4,0,0.6,0.1L38.6,192.4z"/>
			<path class="st20" d="M42.9,197.5c-0.3,0.1-0.6,0.2-0.9,0.2c-1.1,0-1.6-0.6-1.6-1.8v-3.7h-1.1v-0.8h1.1v-1.5l1-0.3v1.8h1.6v0.8
				h-1.6v3.5c0,0.3,0,0.6,0.2,0.9c0.2,0.2,0.4,0.3,0.7,0.3c0.2,0,0.5-0.1,0.7-0.2L42.9,197.5z"/>
			<path class="st20" d="M49.2,197.6h-1v-1l0,0c-0.4,0.7-1.1,1.2-1.9,1.1c-1.5,0-2.2-0.9-2.2-2.6v-3.7h1v3.5c0,1.3,0.5,2,1.5,2
				c0.5,0,0.9-0.2,1.2-0.5c0.3-0.4,0.5-0.9,0.5-1.4v-3.6h1L49.2,197.6z"/>
			<path class="st20" d="M55.5,197.6h-1v-1l0,0c-0.6,1.1-2,1.4-3.1,0.8c-0.1-0.1-0.2-0.1-0.3-0.2c-0.4-0.3-0.5-0.8-0.5-1.3
				c0-1.2,0.7-1.8,2-2l1.8-0.3c0-1-0.4-1.6-1.3-1.6c-0.7,0-1.4,0.3-2,0.8v-1c0.6-0.4,1.4-0.6,2.1-0.6c1.5,0,2.2,0.8,2.2,2.3
				L55.5,197.6z M54.5,194.4l-1.5,0.2c-0.4,0-0.7,0.2-1,0.3c-0.3,0.2-0.4,0.5-0.3,0.9c0,0.3,0.1,0.5,0.3,0.7
				c0.2,0.2,0.5,0.3,0.9,0.3c0.5,0,0.9-0.2,1.2-0.5c0.3-0.4,0.5-0.8,0.5-1.3L54.5,194.4z"/>
			<path class="st20" d="M58.3,197.6h-1v-9.1h1V197.6z"/>
			<path class="st20" d="M70.8,197.6h-1.2l-4.5-6.9c-0.1-0.2-0.2-0.4-0.3-0.5l0,0c0,0.4,0.1,0.8,0.1,1.2v6.3h-1v-8.7h1.3l4.3,6.8
				c0.1,0.2,0.2,0.4,0.3,0.6l0,0c0-0.4-0.1-0.9-0.1-1.3v-6.1h1L70.8,197.6z"/>
			<path class="st20" d="M77.9,194.7h-4.4c0,0.6,0.2,1.2,0.6,1.6c0.4,0.4,0.9,0.6,1.5,0.6c0.7,0,1.4-0.2,1.9-0.7v0.9
				c-0.6,0.4-1.4,0.6-2.2,0.6c-0.8,0-1.5-0.3-2.1-0.9c-1-1.4-1-3.3,0.1-4.7c0.5-0.6,1.2-0.9,2-0.9c0.7,0,1.4,0.2,1.9,0.8
				c0.5,0.6,0.7,1.4,0.7,2.2L77.9,194.7z M76.9,193.9c0-0.5-0.1-1-0.4-1.3c-0.3-0.3-0.7-0.5-1.1-0.5c-0.5,0-0.9,0.2-1.2,0.5
				c-0.3,0.4-0.6,0.8-0.6,1.3H76.9z"/>
			<path class="st20" d="M82.2,197.5c-0.3,0.1-0.6,0.2-0.9,0.2c-1.1,0-1.6-0.6-1.6-1.8v-3.7h-1.1v-0.8h1.1v-1.5l1-0.3v1.8h1.6v0.8
				h-1.5v3.5c0,0.3,0,0.6,0.2,0.9c0.2,0.2,0.4,0.3,0.7,0.3c0.2,0,0.5-0.1,0.6-0.2V197.5z"/>
			<path class="st20" d="M91.7,191.4l-1.8,6.2h-1l-1.3-4.4c-0.1-0.2-0.1-0.4-0.1-0.6l0,0c0,0.2-0.1,0.4-0.1,0.6l-1.4,4.4h-1
				l-1.9-6.2h1l1.3,4.6c0,0.2,0.1,0.4,0.1,0.6l0,0c0-0.2,0.1-0.4,0.1-0.6l1.4-4.6h0.9l1.3,4.6c0,0.2,0.1,0.4,0.1,0.6l0,0
				c0-0.2,0-0.4,0.1-0.6l1.3-4.7L91.7,191.4z"/>
			<path class="st20" d="M95.3,197.7c-0.8,0-1.6-0.3-2.2-0.9c-0.6-0.6-0.9-1.5-0.8-2.3c-0.1-0.9,0.3-1.8,0.9-2.4
				c0.6-0.6,1.4-0.9,2.3-0.9c0.8,0,1.6,0.3,2.2,0.9c0.5,0.7,0.8,1.5,0.8,2.4c0,0.9-0.3,1.7-0.8,2.4C97,197.4,96.1,197.7,95.3,197.7z
				 M95.4,192.1c-0.6,0-1.1,0.2-1.5,0.6c-0.4,0.5-0.6,1.1-0.6,1.8c0,0.6,0.2,1.2,0.6,1.7c0.4,0.4,0.9,0.7,1.5,0.6
				c0.6,0,1.1-0.2,1.5-0.6c0.4-0.5,0.6-1.1,0.5-1.8c0-0.6-0.1-1.3-0.5-1.8C96.5,192.3,95.9,192,95.4,192.1z"/>
			<path class="st20" d="M103.1,192.4c-0.2-0.1-0.5-0.2-0.8-0.2c-0.4,0-0.8,0.2-1.1,0.6c-0.3,0.5-0.5,1.1-0.4,1.6v3.1h-1v-6.2h1v1.3
				l0,0c0.1-0.4,0.3-0.7,0.7-1c0.3-0.2,0.6-0.4,1-0.4c0.2,0,0.4,0,0.6,0.1L103.1,192.4z"/>
			<path class="st20" d="M109.4,197.6H108l-2.7-3l0,0v3h-1v-9.1h1v5.8l0,0l2.6-2.8h1.3l-2.9,3L109.4,197.6z"/>
		</g>
	</g>
</g>
</svg>
