<svg xmlns="http://www.w3.org/2000/svg" xmlns:xlink="http://www.w3.org/1999/xlink" viewBox="0 0 475.66 150.2"><defs><style>.cls-1{fill:#505050;}.cls-12,.cls-2{fill:#fff;}.cls-3,.cls-9{fill:#ebebeb;}.cls-13,.cls-4{fill:#0072c6;}.cls-5{fill:#d2d2d2;}.cls-6{fill:none;}.cls-10,.cls-6,.cls-9{stroke:#000;}.cls-10,.cls-11,.cls-12,.cls-13,.cls-6,.cls-9{stroke-miterlimit:10;}.cls-7{fill:#1a1a1f;}.cls-8{fill:#0078d4;}.cls-9{stroke-width:0.75px;}.cls-10,.cls-12,.cls-13{stroke-width:0.05px;}.cls-11{fill:#1e1e1e;stroke:#1e1e1e;stroke-width:0.06px;}.cls-12{stroke:#fff;}.cls-13{stroke:#0072c6;}</style><symbol id="New_Symbol_44" data-name="New Symbol 44" viewBox="0 0 20 20"><circle class="cls-1" cx="10" cy="10" r="10"/><path class="cls-2" d="M12,14V8.58h1.25V7.45H12V5.6H10.65V7.42H6.85V8.56q.51.58,1.05,1.26a12.66,12.66,0,0,1,1,1.38c.29.47.64.94.93,1.41A13,13,0,0,1,10.55,14ZM10.65,8.58v3.5a19.76,19.76,0,0,0-1.26-2C9,9.51,8.58,9,8.22,8.56Z"/></symbol><symbol id="New_Symbol_43" data-name="New Symbol 43" viewBox="0 0 20 20"><circle class="cls-1" cx="10" cy="10" r="10"/><path class="cls-2" d="M7.39,5.88V7.16a3,3,0,0,1,1.85-.65,2.19,2.19,0,0,1,1.34.38,1.23,1.23,0,0,1,.5,1c0,1-.73,1.43-2.18,1.43H8.24v1.12h.63c1.29,0,1.94.45,1.94,1.35S10.3,13,9.29,13a2.48,2.48,0,0,1-1.58-.6v1.23a4.08,4.08,0,0,0,2,.48,2.64,2.64,0,0,0,1.79-.56,1.76,1.76,0,0,0,.67-1.44A2,2,0,0,0,10.5,10h0a2.19,2.19,0,0,0,1.43-.63A1.89,1.89,0,0,0,12.5,8a2.22,2.22,0,0,0-.85-1.82,3.4,3.4,0,0,0-2.24-.7A3.84,3.84,0,0,0,7.39,5.88Z"/></symbol><symbol id="New_Symbol_42" data-name="New Symbol 42" viewBox="0 0 20 20"><circle class="cls-1" cx="10" cy="10" r="10"/><path class="cls-2" d="M12.5,5.57H7.24v.65A2.58,2.58,0,0,0,7.35,7a3.93,3.93,0,0,0,.3.66,4.92,4.92,0,0,0,.44.58c.17.18.35.35.54.52l.59.5c.2.15.39.31.58.47s.35.3.5.45a4.11,4.11,0,0,1,.38.45,2.55,2.55,0,0,1,.24.5,1.84,1.84,0,0,1,.09.57,1.42,1.42,0,0,1-.1.58,1.33,1.33,0,0,1-.29.41,1.17,1.17,0,0,1-.44.26,2.05,2.05,0,0,1-.55.05,2.73,2.73,0,0,1-1.05-.24,3.75,3.75,0,0,1-1-.72v1.31a2.85,2.85,0,0,0,.52.33,2.7,2.7,0,0,0,.55.24,3,3,0,0,0,.59.15,3.64,3.64,0,0,0,.66,0,3.77,3.77,0,0,0,1-.14,2.2,2.2,0,0,0,.79-.44,2,2,0,0,0,.51-.73,2.46,2.46,0,0,0,.18-1,2.88,2.88,0,0,0-.13-.92,2.65,2.65,0,0,0-.36-.76,4,4,0,0,0-.56-.67c-.21-.21-.46-.43-.73-.65l-.67-.53c-.23-.18-.43-.35-.61-.51a3.5,3.5,0,0,1-.44-.5.9.9,0,0,1-.16-.5H12.5Z"/></symbol><symbol id="New_Symbol_41" data-name="New Symbol 41" viewBox="0 0 20 20"><circle class="cls-1" cx="10" cy="10" r="10"/><path class="cls-2" d="M11.19,14.16V5.57H9.83V12.5A4.06,4.06,0,0,0,9,12a9,9,0,0,0-1-.33v1.21l.65.24.63.27.62.34c.21.13.42.27.64.43Z"/></symbol></defs><title>OJ104329348</title><g id="bg"><g id="Shapes"><rect class="cls-2" y="0.2" width="475.66" height="150"/><rect class="cls-3" width="105" height="150"/><rect class="cls-4" x="371" width="104.66" height="90"/><rect class="cls-5" x="371" y="95" width="104.66" height="55"/><line class="cls-6" x1="105" y1="15" x2="365.57" y2="15"/><polygon points="364.48 18.74 370.95 15 364.48 11.26 364.48 18.74"/><line class="cls-6" x1="110.38" y1="44.88" x2="370.95" y2="44.88"/><polygon points="111.48 48.62 105 44.88 111.48 41.14 111.48 48.62"/><line class="cls-6" x1="105" y1="105.16" x2="365.57" y2="105.16"/><polygon points="364.48 108.9 370.95 105.16 364.48 101.42 364.48 108.9"/><line class="cls-6" x1="110.43" y1="140.47" x2="371" y2="140.47"/><polygon points="111.52 144.21 105.05 140.47 111.52 136.73 111.52 144.21"/><use width="20" height="20" transform="matrix(1, 0, 0, -1, 158.88, 150)" xlink:href="#New_Symbol_44"/><use width="20" height="20" transform="matrix(1, 0, 0, -1, 158.88, 115.16)" xlink:href="#New_Symbol_43"/><use width="20" height="20" transform="matrix(1, 0, 0, -1, 158.88, 54.88)" xlink:href="#New_Symbol_42"/><use width="20" height="20" transform="matrix(1, 0, 0, -1, 158.88, 25)" xlink:href="#New_Symbol_41"/><path class="cls-7" d="M19.53,28.47A1.52,1.52,0,0,1,21,26.94h62.9a1.52,1.52,0,0,1,1.53,1.51V65.67A1.52,1.52,0,0,1,84,67.2H21.06a1.52,1.52,0,0,1-1.53-1.51V28.47Zm-3.48-1.78V67.37a3.29,3.29,0,0,0,3.28,3.3H85.66A3.29,3.29,0,0,0,89,67.43V26.69a3.29,3.29,0,0,0-3.28-3.3H19.34a3.29,3.29,0,0,0-3.29,3.29Z"/><path class="cls-7" d="M13.37,74.17H91.63a.87.87,0,0,1,.87.87h0v2.57a.87.87,0,0,1-.87.87H13.37a.87.87,0,0,1-.87-.87h0V75.05a.87.87,0,0,1,.86-.88Z"/><path class="cls-2" d="M43.57,75.71H61.43a.25.25,0,0,1,.25.25v.74a.26.26,0,0,1-.25.26H43.57a.26.26,0,0,1-.25-.26V76a.26.26,0,0,1,.21-.29Z"/><path class="cls-8" d="M37,36.09l12.67-1.72V46.55L37,46.62ZM49.66,48V60.15L37,58.41V47.87ZM51.2,34.15,68,31.7V46.4l-16.8.13ZM68,48.07V62.7L51.2,60.34V48Z"/><polygon class="cls-9" points="192.55 26 184.99 31.44 187.88 40.25 197.22 40.25 200.11 31.44 192.55 26"/></g><polygon class="cls-9" points="192.53 84.86 184.98 90.3 187.86 99.11 197.21 99.11 200.09 90.3 192.53 84.86"/></g><g id="txt"><path class="cls-10" d="M14.72,89.87l-2.63,5.76a6.94,6.94,0,0,1-1.39,2.2A2.42,2.42,0,0,1,9,98.42a2.62,2.62,0,0,1-1.09-.2V96.5a1.89,1.89,0,0,0,1,.31c.47,0,.89-.39,1.25-1.15L7.43,89.87H9.58L11,93.23a3.3,3.3,0,0,1,.19.69h0a4.88,4.88,0,0,1,.2-.66l1.35-3.39Z"/><path class="cls-10" d="M20.9,98.27H19V95.76H17v2.51H15.12v-6H17v2.22H19V92.27H20.9Z"/><path class="cls-10" d="M28.42,98.27H26.74V94.35a8.61,8.61,0,0,1-.49.85l-2,3.07H22.46v-6h1.69v3.8a7.28,7.28,0,0,1,.41-.73l2-3.07h1.82Z"/><path class="cls-10" d="M30,98.27v-6h3.35c1.43,0,2.14.49,2.14,1.47a1.27,1.27,0,0,1-.33.88,1.61,1.61,0,0,1-.88.47,1.7,1.7,0,0,1,1,.46,1.26,1.26,0,0,1,.38.92,1.65,1.65,0,0,1-.58,1.31,2.39,2.39,0,0,1-1.6.49Zm1.85-4.87v1.26h.91q.84,0,.84-.66c0-.4-.27-.6-.8-.6Zm0,2.35v1.37H32.9c.59,0,.89-.24.89-.72s-.3-.65-.91-.65Z"/><path class="cls-10" d="M42.33,95.8H38.42c.06.87.61,1.31,1.64,1.31a3.24,3.24,0,0,0,1.74-.47V98a4.5,4.5,0,0,1-2.16.45,2.81,2.81,0,0,1-3.06-3A3.2,3.2,0,0,1,37.45,93a2.9,2.9,0,0,1,2.13-.87,2.6,2.6,0,0,1,2,.77A3,3,0,0,1,42.33,95Zm-1.71-1.14q0-1.29-1-1.29a1,1,0,0,0-.77.37,1.6,1.6,0,0,0-.39.92Z"/><path class="cls-10" d="M45.31,97.57h0V101H43.43V92.27h1.86v.9h0A2.37,2.37,0,0,1,49,92.92a3.45,3.45,0,0,1,.63,2.18,3.67,3.67,0,0,1-.74,2.41,2.4,2.4,0,0,1-2,.91A1.86,1.86,0,0,1,45.31,97.57Zm-.05-2.46v.48a1.58,1.58,0,0,0,.32,1,1.08,1.08,0,0,0,.87.39,1.14,1.14,0,0,0,1-.49,2.39,2.39,0,0,0,.35-1.38c0-1.06-.41-1.59-1.24-1.59a1.17,1.17,0,0,0-.92.43A1.73,1.73,0,0,0,45.26,95.11Z"/><path class="cls-10" d="M55.42,98.05a3.57,3.57,0,0,1-1.81.37,3.06,3.06,0,0,1-2.24-.84,2.89,2.89,0,0,1-.85-2.16A3.17,3.17,0,0,1,51.43,93a3.4,3.4,0,0,1,2.46-.88,3.1,3.1,0,0,1,1.53.28V94a2.1,2.1,0,0,0-1.29-.44,1.61,1.61,0,0,0-1.73,1.75,1.76,1.76,0,0,0,.44,1.26,1.66,1.66,0,0,0,1.23.45,2.42,2.42,0,0,0,1.35-.43Z"/><path class="cls-10" d="M61.63,98.27H59.88v-.86h0a2,2,0,0,1-1.79,1,1.86,1.86,0,0,1-1.37-.5,1.79,1.79,0,0,1-.5-1.32q0-1.74,2.07-2l1.63-.22c0-.66-.36-1-1.07-1a3.72,3.72,0,0,0-2,.64V92.63a4.67,4.67,0,0,1,1.06-.35,5.63,5.63,0,0,1,1.22-.15,2.27,2.27,0,0,1,2.57,2.56Zm-1.74-2.44v-.4l-1.09.14c-.6.08-.91.35-.91.81a.68.68,0,0,0,.22.52.84.84,0,0,0,.6.21,1.1,1.1,0,0,0,.85-.36A1.33,1.33,0,0,0,59.89,95.83Z"/><path class="cls-10" d="M68.77,98.27H66.91V93.58h-1a9.9,9.9,0,0,1-1,3.74,2.11,2.11,0,0,1-2.51.9V97a.91.91,0,0,0,.43.1c.37,0,.67-.34.91-1a18.68,18.68,0,0,0,.66-3.76h4.36Z"/><path class="cls-10" d="M70.33,98.27v-6h1.85v2.1h1.58a2.35,2.35,0,0,1,1.59.49,1.76,1.76,0,0,1,.57,1.4,2,2,0,0,1-.56,1.46,2.14,2.14,0,0,1-1.56.55Zm1.85-2.73v1.55h.9c.62,0,.93-.26.93-.8s-.3-.75-.91-.75Z"/><path class="cls-10" d="M82.82,98.27H81V95.76H78.89v2.51H77v-6h1.85v2.22H81V92.27h1.86Z"/><path class="cls-10" d="M89.37,98.27H87.62v-.86h0a2,2,0,0,1-1.79,1,1.9,1.9,0,0,1-1.38-.5,1.79,1.79,0,0,1-.5-1.32q0-1.74,2.07-2l1.63-.22c0-.66-.35-1-1.07-1a3.66,3.66,0,0,0-2,.64V92.63a4.57,4.57,0,0,1,1-.35,5.7,5.7,0,0,1,1.22-.15,2.26,2.26,0,0,1,2.57,2.56Zm-1.74-2.44v-.4l-1.09.14q-.9.12-.9.81a.65.65,0,0,0,.22.52.8.8,0,0,0,.59.21,1.1,1.1,0,0,0,.85-.36A1.33,1.33,0,0,0,87.63,95.83Z"/><path class="cls-10" d="M96.1,98.27H94.27V96h-.42c-.33,0-.62.28-.89.86l-.64,1.38H90.26l.87-1.7a1.83,1.83,0,0,1,1.12-1q-1.5-.26-1.5-1.56c0-1.16.86-1.75,2.57-1.75H96.1Zm-1.83-3.34V93.45h-.7c-.64,0-1,.24-1,.73s.32.75,1,.75Z"/><path class="cls-10" d="M25.5,112.67H23.65V108H21.57v4.69H19.72v-6H25.5Z"/><path class="cls-10" d="M32.74,112.67H30.88V108h-1a9.9,9.9,0,0,1-1,3.74,2,2,0,0,1-1.79,1,2.27,2.27,0,0,1-.72-.11v-1.26a1,1,0,0,0,.43.09c.37,0,.67-.34.91-1a18,18,0,0,0,.66-3.76h4.36Z"/><path class="cls-10" d="M39.29,112.67H37.54v-.86h0a2,2,0,0,1-1.79,1,1.9,1.9,0,0,1-1.38-.5,1.79,1.79,0,0,1-.5-1.32q0-1.74,2.07-2l1.63-.22c0-.66-.35-1-1.07-1a3.65,3.65,0,0,0-2,.63V107a4.57,4.57,0,0,1,1-.35,5.7,5.7,0,0,1,1.22-.15,2.26,2.26,0,0,1,2.57,2.56Zm-1.74-2.44v-.4l-1.09.14c-.6.08-.9.35-.9.82a.64.64,0,0,0,.22.51.8.8,0,0,0,.59.21,1.1,1.1,0,0,0,.85-.36A1.31,1.31,0,0,0,37.55,110.23Z"/><path class="cls-10" d="M45.24,108.08h-1.6v4.59H41.78v-4.59H40.16v-1.41h5.08Z"/><path class="cls-10" d="M50.83,112.74v2.72H49.1v-2.72h-.29a3.19,3.19,0,0,1-2.31-.83,3,3,0,0,1-.84-2.21,3,3,0,0,1,.84-2.26,3.15,3.15,0,0,1,2.32-.84h.28v-2.52h1.73v2.52h.26a3.2,3.2,0,0,1,2.34.83,3.06,3.06,0,0,1,.84,2.27,3,3,0,0,1-.84,2.21,3.12,3.12,0,0,1-2.31.83Zm-1.73-1.3v-3.53H49a1.34,1.34,0,0,0-1.08.47,2,2,0,0,0-.39,1.32,1.85,1.85,0,0,0,.4,1.26,1.32,1.32,0,0,0,1.09.48Zm1.73-3.53v3.53h.07A1.35,1.35,0,0,0,52,111a1.9,1.9,0,0,0,.39-1.26,2,2,0,0,0-.39-1.32,1.33,1.33,0,0,0-1.07-.47Z"/><path class="cls-10" d="M58.31,112.82A3.23,3.23,0,0,1,56,112a3.47,3.47,0,0,1,0-4.61,3.38,3.38,0,0,1,2.41-.84,3.2,3.2,0,0,1,2.35.84,3,3,0,0,1,.85,2.22,3.18,3.18,0,0,1-.88,2.36A3.24,3.24,0,0,1,58.31,112.82Zm0-4.88a1.23,1.23,0,0,0-1,.45,2,2,0,0,0-.37,1.28c0,1.15.47,1.73,1.4,1.73s1.33-.59,1.33-1.77S59.25,107.94,58.36,107.94Z"/><path class="cls-10" d="M64.66,112h0v3.46H62.79v-8.76h1.85v.9h0a2.19,2.19,0,0,1,1.93-1,2.14,2.14,0,0,1,1.8.8A3.34,3.34,0,0,1,69,109.5a3.73,3.73,0,0,1-.74,2.41,2.43,2.43,0,0,1-2,.91A1.86,1.86,0,0,1,64.66,112Zm0-2.46V110a1.53,1.53,0,0,0,.33,1,1.06,1.06,0,0,0,.86.39,1.12,1.12,0,0,0,1-.49,2.39,2.39,0,0,0,.35-1.38q0-1.59-1.23-1.59a1.18,1.18,0,0,0-.93.43A1.73,1.73,0,0,0,64.61,109.51Z"/><path class="cls-10" d="M78,112.67H76.26V108a9.51,9.51,0,0,1-.31,1.11l-1.16,3.56H73.16L72,109.11a8.91,8.91,0,0,1-.31-1.1v4.66H70.23v-6h2.44l1.13,3.42a6.47,6.47,0,0,1,.3,1.07,6.86,6.86,0,0,1,.29-1l1.13-3.44H78Z"/><path class="cls-10" d="M84.54,112.67H82.79v-.86h0a2,2,0,0,1-1.79,1,1.86,1.86,0,0,1-1.37-.5,1.75,1.75,0,0,1-.5-1.32c0-1.16.68-1.83,2.06-2l1.63-.22c0-.66-.35-1-1.06-1a3.65,3.65,0,0,0-2,.63V107a4.74,4.74,0,0,1,1-.35,5.71,5.71,0,0,1,1.23-.15,2.26,2.26,0,0,1,2.56,2.56Zm-1.74-2.44v-.4l-1.09.14c-.6.08-.9.35-.9.82a.64.64,0,0,0,.22.51.84.84,0,0,0,.6.21,1.07,1.07,0,0,0,.84-.36A1.31,1.31,0,0,0,82.8,110.23Z"/><path class="cls-10" d="M37.87,118.67l-2.22,8.4h-2.1l-1.4-5.39a5.2,5.2,0,0,1-.13-.94h0a5.85,5.85,0,0,1-.16.94l-1.43,5.39H28.23L26,118.67h2.07l1.18,5.59a6.39,6.39,0,0,1,.11,1h0a4.2,4.2,0,0,1,.17-1l1.52-5.57h2l1.38,5.64a7.58,7.58,0,0,1,.13.9h0a6.11,6.11,0,0,1,.13-.93L36,118.67Z"/><path class="cls-10" d="M39.69,120.12a1.07,1.07,0,0,1-.77-.28.88.88,0,0,1-.3-.68.87.87,0,0,1,.3-.68,1.16,1.16,0,0,1,.77-.26,1.14,1.14,0,0,1,.77.26.87.87,0,0,1,.3.68.89.89,0,0,1-.3.69A1.1,1.1,0,0,1,39.69,120.12Zm.91,6.95H38.75v-6H40.6Z"/><path class="cls-10" d="M48,127.07H46.11v-3.33c0-.93-.33-1.4-1-1.4a1,1,0,0,0-.8.37,1.46,1.46,0,0,0-.31.94v3.42H42.16v-6H44v1h0a2.12,2.12,0,0,1,1.92-1.1c1.33,0,2,.83,2,2.48Z"/><path class="cls-10" d="M55.29,127.07H53.44v-.82h0a2.09,2.09,0,0,1-1.86,1,2.28,2.28,0,0,1-1.81-.8,3.25,3.25,0,0,1-.69-2.21,3.6,3.6,0,0,1,.76-2.39,2.45,2.45,0,0,1,2-.9,1.69,1.69,0,0,1,1.62.84h0v-3.57h1.85Zm-1.81-2.92v-.45a1.45,1.45,0,0,0-.34-1,1.12,1.12,0,0,0-.89-.39,1.1,1.1,0,0,0-1,.49,2.23,2.23,0,0,0-.34,1.32,2,2,0,0,0,.33,1.22,1.18,1.18,0,0,0,1.84,0A1.87,1.87,0,0,0,53.48,124.15Z"/><path class="cls-10" d="M59.71,127.22a3.23,3.23,0,0,1-2.36-.84,3.47,3.47,0,0,1,0-4.61,3.39,3.39,0,0,1,2.41-.85,3.21,3.21,0,0,1,2.35.85A3,3,0,0,1,63,124a3.18,3.18,0,0,1-.88,2.36A3.24,3.24,0,0,1,59.71,127.22Zm0-4.88a1.23,1.23,0,0,0-1,.45,2,2,0,0,0-.36,1.28c0,1.15.46,1.73,1.39,1.73s1.33-.59,1.33-1.78S60.65,122.34,59.76,122.34Z"/><path class="cls-10" d="M72.88,121.07l-1.73,6h-2l-.88-3.51a3.68,3.68,0,0,1-.1-.77h0a4,4,0,0,1-.11.74l-.95,3.54H65.2l-1.7-6h1.89l.82,3.92a4.8,4.8,0,0,1,.09.66h0a3.92,3.92,0,0,1,.1-.69l1-3.89h1.77l.92,3.92a5.62,5.62,0,0,1,.09.68h0c0-.23,0-.46.09-.68l.78-3.92Z"/><path class="cls-10" d="M73.36,126.91v-1.5a3.82,3.82,0,0,0,.91.41,3.08,3.08,0,0,0,.86.14,1.84,1.84,0,0,0,.78-.14.42.42,0,0,0,.28-.41.37.37,0,0,0-.13-.29.88.88,0,0,0-.33-.2,2.52,2.52,0,0,0-.44-.16l-.46-.16a4.68,4.68,0,0,1-.63-.29,1.89,1.89,0,0,1-.46-.36,1.44,1.44,0,0,1-.28-.48,2,2,0,0,1-.1-.64,1.69,1.69,0,0,1,.22-.86,1.88,1.88,0,0,1,.59-.6A2.9,2.9,0,0,1,75,121a4.46,4.46,0,0,1,1-.11,5.78,5.78,0,0,1,.81.07,5.88,5.88,0,0,1,.81.18v1.42a3.34,3.34,0,0,0-.76-.3,3.13,3.13,0,0,0-.79-.11,1.86,1.86,0,0,0-.34,0,1,1,0,0,0-.28.09.53.53,0,0,0-.2.16.4.4,0,0,0,0,.5.79.79,0,0,0,.27.2,2.15,2.15,0,0,0,.38.15l.42.14a6.9,6.9,0,0,1,.66.28,2.18,2.18,0,0,1,.52.36,1.39,1.39,0,0,1,.32.48,1.62,1.62,0,0,1,.12.66,1.76,1.76,0,0,1-.23.91,1.81,1.81,0,0,1-.62.61,2.66,2.66,0,0,1-.88.35,5.1,5.1,0,0,1-1,.11A5.27,5.27,0,0,1,73.36,126.91Z"/><path class="cls-11" d="M212.42,84.29h-1V80.46h-4.35v3.83h-1v-8.4h1v3.69h4.35V75.89h1Z"/><path class="cls-11" d="M219.52,76.78H217.1v7.51h-1V76.78h-2.42v-.89h5.83Z"/><path class="cls-11" d="M226,76.78h-2.42v7.51h-1V76.78h-2.42v-.89H226Z"/><path class="cls-11" d="M228.2,81.12v3.17h-1v-8.4h2.31a3,3,0,0,1,2.09.66,2.34,2.34,0,0,1,.74,1.85,2.55,2.55,0,0,1-.83,2,3.18,3.18,0,0,1-2.22.76Zm0-4.34v3.45h1a2.33,2.33,0,0,0,1.56-.47,1.64,1.64,0,0,0,.54-1.31c0-1.11-.66-1.67-2-1.67Z"/><path class="cls-11" d="M243.36,83.72a5.56,5.56,0,0,1-2.81.71,3.82,3.82,0,0,1-2.91-1.16,4.24,4.24,0,0,1-1.11-3.07,4.37,4.37,0,0,1,1.23-3.2,4.24,4.24,0,0,1,3.13-1.25,5.27,5.27,0,0,1,2.3.45v1.09a4.41,4.41,0,0,0-2.41-.65,3,3,0,0,0-2.32,1,4.07,4.07,0,0,0-.06,5,2.93,2.93,0,0,0,2.27.91,3.54,3.54,0,0,0,1.71-.39V80.8h-1.84v-.89h2.82Z"/><path class="cls-11" d="M249.7,84.29h-4.46v-8.4h4.27v.89h-3.28v2.8h3v.88h-3V83.4h3.47Z"/><path class="cls-11" d="M256.21,76.78h-2.43v7.51h-1V76.78h-2.42v-.89h5.83Z"/><path class="cls-11" d="M266.44,81.19h-2.37v2.36h-.78V81.19h-2.36V80.4h2.36V78h.78V80.4h2.37Z"/><path class="cls-11" d="M212.46,98.49h-1V93.55c-.09.25-.22.62-.4,1.1l-1.5,3.84h-.86l-1.55-3.84-.4-1.1v4.94H206v-6h1.22l1.58,3.92c.12.28.26.68.44,1.18l.43-1.16,1.53-3.94h1.28Z"/><path class="cls-11" d="M218.63,98.49h-1v-.93h0a2,2,0,0,1-1.84,1.07,2,2,0,0,1-1.41-.47,1.64,1.64,0,0,1-.5-1.26c0-1.12.66-1.77,2-2l1.8-.25c0-1-.42-1.53-1.24-1.53a3,3,0,0,0-2,.74v-1a3.68,3.68,0,0,1,2-.57c1.41,0,2.12.75,2.12,2.24Zm-1-3-1.45.2a2.3,2.3,0,0,0-1,.33,1,1,0,0,0-.34.84.92.92,0,0,0,.31.72,1.25,1.25,0,0,0,.84.28,1.52,1.52,0,0,0,1.18-.51,1.77,1.77,0,0,0,.47-1.26Z"/><path class="cls-11" d="M221.35,97.63h0v3.62h-1V92.49h1v1.06h0a2.26,2.26,0,0,1,2.07-1.2,2.18,2.18,0,0,1,1.81.81,3.31,3.31,0,0,1,.65,2.16,3.71,3.71,0,0,1-.73,2.41,2.44,2.44,0,0,1-2,.9A2,2,0,0,1,221.35,97.63Zm0-2.42V96a1.81,1.81,0,0,0,.48,1.27,1.72,1.72,0,0,0,2.59-.15,3.09,3.09,0,0,0,.5-1.86,2.41,2.41,0,0,0-.46-1.57,1.54,1.54,0,0,0-1.26-.57,1.73,1.73,0,0,0-1.35.58A2.2,2.2,0,0,0,221.33,95.21Z"/><path class="cls-11" d="M232.33,98.49H231l-2.65-2.88h0v2.88h-1v-6h1v2.75h0l2.52-2.75h1.26l-2.78,2.9Z"/><path class="cls-11" d="M238.06,95.73h-4.23a2.23,2.23,0,0,0,.53,1.55,1.89,1.89,0,0,0,1.42.55,3,3,0,0,0,1.87-.67v.9a3.53,3.53,0,0,1-2.1.57,2.53,2.53,0,0,1-2-.81,3.34,3.34,0,0,1-.73-2.3,3.29,3.29,0,0,1,.79-2.29,2.58,2.58,0,0,1,2-.88,2.28,2.28,0,0,1,1.82.76,3.19,3.19,0,0,1,.64,2.12Zm-1-.81a2,2,0,0,0-.4-1.3,1.4,1.4,0,0,0-1.1-.46,1.54,1.54,0,0,0-1.16.49,2.21,2.21,0,0,0-.58,1.27Z"/><path class="cls-11" d="M240.43,97.63h0v3.62h-1V92.49h1v1.06h0a2.26,2.26,0,0,1,2.07-1.2,2.18,2.18,0,0,1,1.81.81,3.31,3.31,0,0,1,.65,2.16,3.71,3.71,0,0,1-.73,2.41,2.45,2.45,0,0,1-2,.9A2,2,0,0,1,240.43,97.63Zm0-2.42V96a1.82,1.82,0,0,0,.49,1.27,1.72,1.72,0,0,0,2.59-.15,3.09,3.09,0,0,0,.5-1.86,2.47,2.47,0,0,0-.46-1.57,1.54,1.54,0,0,0-1.26-.57,1.73,1.73,0,0,0-1.35.58A2.16,2.16,0,0,0,240.4,95.21Z"/><path class="cls-11" d="M254.87,100.68h-.81V98.49h-4.47v2.19h-.82v-3h.54a9.09,9.09,0,0,0,1.56-5.19H254v5.19h.89Zm-1.85-3V93.31h-1.33a9.32,9.32,0,0,1-1.36,4.37Z"/><path class="cls-11" d="M258.64,98.63a2.79,2.79,0,0,1-2.13-.84,3.15,3.15,0,0,1-.79-2.23,3.26,3.26,0,0,1,.83-2.36,3,3,0,0,1,2.23-.85,2.69,2.69,0,0,1,2.09.83,3.75,3.75,0,0,1-.05,4.59A2.85,2.85,0,0,1,258.64,98.63Zm.07-5.47a1.84,1.84,0,0,0-1.47.63,2.59,2.59,0,0,0-.53,1.74,2.46,2.46,0,0,0,.54,1.68,1.85,1.85,0,0,0,1.46.62,1.76,1.76,0,0,0,1.43-.61,2.58,2.58,0,0,0,.5-1.72,2.62,2.62,0,0,0-.5-1.73A1.73,1.73,0,0,0,258.71,93.16Z"/><path class="cls-11" d="M267.18,98.22a3.1,3.1,0,0,1-1.64.41,2.68,2.68,0,0,1-2.07-.83,3,3,0,0,1-.79-2.17,3.32,3.32,0,0,1,.85-2.38,3,3,0,0,1,2.27-.9,3.06,3.06,0,0,1,1.39.3v1a2.45,2.45,0,0,0-1.43-.47,2,2,0,0,0-1.51.66,2.51,2.51,0,0,0-.58,1.73,2.4,2.4,0,0,0,.55,1.67,1.92,1.92,0,0,0,1.48.61,2.4,2.4,0,0,0,1.48-.53Z"/><path class="cls-11" d="M272.33,93.31h-1.8v5.18h-1V93.31h-1.81v-.82h4.57Z"/><path class="cls-11" d="M278.19,92.49l-2.76,7c-.5,1.25-1.19,1.87-2.08,1.87a2.12,2.12,0,0,1-.62-.08v-.86a1.73,1.73,0,0,0,.56.11,1.17,1.17,0,0,0,1.09-.87l.48-1.14-2.34-6h1.07l1.62,4.62c0,.06.06.21.12.46h0c0-.1.06-.24.12-.45l1.7-4.63Z"/><path class="cls-11" d="M284.13,98.49h-1V93.31h-3.06v5.18h-1v-6h5Z"/><path class="cls-11" d="M290.29,98.49h-1v-.93h0a2,2,0,0,1-1.85,1.07,2,2,0,0,1-1.4-.47,1.65,1.65,0,0,1-.51-1.26c0-1.12.66-1.77,2-2l1.79-.25q0-1.53-1.23-1.53a3,3,0,0,0-2,.74v-1a3.68,3.68,0,0,1,2-.57c1.41,0,2.11.75,2.11,2.24Zm-1-3-1.44.2a2.3,2.3,0,0,0-1,.33,1,1,0,0,0-.34.84.92.92,0,0,0,.31.72,1.25,1.25,0,0,0,.84.28,1.54,1.54,0,0,0,1.18-.51,1.76,1.76,0,0,0,.46-1.26Z"/><path class="cls-12" d="M397,33.21h-1.89V26.46h-3.48v6.75h-1.89v-8.4H397Z"/><path class="cls-12" d="M404.42,33.21h-1.87V28.52h-1a9.69,9.69,0,0,1-1,3.74,2,2,0,0,1-1.8,1,2.36,2.36,0,0,1-.72-.11V31.91a1.08,1.08,0,0,0,.44.09c.36,0,.67-.34.91-1a19.44,19.44,0,0,0,.66-3.76h4.36Z"/><path class="cls-12" d="M411,33.21h-1.76v-.86h0a2,2,0,0,1-1.79,1,1.86,1.86,0,0,1-1.37-.5,1.79,1.79,0,0,1-.5-1.32q0-1.74,2.07-2l1.63-.22c0-.66-.36-1-1.07-1a3.7,3.7,0,0,0-2,.63V27.57a4.67,4.67,0,0,1,1.06-.35,5.63,5.63,0,0,1,1.22-.15A2.27,2.27,0,0,1,411,29.63Zm-1.74-2.43v-.41l-1.09.14c-.6.08-.91.35-.91.82a.67.67,0,0,0,.22.51.84.84,0,0,0,.6.21,1.1,1.1,0,0,0,.85-.36A1.31,1.31,0,0,0,409.23,30.78Z"/><path class="cls-12" d="M416.92,28.62h-1.61v4.59h-1.86V28.62h-1.62V27.21h5.09Z"/><path class="cls-12" d="M422.5,33.28V36h-1.72V33.28h-.29a3.12,3.12,0,0,1-2.31-.83,3,3,0,0,1-.84-2.21,3,3,0,0,1,.84-2.26,3.13,3.13,0,0,1,2.32-.84h.28V24.62h1.72v2.52h.27a3.23,3.23,0,0,1,2.34.83,3.06,3.06,0,0,1,.84,2.27,3,3,0,0,1-.84,2.21,3.16,3.16,0,0,1-2.32.83ZM420.78,32V28.45h-.1a1.32,1.32,0,0,0-1.07.47,2,2,0,0,0-.39,1.32,1.9,1.9,0,0,0,.39,1.26,1.35,1.35,0,0,0,1.1.48Zm1.72-3.53V32h.08a1.33,1.33,0,0,0,1.09-.48,1.85,1.85,0,0,0,.4-1.26,2,2,0,0,0-.39-1.32,1.34,1.34,0,0,0-1.08-.47Z"/><path class="cls-12" d="M430,33.36a3.23,3.23,0,0,1-2.36-.84,3.05,3.05,0,0,1-.86-2.28,3.05,3.05,0,0,1,.89-2.33,3.37,3.37,0,0,1,2.41-.84,3.18,3.18,0,0,1,2.34.84,3,3,0,0,1,.85,2.22,3.18,3.18,0,0,1-.87,2.36A3.27,3.27,0,0,1,430,33.36Zm0-4.88a1.24,1.24,0,0,0-1,.46,2,2,0,0,0-.36,1.27c0,1.16.47,1.73,1.39,1.73s1.34-.59,1.34-1.77S430.93,28.48,430,28.48Z"/><path class="cls-12" d="M436.34,32.52h0V36h-1.85V27.21h1.85v.91h0a2.36,2.36,0,0,1,3.73-.25A3.42,3.42,0,0,1,440.7,30a3.65,3.65,0,0,1-.74,2.41,2.4,2.4,0,0,1-2,.91A1.87,1.87,0,0,1,436.34,32.52Zm0-2.47v.49a1.51,1.51,0,0,0,.32,1,1.08,1.08,0,0,0,.86.39,1.14,1.14,0,0,0,1-.49,2.37,2.37,0,0,0,.34-1.38q0-1.59-1.23-1.59a1.15,1.15,0,0,0-.92.44A1.68,1.68,0,0,0,436.29,30.05Z"/><path class="cls-12" d="M449.67,33.21h-1.73V28.54a9.51,9.51,0,0,1-.31,1.11l-1.17,3.56h-1.63l-1.16-3.56a7.31,7.31,0,0,1-.31-1.1v4.66H441.9v-6h2.44l1.14,3.42a7.21,7.21,0,0,1,.29,1.07,9.66,9.66,0,0,1,.3-1.05l1.13-3.44h2.47Z"/><path class="cls-12" d="M456.22,33.21h-1.75v-.86h0a2,2,0,0,1-1.78,1,1.88,1.88,0,0,1-1.38-.5,1.79,1.79,0,0,1-.5-1.32q0-1.74,2.07-2l1.63-.22c0-.66-.36-1-1.07-1a3.7,3.7,0,0,0-2,.63V27.57a4.67,4.67,0,0,1,1.06-.35,5.7,5.7,0,0,1,1.22-.15,2.27,2.27,0,0,1,2.57,2.56Zm-1.74-2.43v-.41l-1.09.14c-.6.08-.9.35-.9.82a.64.64,0,0,0,.22.51.8.8,0,0,0,.59.21,1.1,1.1,0,0,0,.85-.36A1.31,1.31,0,0,0,454.48,30.78Z"/><path class="cls-12" d="M384.9,41.61l-2.44,6.48c-.59,1.56-1.47,2.34-2.65,2.34a3.46,3.46,0,0,1-1.11-.15V48.8a1.53,1.53,0,0,0,.8.22,1,1,0,0,0,1-.67l.32-.75-2.44-6h2.05l1.12,3.65a5,5,0,0,1,.16.81h0a5.22,5.22,0,0,1,.19-.79l1.13-3.67Z"/><path class="cls-12" d="M391.49,49.8H390V47.61h-4V49.8h-1.49V46.31H385a9,9,0,0,0,1.35-4.7h4.21v4.7h.95Zm-2.8-3.49v-3.4h-.92a7.93,7.93,0,0,1-1,3.4Z"/><path class="cls-12" d="M395.42,47.76a3.23,3.23,0,0,1-2.36-.84,3.47,3.47,0,0,1,0-4.61,3.38,3.38,0,0,1,2.41-.84,3.16,3.16,0,0,1,2.34.84,3,3,0,0,1,.85,2.22,3.18,3.18,0,0,1-.87,2.36A3.27,3.27,0,0,1,395.42,47.76Zm.05-4.88a1.24,1.24,0,0,0-1,.46,1.92,1.92,0,0,0-.37,1.27c0,1.16.47,1.73,1.4,1.73s1.33-.59,1.33-1.77S396.36,42.88,395.47,42.88Z"/><path class="cls-12" d="M404.44,47.4a3.69,3.69,0,0,1-1.81.36,3.06,3.06,0,0,1-2.24-.84,2.89,2.89,0,0,1-.85-2.16,3.16,3.16,0,0,1,.92-2.41,3.36,3.36,0,0,1,2.45-.88,3.1,3.1,0,0,1,1.53.28v1.57a2.1,2.1,0,0,0-1.29-.44,1.82,1.82,0,0,0-1.29,3,1.66,1.66,0,0,0,1.23.45,2.42,2.42,0,0,0,1.35-.43Z"/><path class="cls-12" d="M410.14,43h-1.6v4.59h-1.87V43h-1.61V41.61h5.08Z"/><path class="cls-12" d="M413.8,47.76a3.23,3.23,0,0,1-2.36-.84,3.47,3.47,0,0,1,0-4.61,3.38,3.38,0,0,1,2.41-.84,3.2,3.2,0,0,1,2.35.84,3,3,0,0,1,.85,2.22,3.18,3.18,0,0,1-.88,2.36A3.24,3.24,0,0,1,413.8,47.76Zm.05-4.88a1.24,1.24,0,0,0-1,.46,1.92,1.92,0,0,0-.37,1.27c0,1.16.47,1.73,1.4,1.73s1.33-.59,1.33-1.77S414.74,42.88,413.85,42.88Z"/><path class="cls-12" d="M418.28,47.61v-6h3.35c1.43,0,2.14.49,2.14,1.47a1.25,1.25,0,0,1-.33.88,1.61,1.61,0,0,1-.88.47,1.76,1.76,0,0,1,1,.46,1.26,1.26,0,0,1,.38.92,1.65,1.65,0,0,1-.58,1.31,2.39,2.39,0,0,1-1.6.49Zm1.85-4.87V44H421q.84,0,.84-.66c0-.4-.27-.6-.8-.6Zm0,2.35v1.37h1.06c.59,0,.89-.24.89-.72s-.3-.65-.91-.65Z"/><path class="cls-12" d="M430.62,45.14h-3.91c.06.87.61,1.31,1.64,1.31a3.24,3.24,0,0,0,1.74-.47v1.33a4.5,4.5,0,0,1-2.16.45,2.81,2.81,0,0,1-3.06-3,3.2,3.2,0,0,1,.87-2.37,2.9,2.9,0,0,1,2.13-.87,2.6,2.6,0,0,1,2,.78,3,3,0,0,1,.72,2.11ZM428.91,44q0-1.29-1.05-1.29a1,1,0,0,0-.77.37,1.71,1.71,0,0,0-.39.92Z"/><path class="cls-12" d="M433.6,46.92h0v3.45h-1.86V41.61h1.86v.91h0a2.36,2.36,0,0,1,3.73-.25,3.42,3.42,0,0,1,.63,2.17,3.65,3.65,0,0,1-.74,2.41,2.4,2.4,0,0,1-2,.91A1.87,1.87,0,0,1,433.6,46.92Zm-.05-2.46v.48a1.57,1.57,0,0,0,.32,1,1.08,1.08,0,0,0,.87.39,1.14,1.14,0,0,0,1-.49,2.36,2.36,0,0,0,.35-1.38c0-1.06-.41-1.59-1.24-1.59a1.15,1.15,0,0,0-.92.44A1.69,1.69,0,0,0,433.55,44.46Z"/><path class="cls-12" d="M444.56,45.14h-3.92c.06.87.61,1.31,1.65,1.31A3.24,3.24,0,0,0,444,46v1.33a4.56,4.56,0,0,1-2.16.45,2.79,2.79,0,0,1-3.06-3,3.24,3.24,0,0,1,.86-2.37,2.9,2.9,0,0,1,2.14-.87,2.63,2.63,0,0,1,2,.78,3,3,0,0,1,.72,2.11ZM442.84,44c0-.86-.35-1.29-1-1.29a1,1,0,0,0-.77.37,1.72,1.72,0,0,0-.4.92Z"/><path class="cls-12" d="M451.44,47.61h-1.86v-2.5h-2.07v2.5h-1.85v-6h1.85v2.22h2.07V41.61h1.86Z"/><path class="cls-12" d="M459,47.61h-1.68V43.69a6.3,6.3,0,0,1-.49.85l-2,3.07H453v-6h1.69v3.81a6.47,6.47,0,0,1,.41-.74l2-3.07H459Z"/><path class="cls-12" d="M466.49,47.61h-1.68V43.69a6.3,6.3,0,0,1-.49.85l-2,3.07h-1.75v-6h1.69v3.81a6.47,6.47,0,0,1,.41-.74l2-3.07h1.82Zm-.43-8.86a2.13,2.13,0,0,1-.8,1.48,2.69,2.69,0,0,1-1.73.55,2.73,2.73,0,0,1-1.75-.55,2,2,0,0,1-.75-1.48h1.35a1,1,0,0,0,.37.74,1.21,1.21,0,0,0,.8.29,1.17,1.17,0,0,0,.79-.29,1,1,0,0,0,.37-.74Z"/><path class="cls-12" d="M396,62h-1.87V57c0-.55,0-1.15.07-1.8h0a9,9,0,0,1-.27,1.11l-2,5.71h-1.54l-2-5.65c-.05-.15-.14-.54-.26-1.17h-.05c.05.82.07,1.55.07,2.18V62h-1.7v-8.4h2.77l1.72,5a7.48,7.48,0,0,1,.29,1.2h0c.11-.46.22-.87.33-1.21l1.72-5H396Z"/><path class="cls-12" d="M402.72,62H401v-.86h0a2,2,0,0,1-1.79,1,1.86,1.86,0,0,1-1.37-.5,1.75,1.75,0,0,1-.5-1.32c0-1.16.68-1.83,2.06-2l1.63-.22c0-.66-.35-1-1.06-1a3.65,3.65,0,0,0-2,.63V56.37a4.57,4.57,0,0,1,1.05-.35,5.71,5.71,0,0,1,1.23-.15,2.26,2.26,0,0,1,2.56,2.56ZM401,59.58v-.41l-1.09.14c-.6.08-.9.35-.9.82a.64.64,0,0,0,.22.51.82.82,0,0,0,.59.21,1.08,1.08,0,0,0,.85-.36A1.31,1.31,0,0,0,401,59.58Z"/><path class="cls-12" d="M410.15,62h-1.68V58.09a7.59,7.59,0,0,1-.49.85l-2,3.07h-1.75V56h1.69v3.81a6.47,6.47,0,0,1,.41-.74l2-3.07h1.82Zm-.43-8.86a2.13,2.13,0,0,1-.8,1.48,2.69,2.69,0,0,1-1.73.55,2.73,2.73,0,0,1-1.75-.55,2,2,0,0,1-.75-1.48H406a1,1,0,0,0,.37.74,1.19,1.19,0,0,0,.8.29,1.17,1.17,0,0,0,.79-.29,1.08,1.08,0,0,0,.37-.74Z"/><path class="cls-12" d="M417.71,62h-2.23l-1.89-2.93h0V62h-1.85V56h1.85v2.82h0L415.44,56h2.19l-2.2,2.86Z"/><path class="cls-12" d="M420.3,61.32h0v3.45h-1.85V56h1.85v.91h0a2.18,2.18,0,0,1,1.93-1.05,2.14,2.14,0,0,1,1.8.8,3.4,3.4,0,0,1,.64,2.17,3.66,3.66,0,0,1-.75,2.41,2.4,2.4,0,0,1-2,.91A1.87,1.87,0,0,1,420.3,61.32Zm-.05-2.47v.48a1.53,1.53,0,0,0,.33,1,1.05,1.05,0,0,0,.86.39,1.12,1.12,0,0,0,1-.49,2.36,2.36,0,0,0,.35-1.38q0-1.59-1.23-1.59a1.18,1.18,0,0,0-.93.43A1.73,1.73,0,0,0,420.25,58.85Z"/><path class="cls-12" d="M428.73,62.16a3.23,3.23,0,0,1-2.36-.84,3.47,3.47,0,0,1,0-4.61,3.37,3.37,0,0,1,2.41-.84,3.18,3.18,0,0,1,2.34.84,3,3,0,0,1,.85,2.22,3.18,3.18,0,0,1-.87,2.36A3.27,3.27,0,0,1,428.73,62.16Zm0-4.88a1.24,1.24,0,0,0-1,.46,2,2,0,0,0-.36,1.27c0,1.16.47,1.73,1.4,1.73s1.33-.59,1.33-1.77S429.67,57.28,428.77,57.28Z"/><path class="cls-12" d="M437.75,61.8a3.69,3.69,0,0,1-1.81.36,3.06,3.06,0,0,1-2.24-.84,2.89,2.89,0,0,1-.85-2.16,3.19,3.19,0,0,1,.91-2.41,3.38,3.38,0,0,1,2.45-.88,3.14,3.14,0,0,1,1.54.28v1.57a2.12,2.12,0,0,0-1.29-.44,1.71,1.71,0,0,0-1.27.47,2,2,0,0,0,0,2.54,1.66,1.66,0,0,0,1.23.45,2.42,2.42,0,0,0,1.35-.43Z"/><path class="cls-12" d="M441.82,62.16a3.24,3.24,0,0,1-2.36-.84,3,3,0,0,1-.85-2.28,3,3,0,0,1,.89-2.33,3.34,3.34,0,0,1,2.4-.84,3.2,3.2,0,0,1,2.35.84,3,3,0,0,1,.85,2.22,3.15,3.15,0,0,1-.88,2.36A3.24,3.24,0,0,1,441.82,62.16Zm.05-4.88a1.21,1.21,0,0,0-1,.46,2,2,0,0,0-.36,1.27c0,1.16.46,1.73,1.39,1.73s1.33-.59,1.33-1.77S442.76,57.28,441.87,57.28Z"/><path class="cls-12" d="M451.09,62.08V64.8h-1.73V62.08h-.29a3.12,3.12,0,0,1-2.31-.83,3,3,0,0,1-.84-2.21,3,3,0,0,1,.84-2.26,3.13,3.13,0,0,1,2.32-.84h.28V53.42h1.73v2.52h.26a3.2,3.2,0,0,1,2.34.83,3.06,3.06,0,0,1,.84,2.27,3,3,0,0,1-.84,2.21,3.14,3.14,0,0,1-2.32.83Zm-1.73-1.3V57.25h-.1a1.33,1.33,0,0,0-1.07.47A2,2,0,0,0,447.8,59a1.9,1.9,0,0,0,.39,1.26,1.35,1.35,0,0,0,1.1.48Zm1.73-3.53v3.53h.07a1.32,1.32,0,0,0,1.09-.48,1.85,1.85,0,0,0,.4-1.26,2,2,0,0,0-.39-1.32,1.33,1.33,0,0,0-1.07-.47Z"/><path class="cls-12" d="M460,57.42h-1.61V62h-1.86V57.42h-1.62V56H460Z"/><path class="cls-13" d="M392.4,118.23h-2.06l-.6-1.87h-3l-.59,1.87h-2.05l3.06-8.4h2.25Zm-3.09-3.32-.9-2.82a3.12,3.12,0,0,1-.14-.76h0a3.06,3.06,0,0,1-.15.73l-.91,2.85Z"/><path class="cls-13" d="M395.34,115.34v2.89h-1.89v-8.4h3c2.11,0,3.17.89,3.17,2.68a2.58,2.58,0,0,1-.91,2,3.62,3.62,0,0,1-2.43.78Zm0-4.06v2.62h.75c1,0,1.51-.44,1.51-1.32s-.5-1.3-1.51-1.3Z"/><path class="cls-13" d="M402.72,118.23h-1.9v-8.4h1.9Z"/><path class="cls-13" d="M417.51,118.23h-1.87v-5c0-.55,0-1.15.07-1.8h0a9,9,0,0,1-.27,1.11l-2,5.71h-1.54l-2-5.65c-.05-.15-.14-.54-.26-1.17h-.05c.05.82.07,1.55.07,2.18v4.64h-1.7v-8.4h2.77l1.71,5a6.58,6.58,0,0,1,.3,1.2h0c.1-.46.22-.87.33-1.21l1.72-5h2.7Z"/><path class="cls-13" d="M420.18,111.28a1.06,1.06,0,0,1-.77-.28.88.88,0,0,1-.3-.68.87.87,0,0,1,.3-.68,1.14,1.14,0,0,1,.77-.26,1.16,1.16,0,0,1,.77.26.89.89,0,0,1,.29.68.91.91,0,0,1-.29.69A1.11,1.11,0,0,1,420.18,111.28Zm.91,7h-1.85v-6h1.85Z"/><path class="cls-13" d="M427.2,118a3.72,3.72,0,0,1-1.81.36,3,3,0,0,1-2.24-.84,2.9,2.9,0,0,1-.86-2.16,3.19,3.19,0,0,1,.92-2.41,3.38,3.38,0,0,1,2.45-.88,3.14,3.14,0,0,1,1.54.28v1.57a2.13,2.13,0,0,0-1.3-.44,1.71,1.71,0,0,0-1.26.47,1.75,1.75,0,0,0-.47,1.29,1.71,1.71,0,0,0,.45,1.25,1.64,1.64,0,0,0,1.22.45,2.47,2.47,0,0,0,1.36-.43Z"/><path class="cls-13" d="M432.32,113.9a1.61,1.61,0,0,0-.78-.18,1.14,1.14,0,0,0-.94.44,1.93,1.93,0,0,0-.34,1.21v2.86h-1.85v-6h1.85v1.12h0a1.6,1.6,0,0,1,1.59-1.22,1.12,1.12,0,0,1,.45.07Z"/><path class="cls-13" d="M436,118.38a3.23,3.23,0,0,1-2.36-.84,3.47,3.47,0,0,1,0-4.61,3.37,3.37,0,0,1,2.41-.84,3.16,3.16,0,0,1,2.34.84,3,3,0,0,1,.85,2.22,3.18,3.18,0,0,1-.87,2.36A3.27,3.27,0,0,1,436,118.38Zm0-4.88a1.24,1.24,0,0,0-1,.46,2,2,0,0,0-.36,1.27c0,1.15.47,1.73,1.4,1.73s1.33-.59,1.33-1.77S436.94,113.5,436,113.5Z"/><path class="cls-13" d="M440.08,118.07v-1.5a3.82,3.82,0,0,0,.91.41,3,3,0,0,0,.86.14,1.84,1.84,0,0,0,.78-.14.42.42,0,0,0,.28-.41.37.37,0,0,0-.13-.29.88.88,0,0,0-.33-.2,2.52,2.52,0,0,0-.44-.16c-.16,0-.32-.1-.46-.16a4.68,4.68,0,0,1-.63-.29,1.54,1.54,0,0,1-.46-.36,1.44,1.44,0,0,1-.28-.48,1.7,1.7,0,0,1-.1-.63,1.61,1.61,0,0,1,.22-.87,1.88,1.88,0,0,1,.59-.6,3,3,0,0,1,.83-.34,4.62,4.62,0,0,1,1-.1,5.49,5.49,0,0,1,.8.06,5.3,5.3,0,0,1,.81.18v1.43a2.76,2.76,0,0,0-.75-.31,3.11,3.11,0,0,0-.79-.1,1.87,1.87,0,0,0-.34,0,1,1,0,0,0-.28.09.54.54,0,0,0-.2.16.4.4,0,0,0,0,.5.79.79,0,0,0,.27.2l.38.16.41.13a6.16,6.16,0,0,1,.67.28,2.55,2.55,0,0,1,.51.36,1.29,1.29,0,0,1,.33.48,1.66,1.66,0,0,1,.12.66,1.76,1.76,0,0,1-.23.91,1.81,1.81,0,0,1-.62.61,2.75,2.75,0,0,1-.88.35,5.37,5.37,0,0,1-2.88-.2Z"/><path class="cls-13" d="M448.61,118.38a3.24,3.24,0,0,1-2.36-.84,3,3,0,0,1-.85-2.28,3,3,0,0,1,.89-2.33,3.34,3.34,0,0,1,2.4-.84,3.2,3.2,0,0,1,2.35.84,3,3,0,0,1,.85,2.22,3.15,3.15,0,0,1-.88,2.36A3.24,3.24,0,0,1,448.61,118.38Zm.05-4.88a1.21,1.21,0,0,0-1,.46,2,2,0,0,0-.36,1.27c0,1.15.46,1.73,1.39,1.73s1.33-.59,1.33-1.77S449.55,113.5,448.66,113.5Z"/><path class="cls-13" d="M456.82,110.77a1.76,1.76,0,0,0-.68-.14c-.6,0-.89.32-.89,1v.64h1.37v1.37h-1.37v4.63H453.4V113.6h-1v-1.37h1v-.74a2.12,2.12,0,0,1,.67-1.65,2.52,2.52,0,0,1,1.81-.63,3.11,3.11,0,0,1,.94.12Z"/><path class="cls-13" d="M461.36,118.16a2.62,2.62,0,0,1-1.23.22,1.76,1.76,0,0,1-2-2V113.6h-1v-1.37h1v-1.29l1.84-.53v1.82h1.35v1.37H460V116c0,.63.25.94.75.94a1.27,1.27,0,0,0,.6-.17Z"/><path class="cls-13" d="M413.48,132.07a6.08,6.08,0,0,1-3.06.71,4.4,4.4,0,0,1-3.19-1.12,4.08,4.08,0,0,1-1.17-3.09,4.29,4.29,0,0,1,1.28-3.23,4.65,4.65,0,0,1,3.39-1.25,6.8,6.8,0,0,1,2.36.37v1.77a4.73,4.73,0,0,0-2.38-.56,2.58,2.58,0,0,0-1.92.77,2.82,2.82,0,0,0-.74,2,2.78,2.78,0,0,0,.67,2,2.31,2.31,0,0,0,1.79.71,2.52,2.52,0,0,0,1.08-.19v-1.64h-1.68v-1.51h3.57Z"/><path class="cls-13" d="M418.85,128.3a1.61,1.61,0,0,0-.78-.18,1.12,1.12,0,0,0-.94.44,1.93,1.93,0,0,0-.34,1.21v2.86h-1.85v-6h1.85v1.12h0a1.59,1.59,0,0,1,1.58-1.22,1.14,1.14,0,0,1,.46.07Z"/><path class="cls-13" d="M424.7,132.63H423v-.86h0a2,2,0,0,1-1.79,1,1.86,1.86,0,0,1-1.37-.5,1.75,1.75,0,0,1-.5-1.32c0-1.16.69-1.83,2.06-2l1.63-.22c0-.66-.35-1-1.06-1a3.65,3.65,0,0,0-2,.63V127a4.67,4.67,0,0,1,1.06-.35,5.56,5.56,0,0,1,1.22-.15,2.26,2.26,0,0,1,2.56,2.56ZM423,130.2v-.41l-1.09.14c-.6.08-.9.35-.9.82a.64.64,0,0,0,.22.51.84.84,0,0,0,.6.21,1.07,1.07,0,0,0,.84-.36A1.31,1.31,0,0,0,423,130.2Z"/><path class="cls-13" d="M428,131.94h0v3.45h-1.85v-8.76H428v.91h0a2.18,2.18,0,0,1,1.93-1.05,2.14,2.14,0,0,1,1.8.8,3.34,3.34,0,0,1,.64,2.17,3.71,3.71,0,0,1-.74,2.41,2.41,2.41,0,0,1-2,.91A1.88,1.88,0,0,1,428,131.94Zm-.05-2.47V130a1.52,1.52,0,0,0,.33,1,1.06,1.06,0,0,0,.86.39,1.12,1.12,0,0,0,1-.49,2.36,2.36,0,0,0,.35-1.38q0-1.59-1.23-1.59a1.18,1.18,0,0,0-.93.43A1.73,1.73,0,0,0,428,129.47Z"/><path class="cls-13" d="M439.37,132.63h-1.85v-3.41q0-1.32-1-1.32a1,1,0,0,0-.79.37,1.4,1.4,0,0,0-.31.94v3.42h-1.85v-8.88h1.85v3.77h0a2.11,2.11,0,0,1,1.85-1q2,0,2,2.46Z"/><path class="cls-11" d="M192.38,9.57h-1V2.08H187V9.57h-1V1.17h6.38Z"/><path class="cls-11" d="M196.84,9.71a2.77,2.77,0,0,1-2.12-.84,3.11,3.11,0,0,1-.8-2.23,3.25,3.25,0,0,1,.83-2.36A3,3,0,0,1,197,3.43a2.68,2.68,0,0,1,2.1.83,3.27,3.27,0,0,1,.75,2.29,3.25,3.25,0,0,1-.81,2.3A2.87,2.87,0,0,1,196.84,9.71Zm.07-5.47a1.81,1.81,0,0,0-1.46.63,2.58,2.58,0,0,0-.54,1.73,2.47,2.47,0,0,0,.54,1.69,1.85,1.85,0,0,0,1.46.61,1.75,1.75,0,0,0,1.43-.6,2.59,2.59,0,0,0,.5-1.72,2.61,2.61,0,0,0-.5-1.73A1.73,1.73,0,0,0,196.91,4.24Z"/><path class="cls-11" d="M205.64,9.57h-.95V4.38h-1.4a12.33,12.33,0,0,1-.82,4.09,1.76,1.76,0,0,1-1.57,1.18,1.52,1.52,0,0,1-.51-.08V8.74a.93.93,0,0,0,.44.11c.86,0,1.42-1.76,1.66-5.28h3.15Z"/><path class="cls-11" d="M212.27,3.57l-2.76,7q-.73,1.86-2.07,1.86a2.28,2.28,0,0,1-.63-.07v-.86a1.76,1.76,0,0,0,.57.1,1.19,1.19,0,0,0,1.09-.87L209,9.56l-2.35-6h1.07l1.62,4.62.13.45h0c0-.09.06-.24.12-.44l1.7-4.63Z"/><path class="cls-11" d="M218,9.57h-1V7.16a4.12,4.12,0,0,1-1.94.57c-1.35,0-2-.71-2-2.13v-2h1v2q0,1.32,1.14,1.32a4.08,4.08,0,0,0,1.86-.51V3.57h1Z"/><path class="cls-11" d="M224.71,6.81h-4.24A2.3,2.3,0,0,0,221,8.36a1.88,1.88,0,0,0,1.42.54,2.89,2.89,0,0,0,1.86-.67v.91a3.47,3.47,0,0,1-2.09.57,2.53,2.53,0,0,1-2-.82,3.35,3.35,0,0,1-.72-2.3,3.28,3.28,0,0,1,.79-2.28,2.54,2.54,0,0,1,2-.88,2.22,2.22,0,0,1,1.82.76,3.18,3.18,0,0,1,.65,2.12Zm-1-.81a2,2,0,0,0-.41-1.3,1.35,1.35,0,0,0-1.09-.46,1.57,1.57,0,0,0-1.16.48A2.25,2.25,0,0,0,220.48,6Z"/><path class="cls-11" d="M231.05,9.57h-1V6.85H227V9.57h-1v-6h1V6h3.06V3.57h1Z"/><path class="cls-11" d="M237.92,9.57h-.86V4.78c-.09.17-.22.41-.4.71l-2.77,4.08h-1v-6h.88V8.3a4.08,4.08,0,0,1,.3-.58l2.85-4.15h1Z"/><path class="cls-11" d="M244.6,6.81h-4.24a2.3,2.3,0,0,0,.54,1.55,1.87,1.87,0,0,0,1.42.54,2.93,2.93,0,0,0,1.86-.67v.91a3.5,3.5,0,0,1-2.09.57,2.53,2.53,0,0,1-2-.82,3.36,3.36,0,0,1-.73-2.3,3.29,3.29,0,0,1,.8-2.28,2.53,2.53,0,0,1,2-.88,2.24,2.24,0,0,1,1.82.76,3.18,3.18,0,0,1,.65,2.12Zm-1-.81a2,2,0,0,0-.4-1.3,1.36,1.36,0,0,0-1.1-.46,1.55,1.55,0,0,0-1.15.48A2.25,2.25,0,0,0,240.37,6Z"/><path class="cls-11" d="M255.63,9.57h-.95V4.62l-.4,1.11-1.5,3.84h-.86l-1.55-3.84c-.08-.21-.22-.58-.4-1.11v5h-.83v-6h1.23L252,7.48c.11.29.26.68.43,1.19l.43-1.16,1.54-3.94h1.28Z"/><path class="cls-11" d="M261.77,9.57h-1V8.63h0a2,2,0,0,1-1.85,1.08,2,2,0,0,1-1.4-.47A1.65,1.65,0,0,1,257,8c0-1.13.66-1.78,2-2l1.8-.25c0-1-.41-1.53-1.24-1.53a2.9,2.9,0,0,0-1.95.74V4a3.73,3.73,0,0,1,2-.56c1.41,0,2.12.75,2.12,2.24Zm-1-3-1.45.2a2.65,2.65,0,0,0-1,.33,1,1,0,0,0-.34.85.9.9,0,0,0,.32.71,1.18,1.18,0,0,0,.83.28,1.55,1.55,0,0,0,1.18-.5,1.8,1.8,0,0,0,.47-1.27Z"/><path class="cls-11" d="M264.47,8.7h0v3.63h-1V3.57h1V4.62h0a2.27,2.27,0,0,1,2.07-1.19,2.2,2.2,0,0,1,1.81.8A3.31,3.31,0,0,1,269,6.39a3.73,3.73,0,0,1-.73,2.42,2.45,2.45,0,0,1-2,.9A2,2,0,0,1,264.47,8.7Zm0-2.42v.84a1.78,1.78,0,0,0,.49,1.26,1.72,1.72,0,0,0,2.59-.15,3,3,0,0,0,.5-1.85,2.47,2.47,0,0,0-.46-1.57,1.54,1.54,0,0,0-1.26-.57,1.7,1.7,0,0,0-1.35.58A2.15,2.15,0,0,0,264.44,6.28Z"/><path class="cls-11" d="M275.42,9.57h-1.34l-2.65-2.88h0V9.57h-1v-6h1V6.32h0L274,3.57h1.26l-2.79,2.89Z"/><path class="cls-11" d="M281.13,6.81H276.9a2.21,2.21,0,0,0,.54,1.55,1.85,1.85,0,0,0,1.41.54,2.94,2.94,0,0,0,1.87-.67v.91a3.52,3.52,0,0,1-2.09.57,2.52,2.52,0,0,1-2-.82,3.31,3.31,0,0,1-.73-2.3,3.29,3.29,0,0,1,.8-2.28,2.51,2.51,0,0,1,2-.88,2.25,2.25,0,0,1,1.82.76,3.18,3.18,0,0,1,.64,2.12Zm-1-.81a2,2,0,0,0-.4-1.3,1.37,1.37,0,0,0-1.1-.46,1.55,1.55,0,0,0-1.15.48A2.19,2.19,0,0,0,276.91,6Z"/><path class="cls-11" d="M283.47,8.7h0v3.63h-1V3.57h1V4.62h0a2.3,2.3,0,0,1,2.08-1.19,2.21,2.21,0,0,1,1.81.8A3.37,3.37,0,0,1,288,6.39a3.73,3.73,0,0,1-.73,2.42,2.46,2.46,0,0,1-2,.9A2,2,0,0,1,283.47,8.7Zm0-2.42v.84a1.77,1.77,0,0,0,.48,1.26,1.73,1.73,0,0,0,2.6-.15,3,3,0,0,0,.5-1.85,2.41,2.41,0,0,0-.47-1.57,1.52,1.52,0,0,0-1.25-.57,1.7,1.7,0,0,0-1.35.58A2.15,2.15,0,0,0,283.45,6.28Z"/><path class="cls-11" d="M293.74,9.57h-1V8.63h0a2.2,2.2,0,0,1-3.25.61A1.65,1.65,0,0,1,289,8c0-1.13.66-1.78,2-2l1.8-.25q0-1.53-1.23-1.53a2.91,2.91,0,0,0-2,.74V4a3.76,3.76,0,0,1,2-.56c1.41,0,2.11.75,2.11,2.24Zm-1-3-1.44.2a2.53,2.53,0,0,0-1,.33,1,1,0,0,0-.34.85.89.89,0,0,0,.31.71,1.2,1.2,0,0,0,.84.28,1.56,1.56,0,0,0,1.18-.5,1.79,1.79,0,0,0,.46-1.27Z"/><path class="cls-11" d="M213.07,37.46h-1V31.82c0-.44,0-1,.09-1.63h0a5.05,5.05,0,0,1-.25.81L209,37.46h-.48l-2.87-6.41a5.64,5.64,0,0,1-.25-.86h0c0,.33.05.88.05,1.64v5.63h-1v-8.4h1.3l2.57,5.86a7.92,7.92,0,0,1,.39,1h0c.16-.46.3-.8.4-1l2.63-5.83h1.23Z"/><path class="cls-11" d="M219.38,37.46h-1v-.94h0a2.2,2.2,0,0,1-3.25.61,1.65,1.65,0,0,1-.51-1.26c0-1.12.66-1.78,2-2l1.79-.25q0-1.53-1.23-1.53a2.92,2.92,0,0,0-2,.74v-1a3.76,3.76,0,0,1,2-.56c1.41,0,2.12.75,2.12,2.24Zm-1-3-1.44.2a2.43,2.43,0,0,0-1,.34.93.93,0,0,0-.34.84.89.89,0,0,0,.31.71,1.2,1.2,0,0,0,.84.28,1.53,1.53,0,0,0,1.18-.5,1.79,1.79,0,0,0,.46-1.27Z"/><path class="cls-11" d="M222.1,36.59h0v3.63h-1V31.46h1v1h0a2.27,2.27,0,0,1,2.07-1.19,2.18,2.18,0,0,1,1.81.81,3.27,3.27,0,0,1,.65,2.15,3.73,3.73,0,0,1-.73,2.42,2.44,2.44,0,0,1-2,.9A2,2,0,0,1,222.1,36.59Zm0-2.42V35a1.77,1.77,0,0,0,.48,1.26,1.72,1.72,0,0,0,2.59-.15,3,3,0,0,0,.5-1.85,2.41,2.41,0,0,0-.46-1.57,1.54,1.54,0,0,0-1.26-.57,1.7,1.7,0,0,0-1.35.58A2.19,2.19,0,0,0,222.08,34.17Z"/><path class="cls-11" d="M233.08,37.46h-1.35l-2.65-2.88h0v2.88h-1v-6h1v2.75h0l2.52-2.75h1.26l-2.78,2.89Z"/><path class="cls-11" d="M238.81,34.7h-4.23a2.25,2.25,0,0,0,.53,1.55,1.88,1.88,0,0,0,1.42.54,2.94,2.94,0,0,0,1.87-.67V37a3.53,3.53,0,0,1-2.1.57,2.51,2.51,0,0,1-2-.82,3.31,3.31,0,0,1-.73-2.3,3.28,3.28,0,0,1,.79-2.28,2.54,2.54,0,0,1,2-.88,2.26,2.26,0,0,1,1.83.76,3.18,3.18,0,0,1,.64,2.12Zm-1-.81a2,2,0,0,0-.4-1.3,1.37,1.37,0,0,0-1.1-.46,1.57,1.57,0,0,0-1.16.48,2.24,2.24,0,0,0-.58,1.28Z"/><path class="cls-11" d="M241.18,36.59h0v3.63h-1V31.46h1v1h0a2.27,2.27,0,0,1,2.07-1.19,2.19,2.19,0,0,1,1.81.81,3.27,3.27,0,0,1,.65,2.15A3.73,3.73,0,0,1,245,36.7a2.45,2.45,0,0,1-2,.9A2,2,0,0,1,241.18,36.59Zm0-2.42V35a1.73,1.73,0,0,0,.49,1.26,1.71,1.71,0,0,0,2.59-.15,3,3,0,0,0,.5-1.85,2.41,2.41,0,0,0-.47-1.57,1.51,1.51,0,0,0-1.25-.57,1.7,1.7,0,0,0-1.35.58A2.15,2.15,0,0,0,241.15,34.17Z"/><path class="cls-11" d="M255.62,39.65h-.81V37.46h-4.47v2.19h-.82v-3h.54a9.09,9.09,0,0,0,1.56-5.19h3.11v5.19h.89Zm-1.85-3V32.27h-1.33a9.33,9.33,0,0,1-1.36,4.38Z"/><path class="cls-11" d="M259.39,37.6a2.79,2.79,0,0,1-2.13-.84,3.15,3.15,0,0,1-.79-2.23,3.25,3.25,0,0,1,.83-2.36,3,3,0,0,1,2.23-.85,2.66,2.66,0,0,1,2.09.83,3.23,3.23,0,0,1,.76,2.29,3.25,3.25,0,0,1-.81,2.3A2.88,2.88,0,0,1,259.39,37.6Zm.07-5.47a1.84,1.84,0,0,0-1.47.63,2.59,2.59,0,0,0-.53,1.74,2.46,2.46,0,0,0,.54,1.68,1.85,1.85,0,0,0,1.46.61,1.75,1.75,0,0,0,1.43-.6,2.59,2.59,0,0,0,.5-1.72,2.61,2.61,0,0,0-.5-1.73A1.73,1.73,0,0,0,259.46,32.13Z"/><path class="cls-11" d="M267.93,37.18a3.1,3.1,0,0,1-1.64.42,2.72,2.72,0,0,1-2.07-.83,3,3,0,0,1-.79-2.17,3.3,3.3,0,0,1,.85-2.38,3,3,0,0,1,2.27-.9,3.23,3.23,0,0,1,1.39.29v1a2.38,2.38,0,0,0-1.43-.47,2,2,0,0,0-1.51.66,2.5,2.5,0,0,0-.59,1.73,2.36,2.36,0,0,0,.56,1.66,1.89,1.89,0,0,0,1.48.61,2.39,2.39,0,0,0,1.48-.52Z"/><path class="cls-11" d="M273.08,32.28h-1.8v5.18h-1V32.28h-1.81v-.82h4.57Z"/><path class="cls-11" d="M278.94,31.46l-2.76,7c-.5,1.24-1.19,1.86-2.08,1.86a2.16,2.16,0,0,1-.62-.07v-.86a1.7,1.7,0,0,0,.56.1,1.17,1.17,0,0,0,1.09-.87l.48-1.13-2.34-6h1.07L276,36.08q0,.09.12.45h0c0-.09.06-.24.12-.44l1.7-4.63Z"/><path class="cls-11" d="M284.88,37.46h-1V32.28h-3.06v5.18h-1v-6h5Z"/><path class="cls-11" d="M291,37.46h-1v-.94h0a2.2,2.2,0,0,1-3.25.61,1.65,1.65,0,0,1-.51-1.26c0-1.12.66-1.78,2-2l1.79-.25q0-1.53-1.23-1.53a2.92,2.92,0,0,0-2,.74v-1a3.76,3.76,0,0,1,2-.56c1.41,0,2.11.75,2.11,2.24Zm-1-3-1.44.2a2.43,2.43,0,0,0-1,.34.93.93,0,0,0-.34.84.89.89,0,0,0,.31.71,1.2,1.2,0,0,0,.84.28,1.53,1.53,0,0,0,1.18-.5,1.79,1.79,0,0,0,.46-1.27Z"/><path class="cls-11" d="M189.39,135.57a3.66,3.66,0,0,1-2.86-1.18,4.33,4.33,0,0,1-1.08-3.06,4.66,4.66,0,0,1,1.1-3.24,3.83,3.83,0,0,1,3-1.2,3.6,3.6,0,0,1,2.8,1.17,4.37,4.37,0,0,1,1.07,3.06,4.7,4.7,0,0,1-1.09,3.26A3.78,3.78,0,0,1,189.39,135.57Zm.07-7.79a2.73,2.73,0,0,0-2.15.95,4.24,4.24,0,0,0,0,5,2.64,2.64,0,0,0,2.1.95,2.77,2.77,0,0,0,2.18-.91,3.68,3.68,0,0,0,.8-2.52,3.81,3.81,0,0,0-.78-2.57A2.62,2.62,0,0,0,189.46,127.78Z"/><path class="cls-11" d="M198.65,130.25h-1.8v5.18h-1v-5.18h-1.8v-.82h4.56Z"/><path class="cls-11" d="M199.77,135.43v-6h2.61a2.26,2.26,0,0,1,1.4.39,1.28,1.28,0,0,1,.51,1.07,1.32,1.32,0,0,1-1.14,1.42c.91.12,1.37.58,1.37,1.39a1.59,1.59,0,0,1-.56,1.23,2.08,2.08,0,0,1-1.41.5Zm1-5.18v1.69h1.44c.78,0,1.16-.3,1.16-.9s-.35-.79-1-.79Zm0,2.51v1.85h1.67c.77,0,1.16-.32,1.16-.94s-.43-.91-1.31-.91Z"/><path class="cls-11" d="M210.91,132.67h-4.23a2.21,2.21,0,0,0,.54,1.55,1.85,1.85,0,0,0,1.41.54,2.94,2.94,0,0,0,1.87-.67V135a3.52,3.52,0,0,1-2.09.57,2.52,2.52,0,0,1-2-.82,3.81,3.81,0,0,1,.07-4.58,2.51,2.51,0,0,1,2-.88,2.25,2.25,0,0,1,1.82.76,3.18,3.18,0,0,1,.64,2.12Zm-1-.81a2,2,0,0,0-.4-1.3,1.37,1.37,0,0,0-1.1-.46,1.59,1.59,0,0,0-1.16.48,2.24,2.24,0,0,0-.58,1.28Z"/><path class="cls-11" d="M216.1,130.25h-1.8v5.18h-1v-5.18h-1.81v-.82h4.57Z"/><path class="cls-11" d="M226.91,135.43h-1V131.6h-4.35v3.83h-1V127h1v3.68h4.35V127h1Z"/><path class="cls-11" d="M234.05,127.92h-2.43v7.51h-1v-7.51h-2.42V127h5.83Z"/><path class="cls-11" d="M240.54,127.92h-2.43v7.51h-1v-7.51H234.7V127h5.84Z"/><path class="cls-11" d="M242.8,132.25v3.18h-1V127h2.31a3.07,3.07,0,0,1,2.08.65,2.35,2.35,0,0,1,.75,1.86,2.55,2.55,0,0,1-.83,2,3.13,3.13,0,0,1-2.22.76Zm0-4.33v3.44h1a2.32,2.32,0,0,0,1.56-.46,1.64,1.64,0,0,0,.53-1.32c0-1.11-.65-1.66-2-1.66Z"/></g></svg>