<svg xmlns="http://www.w3.org/2000/svg" xmlns:xlink="http://www.w3.org/1999/xlink" viewBox="0 0 475.49 150.76"><defs><style>.cls-1{fill:#505050;}.cls-10,.cls-14,.cls-2{fill:#fff;}.cls-3,.cls-7{fill:#ebebeb;}.cls-15,.cls-4{fill:#0072c6;}.cls-5{fill:#d2d2d2;}.cls-6{fill:none;}.cls-12,.cls-6,.cls-7{stroke:#000;}.cls-12,.cls-13,.cls-14,.cls-15,.cls-6,.cls-7{stroke-miterlimit:10;}.cls-7{stroke-width:0.75px;}.cls-8{fill:#3e3e3e;}.cls-9{fill:#b8d432;}.cls-10{opacity:0.15;isolation:isolate;}.cls-11,.cls-13{fill:#1e1e1e;}.cls-12,.cls-14,.cls-15{stroke-width:0.05px;}.cls-13{stroke:#1e1e1e;stroke-width:0.06px;}.cls-14{stroke:#fff;}.cls-15{stroke:#0072c6;}</style><symbol id="New_Symbol_44" data-name="New Symbol 44" viewBox="0 0 20 20"><circle class="cls-1" cx="10" cy="10" r="10"/><path class="cls-2" d="M12,14V8.58h1.25V7.45H12V5.6H10.65V7.42H6.85V8.56q.51.58,1.05,1.26a12.66,12.66,0,0,1,1,1.38c.29.47.64.94.93,1.41A13,13,0,0,1,10.55,14ZM10.65,8.58v3.5a19.76,19.76,0,0,0-1.26-2C9,9.51,8.58,9,8.22,8.56Z"/></symbol><symbol id="New_Symbol_43" data-name="New Symbol 43" viewBox="0 0 20 20"><circle class="cls-1" cx="10" cy="10" r="10"/><path class="cls-2" d="M7.39,5.88V7.16a3,3,0,0,1,1.85-.65,2.19,2.19,0,0,1,1.34.38,1.23,1.23,0,0,1,.5,1c0,1-.73,1.43-2.18,1.43H8.24v1.12h.63c1.29,0,1.94.45,1.94,1.35S10.3,13,9.29,13a2.48,2.48,0,0,1-1.58-.6v1.23a4.08,4.08,0,0,0,2,.48,2.64,2.64,0,0,0,1.79-.56,1.76,1.76,0,0,0,.67-1.44A2,2,0,0,0,10.5,10h0a2.19,2.19,0,0,0,1.43-.63A1.89,1.89,0,0,0,12.5,8a2.22,2.22,0,0,0-.85-1.82,3.4,3.4,0,0,0-2.24-.7A3.84,3.84,0,0,0,7.39,5.88Z"/></symbol><symbol id="New_Symbol_42" data-name="New Symbol 42" viewBox="0 0 20 20"><circle class="cls-1" cx="10" cy="10" r="10"/><path class="cls-2" d="M12.5,5.57H7.24v.65A2.58,2.58,0,0,0,7.35,7a3.93,3.93,0,0,0,.3.66,4.92,4.92,0,0,0,.44.58c.17.18.35.35.54.52l.59.5c.2.15.39.31.58.47s.35.3.5.45a4.11,4.11,0,0,1,.38.45,2.55,2.55,0,0,1,.24.5,1.84,1.84,0,0,1,.09.57,1.42,1.42,0,0,1-.1.58,1.33,1.33,0,0,1-.29.41,1.17,1.17,0,0,1-.44.26,2.05,2.05,0,0,1-.55.05,2.73,2.73,0,0,1-1.05-.24,3.75,3.75,0,0,1-1-.72v1.31a2.85,2.85,0,0,0,.52.33,2.7,2.7,0,0,0,.55.24,3,3,0,0,0,.59.15,3.64,3.64,0,0,0,.66,0,3.77,3.77,0,0,0,1-.14,2.2,2.2,0,0,0,.79-.44,2,2,0,0,0,.51-.73,2.46,2.46,0,0,0,.18-1,2.88,2.88,0,0,0-.13-.92,2.65,2.65,0,0,0-.36-.76,4,4,0,0,0-.56-.67c-.21-.21-.46-.43-.73-.65l-.67-.53c-.23-.18-.43-.35-.61-.51a3.5,3.5,0,0,1-.44-.5.9.9,0,0,1-.16-.5H12.5Z"/></symbol><symbol id="New_Symbol_41" data-name="New Symbol 41" viewBox="0 0 20 20"><circle class="cls-1" cx="10" cy="10" r="10"/><path class="cls-2" d="M11.19,14.16V5.57H9.83V12.5A4.06,4.06,0,0,0,9,12a9,9,0,0,0-1-.33v1.21l.65.24.63.27.62.34c.21.13.42.27.64.43Z"/></symbol></defs><title>OJ104329346</title><g id="bg"><g id="Shapes"><rect class="cls-2" width="475.49" height="150"/><rect class="cls-3" y="0.48" width="105" height="150"/><rect class="cls-4" x="370.83" y="0.48" width="104.66" height="90"/><rect class="cls-5" x="370.83" y="95.48" width="104.66" height="55"/><line class="cls-6" x1="104.74" y1="15.76" x2="365.31" y2="15.76"/><polygon points="364.22 19.5 370.69 15.76 364.22 12.02 364.22 19.5"/><line class="cls-6" x1="110.12" y1="45.64" x2="370.69" y2="45.64"/><polygon points="111.22 49.38 104.74 45.64 111.22 41.9 111.22 49.38"/><line class="cls-6" x1="104.74" y1="105.07" x2="365.31" y2="105.07"/><polygon points="364.22 108.81 370.69 105.07 364.22 101.33 364.22 108.81"/><line class="cls-6" x1="110.17" y1="141.23" x2="370.74" y2="141.23"/><polygon points="111.26 144.97 104.78 141.23 111.26 137.49 111.26 144.97"/><use width="20" height="20" transform="matrix(1, 0, 0, -1, 159.62, 150.76)" xlink:href="#New_Symbol_44"/><use width="20" height="20" transform="matrix(1, 0, 0, -1, 159.62, 115.07)" xlink:href="#New_Symbol_43"/><use width="20" height="20" transform="matrix(1, 0, 0, -1, 159.62, 55.64)" xlink:href="#New_Symbol_42"/><use width="20" height="20" transform="matrix(1, 0, 0, -1, 159.62, 25.76)" xlink:href="#New_Symbol_41"/><polygon class="cls-7" points="192.5 26.76 184.94 32.2 187.83 41.01 197.17 41.01 200.06 32.2 192.5 26.76"/><path class="cls-8" d="M76.61,87.07a4.2,4.2,0,0,1-4.2,4.2H32.59a4.2,4.2,0,0,1-4.2-4.2V25.47a4.2,4.2,0,0,1,4.2-4.2H72.41a4.2,4.2,0,0,1,4.2,4.2Z"/><rect class="cls-2" x="31.5" y="28.27" width="42" height="49.31"/><path class="cls-2" d="M56.55,84.43a4,4,0,1,1-4-4.05,4,4,0,0,1,4,4.05"/><path class="cls-9" d="M55.15,84.43a2.65,2.65,0,1,1-2.65-2.65,2.65,2.65,0,0,1,2.65,2.65h0"/><path class="cls-10" d="M31.5,77.58V28.27H63.37l2.85-7H32.59a4.2,4.2,0,0,0-4.2,4.2h0v61.6a4.2,4.2,0,0,0,4.18,4.2h5.19l5.57-13.69Z"/><path class="cls-11" d="M59.66,25.22a1,1,0,0,1-1,1H46.38a1,1,0,0,1,0-2.07H58.62a1,1,0,0,1,1,1"/><path class="cls-2" d="M59.66,25.22a1,1,0,0,1-1,1H46.38a1,1,0,0,1,0-2.07H58.62a1,1,0,0,1,1,1"/><path d="M38.48,46.88a.93.93,0,0,1-.69-.27,1,1,0,0,1-.29-.71.93.93,0,0,1,.29-.7,1,1,0,0,1,.69-.27,1.3,1.3,0,0,1,.39.09,1,1,0,0,1,.32.2,1,1,0,0,1,.21.31,1.05,1.05,0,0,1,0,.78.84.84,0,0,1-.22.31A.79.79,0,0,1,38.48,46.88Zm-.67,13.78v-11h1.37v11Z"/><path d="M49.11,60.93a7,7,0,0,1-3-.61,6.54,6.54,0,0,1-2.27-1.66,7.34,7.34,0,0,1-1.42-2.47,9.08,9.08,0,0,1-.49-3.06,10.28,10.28,0,0,1,.49-3.3,7,7,0,0,1,1.46-2.56,6.29,6.29,0,0,1,2.34-1.67,8,8,0,0,1,3.16-.6,7.17,7.17,0,0,1,2.93.59,6.46,6.46,0,0,1,2.22,1.62,7.43,7.43,0,0,1,1.4,2.44,9.56,9.56,0,0,1,.49,3.09A10.92,10.92,0,0,1,55.93,56a7.35,7.35,0,0,1-1.41,2.59,6.35,6.35,0,0,1-2.29,1.72A7.44,7.44,0,0,1,49.11,60.93Zm.12-14.63a5.56,5.56,0,0,0-2.47.54,5.41,5.41,0,0,0-1.82,1.43,6.33,6.33,0,0,0-1.13,2.13,8.81,8.81,0,0,0-.39,2.6,8.54,8.54,0,0,0,.34,2.51,6.19,6.19,0,0,0,1.07,2.11,5.08,5.08,0,0,0,1.78,1.47,5.44,5.44,0,0,0,2.51.55,6.1,6.1,0,0,0,2.53-.49,5.16,5.16,0,0,0,1.8-1.41,6,6,0,0,0,1.09-2.11A9.33,9.33,0,0,0,54.92,53a9.88,9.88,0,0,0-.32-2.54,5.91,5.91,0,0,0-1-2.12,4.86,4.86,0,0,0-1.77-1.44A5.82,5.82,0,0,0,49.23,46.3Z"/><path d="M58.78,58.41a5.78,5.78,0,0,0,.86.52,6.73,6.73,0,0,0,2,.62,6,6,0,0,0,.94.08A4.24,4.24,0,0,0,65.15,59,2.29,2.29,0,0,0,66,57a2.35,2.35,0,0,0-.84-1.92,5.89,5.89,0,0,0-1.1-.77c-.43-.26-1-.56-1.54-.89s-1.22-.7-1.69-1a6.45,6.45,0,0,1-1.15-1A3.06,3.06,0,0,1,59,50.34,3.82,3.82,0,0,1,58.84,49a3.52,3.52,0,0,1,.39-1.68,4.09,4.09,0,0,1,1.08-1.26,4.91,4.91,0,0,1,1.58-.8,6.76,6.76,0,0,1,2-.28,8.08,8.08,0,0,1,3,.49v1.58a6.27,6.27,0,0,0-3.2-.78,4.88,4.88,0,0,0-1.31.19,3.2,3.2,0,0,0-1.06.49,2.4,2.4,0,0,0-.72.8,2.24,2.24,0,0,0-.26,1.11,2.46,2.46,0,0,0,.18,1,2.33,2.33,0,0,0,.57.82,5.78,5.78,0,0,0,1,.77q.64.38,1.56.87c.58.31,1.14.64,1.68,1a6.78,6.78,0,0,1,1.2,1,3.79,3.79,0,0,1,.71,1.13,3.37,3.37,0,0,1,.24,1.33,4.07,4.07,0,0,1-.38,1.78,3.4,3.4,0,0,1-1,1.27,4.77,4.77,0,0,1-1.61.76,7.89,7.89,0,0,1-2,.26,6.36,6.36,0,0,1-.87-.06,4.54,4.54,0,0,1-1-.17,8.68,8.68,0,0,1-1-.27,3.46,3.46,0,0,1-.76-.34Z"/></g><polygon class="cls-7" points="192.57 86.69 185.01 92.14 187.9 100.94 197.24 100.94 200.13 92.14 192.57 86.69"/></g><g id="txt"><path class="cls-12" d="M21.56,111.38a5.49,5.49,0,0,1-2.4.45,4,4,0,0,1-3-1.14,4.16,4.16,0,0,1-1.11-3,4.45,4.45,0,0,1,1.24-3.27,4.38,4.38,0,0,1,3.23-1.25,6,6,0,0,1,2.08.31v1.82a3.71,3.71,0,0,0-1.92-.5,2.56,2.56,0,0,0-1.91.74,2.75,2.75,0,0,0-.73,2,2.69,2.69,0,0,0,.69,1.94,2.41,2.41,0,0,0,1.84.72,4,4,0,0,0,2-.53Z"/><path class="cls-12" d="M25.7,111.83a3.24,3.24,0,0,1-2.36-.84,3.05,3.05,0,0,1-.86-2.28,3,3,0,0,1,.9-2.33,3.34,3.34,0,0,1,2.4-.84,3.2,3.2,0,0,1,2.35.84A3,3,0,0,1,29,108.6,3.18,3.18,0,0,1,28.1,111,3.24,3.24,0,0,1,25.7,111.83Zm.05-4.88a1.21,1.21,0,0,0-1,.46,2,2,0,0,0-.36,1.27c0,1.15.46,1.73,1.39,1.73s1.33-.59,1.33-1.77S26.64,107,25.75,107Z"/><path class="cls-12" d="M35.49,102.66v1.46a1.6,1.6,0,0,1-.75.29l-1.57.26a1.9,1.9,0,0,0-.78.34,1.47,1.47,0,0,0-.4.61,4.08,4.08,0,0,0-.21,1h0a2.26,2.26,0,0,1,1.79-.77,2.59,2.59,0,0,1,2,.76,3,3,0,0,1,.71,2.09,3.06,3.06,0,0,1-.87,2.29,3.31,3.31,0,0,1-2.37.85,2.88,2.88,0,0,1-2.38-1,4.45,4.45,0,0,1-.81-2.88,9,9,0,0,1,.13-1.63,5,5,0,0,1,.4-1.29,3.32,3.32,0,0,1,.67-.94,2.49,2.49,0,0,1,.81-.54,4.23,4.23,0,0,1,.81-.26c.27-.06.93-.17,2-.33A3.31,3.31,0,0,0,35.49,102.66Zm-3.74,5.24c0,.1,0,.28,0,.55a2.5,2.5,0,0,0,.36,1.43,1.15,1.15,0,0,0,1,.53A1.18,1.18,0,0,0,34,110a1.86,1.86,0,0,0,.36-1.19A1.75,1.75,0,0,0,34,107.6a1.24,1.24,0,0,0-1-.43,1.51,1.51,0,0,0-.77.21A1.47,1.47,0,0,0,31.75,107.9Z"/><path class="cls-12" d="M42,111.47a3.69,3.69,0,0,1-1.81.36A3.06,3.06,0,0,1,38,111a2.89,2.89,0,0,1-.85-2.16,3.19,3.19,0,0,1,.91-2.41,3.4,3.4,0,0,1,2.46-.88,3.12,3.12,0,0,1,1.53.28v1.57a2.12,2.12,0,0,0-1.29-.44A1.61,1.61,0,0,0,39,108.71a1.75,1.75,0,0,0,.44,1.25,1.66,1.66,0,0,0,1.23.45A2.42,2.42,0,0,0,42,110Z"/><path class="cls-12" d="M47.73,107.09h-1.6v4.59H44.26v-4.59H42.65v-1.41h5.08Z"/><path class="cls-12" d="M48.7,111.68v-6h3.35c1.43,0,2.15.49,2.15,1.47a1.26,1.26,0,0,1-.34.88,1.61,1.61,0,0,1-.88.47,1.76,1.76,0,0,1,1,.46,1.26,1.26,0,0,1,.38.92,1.62,1.62,0,0,1-.58,1.31,2.38,2.38,0,0,1-1.59.49Zm1.85-4.87v1.26h.91q.84,0,.84-.66c0-.4-.26-.6-.79-.6Zm0,2.35v1.37h1.07c.59,0,.88-.24.88-.72s-.3-.65-.91-.65Z"/><path class="cls-12" d="M61,109.21H57.13c.06.87.61,1.31,1.65,1.31a3.24,3.24,0,0,0,1.74-.47v1.33a4.56,4.56,0,0,1-2.16.45A3,3,0,0,1,56.1,111a3,3,0,0,1-.8-2.24,3.24,3.24,0,0,1,.86-2.37,2.9,2.9,0,0,1,2.14-.87,2.63,2.63,0,0,1,2,.78,3,3,0,0,1,.71,2.11Zm-1.71-1.14c0-.86-.35-1.29-1-1.29a1,1,0,0,0-.78.37,1.78,1.78,0,0,0-.39.92Z"/><path class="cls-12" d="M67.93,111.68H66.07v-2.51H64v2.51H62.15v-6H64v2.22h2.07v-2.22h1.86Z"/><path class="cls-12" d="M75.27,111.68H73.41v-2.51H71.34v2.51H69.49v-6h1.85v2.22h2.07v-2.22h1.86Z"/><path class="cls-12" d="M79.69,111.83a3.23,3.23,0,0,1-2.36-.84,3.47,3.47,0,0,1,0-4.61,3.38,3.38,0,0,1,2.41-.84,3.2,3.2,0,0,1,2.35.84A3,3,0,0,1,83,108.6a3.18,3.18,0,0,1-.87,2.36A3.26,3.26,0,0,1,79.69,111.83Zm0-4.88a1.21,1.21,0,0,0-1,.46,1.92,1.92,0,0,0-.37,1.27c0,1.15.47,1.73,1.4,1.73s1.33-.59,1.33-1.77S80.63,107,79.74,107Z"/><path class="cls-12" d="M89.56,109.21H85.64c.07.87.61,1.31,1.65,1.31a3.24,3.24,0,0,0,1.74-.47v1.33a4.56,4.56,0,0,1-2.16.45,2.79,2.79,0,0,1-3.06-3,3.2,3.2,0,0,1,.87-2.37,2.87,2.87,0,0,1,2.13-.87,2.63,2.63,0,0,1,2,.78,3,3,0,0,1,.72,2.11Zm-1.72-1.14c0-.86-.35-1.29-1-1.29a1,1,0,0,0-.77.37,1.72,1.72,0,0,0-.4.92Z"/><path class="cls-12" d="M21.53,126.08H19.67v-4.69H17.59v4.69H15.74v-6h5.79Z"/><path class="cls-12" d="M25,125.39h0v3.45H23.08v-8.76h1.86V121h0a2.18,2.18,0,0,1,1.93-1,2.14,2.14,0,0,1,1.8.8,3.42,3.42,0,0,1,.64,2.17,3.66,3.66,0,0,1-.75,2.41,2.4,2.4,0,0,1-2,.91A1.87,1.87,0,0,1,25,125.39Zm-.05-2.47v.49a1.52,1.52,0,0,0,.33,1,1.05,1.05,0,0,0,.86.39,1.12,1.12,0,0,0,1-.49,2.36,2.36,0,0,0,.35-1.38q0-1.59-1.23-1.59a1.16,1.16,0,0,0-.93.44A1.68,1.68,0,0,0,24.91,122.92Z"/><path class="cls-12" d="M36.49,126.08H34.81v-3.92a7.59,7.59,0,0,1-.49.85l-2,3.07H30.53v-6h1.69v3.81a5.24,5.24,0,0,1,.41-.74l2-3.07h1.82Z"/><path class="cls-12" d="M43.73,126.08H41.87v-4.69h-1a9.88,9.88,0,0,1-1,3.74,2,2,0,0,1-1.8,1,2.31,2.31,0,0,1-.72-.11v-1.26a1.07,1.07,0,0,0,.43.09c.37,0,.68-.34.92-1a18.88,18.88,0,0,0,.65-3.76h4.36Z"/><path class="cls-12" d="M48.15,126.23a3.24,3.24,0,0,1-2.36-.84,3.05,3.05,0,0,1-.86-2.28,3,3,0,0,1,.9-2.33,3.34,3.34,0,0,1,2.4-.84,3.2,3.2,0,0,1,2.35.84,3,3,0,0,1,.85,2.22,3.18,3.18,0,0,1-.88,2.36A3.24,3.24,0,0,1,48.15,126.23Zm.05-4.88a1.21,1.21,0,0,0-1,.46,2,2,0,0,0-.36,1.27c0,1.16.46,1.73,1.39,1.73s1.33-.59,1.33-1.77S49.09,121.35,48.2,121.35Z"/><path class="cls-12" d="M61.8,126.08H59.61l-1.93-3h0v3H55.83v-3h0l-1.92,3H51.7L54,122.94l-2.22-2.86h2.17l1.88,2.84h0v-2.84h1.83v2.84h0l1.87-2.84h2.17l-2.22,2.86Z"/><path class="cls-12" d="M67.8,123.61H63.89c.06.87.61,1.31,1.65,1.31a3.24,3.24,0,0,0,1.74-.47v1.33a4.57,4.57,0,0,1-2.17.45,2.79,2.79,0,0,1-3-3,3.2,3.2,0,0,1,.86-2.37,2.9,2.9,0,0,1,2.14-.87,2.63,2.63,0,0,1,2,.78,3,3,0,0,1,.71,2.11Zm-1.71-1.14q0-1.29-1-1.29a1,1,0,0,0-.77.37,1.71,1.71,0,0,0-.39.92Z"/><path class="cls-12" d="M74.69,126.08H72.83v-2.5H70.76v2.5H68.91v-6h1.85v2.22h2.07v-2.22h1.86Z"/><path class="cls-12" d="M82.21,126.08H80.53v-3.92A7.59,7.59,0,0,1,80,123l-2,3.07H76.25v-6h1.69v3.81a6.47,6.47,0,0,1,.41-.74l2-3.07h1.82Z"/><path class="cls-12" d="M89.17,123.61H85.25c.07.87.61,1.31,1.65,1.31a3.24,3.24,0,0,0,1.74-.47v1.33a4.56,4.56,0,0,1-2.16.45,2.79,2.79,0,0,1-3.06-3,3.2,3.2,0,0,1,.87-2.37,2.88,2.88,0,0,1,2.13-.87,2.63,2.63,0,0,1,2,.78,3,3,0,0,1,.72,2.11Zm-1.72-1.14c0-.86-.35-1.29-1-1.29a1,1,0,0,0-.77.37,1.72,1.72,0,0,0-.4.92Z"/><path class="cls-13" d="M212.94,86h-1V82.21h-4.34V86h-1v-8.4h1v3.69H212V77.64h1Z"/><path class="cls-13" d="M220,78.53h-2.43V86h-1V78.53h-2.42v-.89H220Z"/><path class="cls-13" d="M226.49,78.53h-2.43V86h-1V78.53h-2.42v-.89h5.83Z"/><path class="cls-13" d="M228.72,82.87V86h-1v-8.4H230a3,3,0,0,1,2.09.66,2.31,2.31,0,0,1,.74,1.85,2.54,2.54,0,0,1-.82,2,3.18,3.18,0,0,1-2.22.76Zm0-4.34V82h1a2.33,2.33,0,0,0,1.56-.47,1.67,1.67,0,0,0,.53-1.31c0-1.11-.65-1.67-2-1.67Z"/><path class="cls-13" d="M243.88,85.47a5.56,5.56,0,0,1-2.81.71A3.82,3.82,0,0,1,238.16,85,4.24,4.24,0,0,1,237.05,82a4.37,4.37,0,0,1,1.23-3.2,4.21,4.21,0,0,1,3.13-1.25,5.27,5.27,0,0,1,2.3.45V79a4.44,4.44,0,0,0-2.42-.65,3,3,0,0,0-2.31,1,4.07,4.07,0,0,0-.06,5,2.9,2.9,0,0,0,2.27.91,3.5,3.5,0,0,0,1.7-.39V82.55h-1.84v-.89h2.83Z"/><path class="cls-13" d="M250.21,86h-4.45v-8.4H250v.89h-3.28v2.8h3v.88h-3v2.94h3.47Z"/><path class="cls-13" d="M256.72,78.53H254.3V86h-1V78.53h-2.42v-.89h5.83Z"/><path class="cls-13" d="M267,82.94h-2.37V85.3h-.77V82.94h-2.37v-.79h2.37V79.79h.77v2.36H267Z"/><path class="cls-13" d="M213,100.24H212V95.3c-.08.25-.21.62-.39,1.1l-1.5,3.84h-.87l-1.54-3.84c-.08-.21-.22-.57-.4-1.1v4.94h-.83v-6h1.23l1.58,3.92c.11.28.26.68.43,1.18l.43-1.16,1.54-3.94H213Z"/><path class="cls-13" d="M219.14,100.24h-1v-.93h0a2,2,0,0,1-1.85,1.07,2,2,0,0,1-1.4-.47,1.65,1.65,0,0,1-.51-1.26c0-1.12.66-1.77,2-2l1.8-.25c0-1-.41-1.53-1.24-1.53a3,3,0,0,0-1.95.74v-1a3.68,3.68,0,0,1,2-.57c1.41,0,2.11.75,2.11,2.24Zm-1-3-1.45.2a2.25,2.25,0,0,0-1,.33,1,1,0,0,0-.34.84.92.92,0,0,0,.31.72,1.24,1.24,0,0,0,.83.28,1.52,1.52,0,0,0,1.18-.51,1.73,1.73,0,0,0,.47-1.26Z"/><path class="cls-13" d="M221.86,99.38h0V103h-1V94.24h1V95.3h0a2.29,2.29,0,0,1,2.08-1.2,2.19,2.19,0,0,1,1.81.81,3.37,3.37,0,0,1,.65,2.16,3.71,3.71,0,0,1-.73,2.41,2.46,2.46,0,0,1-2,.9A2,2,0,0,1,221.86,99.38Zm0-2.42v.83a1.81,1.81,0,0,0,.48,1.27,1.65,1.65,0,0,0,1.23.52,1.63,1.63,0,0,0,1.37-.67,3.09,3.09,0,0,0,.5-1.86,2.41,2.41,0,0,0-.47-1.57,1.52,1.52,0,0,0-1.25-.57,1.73,1.73,0,0,0-1.35.58A2.16,2.16,0,0,0,221.84,97Z"/><path class="cls-13" d="M232.84,100.24H231.5l-2.65-2.88h0v2.88h-1v-6h1V97h0l2.52-2.75h1.26l-2.79,2.9Z"/><path class="cls-13" d="M238.58,97.48h-4.24a2.28,2.28,0,0,0,.54,1.55,1.87,1.87,0,0,0,1.42.55,3,3,0,0,0,1.86-.67v.9a3.5,3.5,0,0,1-2.09.57,2.56,2.56,0,0,1-2-.81,3.39,3.39,0,0,1-.72-2.3,3.29,3.29,0,0,1,.79-2.29,2.58,2.58,0,0,1,2-.88,2.27,2.27,0,0,1,1.82.76,3.2,3.2,0,0,1,.65,2.12Zm-1-.81a1.91,1.91,0,0,0-.4-1.3,1.39,1.39,0,0,0-1.1-.46,1.54,1.54,0,0,0-1.15.49,2.22,2.22,0,0,0-.59,1.27Z"/><path class="cls-13" d="M240.94,99.38h0V103h-1V94.24h1V95.3h0A2.29,2.29,0,0,1,243,94.1a2.2,2.2,0,0,1,1.81.81,3.37,3.37,0,0,1,.65,2.16,3.76,3.76,0,0,1-.73,2.41,2.46,2.46,0,0,1-2,.9A2,2,0,0,1,240.94,99.38Zm0-2.42v.83a1.81,1.81,0,0,0,.48,1.27,1.73,1.73,0,0,0,2.6-.15,3.09,3.09,0,0,0,.49-1.86,2.41,2.41,0,0,0-.46-1.57,1.53,1.53,0,0,0-1.25-.57,1.73,1.73,0,0,0-1.35.58A2.16,2.16,0,0,0,240.92,97Z"/><path class="cls-13" d="M255.39,102.43h-.82v-2.19h-4.46v2.19h-.82v-3h.53a8.94,8.94,0,0,0,1.56-5.19h3.12v5.19h.89Zm-1.85-3V95.06h-1.33a9.33,9.33,0,0,1-1.37,4.37Z"/><path class="cls-13" d="M259.15,100.38a2.79,2.79,0,0,1-2.12-.84,3.1,3.1,0,0,1-.79-2.23,3.26,3.26,0,0,1,.82-2.36,3,3,0,0,1,2.23-.85,2.7,2.7,0,0,1,2.1.83,3.27,3.27,0,0,1,.75,2.29,3.23,3.23,0,0,1-.81,2.3A2.83,2.83,0,0,1,259.15,100.38Zm.07-5.47a1.83,1.83,0,0,0-1.46.63,2.59,2.59,0,0,0-.54,1.74,2.41,2.41,0,0,0,.55,1.68,1.85,1.85,0,0,0,1.45.62,1.78,1.78,0,0,0,1.44-.61,2.63,2.63,0,0,0,.5-1.72,2.68,2.68,0,0,0-.5-1.73A1.75,1.75,0,0,0,259.22,94.91Z"/><path class="cls-13" d="M267.7,100a3.1,3.1,0,0,1-1.64.41,2.72,2.72,0,0,1-2.08-.83,3.06,3.06,0,0,1-.78-2.17,3.32,3.32,0,0,1,.85-2.38,3,3,0,0,1,2.26-.9,3.1,3.1,0,0,1,1.4.3v1a2.47,2.47,0,0,0-1.43-.47,1.93,1.93,0,0,0-1.51.66,2.52,2.52,0,0,0-.59,1.73,2.45,2.45,0,0,0,.55,1.67,1.94,1.94,0,0,0,1.49.61,2.42,2.42,0,0,0,1.48-.53Z"/><path class="cls-13" d="M272.84,95.06h-1.79v5.18h-1V95.06h-1.8v-.82h4.56Z"/><path class="cls-13" d="M278.7,94.24l-2.76,7c-.49,1.25-1.18,1.87-2.07,1.87a2.25,2.25,0,0,1-.63-.08v-.86a1.84,1.84,0,0,0,.57.11,1.18,1.18,0,0,0,1.09-.87l.48-1.14-2.34-6h1.06l1.63,4.62c0,.06.06.21.12.46h0c0-.1.06-.24.12-.45l1.71-4.63Z"/><path class="cls-13" d="M284.64,100.24h-1V95.06h-3.06v5.18h-1v-6h5Z"/><path class="cls-13" d="M290.81,100.24h-1v-.93h0a2,2,0,0,1-1.85,1.07,2,2,0,0,1-1.4-.47,1.65,1.65,0,0,1-.51-1.26c0-1.12.66-1.77,2-2l1.8-.25c0-1-.41-1.53-1.24-1.53a3,3,0,0,0-1.95.74v-1a3.68,3.68,0,0,1,2-.57c1.41,0,2.11.75,2.11,2.24Zm-1-3-1.45.2a2.35,2.35,0,0,0-1,.33,1,1,0,0,0-.34.84.93.93,0,0,0,.32.72,1.24,1.24,0,0,0,.83.28,1.52,1.52,0,0,0,1.18-.51,1.77,1.77,0,0,0,.47-1.26Z"/><path class="cls-14" d="M397,34.21h-1.89V27.46h-3.48v6.75h-1.89v-8.4H397Z"/><path class="cls-14" d="M404.42,34.21h-1.87V29.52h-1a9.69,9.69,0,0,1-1,3.74,2,2,0,0,1-1.8,1,2.36,2.36,0,0,1-.72-.11V32.91a1.08,1.08,0,0,0,.44.09c.36,0,.67-.34.91-1a19.44,19.44,0,0,0,.66-3.76h4.36Z"/><path class="cls-14" d="M411,34.21h-1.76v-.86h0a2,2,0,0,1-1.79,1,1.86,1.86,0,0,1-1.37-.5,1.79,1.79,0,0,1-.5-1.32q0-1.74,2.07-2l1.63-.22c0-.66-.36-1-1.07-1a3.65,3.65,0,0,0-2,.63V28.57a4.67,4.67,0,0,1,1.06-.35,5.63,5.63,0,0,1,1.22-.15A2.27,2.27,0,0,1,411,30.63Zm-1.74-2.43v-.41l-1.09.14c-.61.08-.91.35-.91.82a.67.67,0,0,0,.22.51.84.84,0,0,0,.6.21,1.1,1.1,0,0,0,.85-.36A1.31,1.31,0,0,0,409.23,31.78Z"/><path class="cls-14" d="M416.92,29.62h-1.61v4.59h-1.86V29.62h-1.62V28.21h5.09Z"/><path class="cls-14" d="M422.5,34.28V37h-1.73V34.28h-.28a3.12,3.12,0,0,1-2.31-.83,3,3,0,0,1-.85-2.21,3,3,0,0,1,.85-2.26,3.13,3.13,0,0,1,2.32-.84h.27V25.62h1.73v2.52h.27a3.19,3.19,0,0,1,2.33.83,3,3,0,0,1,.85,2.27,2.93,2.93,0,0,1-.85,2.21,3.12,3.12,0,0,1-2.31.83ZM420.77,33V29.45h-.09a1.32,1.32,0,0,0-1.07.47,2,2,0,0,0-.39,1.32,1.9,1.9,0,0,0,.39,1.26,1.35,1.35,0,0,0,1.09.48Zm1.73-3.53V33h.08a1.33,1.33,0,0,0,1.09-.48,1.85,1.85,0,0,0,.4-1.26,2,2,0,0,0-.39-1.32,1.34,1.34,0,0,0-1.08-.47Z"/><path class="cls-14" d="M430,34.36a3.23,3.23,0,0,1-2.36-.84,3,3,0,0,1-.86-2.28,3.05,3.05,0,0,1,.89-2.33,3.37,3.37,0,0,1,2.41-.84,3.19,3.19,0,0,1,2.34.84,3,3,0,0,1,.85,2.22,3.15,3.15,0,0,1-.88,2.36A3.23,3.23,0,0,1,430,34.36Zm0-4.88a1.21,1.21,0,0,0-1,.46,2,2,0,0,0-.36,1.27c0,1.16.46,1.73,1.39,1.73s1.33-.59,1.33-1.77S430.93,29.48,430,29.48Z"/><path class="cls-14" d="M436.34,33.52h0V37h-1.85V28.21h1.85v.91h0a2.36,2.36,0,0,1,3.73-.25A3.42,3.42,0,0,1,440.7,31a3.65,3.65,0,0,1-.74,2.41,2.4,2.4,0,0,1-2,.91A1.87,1.87,0,0,1,436.34,33.52Zm-.06-2.47v.49a1.52,1.52,0,0,0,.33,1,1.08,1.08,0,0,0,.86.39,1.14,1.14,0,0,0,1-.49,2.37,2.37,0,0,0,.34-1.38q0-1.59-1.23-1.59a1.16,1.16,0,0,0-.93.44A1.68,1.68,0,0,0,436.28,31.05Z"/><path class="cls-14" d="M449.67,34.21h-1.73V29.54a9.51,9.51,0,0,1-.31,1.11l-1.17,3.56h-1.63l-1.16-3.56a7.31,7.31,0,0,1-.31-1.1v4.66H441.9v-6h2.44l1.14,3.42a7.21,7.21,0,0,1,.29,1.07,9.66,9.66,0,0,1,.3-1.05l1.12-3.44h2.48Z"/><path class="cls-14" d="M456.22,34.21h-1.75v-.86h0a2,2,0,0,1-1.78,1,1.88,1.88,0,0,1-1.38-.5,1.79,1.79,0,0,1-.5-1.32q0-1.74,2.07-2l1.63-.22c0-.66-.36-1-1.07-1a3.7,3.7,0,0,0-2,.63V28.57a4.67,4.67,0,0,1,1.06-.35,5.63,5.63,0,0,1,1.22-.15,2.27,2.27,0,0,1,2.57,2.56Zm-1.74-2.43v-.41l-1.09.14c-.6.08-.9.35-.9.82a.64.64,0,0,0,.22.51.8.8,0,0,0,.59.21,1.1,1.1,0,0,0,.85-.36A1.31,1.31,0,0,0,454.48,31.78Z"/><path class="cls-14" d="M384.89,42.61l-2.43,6.48c-.59,1.56-1.47,2.34-2.65,2.34a3.46,3.46,0,0,1-1.11-.15V49.8a1.51,1.51,0,0,0,.8.22,1,1,0,0,0,1-.67l.32-.75-2.44-6h2.05l1.12,3.65a5,5,0,0,1,.16.81h0a5.22,5.22,0,0,1,.19-.79l1.13-3.67Z"/><path class="cls-14" d="M391.49,50.8H390V48.61h-4V50.8h-1.49V47.31H385a8.93,8.93,0,0,0,1.34-4.7h4.22v4.7h.95Zm-2.8-3.49v-3.4h-.92a7.93,7.93,0,0,1-1,3.4Z"/><path class="cls-14" d="M395.42,48.76a3.23,3.23,0,0,1-2.36-.84,3.47,3.47,0,0,1,0-4.61,3.38,3.38,0,0,1,2.41-.84,3.16,3.16,0,0,1,2.34.84,3,3,0,0,1,.85,2.22,3.18,3.18,0,0,1-.87,2.36A3.27,3.27,0,0,1,395.42,48.76Zm0-4.88a1.23,1.23,0,0,0-1,.46,1.92,1.92,0,0,0-.37,1.27c0,1.16.47,1.73,1.4,1.73s1.33-.59,1.33-1.77S396.36,43.88,395.46,43.88Z"/><path class="cls-14" d="M404.44,48.4a3.69,3.69,0,0,1-1.81.36,3.06,3.06,0,0,1-2.24-.84,2.89,2.89,0,0,1-.85-2.16,3.19,3.19,0,0,1,.91-2.41,3.4,3.4,0,0,1,2.46-.88,3.1,3.1,0,0,1,1.53.28v1.57a2.12,2.12,0,0,0-1.29-.44,1.61,1.61,0,0,0-1.73,1.76,1.75,1.75,0,0,0,.44,1.25,1.66,1.66,0,0,0,1.23.45,2.42,2.42,0,0,0,1.35-.43Z"/><path class="cls-14" d="M410.14,44h-1.6v4.59h-1.87V44h-1.61V42.61h5.08Z"/><path class="cls-14" d="M413.8,48.76a3.23,3.23,0,0,1-2.36-.84,3.47,3.47,0,0,1,0-4.61,3.38,3.38,0,0,1,2.41-.84,3.16,3.16,0,0,1,2.34.84,3,3,0,0,1,.85,2.22,3.18,3.18,0,0,1-.87,2.36A3.27,3.27,0,0,1,413.8,48.76Zm.05-4.88a1.24,1.24,0,0,0-1,.46,1.92,1.92,0,0,0-.37,1.27c0,1.16.47,1.73,1.4,1.73s1.33-.59,1.33-1.77S414.74,43.88,413.85,43.88Z"/><path class="cls-14" d="M418.28,48.61v-6h3.35c1.43,0,2.14.49,2.14,1.47a1.21,1.21,0,0,1-.34.88,1.55,1.55,0,0,1-.87.47,1.76,1.76,0,0,1,1,.46,1.26,1.26,0,0,1,.38.92,1.65,1.65,0,0,1-.58,1.31,2.39,2.39,0,0,1-1.6.49Zm1.85-4.87V45H421q.84,0,.84-.66c0-.4-.27-.6-.8-.6Zm0,2.35v1.37h1.06c.59,0,.89-.24.89-.72s-.3-.65-.91-.65Z"/><path class="cls-14" d="M430.62,46.14h-3.91c.06.87.61,1.31,1.64,1.31a3.24,3.24,0,0,0,1.74-.47v1.33a4.5,4.5,0,0,1-2.16.45,2.81,2.81,0,0,1-3.06-3,3.2,3.2,0,0,1,.87-2.37,2.9,2.9,0,0,1,2.13-.87,2.62,2.62,0,0,1,2,.78,3,3,0,0,1,.72,2.11ZM428.9,45c0-.86-.34-1.29-1-1.29a1,1,0,0,0-.77.37,1.63,1.63,0,0,0-.39.92Z"/><path class="cls-14" d="M433.6,47.92h0v3.45h-1.85V42.61h1.85v.91h0a2.36,2.36,0,0,1,3.73-.25,3.42,3.42,0,0,1,.63,2.17,3.65,3.65,0,0,1-.74,2.41,2.4,2.4,0,0,1-2,.91A1.87,1.87,0,0,1,433.6,47.92Zm-.06-2.46v.48a1.52,1.52,0,0,0,.33,1,1.08,1.08,0,0,0,.86.39,1.14,1.14,0,0,0,1-.49,2.37,2.37,0,0,0,.34-1.38q0-1.59-1.23-1.59a1.15,1.15,0,0,0-.92.44A1.7,1.7,0,0,0,433.54,45.46Z"/><path class="cls-14" d="M444.55,46.14h-3.91c.06.87.61,1.31,1.65,1.31A3.24,3.24,0,0,0,444,47v1.33a4.56,4.56,0,0,1-2.16.45,3,3,0,0,1-2.26-.81,3,3,0,0,1-.8-2.24,3.24,3.24,0,0,1,.86-2.37,2.9,2.9,0,0,1,2.14-.87,2.63,2.63,0,0,1,2,.78,3,3,0,0,1,.71,2.11ZM442.84,45q0-1.29-1-1.29a1,1,0,0,0-.77.37,1.78,1.78,0,0,0-.39.92Z"/><path class="cls-14" d="M451.44,48.61h-1.86v-2.5h-2.07v2.5h-1.85v-6h1.85v2.22h2.07V42.61h1.86Z"/><path class="cls-14" d="M459,48.61h-1.68V44.69a7.59,7.59,0,0,1-.49.85l-2,3.07H453v-6h1.69v3.81a6.47,6.47,0,0,1,.41-.74l2-3.07H459Z"/><path class="cls-14" d="M466.49,48.61h-1.68V44.69a7.59,7.59,0,0,1-.49.85l-2,3.07h-1.75v-6h1.69v3.81a6.47,6.47,0,0,1,.41-.74l2-3.07h1.82Zm-.43-8.86a2.13,2.13,0,0,1-.8,1.48,3,3,0,0,1-3.48,0,2,2,0,0,1-.75-1.48h1.35a1,1,0,0,0,.37.74,1.19,1.19,0,0,0,.8.29,1.17,1.17,0,0,0,.79-.29,1.08,1.08,0,0,0,.37-.74Z"/><path class="cls-14" d="M396,63h-1.87V58c0-.55,0-1.15.07-1.8h0a9,9,0,0,1-.27,1.11l-2,5.71h-1.54l-2-5.65c-.05-.15-.14-.54-.26-1.17h-.05c.05.82.07,1.55.07,2.18V63h-1.7v-8.4h2.77l1.72,5a7.48,7.48,0,0,1,.29,1.2h0c.1-.46.22-.87.33-1.21l1.72-5H396Z"/><path class="cls-14" d="M402.72,63H401v-.86h0a2,2,0,0,1-1.79,1,1.86,1.86,0,0,1-1.37-.5,1.76,1.76,0,0,1-.51-1.32q0-1.74,2.07-2l1.63-.22c0-.66-.35-1-1.06-1a3.65,3.65,0,0,0-2,.63V57.37a4.57,4.57,0,0,1,1.05-.35,5.71,5.71,0,0,1,1.23-.15,2.26,2.26,0,0,1,2.56,2.56ZM401,60.58v-.41l-1.09.14c-.6.08-.9.35-.9.82a.64.64,0,0,0,.22.51.82.82,0,0,0,.59.21,1.1,1.1,0,0,0,.85-.36A1.31,1.31,0,0,0,401,60.58Z"/><path class="cls-14" d="M410.15,63h-1.68V59.09a7.59,7.59,0,0,1-.49.85l-2,3.07h-1.75V57h1.69v3.81a5.24,5.24,0,0,1,.41-.74l2-3.07h1.82Zm-.43-8.86a2.13,2.13,0,0,1-.8,1.48,3,3,0,0,1-3.48,0,2,2,0,0,1-.75-1.48H406a1,1,0,0,0,.37.74,1.23,1.23,0,0,0,1.59,0,1.08,1.08,0,0,0,.37-.74Z"/><path class="cls-14" d="M417.7,63h-2.22l-1.89-2.93h0V63h-1.85V57h1.85v2.82h0L415.44,57h2.19l-2.21,2.86Z"/><path class="cls-14" d="M420.3,62.32h0v3.45h-1.86V57h1.86v.91h0a2.18,2.18,0,0,1,1.93-1.05,2.15,2.15,0,0,1,1.8.8,3.4,3.4,0,0,1,.64,2.17,3.66,3.66,0,0,1-.75,2.41,2.4,2.4,0,0,1-2,.91A1.87,1.87,0,0,1,420.3,62.32Zm-.05-2.47v.48a1.53,1.53,0,0,0,.33,1,1.05,1.05,0,0,0,.86.39,1.12,1.12,0,0,0,1-.49,2.36,2.36,0,0,0,.35-1.38q0-1.59-1.23-1.59a1.18,1.18,0,0,0-.93.43A1.73,1.73,0,0,0,420.25,59.85Z"/><path class="cls-14" d="M428.73,63.16a3.23,3.23,0,0,1-2.36-.84,3,3,0,0,1-.86-2.28,3.05,3.05,0,0,1,.89-2.33,3.37,3.37,0,0,1,2.41-.84,3.19,3.19,0,0,1,2.34.84,3,3,0,0,1,.85,2.22,3.18,3.18,0,0,1-.87,2.36A3.27,3.27,0,0,1,428.73,63.16Zm0-4.88a1.22,1.22,0,0,0-1,.46,2,2,0,0,0-.36,1.27c0,1.16.46,1.73,1.39,1.73s1.33-.59,1.33-1.77S429.67,58.28,428.77,58.28Z"/><path class="cls-14" d="M437.75,62.8a3.69,3.69,0,0,1-1.81.36,3.06,3.06,0,0,1-2.24-.84,2.9,2.9,0,0,1-.86-2.16,3.19,3.19,0,0,1,.92-2.41,3.38,3.38,0,0,1,2.45-.88,3.14,3.14,0,0,1,1.54.28v1.57a2.13,2.13,0,0,0-1.3-.44,1.71,1.71,0,0,0-1.26.47,1.74,1.74,0,0,0-.46,1.29,1.71,1.71,0,0,0,.44,1.25,1.66,1.66,0,0,0,1.23.45,2.42,2.42,0,0,0,1.35-.43Z"/><path class="cls-14" d="M441.82,63.16a3.24,3.24,0,0,1-2.36-.84A3.05,3.05,0,0,1,438.6,60a3,3,0,0,1,.9-2.33,3.34,3.34,0,0,1,2.4-.84,3.2,3.2,0,0,1,2.35.84,3,3,0,0,1,.85,2.22,3.18,3.18,0,0,1-.88,2.36A3.24,3.24,0,0,1,441.82,63.16Zm.05-4.88a1.21,1.21,0,0,0-1,.46,2,2,0,0,0-.36,1.27c0,1.16.46,1.73,1.39,1.73s1.33-.59,1.33-1.77S442.76,58.28,441.87,58.28Z"/><path class="cls-14" d="M451.08,63.08V65.8h-1.72V63.08h-.29a3.12,3.12,0,0,1-2.31-.83,3,3,0,0,1-.84-2.21,3,3,0,0,1,.84-2.26,3.13,3.13,0,0,1,2.32-.84h.28V54.42h1.72v2.52h.27a3.23,3.23,0,0,1,2.34.83,3.06,3.06,0,0,1,.84,2.27,3,3,0,0,1-.84,2.21,3.16,3.16,0,0,1-2.32.83Zm-1.72-1.3V58.25h-.1a1.33,1.33,0,0,0-1.07.47A2,2,0,0,0,447.8,60a1.9,1.9,0,0,0,.39,1.26,1.35,1.35,0,0,0,1.1.48Zm1.72-3.53v3.53h.08a1.32,1.32,0,0,0,1.09-.48,1.85,1.85,0,0,0,.4-1.26,2,2,0,0,0-.39-1.32,1.34,1.34,0,0,0-1.08-.47Z"/><path class="cls-14" d="M460,58.42h-1.61V63h-1.86V58.42h-1.62V57H460Z"/><path class="cls-15" d="M392.4,119.23h-2.06l-.6-1.87h-3l-.59,1.87h-2.05l3.06-8.4h2.25Zm-3.09-3.32-.9-2.82a3.12,3.12,0,0,1-.14-.76h0a3.06,3.06,0,0,1-.15.73l-.91,2.85Z"/><path class="cls-15" d="M395.34,116.34v2.89h-1.89v-8.4h3c2.11,0,3.17.89,3.17,2.68a2.58,2.58,0,0,1-.91,2,3.62,3.62,0,0,1-2.43.78Zm0-4.06v2.62h.75c1,0,1.51-.44,1.51-1.32s-.5-1.3-1.51-1.3Z"/><path class="cls-15" d="M402.72,119.23h-1.9v-8.4h1.9Z"/><path class="cls-15" d="M417.51,119.23h-1.87v-5c0-.55,0-1.15.07-1.8h0a9,9,0,0,1-.27,1.11l-2,5.71h-1.54l-2-5.65c-.05-.15-.14-.54-.26-1.17h-.05c.05.82.07,1.55.07,2.18v4.64h-1.7v-8.4h2.77l1.71,5a6.58,6.58,0,0,1,.3,1.2h0c.1-.46.22-.87.33-1.21l1.72-5h2.7Z"/><path class="cls-15" d="M420.18,112.28a1.06,1.06,0,0,1-.77-.28.88.88,0,0,1-.3-.68.87.87,0,0,1,.3-.68,1.14,1.14,0,0,1,.77-.26,1.16,1.16,0,0,1,.77.26.89.89,0,0,1,.29.68.91.91,0,0,1-.29.69A1.11,1.11,0,0,1,420.18,112.28Zm.91,7h-1.85v-6h1.85Z"/><path class="cls-15" d="M427.2,119a3.72,3.72,0,0,1-1.81.36,3,3,0,0,1-2.24-.84,2.9,2.9,0,0,1-.86-2.16,3.19,3.19,0,0,1,.92-2.41,3.38,3.38,0,0,1,2.45-.88,3.14,3.14,0,0,1,1.54.28v1.57a2.13,2.13,0,0,0-1.3-.44,1.71,1.71,0,0,0-1.26.47,1.75,1.75,0,0,0-.47,1.29,1.71,1.71,0,0,0,.45,1.25,1.64,1.64,0,0,0,1.22.45,2.47,2.47,0,0,0,1.36-.43Z"/><path class="cls-15" d="M432.32,114.9a1.61,1.61,0,0,0-.78-.18,1.14,1.14,0,0,0-.94.44,1.93,1.93,0,0,0-.34,1.21v2.86h-1.85v-6h1.85v1.12h0a1.6,1.6,0,0,1,1.59-1.22,1.12,1.12,0,0,1,.45.07Z"/><path class="cls-15" d="M436,119.38a3.23,3.23,0,0,1-2.36-.84,3.47,3.47,0,0,1,0-4.61,3.37,3.37,0,0,1,2.41-.84,3.16,3.16,0,0,1,2.34.84,3,3,0,0,1,.85,2.22,3.18,3.18,0,0,1-.87,2.36A3.27,3.27,0,0,1,436,119.38Zm0-4.88a1.24,1.24,0,0,0-1,.46,2,2,0,0,0-.36,1.27c0,1.15.47,1.73,1.4,1.73s1.33-.59,1.33-1.77S436.94,114.5,436,114.5Z"/><path class="cls-15" d="M440.08,119.07v-1.5a3.82,3.82,0,0,0,.91.41,3,3,0,0,0,.86.14,1.84,1.84,0,0,0,.78-.14.42.42,0,0,0,.28-.41.37.37,0,0,0-.13-.29.88.88,0,0,0-.33-.2,2.52,2.52,0,0,0-.44-.16c-.16,0-.32-.1-.46-.16a4.68,4.68,0,0,1-.63-.29,1.54,1.54,0,0,1-.46-.36,1.44,1.44,0,0,1-.28-.48,1.7,1.7,0,0,1-.1-.63,1.61,1.61,0,0,1,.22-.87,1.88,1.88,0,0,1,.59-.6,3,3,0,0,1,.83-.34,4.62,4.62,0,0,1,1-.1,5.49,5.49,0,0,1,.8.06,5.3,5.3,0,0,1,.81.18v1.43a2.76,2.76,0,0,0-.75-.31,3.11,3.11,0,0,0-.79-.1,1.87,1.87,0,0,0-.34,0,1,1,0,0,0-.28.09.54.54,0,0,0-.2.16.4.4,0,0,0,0,.5.79.79,0,0,0,.27.2l.38.16.41.13a6.16,6.16,0,0,1,.67.28,2.55,2.55,0,0,1,.51.36,1.29,1.29,0,0,1,.33.48,1.66,1.66,0,0,1,.12.66,1.76,1.76,0,0,1-.23.91,1.81,1.81,0,0,1-.62.61,2.75,2.75,0,0,1-.88.35,5.37,5.37,0,0,1-2.88-.2Z"/><path class="cls-15" d="M448.61,119.38a3.24,3.24,0,0,1-2.36-.84,3,3,0,0,1-.85-2.28,3,3,0,0,1,.89-2.33,3.34,3.34,0,0,1,2.4-.84,3.2,3.2,0,0,1,2.35.84,3,3,0,0,1,.85,2.22,3.15,3.15,0,0,1-.88,2.36A3.24,3.24,0,0,1,448.61,119.38Zm.05-4.88a1.21,1.21,0,0,0-1,.46,2,2,0,0,0-.36,1.27c0,1.15.46,1.73,1.39,1.73s1.33-.59,1.33-1.77S449.55,114.5,448.66,114.5Z"/><path class="cls-15" d="M456.82,111.77a1.76,1.76,0,0,0-.68-.14c-.6,0-.89.32-.89,1v.64h1.37v1.37h-1.37v4.63H453.4V114.6h-1v-1.37h1v-.74a2.12,2.12,0,0,1,.67-1.65,2.52,2.52,0,0,1,1.81-.63,3.11,3.11,0,0,1,.94.12Z"/><path class="cls-15" d="M461.36,119.16a2.62,2.62,0,0,1-1.23.22,1.76,1.76,0,0,1-2-2V114.6h-1v-1.37h1v-1.29l1.84-.53v1.82h1.35v1.37H460V117c0,.63.25.94.75.94a1.27,1.27,0,0,0,.6-.17Z"/><path class="cls-15" d="M413.48,133.07a6.08,6.08,0,0,1-3.06.71,4.4,4.4,0,0,1-3.19-1.12,4.08,4.08,0,0,1-1.17-3.09,4.29,4.29,0,0,1,1.28-3.23,4.65,4.65,0,0,1,3.39-1.25,6.8,6.8,0,0,1,2.36.37v1.77a4.73,4.73,0,0,0-2.38-.56,2.58,2.58,0,0,0-1.92.77,2.82,2.82,0,0,0-.74,2,2.78,2.78,0,0,0,.67,2,2.31,2.31,0,0,0,1.79.71,2.52,2.52,0,0,0,1.08-.19v-1.64h-1.68v-1.51h3.57Z"/><path class="cls-15" d="M418.85,129.3a1.61,1.61,0,0,0-.78-.18,1.12,1.12,0,0,0-.94.44,1.93,1.93,0,0,0-.34,1.21v2.86h-1.85v-6h1.85v1.12h0a1.59,1.59,0,0,1,1.58-1.22,1.14,1.14,0,0,1,.46.07Z"/><path class="cls-15" d="M424.7,133.63H423v-.86h0a2,2,0,0,1-1.79,1,1.86,1.86,0,0,1-1.37-.5,1.75,1.75,0,0,1-.5-1.32c0-1.16.69-1.83,2.06-2l1.63-.22c0-.66-.35-1-1.06-1a3.65,3.65,0,0,0-2,.63V128a4.67,4.67,0,0,1,1.06-.35,5.56,5.56,0,0,1,1.22-.15,2.26,2.26,0,0,1,2.56,2.56ZM423,131.2v-.41l-1.09.14c-.6.08-.9.35-.9.82a.64.64,0,0,0,.22.51.84.84,0,0,0,.6.21,1.07,1.07,0,0,0,.84-.36A1.31,1.31,0,0,0,423,131.2Z"/><path class="cls-15" d="M428,132.94h0v3.45h-1.85v-8.76H428v.91h0a2.18,2.18,0,0,1,1.93-1,2.14,2.14,0,0,1,1.8.8,3.34,3.34,0,0,1,.64,2.17,3.71,3.71,0,0,1-.74,2.41,2.41,2.41,0,0,1-2,.91A1.88,1.88,0,0,1,428,132.94Zm-.05-2.47V131a1.52,1.52,0,0,0,.33,1,1.06,1.06,0,0,0,.86.39,1.12,1.12,0,0,0,1-.49,2.36,2.36,0,0,0,.35-1.38q0-1.59-1.23-1.59a1.18,1.18,0,0,0-.93.43A1.73,1.73,0,0,0,428,130.47Z"/><path class="cls-15" d="M439.37,133.63h-1.85v-3.41q0-1.32-1-1.32a1,1,0,0,0-.79.37,1.4,1.4,0,0,0-.31.94v3.42h-1.85v-8.88h1.85v3.77h0a2.11,2.11,0,0,1,1.85-1q2,0,2,2.46Z"/><path class="cls-13" d="M191.89,10.32h-1V2.83h-4.39v7.49h-1V1.92h6.37Z"/><path class="cls-13" d="M196.36,10.46a2.79,2.79,0,0,1-2.13-.84,3.1,3.1,0,0,1-.79-2.23A3.24,3.24,0,0,1,194.26,5a3,3,0,0,1,2.24-.85,2.66,2.66,0,0,1,2.09.83,3.27,3.27,0,0,1,.75,2.29,3.25,3.25,0,0,1-.81,2.3A2.85,2.85,0,0,1,196.36,10.46ZM196.43,5a1.84,1.84,0,0,0-1.47.63,2.58,2.58,0,0,0-.54,1.73A2.42,2.42,0,0,0,195,9a1.85,1.85,0,0,0,1.46.61,1.75,1.75,0,0,0,1.43-.6,2.65,2.65,0,0,0,.5-1.72,2.66,2.66,0,0,0-.5-1.73A1.73,1.73,0,0,0,196.43,5Z"/><path class="cls-13" d="M205.16,10.32h-.95V5.13h-1.4A12.33,12.33,0,0,1,202,9.22a1.76,1.76,0,0,1-1.57,1.18,1.62,1.62,0,0,1-.52-.08V9.49a1,1,0,0,0,.45.11q1.29,0,1.66-5.28h3.15Z"/><path class="cls-13" d="M211.79,4.32l-2.76,7c-.5,1.24-1.19,1.86-2.08,1.86a2.28,2.28,0,0,1-.63-.07v-.86a1.8,1.8,0,0,0,.57.1,1.17,1.17,0,0,0,1.09-.87l.48-1.13-2.34-6h1.07l1.62,4.62q0,.09.12.45h0l.11-.44,1.71-4.63Z"/><path class="cls-13" d="M217.55,10.32h-1V7.91a4.13,4.13,0,0,1-1.95.57q-2,0-2-2.13v-2h1v2q0,1.32,1.14,1.32a4.12,4.12,0,0,0,1.86-.51V4.32h1Z"/><path class="cls-13" d="M224.23,7.56H220a2.21,2.21,0,0,0,.54,1.55,1.85,1.85,0,0,0,1.42.54A2.93,2.93,0,0,0,223.81,9v.91a3.52,3.52,0,0,1-2.09.57,2.52,2.52,0,0,1-2-.82,3.36,3.36,0,0,1-.73-2.3,3.29,3.29,0,0,1,.8-2.28,2.53,2.53,0,0,1,2-.88,2.25,2.25,0,0,1,1.82.76,3.18,3.18,0,0,1,.65,2.12Zm-1-.81a2,2,0,0,0-.4-1.3,1.36,1.36,0,0,0-1.1-.46,1.55,1.55,0,0,0-1.15.48A2.25,2.25,0,0,0,220,6.75Z"/><path class="cls-13" d="M230.56,10.32h-1V7.6h-3.06v2.72h-1v-6h1V6.78h3.06V4.32h1Z"/><path class="cls-13" d="M237.44,10.32h-.87V5.53c-.08.17-.21.41-.39.71l-2.77,4.08h-1v-6h.88V9.05a6.36,6.36,0,0,1,.31-.58l2.84-4.15h1Z"/><path class="cls-13" d="M244.11,7.56h-4.23a2.21,2.21,0,0,0,.54,1.55,1.85,1.85,0,0,0,1.41.54A2.94,2.94,0,0,0,243.7,9v.91a3.53,3.53,0,0,1-2.1.57,2.51,2.51,0,0,1-2-.82,3.31,3.31,0,0,1-.73-2.3,3.28,3.28,0,0,1,.79-2.28,2.55,2.55,0,0,1,2-.88,2.25,2.25,0,0,1,1.82.76,3.18,3.18,0,0,1,.64,2.12Zm-1-.81a2,2,0,0,0-.4-1.3,1.37,1.37,0,0,0-1.1-.46,1.57,1.57,0,0,0-1.16.48,2.24,2.24,0,0,0-.58,1.28Z"/><path class="cls-13" d="M255.14,10.32h-.95V5.37c-.08.25-.22.62-.4,1.11l-1.5,3.84h-.86l-1.55-3.84q-.12-.32-.39-1.11v5h-.83v-6h1.22l1.59,3.91c.11.29.25.68.43,1.19l.43-1.16,1.53-3.94h1.28Z"/><path class="cls-13" d="M261.29,10.32h-1V9.38h0a2.2,2.2,0,0,1-3.25.61,1.65,1.65,0,0,1-.51-1.26c0-1.13.67-1.78,2-2l1.79-.25q0-1.53-1.23-1.53a2.92,2.92,0,0,0-2,.74v-1a3.76,3.76,0,0,1,2-.56c1.41,0,2.12.75,2.12,2.24Zm-1-3-1.44.2a2.59,2.59,0,0,0-1,.33,1,1,0,0,0-.34.85.89.89,0,0,0,.31.71,1.2,1.2,0,0,0,.84.28,1.56,1.56,0,0,0,1.18-.5,1.79,1.79,0,0,0,.46-1.27Z"/><path class="cls-13" d="M264,9.45h0v3.63h-1V4.32h1v1h0a2.3,2.3,0,0,1,2.08-1.19,2.23,2.23,0,0,1,1.81.8,3.37,3.37,0,0,1,.65,2.16,3.79,3.79,0,0,1-.73,2.42,2.46,2.46,0,0,1-2,.9A2,2,0,0,1,264,9.45ZM264,7v.84a1.77,1.77,0,0,0,.48,1.26A1.73,1.73,0,0,0,267,9a3,3,0,0,0,.49-1.85,2.41,2.41,0,0,0-.46-1.57A1.53,1.53,0,0,0,265.82,5a1.7,1.7,0,0,0-1.35.58A2.15,2.15,0,0,0,264,7Z"/><path class="cls-13" d="M274.94,10.32h-1.35l-2.65-2.88h0v2.88h-1v-6h1V7.07h0l2.52-2.75h1.26l-2.78,2.89Z"/><path class="cls-13" d="M280.65,7.56h-4.24A2.3,2.3,0,0,0,277,9.11a1.88,1.88,0,0,0,1.42.54A2.89,2.89,0,0,0,280.23,9v.91a3.47,3.47,0,0,1-2.09.57,2.53,2.53,0,0,1-2-.82,3.35,3.35,0,0,1-.72-2.3,3.28,3.28,0,0,1,.79-2.28,2.54,2.54,0,0,1,2-.88,2.22,2.22,0,0,1,1.82.76,3.18,3.18,0,0,1,.65,2.12Zm-1-.81a2,2,0,0,0-.41-1.3A1.35,1.35,0,0,0,278.17,5a1.57,1.57,0,0,0-1.16.48,2.25,2.25,0,0,0-.59,1.28Z"/><path class="cls-13" d="M283,9.45h0v3.63h-1V4.32h1v1h0a2.27,2.27,0,0,1,2.07-1.19,2.23,2.23,0,0,1,1.82.8,3.37,3.37,0,0,1,.65,2.16,3.74,3.74,0,0,1-.74,2.42,2.44,2.44,0,0,1-2,.9A2,2,0,0,1,283,9.45ZM283,7v.84a1.77,1.77,0,0,0,.48,1.26,1.59,1.59,0,0,0,1.23.52A1.6,1.6,0,0,0,286.05,9a3,3,0,0,0,.49-1.85,2.41,2.41,0,0,0-.46-1.57A1.54,1.54,0,0,0,284.82,5a1.69,1.69,0,0,0-1.34.58A2.15,2.15,0,0,0,283,7Z"/><path class="cls-13" d="M293.26,10.32h-1V9.38h0a2,2,0,0,1-1.85,1.08A2,2,0,0,1,289,10a1.65,1.65,0,0,1-.51-1.26c0-1.13.66-1.78,2-2l1.8-.25c0-1-.41-1.53-1.24-1.53a2.9,2.9,0,0,0-1.95.74v-1a3.75,3.75,0,0,1,2-.56c1.41,0,2.12.75,2.12,2.24Zm-1-3-1.45.2a2.65,2.65,0,0,0-1,.33,1,1,0,0,0-.34.85.9.9,0,0,0,.32.71,1.18,1.18,0,0,0,.83.28,1.55,1.55,0,0,0,1.18-.5,1.8,1.8,0,0,0,.47-1.27Z"/><path class="cls-13" d="M213.59,38.21h-1V32.57c0-.44,0-1,.08-1.63h0a6.37,6.37,0,0,1-.25.81l-2.88,6.46h-.48L206.2,31.8a4.68,4.68,0,0,1-.25-.86h0a16.27,16.27,0,0,1,.05,1.64v5.63H205v-8.4h1.3l2.58,5.86a7.92,7.92,0,0,1,.39,1h0c.17-.46.31-.8.41-1l2.63-5.83h1.23Z"/><path class="cls-13" d="M219.89,38.21h-1v-.94h0a2,2,0,0,1-1.85,1.08,2,2,0,0,1-1.4-.47,1.65,1.65,0,0,1-.51-1.26c0-1.12.66-1.78,2-2l1.8-.25c0-1-.41-1.53-1.24-1.53a2.9,2.9,0,0,0-1.95.74v-1a3.76,3.76,0,0,1,2-.56c1.41,0,2.11.75,2.11,2.24Zm-1-3-1.45.2a2.48,2.48,0,0,0-1,.34,1,1,0,0,0-.34.84.9.9,0,0,0,.32.71,1.19,1.19,0,0,0,.83.28,1.51,1.51,0,0,0,1.18-.5,1.8,1.8,0,0,0,.47-1.27Z"/><path class="cls-13" d="M222.61,37.34h0V41h-1V32.21h1v1h0a2.3,2.3,0,0,1,2.08-1.19,2.19,2.19,0,0,1,1.81.81,3.32,3.32,0,0,1,.65,2.15,3.73,3.73,0,0,1-.73,2.42,2.46,2.46,0,0,1-2,.9A2,2,0,0,1,222.61,37.34Zm0-2.42v.84a1.77,1.77,0,0,0,.48,1.26,1.73,1.73,0,0,0,2.6-.15,3,3,0,0,0,.5-1.85,2.41,2.41,0,0,0-.47-1.57,1.52,1.52,0,0,0-1.25-.57,1.7,1.7,0,0,0-1.35.58A2.15,2.15,0,0,0,222.59,34.92Z"/><path class="cls-13" d="M233.59,38.21h-1.34l-2.65-2.88h0v2.88h-1v-6h1V35h0l2.52-2.75h1.26l-2.79,2.89Z"/><path class="cls-13" d="M239.33,35.45h-4.24a2.3,2.3,0,0,0,.54,1.55,1.87,1.87,0,0,0,1.42.54,2.93,2.93,0,0,0,1.86-.67v.91a3.5,3.5,0,0,1-2.09.57,2.53,2.53,0,0,1-2-.82,3.36,3.36,0,0,1-.73-2.3,3.29,3.29,0,0,1,.8-2.28,2.54,2.54,0,0,1,2-.88,2.24,2.24,0,0,1,1.82.76,3.18,3.18,0,0,1,.65,2.12Zm-1-.81a1.91,1.91,0,0,0-.4-1.3,1.36,1.36,0,0,0-1.1-.46,1.55,1.55,0,0,0-1.15.48,2.25,2.25,0,0,0-.59,1.28Z"/><path class="cls-13" d="M241.69,37.34h0V41h-1V32.21h1v1h0a2.3,2.3,0,0,1,2.08-1.19,2.2,2.2,0,0,1,1.81.81,3.32,3.32,0,0,1,.65,2.15,3.79,3.79,0,0,1-.73,2.42,2.46,2.46,0,0,1-2,.9A2,2,0,0,1,241.69,37.34Zm0-2.42v.84a1.77,1.77,0,0,0,.48,1.26,1.59,1.59,0,0,0,1.23.52,1.6,1.6,0,0,0,1.37-.67,3,3,0,0,0,.49-1.85,2.41,2.41,0,0,0-.46-1.57,1.53,1.53,0,0,0-1.25-.57,1.7,1.7,0,0,0-1.35.58A2.15,2.15,0,0,0,241.67,34.92Z"/><path class="cls-13" d="M256.14,40.4h-.82V38.21h-4.46V40.4H250v-3h.53a8.94,8.94,0,0,0,1.56-5.19h3.12V37.4h.89Zm-1.85-3V33H253a9.33,9.33,0,0,1-1.37,4.38Z"/><path class="cls-13" d="M259.9,38.35a2.79,2.79,0,0,1-2.12-.84,3.1,3.1,0,0,1-.79-2.23,3.24,3.24,0,0,1,.82-2.36,3,3,0,0,1,2.23-.85,2.66,2.66,0,0,1,2.1.83,3.77,3.77,0,0,1-.06,4.59A2.87,2.87,0,0,1,259.9,38.35Zm.07-5.47a1.83,1.83,0,0,0-1.46.63,2.59,2.59,0,0,0-.54,1.74,2.41,2.41,0,0,0,.55,1.68,1.84,1.84,0,0,0,1.45.61,1.77,1.77,0,0,0,1.44-.6,3.23,3.23,0,0,0,0-3.45A1.75,1.75,0,0,0,260,32.88Z"/><path class="cls-13" d="M268.45,37.93a3.14,3.14,0,0,1-1.65.42,2.75,2.75,0,0,1-2.07-.83,3.06,3.06,0,0,1-.78-2.17,3.34,3.34,0,0,1,.84-2.38,3,3,0,0,1,2.27-.9,3.27,3.27,0,0,1,1.4.29v1a2.4,2.4,0,0,0-1.43-.47,1.92,1.92,0,0,0-1.51.66,2.5,2.5,0,0,0-.59,1.73,2.36,2.36,0,0,0,.55,1.66,1.91,1.91,0,0,0,1.49.61,2.43,2.43,0,0,0,1.48-.52Z"/><path class="cls-13" d="M273.59,33H271.8v5.18h-1V33H269v-.82h4.56Z"/><path class="cls-13" d="M279.45,32.21l-2.76,7Q276,41,274.62,41A2.28,2.28,0,0,1,274,41V40.1a1.8,1.8,0,0,0,.57.1,1.18,1.18,0,0,0,1.09-.87l.48-1.13-2.34-6h1.06l1.63,4.62q0,.09.12.45h0c0-.09.06-.24.12-.44l1.71-4.63Z"/><path class="cls-13" d="M285.39,38.21h-1V33h-3.06v5.18h-1v-6h5Z"/><path class="cls-13" d="M291.56,38.21h-1v-.94h0a2,2,0,0,1-1.85,1.08,2,2,0,0,1-1.4-.47,1.65,1.65,0,0,1-.51-1.26c0-1.12.66-1.78,2-2l1.8-.25c0-1-.41-1.53-1.24-1.53a2.9,2.9,0,0,0-1.95.74v-1a3.76,3.76,0,0,1,2-.56c1.41,0,2.11.75,2.11,2.24Zm-1-3-1.45.2a2.48,2.48,0,0,0-1,.34,1,1,0,0,0-.34.84.9.9,0,0,0,.32.71,1.19,1.19,0,0,0,.83.28,1.51,1.51,0,0,0,1.18-.5,1.8,1.8,0,0,0,.47-1.27Z"/><path class="cls-13" d="M188.9,135.32a3.68,3.68,0,0,1-2.86-1.18,4.37,4.37,0,0,1-1.07-3.06,4.65,4.65,0,0,1,1.09-3.24,3.85,3.85,0,0,1,3-1.2,3.6,3.6,0,0,1,2.8,1.17,4.37,4.37,0,0,1,1.06,3.06,4.66,4.66,0,0,1-1.09,3.26A3.77,3.77,0,0,1,188.9,135.32Zm.08-7.79a2.75,2.75,0,0,0-2.16.95,4.28,4.28,0,0,0,0,5,2.64,2.64,0,0,0,2.1.95,2.76,2.76,0,0,0,2.18-.91,3.63,3.63,0,0,0,.8-2.52,3.87,3.87,0,0,0-.77-2.57A2.65,2.65,0,0,0,189,127.53Z"/><path class="cls-13" d="M198.17,130h-1.8v5.18h-1V130H193.6v-.82h4.57Z"/><path class="cls-13" d="M199.29,135.18v-6h2.61a2.28,2.28,0,0,1,1.4.39,1.28,1.28,0,0,1,.51,1.07,1.32,1.32,0,0,1-1.15,1.42c.92.12,1.38.58,1.38,1.39a1.56,1.56,0,0,1-.57,1.23,2,2,0,0,1-1.4.5Zm1-5.18v1.69h1.44c.77,0,1.16-.3,1.16-.9s-.35-.79-1-.79Zm0,2.51v1.85h1.66c.78,0,1.17-.32,1.17-.94s-.44-.91-1.31-.91Z"/><path class="cls-13" d="M210.43,132.42h-4.24a2.3,2.3,0,0,0,.54,1.55,1.88,1.88,0,0,0,1.42.54,2.89,2.89,0,0,0,1.86-.67v.91a3.47,3.47,0,0,1-2.09.57,2.53,2.53,0,0,1-2-.82,3.35,3.35,0,0,1-.72-2.3,3.28,3.28,0,0,1,.79-2.28,2.54,2.54,0,0,1,2-.88,2.24,2.24,0,0,1,1.82.76,3.18,3.18,0,0,1,.65,2.12Zm-1-.81a1.91,1.91,0,0,0-.4-1.3,1.36,1.36,0,0,0-1.1-.46,1.56,1.56,0,0,0-1.15.48,2.25,2.25,0,0,0-.59,1.28Z"/><path class="cls-13" d="M215.61,130h-1.79v5.18h-1V130h-1.8v-.82h4.56Z"/><path class="cls-13" d="M226.43,135.18h-1v-3.83H221.1v3.83h-1v-8.4h1v3.68h4.34v-3.68h1Z"/><path class="cls-13" d="M233.56,127.67h-2.42v7.51h-1v-7.51h-2.42v-.89h5.83Z"/><path class="cls-13" d="M240.05,127.67h-2.43v7.51h-1v-7.51h-2.42v-.89h5.83Z"/><path class="cls-13" d="M242.32,132v3.18h-1v-8.4h2.31a3.08,3.08,0,0,1,2.09.65,2.37,2.37,0,0,1,.74,1.86,2.54,2.54,0,0,1-.82,2,3.14,3.14,0,0,1-2.23.76Zm0-4.33v3.44h1a2.28,2.28,0,0,0,1.55-.46,1.65,1.65,0,0,0,.54-1.32c0-1.11-.66-1.66-2-1.66Z"/></g></svg>