<svg xmlns="http://www.w3.org/2000/svg" xmlns:xlink="http://www.w3.org/1999/xlink" viewBox="0 0 474.97 150.6"><defs><style>.cls-1{fill:#505050;}.cls-11,.cls-2{fill:#fff;}.cls-3,.cls-8{fill:#ebebeb;}.cls-4{fill:#a4c639;}.cls-12,.cls-5{fill:#0072c6;}.cls-6{fill:#d2d2d2;}.cls-7{fill:none;}.cls-7,.cls-8,.cls-9{stroke:#000;}.cls-10,.cls-11,.cls-12,.cls-7,.cls-8,.cls-9{stroke-miterlimit:10;}.cls-8{stroke-width:0.75px;}.cls-11,.cls-12,.cls-9{stroke-width:0.05px;}.cls-10{fill:#1e1e1e;stroke:#1e1e1e;stroke-width:0.06px;}.cls-11{stroke:#fff;}.cls-12{stroke:#0072c6;}</style><symbol id="New_Symbol_44" data-name="New Symbol 44" viewBox="0 0 20 20"><circle class="cls-1" cx="10" cy="10" r="10"/><path class="cls-2" d="M12,14V8.58h1.25V7.45H12V5.6H10.65V7.42H6.85V8.56q.51.58,1.05,1.26a12.66,12.66,0,0,1,1,1.38c.29.47.64.94.93,1.41A13,13,0,0,1,10.55,14ZM10.65,8.58v3.5a19.76,19.76,0,0,0-1.26-2C9,9.51,8.58,9,8.22,8.56Z"/></symbol><symbol id="New_Symbol_43" data-name="New Symbol 43" viewBox="0 0 20 20"><circle class="cls-1" cx="10" cy="10" r="10"/><path class="cls-2" d="M7.39,5.88V7.16a3,3,0,0,1,1.85-.65,2.19,2.19,0,0,1,1.34.38,1.23,1.23,0,0,1,.5,1c0,1-.73,1.43-2.18,1.43H8.24v1.12h.63c1.29,0,1.94.45,1.94,1.35S10.3,13,9.29,13a2.48,2.48,0,0,1-1.58-.6v1.23a4.08,4.08,0,0,0,2,.48,2.64,2.64,0,0,0,1.79-.56,1.76,1.76,0,0,0,.67-1.44A2,2,0,0,0,10.5,10h0a2.19,2.19,0,0,0,1.43-.63A1.89,1.89,0,0,0,12.5,8a2.22,2.22,0,0,0-.85-1.82,3.4,3.4,0,0,0-2.24-.7A3.84,3.84,0,0,0,7.39,5.88Z"/></symbol><symbol id="New_Symbol_42" data-name="New Symbol 42" viewBox="0 0 20 20"><circle class="cls-1" cx="10" cy="10" r="10"/><path class="cls-2" d="M12.5,5.57H7.24v.65A2.58,2.58,0,0,0,7.35,7a3.93,3.93,0,0,0,.3.66,4.92,4.92,0,0,0,.44.58c.17.18.35.35.54.52l.59.5c.2.15.39.31.58.47s.35.3.5.45a4.11,4.11,0,0,1,.38.45,2.55,2.55,0,0,1,.24.5,1.84,1.84,0,0,1,.09.57,1.42,1.42,0,0,1-.1.58,1.33,1.33,0,0,1-.29.41,1.17,1.17,0,0,1-.44.26,2.05,2.05,0,0,1-.55.05,2.73,2.73,0,0,1-1.05-.24,3.75,3.75,0,0,1-1-.72v1.31a2.85,2.85,0,0,0,.52.33,2.7,2.7,0,0,0,.55.24,3,3,0,0,0,.59.15,3.64,3.64,0,0,0,.66,0,3.77,3.77,0,0,0,1-.14,2.2,2.2,0,0,0,.79-.44,2,2,0,0,0,.51-.73,2.46,2.46,0,0,0,.18-1,2.88,2.88,0,0,0-.13-.92,2.65,2.65,0,0,0-.36-.76,4,4,0,0,0-.56-.67c-.21-.21-.46-.43-.73-.65l-.67-.53c-.23-.18-.43-.35-.61-.51a3.5,3.5,0,0,1-.44-.5.9.9,0,0,1-.16-.5H12.5Z"/></symbol><symbol id="New_Symbol_41" data-name="New Symbol 41" viewBox="0 0 20 20"><circle class="cls-1" cx="10" cy="10" r="10"/><path class="cls-2" d="M11.19,14.16V5.57H9.83V12.5A4.06,4.06,0,0,0,9,12a9,9,0,0,0-1-.33v1.21l.65.24.63.27.62.34c.21.13.42.27.64.43Z"/></symbol></defs><title>OJ104329344</title><g id="bg"><g id="Shapes"><rect class="cls-2" width="474.97" height="150.6"/><rect class="cls-3" width="105" height="150"/><rect class="cls-4" x="17.81" y="20.58" width="70" height="70"/><path class="cls-2" d="M50,72.61v6.77c0,1.86-.94,3.26-2.8,3.26h0c-1.87,0-2.8-1.4-2.8-3.26V72.61H40.9c-1.4,0-2.1-1.63-2.1-3V46.48h28v23.1c0,1.4-.47,3-2.1,3H61.2v6.77c0,1.86-.94,3.26-2.8,3.26h0c-1.87,0-2.8-1.4-2.8-3.26V72.61Z"/><path class="cls-2" d="M33.21,45.78h0c1.86,0,3.73,1.4,3.73,3.26V62.11c0,1.87-1.87,3.27-3.73,3.27h0c-1.87,0-3.74-1.4-3.74-3.27V49c0-1.86,1.87-3.26,3.74-3.26Z"/><path class="cls-2" d="M72.41,45.78h0c1.86,0,3.73,1.4,3.73,3.26V62.11c0,1.87-1.87,3.27-3.73,3.27h0c-1.87,0-3.74-1.4-3.74-3.27V49c0-1.86,1.87-3.26,3.74-3.26Z"/><path class="cls-2" d="M59.57,34.11l2.57-3.5c.23-.23,0-.47-.23-.7s-.47,0-.7.23l-2.57,3.74a16.16,16.16,0,0,0-5.83-1.17A15.45,15.45,0,0,0,47,33.88l-2.8-4a.86.86,0,0,0-.7-.23c0,.23-.23.46,0,.7L46,34.11c-4.2,1.87-7.23,5.83-7.23,9.57h28C66.81,39.94,63.77,36,59.57,34.11Zm-12.83,6.3a1.64,1.64,0,1,1,1.63-1.65v0a1.59,1.59,0,0,1-1.55,1.63Zm12.13,0a1.64,1.64,0,1,1,1.64-1.64h0A1.59,1.59,0,0,1,59,40.41Z"/><rect class="cls-5" x="371" width="103.97" height="90"/><rect class="cls-6" x="371" y="95" width="103.97" height="55"/><line class="cls-7" x1="105.22" y1="14.6" x2="365.79" y2="14.6"/><polygon points="364.7 18.34 371.17 14.6 364.7 10.86 364.7 18.34"/><line class="cls-7" x1="110.6" y1="44.48" x2="371.17" y2="44.48"/><polygon points="111.7 48.22 105.22 44.48 111.7 40.74 111.7 48.22"/><line class="cls-7" x1="105.22" y1="103.9" x2="365.79" y2="103.9"/><polygon points="364.7 107.64 371.17 103.91 364.7 100.17 364.7 107.64"/><line class="cls-7" x1="110.65" y1="140.07" x2="371.22" y2="140.07"/><polygon points="111.74 143.81 105.26 140.07 111.74 136.33 111.74 143.81"/><use width="20" height="20" transform="matrix(1, 0, 0, -1, 160.1, 149.6)" xlink:href="#New_Symbol_44"/><use width="20" height="20" transform="matrix(1, 0, 0, -1, 160.1, 113.9)" xlink:href="#New_Symbol_43"/><use width="20" height="20" transform="matrix(1, 0, 0, -1, 160.1, 54.48)" xlink:href="#New_Symbol_42"/><use width="20" height="20" transform="matrix(1, 0, 0, -1, 160.1, 24.6)" xlink:href="#New_Symbol_41"/><polygon class="cls-8" points="192.98 25.6 185.42 31.04 188.31 39.85 197.65 39.85 200.54 31.04 192.98 25.6"/></g><polygon class="cls-8" points="193.05 85.53 185.49 90.97 188.38 99.78 197.72 99.78 200.61 90.97 193.05 85.53"/></g><g id="txt"><path class="cls-9" d="M21.83,111.05a5.46,5.46,0,0,1-2.4.45,4,4,0,0,1-3-1.14,4.16,4.16,0,0,1-1.11-3,4.46,4.46,0,0,1,1.25-3.27,4.36,4.36,0,0,1,3.23-1.25,5.94,5.94,0,0,1,2.07.31v1.82a3.71,3.71,0,0,0-1.92-.5,2.56,2.56,0,0,0-1.91.74,2.79,2.79,0,0,0-.73,2,2.69,2.69,0,0,0,.69,1.94,2.43,2.43,0,0,0,1.84.72,4,4,0,0,0,2-.53Z"/><path class="cls-9" d="M26,111.5a3.2,3.2,0,0,1-2.35-.84,3.47,3.47,0,0,1,0-4.61,3.35,3.35,0,0,1,2.41-.84,3.19,3.19,0,0,1,2.34.84,3,3,0,0,1,.85,2.22,3.15,3.15,0,0,1-.88,2.36A3.24,3.24,0,0,1,26,111.5Zm.05-4.88a1.21,1.21,0,0,0-1,.46,2,2,0,0,0-.36,1.27c0,1.15.46,1.73,1.39,1.73s1.33-.59,1.33-1.77S26.92,106.62,26,106.62Z"/><path class="cls-9" d="M35.77,102.33v1.46a1.6,1.6,0,0,1-.75.29l-1.58.26a2,2,0,0,0-.78.34,1.58,1.58,0,0,0-.4.61,4.08,4.08,0,0,0-.21,1h0a2.28,2.28,0,0,1,1.79-.77,2.58,2.58,0,0,1,2,.76,2.91,2.91,0,0,1,.71,2.09,3.06,3.06,0,0,1-.87,2.29,3.27,3.27,0,0,1-2.37.85,2.89,2.89,0,0,1-2.38-1,4.45,4.45,0,0,1-.81-2.88,9,9,0,0,1,.13-1.63,5,5,0,0,1,.41-1.29,3.29,3.29,0,0,1,.66-.94,2.72,2.72,0,0,1,.81-.54A4.73,4.73,0,0,1,33,103c.27-.06.93-.17,2-.33A3.58,3.58,0,0,0,35.77,102.33ZM32,107.57c0,.1,0,.28,0,.55a2.5,2.5,0,0,0,.36,1.43,1.15,1.15,0,0,0,1,.53,1.16,1.16,0,0,0,.94-.44,1.86,1.86,0,0,0,.37-1.19,1.75,1.75,0,0,0-.37-1.18,1.21,1.21,0,0,0-1-.43,1.48,1.48,0,0,0-.76.21A1.5,1.5,0,0,0,32,107.57Z"/><path class="cls-9" d="M42.3,111.14a3.66,3.66,0,0,1-1.81.36,3,3,0,0,1-2.23-.84,2.9,2.9,0,0,1-.86-2.16,3.19,3.19,0,0,1,.92-2.41,3.38,3.38,0,0,1,2.45-.88,3.07,3.07,0,0,1,1.53.28v1.57a2.08,2.08,0,0,0-1.29-.44,1.71,1.71,0,0,0-1.26.47,1.75,1.75,0,0,0-.47,1.29,1.71,1.71,0,0,0,.45,1.25,1.62,1.62,0,0,0,1.22.45,2.42,2.42,0,0,0,1.35-.43Z"/><path class="cls-9" d="M48,106.76H46.4v4.59H44.54v-4.59H42.92v-1.41H48Z"/><path class="cls-9" d="M49,111.35v-6h3.35c1.43,0,2.15.49,2.15,1.47a1.21,1.21,0,0,1-.34.88,1.55,1.55,0,0,1-.87.47,1.79,1.79,0,0,1,1,.46,1.25,1.25,0,0,1,.37.92,1.62,1.62,0,0,1-.58,1.31,2.35,2.35,0,0,1-1.59.49Zm1.85-4.87v1.26h.91c.56,0,.85-.22.85-.66s-.27-.6-.8-.6Zm0,2.35v1.37h1.07c.59,0,.89-.24.89-.72s-.31-.65-.91-.65Z"/><path class="cls-9" d="M61.32,108.88H57.4c.07.87.62,1.31,1.65,1.31a3.24,3.24,0,0,0,1.74-.47v1.33a4.5,4.5,0,0,1-2.16.45,2.79,2.79,0,0,1-3.06-3,3.2,3.2,0,0,1,.87-2.37,2.9,2.9,0,0,1,2.13-.87,2.62,2.62,0,0,1,2,.78,3,3,0,0,1,.72,2.11Zm-1.72-1.14c0-.86-.35-1.29-1-1.29a1,1,0,0,0-.77.37,1.72,1.72,0,0,0-.4.92Z"/><path class="cls-9" d="M68.2,111.35H66.35v-2.51H64.27v2.51H62.42v-6h1.85v2.22h2.08v-2.22H68.2Z"/><path class="cls-9" d="M75.54,111.35H73.69v-2.51H71.61v2.51H69.76v-6h1.85v2.22h2.08v-2.22h1.85Z"/><path class="cls-9" d="M80,111.5a3.24,3.24,0,0,1-2.36-.84,3,3,0,0,1-.85-2.28,3,3,0,0,1,.89-2.33,3.34,3.34,0,0,1,2.4-.84,3.2,3.2,0,0,1,2.35.84,3,3,0,0,1,.85,2.22,3.15,3.15,0,0,1-.88,2.36A3.24,3.24,0,0,1,80,111.5Zm.05-4.88a1.21,1.21,0,0,0-1,.46,2,2,0,0,0-.36,1.27c0,1.15.46,1.73,1.39,1.73s1.33-.59,1.33-1.77S80.9,106.62,80,106.62Z"/><path class="cls-9" d="M89.83,108.88H85.92c.06.87.61,1.31,1.64,1.31a3.24,3.24,0,0,0,1.74-.47v1.33a4.5,4.5,0,0,1-2.16.45,2.79,2.79,0,0,1-3.06-3,3.2,3.2,0,0,1,.87-2.37,2.9,2.9,0,0,1,2.13-.87,2.62,2.62,0,0,1,2,.78,3,3,0,0,1,.72,2.11Zm-1.72-1.14c0-.86-.34-1.29-1-1.29a1,1,0,0,0-.77.37,1.72,1.72,0,0,0-.4.92Z"/><path class="cls-9" d="M21.8,125.75H19.94v-4.69H17.87v4.69H16v-6H21.8Z"/><path class="cls-9" d="M25.23,125.06h0v3.45H23.36v-8.76h1.85v.91h0a2.18,2.18,0,0,1,1.93-1,2.14,2.14,0,0,1,1.8.8,3.36,3.36,0,0,1,.64,2.17,3.71,3.71,0,0,1-.74,2.41,2.41,2.41,0,0,1-2,.91A1.88,1.88,0,0,1,25.23,125.06Zm-.05-2.47v.49a1.52,1.52,0,0,0,.33,1,1.06,1.06,0,0,0,.86.39,1.12,1.12,0,0,0,1-.49,2.36,2.36,0,0,0,.35-1.38q0-1.59-1.23-1.59a1.16,1.16,0,0,0-.93.44A1.68,1.68,0,0,0,25.18,122.59Z"/><path class="cls-9" d="M36.76,125.75H35.08v-3.92a6.3,6.3,0,0,1-.49.85l-2,3.07H30.8v-6h1.69v3.81a6.47,6.47,0,0,1,.41-.74l2-3.07h1.82Z"/><path class="cls-9" d="M44,125.75H42.14v-4.69h-1a9.69,9.69,0,0,1-1,3.74,2,2,0,0,1-1.8,1,2.36,2.36,0,0,1-.72-.11v-1.26a1.08,1.08,0,0,0,.44.09c.36,0,.67-.34.91-1a19.44,19.44,0,0,0,.66-3.76H44Z"/><path class="cls-9" d="M48.42,125.9a3.2,3.2,0,0,1-2.35-.84,3.47,3.47,0,0,1,0-4.61,3.37,3.37,0,0,1,2.41-.84,3.19,3.19,0,0,1,2.34.84,3,3,0,0,1,.85,2.22,3.15,3.15,0,0,1-.88,2.36A3.24,3.24,0,0,1,48.42,125.9Zm0-4.88a1.21,1.21,0,0,0-1,.46,2,2,0,0,0-.36,1.27c0,1.16.46,1.73,1.39,1.73s1.33-.59,1.33-1.77S49.37,121,48.47,121Z"/><path class="cls-9" d="M62.07,125.75H59.89l-1.94-3h0v3H56.11v-3h0l-1.92,3H52l2.27-3.14L52,119.75h2.18l1.87,2.84h0v-2.84h1.82v2.84h0l1.88-2.84H62l-2.23,2.86Z"/><path class="cls-9" d="M68.08,123.28H64.16c.07.87.61,1.31,1.65,1.31a3.24,3.24,0,0,0,1.74-.47v1.33a4.53,4.53,0,0,1-2.16.45,2.79,2.79,0,0,1-3.06-3.05,3.2,3.2,0,0,1,.87-2.37,2.88,2.88,0,0,1,2.13-.87,2.63,2.63,0,0,1,2,.78,3,3,0,0,1,.72,2.11Zm-1.72-1.14c0-.86-.35-1.29-1-1.29a1,1,0,0,0-.77.37,1.72,1.72,0,0,0-.4.92Z"/><path class="cls-9" d="M75,125.75H73.1v-2.5H71v2.5H69.18v-6H71V122H73.1v-2.22H75Z"/><path class="cls-9" d="M82.49,125.75H80.8v-3.92a6.3,6.3,0,0,1-.49.85l-2,3.07H76.52v-6h1.69v3.81c.13-.27.27-.51.41-.74l2-3.07h1.83Z"/><path class="cls-9" d="M89.44,123.28H85.53c.06.87.61,1.31,1.64,1.31a3.24,3.24,0,0,0,1.74-.47v1.33a4.5,4.5,0,0,1-2.16.45,2.81,2.81,0,0,1-3.06-3.05,3.2,3.2,0,0,1,.87-2.37,2.9,2.9,0,0,1,2.13-.87,2.62,2.62,0,0,1,2,.78,3,3,0,0,1,.72,2.11Zm-1.72-1.14c0-.86-.34-1.29-1-1.29a1,1,0,0,0-.77.37,1.72,1.72,0,0,0-.4.92Z"/><path class="cls-10" d="M213.42,85.29h-1V81.46h-4.35v3.83h-1v-8.4h1v3.69h4.35V76.89h1Z"/><path class="cls-10" d="M220.52,77.78H218.1v7.51h-1V77.78h-2.42v-.89h5.83Z"/><path class="cls-10" d="M227,77.78h-2.42v7.51h-1V77.78h-2.42v-.89H227Z"/><path class="cls-10" d="M229.2,82.12v3.17h-1v-8.4h2.31a3,3,0,0,1,2.09.66,2.34,2.34,0,0,1,.74,1.85,2.55,2.55,0,0,1-.83,2,3.18,3.18,0,0,1-2.22.76Zm0-4.34v3.45h1a2.33,2.33,0,0,0,1.56-.47,1.64,1.64,0,0,0,.54-1.31c0-1.11-.66-1.67-2-1.67Z"/><path class="cls-10" d="M244.36,84.72a5.56,5.56,0,0,1-2.81.71,3.82,3.82,0,0,1-2.91-1.16,4.24,4.24,0,0,1-1.11-3.07,4.37,4.37,0,0,1,1.23-3.2,4.24,4.24,0,0,1,3.13-1.25,5.27,5.27,0,0,1,2.3.45v1.09a4.41,4.41,0,0,0-2.41-.65,3,3,0,0,0-2.32,1,4.07,4.07,0,0,0-.06,5,2.93,2.93,0,0,0,2.27.91,3.54,3.54,0,0,0,1.71-.39V81.8h-1.84v-.89h2.82Z"/><path class="cls-10" d="M250.7,85.29h-4.46v-8.4h4.27v.89h-3.28v2.8h3v.88h-3V84.4h3.47Z"/><path class="cls-10" d="M257.21,77.78h-2.43v7.51h-1V77.78h-2.42v-.89h5.83Z"/><path class="cls-10" d="M267.44,82.19h-2.37v2.36h-.78V82.19h-2.36V81.4h2.36V79h.78V81.4h2.37Z"/><path class="cls-10" d="M213.46,99.49h-1V94.55c-.09.25-.22.62-.4,1.1l-1.5,3.84h-.86l-1.55-3.84-.4-1.1v4.94H207v-6h1.22l1.58,3.92c.12.28.26.68.44,1.18l.43-1.16,1.53-3.94h1.28Z"/><path class="cls-10" d="M219.63,99.49h-1v-.93h0a2,2,0,0,1-1.84,1.07,2,2,0,0,1-1.41-.47,1.64,1.64,0,0,1-.5-1.26c0-1.12.66-1.77,2-2l1.8-.25c0-1-.42-1.53-1.24-1.53a3,3,0,0,0-2,.74v-1a3.68,3.68,0,0,1,2-.57c1.41,0,2.12.75,2.12,2.24Zm-1-3-1.45.2a2.3,2.3,0,0,0-1,.33,1,1,0,0,0-.34.84.92.92,0,0,0,.31.72,1.25,1.25,0,0,0,.84.28,1.52,1.52,0,0,0,1.18-.51,1.77,1.77,0,0,0,.47-1.26Z"/><path class="cls-10" d="M222.35,98.63h0v3.62h-1V93.49h1v1.06h0a2.26,2.26,0,0,1,2.07-1.2,2.18,2.18,0,0,1,1.81.81,3.31,3.31,0,0,1,.65,2.16,3.71,3.71,0,0,1-.73,2.41,2.44,2.44,0,0,1-2,.9A2,2,0,0,1,222.35,98.63Zm0-2.42V97a1.81,1.81,0,0,0,.48,1.27,1.72,1.72,0,0,0,2.59-.15,3.09,3.09,0,0,0,.5-1.86,2.41,2.41,0,0,0-.46-1.57,1.54,1.54,0,0,0-1.26-.57,1.73,1.73,0,0,0-1.35.58A2.2,2.2,0,0,0,222.33,96.21Z"/><path class="cls-10" d="M233.33,99.49H232l-2.65-2.88h0v2.88h-1v-6h1v2.75h0l2.52-2.75h1.26l-2.78,2.9Z"/><path class="cls-10" d="M239.06,96.73h-4.23a2.23,2.23,0,0,0,.53,1.55,1.89,1.89,0,0,0,1.42.55,3,3,0,0,0,1.87-.67v.9a3.53,3.53,0,0,1-2.1.57,2.53,2.53,0,0,1-2-.81,3.34,3.34,0,0,1-.73-2.3,3.29,3.29,0,0,1,.79-2.29,2.58,2.58,0,0,1,2-.88,2.28,2.28,0,0,1,1.82.76,3.19,3.19,0,0,1,.64,2.12Zm-1-.81a2,2,0,0,0-.4-1.3,1.4,1.4,0,0,0-1.1-.46,1.54,1.54,0,0,0-1.16.49,2.21,2.21,0,0,0-.58,1.27Z"/><path class="cls-10" d="M241.43,98.63h0v3.62h-1V93.49h1v1.06h0a2.26,2.26,0,0,1,2.07-1.2,2.18,2.18,0,0,1,1.81.81,3.31,3.31,0,0,1,.65,2.16,3.71,3.71,0,0,1-.73,2.41,2.45,2.45,0,0,1-2,.9A2,2,0,0,1,241.43,98.63Zm0-2.42V97a1.82,1.82,0,0,0,.49,1.27,1.72,1.72,0,0,0,2.59-.15,3.09,3.09,0,0,0,.5-1.86,2.47,2.47,0,0,0-.46-1.57,1.54,1.54,0,0,0-1.26-.57,1.73,1.73,0,0,0-1.35.58A2.16,2.16,0,0,0,241.4,96.21Z"/><path class="cls-10" d="M255.87,101.68h-.81V99.49h-4.47v2.19h-.82v-3h.54a9.09,9.09,0,0,0,1.56-5.19H255v5.19h.89Zm-1.85-3V94.31h-1.33a9.32,9.32,0,0,1-1.36,4.37Z"/><path class="cls-10" d="M259.64,99.63a2.79,2.79,0,0,1-2.13-.84,3.15,3.15,0,0,1-.79-2.23,3.26,3.26,0,0,1,.83-2.36,3,3,0,0,1,2.23-.85,2.69,2.69,0,0,1,2.09.83,3.75,3.75,0,0,1-.05,4.59A2.85,2.85,0,0,1,259.64,99.63Zm.07-5.47a1.84,1.84,0,0,0-1.47.63,2.59,2.59,0,0,0-.53,1.74,2.46,2.46,0,0,0,.54,1.68,1.85,1.85,0,0,0,1.46.62,1.76,1.76,0,0,0,1.43-.61,2.58,2.58,0,0,0,.5-1.72,2.62,2.62,0,0,0-.5-1.73A1.73,1.73,0,0,0,259.71,94.16Z"/><path class="cls-10" d="M268.18,99.22a3.1,3.1,0,0,1-1.64.41,2.68,2.68,0,0,1-2.07-.83,3,3,0,0,1-.79-2.17,3.32,3.32,0,0,1,.85-2.38,3,3,0,0,1,2.27-.9,3.06,3.06,0,0,1,1.39.3v1a2.45,2.45,0,0,0-1.43-.47,2,2,0,0,0-1.51.66,2.51,2.51,0,0,0-.58,1.73,2.4,2.4,0,0,0,.55,1.67,1.92,1.92,0,0,0,1.48.61,2.4,2.4,0,0,0,1.48-.53Z"/><path class="cls-10" d="M273.33,94.31h-1.8v5.18h-1V94.31h-1.81v-.82h4.57Z"/><path class="cls-10" d="M279.19,93.49l-2.76,7c-.5,1.25-1.19,1.87-2.08,1.87a2.12,2.12,0,0,1-.62-.08v-.86a1.73,1.73,0,0,0,.56.11,1.17,1.17,0,0,0,1.09-.87l.48-1.14-2.34-6h1.07l1.62,4.62c0,.06.06.21.12.46h0c0-.1.06-.24.12-.45l1.7-4.63Z"/><path class="cls-10" d="M285.13,99.49h-1V94.31h-3.06v5.18h-1v-6h5Z"/><path class="cls-10" d="M291.29,99.49h-1v-.93h0a2,2,0,0,1-1.85,1.07,2,2,0,0,1-1.4-.47,1.65,1.65,0,0,1-.51-1.26c0-1.12.66-1.77,2-2l1.79-.25q0-1.53-1.23-1.53a3,3,0,0,0-2,.74v-1a3.68,3.68,0,0,1,2-.57c1.41,0,2.11.75,2.11,2.24Zm-1-3-1.44.2a2.3,2.3,0,0,0-1,.33,1,1,0,0,0-.34.84.92.92,0,0,0,.31.72,1.25,1.25,0,0,0,.84.28,1.54,1.54,0,0,0,1.18-.51,1.76,1.76,0,0,0,.46-1.26Z"/><path class="cls-11" d="M397,34.21h-1.89V27.46h-3.48v6.75h-1.89v-8.4H397Z"/><path class="cls-11" d="M404.42,34.21h-1.87V29.52h-1a9.69,9.69,0,0,1-1,3.74,2,2,0,0,1-1.8,1,2.36,2.36,0,0,1-.72-.11V32.91a1.08,1.08,0,0,0,.44.09c.36,0,.67-.34.91-1a19.44,19.44,0,0,0,.66-3.76h4.36Z"/><path class="cls-11" d="M411,34.21h-1.76v-.86h0a2,2,0,0,1-1.79,1,1.86,1.86,0,0,1-1.37-.5,1.79,1.79,0,0,1-.5-1.32q0-1.74,2.07-2l1.63-.22c0-.66-.36-1-1.07-1a3.65,3.65,0,0,0-2,.63V28.57a4.67,4.67,0,0,1,1.06-.35,5.63,5.63,0,0,1,1.22-.15A2.27,2.27,0,0,1,411,30.63Zm-1.74-2.43v-.41l-1.09.14c-.61.08-.91.35-.91.82a.67.67,0,0,0,.22.51.84.84,0,0,0,.6.21,1.1,1.1,0,0,0,.85-.36A1.31,1.31,0,0,0,409.23,31.78Z"/><path class="cls-11" d="M416.92,29.62h-1.61v4.59h-1.86V29.62h-1.62V28.21h5.09Z"/><path class="cls-11" d="M422.5,34.28V37h-1.73V34.28h-.28a3.12,3.12,0,0,1-2.31-.83,3,3,0,0,1-.85-2.21,3,3,0,0,1,.85-2.26,3.13,3.13,0,0,1,2.32-.84h.27V25.62h1.73v2.52h.27a3.19,3.19,0,0,1,2.33.83,3,3,0,0,1,.85,2.27,2.93,2.93,0,0,1-.85,2.21,3.12,3.12,0,0,1-2.31.83ZM420.77,33V29.45h-.09a1.32,1.32,0,0,0-1.07.47,2,2,0,0,0-.39,1.32,1.9,1.9,0,0,0,.39,1.26,1.35,1.35,0,0,0,1.09.48Zm1.73-3.53V33h.08a1.33,1.33,0,0,0,1.09-.48,1.85,1.85,0,0,0,.4-1.26,2,2,0,0,0-.39-1.32,1.34,1.34,0,0,0-1.08-.47Z"/><path class="cls-11" d="M430,34.36a3.23,3.23,0,0,1-2.36-.84,3,3,0,0,1-.86-2.28,3.05,3.05,0,0,1,.89-2.33,3.37,3.37,0,0,1,2.41-.84,3.19,3.19,0,0,1,2.34.84,3,3,0,0,1,.85,2.22,3.15,3.15,0,0,1-.88,2.36A3.23,3.23,0,0,1,430,34.36Zm0-4.88a1.21,1.21,0,0,0-1,.46,2,2,0,0,0-.36,1.27c0,1.16.46,1.73,1.39,1.73s1.33-.59,1.33-1.77S430.93,29.48,430,29.48Z"/><path class="cls-11" d="M436.34,33.52h0V37h-1.85V28.21h1.85v.91h0a2.36,2.36,0,0,1,3.73-.25A3.42,3.42,0,0,1,440.7,31a3.65,3.65,0,0,1-.74,2.41,2.4,2.4,0,0,1-2,.91A1.87,1.87,0,0,1,436.34,33.52Zm-.06-2.47v.49a1.52,1.52,0,0,0,.33,1,1.08,1.08,0,0,0,.86.39,1.14,1.14,0,0,0,1-.49,2.37,2.37,0,0,0,.34-1.38q0-1.59-1.23-1.59a1.16,1.16,0,0,0-.93.44A1.68,1.68,0,0,0,436.28,31.05Z"/><path class="cls-11" d="M449.67,34.21h-1.73V29.54a9.51,9.51,0,0,1-.31,1.11l-1.17,3.56h-1.63l-1.16-3.56a7.31,7.31,0,0,1-.31-1.1v4.66H441.9v-6h2.44l1.14,3.42a7.21,7.21,0,0,1,.29,1.07,9.66,9.66,0,0,1,.3-1.05l1.12-3.44h2.48Z"/><path class="cls-11" d="M456.22,34.21h-1.75v-.86h0a2,2,0,0,1-1.78,1,1.88,1.88,0,0,1-1.38-.5,1.79,1.79,0,0,1-.5-1.32q0-1.74,2.07-2l1.63-.22c0-.66-.36-1-1.07-1a3.7,3.7,0,0,0-2,.63V28.57a4.67,4.67,0,0,1,1.06-.35,5.63,5.63,0,0,1,1.22-.15,2.27,2.27,0,0,1,2.57,2.56Zm-1.74-2.43v-.41l-1.09.14c-.6.08-.9.35-.9.82a.64.64,0,0,0,.22.51.8.8,0,0,0,.59.21,1.1,1.1,0,0,0,.85-.36A1.31,1.31,0,0,0,454.48,31.78Z"/><path class="cls-11" d="M384.89,42.61l-2.43,6.48c-.59,1.56-1.47,2.34-2.65,2.34a3.46,3.46,0,0,1-1.11-.15V49.8a1.51,1.51,0,0,0,.8.22,1,1,0,0,0,1-.67l.32-.75-2.44-6h2.05l1.12,3.65a5,5,0,0,1,.16.81h0a5.22,5.22,0,0,1,.19-.79l1.13-3.67Z"/><path class="cls-11" d="M391.49,50.8H390V48.61h-4V50.8h-1.49V47.31H385a8.93,8.93,0,0,0,1.34-4.7h4.22v4.7h.95Zm-2.8-3.49v-3.4h-.92a7.93,7.93,0,0,1-1,3.4Z"/><path class="cls-11" d="M395.42,48.76a3.23,3.23,0,0,1-2.36-.84,3.47,3.47,0,0,1,0-4.61,3.38,3.38,0,0,1,2.41-.84,3.16,3.16,0,0,1,2.34.84,3,3,0,0,1,.85,2.22,3.18,3.18,0,0,1-.87,2.36A3.27,3.27,0,0,1,395.42,48.76Zm0-4.88a1.23,1.23,0,0,0-1,.46,1.92,1.92,0,0,0-.37,1.27c0,1.16.47,1.73,1.4,1.73s1.33-.59,1.33-1.77S396.36,43.88,395.46,43.88Z"/><path class="cls-11" d="M404.44,48.4a3.69,3.69,0,0,1-1.81.36,3.06,3.06,0,0,1-2.24-.84,2.89,2.89,0,0,1-.85-2.16,3.19,3.19,0,0,1,.91-2.41,3.4,3.4,0,0,1,2.46-.88,3.1,3.1,0,0,1,1.53.28v1.57a2.12,2.12,0,0,0-1.29-.44,1.61,1.61,0,0,0-1.73,1.76,1.75,1.75,0,0,0,.44,1.25,1.66,1.66,0,0,0,1.23.45,2.42,2.42,0,0,0,1.35-.43Z"/><path class="cls-11" d="M410.14,44h-1.6v4.59h-1.87V44h-1.61V42.61h5.08Z"/><path class="cls-11" d="M413.8,48.76a3.23,3.23,0,0,1-2.36-.84,3.47,3.47,0,0,1,0-4.61,3.38,3.38,0,0,1,2.41-.84,3.16,3.16,0,0,1,2.34.84,3,3,0,0,1,.85,2.22,3.18,3.18,0,0,1-.87,2.36A3.27,3.27,0,0,1,413.8,48.76Zm.05-4.88a1.24,1.24,0,0,0-1,.46,1.92,1.92,0,0,0-.37,1.27c0,1.16.47,1.73,1.4,1.73s1.33-.59,1.33-1.77S414.74,43.88,413.85,43.88Z"/><path class="cls-11" d="M418.28,48.61v-6h3.35c1.43,0,2.14.49,2.14,1.47a1.21,1.21,0,0,1-.34.88,1.55,1.55,0,0,1-.87.47,1.76,1.76,0,0,1,1,.46,1.26,1.26,0,0,1,.38.92,1.65,1.65,0,0,1-.58,1.31,2.39,2.39,0,0,1-1.6.49Zm1.85-4.87V45H421q.84,0,.84-.66c0-.4-.27-.6-.8-.6Zm0,2.35v1.37h1.06c.59,0,.89-.24.89-.72s-.3-.65-.91-.65Z"/><path class="cls-11" d="M430.62,46.14h-3.91c.06.87.61,1.31,1.64,1.31a3.24,3.24,0,0,0,1.74-.47v1.33a4.5,4.5,0,0,1-2.16.45,2.81,2.81,0,0,1-3.06-3,3.2,3.2,0,0,1,.87-2.37,2.9,2.9,0,0,1,2.13-.87,2.62,2.62,0,0,1,2,.78,3,3,0,0,1,.72,2.11ZM428.9,45c0-.86-.34-1.29-1-1.29a1,1,0,0,0-.77.37,1.63,1.63,0,0,0-.39.92Z"/><path class="cls-11" d="M433.6,47.92h0v3.45h-1.85V42.61h1.85v.91h0a2.36,2.36,0,0,1,3.73-.25,3.42,3.42,0,0,1,.63,2.17,3.65,3.65,0,0,1-.74,2.41,2.4,2.4,0,0,1-2,.91A1.87,1.87,0,0,1,433.6,47.92Zm-.06-2.46v.48a1.52,1.52,0,0,0,.33,1,1.08,1.08,0,0,0,.86.39,1.14,1.14,0,0,0,1-.49,2.37,2.37,0,0,0,.34-1.38q0-1.59-1.23-1.59a1.15,1.15,0,0,0-.92.44A1.7,1.7,0,0,0,433.54,45.46Z"/><path class="cls-11" d="M444.55,46.14h-3.91c.06.87.61,1.31,1.65,1.31A3.24,3.24,0,0,0,444,47v1.33a4.56,4.56,0,0,1-2.16.45,3,3,0,0,1-2.26-.81,3,3,0,0,1-.8-2.24,3.24,3.24,0,0,1,.86-2.37,2.9,2.9,0,0,1,2.14-.87,2.63,2.63,0,0,1,2,.78,3,3,0,0,1,.71,2.11ZM442.84,45q0-1.29-1-1.29a1,1,0,0,0-.77.37,1.78,1.78,0,0,0-.39.92Z"/><path class="cls-11" d="M451.44,48.61h-1.86v-2.5h-2.07v2.5h-1.85v-6h1.85v2.22h2.07V42.61h1.86Z"/><path class="cls-11" d="M459,48.61h-1.68V44.69a7.59,7.59,0,0,1-.49.85l-2,3.07H453v-6h1.69v3.81a6.47,6.47,0,0,1,.41-.74l2-3.07H459Z"/><path class="cls-11" d="M466.49,48.61h-1.68V44.69a7.59,7.59,0,0,1-.49.85l-2,3.07h-1.75v-6h1.69v3.81a6.47,6.47,0,0,1,.41-.74l2-3.07h1.82Zm-.43-8.86a2.13,2.13,0,0,1-.8,1.48,3,3,0,0,1-3.48,0,2,2,0,0,1-.75-1.48h1.35a1,1,0,0,0,.37.74,1.19,1.19,0,0,0,.8.29,1.17,1.17,0,0,0,.79-.29,1.08,1.08,0,0,0,.37-.74Z"/><path class="cls-11" d="M396,63h-1.87V58c0-.55,0-1.15.07-1.8h0a9,9,0,0,1-.27,1.11l-2,5.71h-1.54l-2-5.65c-.05-.15-.14-.54-.26-1.17h-.05c.05.82.07,1.55.07,2.18V63h-1.7v-8.4h2.77l1.72,5a7.48,7.48,0,0,1,.29,1.2h0c.1-.46.22-.87.33-1.21l1.72-5H396Z"/><path class="cls-11" d="M402.72,63H401v-.86h0a2,2,0,0,1-1.79,1,1.86,1.86,0,0,1-1.37-.5,1.76,1.76,0,0,1-.51-1.32q0-1.74,2.07-2l1.63-.22c0-.66-.35-1-1.06-1a3.65,3.65,0,0,0-2,.63V57.37a4.57,4.57,0,0,1,1.05-.35,5.71,5.71,0,0,1,1.23-.15,2.26,2.26,0,0,1,2.56,2.56ZM401,60.58v-.41l-1.09.14c-.6.08-.9.35-.9.82a.64.64,0,0,0,.22.51.82.82,0,0,0,.59.21,1.1,1.1,0,0,0,.85-.36A1.31,1.31,0,0,0,401,60.58Z"/><path class="cls-11" d="M410.15,63h-1.68V59.09a7.59,7.59,0,0,1-.49.85l-2,3.07h-1.75V57h1.69v3.81a5.24,5.24,0,0,1,.41-.74l2-3.07h1.82Zm-.43-8.86a2.13,2.13,0,0,1-.8,1.48,3,3,0,0,1-3.48,0,2,2,0,0,1-.75-1.48H406a1,1,0,0,0,.37.74,1.23,1.23,0,0,0,1.59,0,1.08,1.08,0,0,0,.37-.74Z"/><path class="cls-11" d="M417.7,63h-2.22l-1.89-2.93h0V63h-1.85V57h1.85v2.82h0L415.44,57h2.19l-2.21,2.86Z"/><path class="cls-11" d="M420.3,62.32h0v3.45h-1.86V57h1.86v.91h0a2.18,2.18,0,0,1,1.93-1.05,2.15,2.15,0,0,1,1.8.8,3.4,3.4,0,0,1,.64,2.17,3.66,3.66,0,0,1-.75,2.41,2.4,2.4,0,0,1-2,.91A1.87,1.87,0,0,1,420.3,62.32Zm-.05-2.47v.48a1.53,1.53,0,0,0,.33,1,1.05,1.05,0,0,0,.86.39,1.12,1.12,0,0,0,1-.49,2.36,2.36,0,0,0,.35-1.38q0-1.59-1.23-1.59a1.18,1.18,0,0,0-.93.43A1.73,1.73,0,0,0,420.25,59.85Z"/><path class="cls-11" d="M428.73,63.16a3.23,3.23,0,0,1-2.36-.84,3,3,0,0,1-.86-2.28,3.05,3.05,0,0,1,.89-2.33,3.37,3.37,0,0,1,2.41-.84,3.19,3.19,0,0,1,2.34.84,3,3,0,0,1,.85,2.22,3.18,3.18,0,0,1-.87,2.36A3.27,3.27,0,0,1,428.73,63.16Zm0-4.88a1.22,1.22,0,0,0-1,.46,2,2,0,0,0-.36,1.27c0,1.16.46,1.73,1.39,1.73s1.33-.59,1.33-1.77S429.67,58.28,428.77,58.28Z"/><path class="cls-11" d="M437.75,62.8a3.69,3.69,0,0,1-1.81.36,3.06,3.06,0,0,1-2.24-.84,2.9,2.9,0,0,1-.86-2.16,3.19,3.19,0,0,1,.92-2.41,3.38,3.38,0,0,1,2.45-.88,3.14,3.14,0,0,1,1.54.28v1.57a2.13,2.13,0,0,0-1.3-.44,1.71,1.71,0,0,0-1.26.47,1.74,1.74,0,0,0-.46,1.29,1.71,1.71,0,0,0,.44,1.25,1.66,1.66,0,0,0,1.23.45,2.42,2.42,0,0,0,1.35-.43Z"/><path class="cls-11" d="M441.82,63.16a3.24,3.24,0,0,1-2.36-.84A3.05,3.05,0,0,1,438.6,60a3,3,0,0,1,.9-2.33,3.34,3.34,0,0,1,2.4-.84,3.2,3.2,0,0,1,2.35.84,3,3,0,0,1,.85,2.22,3.18,3.18,0,0,1-.88,2.36A3.24,3.24,0,0,1,441.82,63.16Zm.05-4.88a1.21,1.21,0,0,0-1,.46,2,2,0,0,0-.36,1.27c0,1.16.46,1.73,1.39,1.73s1.33-.59,1.33-1.77S442.76,58.28,441.87,58.28Z"/><path class="cls-11" d="M451.08,63.08V65.8h-1.72V63.08h-.29a3.12,3.12,0,0,1-2.31-.83,3,3,0,0,1-.84-2.21,3,3,0,0,1,.84-2.26,3.13,3.13,0,0,1,2.32-.84h.28V54.42h1.72v2.52h.27a3.23,3.23,0,0,1,2.34.83,3.06,3.06,0,0,1,.84,2.27,3,3,0,0,1-.84,2.21,3.16,3.16,0,0,1-2.32.83Zm-1.72-1.3V58.25h-.1a1.33,1.33,0,0,0-1.07.47A2,2,0,0,0,447.8,60a1.9,1.9,0,0,0,.39,1.26,1.35,1.35,0,0,0,1.1.48Zm1.72-3.53v3.53h.08a1.32,1.32,0,0,0,1.09-.48,1.85,1.85,0,0,0,.4-1.26,2,2,0,0,0-.39-1.32,1.34,1.34,0,0,0-1.08-.47Z"/><path class="cls-11" d="M460,58.42h-1.61V63h-1.86V58.42h-1.62V57H460Z"/><path class="cls-12" d="M391.4,118.23h-2.06l-.6-1.87h-3l-.59,1.87h-2.05l3.06-8.4h2.25Zm-3.09-3.32-.9-2.82a3.12,3.12,0,0,1-.14-.76h0a3.06,3.06,0,0,1-.15.73l-.91,2.85Z"/><path class="cls-12" d="M394.34,115.34v2.89h-1.89v-8.4h3c2.11,0,3.17.89,3.17,2.68a2.58,2.58,0,0,1-.91,2,3.62,3.62,0,0,1-2.43.78Zm0-4.06v2.62h.75c1,0,1.51-.44,1.51-1.32s-.5-1.3-1.51-1.3Z"/><path class="cls-12" d="M401.72,118.23h-1.9v-8.4h1.9Z"/><path class="cls-12" d="M416.51,118.23h-1.87v-5c0-.55,0-1.15.07-1.8h0a9,9,0,0,1-.27,1.11l-2,5.71h-1.54l-2-5.65c-.05-.15-.14-.54-.26-1.17h-.05c.05.82.07,1.55.07,2.18v4.64h-1.7v-8.4h2.77l1.71,5a6.58,6.58,0,0,1,.3,1.2h0c.1-.46.22-.87.33-1.21l1.72-5h2.7Z"/><path class="cls-12" d="M419.18,111.28a1.06,1.06,0,0,1-.77-.28.88.88,0,0,1-.3-.68.87.87,0,0,1,.3-.68,1.14,1.14,0,0,1,.77-.26,1.16,1.16,0,0,1,.77.26.89.89,0,0,1,.29.68.91.91,0,0,1-.29.69A1.11,1.11,0,0,1,419.18,111.28Zm.91,7h-1.85v-6h1.85Z"/><path class="cls-12" d="M426.2,118a3.72,3.72,0,0,1-1.81.36,3,3,0,0,1-2.24-.84,2.9,2.9,0,0,1-.86-2.16,3.19,3.19,0,0,1,.92-2.41,3.38,3.38,0,0,1,2.45-.88,3.14,3.14,0,0,1,1.54.28v1.57a2.13,2.13,0,0,0-1.3-.44,1.71,1.71,0,0,0-1.26.47,1.75,1.75,0,0,0-.47,1.29,1.71,1.71,0,0,0,.45,1.25,1.64,1.64,0,0,0,1.22.45,2.47,2.47,0,0,0,1.36-.43Z"/><path class="cls-12" d="M431.32,113.9a1.61,1.61,0,0,0-.78-.18,1.14,1.14,0,0,0-.94.44,1.93,1.93,0,0,0-.34,1.21v2.86h-1.85v-6h1.85v1.12h0a1.6,1.6,0,0,1,1.59-1.22,1.12,1.12,0,0,1,.45.07Z"/><path class="cls-12" d="M435,118.38a3.23,3.23,0,0,1-2.36-.84,3.47,3.47,0,0,1,0-4.61,3.37,3.37,0,0,1,2.41-.84,3.16,3.16,0,0,1,2.34.84,3,3,0,0,1,.85,2.22,3.18,3.18,0,0,1-.87,2.36A3.27,3.27,0,0,1,435,118.38Zm0-4.88a1.24,1.24,0,0,0-1,.46,2,2,0,0,0-.36,1.27c0,1.15.47,1.73,1.4,1.73s1.33-.59,1.33-1.77S435.94,113.5,435,113.5Z"/><path class="cls-12" d="M439.08,118.07v-1.5a3.82,3.82,0,0,0,.91.41,3,3,0,0,0,.86.14,1.84,1.84,0,0,0,.78-.14.42.42,0,0,0,.28-.41.37.37,0,0,0-.13-.29.88.88,0,0,0-.33-.2,2.52,2.52,0,0,0-.44-.16c-.16,0-.32-.1-.46-.16a4.68,4.68,0,0,1-.63-.29,1.54,1.54,0,0,1-.46-.36,1.44,1.44,0,0,1-.28-.48,1.7,1.7,0,0,1-.1-.63,1.61,1.61,0,0,1,.22-.87,1.88,1.88,0,0,1,.59-.6,3,3,0,0,1,.83-.34,4.62,4.62,0,0,1,1-.1,5.49,5.49,0,0,1,.8.06,5.3,5.3,0,0,1,.81.18v1.43a2.76,2.76,0,0,0-.75-.31,3.11,3.11,0,0,0-.79-.1,1.87,1.87,0,0,0-.34,0,1,1,0,0,0-.28.09.54.54,0,0,0-.2.16.4.4,0,0,0,0,.5.79.79,0,0,0,.27.2l.38.16.41.13a6.16,6.16,0,0,1,.67.28,2.55,2.55,0,0,1,.51.36,1.29,1.29,0,0,1,.33.48,1.66,1.66,0,0,1,.12.66,1.76,1.76,0,0,1-.23.91,1.81,1.81,0,0,1-.62.61,2.75,2.75,0,0,1-.88.35,5.37,5.37,0,0,1-2.88-.2Z"/><path class="cls-12" d="M447.61,118.38a3.24,3.24,0,0,1-2.36-.84,3,3,0,0,1-.85-2.28,3,3,0,0,1,.89-2.33,3.34,3.34,0,0,1,2.4-.84,3.2,3.2,0,0,1,2.35.84,3,3,0,0,1,.85,2.22,3.15,3.15,0,0,1-.88,2.36A3.24,3.24,0,0,1,447.61,118.38Zm.05-4.88a1.21,1.21,0,0,0-1,.46,2,2,0,0,0-.36,1.27c0,1.15.46,1.73,1.39,1.73s1.33-.59,1.33-1.77S448.55,113.5,447.66,113.5Z"/><path class="cls-12" d="M455.82,110.77a1.76,1.76,0,0,0-.68-.14c-.6,0-.89.32-.89,1v.64h1.37v1.37h-1.37v4.63H452.4V113.6h-1v-1.37h1v-.74a2.12,2.12,0,0,1,.67-1.65,2.52,2.52,0,0,1,1.81-.63,3.11,3.11,0,0,1,.94.12Z"/><path class="cls-12" d="M460.36,118.16a2.62,2.62,0,0,1-1.23.22,1.76,1.76,0,0,1-2-2V113.6h-1v-1.37h1v-1.29l1.84-.53v1.82h1.35v1.37H459V116c0,.63.25.94.75.94a1.27,1.27,0,0,0,.6-.17Z"/><path class="cls-12" d="M412.48,132.07a6.08,6.08,0,0,1-3.06.71,4.4,4.4,0,0,1-3.19-1.12,4.08,4.08,0,0,1-1.17-3.09,4.29,4.29,0,0,1,1.28-3.23,4.65,4.65,0,0,1,3.39-1.25,6.8,6.8,0,0,1,2.36.37v1.77a4.73,4.73,0,0,0-2.38-.56,2.58,2.58,0,0,0-1.92.77,2.82,2.82,0,0,0-.74,2,2.78,2.78,0,0,0,.67,2,2.31,2.31,0,0,0,1.79.71,2.52,2.52,0,0,0,1.08-.19v-1.64h-1.68v-1.51h3.57Z"/><path class="cls-12" d="M417.85,128.3a1.61,1.61,0,0,0-.78-.18,1.12,1.12,0,0,0-.94.44,1.93,1.93,0,0,0-.34,1.21v2.86h-1.85v-6h1.85v1.12h0a1.59,1.59,0,0,1,1.58-1.22,1.14,1.14,0,0,1,.46.07Z"/><path class="cls-12" d="M423.7,132.63H422v-.86h0a2,2,0,0,1-1.79,1,1.86,1.86,0,0,1-1.37-.5,1.75,1.75,0,0,1-.5-1.32c0-1.16.69-1.83,2.06-2l1.63-.22c0-.66-.35-1-1.06-1a3.65,3.65,0,0,0-2,.63V127a4.67,4.67,0,0,1,1.06-.35,5.56,5.56,0,0,1,1.22-.15,2.26,2.26,0,0,1,2.56,2.56ZM422,130.2v-.41l-1.09.14c-.6.08-.9.35-.9.82a.64.64,0,0,0,.22.51.84.84,0,0,0,.6.21,1.07,1.07,0,0,0,.84-.36A1.31,1.31,0,0,0,422,130.2Z"/><path class="cls-12" d="M427,131.94h0v3.45h-1.85v-8.76H427v.91h0a2.18,2.18,0,0,1,1.93-1.05,2.14,2.14,0,0,1,1.8.8,3.34,3.34,0,0,1,.64,2.17,3.71,3.71,0,0,1-.74,2.41,2.41,2.41,0,0,1-2,.91A1.88,1.88,0,0,1,427,131.94Zm-.05-2.47V130a1.52,1.52,0,0,0,.33,1,1.06,1.06,0,0,0,.86.39,1.12,1.12,0,0,0,1-.49,2.36,2.36,0,0,0,.35-1.38q0-1.59-1.23-1.59a1.18,1.18,0,0,0-.93.43A1.73,1.73,0,0,0,427,129.47Z"/><path class="cls-12" d="M438.37,132.63h-1.85v-3.41q0-1.32-1-1.32a1,1,0,0,0-.79.37,1.4,1.4,0,0,0-.31.94v3.42h-1.85v-8.88h1.85v3.77h0a2.11,2.11,0,0,1,1.85-1q2,0,2,2.46Z"/><path class="cls-10" d="M192.38,9.57h-1V2.08H187V9.57h-1V1.17h6.38Z"/><path class="cls-10" d="M196.84,9.71a2.77,2.77,0,0,1-2.12-.84,3.11,3.11,0,0,1-.8-2.23,3.25,3.25,0,0,1,.83-2.36A3,3,0,0,1,197,3.43a2.68,2.68,0,0,1,2.1.83,3.27,3.27,0,0,1,.75,2.29,3.25,3.25,0,0,1-.81,2.3A2.87,2.87,0,0,1,196.84,9.71Zm.07-5.47a1.81,1.81,0,0,0-1.46.63,2.58,2.58,0,0,0-.54,1.73,2.47,2.47,0,0,0,.54,1.69,1.85,1.85,0,0,0,1.46.61,1.75,1.75,0,0,0,1.43-.6,2.59,2.59,0,0,0,.5-1.72,2.61,2.61,0,0,0-.5-1.73A1.73,1.73,0,0,0,196.91,4.24Z"/><path class="cls-10" d="M205.64,9.57h-.95V4.38h-1.4a12.33,12.33,0,0,1-.82,4.09,1.76,1.76,0,0,1-1.57,1.18,1.52,1.52,0,0,1-.51-.08V8.74a.93.93,0,0,0,.44.11c.86,0,1.42-1.76,1.66-5.28h3.15Z"/><path class="cls-10" d="M212.27,3.57l-2.76,7q-.73,1.86-2.07,1.86a2.28,2.28,0,0,1-.63-.07v-.86a1.76,1.76,0,0,0,.57.1,1.19,1.19,0,0,0,1.09-.87L209,9.56l-2.35-6h1.07l1.62,4.62.13.45h0c0-.09.06-.24.12-.44l1.7-4.63Z"/><path class="cls-10" d="M218,9.57h-1V7.16a4.12,4.12,0,0,1-1.94.57c-1.35,0-2-.71-2-2.13v-2h1v2q0,1.32,1.14,1.32a4.08,4.08,0,0,0,1.86-.51V3.57h1Z"/><path class="cls-10" d="M224.71,6.81h-4.24A2.3,2.3,0,0,0,221,8.36a1.88,1.88,0,0,0,1.42.54,2.89,2.89,0,0,0,1.86-.67v.91a3.47,3.47,0,0,1-2.09.57,2.53,2.53,0,0,1-2-.82,3.35,3.35,0,0,1-.72-2.3,3.28,3.28,0,0,1,.79-2.28,2.54,2.54,0,0,1,2-.88,2.22,2.22,0,0,1,1.82.76,3.18,3.18,0,0,1,.65,2.12Zm-1-.81a2,2,0,0,0-.41-1.3,1.35,1.35,0,0,0-1.09-.46,1.57,1.57,0,0,0-1.16.48A2.25,2.25,0,0,0,220.48,6Z"/><path class="cls-10" d="M231.05,9.57h-1V6.85H227V9.57h-1v-6h1V6h3.06V3.57h1Z"/><path class="cls-10" d="M237.92,9.57h-.86V4.78c-.09.17-.22.41-.4.71l-2.77,4.08h-1v-6h.88V8.3a4.08,4.08,0,0,1,.3-.58l2.85-4.15h1Z"/><path class="cls-10" d="M244.6,6.81h-4.24a2.3,2.3,0,0,0,.54,1.55,1.87,1.87,0,0,0,1.42.54,2.93,2.93,0,0,0,1.86-.67v.91a3.5,3.5,0,0,1-2.09.57,2.53,2.53,0,0,1-2-.82,3.36,3.36,0,0,1-.73-2.3,3.29,3.29,0,0,1,.8-2.28,2.53,2.53,0,0,1,2-.88,2.24,2.24,0,0,1,1.82.76,3.18,3.18,0,0,1,.65,2.12Zm-1-.81a2,2,0,0,0-.4-1.3,1.36,1.36,0,0,0-1.1-.46,1.55,1.55,0,0,0-1.15.48A2.25,2.25,0,0,0,240.37,6Z"/><path class="cls-10" d="M255.63,9.57h-.95V4.62l-.4,1.11-1.5,3.84h-.86l-1.55-3.84c-.08-.21-.22-.58-.4-1.11v5h-.83v-6h1.23L252,7.48c.11.29.26.68.43,1.19l.43-1.16,1.54-3.94h1.28Z"/><path class="cls-10" d="M261.77,9.57h-1V8.63h0a2,2,0,0,1-1.85,1.08,2,2,0,0,1-1.4-.47A1.65,1.65,0,0,1,257,8c0-1.13.66-1.78,2-2l1.8-.25c0-1-.41-1.53-1.24-1.53a2.9,2.9,0,0,0-1.95.74V4a3.73,3.73,0,0,1,2-.56c1.41,0,2.12.75,2.12,2.24Zm-1-3-1.45.2a2.65,2.65,0,0,0-1,.33,1,1,0,0,0-.34.85.9.9,0,0,0,.32.71,1.18,1.18,0,0,0,.83.28,1.55,1.55,0,0,0,1.18-.5,1.8,1.8,0,0,0,.47-1.27Z"/><path class="cls-10" d="M264.47,8.7h0v3.63h-1V3.57h1V4.62h0a2.27,2.27,0,0,1,2.07-1.19,2.2,2.2,0,0,1,1.81.8A3.31,3.31,0,0,1,269,6.39a3.73,3.73,0,0,1-.73,2.42,2.45,2.45,0,0,1-2,.9A2,2,0,0,1,264.47,8.7Zm0-2.42v.84a1.78,1.78,0,0,0,.49,1.26,1.72,1.72,0,0,0,2.59-.15,3,3,0,0,0,.5-1.85,2.47,2.47,0,0,0-.46-1.57,1.54,1.54,0,0,0-1.26-.57,1.7,1.7,0,0,0-1.35.58A2.15,2.15,0,0,0,264.44,6.28Z"/><path class="cls-10" d="M275.42,9.57h-1.34l-2.65-2.88h0V9.57h-1v-6h1V6.32h0L274,3.57h1.26l-2.79,2.89Z"/><path class="cls-10" d="M281.13,6.81H276.9a2.21,2.21,0,0,0,.54,1.55,1.85,1.85,0,0,0,1.41.54,2.94,2.94,0,0,0,1.87-.67v.91a3.52,3.52,0,0,1-2.09.57,2.52,2.52,0,0,1-2-.82,3.31,3.31,0,0,1-.73-2.3,3.29,3.29,0,0,1,.8-2.28,2.51,2.51,0,0,1,2-.88,2.25,2.25,0,0,1,1.82.76,3.18,3.18,0,0,1,.64,2.12Zm-1-.81a2,2,0,0,0-.4-1.3,1.37,1.37,0,0,0-1.1-.46,1.55,1.55,0,0,0-1.15.48A2.19,2.19,0,0,0,276.91,6Z"/><path class="cls-10" d="M283.47,8.7h0v3.63h-1V3.57h1V4.62h0a2.3,2.3,0,0,1,2.08-1.19,2.21,2.21,0,0,1,1.81.8A3.37,3.37,0,0,1,288,6.39a3.73,3.73,0,0,1-.73,2.42,2.46,2.46,0,0,1-2,.9A2,2,0,0,1,283.47,8.7Zm0-2.42v.84a1.77,1.77,0,0,0,.48,1.26,1.73,1.73,0,0,0,2.6-.15,3,3,0,0,0,.5-1.85,2.41,2.41,0,0,0-.47-1.57,1.52,1.52,0,0,0-1.25-.57,1.7,1.7,0,0,0-1.35.58A2.15,2.15,0,0,0,283.45,6.28Z"/><path class="cls-10" d="M293.74,9.57h-1V8.63h0a2.2,2.2,0,0,1-3.25.61A1.65,1.65,0,0,1,289,8c0-1.13.66-1.78,2-2l1.8-.25q0-1.53-1.23-1.53a2.91,2.91,0,0,0-2,.74V4a3.76,3.76,0,0,1,2-.56c1.41,0,2.11.75,2.11,2.24Zm-1-3-1.44.2a2.53,2.53,0,0,0-1,.33,1,1,0,0,0-.34.85.89.89,0,0,0,.31.71,1.2,1.2,0,0,0,.84.28,1.56,1.56,0,0,0,1.18-.5,1.79,1.79,0,0,0,.46-1.27Z"/><path class="cls-10" d="M214.07,37.46h-1V31.82c0-.44,0-1,.09-1.63h0a5.05,5.05,0,0,1-.25.81L210,37.46h-.48l-2.87-6.41a5.64,5.64,0,0,1-.25-.86h0c0,.33.05.88.05,1.64v5.63h-1v-8.4h1.3l2.57,5.86a7.92,7.92,0,0,1,.39,1h0c.16-.46.3-.8.4-1l2.63-5.83h1.23Z"/><path class="cls-10" d="M220.38,37.46h-1v-.94h0a2.2,2.2,0,0,1-3.25.61,1.65,1.65,0,0,1-.51-1.26c0-1.12.66-1.78,2-2l1.79-.25q0-1.53-1.23-1.53a2.92,2.92,0,0,0-2,.74v-1a3.76,3.76,0,0,1,2-.56c1.41,0,2.12.75,2.12,2.24Zm-1-3-1.44.2a2.43,2.43,0,0,0-1,.34.93.93,0,0,0-.34.84.89.89,0,0,0,.31.71,1.2,1.2,0,0,0,.84.28,1.53,1.53,0,0,0,1.18-.5,1.79,1.79,0,0,0,.46-1.27Z"/><path class="cls-10" d="M223.1,36.59h0v3.63h-1V31.46h1v1h0a2.27,2.27,0,0,1,2.07-1.19,2.18,2.18,0,0,1,1.81.81,3.27,3.27,0,0,1,.65,2.15,3.73,3.73,0,0,1-.73,2.42,2.44,2.44,0,0,1-2,.9A2,2,0,0,1,223.1,36.59Zm0-2.42V35a1.77,1.77,0,0,0,.48,1.26,1.72,1.72,0,0,0,2.59-.15,3,3,0,0,0,.5-1.85,2.41,2.41,0,0,0-.46-1.57,1.54,1.54,0,0,0-1.26-.57,1.7,1.7,0,0,0-1.35.58A2.19,2.19,0,0,0,223.08,34.17Z"/><path class="cls-10" d="M234.08,37.46h-1.35l-2.65-2.88h0v2.88h-1v-6h1v2.75h0l2.52-2.75h1.26l-2.78,2.89Z"/><path class="cls-10" d="M239.81,34.7h-4.23a2.25,2.25,0,0,0,.53,1.55,1.88,1.88,0,0,0,1.42.54,2.94,2.94,0,0,0,1.87-.67V37a3.53,3.53,0,0,1-2.1.57,2.51,2.51,0,0,1-2-.82,3.31,3.31,0,0,1-.73-2.3,3.28,3.28,0,0,1,.79-2.28,2.54,2.54,0,0,1,2-.88,2.26,2.26,0,0,1,1.83.76,3.18,3.18,0,0,1,.64,2.12Zm-1-.81a2,2,0,0,0-.4-1.3,1.37,1.37,0,0,0-1.1-.46,1.57,1.57,0,0,0-1.16.48,2.24,2.24,0,0,0-.58,1.28Z"/><path class="cls-10" d="M242.18,36.59h0v3.63h-1V31.46h1v1h0a2.27,2.27,0,0,1,2.07-1.19,2.19,2.19,0,0,1,1.81.81,3.27,3.27,0,0,1,.65,2.15A3.73,3.73,0,0,1,246,36.7a2.45,2.45,0,0,1-2,.9A2,2,0,0,1,242.18,36.59Zm0-2.42V35a1.73,1.73,0,0,0,.49,1.26,1.71,1.71,0,0,0,2.59-.15,3,3,0,0,0,.5-1.85,2.41,2.41,0,0,0-.47-1.57,1.51,1.51,0,0,0-1.25-.57,1.7,1.7,0,0,0-1.35.58A2.15,2.15,0,0,0,242.15,34.17Z"/><path class="cls-10" d="M256.62,39.65h-.81V37.46h-4.47v2.19h-.82v-3h.54a9.09,9.09,0,0,0,1.56-5.19h3.11v5.19h.89Zm-1.85-3V32.27h-1.33a9.33,9.33,0,0,1-1.36,4.38Z"/><path class="cls-10" d="M260.39,37.6a2.79,2.79,0,0,1-2.13-.84,3.15,3.15,0,0,1-.79-2.23,3.25,3.25,0,0,1,.83-2.36,3,3,0,0,1,2.23-.85,2.66,2.66,0,0,1,2.09.83,3.23,3.23,0,0,1,.76,2.29,3.25,3.25,0,0,1-.81,2.3A2.88,2.88,0,0,1,260.39,37.6Zm.07-5.47a1.84,1.84,0,0,0-1.47.63,2.59,2.59,0,0,0-.53,1.74,2.46,2.46,0,0,0,.54,1.68,1.85,1.85,0,0,0,1.46.61,1.75,1.75,0,0,0,1.43-.6,2.59,2.59,0,0,0,.5-1.72,2.61,2.61,0,0,0-.5-1.73A1.73,1.73,0,0,0,260.46,32.13Z"/><path class="cls-10" d="M268.93,37.18a3.1,3.1,0,0,1-1.64.42,2.72,2.72,0,0,1-2.07-.83,3,3,0,0,1-.79-2.17,3.3,3.3,0,0,1,.85-2.38,3,3,0,0,1,2.27-.9,3.23,3.23,0,0,1,1.39.29v1a2.38,2.38,0,0,0-1.43-.47,2,2,0,0,0-1.51.66,2.5,2.5,0,0,0-.59,1.73,2.36,2.36,0,0,0,.56,1.66,1.89,1.89,0,0,0,1.48.61,2.39,2.39,0,0,0,1.48-.52Z"/><path class="cls-10" d="M274.08,32.28h-1.8v5.18h-1V32.28h-1.81v-.82h4.57Z"/><path class="cls-10" d="M279.94,31.46l-2.76,7c-.5,1.24-1.19,1.86-2.08,1.86a2.16,2.16,0,0,1-.62-.07v-.86a1.7,1.7,0,0,0,.56.1,1.17,1.17,0,0,0,1.09-.87l.48-1.13-2.34-6h1.07L277,36.08q0,.09.12.45h0c0-.09.06-.24.12-.44l1.7-4.63Z"/><path class="cls-10" d="M285.88,37.46h-1V32.28h-3.06v5.18h-1v-6h5Z"/><path class="cls-10" d="M292,37.46h-1v-.94h0a2.2,2.2,0,0,1-3.25.61,1.65,1.65,0,0,1-.51-1.26c0-1.12.66-1.78,2-2l1.79-.25q0-1.53-1.23-1.53a2.92,2.92,0,0,0-2,.74v-1a3.76,3.76,0,0,1,2-.56c1.41,0,2.11.75,2.11,2.24Zm-1-3-1.44.2a2.43,2.43,0,0,0-1,.34.93.93,0,0,0-.34.84.89.89,0,0,0,.31.71,1.2,1.2,0,0,0,.84.28,1.53,1.53,0,0,0,1.18-.5,1.79,1.79,0,0,0,.46-1.27Z"/><path class="cls-10" d="M189.39,134.57a3.66,3.66,0,0,1-2.86-1.18,4.33,4.33,0,0,1-1.08-3.06,4.66,4.66,0,0,1,1.1-3.24,3.83,3.83,0,0,1,3-1.2,3.6,3.6,0,0,1,2.8,1.17,4.37,4.37,0,0,1,1.07,3.06,4.7,4.7,0,0,1-1.09,3.26A3.78,3.78,0,0,1,189.39,134.57Zm.07-7.79a2.73,2.73,0,0,0-2.15,1,4.24,4.24,0,0,0,0,5,2.64,2.64,0,0,0,2.1.95,2.77,2.77,0,0,0,2.18-.91,3.68,3.68,0,0,0,.8-2.52,3.81,3.81,0,0,0-.78-2.57A2.62,2.62,0,0,0,189.46,126.78Z"/><path class="cls-10" d="M198.65,129.25h-1.8v5.18h-1v-5.18h-1.8v-.82h4.56Z"/><path class="cls-10" d="M199.77,134.43v-6h2.61a2.26,2.26,0,0,1,1.4.39,1.28,1.28,0,0,1,.51,1.07,1.32,1.32,0,0,1-1.14,1.42c.91.12,1.37.58,1.37,1.39a1.59,1.59,0,0,1-.56,1.23,2.08,2.08,0,0,1-1.41.5Zm1-5.18v1.69h1.44c.78,0,1.16-.3,1.16-.9s-.35-.79-1-.79Zm0,2.51v1.85h1.67c.77,0,1.16-.32,1.16-.94s-.43-.91-1.31-.91Z"/><path class="cls-10" d="M210.91,131.67h-4.23a2.21,2.21,0,0,0,.54,1.55,1.85,1.85,0,0,0,1.41.54,2.94,2.94,0,0,0,1.87-.67V134a3.52,3.52,0,0,1-2.09.57,2.52,2.52,0,0,1-2-.82,3.81,3.81,0,0,1,.07-4.58,2.51,2.51,0,0,1,2-.88,2.25,2.25,0,0,1,1.82.76,3.18,3.18,0,0,1,.64,2.12Zm-1-.81a2,2,0,0,0-.4-1.3,1.37,1.37,0,0,0-1.1-.46,1.59,1.59,0,0,0-1.16.48,2.24,2.24,0,0,0-.58,1.28Z"/><path class="cls-10" d="M216.1,129.25h-1.8v5.18h-1v-5.18h-1.81v-.82h4.57Z"/><path class="cls-10" d="M226.91,134.43h-1V130.6h-4.35v3.83h-1V126h1v3.68h4.35V126h1Z"/><path class="cls-10" d="M234.05,126.92h-2.43v7.51h-1v-7.51h-2.42V126h5.83Z"/><path class="cls-10" d="M240.54,126.92h-2.43v7.51h-1v-7.51H234.7V126h5.84Z"/><path class="cls-10" d="M242.8,131.25v3.18h-1V126h2.31a3.07,3.07,0,0,1,2.08.65,2.35,2.35,0,0,1,.75,1.86,2.55,2.55,0,0,1-.83,2,3.13,3.13,0,0,1-2.22.76Zm0-4.33v3.44h1a2.32,2.32,0,0,0,1.56-.46,1.64,1.64,0,0,0,.53-1.32c0-1.11-.65-1.66-2-1.66Z"/></g></svg>