<?xml version="1.0" encoding="utf-8"?>
<!-- Generator: Adobe Illustrator 22.1.0, SVG Export Plug-In . SVG Version: 6.00 Build 0)  -->
<svg version="1.1" id="Layer_1" xmlns="http://www.w3.org/2000/svg" xmlns:xlink="http://www.w3.org/1999/xlink" x="0px" y="0px"
	 viewBox="0 0 104 41" style="enable-background:new 0 0 104 41;" xml:space="preserve">
<style type="text/css">
	.st0{enable-background:new    ;}
	.st1{fill:#5E5E5E;}
</style>
<image style="overflow:visible;enable-background:new    ;" width="104" height="41" id="Background" xlink:href="77ADEFF1.jpg" >
</image>
<g id="Войти" class="st0">
	<path class="st1" d="M46.3,25.4V15.3h3.2c1,0,1.8,0.2,2.3,0.6c0.6,0.4,0.9,1,0.9,1.7c0,0.6-0.2,1.1-0.5,1.5
		c-0.3,0.4-0.8,0.7-1.4,0.9v0c0.7,0.1,1.3,0.3,1.7,0.8c0.4,0.4,0.6,1,0.6,1.7c0,0.9-0.3,1.6-1,2.1c-0.7,0.5-1.6,0.8-2.6,0.8H46.3z
		 M47.9,16.6v2.9H49c0.6,0,1-0.1,1.4-0.4s0.5-0.7,0.5-1.2c0-0.9-0.6-1.3-1.7-1.3H47.9z M47.9,20.9v3.2h1.4c0.6,0,1.1-0.1,1.5-0.4
		c0.3-0.3,0.5-0.7,0.5-1.2c0-1.1-0.7-1.6-2.2-1.6H47.9z"/>
	<path class="st1" d="M58.1,25.6c-1.1,0-2-0.3-2.7-1c-0.7-0.7-1-1.6-1-2.7c0-1.2,0.3-2.2,1-2.9c0.7-0.7,1.6-1,2.8-1
		c1.1,0,2,0.3,2.7,1c0.6,0.7,1,1.6,1,2.8c0,1.2-0.3,2.1-1,2.8C60.1,25.3,59.2,25.6,58.1,25.6z M58.2,19.3c-0.6,0-1.2,0.2-1.5,0.7
		c-0.4,0.4-0.6,1.1-0.6,1.9c0,0.8,0.2,1.4,0.6,1.8s0.9,0.7,1.5,0.7c0.6,0,1.1-0.2,1.5-0.6s0.5-1,0.5-1.8c0-0.8-0.2-1.4-0.5-1.9
		C59.3,19.5,58.8,19.3,58.2,19.3z"/>
	<path class="st1" d="M70.1,25.4h-1.5v-5.3c-0.1,0.2-0.2,0.5-0.4,0.8l-3.1,4.5h-1.6v-7.3H65v5.2c0.1-0.1,0.2-0.3,0.3-0.6l3.1-4.6
		h1.7V25.4z M69.7,14.7c-0.1,0.7-0.4,1.3-0.9,1.7c-0.5,0.4-1.1,0.6-1.9,0.6c-0.8,0-1.4-0.2-1.9-0.6c-0.5-0.4-0.8-1-0.8-1.7h1.4
		c0.1,0.9,0.5,1.3,1.4,1.3c0.4,0,0.7-0.1,0.9-0.3s0.4-0.5,0.5-1H69.7z"/>
	<path class="st1" d="M77.2,19.5h-2.1v6h-1.7v-6h-2.1v-1.3h5.8V19.5z"/>
	<path class="st1" d="M85.1,25.4h-1.5v-5.3c-0.1,0.2-0.2,0.5-0.4,0.8l-3.1,4.5h-1.6v-7.3h1.5v5.2c0.1-0.1,0.2-0.3,0.3-0.6l3.1-4.6
		h1.7V25.4z"/>
</g>
</svg>
