<?xml version="1.0" encoding="utf-8"?>
<!-- Generator: Adobe Illustrator 22.1.0, SVG Export Plug-In . SVG Version: 6.00 Build 0)  -->
<svg version="1.1" id="Layer_1" xmlns="http://www.w3.org/2000/svg" xmlns:xlink="http://www.w3.org/1999/xlink" x="0px" y="0px"
	 viewBox="0 0 420 41" style="enable-background:new 0 0 420 41;" xml:space="preserve">
<style type="text/css">
	.st0{enable-background:new    ;}
	.st1{fill:#FFFFFF;}
</style>
<image style="overflow:visible;enable-background:new    ;" width="421" height="41" id="Layer_1_copy" xlink:href="6A914511.jpg"  transform="matrix(1 0 0 1 -1 0)">
</image>
<g id="Войдите_с_помощью_учетной_записи_Майкрософт" class="st0">
	<path class="st1" d="M45.6,25.7V15.3h3.3c1,0,1.8,0.2,2.4,0.7c0.6,0.4,0.9,1,0.9,1.7c0,0.6-0.2,1.1-0.5,1.5
		c-0.3,0.4-0.8,0.7-1.4,0.9v0c0.7,0.1,1.3,0.3,1.7,0.8c0.4,0.4,0.6,1,0.6,1.7c0,0.9-0.4,1.6-1.1,2.2c-0.7,0.6-1.6,0.8-2.7,0.8H45.6z
		 M47.3,16.7v3h1.1c0.6,0,1.1-0.1,1.4-0.4c0.3-0.3,0.5-0.7,0.5-1.2c0-0.9-0.6-1.3-1.8-1.3H47.3z M47.3,21v3.3h1.5
		c0.6,0,1.1-0.1,1.5-0.4c0.4-0.3,0.5-0.7,0.5-1.2c0-1.1-0.7-1.6-2.2-1.6H47.3z"/>
	<path class="st1" d="M57.7,25.9c-1.1,0-2.1-0.3-2.8-1c-0.7-0.7-1-1.6-1-2.8c0-1.3,0.4-2.2,1.1-2.9c0.7-0.7,1.7-1.1,2.9-1.1
		c1.2,0,2.1,0.3,2.7,1s1,1.6,1,2.8c0,1.2-0.4,2.1-1.1,2.9C59.9,25.5,58.9,25.9,57.7,25.9z M57.8,19.4c-0.7,0-1.2,0.2-1.6,0.7
		c-0.4,0.5-0.6,1.1-0.6,1.9c0,0.8,0.2,1.4,0.6,1.8c0.4,0.4,0.9,0.7,1.6,0.7c0.7,0,1.2-0.2,1.5-0.7c0.4-0.4,0.5-1.1,0.5-1.9
		c0-0.8-0.2-1.5-0.5-1.9C59,19.7,58.5,19.4,57.8,19.4z"/>
	<path class="st1" d="M70.1,25.7h-1.5v-5.5c-0.1,0.2-0.2,0.5-0.4,0.8L65,25.7h-1.7v-7.5h1.5v5.4c0.1-0.1,0.2-0.3,0.3-0.7l3.2-4.7
		h1.7V25.7z M69.6,14.7c-0.1,0.7-0.4,1.3-0.9,1.7s-1.2,0.6-2,0.6c-0.8,0-1.5-0.2-2-0.6s-0.8-1-0.8-1.7h1.4c0.1,0.9,0.5,1.3,1.4,1.3
		c0.4,0,0.7-0.1,1-0.3c0.3-0.2,0.4-0.6,0.5-1H69.6z"/>
	<path class="st1" d="M79.4,28.4H78v-2.7h-5.3v2.7h-1.4v-4H72c1.2-1.8,1.8-3.8,1.8-6.2h4.5v6.2h1.1V28.4z M76.6,24.4v-4.9h-1.4
		c-0.1,1.8-0.6,3.4-1.5,4.9H76.6z"/>
	<path class="st1" d="M87.7,25.7h-1.5v-5.5c-0.1,0.2-0.2,0.5-0.4,0.8l-3.1,4.7h-1.7v-7.5h1.5v5.4c0.1-0.1,0.2-0.3,0.3-0.7l3.2-4.7
		h1.7V25.7z"/>
	<path class="st1" d="M95,19.6h-2.1v6.1h-1.7v-6.1H89v-1.3h6V19.6z"/>
	<path class="st1" d="M102.4,22.4h-5.1c0,0.7,0.2,1.2,0.6,1.6c0.4,0.4,1,0.6,1.7,0.6c0.8,0,1.5-0.2,2.2-0.7v1.4
		c-0.7,0.4-1.6,0.6-2.7,0.6c-1.1,0-2-0.3-2.6-1c-0.6-0.7-0.9-1.6-0.9-2.9c0-1.2,0.3-2.1,1-2.8s1.5-1.1,2.6-1.1s1.8,0.3,2.4,1
		c0.6,0.7,0.8,1.6,0.8,2.7V22.4z M100.7,21.3c0-0.6-0.1-1.1-0.4-1.4c-0.3-0.3-0.7-0.5-1.2-0.5c-0.5,0-0.9,0.2-1.2,0.5
		c-0.3,0.4-0.5,0.8-0.6,1.4H100.7z"/>
	<path class="st1" d="M113.4,25.4c-0.6,0.3-1.3,0.5-2.1,0.5c-1.1,0-2-0.3-2.7-1c-0.7-0.7-1-1.6-1-2.7c0-1.2,0.4-2.2,1.1-3
		c0.7-0.7,1.7-1.1,2.9-1.1c0.7,0,1.3,0.1,1.8,0.4V20c-0.5-0.4-1.1-0.6-1.7-0.6c-0.7,0-1.3,0.2-1.8,0.7c-0.5,0.5-0.7,1.1-0.7,1.9
		c0,0.8,0.2,1.4,0.6,1.8c0.4,0.4,1,0.7,1.7,0.7c0.6,0,1.2-0.2,1.7-0.6V25.4z"/>
	<path class="st1" d="M125.8,25.7h-1.7v-6.2h-3.2v6.2h-1.7v-7.5h6.6V25.7z"/>
	<path class="st1" d="M131.3,25.9c-1.1,0-2.1-0.3-2.8-1c-0.7-0.7-1-1.6-1-2.8c0-1.3,0.4-2.2,1.1-2.9c0.7-0.7,1.7-1.1,2.9-1.1
		c1.2,0,2.1,0.3,2.7,1c0.7,0.7,1,1.6,1,2.8c0,1.2-0.4,2.1-1.1,2.9S132.5,25.9,131.3,25.9z M131.4,19.4c-0.7,0-1.2,0.2-1.6,0.7
		c-0.4,0.5-0.6,1.1-0.6,1.9c0,0.8,0.2,1.4,0.6,1.8c0.4,0.4,0.9,0.7,1.6,0.7c0.7,0,1.2-0.2,1.5-0.7s0.5-1.1,0.5-1.9
		c0-0.8-0.2-1.5-0.5-1.9S132.1,19.4,131.4,19.4z"/>
	<path class="st1" d="M145.7,25.7h-1.6v-6c-0.1,0.3-0.2,0.7-0.4,1.3l-1.7,4.6h-1.5l-1.7-4.6c-0.1-0.3-0.2-0.7-0.4-1.3v6h-1.4v-7.5
		h2.2l1.7,4.6c0.1,0.3,0.3,0.8,0.5,1.4l0.5-1.4l1.7-4.6h2.3V25.7z"/>
	<path class="st1" d="M151.2,25.9c-1.1,0-2.1-0.3-2.8-1c-0.7-0.7-1-1.6-1-2.8c0-1.3,0.4-2.2,1.1-2.9c0.7-0.7,1.7-1.1,2.9-1.1
		c1.2,0,2.1,0.3,2.7,1c0.7,0.7,1,1.6,1,2.8c0,1.2-0.4,2.1-1.1,2.9S152.4,25.9,151.2,25.9z M151.3,19.4c-0.7,0-1.2,0.2-1.6,0.7
		c-0.4,0.5-0.6,1.1-0.6,1.9c0,0.8,0.2,1.4,0.6,1.8c0.4,0.4,0.9,0.7,1.6,0.7c0.7,0,1.2-0.2,1.5-0.7s0.5-1.1,0.5-1.9
		c0-0.8-0.2-1.5-0.5-1.9S151.9,19.4,151.3,19.4z"/>
	<path class="st1" d="M168.1,28.4h-1.4v-2.7h-9.9v-7.5h1.7v6.2h2.5v-6.2h1.7v6.2h2.5v-6.2h1.7v6.2h1.1V28.4z"/>
	<path class="st1" d="M169.6,25.7v-7.5h1.7V21h2c0.8,0,1.4,0.2,1.9,0.6c0.5,0.4,0.7,1,0.7,1.7c0,0.7-0.2,1.3-0.7,1.8
		c-0.5,0.4-1,0.6-1.8,0.6H169.6z M171.3,22.2v2.3h1.5c0.9,0,1.3-0.4,1.3-1.2c0-0.7-0.4-1.1-1.3-1.1H171.3z"/>
	<path class="st1" d="M181,22.5h-1.8v3.2h-1.7v-7.5h1.7v2.9h1.9c0.1-1,0.5-1.7,1.2-2.3c0.7-0.5,1.5-0.8,2.5-0.8c1.1,0,2,0.3,2.7,1
		c0.6,0.7,0.9,1.6,0.9,2.8c0,1.2-0.3,2.2-1,2.9c-0.7,0.7-1.6,1.1-2.7,1.1c-1.1,0-2-0.3-2.6-0.9C181.4,24.4,181.1,23.6,181,22.5z
		 M184.6,19.4c-1.3,0-1.9,0.9-1.9,2.6c0,1.7,0.7,2.6,2,2.6c1.3,0,1.9-0.9,1.9-2.6C186.6,20.3,185.9,19.4,184.6,19.4z"/>
	<path class="st1" d="M200.6,18.3l-3.4,8.6c-0.7,1.5-1.7,2.3-2.9,2.3c-0.4,0-0.6,0-0.9-0.1v-1.4c0.3,0.1,0.5,0.1,0.7,0.1
		c0.6,0,1.1-0.3,1.4-0.9l0.5-1.2l-3-7.4h1.9l1.8,5.4c0,0.1,0.1,0.2,0.1,0.5h0c0-0.1,0.1-0.3,0.1-0.5l1.9-5.4H200.6z"/>
	<path class="st1" d="M208.2,25.7h-1.7v-2.8c-0.8,0.5-1.6,0.7-2.3,0.7c-1.7,0-2.5-0.9-2.5-2.7v-2.6h1.7v2.4c0,1.1,0.4,1.6,1.2,1.6
		c0.6,0,1.3-0.2,2-0.5v-3.4h1.7V25.7z"/>
	<path class="st1" d="M216.7,22.4h-5.1c0,0.7,0.2,1.2,0.6,1.6c0.4,0.4,1,0.6,1.7,0.6c0.8,0,1.5-0.2,2.2-0.7v1.4
		c-0.7,0.4-1.6,0.6-2.7,0.6c-1.1,0-2-0.3-2.6-1c-0.6-0.7-0.9-1.6-0.9-2.9c0-1.2,0.3-2.1,1-2.8c0.7-0.7,1.5-1.1,2.6-1.1
		s1.8,0.3,2.4,1c0.6,0.7,0.8,1.6,0.8,2.7V22.4z M215.1,21.3c0-0.6-0.1-1.1-0.4-1.4c-0.3-0.3-0.7-0.5-1.2-0.5c-0.5,0-0.9,0.2-1.2,0.5
		s-0.5,0.8-0.6,1.4H215.1z"/>
	<path class="st1" d="M223.4,19.6h-2.1v6.1h-1.7v-6.1h-2.1v-1.3h6V19.6z"/>
	<path class="st1" d="M231.3,25.7h-1.7v-3.3h-3.2v3.3h-1.7v-7.5h1.7v2.9h3.2v-2.9h1.7V25.7z"/>
	<path class="st1" d="M236.8,25.9c-1.1,0-2.1-0.3-2.8-1c-0.7-0.7-1-1.6-1-2.8c0-1.3,0.4-2.2,1.1-2.9c0.7-0.7,1.7-1.1,2.9-1.1
		c1.2,0,2.1,0.3,2.7,1c0.7,0.7,1,1.6,1,2.8c0,1.2-0.4,2.1-1.1,2.9S238,25.9,236.8,25.9z M236.9,19.4c-0.7,0-1.2,0.2-1.6,0.7
		c-0.4,0.5-0.6,1.1-0.6,1.9c0,0.8,0.2,1.4,0.6,1.8c0.4,0.4,0.9,0.7,1.6,0.7c0.7,0,1.2-0.2,1.5-0.7s0.5-1.1,0.5-1.9
		c0-0.8-0.2-1.5-0.5-1.9S237.6,19.4,236.9,19.4z"/>
	<path class="st1" d="M249.2,25.7h-1.5v-5.5c-0.1,0.2-0.2,0.5-0.4,0.8l-3.1,4.7h-1.7v-7.5h1.5v5.4c0.1-0.1,0.2-0.3,0.3-0.7l3.2-4.7
		h1.7V25.7z M248.7,14.7c-0.1,0.7-0.4,1.3-0.9,1.7c-0.5,0.4-1.2,0.6-2,0.6c-0.8,0-1.5-0.2-2-0.6s-0.8-1-0.8-1.7h1.4
		c0.1,0.9,0.5,1.3,1.4,1.3c0.4,0,0.7-0.1,1-0.3s0.4-0.6,0.5-1H248.7z"/>
	<path class="st1" d="M255,25.5v-1.4c0.6,0.3,1.4,0.5,2.2,0.5c1.2,0,1.8-0.4,1.8-1.1s-0.7-1.1-2.1-1.1h-0.7v-1.2h0.7
		c1.2,0,1.9-0.3,1.9-1c0-0.3-0.1-0.5-0.4-0.7c-0.3-0.2-0.6-0.3-1.1-0.3c-0.7,0-1.4,0.2-2.1,0.5v-1.3c0.8-0.3,1.6-0.4,2.3-0.4
		c2,0,3,0.7,3,2c0,0.4-0.1,0.8-0.4,1.1c-0.3,0.3-0.7,0.5-1.2,0.6v0c0.6,0,1,0.2,1.4,0.6c0.3,0.3,0.5,0.7,0.5,1.2
		c0,0.7-0.3,1.2-0.9,1.6c-0.6,0.4-1.4,0.6-2.4,0.6S255.5,25.8,255,25.5z"/>
	<path class="st1" d="M268.1,25.7h-1.6v-1.2h0c-0.5,0.9-1.3,1.3-2.3,1.3c-0.7,0-1.3-0.2-1.7-0.6c-0.4-0.4-0.6-0.9-0.6-1.6
		c0-1.4,0.8-2.2,2.4-2.5l2.2-0.3c0-1.1-0.5-1.6-1.5-1.6c-0.9,0-1.7,0.3-2.4,0.9v-1.5c0.8-0.5,1.7-0.7,2.7-0.7c1.9,0,2.8,0.9,2.8,2.8
		V25.7z M266.5,22.1l-1.6,0.2c-0.5,0.1-0.8,0.2-1.1,0.4c-0.2,0.2-0.4,0.5-0.4,0.9c0,0.3,0.1,0.6,0.3,0.8c0.2,0.2,0.5,0.3,0.9,0.3
		c0.5,0,0.9-0.2,1.3-0.5c0.3-0.4,0.5-0.8,0.5-1.4V22.1z"/>
	<path class="st1" d="M276.8,25.7h-1.7v-6.2h-3.2v6.2h-1.7v-7.5h6.6V25.7z"/>
	<path class="st1" d="M285.8,25.7h-1.5v-5.5c-0.1,0.2-0.2,0.5-0.4,0.8l-3.1,4.7H279v-7.5h1.5v5.4c0.1-0.1,0.2-0.3,0.3-0.7l3.2-4.7
		h1.7V25.7z"/>
	<path class="st1" d="M293.3,25.4c-0.6,0.3-1.3,0.5-2.1,0.5c-1.1,0-2-0.3-2.7-1c-0.7-0.7-1-1.6-1-2.7c0-1.2,0.4-2.2,1.1-3
		c0.7-0.7,1.7-1.1,2.9-1.1c0.7,0,1.3,0.1,1.8,0.4V20c-0.5-0.4-1.1-0.6-1.7-0.6c-0.7,0-1.3,0.2-1.8,0.7c-0.5,0.5-0.7,1.1-0.7,1.9
		c0,0.8,0.2,1.4,0.6,1.8c0.4,0.4,1,0.7,1.7,0.7c0.6,0,1.2-0.2,1.7-0.6V25.4z"/>
	<path class="st1" d="M301.7,25.7h-1.5v-5.5c-0.1,0.2-0.2,0.5-0.4,0.8l-3.1,4.7H295v-7.5h1.5v5.4c0.1-0.1,0.2-0.3,0.3-0.7l3.2-4.7
		h1.7V25.7z"/>
	<path class="st1" d="M319.4,25.7h-1.7V19c0-0.6,0-1.2,0.1-2h0c-0.1,0.5-0.2,0.8-0.3,1l-3.1,7.8h-1.2l-3.1-7.7
		c-0.1-0.2-0.2-0.6-0.3-1h0c0,0.4,0.1,1.1,0.1,2v6.7h-1.6V15.3h2.4l2.7,6.9c0.2,0.5,0.3,0.9,0.4,1.2h0c0.2-0.5,0.3-1,0.4-1.2
		l2.8-6.9h2.3V25.7z"/>
	<path class="st1" d="M327.5,25.7h-1.6v-1.2h0c-0.5,0.9-1.3,1.3-2.3,1.3c-0.7,0-1.3-0.2-1.7-0.6c-0.4-0.4-0.6-0.9-0.6-1.6
		c0-1.4,0.8-2.2,2.4-2.5l2.2-0.3c0-1.1-0.5-1.6-1.5-1.6c-0.9,0-1.7,0.3-2.4,0.9v-1.5c0.8-0.5,1.7-0.7,2.7-0.7c1.9,0,2.8,0.9,2.8,2.8
		V25.7z M325.9,22.1l-1.6,0.2c-0.5,0.1-0.8,0.2-1.1,0.4c-0.2,0.2-0.4,0.5-0.4,0.9c0,0.3,0.1,0.6,0.3,0.8c0.2,0.2,0.5,0.3,0.9,0.3
		c0.5,0,0.9-0.2,1.3-0.5c0.3-0.4,0.5-0.8,0.5-1.4V22.1z"/>
	<path class="st1" d="M336.3,25.7h-1.5v-5.5c-0.1,0.2-0.2,0.5-0.4,0.8l-3.1,4.7h-1.7v-7.5h1.5v5.4c0.1-0.1,0.2-0.3,0.3-0.7l3.2-4.7
		h1.7V25.7z M335.9,14.7c-0.1,0.7-0.4,1.3-0.9,1.7c-0.5,0.4-1.2,0.6-2,0.6c-0.8,0-1.5-0.2-2-0.6s-0.8-1-0.8-1.7h1.4
		c0.1,0.9,0.5,1.3,1.4,1.3c0.4,0,0.7-0.1,1-0.3s0.4-0.6,0.5-1H335.9z"/>
	<path class="st1" d="M345.3,25.7h-2.1l-2.9-3.6h0v3.6h-1.7v-7.5h1.7v3.4h0l2.7-3.4h2.1l-3.1,3.6L345.3,25.7z"/>
	<path class="st1" d="M348.1,24.6L348.1,24.6l0,4.5h-1.7V18.3h1.7v1.3h0c0.6-1,1.4-1.5,2.5-1.5c0.9,0,1.7,0.3,2.2,1
		c0.5,0.7,0.8,1.6,0.8,2.7c0,1.2-0.3,2.2-0.9,3s-1.4,1.1-2.4,1.1C349.3,25.9,348.6,25.5,348.1,24.6z M348,21.7v0.9
		c0,0.5,0.2,1,0.5,1.4c0.3,0.4,0.8,0.6,1.3,0.6c0.6,0,1.1-0.2,1.5-0.7s0.5-1.2,0.5-2c0-0.7-0.2-1.3-0.5-1.7
		c-0.3-0.4-0.8-0.6-1.3-0.6c-0.6,0-1.1,0.2-1.5,0.6S348,21,348,21.7z"/>
	<path class="st1" d="M358.7,25.9c-1.1,0-2.1-0.3-2.8-1c-0.7-0.7-1-1.6-1-2.8c0-1.3,0.4-2.2,1.1-2.9c0.7-0.7,1.7-1.1,2.9-1.1
		c1.2,0,2.1,0.3,2.7,1c0.7,0.7,1,1.6,1,2.8c0,1.2-0.4,2.1-1.1,2.9S359.8,25.9,358.7,25.9z M358.7,19.4c-0.7,0-1.2,0.2-1.6,0.7
		c-0.4,0.5-0.6,1.1-0.6,1.9c0,0.8,0.2,1.4,0.6,1.8c0.4,0.4,0.9,0.7,1.6,0.7c0.7,0,1.2-0.2,1.5-0.7s0.5-1.1,0.5-1.9
		c0-0.8-0.2-1.5-0.5-1.9S359.4,19.4,358.7,19.4z"/>
	<path class="st1" d="M369.6,25.4c-0.6,0.3-1.3,0.5-2.1,0.5c-1.1,0-2-0.3-2.7-1c-0.7-0.7-1-1.6-1-2.7c0-1.2,0.4-2.2,1.1-3
		c0.7-0.7,1.7-1.1,2.9-1.1c0.7,0,1.3,0.1,1.8,0.4V20c-0.5-0.4-1.1-0.6-1.7-0.6c-0.7,0-1.3,0.2-1.8,0.7c-0.5,0.5-0.7,1.1-0.7,1.9
		c0,0.8,0.2,1.4,0.6,1.8c0.4,0.4,1,0.7,1.7,0.7c0.6,0,1.2-0.2,1.7-0.6V25.4z"/>
	<path class="st1" d="M374.6,25.9c-1.1,0-2.1-0.3-2.8-1c-0.7-0.7-1-1.6-1-2.8c0-1.3,0.4-2.2,1.1-2.9c0.7-0.7,1.7-1.1,2.9-1.1
		c1.2,0,2.1,0.3,2.7,1c0.7,0.7,1,1.6,1,2.8c0,1.2-0.4,2.1-1.1,2.9S375.7,25.9,374.6,25.9z M374.6,19.4c-0.7,0-1.2,0.2-1.6,0.7
		c-0.4,0.5-0.6,1.1-0.6,1.9c0,0.8,0.2,1.4,0.6,1.8c0.4,0.4,0.9,0.7,1.6,0.7c0.7,0,1.2-0.2,1.5-0.7s0.5-1.1,0.5-1.9
		c0-0.8-0.2-1.5-0.5-1.9S375.3,19.4,374.6,19.4z"/>
	<path class="st1" d="M385.3,25.8v3.3h-1.6v-3.3h-0.2c-1.1,0-2.1-0.3-2.8-1s-1.1-1.6-1.1-2.7c0-1.2,0.4-2.1,1.1-2.9s1.6-1.1,2.8-1.1
		h0.2v-3h1.6v3h0.2c1.2,0,2.1,0.4,2.8,1.1c0.7,0.7,1.1,1.7,1.1,2.9c0,1.1-0.3,2-1,2.7c-0.7,0.7-1.6,1-2.7,1H385.3z M383.7,24.6v-5.2
		h-0.2c-0.7,0-1.2,0.2-1.6,0.7c-0.4,0.5-0.6,1.1-0.6,1.9c0,0.8,0.2,1.4,0.6,1.8c0.4,0.5,0.9,0.7,1.6,0.7H383.7z M385.3,19.4v5.2h0.1
		c0.7,0,1.2-0.2,1.6-0.7c0.4-0.5,0.6-1.1,0.6-1.9c0-0.8-0.2-1.5-0.6-1.9s-0.9-0.7-1.6-0.7H385.3z"/>
	<path class="st1" d="M395.9,19.6h-2.1v6.1H392v-6.1h-2.1v-1.3h6V19.6z"/>
</g>
</svg>
