<?xml version="1.0" encoding="utf-8"?>
<!-- Generator: Adobe Illustrator 22.1.0, SVG Export Plug-In . SVG Version: 6.00 Build 0)  -->
<svg version="1.1" id="Layer_1" xmlns="http://www.w3.org/2000/svg" xmlns:xlink="http://www.w3.org/1999/xlink" x="0px" y="0px"
	 viewBox="0 0 420 41" style="enable-background:new 0 0 420 41;" xml:space="preserve">
<style type="text/css">
	.st0{enable-background:new    ;}
	.st1{fill:#5E5E5E;}
</style>
<image style="overflow:visible;enable-background:new    ;" width="420" height="41" id="Layer_1_copy" xlink:href="8089CA96.jpg" >
</image>
<g id="Войдите_с_помощью_учетной_записи_Майкрософт" class="st0">
	<path class="st1" d="M46.6,25.7V15.3h3.3c1,0,1.8,0.2,2.4,0.7c0.6,0.4,0.9,1,0.9,1.7c0,0.6-0.2,1.1-0.5,1.5
		c-0.3,0.4-0.8,0.7-1.4,0.9v0c0.7,0.1,1.3,0.3,1.7,0.8c0.4,0.4,0.6,1,0.6,1.7c0,0.9-0.4,1.6-1.1,2.2c-0.7,0.6-1.6,0.8-2.7,0.8H46.6z
		 M48.3,16.7v3h1.1c0.6,0,1.1-0.1,1.4-0.4c0.3-0.3,0.5-0.7,0.5-1.2c0-0.9-0.6-1.3-1.8-1.3H48.3z M48.3,21v3.3h1.5
		c0.6,0,1.1-0.1,1.5-0.4c0.4-0.3,0.5-0.7,0.5-1.2c0-1.1-0.7-1.6-2.2-1.6H48.3z"/>
	<path class="st1" d="M58.7,25.9c-1.1,0-2.1-0.3-2.8-1c-0.7-0.7-1-1.6-1-2.8c0-1.3,0.4-2.2,1.1-2.9c0.7-0.7,1.7-1.1,2.9-1.1
		c1.2,0,2.1,0.3,2.7,1s1,1.6,1,2.8c0,1.2-0.4,2.1-1.1,2.9C60.9,25.5,59.9,25.9,58.7,25.9z M58.8,19.4c-0.7,0-1.2,0.2-1.6,0.7
		c-0.4,0.5-0.6,1.1-0.6,1.9c0,0.8,0.2,1.4,0.6,1.8c0.4,0.4,0.9,0.7,1.6,0.7c0.7,0,1.2-0.2,1.5-0.7c0.4-0.4,0.5-1.1,0.5-1.9
		c0-0.8-0.2-1.5-0.5-1.9C60,19.7,59.5,19.4,58.8,19.4z"/>
	<path class="st1" d="M71.1,25.7h-1.5v-5.5c-0.1,0.2-0.2,0.5-0.4,0.8L66,25.7h-1.7v-7.5h1.5v5.4c0.1-0.1,0.2-0.3,0.3-0.7l3.2-4.7
		h1.7V25.7z M70.6,14.7c-0.1,0.7-0.4,1.3-0.9,1.7s-1.2,0.6-2,0.6c-0.8,0-1.5-0.2-2-0.6s-0.8-1-0.8-1.7h1.4c0.1,0.9,0.5,1.3,1.4,1.3
		c0.4,0,0.7-0.1,1-0.3c0.3-0.2,0.4-0.6,0.5-1H70.6z"/>
	<path class="st1" d="M80.4,28.4H79v-2.7h-5.3v2.7h-1.4v-4H73c1.2-1.8,1.8-3.8,1.8-6.2h4.5v6.2h1.1V28.4z M77.6,24.4v-4.9h-1.4
		c-0.1,1.8-0.6,3.4-1.5,4.9H77.6z"/>
	<path class="st1" d="M88.7,25.7h-1.5v-5.5c-0.1,0.2-0.2,0.5-0.4,0.8l-3.1,4.7h-1.7v-7.5h1.5v5.4c0.1-0.1,0.2-0.3,0.3-0.7l3.2-4.7
		h1.7V25.7z"/>
	<path class="st1" d="M96,19.6h-2.1v6.1h-1.7v-6.1H90v-1.3h6V19.6z"/>
	<path class="st1" d="M103.4,22.4h-5.1c0,0.7,0.2,1.2,0.6,1.6c0.4,0.4,1,0.6,1.7,0.6c0.8,0,1.5-0.2,2.2-0.7v1.4
		c-0.7,0.4-1.6,0.6-2.7,0.6c-1.1,0-2-0.3-2.6-1c-0.6-0.7-0.9-1.6-0.9-2.9c0-1.2,0.3-2.1,1-2.8s1.5-1.1,2.6-1.1s1.8,0.3,2.4,1
		c0.6,0.7,0.8,1.6,0.8,2.7V22.4z M101.7,21.3c0-0.6-0.1-1.1-0.4-1.4c-0.3-0.3-0.7-0.5-1.2-0.5c-0.5,0-0.9,0.2-1.2,0.5
		c-0.3,0.4-0.5,0.8-0.6,1.4H101.7z"/>
	<path class="st1" d="M114.4,25.4c-0.6,0.3-1.3,0.5-2.1,0.5c-1.1,0-2-0.3-2.7-1c-0.7-0.7-1-1.6-1-2.7c0-1.2,0.4-2.2,1.1-3
		c0.7-0.7,1.7-1.1,2.9-1.1c0.7,0,1.3,0.1,1.8,0.4V20c-0.5-0.4-1.1-0.6-1.7-0.6c-0.7,0-1.3,0.2-1.8,0.7c-0.5,0.5-0.7,1.1-0.7,1.9
		c0,0.8,0.2,1.4,0.6,1.8c0.4,0.4,1,0.7,1.7,0.7c0.6,0,1.2-0.2,1.7-0.6V25.4z"/>
	<path class="st1" d="M126.8,25.7h-1.7v-6.2h-3.2v6.2h-1.7v-7.5h6.6V25.7z"/>
	<path class="st1" d="M132.3,25.9c-1.1,0-2.1-0.3-2.8-1c-0.7-0.7-1-1.6-1-2.8c0-1.3,0.4-2.2,1.1-2.9c0.7-0.7,1.7-1.1,2.9-1.1
		c1.2,0,2.1,0.3,2.7,1c0.7,0.7,1,1.6,1,2.8c0,1.2-0.4,2.1-1.1,2.9S133.5,25.9,132.3,25.9z M132.4,19.4c-0.7,0-1.2,0.2-1.6,0.7
		c-0.4,0.5-0.6,1.1-0.6,1.9c0,0.8,0.2,1.4,0.6,1.8c0.4,0.4,0.9,0.7,1.6,0.7c0.7,0,1.2-0.2,1.5-0.7s0.5-1.1,0.5-1.9
		c0-0.8-0.2-1.5-0.5-1.9S133.1,19.4,132.4,19.4z"/>
	<path class="st1" d="M146.7,25.7h-1.6v-6c-0.1,0.3-0.2,0.7-0.4,1.3l-1.7,4.6h-1.5l-1.7-4.6c-0.1-0.3-0.2-0.7-0.4-1.3v6h-1.4v-7.5
		h2.2l1.7,4.6c0.1,0.3,0.3,0.8,0.5,1.4l0.5-1.4l1.7-4.6h2.3V25.7z"/>
	<path class="st1" d="M152.2,25.9c-1.1,0-2.1-0.3-2.8-1c-0.7-0.7-1-1.6-1-2.8c0-1.3,0.4-2.2,1.1-2.9c0.7-0.7,1.7-1.1,2.9-1.1
		c1.2,0,2.1,0.3,2.7,1c0.7,0.7,1,1.6,1,2.8c0,1.2-0.4,2.1-1.1,2.9S153.4,25.9,152.2,25.9z M152.3,19.4c-0.7,0-1.2,0.2-1.6,0.7
		c-0.4,0.5-0.6,1.1-0.6,1.9c0,0.8,0.2,1.4,0.6,1.8c0.4,0.4,0.9,0.7,1.6,0.7c0.7,0,1.2-0.2,1.5-0.7s0.5-1.1,0.5-1.9
		c0-0.8-0.2-1.5-0.5-1.9S152.9,19.4,152.3,19.4z"/>
	<path class="st1" d="M169.1,28.4h-1.4v-2.7h-9.9v-7.5h1.7v6.2h2.5v-6.2h1.7v6.2h2.5v-6.2h1.7v6.2h1.1V28.4z"/>
	<path class="st1" d="M170.6,25.7v-7.5h1.7V21h2c0.8,0,1.4,0.2,1.9,0.6c0.5,0.4,0.7,1,0.7,1.7c0,0.7-0.2,1.3-0.7,1.8
		c-0.5,0.4-1,0.6-1.8,0.6H170.6z M172.3,22.2v2.3h1.5c0.9,0,1.3-0.4,1.3-1.2c0-0.7-0.4-1.1-1.3-1.1H172.3z"/>
	<path class="st1" d="M182,22.5h-1.8v3.2h-1.7v-7.5h1.7v2.9h1.9c0.1-1,0.5-1.7,1.2-2.3c0.7-0.5,1.5-0.8,2.5-0.8c1.1,0,2,0.3,2.7,1
		c0.6,0.7,0.9,1.6,0.9,2.8c0,1.2-0.3,2.2-1,2.9c-0.7,0.7-1.6,1.1-2.7,1.1c-1.1,0-2-0.3-2.6-0.9C182.4,24.4,182.1,23.6,182,22.5z
		 M185.6,19.4c-1.3,0-1.9,0.9-1.9,2.6c0,1.7,0.7,2.6,2,2.6c1.3,0,1.9-0.9,1.9-2.6C187.6,20.3,186.9,19.4,185.6,19.4z"/>
	<path class="st1" d="M201.6,18.3l-3.4,8.6c-0.7,1.5-1.7,2.3-2.9,2.3c-0.4,0-0.6,0-0.9-0.1v-1.4c0.3,0.1,0.5,0.1,0.7,0.1
		c0.6,0,1.1-0.3,1.4-0.9l0.5-1.2l-3-7.4h1.9l1.8,5.4c0,0.1,0.1,0.2,0.1,0.5h0c0-0.1,0.1-0.3,0.1-0.5l1.9-5.4H201.6z"/>
	<path class="st1" d="M209.2,25.7h-1.7v-2.8c-0.8,0.5-1.6,0.7-2.3,0.7c-1.7,0-2.5-0.9-2.5-2.7v-2.6h1.7v2.4c0,1.1,0.4,1.6,1.2,1.6
		c0.6,0,1.3-0.2,2-0.5v-3.4h1.7V25.7z"/>
	<path class="st1" d="M217.7,22.4h-5.1c0,0.7,0.2,1.2,0.6,1.6c0.4,0.4,1,0.6,1.7,0.6c0.8,0,1.5-0.2,2.2-0.7v1.4
		c-0.7,0.4-1.6,0.6-2.7,0.6c-1.1,0-2-0.3-2.6-1c-0.6-0.7-0.9-1.6-0.9-2.9c0-1.2,0.3-2.1,1-2.8c0.7-0.7,1.5-1.1,2.6-1.1
		s1.8,0.3,2.4,1c0.6,0.7,0.8,1.6,0.8,2.7V22.4z M216.1,21.3c0-0.6-0.1-1.1-0.4-1.4c-0.3-0.3-0.7-0.5-1.2-0.5c-0.5,0-0.9,0.2-1.2,0.5
		s-0.5,0.8-0.6,1.4H216.1z"/>
	<path class="st1" d="M224.4,19.6h-2.1v6.1h-1.7v-6.1h-2.1v-1.3h6V19.6z"/>
	<path class="st1" d="M232.3,25.7h-1.7v-3.3h-3.2v3.3h-1.7v-7.5h1.7v2.9h3.2v-2.9h1.7V25.7z"/>
	<path class="st1" d="M237.8,25.9c-1.1,0-2.1-0.3-2.8-1c-0.7-0.7-1-1.6-1-2.8c0-1.3,0.4-2.2,1.1-2.9c0.7-0.7,1.7-1.1,2.9-1.1
		c1.2,0,2.1,0.3,2.7,1c0.7,0.7,1,1.6,1,2.8c0,1.2-0.4,2.1-1.1,2.9S239,25.9,237.8,25.9z M237.9,19.4c-0.7,0-1.2,0.2-1.6,0.7
		c-0.4,0.5-0.6,1.1-0.6,1.9c0,0.8,0.2,1.4,0.6,1.8c0.4,0.4,0.9,0.7,1.6,0.7c0.7,0,1.2-0.2,1.5-0.7s0.5-1.1,0.5-1.9
		c0-0.8-0.2-1.5-0.5-1.9S238.6,19.4,237.9,19.4z"/>
	<path class="st1" d="M250.2,25.7h-1.5v-5.5c-0.1,0.2-0.2,0.5-0.4,0.8l-3.1,4.7h-1.7v-7.5h1.5v5.4c0.1-0.1,0.2-0.3,0.3-0.7l3.2-4.7
		h1.7V25.7z M249.7,14.7c-0.1,0.7-0.4,1.3-0.9,1.7c-0.5,0.4-1.2,0.6-2,0.6c-0.8,0-1.5-0.2-2-0.6s-0.8-1-0.8-1.7h1.4
		c0.1,0.9,0.5,1.3,1.4,1.3c0.4,0,0.7-0.1,1-0.3s0.4-0.6,0.5-1H249.7z"/>
	<path class="st1" d="M256,25.5v-1.4c0.6,0.3,1.4,0.5,2.2,0.5c1.2,0,1.8-0.4,1.8-1.1s-0.7-1.1-2.1-1.1h-0.7v-1.2h0.7
		c1.2,0,1.9-0.3,1.9-1c0-0.3-0.1-0.5-0.4-0.7c-0.3-0.2-0.6-0.3-1.1-0.3c-0.7,0-1.4,0.2-2.1,0.5v-1.3c0.8-0.3,1.6-0.4,2.3-0.4
		c2,0,3,0.7,3,2c0,0.4-0.1,0.8-0.4,1.1c-0.3,0.3-0.7,0.5-1.2,0.6v0c0.6,0,1,0.2,1.4,0.6c0.3,0.3,0.5,0.7,0.5,1.2
		c0,0.7-0.3,1.2-0.9,1.6c-0.6,0.4-1.4,0.6-2.4,0.6S256.5,25.8,256,25.5z"/>
	<path class="st1" d="M269.1,25.7h-1.6v-1.2h0c-0.5,0.9-1.3,1.3-2.3,1.3c-0.7,0-1.3-0.2-1.7-0.6c-0.4-0.4-0.6-0.9-0.6-1.6
		c0-1.4,0.8-2.2,2.4-2.5l2.2-0.3c0-1.1-0.5-1.6-1.5-1.6c-0.9,0-1.7,0.3-2.4,0.9v-1.5c0.8-0.5,1.7-0.7,2.7-0.7c1.9,0,2.8,0.9,2.8,2.8
		V25.7z M267.5,22.1l-1.6,0.2c-0.5,0.1-0.8,0.2-1.1,0.4c-0.2,0.2-0.4,0.5-0.4,0.9c0,0.3,0.1,0.6,0.3,0.8c0.2,0.2,0.5,0.3,0.9,0.3
		c0.5,0,0.9-0.2,1.3-0.5c0.3-0.4,0.5-0.8,0.5-1.4V22.1z"/>
	<path class="st1" d="M277.8,25.7h-1.7v-6.2h-3.2v6.2h-1.7v-7.5h6.6V25.7z"/>
	<path class="st1" d="M286.8,25.7h-1.5v-5.5c-0.1,0.2-0.2,0.5-0.4,0.8l-3.1,4.7H280v-7.5h1.5v5.4c0.1-0.1,0.2-0.3,0.3-0.7l3.2-4.7
		h1.7V25.7z"/>
	<path class="st1" d="M294.3,25.4c-0.6,0.3-1.3,0.5-2.1,0.5c-1.1,0-2-0.3-2.7-1c-0.7-0.7-1-1.6-1-2.7c0-1.2,0.4-2.2,1.1-3
		c0.7-0.7,1.7-1.1,2.9-1.1c0.7,0,1.3,0.1,1.8,0.4V20c-0.5-0.4-1.1-0.6-1.7-0.6c-0.7,0-1.3,0.2-1.8,0.7c-0.5,0.5-0.7,1.1-0.7,1.9
		c0,0.8,0.2,1.4,0.6,1.8c0.4,0.4,1,0.7,1.7,0.7c0.6,0,1.2-0.2,1.7-0.6V25.4z"/>
	<path class="st1" d="M302.7,25.7h-1.5v-5.5c-0.1,0.2-0.2,0.5-0.4,0.8l-3.1,4.7H296v-7.5h1.5v5.4c0.1-0.1,0.2-0.3,0.3-0.7l3.2-4.7
		h1.7V25.7z"/>
	<path class="st1" d="M320.4,25.7h-1.7V19c0-0.6,0-1.2,0.1-2h0c-0.1,0.5-0.2,0.8-0.3,1l-3.1,7.8h-1.2l-3.1-7.7
		c-0.1-0.2-0.2-0.6-0.3-1h0c0,0.4,0.1,1.1,0.1,2v6.7h-1.6V15.3h2.4l2.7,6.9c0.2,0.5,0.3,0.9,0.4,1.2h0c0.2-0.5,0.3-1,0.4-1.2
		l2.8-6.9h2.3V25.7z"/>
	<path class="st1" d="M328.5,25.7h-1.6v-1.2h0c-0.5,0.9-1.3,1.3-2.3,1.3c-0.7,0-1.3-0.2-1.7-0.6c-0.4-0.4-0.6-0.9-0.6-1.6
		c0-1.4,0.8-2.2,2.4-2.5l2.2-0.3c0-1.1-0.5-1.6-1.5-1.6c-0.9,0-1.7,0.3-2.4,0.9v-1.5c0.8-0.5,1.7-0.7,2.7-0.7c1.9,0,2.8,0.9,2.8,2.8
		V25.7z M326.9,22.1l-1.6,0.2c-0.5,0.1-0.8,0.2-1.1,0.4c-0.2,0.2-0.4,0.5-0.4,0.9c0,0.3,0.1,0.6,0.3,0.8c0.2,0.2,0.5,0.3,0.9,0.3
		c0.5,0,0.9-0.2,1.3-0.5c0.3-0.4,0.5-0.8,0.5-1.4V22.1z"/>
	<path class="st1" d="M337.3,25.7h-1.5v-5.5c-0.1,0.2-0.2,0.5-0.4,0.8l-3.1,4.7h-1.7v-7.5h1.5v5.4c0.1-0.1,0.2-0.3,0.3-0.7l3.2-4.7
		h1.7V25.7z M336.9,14.7c-0.1,0.7-0.4,1.3-0.9,1.7c-0.5,0.4-1.2,0.6-2,0.6c-0.8,0-1.5-0.2-2-0.6s-0.8-1-0.8-1.7h1.4
		c0.1,0.9,0.5,1.3,1.4,1.3c0.4,0,0.7-0.1,1-0.3s0.4-0.6,0.5-1H336.9z"/>
	<path class="st1" d="M346.3,25.7h-2.1l-2.9-3.6h0v3.6h-1.7v-7.5h1.7v3.4h0l2.7-3.4h2.1l-3.1,3.6L346.3,25.7z"/>
	<path class="st1" d="M349.1,24.6L349.1,24.6l0,4.5h-1.7V18.3h1.7v1.3h0c0.6-1,1.4-1.5,2.5-1.5c0.9,0,1.7,0.3,2.2,1
		c0.5,0.7,0.8,1.6,0.8,2.7c0,1.2-0.3,2.2-0.9,3s-1.4,1.1-2.4,1.1C350.3,25.9,349.6,25.5,349.1,24.6z M349,21.7v0.9
		c0,0.5,0.2,1,0.5,1.4c0.3,0.4,0.8,0.6,1.3,0.6c0.6,0,1.1-0.2,1.5-0.7s0.5-1.2,0.5-2c0-0.7-0.2-1.3-0.5-1.7
		c-0.3-0.4-0.8-0.6-1.3-0.6c-0.6,0-1.1,0.2-1.5,0.6S349,21,349,21.7z"/>
	<path class="st1" d="M359.7,25.9c-1.1,0-2.1-0.3-2.8-1c-0.7-0.7-1-1.6-1-2.8c0-1.3,0.4-2.2,1.1-2.9c0.7-0.7,1.7-1.1,2.9-1.1
		c1.2,0,2.1,0.3,2.7,1c0.7,0.7,1,1.6,1,2.8c0,1.2-0.4,2.1-1.1,2.9S360.8,25.9,359.7,25.9z M359.7,19.4c-0.7,0-1.2,0.2-1.6,0.7
		c-0.4,0.5-0.6,1.1-0.6,1.9c0,0.8,0.2,1.4,0.6,1.8c0.4,0.4,0.9,0.7,1.6,0.7c0.7,0,1.2-0.2,1.5-0.7s0.5-1.1,0.5-1.9
		c0-0.8-0.2-1.5-0.5-1.9S360.4,19.4,359.7,19.4z"/>
	<path class="st1" d="M370.6,25.4c-0.6,0.3-1.3,0.5-2.1,0.5c-1.1,0-2-0.3-2.7-1c-0.7-0.7-1-1.6-1-2.7c0-1.2,0.4-2.2,1.1-3
		c0.7-0.7,1.7-1.1,2.9-1.1c0.7,0,1.3,0.1,1.8,0.4V20c-0.5-0.4-1.1-0.6-1.7-0.6c-0.7,0-1.3,0.2-1.8,0.7c-0.5,0.5-0.7,1.1-0.7,1.9
		c0,0.8,0.2,1.4,0.6,1.8c0.4,0.4,1,0.7,1.7,0.7c0.6,0,1.2-0.2,1.7-0.6V25.4z"/>
	<path class="st1" d="M375.6,25.9c-1.1,0-2.1-0.3-2.8-1c-0.7-0.7-1-1.6-1-2.8c0-1.3,0.4-2.2,1.1-2.9c0.7-0.7,1.7-1.1,2.9-1.1
		c1.2,0,2.1,0.3,2.7,1c0.7,0.7,1,1.6,1,2.8c0,1.2-0.4,2.1-1.1,2.9S376.7,25.9,375.6,25.9z M375.6,19.4c-0.7,0-1.2,0.2-1.6,0.7
		c-0.4,0.5-0.6,1.1-0.6,1.9c0,0.8,0.2,1.4,0.6,1.8c0.4,0.4,0.9,0.7,1.6,0.7c0.7,0,1.2-0.2,1.5-0.7s0.5-1.1,0.5-1.9
		c0-0.8-0.2-1.5-0.5-1.9S376.3,19.4,375.6,19.4z"/>
	<path class="st1" d="M386.3,25.8v3.3h-1.6v-3.3h-0.2c-1.1,0-2.1-0.3-2.8-1s-1.1-1.6-1.1-2.7c0-1.2,0.4-2.1,1.1-2.9s1.6-1.1,2.8-1.1
		h0.2v-3h1.6v3h0.2c1.2,0,2.1,0.4,2.8,1.1c0.7,0.7,1.1,1.7,1.1,2.9c0,1.1-0.3,2-1,2.7c-0.7,0.7-1.6,1-2.7,1H386.3z M384.7,24.6v-5.2
		h-0.2c-0.7,0-1.2,0.2-1.6,0.7c-0.4,0.5-0.6,1.1-0.6,1.9c0,0.8,0.2,1.4,0.6,1.8c0.4,0.5,0.9,0.7,1.6,0.7H384.7z M386.3,19.4v5.2h0.1
		c0.7,0,1.2-0.2,1.6-0.7c0.4-0.5,0.6-1.1,0.6-1.9c0-0.8-0.2-1.5-0.6-1.9s-0.9-0.7-1.6-0.7H386.3z"/>
	<path class="st1" d="M396.9,19.6h-2.1v6.1H393v-6.1h-2.1v-1.3h6V19.6z"/>
</g>
</svg>
