<?xml version="1.0" encoding="utf-8"?>
<!-- Generator: Adobe Illustrator 22.1.0, SVG Export Plug-In . SVG Version: 6.00 Build 0)  -->
<svg version="1.1" id="Layer_1" xmlns="http://www.w3.org/2000/svg" xmlns:xlink="http://www.w3.org/1999/xlink" x="0px" y="0px"
	 viewBox="0 0 104 41" style="enable-background:new 0 0 104 41;" xml:space="preserve">
<style type="text/css">
	.st0{enable-background:new    ;}
	.st1{fill:#FFFFFF;}
</style>
<image style="overflow:visible;enable-background:new    ;" width="104" height="41" id="Background" xlink:href="66EC6078.jpg" >
</image>
<g id="Войти" class="st0">
	<path class="st1" d="M46.2,25.3V15.2h3.2c1,0,1.7,0.2,2.3,0.6c0.6,0.4,0.9,1,0.9,1.7c0,0.6-0.2,1.1-0.5,1.5
		c-0.3,0.4-0.8,0.7-1.3,0.9v0c0.7,0.1,1.2,0.3,1.7,0.8s0.6,1,0.6,1.7c0,0.9-0.3,1.6-1,2.1s-1.5,0.8-2.6,0.8H46.2z M47.9,16.6v2.9H49
		c0.6,0,1-0.1,1.4-0.4c0.3-0.3,0.5-0.7,0.5-1.2c0-0.9-0.6-1.3-1.7-1.3H47.9z M47.9,20.8V24h1.4c0.6,0,1.1-0.1,1.4-0.4
		s0.5-0.7,0.5-1.2c0-1-0.7-1.6-2.2-1.6H47.9z"/>
	<path class="st1" d="M58,25.5c-1.1,0-2-0.3-2.7-1c-0.7-0.7-1-1.6-1-2.7c0-1.2,0.3-2.2,1-2.8s1.6-1,2.8-1c1.1,0,2,0.3,2.6,1
		s0.9,1.6,0.9,2.7c0,1.1-0.3,2.1-1,2.8C60,25.1,59.1,25.5,58,25.5z M58,19.3c-0.6,0-1.1,0.2-1.5,0.7C56.1,20.4,56,21,56,21.8
		c0,0.8,0.2,1.3,0.6,1.8s0.9,0.7,1.5,0.7c0.6,0,1.1-0.2,1.5-0.6s0.5-1,0.5-1.8c0-0.8-0.2-1.4-0.5-1.8C59.2,19.5,58.7,19.3,58,19.3z"
		/>
	<path class="st1" d="M69.9,25.3h-1.5V20c-0.1,0.2-0.2,0.4-0.4,0.8l-3,4.5h-1.6v-7.2h1.5v5.2c0.1-0.1,0.2-0.3,0.3-0.6l3.1-4.5h1.6
		V25.3z M69.4,14.7c-0.1,0.7-0.4,1.3-0.9,1.7c-0.5,0.4-1.1,0.6-1.9,0.6c-0.8,0-1.4-0.2-1.9-0.6c-0.5-0.4-0.8-1-0.8-1.7h1.4
		c0.1,0.9,0.5,1.3,1.4,1.3c0.4,0,0.7-0.1,0.9-0.3c0.2-0.2,0.4-0.5,0.5-0.9H69.4z"/>
	<path class="st1" d="M76.9,19.4h-2.1v5.9h-1.6v-5.9h-2.1v-1.3h5.8V19.4z"/>
	<path class="st1" d="M84.8,25.3h-1.5V20c-0.1,0.2-0.2,0.4-0.4,0.8l-3,4.5h-1.6v-7.2h1.5v5.2c0.1-0.1,0.2-0.3,0.3-0.6l3.1-4.5h1.6
		V25.3z"/>
</g>
</svg>
