<svg xmlns="http://www.w3.org/2000/svg" xmlns:xlink="http://www.w3.org/1999/xlink" viewBox="0 0 240.5 395.47"><defs><style>.cls-1{fill:#fff;}.cls-2,.cls-3,.cls-9{fill:#3c3c41;}.cls-2{opacity:0.05;}.cls-2,.cls-9{isolation:isolate;}.cls-4{fill:url(#linear-gradient);}.cls-5{fill:url(#linear-gradient-2);}.cls-6{fill:url(#linear-gradient-3);}.cls-7{fill:#50e6ff;}.cls-8{fill:#1490df;}.cls-9{opacity:0.25;}.cls-10{fill:url(#linear-gradient-4);}.cls-11{fill:url(#linear-gradient-5);}.cls-12{fill:#b4ec36;}.cls-13{fill:#5ea0ef;}.cls-14{fill:url(#linear-gradient-6);}.cls-15{fill:#c3f1ff;}.cls-16{fill:#9cebff;}.cls-17{fill:url(#linear-gradient-7);}.cls-18{fill:url(#linear-gradient-8);}.cls-19{fill:url(#linear-gradient-9);}.cls-20{fill:url(#linear-gradient-10);}.cls-21{fill:url(#linear-gradient-11);}.cls-22{fill:none;stroke:#3c3c41;stroke-miterlimit:10;}.cls-23{fill:url(#linear-gradient-12);}.cls-24{fill:url(#linear-gradient-13);}.cls-25{fill:url(#linear-gradient-14);}.cls-26{fill:url(#linear-gradient-15);}.cls-27{fill:url(#linear-gradient-16);}.cls-28{fill:url(#linear-gradient-17);}.cls-29{fill:url(#linear-gradient-18);}.cls-30{fill:#1e1e1e;}</style><linearGradient id="linear-gradient" x1="21.67" y1="639.04" x2="24.04" y2="641.41" gradientTransform="translate(2.11 -270.55) rotate(-0.08)" gradientUnits="userSpaceOnUse"><stop offset="0" stop-color="#86d633"/><stop offset="0.24" stop-color="#83d232"/><stop offset="0.5" stop-color="#7cc52f"/><stop offset="0.76" stop-color="#6fb02a"/><stop offset="1" stop-color="#5e9624"/></linearGradient><linearGradient id="linear-gradient-2" x1="16.33" y1="639.04" x2="18.69" y2="641.41" xlink:href="#linear-gradient"/><linearGradient id="linear-gradient-3" x1="10.99" y1="639.04" x2="13.35" y2="641.4" xlink:href="#linear-gradient"/><linearGradient id="linear-gradient-4" x1="149.14" y1="265.29" x2="149.14" y2="301.06" gradientTransform="translate(0 -269.39)" gradientUnits="userSpaceOnUse"><stop offset="0.18" stop-color="#5ea0ef"/><stop offset="1" stop-color="#0078d4"/></linearGradient><linearGradient id="linear-gradient-5" x1="149.14" y1="380.98" x2="149.14" y2="343.89" gradientTransform="translate(0 -269.39)" gradientUnits="userSpaceOnUse"><stop offset="0" stop-color="#5e9624"/><stop offset="0.02" stop-color="#5f9724"/><stop offset="1" stop-color="#76bc2d"/></linearGradient><linearGradient id="linear-gradient-6" x1="148.74" y1="438.34" x2="148.74" y2="416.7" gradientTransform="translate(0 -269.39)" gradientUnits="userSpaceOnUse"><stop offset="0" stop-color="#0078d4"/><stop offset="0.82" stop-color="#5ea0ef"/></linearGradient><linearGradient id="linear-gradient-7" x1="148.74" y1="446.7" x2="148.74" y2="438.34" gradientTransform="translate(0 -269.39)" gradientUnits="userSpaceOnUse"><stop offset="0.15" stop-color="#ccc"/><stop offset="1" stop-color="#707070"/></linearGradient><linearGradient id="linear-gradient-8" x1="96.24" y1="438.34" x2="96.24" y2="416.7" xlink:href="#linear-gradient-6"/><linearGradient id="linear-gradient-9" x1="96.24" y1="446.7" x2="96.24" y2="438.34" xlink:href="#linear-gradient-7"/><linearGradient id="linear-gradient-10" x1="201.24" y1="438.34" x2="201.24" y2="416.7" xlink:href="#linear-gradient-6"/><linearGradient id="linear-gradient-11" x1="201.24" y1="446.7" x2="201.24" y2="438.34" xlink:href="#linear-gradient-7"/><linearGradient id="linear-gradient-12" x1="149.14" y1="533.3" x2="149.14" y2="496.2" xlink:href="#linear-gradient-5"/><linearGradient id="linear-gradient-13" x1="148.74" y1="588.34" x2="148.74" y2="566.7" xlink:href="#linear-gradient-6"/><linearGradient id="linear-gradient-14" x1="148.74" y1="596.7" x2="148.74" y2="588.34" xlink:href="#linear-gradient-7"/><linearGradient id="linear-gradient-15" x1="96.24" y1="588.34" x2="96.24" y2="566.7" xlink:href="#linear-gradient-6"/><linearGradient id="linear-gradient-16" x1="96.24" y1="596.7" x2="96.24" y2="588.34" xlink:href="#linear-gradient-7"/><linearGradient id="linear-gradient-17" x1="201.24" y1="588.34" x2="201.24" y2="566.7" xlink:href="#linear-gradient-6"/><linearGradient id="linear-gradient-18" x1="201.24" y1="596.7" x2="201.24" y2="588.34" xlink:href="#linear-gradient-7"/></defs><g id="shapes"><rect class="cls-1" width="240.5" height="395.47"/><rect class="cls-1" x="0.5" y="64.8" width="240" height="305" rx="5"/><rect class="cls-2" x="0.5" y="64.8" width="240" height="305" rx="5"/><path class="cls-3" d="M234.34,370.3h-1v-1h1Zm-3,0h-1v-1h1Zm-3,0h-1v-1h1Zm-3,0h-1v-1h1Zm-3,0h-1v-1h1Zm-3,0h-1v-1h1Zm-3,0h-1v-1h1Zm-3,0h-1v-1h1Zm-3,0h-1v-1h1Zm-3,0h-1v-1h1Zm-3,0h-1v-1h1Zm-3,0h-1v-1h1Zm-3,0h-1v-1h1Zm-3,0h-1v-1h1Zm-3,0h-1v-1h1Zm-3,0h-1v-1h1Zm-3,0h-1v-1h1Zm-3,0h-1v-1h1Zm-3,0h-1v-1h1Zm-3,0h-1v-1h1Zm-3,0h-1v-1h1Zm-3,0h-1v-1h1Zm-3,0h-1v-1h1Zm-3,0h-1v-1h1Zm-3,0h-1v-1h1Zm-3,0h-1v-1h1Zm-3,0h-1v-1h1Zm-3,0h-1v-1h1Zm-3,0h-1v-1h1Zm-3,0h-1v-1h1Zm-3,0h-1v-1h1Zm-3,0h-1v-1h1Zm-3,0h-1v-1h1Zm-3,0h-1v-1h1Zm-3,0h-1v-1h1Zm-3,0h-1v-1h1Zm-3,0h-1v-1h1Zm-3,0h-1v-1h1Zm-3,0h-1v-1h1Zm-3,0h-1v-1h1Zm-3,0h-1v-1h1Zm-3,0h-1v-1h1Zm-3,0h-1v-1h1Zm-3,0h-1v-1h1Zm-3,0h-1v-1h1Zm-3,0h-1v-1h1Zm-3,0h-1v-1h1Zm-3,0h-1v-1h1Zm-3,0h-1v-1h1Zm-3,0h-1v-1h1Zm-3,0h-1v-1h1Zm-3,0h-1v-1h1Zm-3,0h-1v-1h1Zm-3,0h-1v-1h1Zm-3,0h-1v-1h1Zm-3,0h-1v-1h1Zm-3,0h-1v-1h1Zm-3,0h-1v-1h1Zm-3,0h-1v-1h1Zm-3,0h-1v-1h1Zm-3,0h-1v-1h1Zm-3,0h-1v-1h1Zm-3,0h-1v-1h1Zm-3,0h-1v-1h1Zm-3,0h-1v-1h1Zm-3,0h-1v-1h1Zm-3,0h-1v-1h1Zm-30,0H5.5a4,4,0,0,1-.49,0l.09-1h1Zm230.36-.07-.16-1a4.4,4.4,0,0,0,.86-.24l.36.93a5.37,5.37,0,0,1-1.06.3ZM2.91,369.65A6,6,0,0,1,2,369l.64-.77a4.26,4.26,0,0,0,.75.5Zm236.41-.9-.69-.72a4.82,4.82,0,0,0,.58-.69l.82.57a5.64,5.64,0,0,1-.71.84ZM.63,367.34a5.09,5.09,0,0,1-.42-1l1-.27a4.48,4.48,0,0,0,.33.83Zm240.26-1.44-1-.2a4.58,4.58,0,0,0,.09-.9l1-.05v.05A5.78,5.78,0,0,1,240.89,365.9ZM1,364.2H0v-1H1Zm240-1.46h-1v-1h1ZM1,361.2H0v-1H1Zm240-1.46h-1v-1h1ZM1,358.19H0v-1H1Zm240-1.45h-1v-1h1ZM1,355.19H0v-1H1Zm240-1.46h-1v-1h1ZM1,352.19H0v-1H1Zm240-1.46h-1v-1h1ZM1,349.18H0v-1H1Zm240-1.46h-1v-1h1ZM1,346.18H0v-1H1Zm240-1.46h-1v-1h1ZM1,343.17H0v-1H1Zm240-1.45h-1v-1h1ZM1,340.17H0v-1H1Zm240-1.46h-1v-1h1ZM1,337.17H0v-1H1Zm240-1.46h-1v-1h1ZM1,334.16H0v-1H1Zm240-1.46h-1v-1h1ZM1,331.16H0v-1H1Zm240-1.46h-1v-1h1ZM1,328.16H0v-1H1Zm240-1.46h-1v-1h1ZM1,325.15H0v-1H1Zm240-1.46h-1v-1h1ZM1,322.15H0v-1H1Zm240-1.46h-1v-1h1ZM1,319.14H0v-1H1Zm240-1.45h-1v-1h1ZM1,316.14H0v-1H1Zm240-1.46h-1v-1h1ZM1,313.14H0v-1H1Zm240-1.46h-1v-1h1ZM1,310.13H0v-1H1Zm240-1.46h-1v-1h1ZM1,307.13H0v-1H1Zm240-1.46h-1v-1h1ZM1,304.13H0v-1H1Zm240-1.46h-1v-1h1ZM1,301.12H0v-1H1Zm240-1.46h-1v-1h1ZM1,298.12H0v-1H1Zm240-1.46h-1v-1h1ZM1,295.11H0v-1H1Zm240-1.45h-1v-1h1ZM1,292.11H0v-1H1Zm240-1.46h-1v-1h1ZM1,289.11H0v-1H1Zm240-1.46h-1v-1h1ZM1,286.1H0v-1H1Zm240-1.46h-1v-1h1ZM1,283.1H0v-1H1Zm240-1.46h-1v-1h1ZM1,280.1H0v-1H1Zm240-1.46h-1v-1h1ZM1,277.09H0v-1H1Zm240-1.46h-1v-1h1ZM1,274.09H0v-1H1Zm240-1.46h-1v-1h1ZM1,271.08H0v-1H1Zm240-1.45h-1v-1h1ZM1,268.08H0v-1H1Zm240-1.46h-1v-1h1ZM1,265.08H0v-1H1Zm240-1.46h-1v-1h1ZM1,262.07H0v-1H1Zm240-1.45h-1v-1h1ZM1,259.07H0v-1H1Zm240-1.46h-1v-1h1ZM1,256.07H0v-1H1Zm240-1.46h-1v-1h1ZM1,253.06H0v-1H1Zm240-1.46h-1v-1h1ZM1,250.06H0v-1H1Zm240-1.46h-1v-1h1ZM1,247.05H0v-1H1Zm240-1.45h-1v-1h1ZM1,244.05H0v-1H1Zm240-1.46h-1v-1h1ZM1,241.05H0v-1H1Zm240-1.46h-1v-1h1ZM1,238H0v-1H1Zm240-1.46h-1v-1h1ZM1,235H0v-1H1Zm240-1.46h-1v-1h1ZM1,232H0v-1H1Zm240-1.46h-1v-1h1ZM1,229H0v-1H1Zm240-1.46h-1v-1h1ZM1,226H0v-1H1Zm240-1.46h-1v-1h1ZM1,223H0v-1H1Zm240-1.45h-1v-1h1ZM1,220H0v-1H1Zm240-1.46h-1v-1h1ZM1,217H0v-1H1Zm240-1.46h-1v-1h1ZM1,214H0v-1H1Zm240-1.45h-1v-1h1ZM1,211H0v-1H1Zm240-1.46h-1v-1h1ZM1,208H0v-1H1Zm240-1.46h-1v-1h1ZM1,205H0v-1H1Zm240-1.46h-1v-1h1ZM1,202H0v-1H1Zm240-1.46h-1v-1h1ZM1,199H0v-1H1Zm240-1.45h-1v-1h1ZM1,196H0v-1H1Zm240-1.46h-1v-1h1ZM1,193H0v-1H1Zm240-1.46h-1v-1h1ZM1,190H0v-1H1Zm240-1.46h-1v-1h1ZM1,187H0v-1H1Zm240-1.46h-1v-1h1ZM1,184H0v-1H1Zm240-1.46h-1v-1h1ZM1,181H0v-1H1Zm240-1.46h-1v-1h1ZM1,178H0v-1H1Zm240-1.46h-1v-1h1ZM1,175H0v-1H1Zm240-1.45h-1v-1h1ZM1,172H0v-1H1Zm240-1.46h-1v-1h1ZM1,169H0v-1H1Zm240-1.46h-1v-1h1ZM1,166H0v-1H1Zm240-1.45h-1v-1h1ZM1,163H0v-1H1Zm240-1.46h-1v-1h1ZM1,160H0v-1H1Zm240-1.46h-1v-1h1ZM1,156.94H0v-1H1Zm240-1.46h-1v-1h1ZM1,153.94H0v-1H1Zm240-1.46h-1v-1h1ZM1,150.93H0v-1H1Zm240-1.45h-1v-1h1ZM1,147.93H0v-1H1Zm240-1.46h-1v-1h1ZM1,144.93H0v-1H1Zm240-1.46h-1v-1h1ZM1,141.92H0v-1H1Zm240-1.46h-1v-1h1ZM1,138.92H0v-1H1Zm240-1.46h-1v-1h1ZM1,135.92H0v-1H1Zm240-1.46h-1v-1h1ZM1,132.91H0v-1H1Zm240-1.46h-1v-1h1ZM1,129.91H0v-1H1Zm240-1.46h-1v-1h1ZM1,126.9H0v-1H1Zm240-1.45h-1v-1h1ZM1,123.9H0v-1H1Zm240-1.46h-1v-1h1ZM1,120.9H0v-1H1Zm240-1.46h-1v-1h1ZM1,117.89H0v-1H1Zm240-1.46h-1v-1h1ZM1,114.89H0v-1H1Zm240-1.46h-1v-1h1ZM1,111.89H0v-1H1Zm240-1.46h-1v-1h1ZM1,108.88H0v-1H1Zm240-1.46h-1v-1h1ZM1,105.88H0v-1H1Zm240-1.46h-1v-1h1ZM1,102.87H0v-1H1Zm240-1.45h-1v-1h1ZM1,99.87H0v-1H1Zm240-1.46h-1v-1h1ZM1,96.87H0v-1H1Zm240-1.46h-1v-1h1ZM1,93.86H0v-1H1ZM241,92.4h-1v-1h1ZM1,90.86H0v-1H1ZM241,89.4h-1v-1h1ZM1,87.86H0v-1H1ZM241,86.4h-1v-1h1ZM1,84.85H0v-1H1Zm240-1.46h-1v-1h1ZM1,81.85H0v-1H1Zm240-1.46h-1v-1h1ZM1,78.84H0v-1H1Zm240-1.45h-1v-1h1ZM1,75.84H0v-1H1Zm240-1.46h-1v-1h1ZM1,72.84H0v-1H1Zm240-1.46h-1v-1h1ZM0,69.83v0a5.44,5.44,0,0,1,.1-1.06l1,.2A4.91,4.91,0,0,0,1,69.8Zm239.82-1.29a5.09,5.09,0,0,0-.34-.84l.88-.46a6,6,0,0,1,.42,1Zm-238-1.25L1,66.72a6.24,6.24,0,0,1,.7-.84l.7.71A5.45,5.45,0,0,0,1.78,67.29Zm236.56-1a4.26,4.26,0,0,0-.75-.5l.47-.88a5,5,0,0,1,.91.61ZM3.86,65.62l-.37-.93a4.84,4.84,0,0,1,1-.3l.18,1A4.06,4.06,0,0,0,3.86,65.62Zm232-.3-.37,0h-.59v-1h.59l.46,0Zm-3,0h-1v-1h1Zm-3,0h-1v-1h1Zm-3,0h-1v-1h1Zm-3,0h-1v-1h1Zm-3,0h-1v-1h1Zm-3,0h-1v-1h1Zm-3,0h-1v-1h1Zm-3,0h-1v-1h1Zm-3,0h-1v-1h1Zm-3,0h-1v-1h1Zm-3,0h-1v-1h1Zm-3,0h-1v-1h1Zm-3,0h-1v-1h1Zm-3,0h-1v-1h1Zm-3,0h-1v-1h1Zm-3,0h-1v-1h1Zm-3,0h-1v-1h1Zm-3,0h-1v-1h1Zm-3,0h-1v-1h1Zm-3,0h-1v-1h1Zm-3,0h-1v-1h1Zm-3,0h-1v-1h1Zm-3,0h-1v-1h1Zm-3,0h-1v-1h1Zm-3,0h-1v-1h1Zm-3,0h-1v-1h1Zm-3,0h-1v-1h1Zm-3,0h-1v-1h1Zm-3,0h-1v-1h1Zm-3,0h-1v-1h1Zm-3,0h-1v-1h1Zm-3,0h-1v-1h1Zm-3,0h-1v-1h1Zm-3,0h-1v-1h1Zm-3,0h-1v-1h1Zm-3,0h-1v-1h1Zm-3,0h-1v-1h1Zm-3,0h-1v-1h1Zm-3,0h-1v-1h1Zm-3,0h-1v-1h1Zm-3,0h-1v-1h1Zm-3,0h-1v-1h1Zm-3,0h-1v-1h1Zm-3,0h-1v-1h1Zm-3,0h-1v-1h1Zm-3,0h-1v-1h1Zm-3,0h-1v-1h1Zm-3,0h-1v-1h1Zm-3,0h-1v-1h1Zm-3,0h-1v-1h1Zm-3,0h-1v-1h1Zm-3,0h-1v-1h1Zm-3,0h-1v-1h1Zm-3,0h-1v-1h1Zm-3,0h-1v-1h1Zm-3,0h-1v-1h1Zm-3,0h-1v-1h1Zm-3,0h-1v-1h1Zm-3,0h-1v-1h1Zm-3,0h-1v-1h1Zm-3,0h-1v-1h1Zm-3,0h-1v-1h1Zm-3,0h-1v-1h1Zm-3,0h-1v-1h1Zm-3,0h-1v-1h1Zm-3,0h-1v-1h1Zm-3,0h-1v-1h1Zm-3,0h-1v-1h1Zm-3,0h-1v-1h1Zm-3,0h-1v-1h1Zm-3,0h-1v-1h1Zm-3,0h-1v-1h1Zm-3,0h-1v-1h1Zm-3,0h-1v-1h1Zm-3,0h-1v-1h1Zm-3,0h-1v-1h1Z"/><circle class="cls-4" cx="25.86" cy="369.64" r="1.67"/><circle class="cls-5" cx="20.52" cy="369.65" r="1.67"/><circle class="cls-6" cx="15.18" cy="369.65" r="1.67"/><path class="cls-7" d="M16.39,376.35l-1,1a.44.44,0,0,1-.62,0h0l-7.09-7.07a.87.87,0,0,1,0-1.23h0l.95-1h0l7.71,7.69a.43.43,0,0,1,0,.61Z"/><path class="cls-8" d="M15.29,362l1,1a.43.43,0,0,1,0,.61l-7.57,7.6h0l-1-1a.87.87,0,0,1,0-1.22h0l7-7A.43.43,0,0,1,15.29,362Z"/><path class="cls-7" d="M32.24,368l1,1a.86.86,0,0,1,0,1.22h0l-7.1,7.08a.43.43,0,0,1-.61,0h0l-1-1a.43.43,0,0,1,0-.61h0L32.24,368Z"/><path class="cls-8" d="M33.2,370.21l-1,1h0l-7.58-7.6a.43.43,0,0,1,0-.61h0l1-1a.44.44,0,0,1,.61,0h0l7,7a.86.86,0,0,1,0,1.22h0Z"/><rect class="cls-1" x="10" y="139.3" width="220" height="65"/><rect class="cls-9" x="10" y="139.3" width="220" height="65"/><path class="cls-10" d="M167,17.85a8.16,8.16,0,0,0-7-7.91A10.26,10.26,0,0,0,149.59,0a10.52,10.52,0,0,0-9.94,7,9.67,9.67,0,0,0-8.4,9.45A10,10,0,0,0,141.34,26H159A8.25,8.25,0,0,0,167,17.85Z"/><path class="cls-11" d="M133.47,91.54l14.91-14.91a1.05,1.05,0,0,1,1.51,0l0,0,14.91,14.91a1.07,1.07,0,0,1,0,1.51l0,0L149.89,108a1.08,1.08,0,0,1-1.49,0L133.47,93.07a1.06,1.06,0,0,1,0-1.51Z"/><path class="cls-12" d="M153.05,83.42l-3.76-3.75a.21.21,0,0,0-.29,0l-3.77,3.75a.18.18,0,0,0,0,.24.22.22,0,0,0,.2.08h2.2a.19.19,0,0,1,.2.19v3.56a.19.19,0,0,0,.19.19h2.35a.19.19,0,0,0,.19-.19V83.93a.19.19,0,0,1,.2-.19h2.2a.19.19,0,0,0,.22-.13.16.16,0,0,0-.08-.19Z"/><path class="cls-12" d="M140.26,88.06l-3.74,3.78a.2.2,0,0,0,0,.27l3.74,3.75a.19.19,0,0,0,.27,0,.18.18,0,0,0,.06-.15V93.53a.2.2,0,0,1,.2-.2h3.55a.17.17,0,0,0,.18-.17V90.79a.18.18,0,0,0-.06-.24l-.06,0h-3.56a.18.18,0,0,1-.19-.16V88.2a.21.21,0,0,0-.13-.27A.2.2,0,0,0,140.26,88.06Z"/><path class="cls-12" d="M158.17,95.86,162,92.09a.2.2,0,0,0,0-.27l-3.79-3.76a.19.19,0,0,0-.27,0,.22.22,0,0,0-.05.12v2.22a.18.18,0,0,1-.17.18H154.1a.18.18,0,0,0-.18.17h0v2.37a.19.19,0,0,0,.16.19h3.58a.19.19,0,0,1,.19.2h0v2.2a.19.19,0,0,0,.22.17A.18.18,0,0,0,158.17,95.86Z"/><path class="cls-1" d="M154.1,92.3a5,5,0,1,0-6.29,4.75v1.69a3.05,3.05,0,1,0,2.79,0V97A4.92,4.92,0,0,0,154.1,92.3Z"/><circle id="e99c3387-15c3-4f28-bd4b-cb209b430e06" class="cls-13" cx="149.16" cy="92.29" r="2.88"/><rect class="cls-14" x="132.5" y="147.3" width="32.47" height="21.65" rx="1.08"/><polygon class="cls-7" points="154.15 154.97 154.15 161.27 148.74 164.44 148.74 158.13 154.15 154.97"/><polygon class="cls-15" points="154.15 154.97 148.74 158.15 143.32 154.97 148.74 151.81 154.15 154.97"/><polygon class="cls-16" points="148.74 158.15 148.74 164.44 143.32 161.27 143.32 154.97 148.74 158.15"/><polygon class="cls-15" points="143.32 161.27 148.74 158.13 148.74 164.44 143.32 161.27"/><polygon class="cls-16" points="154.15 161.27 148.74 158.13 148.74 164.44 154.15 161.27"/><path class="cls-17" d="M155.25,175.5c-3.21-.51-3.34-2.81-3.34-6.55h-6.37c0,3.74-.11,6-3.32,6.55a1.8,1.8,0,0,0-1.6,1.8h16.23A1.79,1.79,0,0,0,155.25,175.5Z"/><rect class="cls-18" x="80" y="147.3" width="32.47" height="21.65" rx="1.08"/><polygon class="cls-7" points="101.65 154.97 101.65 161.27 96.24 164.44 96.24 158.13 101.65 154.97"/><polygon class="cls-15" points="101.65 154.97 96.24 158.15 90.82 154.97 96.24 151.81 101.65 154.97"/><polygon class="cls-16" points="96.24 158.15 96.24 164.44 90.82 161.27 90.82 154.97 96.24 158.15"/><polygon class="cls-15" points="90.82 161.27 96.24 158.13 96.24 164.44 90.82 161.27"/><polygon class="cls-16" points="101.65 161.27 96.24 158.13 96.24 164.44 101.65 161.27"/><path class="cls-19" d="M102.75,175.5c-3.21-.51-3.34-2.81-3.34-6.55H93c0,3.74-.11,6-3.32,6.55a1.8,1.8,0,0,0-1.6,1.8h16.23A1.79,1.79,0,0,0,102.75,175.5Z"/><rect class="cls-20" x="185" y="147.3" width="32.47" height="21.65" rx="1.08"/><polygon class="cls-7" points="206.65 154.97 206.65 161.27 201.24 164.44 201.24 158.13 206.65 154.97"/><polygon class="cls-15" points="206.65 154.97 201.24 158.15 195.82 154.97 201.24 151.81 206.65 154.97"/><polygon class="cls-16" points="201.24 158.15 201.24 164.44 195.82 161.27 195.82 154.97 201.24 158.15"/><polygon class="cls-15" points="195.82 161.27 201.24 158.13 201.24 164.44 195.82 161.27"/><polygon class="cls-16" points="206.65 161.27 201.24 158.13 201.24 164.44 206.65 161.27"/><path class="cls-21" d="M207.75,175.5c-3.21-.51-3.34-2.81-3.34-6.55H198c0,3.74-.11,6-3.32,6.55a1.8,1.8,0,0,0-1.6,1.8h16.23A1.79,1.79,0,0,0,207.75,175.5Z"/><line class="cls-22" x1="149.14" y1="29.3" x2="149.14" y2="41.8"/><line class="cls-22" x1="149.14" y1="59.3" x2="149.14" y2="73.3"/><path class="cls-23" d="M133.47,243.86l14.91-14.92a1.07,1.07,0,0,1,1.51,0l0,0,14.91,14.92a1.06,1.06,0,0,1,0,1.5l0,0-14.93,14.94a1.08,1.08,0,0,1-1.49,0l-14.93-14.94a1.05,1.05,0,0,1,0-1.5h0Z"/><path class="cls-12" d="M153.05,235.73,149.29,232a.23.23,0,0,0-.29,0l-3.77,3.75a.18.18,0,0,0,.15.32h2.2a.2.2,0,0,1,.2.2v3.55a.19.19,0,0,0,.19.2h2.35a.19.19,0,0,0,.19-.2v-3.55a.2.2,0,0,1,.2-.2h2.2a.18.18,0,0,0,.22-.13.17.17,0,0,0-.08-.19Z"/><path class="cls-12" d="M140.26,240.37l-3.74,3.79a.19.19,0,0,0,0,.26l3.74,3.76a.19.19,0,0,0,.27,0,.17.17,0,0,0,.06-.15v-2.18a.2.2,0,0,1,.2-.2h3.55a.18.18,0,0,0,.18-.18h0v-2.35a.17.17,0,0,0-.06-.24s0,0-.06,0h-3.56a.18.18,0,0,1-.19-.16v-2.17a.2.2,0,0,0-.13-.26.2.2,0,0,0-.26.12Z"/><path class="cls-12" d="M158.17,248.18l3.79-3.77a.2.2,0,0,0,0-.27l-3.79-3.77a.18.18,0,0,0-.27,0,.16.16,0,0,0-.05.11v2.23a.18.18,0,0,1-.17.17H154.1a.18.18,0,0,0-.18.18h0v2.37a.19.19,0,0,0,.16.19h3.58a.19.19,0,0,1,.19.2h0v2.2a.2.2,0,0,0,.22.17l.1,0Z"/><path class="cls-1" d="M154.1,244.62a5,5,0,1,0-6.29,4.75v1.68a3,3,0,1,0,2.79,0v-1.77A4.92,4.92,0,0,0,154.1,244.62Z"/><circle id="e99c3387-15c3-4f28-bd4b-cb209b430e06-2" class="cls-13" cx="149.16" cy="244.6" r="2.88"/><line class="cls-22" x1="149.14" y1="197.12" x2="149.14" y2="226.44"/><line class="cls-22" x1="149.14" y1="132.69" x2="149.14" y2="144.8"/><line class="cls-22" x1="149.14" y1="112.99" x2="149.14" y2="121.66"/><path class="cls-22" d="M100.91,128.09l-2.45,1a4.62,4.62,0,0,0-2.44,4V144.8"/><line class="cls-22" x1="143.96" y1="110.3" x2="115.93" y2="121.88"/><path class="cls-22" d="M144,228.79l-25.25-10.43-5.55-2.29-9.48-3.92L98.46,210A4.6,4.6,0,0,1,96,206v-8.86"/><path class="cls-22" d="M156,228.79l25.26-10.43,5.54-2.29,9.48-3.92L201.5,210a4.58,4.58,0,0,0,2.44-4v-8.86"/><path class="cls-22" d="M199.05,128.09l2.45,1a4.6,4.6,0,0,1,2.44,4V144.8"/><line class="cls-22" x1="156" y1="110.3" x2="184.03" y2="121.88"/><rect class="cls-1" x="10" y="289.3" width="220" height="65"/><rect class="cls-9" x="10" y="289.3" width="220" height="65"/><rect class="cls-24" x="132.5" y="297.3" width="32.47" height="21.65" rx="1.08"/><polygon class="cls-7" points="154.15 304.97 154.15 311.27 148.74 314.44 148.74 308.13 154.15 304.97"/><polygon class="cls-15" points="154.15 304.97 148.74 308.14 143.32 304.97 148.74 301.81 154.15 304.97"/><polygon class="cls-16" points="148.74 308.14 148.74 314.44 143.32 311.27 143.32 304.97 148.74 308.14"/><polygon class="cls-15" points="143.32 311.27 148.74 308.13 148.74 314.44 143.32 311.27"/><polygon class="cls-16" points="154.15 311.27 148.74 308.13 148.74 314.44 154.15 311.27"/><path class="cls-25" d="M155.25,325.5c-3.21-.51-3.34-2.81-3.34-6.55h-6.37c0,3.74-.11,6-3.32,6.55a1.8,1.8,0,0,0-1.6,1.8h16.23A1.79,1.79,0,0,0,155.25,325.5Z"/><rect class="cls-26" x="80" y="297.3" width="32.47" height="21.65" rx="1.08"/><polygon class="cls-7" points="101.65 304.97 101.65 311.27 96.24 314.44 96.24 308.13 101.65 304.97"/><polygon class="cls-15" points="101.65 304.97 96.24 308.14 90.82 304.97 96.24 301.81 101.65 304.97"/><polygon class="cls-16" points="96.24 308.14 96.24 314.44 90.82 311.27 90.82 304.97 96.24 308.14"/><polygon class="cls-15" points="90.82 311.27 96.24 308.13 96.24 314.44 90.82 311.27"/><polygon class="cls-16" points="101.65 311.27 96.24 308.13 96.24 314.44 101.65 311.27"/><path class="cls-27" d="M102.75,325.5c-3.21-.51-3.34-2.81-3.34-6.55H93c0,3.74-.11,6-3.32,6.55a1.8,1.8,0,0,0-1.6,1.8h16.23A1.79,1.79,0,0,0,102.75,325.5Z"/><rect class="cls-28" x="185" y="297.3" width="32.47" height="21.65" rx="1.08"/><polygon class="cls-7" points="206.65 304.97 206.65 311.27 201.24 314.44 201.24 308.13 206.65 304.97"/><polygon class="cls-15" points="206.65 304.97 201.24 308.14 195.82 304.97 201.24 301.81 206.65 304.97"/><polygon class="cls-16" points="201.24 308.14 201.24 314.44 195.82 311.27 195.82 304.97 201.24 308.14"/><polygon class="cls-15" points="195.82 311.27 201.24 308.13 201.24 314.44 195.82 311.27"/><polygon class="cls-16" points="206.65 311.27 201.24 308.13 201.24 314.44 206.65 311.27"/><path class="cls-29" d="M207.75,325.5c-3.21-.51-3.34-2.81-3.34-6.55H198c0,3.74-.11,6-3.32,6.55a1.8,1.8,0,0,0-1.6,1.8h16.23A1.79,1.79,0,0,0,207.75,325.5Z"/><line class="cls-22" x1="149.14" y1="284.6" x2="149.14" y2="296.71"/><line class="cls-22" x1="149.14" y1="262.1" x2="149.14" y2="272.71"/><path class="cls-22" d="M100.91,280l-2.45,1A4.6,4.6,0,0,0,96,285v11.69"/><line class="cls-22" x1="143.96" y1="262.21" x2="121.18" y2="271.62"/><path class="cls-22" d="M195.32,280l2.44,1a4.59,4.59,0,0,1,2.45,4v11.69"/><line class="cls-22" x1="152.27" y1="262.21" x2="175.04" y2="271.62"/></g><g id="text"><path class="cls-30" d="M8.31,391.14v-5.6h1.6a1.74,1.74,0,0,1,1.15.36,1.13,1.13,0,0,1,.42.92,1.36,1.36,0,0,1-.25.83,1.47,1.47,0,0,1-.71.5v0a1.39,1.39,0,0,1,.9.42,1.31,1.31,0,0,1,.34.94,1.49,1.49,0,0,1-.51,1.17,2,2,0,0,1-1.3.44Zm.66-5v1.81h.67a1.25,1.25,0,0,0,.85-.26.91.91,0,0,0,.31-.73c0-.54-.36-.82-1.08-.82Zm0,2.4v2h.89a1.38,1.38,0,0,0,.9-.27,1,1,0,0,0,.31-.75c0-.67-.45-1-1.35-1Z"/><path class="cls-30" d="M16.17,391.14h-.58V388a5.31,5.31,0,0,1-.26.47l-1.85,2.72h-.66v-4h.59v3.15c0-.07.1-.2.2-.38l1.9-2.77h.66Z"/><path class="cls-30" d="M18.13,390.56h0V393h-.64v-5.84h.64v.71h0a1.51,1.51,0,0,1,1.39-.8,1.46,1.46,0,0,1,1.2.54,2.19,2.19,0,0,1,.44,1.44,2.5,2.5,0,0,1-.49,1.6,1.62,1.62,0,0,1-1.34.61A1.34,1.34,0,0,1,18.13,390.56Zm0-1.61v.56a1.2,1.2,0,0,0,.32.84,1.14,1.14,0,0,0,1.73-.1A2,2,0,0,0,20.5,389a1.57,1.57,0,0,0-.31-1,1,1,0,0,0-.83-.38,1.12,1.12,0,0,0-.9.39A1.4,1.4,0,0,0,18.12,389Z"/><path class="cls-30" d="M24.7,387.69H23.5v3.45h-.64v-3.45h-1.2v-.55h3Z"/><path class="cls-30" d="M28.66,387.14l-1.84,4.64c-.33.83-.79,1.25-1.38,1.25A1.25,1.25,0,0,1,25,393v-.57a1.1,1.1,0,0,0,.38.07.8.8,0,0,0,.73-.58l.32-.76-1.57-4h.71l1.09,3.08s0,.14.08.31h0c0-.07,0-.17.08-.3L28,387.14Z"/><path class="cls-30" d="M32.22,391.14h-.64v-.62h0a1.34,1.34,0,0,1-1.23.72,1.3,1.3,0,0,1-.93-.32,1.08,1.08,0,0,1-.34-.84c0-.75.44-1.18,1.32-1.3l1.2-.17c0-.68-.28-1-.83-1a2,2,0,0,0-1.3.49v-.66a2.48,2.48,0,0,1,1.36-.37c.94,0,1.41.5,1.41,1.49Zm-.64-2-1,.13a1.64,1.64,0,0,0-.67.22.64.64,0,0,0-.22.56.63.63,0,0,0,.2.48.79.79,0,0,0,.56.19,1,1,0,0,0,.79-.34,1.16,1.16,0,0,0,.31-.84Z"/><path class="cls-30" d="M36.35,391.14h-.63v-3.45h-.93a8.3,8.3,0,0,1-.55,2.72,1.17,1.17,0,0,1-1.05.79.86.86,0,0,1-.34-.06v-.55a.6.6,0,0,0,.3.07c.57,0,.94-1.17,1.1-3.52h2.1Z"/><path class="cls-30" d="M37.66,391.14v-4h.64v1.54h1.08a1.37,1.37,0,0,1,1,.32,1.12,1.12,0,0,1,.36.89,1.21,1.21,0,0,1-.36.92,1.31,1.31,0,0,1-.92.33Zm.64-1.91v1.37h1c.53,0,.8-.24.8-.71s-.27-.66-.81-.66Z"/><path class="cls-30" d="M45,391.14h-.64v-1.81h-2v1.81H41.7v-4h.64v1.64h2v-1.64H45Z"/><path class="cls-30" d="M49.19,391.14h-.65v-.62h0a1.46,1.46,0,0,1-2.17.4,1.11,1.11,0,0,1-.34-.84c0-.75.44-1.18,1.33-1.3l1.19-.17c0-.68-.27-1-.82-1a1.93,1.93,0,0,0-1.3.49v-.66a2.44,2.44,0,0,1,1.35-.37c.94,0,1.42.5,1.42,1.49Zm-.65-2-1,.13a1.59,1.59,0,0,0-.67.22.64.64,0,0,0-.23.56.6.6,0,0,0,.21.48.78.78,0,0,0,.56.19,1,1,0,0,0,.78-.34,1.16,1.16,0,0,0,.31-.84Z"/><path class="cls-30" d="M53.13,391.14h-.64v-1.65H52c-.26,0-.49.2-.7.62l-.52,1H50l.68-1.23a1.15,1.15,0,0,1,.56-.57,1.07,1.07,0,0,1-.71-.34,1,1,0,0,1-.25-.71,1,1,0,0,1,.39-.84,1.69,1.69,0,0,1,1.08-.31h1.39ZM52.49,389v-1.26h-.75c-.54,0-.81.2-.81.61s.26.65.78.65Z"/><path class="cls-30" d="M59.36,391a2.14,2.14,0,0,1-1.1.28,1.82,1.82,0,0,1-1.38-.56,2,2,0,0,1-.52-1.44,2.25,2.25,0,0,1,.56-1.59,2,2,0,0,1,1.52-.6,2.12,2.12,0,0,1,.93.19v.66a1.64,1.64,0,0,0-1-.31,1.25,1.25,0,0,0-1,.44,1.67,1.67,0,0,0-.4,1.15,1.62,1.62,0,0,0,.37,1.11,1.29,1.29,0,0,0,1,.41,1.64,1.64,0,0,0,1-.35Z"/><path class="cls-30" d="M63.55,389.3H60.73a1.52,1.52,0,0,0,.35,1,1.23,1.23,0,0,0,1,.37,2,2,0,0,0,1.24-.45v.6a2.27,2.27,0,0,1-1.39.39,1.69,1.69,0,0,1-1.33-.55,2.54,2.54,0,0,1,0-3.05,1.7,1.7,0,0,1,1.31-.59,1.51,1.51,0,0,1,1.22.51,2.1,2.1,0,0,1,.43,1.41Zm-.66-.54a1.3,1.3,0,0,0-.26-.86.91.91,0,0,0-.74-.31,1.06,1.06,0,0,0-.77.32,1.5,1.5,0,0,0-.39.85Z"/><path class="cls-30" d="M67,387.69h-1.2v3.45H65.2v-3.45H64v-.55H67Z"/><path class="cls-30" d="M67.82,391.14v-4h.64v1.54h1.07a1.4,1.4,0,0,1,1,.32,1.12,1.12,0,0,1,.36.89,1.21,1.21,0,0,1-.36.92,1.33,1.33,0,0,1-.92.33Zm.64-1.91v1.37h1c.53,0,.79-.24.79-.71s-.26-.66-.8-.66Z"/><path class="cls-30" d="M126.54,335.8v-5.6h1.6a1.74,1.74,0,0,1,1.15.36,1.13,1.13,0,0,1,.42.92,1.36,1.36,0,0,1-.25.83,1.4,1.4,0,0,1-.71.5v0a1.41,1.41,0,0,1,.9.42,1.33,1.33,0,0,1,.34.94,1.49,1.49,0,0,1-.51,1.17,1.92,1.92,0,0,1-1.31.44Zm.66-5v1.8h.67a1.25,1.25,0,0,0,.85-.26.91.91,0,0,0,.31-.73q0-.81-1.08-.81Zm0,2.39v2h.89a1.38,1.38,0,0,0,.9-.27,1,1,0,0,0,.31-.75c0-.66-.45-1-1.35-1Z"/><path class="cls-30" d="M134.4,335.8h-.58v-3.19a5.31,5.31,0,0,1-.26.47l-1.85,2.72h-.66v-4h.59V335a2.4,2.4,0,0,1,.2-.39l1.9-2.77h.66Z"/><path class="cls-30" d="M136.36,335.23h0v2.41h-.64V331.8h.64v.71h0a1.53,1.53,0,0,1,1.39-.8,1.46,1.46,0,0,1,1.2.54,2.21,2.21,0,0,1,.44,1.44,2.48,2.48,0,0,1-.49,1.6,1.62,1.62,0,0,1-1.34.61A1.35,1.35,0,0,1,136.36,335.23Zm0-1.62v.56a1.16,1.16,0,0,0,.32.84,1.14,1.14,0,0,0,1.73-.1,2,2,0,0,0,.33-1.24,1.57,1.57,0,0,0-.31-1,1,1,0,0,0-.84-.38,1.11,1.11,0,0,0-.89.39A1.4,1.4,0,0,0,136.35,333.61Z"/><path class="cls-30" d="M142.93,332.35h-1.2v3.45h-.64v-3.45h-1.2v-.55h3Z"/><path class="cls-30" d="M146.89,331.8l-1.84,4.64c-.33.83-.79,1.25-1.38,1.25a1.61,1.61,0,0,1-.42-.05v-.58a1.1,1.1,0,0,0,.38.07.8.8,0,0,0,.73-.58l.32-.75-1.57-4h.71l1.09,3.08s0,.14.08.31h0a2.84,2.84,0,0,1,.08-.3l1.14-3.09Z"/><path class="cls-30" d="M150.45,335.8h-.64v-.62h0a1.34,1.34,0,0,1-1.23.72,1.3,1.3,0,0,1-.93-.32,1.08,1.08,0,0,1-.34-.84c0-.75.44-1.18,1.32-1.3l1.2-.17c0-.68-.28-1-.83-1a2,2,0,0,0-1.3.49v-.66a2.48,2.48,0,0,1,1.36-.37c.94,0,1.41.5,1.41,1.49Zm-.64-2-1,.13a1.81,1.81,0,0,0-.67.22.65.65,0,0,0-.22.56.59.59,0,0,0,.2.48.79.79,0,0,0,.56.19,1,1,0,0,0,.79-.34,1.16,1.16,0,0,0,.31-.84Z"/><path class="cls-30" d="M154.58,335.8H154v-3.45H153a8.3,8.3,0,0,1-.55,2.72,1.17,1.17,0,0,1-1.05.79.86.86,0,0,1-.34-.06v-.55a.6.6,0,0,0,.3.07c.57,0,.94-1.17,1.1-3.52h2.1Z"/><path class="cls-30" d="M155.89,335.8v-4h.64v1.54h1.08a1.44,1.44,0,0,1,1,.32,1.12,1.12,0,0,1,.36.89,1.21,1.21,0,0,1-.36.92,1.31,1.31,0,0,1-.92.33Zm.64-1.91v1.37h1c.53,0,.8-.24.8-.71s-.27-.66-.81-.66Z"/><path class="cls-30" d="M163.25,335.8h-.64V334h-2v1.81h-.64v-4h.64v1.64h2V331.8h.64Z"/><path class="cls-30" d="M167.41,335.8h-.64v-.62h0a1.46,1.46,0,0,1-2.17.4,1.11,1.11,0,0,1-.34-.84c0-.75.44-1.18,1.32-1.3l1.2-.17c0-.68-.27-1-.82-1a2,2,0,0,0-1.31.49v-.66a2.5,2.5,0,0,1,1.36-.37c.94,0,1.41.5,1.41,1.49Zm-.64-2-1,.13a1.74,1.74,0,0,0-.67.22.66.66,0,0,0-.23.56.6.6,0,0,0,.21.48.78.78,0,0,0,.56.19,1,1,0,0,0,.78-.34,1.16,1.16,0,0,0,.31-.84Z"/><path class="cls-30" d="M171.36,335.8h-.64v-1.65h-.53c-.26,0-.49.21-.7.62l-.52,1h-.75l.68-1.23a1.15,1.15,0,0,1,.56-.57,1.07,1.07,0,0,1-.71-.34,1,1,0,0,1-.25-.7,1,1,0,0,1,.39-.85,1.69,1.69,0,0,1,1.08-.31h1.39Zm-.64-2.19v-1.26H170c-.54,0-.81.2-.81.61s.26.65.78.65Z"/><path class="cls-30" d="M139.14,345.4h-.63v-3.29c-.06.16-.14.41-.26.73l-1,2.56h-.58l-1-2.56c-.06-.14-.14-.38-.27-.73v3.29h-.55v-4h.82l1.05,2.61c.08.19.18.46.29.79l.29-.77,1-2.63h.85Z"/><path class="cls-30" d="M143.31,345.4h-.64v-.62h0a1.35,1.35,0,0,1-1.24.72,1.31,1.31,0,0,1-.93-.32,1.08,1.08,0,0,1-.34-.84c0-.75.44-1.18,1.32-1.3l1.2-.17c0-.68-.27-1-.82-1a2,2,0,0,0-1.31.49v-.66a2.5,2.5,0,0,1,1.36-.37c.94,0,1.41.5,1.41,1.49Zm-.64-2-1,.13a1.69,1.69,0,0,0-.68.22.65.65,0,0,0-.22.56.6.6,0,0,0,.21.48.77.77,0,0,0,.55.19,1,1,0,0,0,.79-.34,1.16,1.16,0,0,0,.31-.84Z"/><path class="cls-30" d="M149.63,345.4h-5.1v-4h.64v3.46h1.59V341.4h.64v3.46H149V341.4h.64Z"/><path class="cls-30" d="M154.29,345.4h-.58v-3.19l-.26.47-1.85,2.72h-.67v-4h.59v3.16a3.68,3.68,0,0,1,.2-.39l1.9-2.77h.67Z"/><path class="cls-30" d="M158.91,345.4h-.64v-1.81h-2v1.81h-.64v-4h.64V343h2V341.4h.64Z"/><path class="cls-30" d="M163.08,345.4h-.64v-.62h0a1.34,1.34,0,0,1-1.23.72,1.3,1.3,0,0,1-.93-.32,1.08,1.08,0,0,1-.34-.84c0-.75.44-1.18,1.32-1.3l1.2-.17c0-.68-.28-1-.83-1a2,2,0,0,0-1.3.49v-.66a2.48,2.48,0,0,1,1.36-.37c.94,0,1.41.5,1.41,1.49Zm-.64-2-1,.13a1.64,1.64,0,0,0-.67.22.66.66,0,0,0-.23.56.6.6,0,0,0,.21.48.79.79,0,0,0,.56.19,1,1,0,0,0,.79-.34,1.21,1.21,0,0,0,.31-.84Z"/><path class="cls-30" d="M73.87,335.8v-5.6h1.6a1.74,1.74,0,0,1,1.15.36,1.13,1.13,0,0,1,.42.92,1.36,1.36,0,0,1-.25.83,1.39,1.39,0,0,1-.72.5v0a1.41,1.41,0,0,1,.91.42,1.33,1.33,0,0,1,.34.94,1.49,1.49,0,0,1-.51,1.17,1.92,1.92,0,0,1-1.31.44Zm.66-5v1.8h.67a1.25,1.25,0,0,0,.85-.26.91.91,0,0,0,.31-.73q0-.81-1.08-.81Zm0,2.39v2h.89a1.33,1.33,0,0,0,.89-.27.93.93,0,0,0,.32-.75c0-.66-.45-1-1.35-1Z"/><path class="cls-30" d="M81.73,335.8h-.58v-3.19a5.31,5.31,0,0,1-.26.47L79,335.8h-.66v-4H79V335a2.4,2.4,0,0,1,.2-.39l1.9-2.77h.66Z"/><path class="cls-30" d="M83.69,335.23h0v2.41H83V331.8h.64v.71h0a1.53,1.53,0,0,1,1.39-.8,1.46,1.46,0,0,1,1.2.54,2.21,2.21,0,0,1,.44,1.44,2.48,2.48,0,0,1-.49,1.6,1.62,1.62,0,0,1-1.34.61A1.35,1.35,0,0,1,83.69,335.23Zm0-1.62v.56A1.16,1.16,0,0,0,84,335a1.14,1.14,0,0,0,1.73-.1,2,2,0,0,0,.33-1.24,1.57,1.57,0,0,0-.31-1,1,1,0,0,0-.83-.38,1.12,1.12,0,0,0-.9.39A1.4,1.4,0,0,0,83.68,333.61Z"/><path class="cls-30" d="M90.26,332.35h-1.2v3.45h-.64v-3.45h-1.2v-.55h3Z"/><path class="cls-30" d="M94.22,331.8l-1.84,4.64c-.33.83-.79,1.25-1.38,1.25a1.61,1.61,0,0,1-.42-.05v-.58a1.1,1.1,0,0,0,.38.07.8.8,0,0,0,.73-.58l.32-.75-1.57-4h.71l1.09,3.08s0,.14.08.31h0a2.84,2.84,0,0,1,.08-.3l1.14-3.09Z"/><path class="cls-30" d="M97.78,335.8h-.64v-.62h0a1.34,1.34,0,0,1-1.23.72,1.3,1.3,0,0,1-.93-.32,1.08,1.08,0,0,1-.34-.84c0-.75.44-1.18,1.32-1.3l1.2-.17c0-.68-.28-1-.83-1a2,2,0,0,0-1.3.49v-.66a2.48,2.48,0,0,1,1.36-.37c.94,0,1.41.5,1.41,1.49Zm-.64-2-1,.13a1.81,1.81,0,0,0-.67.22.66.66,0,0,0-.23.56.6.6,0,0,0,.21.48.79.79,0,0,0,.56.19,1,1,0,0,0,.79-.34,1.21,1.21,0,0,0,.31-.84Z"/><path class="cls-30" d="M101.91,335.8h-.64v-3.45h-.92a8.3,8.3,0,0,1-.55,2.72,1.17,1.17,0,0,1-1,.79.86.86,0,0,1-.34-.06v-.55a.59.59,0,0,0,.29.07c.58,0,1-1.17,1.11-3.52h2.1Z"/><path class="cls-30" d="M103.22,335.8v-4h.64v1.54h1.08a1.44,1.44,0,0,1,1,.32,1.12,1.12,0,0,1,.36.89,1.21,1.21,0,0,1-.36.92,1.31,1.31,0,0,1-.92.33Zm.64-1.91v1.37h1c.53,0,.8-.24.8-.71s-.27-.66-.81-.66Z"/><path class="cls-30" d="M110.58,335.8h-.64V334h-2v1.81h-.64v-4h.64v1.64h2V331.8h.64Z"/><path class="cls-30" d="M114.74,335.8h-.64v-.62h0a1.46,1.46,0,0,1-2.17.4,1.11,1.11,0,0,1-.34-.84c0-.75.44-1.18,1.32-1.3l1.2-.17c0-.68-.27-1-.82-1a2,2,0,0,0-1.31.49v-.66a2.5,2.5,0,0,1,1.36-.37c.94,0,1.41.5,1.41,1.49Zm-.64-2-1,.13a1.74,1.74,0,0,0-.67.22.66.66,0,0,0-.23.56.6.6,0,0,0,.21.48.78.78,0,0,0,.56.19,1,1,0,0,0,.78-.34,1.16,1.16,0,0,0,.31-.84Z"/><path class="cls-30" d="M118.69,335.8h-.64v-1.65h-.53c-.26,0-.49.21-.71.62l-.51,1h-.75l.68-1.23a1.15,1.15,0,0,1,.56-.57,1.07,1.07,0,0,1-.71-.34,1,1,0,0,1-.25-.7,1,1,0,0,1,.39-.85,1.69,1.69,0,0,1,1.08-.31h1.39Zm-.64-2.19v-1.26h-.75c-.54,0-.81.2-.81.61s.26.65.78.65Z"/><path class="cls-30" d="M86.47,345.4h-.63v-3.29c-.06.16-.15.41-.26.73l-1,2.56H84l-1-2.56-.27-.73v3.29h-.55v-4H83L84,344c.08.19.18.46.29.79l.29-.77,1-2.63h.85Z"/><path class="cls-30" d="M90.64,345.4H90v-.62h0a1.35,1.35,0,0,1-1.24.72,1.31,1.31,0,0,1-.93-.32,1.08,1.08,0,0,1-.34-.84c0-.75.44-1.18,1.32-1.3l1.2-.17c0-.68-.27-1-.82-1a2,2,0,0,0-1.31.49v-.66a2.5,2.5,0,0,1,1.36-.37c.94,0,1.41.5,1.41,1.49Zm-.64-2-1,.13a1.69,1.69,0,0,0-.68.22.65.65,0,0,0-.22.56.6.6,0,0,0,.21.48.77.77,0,0,0,.55.19,1,1,0,0,0,.79-.34,1.16,1.16,0,0,0,.31-.84Z"/><path class="cls-30" d="M97,345.4h-5.1v-4h.64v3.46h1.59V341.4h.64v3.46h1.59V341.4H97Z"/><path class="cls-30" d="M101.61,345.4H101v-3.19l-.27.47-1.84,2.72h-.67v-4h.59v3.16a3.68,3.68,0,0,1,.2-.39l1.9-2.77h.66Z"/><path class="cls-30" d="M106.24,345.4h-.64v-1.81h-2v1.81h-.64v-4h.64V343h2V341.4h.64Z"/><path class="cls-30" d="M110.41,345.4h-.64v-.62h0a1.34,1.34,0,0,1-1.23.72,1.3,1.3,0,0,1-.93-.32,1.08,1.08,0,0,1-.34-.84c0-.75.44-1.18,1.32-1.3l1.2-.17c0-.68-.28-1-.83-1a2,2,0,0,0-1.3.49v-.66a2.45,2.45,0,0,1,1.36-.37c.94,0,1.41.5,1.41,1.49Zm-.64-2-1,.13a1.64,1.64,0,0,0-.67.22.66.66,0,0,0-.23.56.6.6,0,0,0,.21.48.79.79,0,0,0,.56.19,1,1,0,0,0,.79-.34,1.21,1.21,0,0,0,.31-.84Z"/><path class="cls-30" d="M105.16,272.54v3.69h.72v.59h-.72v1.32h-.64v-1.32h-2.63v-.55c.25-.28.49-.58.74-.89s.49-.63.72-.95.44-.65.63-1a7.59,7.59,0,0,0,.49-.92Zm-2.55,3.69h1.91v-2.74c-.19.34-.38.65-.55.92s-.34.51-.5.73-.31.41-.45.59Z"/><path class="cls-30" d="M109.48,272.54v3.69h.72v.59h-.72v1.32h-.64v-1.32h-2.63v-.55c.25-.28.49-.58.74-.89s.49-.63.72-.95.44-.65.63-1a7.59,7.59,0,0,0,.49-.92Zm-2.55,3.69h1.91v-2.74c-.19.34-.38.65-.55.92s-.34.51-.5.73-.31.41-.45.59Z"/><path class="cls-30" d="M114.2,276.55a1.74,1.74,0,0,1-.14.69,1.61,1.61,0,0,1-.4.53,1.91,1.91,0,0,1-.63.34,2.53,2.53,0,0,1-.8.12,2.34,2.34,0,0,1-1.27-.3v-.69a2,2,0,0,0,1.3.45,1.67,1.67,0,0,0,.52-.08,1.22,1.22,0,0,0,.41-.21,1,1,0,0,0,.35-.79c0-.73-.52-1.1-1.56-1.1h-.46V275H112c.92,0,1.38-.34,1.38-1s-.35-1-1-1a1.85,1.85,0,0,0-1.12.4v-.62a2.48,2.48,0,0,1,1.28-.32,1.81,1.81,0,0,1,.63.1,1.45,1.45,0,0,1,.49.27,1.3,1.3,0,0,1,.32.42,1.42,1.42,0,0,1,.11.55,1.37,1.37,0,0,1-1.12,1.42h0a2.17,2.17,0,0,1,.53.14,1.54,1.54,0,0,1,.42.28,1.46,1.46,0,0,1,.27.41A1.19,1.19,0,0,1,114.2,276.55Z"/><path class="cls-30" d="M146.11,277.59v3.7h.72v.59h-.72v1.31h-.64v-1.31h-2.63v-.56c.24-.27.49-.57.74-.88s.49-.63.72-1,.44-.64.63-1a7,7,0,0,0,.49-.93Zm-2.55,3.7h1.91v-2.74c-.19.34-.38.65-.55.91s-.34.52-.5.73l-.45.6Z"/><path class="cls-30" d="M150.43,277.59v3.7h.72v.59h-.72v1.31h-.64v-1.31h-2.63v-.56c.25-.27.49-.57.74-.88s.49-.63.72-1,.44-.64.63-1a7,7,0,0,0,.49-.93Zm-2.55,3.7h1.91v-2.74c-.19.34-.38.65-.55.91s-.34.52-.5.73l-.45.6Z"/><path class="cls-30" d="M155.15,281.61a1.74,1.74,0,0,1-.14.69,1.61,1.61,0,0,1-.41.53,1.77,1.77,0,0,1-.62.34,2.53,2.53,0,0,1-.8.12,2.34,2.34,0,0,1-1.27-.3v-.69a2,2,0,0,0,1.29.45,1.69,1.69,0,0,0,.53-.08,1.22,1.22,0,0,0,.41-.21,1.06,1.06,0,0,0,.26-.34,1.13,1.13,0,0,0,.09-.45c0-.73-.52-1.1-1.56-1.1h-.46V280h.44c.92,0,1.38-.35,1.38-1s-.35-1-1-1a1.79,1.79,0,0,0-1.12.4v-.62a2.48,2.48,0,0,1,1.28-.32,1.81,1.81,0,0,1,.63.1,1.29,1.29,0,0,1,.49.27,1.15,1.15,0,0,1,.31.42,1.25,1.25,0,0,1,.12.54,1.38,1.38,0,0,1-1.12,1.43h0a1.8,1.8,0,0,1,.53.14,1.35,1.35,0,0,1,.41.28,1.26,1.26,0,0,1,.28.4A1.27,1.27,0,0,1,155.15,281.61Z"/><path class="cls-30" d="M183.06,272.54v3.69h.72v.59h-.72v1.32h-.63v-1.32H179.8v-.55c.24-.28.49-.57.74-.89s.49-.63.72-.95.44-.65.63-1a9.31,9.31,0,0,0,.49-.92Zm-2.54,3.69h1.91v-2.74c-.19.34-.38.65-.55.92s-.34.51-.5.73-.31.41-.45.59Z"/><path class="cls-30" d="M187.38,272.54v3.69h.72v.59h-.72v1.32h-.63v-1.32h-2.63v-.55c.24-.28.49-.57.74-.89s.49-.63.72-.95.44-.65.63-1a9.31,9.31,0,0,0,.49-.92Zm-2.54,3.69h1.91v-2.74c-.19.34-.38.65-.55.92s-.34.51-.5.73-.31.41-.45.59Z"/><path class="cls-30" d="M192.11,276.55a1.58,1.58,0,0,1-.15.69,1.31,1.31,0,0,1-.4.53,1.77,1.77,0,0,1-.62.34,2.28,2.28,0,0,1-.8.12,2.38,2.38,0,0,1-1.28-.3v-.69a2,2,0,0,0,1.3.45,1.74,1.74,0,0,0,.53-.08,1.32,1.32,0,0,0,.41-.21,1,1,0,0,0,.35-.79c0-.73-.52-1.1-1.56-1.1h-.47V275h.44c.93,0,1.39-.34,1.39-1s-.35-1-1.06-1a1.84,1.84,0,0,0-1.11.4v-.62a2.47,2.47,0,0,1,1.27-.32,1.83,1.83,0,0,1,.64.1,1.77,1.77,0,0,1,.49.27,1.27,1.27,0,0,1,.31.42,1.26,1.26,0,0,1,.11.55,1.36,1.36,0,0,1-1.11,1.42h0a2.09,2.09,0,0,1,.52.14,1.62,1.62,0,0,1,.42.28,1.3,1.3,0,0,1,.28.41A1.36,1.36,0,0,1,192.11,276.55Z"/><path class="cls-30" d="M145.5,129.76a1.41,1.41,0,0,1,.07-.45,1.62,1.62,0,0,1,.2-.42,1.86,1.86,0,0,1,.33-.36,1.57,1.57,0,0,1,.44-.25,1.63,1.63,0,0,1-.58-.52,1.19,1.19,0,0,1-.22-.71,1.39,1.39,0,0,1,.12-.57,1.45,1.45,0,0,1,.33-.45,1.48,1.48,0,0,1,.5-.3,1.81,1.81,0,0,1,.63-.11,1.67,1.67,0,0,1,1.13.41,1.23,1.23,0,0,1,.32.46,1.31,1.31,0,0,1,.12.56,1.26,1.26,0,0,1-.21.71,1.9,1.9,0,0,1-.57.52,1.67,1.67,0,0,1,.43.25,1.8,1.8,0,0,1,.32.36,1.35,1.35,0,0,1,.2.42,1.41,1.41,0,0,1,.07.45,1.67,1.67,0,0,1-.13.67,1.59,1.59,0,0,1-.37.52,1.74,1.74,0,0,1-.58.34,2.15,2.15,0,0,1-.73.12,2.11,2.11,0,0,1-.73-.12A1.85,1.85,0,0,1,146,131a1.59,1.59,0,0,1-.37-.52A1.67,1.67,0,0,1,145.5,129.76Zm.7-.06a1.16,1.16,0,0,0,.08.47,1.09,1.09,0,0,0,.22.36,1,1,0,0,0,.36.23,1.14,1.14,0,0,0,.46.08,1.25,1.25,0,0,0,.45-.08,1,1,0,0,0,.36-.23,1.13,1.13,0,0,0,.24-.36,1.4,1.4,0,0,0,.08-.47,1.27,1.27,0,0,0-.08-.44,1.05,1.05,0,0,0-.23-.36,1.24,1.24,0,0,0-.35-.25,1.19,1.19,0,0,0-.47-.09,1.13,1.13,0,0,0-.45.09,1,1,0,0,0-.35.23,1.09,1.09,0,0,0-.32.82Zm.2-2.6a.93.93,0,0,0,.27.67,1,1,0,0,0,.29.2,1,1,0,0,0,.72,0,1,1,0,0,0,.3-.2,1.21,1.21,0,0,0,.2-.3,1,1,0,0,0,0-.74.93.93,0,0,0-.2-.3,1,1,0,0,0-.29-.2,1.16,1.16,0,0,0-.37-.07,1,1,0,0,0-.38.08.84.84,0,0,0-.29.2.91.91,0,0,0-.19.3A1,1,0,0,0,146.4,127.1Z"/><path class="cls-30" d="M153.45,128.49a5.83,5.83,0,0,1-.12,1.25,3.1,3.1,0,0,1-.37.92,1.66,1.66,0,0,1-.59.56,1.6,1.6,0,0,1-.79.2,1.56,1.56,0,0,1-.76-.19,1.49,1.49,0,0,1-.55-.54,2.88,2.88,0,0,1-.35-.87,5.36,5.36,0,0,1-.11-1.19,6.32,6.32,0,0,1,.12-1.3,2.88,2.88,0,0,1,.36-.94,1.59,1.59,0,0,1,1.4-.77C152.87,125.62,153.45,126.58,153.45,128.49Zm-.65.07c0-1.6-.38-2.39-1.14-2.39s-1.2.81-1.2,2.43.39,2.27,1.18,2.27S152.8,130.1,152.8,128.56Z"/><path class="cls-30" d="M186.1,129.76a1.41,1.41,0,0,1,.07-.45,1.35,1.35,0,0,1,.2-.42,1.8,1.8,0,0,1,.32-.36,1.73,1.73,0,0,1,.44-.25,1.82,1.82,0,0,1-.58-.52,1.26,1.26,0,0,1-.21-.71,1.39,1.39,0,0,1,.12-.57,1.45,1.45,0,0,1,.33-.45,1.39,1.39,0,0,1,.5-.3,1.83,1.83,0,0,1,1.25,0,1.9,1.9,0,0,1,.5.3,1.39,1.39,0,0,1,.33.46,1.31,1.31,0,0,1,.12.56,1.19,1.19,0,0,1-.22.71,1.69,1.69,0,0,1-.57.52,1.73,1.73,0,0,1,.44.25,2.17,2.17,0,0,1,.32.36,2,2,0,0,1,.2.42,1.41,1.41,0,0,1,.07.45,1.86,1.86,0,0,1-.13.67,1.62,1.62,0,0,1-.38.52,1.8,1.8,0,0,1-.57.34,2.31,2.31,0,0,1-1.47,0,1.8,1.8,0,0,1-.57-.34,1.62,1.62,0,0,1-.38-.52A1.67,1.67,0,0,1,186.1,129.76Zm.69-.06a1.36,1.36,0,0,0,.08.47,1,1,0,0,0,.23.36.93.93,0,0,0,.35.23,1.19,1.19,0,0,0,.47.08,1.33,1.33,0,0,0,.45-.08,1,1,0,0,0,.59-.59,1.19,1.19,0,0,0,.09-.47,1.27,1.27,0,0,0-.08-.44,1.23,1.23,0,0,0-.23-.36,1.16,1.16,0,0,0-.36-.25,1.14,1.14,0,0,0-.46-.09,1.1,1.1,0,0,0-.45.09,1,1,0,0,0-.59.59A1.14,1.14,0,0,0,186.79,129.7Zm.2-2.6a.87.87,0,0,0,.07.37,1,1,0,0,0,.2.3,1.21,1.21,0,0,0,.3.2.86.86,0,0,0,.36.07.89.89,0,0,0,.36-.07,1,1,0,0,0,.29-.2,1,1,0,0,0,.2-.3.9.9,0,0,0,0-.74.77.77,0,0,0-.19-.3.92.92,0,0,0-.66-.27.92.92,0,0,0-.38.08.84.84,0,0,0-.29.2.77.77,0,0,0-.19.3A.86.86,0,0,0,187,127.1Z"/><path class="cls-30" d="M194.05,128.49a5.22,5.22,0,0,1-.13,1.25,2.85,2.85,0,0,1-.36.92,1.66,1.66,0,0,1-.59.56,1.64,1.64,0,0,1-.8.2,1.55,1.55,0,0,1-.75-.19,1.52,1.52,0,0,1-.56-.54,2.87,2.87,0,0,1-.34-.87,5.32,5.32,0,0,1-.12-1.19,6.32,6.32,0,0,1,.12-1.3,3.13,3.13,0,0,1,.37-.94,1.53,1.53,0,0,1,.59-.57,1.62,1.62,0,0,1,.81-.2C193.46,125.62,194.05,126.58,194.05,128.49Zm-.66.07c0-1.6-.38-2.39-1.13-2.39s-1.2.81-1.2,2.43.39,2.27,1.17,2.27S193.39,130.1,193.39,128.56Z"/><path class="cls-30" d="M105.8,129.76a1.76,1.76,0,0,1,.07-.45,1.65,1.65,0,0,1,.21-.42,1.53,1.53,0,0,1,.32-.36,1.73,1.73,0,0,1,.44-.25,1.72,1.72,0,0,1-.58-.52,1.26,1.26,0,0,1-.21-.71,1.39,1.39,0,0,1,.12-.57,1.31,1.31,0,0,1,.33-.45,1.39,1.39,0,0,1,.5-.3,1.83,1.83,0,0,1,1.25,0,1.9,1.9,0,0,1,.5.3,1.39,1.39,0,0,1,.33.46,1.3,1.3,0,0,1,.11.56,1.26,1.26,0,0,1-.21.71,1.69,1.69,0,0,1-.57.52,1.52,1.52,0,0,1,.43.25,1.86,1.86,0,0,1,.33.36,2,2,0,0,1,.2.42,1.76,1.76,0,0,1,.07.45,1.67,1.67,0,0,1-.14.67,1.46,1.46,0,0,1-.37.52,1.8,1.8,0,0,1-.57.34,2.21,2.21,0,0,1-.74.12,2.11,2.11,0,0,1-.73-.12,1.8,1.8,0,0,1-.57-.34,1.49,1.49,0,0,1-.38-.52A1.67,1.67,0,0,1,105.8,129.76Zm.7-.06a1.36,1.36,0,0,0,.08.47,1,1,0,0,0,.23.36.86.86,0,0,0,.35.23,1.17,1.17,0,0,0,.46.08,1.34,1.34,0,0,0,.46-.08,1.05,1.05,0,0,0,.36-.23,1.11,1.11,0,0,0,.23-.36,1.19,1.19,0,0,0,.08-.47,1.08,1.08,0,0,0-.08-.44,1.05,1.05,0,0,0-.23-.36,1,1,0,0,0-.35-.25,1.16,1.16,0,0,0-.47-.09,1,1,0,0,0-.44.09,1,1,0,0,0-.59.59A1.14,1.14,0,0,0,106.5,129.7Zm.2-2.6a.87.87,0,0,0,.07.37,1,1,0,0,0,.2.3.93.93,0,0,0,.3.2.84.84,0,0,0,.35.07A.94.94,0,0,0,108,128a1,1,0,0,0,.29-.2,1.21,1.21,0,0,0,.2-.3,1,1,0,0,0,0-.74.79.79,0,0,0-.2-.3,1,1,0,0,0-.29-.2,1.11,1.11,0,0,0-.37-.07.91.91,0,0,0-.37.08.88.88,0,0,0-.3.2.75.75,0,0,0-.18.3A.86.86,0,0,0,106.7,127.1Z"/><path class="cls-30" d="M113.76,128.49a5.78,5.78,0,0,1-.13,1.25,2.86,2.86,0,0,1-.37.92,1.61,1.61,0,0,1-1.38.76,1.55,1.55,0,0,1-.75-.19,1.52,1.52,0,0,1-.56-.54,2.64,2.64,0,0,1-.34-.87,5.32,5.32,0,0,1-.12-1.19,6.32,6.32,0,0,1,.12-1.3,2.88,2.88,0,0,1,.36-.94,1.62,1.62,0,0,1,1.41-.77C113.17,125.62,113.76,126.58,113.76,128.49Zm-.66.07c0-1.6-.38-2.39-1.14-2.39s-1.19.81-1.19,2.43.39,2.27,1.17,2.27S113.1,130.1,113.1,128.56Z"/><path class="cls-30" d="M178.87,335.8v-5.6h1.59a1.75,1.75,0,0,1,1.16.36,1.13,1.13,0,0,1,.42.92,1.36,1.36,0,0,1-.25.83,1.39,1.39,0,0,1-.72.5v0a1.41,1.41,0,0,1,.91.42,1.33,1.33,0,0,1,.34.94,1.46,1.46,0,0,1-.52,1.17,1.88,1.88,0,0,1-1.3.44Zm.66-5v1.8h.67a1.25,1.25,0,0,0,.85-.26.91.91,0,0,0,.31-.73q0-.81-1.08-.81Zm0,2.39v2h.89a1.33,1.33,0,0,0,.89-.27.93.93,0,0,0,.32-.75c0-.66-.45-1-1.35-1Z"/><path class="cls-30" d="M186.73,335.8h-.58v-3.19a5.31,5.31,0,0,1-.26.47L184,335.8h-.66v-4H184V335a4.41,4.41,0,0,1,.21-.39l1.9-2.77h.66Z"/><path class="cls-30" d="M188.69,335.23h0v2.41H188V331.8h.64v.71h0a1.53,1.53,0,0,1,1.39-.8,1.46,1.46,0,0,1,1.2.54,2.21,2.21,0,0,1,.44,1.44,2.48,2.48,0,0,1-.49,1.6,1.62,1.62,0,0,1-1.34.61A1.35,1.35,0,0,1,188.69,335.23Zm0-1.62v.56a1.16,1.16,0,0,0,.32.84,1.14,1.14,0,0,0,1.73-.1,2,2,0,0,0,.33-1.24,1.57,1.57,0,0,0-.31-1,1,1,0,0,0-.83-.38,1.12,1.12,0,0,0-.9.39A1.4,1.4,0,0,0,188.68,333.61Z"/><path class="cls-30" d="M195.26,332.35h-1.2v3.45h-.64v-3.45h-1.2v-.55h3Z"/><path class="cls-30" d="M199.22,331.8l-1.84,4.64c-.33.83-.79,1.25-1.38,1.25a1.61,1.61,0,0,1-.42-.05v-.58a1.1,1.1,0,0,0,.38.07.78.78,0,0,0,.72-.58l.32-.75-1.56-4h.71l1.09,3.08s0,.14.08.31h0a2.84,2.84,0,0,1,.08-.3l1.14-3.09Z"/><path class="cls-30" d="M202.78,335.8h-.64v-.62h0a1.34,1.34,0,0,1-1.23.72,1.3,1.3,0,0,1-.93-.32,1.08,1.08,0,0,1-.34-.84c0-.75.44-1.18,1.32-1.3l1.2-.17c0-.68-.28-1-.83-1a2,2,0,0,0-1.3.49v-.66a2.48,2.48,0,0,1,1.36-.37c.94,0,1.41.5,1.41,1.49Zm-.64-2-1,.13a1.81,1.81,0,0,0-.67.22.66.66,0,0,0-.23.56.6.6,0,0,0,.21.48.79.79,0,0,0,.56.19,1,1,0,0,0,.79-.34,1.21,1.21,0,0,0,.31-.84Z"/><path class="cls-30" d="M206.91,335.8h-.64v-3.45h-.93a8.09,8.09,0,0,1-.54,2.72,1.17,1.17,0,0,1-1.05.79.86.86,0,0,1-.34-.06v-.55a.59.59,0,0,0,.29.07c.58,0,1-1.17,1.11-3.52h2.1Z"/><path class="cls-30" d="M208.22,335.8v-4h.64v1.54h1.08a1.44,1.44,0,0,1,1,.32,1.12,1.12,0,0,1,.36.89,1.21,1.21,0,0,1-.36.92,1.31,1.31,0,0,1-.92.33Zm.64-1.91v1.37h1c.53,0,.8-.24.8-.71s-.27-.66-.81-.66Z"/><path class="cls-30" d="M215.58,335.8h-.64V334h-2v1.81h-.64v-4h.64v1.64h2V331.8h.64Z"/><path class="cls-30" d="M219.74,335.8h-.64v-.62h0a1.46,1.46,0,0,1-2.17.4,1.11,1.11,0,0,1-.34-.84c0-.75.44-1.18,1.32-1.3l1.2-.17c0-.68-.27-1-.82-1a2,2,0,0,0-1.31.49v-.66a2.5,2.5,0,0,1,1.36-.37c.94,0,1.41.5,1.41,1.49Zm-.64-2-1,.13a1.74,1.74,0,0,0-.67.22.66.66,0,0,0-.23.56.6.6,0,0,0,.21.48.78.78,0,0,0,.56.19,1,1,0,0,0,.78-.34,1.16,1.16,0,0,0,.31-.84Z"/><path class="cls-30" d="M223.69,335.8h-.64v-1.65h-.53c-.26,0-.49.21-.71.62l-.52,1h-.74l.67-1.23a1.2,1.2,0,0,1,.57-.57,1.07,1.07,0,0,1-.71-.34,1,1,0,0,1-.25-.7,1.05,1.05,0,0,1,.38-.85,1.73,1.73,0,0,1,1.08-.31h1.4Zm-.64-2.19v-1.26h-.76c-.53,0-.8.2-.8.61s.26.65.78.65Z"/><path class="cls-30" d="M191.47,345.4h-.63v-3.29c-.06.16-.15.41-.26.73l-1,2.56H189l-1-2.56-.27-.73v3.29h-.55v-4H188L189,344c.08.19.18.46.29.79l.29-.77,1-2.63h.85Z"/><path class="cls-30" d="M195.64,345.4H195v-.62h0a1.35,1.35,0,0,1-1.24.72,1.31,1.31,0,0,1-.93-.32,1.08,1.08,0,0,1-.34-.84c0-.75.44-1.18,1.32-1.3l1.2-.17c0-.68-.27-1-.82-1a2,2,0,0,0-1.31.49v-.66a2.48,2.48,0,0,1,1.36-.37c.94,0,1.41.5,1.41,1.49Zm-.64-2-1,.13a1.64,1.64,0,0,0-.68.22.65.65,0,0,0-.22.56.6.6,0,0,0,.21.48.77.77,0,0,0,.55.19,1,1,0,0,0,.79-.34,1.16,1.16,0,0,0,.31-.84Z"/><path class="cls-30" d="M202,345.4h-5.1v-4h.64v3.46h1.59V341.4h.64v3.46h1.59V341.4H202Z"/><path class="cls-30" d="M206.61,345.4H206v-3.19l-.27.47-1.84,2.72h-.67v-4h.59v3.16a3.68,3.68,0,0,1,.2-.39l1.9-2.77h.66Z"/><path class="cls-30" d="M211.24,345.4h-.64v-1.81h-2v1.81h-.64v-4h.64V343h2V341.4h.64Z"/><path class="cls-30" d="M215.41,345.4h-.64v-.62h0a1.34,1.34,0,0,1-1.23.72,1.3,1.3,0,0,1-.93-.32,1.08,1.08,0,0,1-.34-.84c0-.75.44-1.18,1.32-1.3l1.2-.17c0-.68-.28-1-.83-1a2,2,0,0,0-1.3.49v-.66a2.45,2.45,0,0,1,1.36-.37c.94,0,1.41.5,1.41,1.49Zm-.64-2-1,.13a1.64,1.64,0,0,0-.67.22.66.66,0,0,0-.23.56.6.6,0,0,0,.21.48.79.79,0,0,0,.56.19,1,1,0,0,0,.79-.34,1.21,1.21,0,0,0,.31-.84Z"/><path class="cls-30" d="M126.54,184.8v-5.6h1.6a1.74,1.74,0,0,1,1.15.36,1.13,1.13,0,0,1,.42.92,1.36,1.36,0,0,1-.25.83,1.4,1.4,0,0,1-.71.5v0a1.41,1.41,0,0,1,.9.42,1.33,1.33,0,0,1,.34.94,1.49,1.49,0,0,1-.51,1.17,1.92,1.92,0,0,1-1.31.44Zm.66-5v1.8h.67a1.25,1.25,0,0,0,.85-.26.91.91,0,0,0,.31-.73q0-.81-1.08-.81Zm0,2.39v2h.89a1.38,1.38,0,0,0,.9-.27,1,1,0,0,0,.31-.75c0-.66-.45-1-1.35-1Z"/><path class="cls-30" d="M134.4,184.8h-.58v-3.19a5.31,5.31,0,0,1-.26.47l-1.85,2.72h-.66v-4h.59V184a2.4,2.4,0,0,1,.2-.39l1.9-2.77h.66Z"/><path class="cls-30" d="M136.36,184.23h0v2.41h-.64V180.8h.64v.71h0a1.53,1.53,0,0,1,1.39-.8,1.46,1.46,0,0,1,1.2.54,2.21,2.21,0,0,1,.44,1.44,2.48,2.48,0,0,1-.49,1.6,1.62,1.62,0,0,1-1.34.61A1.35,1.35,0,0,1,136.36,184.23Zm0-1.62v.56a1.16,1.16,0,0,0,.32.84,1.14,1.14,0,0,0,1.73-.1,2,2,0,0,0,.33-1.24,1.57,1.57,0,0,0-.31-1,1,1,0,0,0-.84-.38,1.11,1.11,0,0,0-.89.39A1.4,1.4,0,0,0,136.35,182.61Z"/><path class="cls-30" d="M142.93,181.35h-1.2v3.45h-.64v-3.45h-1.2v-.55h3Z"/><path class="cls-30" d="M146.89,180.8l-1.84,4.64c-.33.83-.79,1.25-1.38,1.25a1.61,1.61,0,0,1-.42-.05v-.58a1.1,1.1,0,0,0,.38.07.8.8,0,0,0,.73-.58l.32-.75-1.57-4h.71l1.09,3.08s0,.14.08.31h0a2.84,2.84,0,0,1,.08-.3l1.14-3.09Z"/><path class="cls-30" d="M150.45,184.8h-.64v-.62h0a1.34,1.34,0,0,1-1.23.72,1.3,1.3,0,0,1-.93-.32,1.08,1.08,0,0,1-.34-.84c0-.75.44-1.18,1.32-1.3l1.2-.17c0-.68-.28-1-.83-1a2,2,0,0,0-1.3.49v-.66a2.48,2.48,0,0,1,1.36-.37c.94,0,1.41.5,1.41,1.49Zm-.64-2-1,.13a1.81,1.81,0,0,0-.67.22.65.65,0,0,0-.22.56.59.59,0,0,0,.2.48.79.79,0,0,0,.56.19,1,1,0,0,0,.79-.34,1.16,1.16,0,0,0,.31-.84Z"/><path class="cls-30" d="M154.58,184.8H154v-3.45H153a8.3,8.3,0,0,1-.55,2.72,1.17,1.17,0,0,1-1.05.79.86.86,0,0,1-.34-.06v-.55a.6.6,0,0,0,.3.07c.57,0,.94-1.17,1.1-3.52h2.1Z"/><path class="cls-30" d="M155.89,184.8v-4h.64v1.54h1.08a1.44,1.44,0,0,1,1,.32,1.12,1.12,0,0,1,.36.89,1.21,1.21,0,0,1-.36.92,1.31,1.31,0,0,1-.92.33Zm.64-1.91v1.37h1c.53,0,.8-.24.8-.71s-.27-.66-.81-.66Z"/><path class="cls-30" d="M163.25,184.8h-.64V183h-2v1.81h-.64v-4h.64v1.64h2V180.8h.64Z"/><path class="cls-30" d="M167.41,184.8h-.64v-.62h0a1.46,1.46,0,0,1-2.17.4,1.11,1.11,0,0,1-.34-.84c0-.75.44-1.18,1.32-1.3l1.2-.17c0-.68-.27-1-.82-1a2,2,0,0,0-1.31.49v-.66a2.5,2.5,0,0,1,1.36-.37c.94,0,1.41.5,1.41,1.49Zm-.64-2-1,.13a1.74,1.74,0,0,0-.67.22.66.66,0,0,0-.23.56.6.6,0,0,0,.21.48.78.78,0,0,0,.56.19,1,1,0,0,0,.78-.34,1.16,1.16,0,0,0,.31-.84Z"/><path class="cls-30" d="M171.36,184.8h-.64v-1.65h-.53c-.26,0-.49.21-.7.62l-.52,1h-.75l.68-1.23a1.15,1.15,0,0,1,.56-.57,1.07,1.07,0,0,1-.71-.34,1,1,0,0,1-.25-.7,1,1,0,0,1,.39-.85,1.69,1.69,0,0,1,1.08-.31h1.39Zm-.64-2.19v-1.26H170c-.54,0-.81.2-.81.61s.26.65.78.65Z"/><path class="cls-30" d="M139.14,194.4h-.63v-3.29c-.06.16-.14.41-.26.73l-1,2.56h-.58l-1-2.56c-.06-.14-.14-.38-.27-.73v3.29h-.55v-4h.82l1.05,2.61c.08.19.18.46.29.79l.29-.77,1-2.63h.85Z"/><path class="cls-30" d="M143.31,194.4h-.64v-.62h0a1.35,1.35,0,0,1-1.24.72,1.31,1.31,0,0,1-.93-.32,1.08,1.08,0,0,1-.34-.84c0-.75.44-1.18,1.32-1.3l1.2-.17c0-.68-.27-1-.82-1a2,2,0,0,0-1.31.49v-.66a2.5,2.5,0,0,1,1.36-.37c.94,0,1.41.5,1.41,1.49Zm-.64-2-1,.13a1.69,1.69,0,0,0-.68.22.65.65,0,0,0-.22.56.6.6,0,0,0,.21.48.77.77,0,0,0,.55.19,1,1,0,0,0,.79-.34,1.16,1.16,0,0,0,.31-.84Z"/><path class="cls-30" d="M149.63,194.4h-5.1v-4h.64v3.46h1.59V190.4h.64v3.46H149V190.4h.64Z"/><path class="cls-30" d="M154.29,194.4h-.58v-3.19l-.26.47-1.85,2.72h-.67v-4h.59v3.16a3.68,3.68,0,0,1,.2-.39l1.9-2.77h.67Z"/><path class="cls-30" d="M158.91,194.4h-.64v-1.81h-2v1.81h-.64v-4h.64V192h2V190.4h.64Z"/><path class="cls-30" d="M163.08,194.4h-.64v-.62h0a1.34,1.34,0,0,1-1.23.72,1.3,1.3,0,0,1-.93-.32,1.08,1.08,0,0,1-.34-.84c0-.75.44-1.18,1.32-1.3l1.2-.17c0-.68-.28-1-.83-1a2,2,0,0,0-1.3.49v-.66a2.48,2.48,0,0,1,1.36-.37c.94,0,1.41.5,1.41,1.49Zm-.64-2-1,.13a1.64,1.64,0,0,0-.67.22.66.66,0,0,0-.23.56.6.6,0,0,0,.21.48.79.79,0,0,0,.56.19,1,1,0,0,0,.79-.34,1.21,1.21,0,0,0,.31-.84Z"/><path class="cls-30" d="M73.87,184.8v-5.6h1.6a1.74,1.74,0,0,1,1.15.36,1.13,1.13,0,0,1,.42.92,1.36,1.36,0,0,1-.25.83,1.39,1.39,0,0,1-.72.5v0a1.41,1.41,0,0,1,.91.42,1.33,1.33,0,0,1,.34.94,1.49,1.49,0,0,1-.51,1.17,1.92,1.92,0,0,1-1.31.44Zm.66-5v1.8h.67a1.25,1.25,0,0,0,.85-.26.91.91,0,0,0,.31-.73q0-.81-1.08-.81Zm0,2.39v2h.89a1.33,1.33,0,0,0,.89-.27.93.93,0,0,0,.32-.75c0-.66-.45-1-1.35-1Z"/><path class="cls-30" d="M81.73,184.8h-.58v-3.19a5.31,5.31,0,0,1-.26.47L79,184.8h-.66v-4H79V184a2.4,2.4,0,0,1,.2-.39l1.9-2.77h.66Z"/><path class="cls-30" d="M83.69,184.23h0v2.41H83V180.8h.64v.71h0a1.53,1.53,0,0,1,1.39-.8,1.46,1.46,0,0,1,1.2.54,2.21,2.21,0,0,1,.44,1.44,2.48,2.48,0,0,1-.49,1.6,1.62,1.62,0,0,1-1.34.61A1.35,1.35,0,0,1,83.69,184.23Zm0-1.62v.56A1.16,1.16,0,0,0,84,184a1.14,1.14,0,0,0,1.73-.1,2,2,0,0,0,.33-1.24,1.57,1.57,0,0,0-.31-1,1,1,0,0,0-.83-.38,1.12,1.12,0,0,0-.9.39A1.4,1.4,0,0,0,83.68,182.61Z"/><path class="cls-30" d="M90.26,181.35h-1.2v3.45h-.64v-3.45h-1.2v-.55h3Z"/><path class="cls-30" d="M94.22,180.8l-1.84,4.64c-.33.83-.79,1.25-1.38,1.25a1.61,1.61,0,0,1-.42-.05v-.58a1.1,1.1,0,0,0,.38.07.8.8,0,0,0,.73-.58l.32-.75-1.57-4h.71l1.09,3.08s0,.14.08.31h0a2.84,2.84,0,0,1,.08-.3l1.14-3.09Z"/><path class="cls-30" d="M97.78,184.8h-.64v-.62h0a1.34,1.34,0,0,1-1.23.72,1.3,1.3,0,0,1-.93-.32,1.08,1.08,0,0,1-.34-.84c0-.75.44-1.18,1.32-1.3l1.2-.17c0-.68-.28-1-.83-1a2,2,0,0,0-1.3.49v-.66a2.48,2.48,0,0,1,1.36-.37c.94,0,1.41.5,1.41,1.49Zm-.64-2-1,.13a1.81,1.81,0,0,0-.67.22.66.66,0,0,0-.23.56.6.6,0,0,0,.21.48.79.79,0,0,0,.56.19,1,1,0,0,0,.79-.34,1.21,1.21,0,0,0,.31-.84Z"/><path class="cls-30" d="M101.91,184.8h-.64v-3.45h-.92a8.3,8.3,0,0,1-.55,2.72,1.17,1.17,0,0,1-1,.79.86.86,0,0,1-.34-.06v-.55a.59.59,0,0,0,.29.07c.58,0,1-1.17,1.11-3.52h2.1Z"/><path class="cls-30" d="M103.22,184.8v-4h.64v1.54h1.08a1.44,1.44,0,0,1,1,.32,1.12,1.12,0,0,1,.36.89,1.21,1.21,0,0,1-.36.92,1.31,1.31,0,0,1-.92.33Zm.64-1.91v1.37h1c.53,0,.8-.24.8-.71s-.27-.66-.81-.66Z"/><path class="cls-30" d="M110.58,184.8h-.64V183h-2v1.81h-.64v-4h.64v1.64h2V180.8h.64Z"/><path class="cls-30" d="M114.74,184.8h-.64v-.62h0a1.46,1.46,0,0,1-2.17.4,1.11,1.11,0,0,1-.34-.84c0-.75.44-1.18,1.32-1.3l1.2-.17c0-.68-.27-1-.82-1a2,2,0,0,0-1.31.49v-.66a2.5,2.5,0,0,1,1.36-.37c.94,0,1.41.5,1.41,1.49Zm-.64-2-1,.13a1.74,1.74,0,0,0-.67.22.66.66,0,0,0-.23.56.6.6,0,0,0,.21.48.78.78,0,0,0,.56.19,1,1,0,0,0,.78-.34,1.16,1.16,0,0,0,.31-.84Z"/><path class="cls-30" d="M118.69,184.8h-.64v-1.65h-.53c-.26,0-.49.21-.71.62l-.51,1h-.75l.68-1.23a1.15,1.15,0,0,1,.56-.57,1.07,1.07,0,0,1-.71-.34,1,1,0,0,1-.25-.7,1,1,0,0,1,.39-.85,1.69,1.69,0,0,1,1.08-.31h1.39Zm-.64-2.19v-1.26h-.75c-.54,0-.81.2-.81.61s.26.65.78.65Z"/><path class="cls-30" d="M86.47,194.4h-.63v-3.29c-.06.16-.15.41-.26.73l-1,2.56H84l-1-2.56-.27-.73v3.29h-.55v-4H83L84,193c.08.19.18.46.29.79l.29-.77,1-2.63h.85Z"/><path class="cls-30" d="M90.64,194.4H90v-.62h0a1.35,1.35,0,0,1-1.24.72,1.31,1.31,0,0,1-.93-.32,1.08,1.08,0,0,1-.34-.84c0-.75.44-1.18,1.32-1.3l1.2-.17c0-.68-.27-1-.82-1a2,2,0,0,0-1.31.49v-.66a2.5,2.5,0,0,1,1.36-.37c.94,0,1.41.5,1.41,1.49Zm-.64-2-1,.13a1.69,1.69,0,0,0-.68.22.65.65,0,0,0-.22.56.6.6,0,0,0,.21.48.77.77,0,0,0,.55.19,1,1,0,0,0,.79-.34,1.16,1.16,0,0,0,.31-.84Z"/><path class="cls-30" d="M97,194.4h-5.1v-4h.64v3.46h1.59V190.4h.64v3.46h1.59V190.4H97Z"/><path class="cls-30" d="M101.61,194.4H101v-3.19l-.27.47-1.84,2.72h-.67v-4h.59v3.16a3.68,3.68,0,0,1,.2-.39l1.9-2.77h.66Z"/><path class="cls-30" d="M106.24,194.4h-.64v-1.81h-2v1.81h-.64v-4h.64V192h2V190.4h.64Z"/><path class="cls-30" d="M110.41,194.4h-.64v-.62h0a1.34,1.34,0,0,1-1.23.72,1.3,1.3,0,0,1-.93-.32,1.08,1.08,0,0,1-.34-.84c0-.75.44-1.18,1.32-1.3l1.2-.17c0-.68-.28-1-.83-1a2,2,0,0,0-1.3.49v-.66a2.45,2.45,0,0,1,1.36-.37c.94,0,1.41.5,1.41,1.49Zm-.64-2-1,.13a1.64,1.64,0,0,0-.67.22.66.66,0,0,0-.23.56.6.6,0,0,0,.21.48.79.79,0,0,0,.56.19,1,1,0,0,0,.79-.34,1.21,1.21,0,0,0,.31-.84Z"/><path class="cls-30" d="M178.87,184.8v-5.6h1.59a1.75,1.75,0,0,1,1.16.36,1.13,1.13,0,0,1,.42.92,1.36,1.36,0,0,1-.25.83,1.39,1.39,0,0,1-.72.5v0a1.41,1.41,0,0,1,.91.42,1.33,1.33,0,0,1,.34.94,1.46,1.46,0,0,1-.52,1.17,1.88,1.88,0,0,1-1.3.44Zm.66-5v1.8h.67a1.25,1.25,0,0,0,.85-.26.91.91,0,0,0,.31-.73q0-.81-1.08-.81Zm0,2.39v2h.89a1.33,1.33,0,0,0,.89-.27.93.93,0,0,0,.32-.75c0-.66-.45-1-1.35-1Z"/><path class="cls-30" d="M186.73,184.8h-.58v-3.19a5.31,5.31,0,0,1-.26.47L184,184.8h-.66v-4H184V184a4.41,4.41,0,0,1,.21-.39l1.9-2.77h.66Z"/><path class="cls-30" d="M188.69,184.23h0v2.41H188V180.8h.64v.71h0a1.53,1.53,0,0,1,1.39-.8,1.46,1.46,0,0,1,1.2.54,2.21,2.21,0,0,1,.44,1.44,2.48,2.48,0,0,1-.49,1.6,1.62,1.62,0,0,1-1.34.61A1.35,1.35,0,0,1,188.69,184.23Zm0-1.62v.56a1.16,1.16,0,0,0,.32.84,1.14,1.14,0,0,0,1.73-.1,2,2,0,0,0,.33-1.24,1.57,1.57,0,0,0-.31-1,1,1,0,0,0-.83-.38,1.12,1.12,0,0,0-.9.39A1.4,1.4,0,0,0,188.68,182.61Z"/><path class="cls-30" d="M195.26,181.35h-1.2v3.45h-.64v-3.45h-1.2v-.55h3Z"/><path class="cls-30" d="M199.22,180.8l-1.84,4.64c-.33.83-.79,1.25-1.38,1.25a1.61,1.61,0,0,1-.42-.05v-.58a1.1,1.1,0,0,0,.38.07.78.78,0,0,0,.72-.58l.32-.75-1.56-4h.71l1.09,3.08s0,.14.08.31h0a2.84,2.84,0,0,1,.08-.3l1.14-3.09Z"/><path class="cls-30" d="M202.78,184.8h-.64v-.62h0a1.34,1.34,0,0,1-1.23.72,1.3,1.3,0,0,1-.93-.32,1.08,1.08,0,0,1-.34-.84c0-.75.44-1.18,1.32-1.3l1.2-.17c0-.68-.28-1-.83-1a2,2,0,0,0-1.3.49v-.66a2.48,2.48,0,0,1,1.36-.37c.94,0,1.41.5,1.41,1.49Zm-.64-2-1,.13a1.81,1.81,0,0,0-.67.22.66.66,0,0,0-.23.56.6.6,0,0,0,.21.48.79.79,0,0,0,.56.19,1,1,0,0,0,.79-.34,1.21,1.21,0,0,0,.31-.84Z"/><path class="cls-30" d="M206.91,184.8h-.64v-3.45h-.93a8.09,8.09,0,0,1-.54,2.72,1.17,1.17,0,0,1-1.05.79.86.86,0,0,1-.34-.06v-.55a.59.59,0,0,0,.29.07c.58,0,1-1.17,1.11-3.52h2.1Z"/><path class="cls-30" d="M208.22,184.8v-4h.64v1.54h1.08a1.44,1.44,0,0,1,1,.32,1.12,1.12,0,0,1,.36.89,1.21,1.21,0,0,1-.36.92,1.31,1.31,0,0,1-.92.33Zm.64-1.91v1.37h1c.53,0,.8-.24.8-.71s-.27-.66-.81-.66Z"/><path class="cls-30" d="M215.58,184.8h-.64V183h-2v1.81h-.64v-4h.64v1.64h2V180.8h.64Z"/><path class="cls-30" d="M219.74,184.8h-.64v-.62h0a1.46,1.46,0,0,1-2.17.4,1.11,1.11,0,0,1-.34-.84c0-.75.44-1.18,1.32-1.3l1.2-.17c0-.68-.27-1-.82-1a2,2,0,0,0-1.31.49v-.66a2.5,2.5,0,0,1,1.36-.37c.94,0,1.41.5,1.41,1.49Zm-.64-2-1,.13a1.74,1.74,0,0,0-.67.22.66.66,0,0,0-.23.56.6.6,0,0,0,.21.48.78.78,0,0,0,.56.19,1,1,0,0,0,.78-.34,1.16,1.16,0,0,0,.31-.84Z"/><path class="cls-30" d="M223.69,184.8h-.64v-1.65h-.53c-.26,0-.49.21-.71.62l-.52,1h-.74l.67-1.23a1.2,1.2,0,0,1,.57-.57,1.07,1.07,0,0,1-.71-.34,1,1,0,0,1-.25-.7,1.05,1.05,0,0,1,.38-.85,1.73,1.73,0,0,1,1.08-.31h1.4Zm-.64-2.19v-1.26h-.76c-.53,0-.8.2-.8.61s.26.65.78.65Z"/><path class="cls-30" d="M191.47,194.4h-.63v-3.29c-.06.16-.15.41-.26.73l-1,2.56H189l-1-2.56-.27-.73v3.29h-.55v-4H188L189,193c.08.19.18.46.29.79l.29-.77,1-2.63h.85Z"/><path class="cls-30" d="M195.64,194.4H195v-.62h0a1.35,1.35,0,0,1-1.24.72,1.31,1.31,0,0,1-.93-.32,1.08,1.08,0,0,1-.34-.84c0-.75.44-1.18,1.32-1.3l1.2-.17c0-.68-.27-1-.82-1a2,2,0,0,0-1.31.49v-.66a2.48,2.48,0,0,1,1.36-.37c.94,0,1.41.5,1.41,1.49Zm-.64-2-1,.13a1.64,1.64,0,0,0-.68.22.65.65,0,0,0-.22.56.6.6,0,0,0,.21.48.77.77,0,0,0,.55.19,1,1,0,0,0,.79-.34,1.16,1.16,0,0,0,.31-.84Z"/><path class="cls-30" d="M202,194.4h-5.1v-4h.64v3.46h1.59V190.4h.64v3.46h1.59V190.4H202Z"/><path class="cls-30" d="M206.61,194.4H206v-3.19l-.27.47-1.84,2.72h-.67v-4h.59v3.16a3.68,3.68,0,0,1,.2-.39l1.9-2.77h.66Z"/><path class="cls-30" d="M211.24,194.4h-.64v-1.81h-2v1.81h-.64v-4h.64V192h2V190.4h.64Z"/><path class="cls-30" d="M215.41,194.4h-.64v-.62h0a1.34,1.34,0,0,1-1.23.72,1.3,1.3,0,0,1-.93-.32,1.08,1.08,0,0,1-.34-.84c0-.75.44-1.18,1.32-1.3l1.2-.17c0-.68-.28-1-.83-1a2,2,0,0,0-1.3.49v-.66a2.45,2.45,0,0,1,1.36-.37c.94,0,1.41.5,1.41,1.49Zm-.64-2-1,.13a1.64,1.64,0,0,0-.67.22.66.66,0,0,0-.23.56.6.6,0,0,0,.21.48.79.79,0,0,0,.56.19,1,1,0,0,0,.79-.34,1.21,1.21,0,0,0,.31-.84Z"/><path class="cls-30" d="M19,316.85h-.66v-5H15.38v5h-.66v-5.6H19Z"/><path class="cls-30" d="M21.77,316.94a1.85,1.85,0,0,1-1.42-.56,2.08,2.08,0,0,1-.53-1.48,2.2,2.2,0,0,1,.55-1.58,2,2,0,0,1,1.49-.57,1.8,1.8,0,0,1,1.4.56,2.51,2.51,0,0,1,0,3.06A1.9,1.9,0,0,1,21.77,316.94Zm.05-3.65a1.21,1.21,0,0,0-1,.42,1.73,1.73,0,0,0-.36,1.16,1.62,1.62,0,0,0,.36,1.12,1.23,1.23,0,0,0,1,.41,1.16,1.16,0,0,0,.95-.4,1.76,1.76,0,0,0,.33-1.14,1.8,1.8,0,0,0-.33-1.16A1.16,1.16,0,0,0,21.82,313.29Z"/><path class="cls-30" d="M28,318.31h-.54v-1.46h-3v1.46H24v-2h.35a6,6,0,0,0,1-3.46h2.08v3.46H28Zm-1.23-2v-2.92h-.89a6.19,6.19,0,0,1-.91,2.92Z"/><path class="cls-30" d="M31.41,316.67a2.16,2.16,0,0,1-1.1.27,1.81,1.81,0,0,1-1.38-.55,2,2,0,0,1-.52-1.45,2.25,2.25,0,0,1,.56-1.59,2,2,0,0,1,1.51-.6,2.06,2.06,0,0,1,.93.2v.66a1.6,1.6,0,0,0-.95-.32,1.28,1.28,0,0,0-1,.44,1.65,1.65,0,0,0-.4,1.16,1.62,1.62,0,0,0,.37,1.11,1.28,1.28,0,0,0,1,.4,1.63,1.63,0,0,0,1-.34Z"/><path class="cls-30" d="M35.35,315H32.53a1.49,1.49,0,0,0,.36,1,1.22,1.22,0,0,0,.94.36,2,2,0,0,0,1.24-.44v.6a2.34,2.34,0,0,1-1.39.38,1.68,1.68,0,0,1-1.33-.54,2.23,2.23,0,0,1-.49-1.54,2.2,2.2,0,0,1,.53-1.52,1.7,1.7,0,0,1,1.32-.59,1.5,1.5,0,0,1,1.21.51,2.1,2.1,0,0,1,.43,1.41Zm-.66-.54a1.35,1.35,0,0,0-.26-.87.94.94,0,0,0-.74-.31,1,1,0,0,0-.77.33,1.47,1.47,0,0,0-.39.85Z"/><path class="cls-30" d="M38.59,313.4h-1.2v3.45h-.64V313.4h-1.2v-.55h3Z"/><path class="cls-30" d="M39.12,316.85v-4h.64v1.53h1.08a1.42,1.42,0,0,1,1,.32,1.16,1.16,0,0,1,.36.9,1.18,1.18,0,0,1-.36.91,1.28,1.28,0,0,1-.92.34Zm.64-1.92v1.37h1c.53,0,.8-.23.8-.7s-.27-.67-.81-.67Z"/><path class="cls-30" d="M48.05,312.85l-1.84,4.64c-.33.83-.79,1.24-1.39,1.24a1.58,1.58,0,0,1-.41-.05v-.57a1.33,1.33,0,0,0,.37.07.79.79,0,0,0,.73-.58l.32-.76-1.56-4H45l1.08,3.08a2.54,2.54,0,0,1,.08.3h0c0-.06,0-.16.08-.3l1.13-3.08Z"/><path class="cls-30" d="M49.15,316.27h0v2.42h-.64v-5.84h.64v.7h0a1.52,1.52,0,0,1,1.38-.8,1.46,1.46,0,0,1,1.21.54,2.23,2.23,0,0,1,.43,1.44,2.51,2.51,0,0,1-.48,1.61,1.65,1.65,0,0,1-1.34.6A1.33,1.33,0,0,1,49.15,316.27Zm0-1.61v.56a1.17,1.17,0,0,0,.33.84,1,1,0,0,0,.81.34,1.1,1.1,0,0,0,.92-.44,2.05,2.05,0,0,0,.33-1.24,1.66,1.66,0,0,0-.31-1.05,1,1,0,0,0-.84-.38,1.14,1.14,0,0,0-.9.39A1.48,1.48,0,0,0,49.13,314.66Z"/><path class="cls-30" d="M54.63,316.94a1.85,1.85,0,0,1-1.42-.56,2.08,2.08,0,0,1-.53-1.48,2.2,2.2,0,0,1,.55-1.58,2,2,0,0,1,1.49-.57,1.8,1.8,0,0,1,1.4.56,2.51,2.51,0,0,1,0,3.06A1.9,1.9,0,0,1,54.63,316.94Zm0-3.65a1.21,1.21,0,0,0-1,.42,1.73,1.73,0,0,0-.36,1.16A1.62,1.62,0,0,0,53.7,316a1.23,1.23,0,0,0,1,.41,1.16,1.16,0,0,0,1-.4,1.76,1.76,0,0,0,.33-1.14,1.8,1.8,0,0,0-.33-1.16A1.16,1.16,0,0,0,54.68,313.29Z"/><path class="cls-30" d="M57.4,316.85v-4h1.75a1.53,1.53,0,0,1,.93.26.85.85,0,0,1,.34.72.88.88,0,0,1-.77.94c.62.08.92.39.92.93a1.07,1.07,0,0,1-.37.82,1.4,1.4,0,0,1-.94.33ZM58,313.4v1.12h1c.51,0,.77-.2.77-.6s-.23-.52-.7-.52Zm0,1.67v1.23h1.11q.78,0,.78-.63t-.87-.6Z"/><path class="cls-30" d="M64.72,316.85h-.64V315H62v1.82H61.4v-4H62v1.64h2v-1.64h.64Z"/><path class="cls-30" d="M68.51,316.85h-.64v-1.66h-.53c-.26,0-.49.21-.7.63l-.52,1h-.75l.68-1.24a1.16,1.16,0,0,1,.56-.56,1.07,1.07,0,0,1-.71-.35,1,1,0,0,1-.25-.7,1,1,0,0,1,.39-.84,1.64,1.64,0,0,1,1.08-.31h1.39Zm-.64-2.19V313.4h-.75c-.54,0-.81.2-.81.61s.26.65.78.65Z"/><path class="cls-30" d="M19.86,324.08v.6a1.25,1.25,0,0,1-.51.18,8.11,8.11,0,0,0-1.23.25,1.1,1.1,0,0,0-.58.53,2.94,2.94,0,0,0-.28,1.17h0a1.54,1.54,0,0,1,1.34-.68,1.66,1.66,0,0,1,1.28.55,2.08,2.08,0,0,1,.48,1.43,2.13,2.13,0,0,1-.51,1.48,1.74,1.74,0,0,1-1.36.55,1.7,1.7,0,0,1-1.42-.65,3.06,3.06,0,0,1-.5-1.87,6.08,6.08,0,0,1,.18-1.6,2.29,2.29,0,0,1,.5-1,1.59,1.59,0,0,1,.71-.46,12,12,0,0,1,1.33-.29A2.18,2.18,0,0,0,19.86,324.08Zm-2.61,3.37V328a2.16,2.16,0,0,0,.09.62,1.87,1.87,0,0,0,.26.53,1,1,0,0,0,.4.34,1.08,1.08,0,0,0,.52.11,1,1,0,0,0,.86-.4,1.54,1.54,0,0,0,.33-1,1.67,1.67,0,0,0-.33-1.09,1.14,1.14,0,0,0-.92-.41A1.31,1.31,0,0,0,17.25,327.45Z"/><path class="cls-30" d="M24.51,330.05h-.58v-3.19a5.31,5.31,0,0,1-.26.47l-1.85,2.72h-.66v-4h.59v3.15c0-.07.1-.2.2-.39l1.9-2.76h.66Z"/><path class="cls-30" d="M25.23,329.94v-.63a2.54,2.54,0,0,0,1.23.29c.7,0,1.05-.22,1.05-.67s-.38-.67-1.16-.67H26v-.54h.37q1,0,1-.63a.48.48,0,0,0-.23-.43,1.1,1.1,0,0,0-.64-.16,2.66,2.66,0,0,0-1.17.29v-.6a3.61,3.61,0,0,1,1.22-.24c1,0,1.46.36,1.46,1.08a.87.87,0,0,1-.22.6,1.1,1.1,0,0,1-.6.33v0a1.08,1.08,0,0,1,.71.3.9.9,0,0,1,.27.67,1,1,0,0,1-.44.87,2,2,0,0,1-1.21.33A3,3,0,0,1,25.23,329.94Z"/><path class="cls-30" d="M32.22,330.05h-.64v-1.82h-2v1.82H28.9v-4h.64v1.64h2v-1.64h.64Z"/><path class="cls-30" d="M36.49,328.21H33.66a1.49,1.49,0,0,0,.36,1,1.26,1.26,0,0,0,.95.36,1.94,1.94,0,0,0,1.24-.44v.6a2.36,2.36,0,0,1-1.39.38,1.72,1.72,0,0,1-1.34-.54,2.27,2.27,0,0,1-.48-1.54,2.2,2.2,0,0,1,.53-1.52,1.69,1.69,0,0,1,1.31-.58,1.5,1.5,0,0,1,1.22.5,2.16,2.16,0,0,1,.43,1.41Zm-.66-.54a1.29,1.29,0,0,0-.27-.87.92.92,0,0,0-.73-.31,1,1,0,0,0-.77.33,1.47,1.47,0,0,0-.39.85Z"/><path class="cls-30" d="M39.94,329.87a2.1,2.1,0,0,1-1.09.27,1.81,1.81,0,0,1-1.38-.55,2.05,2.05,0,0,1-.53-1.45,2.21,2.21,0,0,1,.57-1.59A2,2,0,0,1,39,326a2.12,2.12,0,0,1,.93.19v.66a1.62,1.62,0,0,0-1-.32,1.3,1.3,0,0,0-1,.44,1.7,1.7,0,0,0-.39,1.16A1.57,1.57,0,0,0,38,329.2a1.25,1.25,0,0,0,1,.4,1.58,1.58,0,0,0,1-.34Z"/><path class="cls-30" d="M42.72,328.07H40.59v-.5h2.13Z"/><path class="cls-30" d="M46.55,330.05h-.64v-3.46H45a8.11,8.11,0,0,1-.55,2.73,1.16,1.16,0,0,1-1,.78,1.23,1.23,0,0,1-.35-.05v-.55a.78.78,0,0,0,.3.07c.57,0,.94-1.17,1.11-3.52h2.1Z"/><path class="cls-30" d="M49.28,330.14a1.84,1.84,0,0,1-1.42-.56,2.08,2.08,0,0,1-.53-1.48,2.2,2.2,0,0,1,.55-1.58,2,2,0,0,1,1.49-.56,1.79,1.79,0,0,1,1.4.55,2.51,2.51,0,0,1,0,3.06A1.91,1.91,0,0,1,49.28,330.14Zm0-3.65a1.21,1.21,0,0,0-1,.42,1.73,1.73,0,0,0-.36,1.16,1.62,1.62,0,0,0,.36,1.12,1.21,1.21,0,0,0,1,.41,1.16,1.16,0,0,0,1-.4,1.76,1.76,0,0,0,.33-1.14,1.8,1.8,0,0,0-.33-1.16A1.17,1.17,0,0,0,49.32,326.49Z"/><path class="cls-30" d="M54.28,326.6H52.69v3.45h-.64v-4h2.23Z"/><path class="cls-30" d="M58.23,330.05h-.58v-3.19l-.26.47-1.85,2.72h-.66v-4h.58v3.15q0-.1.21-.39l1.89-2.76h.67Z"/><path class="cls-30" d="M62.6,330.05h-.89l-1.77-1.92h0v1.92h-.64v-4h.64v1.83h0l1.68-1.83h.84L60.6,328Z"/><path class="cls-30" d="M66.37,330.05h-.58v-3.19a5.31,5.31,0,0,1-.26.47l-1.84,2.72H63v-4h.59v3.15c0-.07.1-.2.2-.39l1.9-2.76h.66Z"/><path class="cls-30" d="M130.87,49.3h-1.62v5h-.65v-5H127v-.6h3.89Z"/><path class="cls-30" d="M135.2,54.07a3.26,3.26,0,0,1-1.55.33,2.51,2.51,0,0,1-1.91-.77,2.85,2.85,0,0,1-.72-2,3,3,0,0,1,.81-2.17,2.71,2.71,0,0,1,2-.83,3.36,3.36,0,0,1,1.32.23v.7a2.61,2.61,0,0,0-1.33-.34,2,2,0,0,0-1.56.65,2.42,2.42,0,0,0-.6,1.72,2.29,2.29,0,0,0,.56,1.63,1.91,1.91,0,0,0,1.47.61,2.76,2.76,0,0,0,1.46-.38Z"/><path class="cls-30" d="M137,52.19V54.3h-.65V48.7h1.54a2,2,0,0,1,1.39.44,1.55,1.55,0,0,1,.49,1.23,1.73,1.73,0,0,1-.54,1.31,2.11,2.11,0,0,1-1.49.51Zm0-2.89v2.29h.69a1.52,1.52,0,0,0,1-.31,1.1,1.1,0,0,0,.36-.88c0-.73-.44-1.1-1.32-1.1Z"/><path class="cls-30" d="M142.8,52.33h-2.13v-.51h2.13Z"/><path class="cls-30" d="M147.28,54.3h-.64V50.85h-2V54.3H144v-4h3.32Z"/><path class="cls-30" d="M150.25,54.4a1.85,1.85,0,0,1-1.41-.56,2.1,2.1,0,0,1-.53-1.49,2.13,2.13,0,0,1,.55-1.57,2,2,0,0,1,1.49-.57,1.79,1.79,0,0,1,1.4.55,2.22,2.22,0,0,1,.5,1.53,2.13,2.13,0,0,1-.54,1.53A1.93,1.93,0,0,1,150.25,54.4Zm.05-3.65a1.21,1.21,0,0,0-1,.42,1.71,1.71,0,0,0-.36,1.16,1.66,1.66,0,0,0,.36,1.12,1.25,1.25,0,0,0,1,.41,1.21,1.21,0,0,0,1-.4,1.77,1.77,0,0,0,.33-1.15,1.82,1.82,0,0,0-.33-1.16A1.18,1.18,0,0,0,150.3,50.75Z"/><path class="cls-30" d="M153.93,53.73h0v2.41h-.64V50.3h.64V51h0a1.53,1.53,0,0,1,1.39-.8,1.44,1.44,0,0,1,1.2.54,2.19,2.19,0,0,1,.44,1.44,2.45,2.45,0,0,1-.49,1.6,1.62,1.62,0,0,1-1.34.61A1.37,1.37,0,0,1,153.93,53.73Zm0-1.62v.56a1.2,1.2,0,0,0,.32.84,1.09,1.09,0,0,0,.82.35,1.06,1.06,0,0,0,.91-.45,2,2,0,0,0,.33-1.24,1.57,1.57,0,0,0-.31-1,1,1,0,0,0-.83-.38,1.14,1.14,0,0,0-.9.39A1.4,1.4,0,0,0,153.92,52.11Z"/><path class="cls-30" d="M160.5,50.85h-1.2V54.3h-.64V50.85h-1.2V50.3h3Z"/><path class="cls-30" d="M163.18,52.74a1.76,1.76,0,0,1,.07-.45,2,2,0,0,1,.2-.42,1.56,1.56,0,0,1,.33-.35,1.6,1.6,0,0,1,.44-.26,1.54,1.54,0,0,1-.58-.52,1.24,1.24,0,0,1-.22-.7,1.32,1.32,0,0,1,.12-.57,1.39,1.39,0,0,1,.33-.46,1.73,1.73,0,0,1,1.13-.4,1.67,1.67,0,0,1,.63.11,1.48,1.48,0,0,1,.5.3,1.45,1.45,0,0,1,.33.45,1.52,1.52,0,0,1,.11.57,1.23,1.23,0,0,1-.21.7,1.78,1.78,0,0,1-.57.52,1.7,1.7,0,0,1,.43.26,1.32,1.32,0,0,1,.32.35,1.35,1.35,0,0,1,.2.42,1.41,1.41,0,0,1,.07.45,1.6,1.6,0,0,1-.13.67,1.41,1.41,0,0,1-.37.52,1.59,1.59,0,0,1-.58.34,2.28,2.28,0,0,1-1.46,0,1.68,1.68,0,0,1-.58-.34,1.41,1.41,0,0,1-.37-.52A1.6,1.6,0,0,1,163.18,52.74Zm.7-.05a1.19,1.19,0,0,0,.08.47,1.09,1.09,0,0,0,.22.36,1.11,1.11,0,0,0,.36.23,1.34,1.34,0,0,0,.46.08,1.14,1.14,0,0,0,.46-.09,1,1,0,0,0,.35-.23,1,1,0,0,0,.24-.36,1.34,1.34,0,0,0,.08-.46,1.23,1.23,0,0,0-.08-.44,1,1,0,0,0-.23-.36,1.07,1.07,0,0,0-.35-.25,1.19,1.19,0,0,0-.47-.09,1.33,1.33,0,0,0-.45.08,1.21,1.21,0,0,0-.35.24,1.13,1.13,0,0,0-.24.36A1.34,1.34,0,0,0,163.88,52.69Zm.2-2.6a.94.94,0,0,0,.07.37.84.84,0,0,0,.2.29.72.72,0,0,0,.29.2.85.85,0,0,0,.72,0,.88.88,0,0,0,.3-.2.93.93,0,0,0,.2-.3.86.86,0,0,0,.07-.36,1,1,0,0,0-.07-.38,1,1,0,0,0-.49-.49.94.94,0,0,0-.37-.07.87.87,0,0,0-.37.07.93.93,0,0,0-.3.2,1.17,1.17,0,0,0-.19.3A1.15,1.15,0,0,0,164.08,50.09Z"/><path class="cls-30" d="M171.13,51.48a5.89,5.89,0,0,1-.12,1.25,3,3,0,0,1-.37.91,1.69,1.69,0,0,1-.59.57,1.59,1.59,0,0,1-.79.19,1.55,1.55,0,0,1-.76-.18,1.61,1.61,0,0,1-.55-.55,2.68,2.68,0,0,1-.35-.87,5.92,5.92,0,0,1-.11-1.18,6.26,6.26,0,0,1,.12-1.3,2.8,2.8,0,0,1,.36-.94,1.63,1.63,0,0,1,.59-.58,1.67,1.67,0,0,1,.81-.19C170.55,48.61,171.13,49.56,171.13,51.48Zm-.65.06c0-1.59-.38-2.39-1.14-2.39s-1.2.81-1.2,2.43.4,2.27,1.18,2.27S170.48,53.08,170.48,51.54Z"/><path class="cls-30" d="M31.55,164.18h-.66v-5H28v5H27.3v-5.61h4.25Z"/><path class="cls-30" d="M34.6,164.27a1.89,1.89,0,0,1-1.42-.56,2.09,2.09,0,0,1-.53-1.49,2.19,2.19,0,0,1,.55-1.57,2,2,0,0,1,1.49-.57,1.83,1.83,0,0,1,1.4.55,2.22,2.22,0,0,1,.5,1.53,2.13,2.13,0,0,1-.54,1.53A1.87,1.87,0,0,1,34.6,164.27Zm0-3.65a1.21,1.21,0,0,0-1,.42,1.73,1.73,0,0,0-.36,1.16,1.64,1.64,0,0,0,.36,1.12,1.27,1.27,0,0,0,1,.41,1.16,1.16,0,0,0,1-.4,2.11,2.11,0,0,0,0-2.3A1.16,1.16,0,0,0,34.65,160.62Z"/><path class="cls-30" d="M41.11,165.63h-.54v-1.45h-3v1.45H37v-2h.36a6,6,0,0,0,1-3.45h2.08v3.45h.59Zm-1.23-2v-2.91H39a6.12,6.12,0,0,1-.91,2.91Z"/><path class="cls-30" d="M44.73,164a2,2,0,0,1-1.09.28,1.82,1.82,0,0,1-1.38-.56,2,2,0,0,1-.53-1.44,2.21,2.21,0,0,1,.57-1.59,2,2,0,0,1,1.51-.6,2.12,2.12,0,0,1,.93.2v.65a1.68,1.68,0,0,0-1-.31,1.3,1.3,0,0,0-1,.44,1.68,1.68,0,0,0-.39,1.16,1.56,1.56,0,0,0,.37,1.1,1.23,1.23,0,0,0,1,.41,1.59,1.59,0,0,0,1-.35Z"/><path class="cls-30" d="M48.92,162.34H46.1a1.49,1.49,0,0,0,.36,1,1.24,1.24,0,0,0,.94.36,2,2,0,0,0,1.25-.44v.6a2.37,2.37,0,0,1-1.4.38,1.7,1.7,0,0,1-1.33-.54,2.27,2.27,0,0,1-.48-1.54,2.15,2.15,0,0,1,.53-1.52,1.7,1.7,0,0,1,1.31-.59,1.49,1.49,0,0,1,1.21.51,2.1,2.1,0,0,1,.43,1.41Zm-.65-.55a1.27,1.27,0,0,0-.27-.86.9.9,0,0,0-.73-.31,1,1,0,0,0-.77.33,1.44,1.44,0,0,0-.39.84Z"/><path class="cls-30" d="M52.41,160.72h-1.2v3.46h-.64v-3.46h-1.2v-.54h3Z"/><path class="cls-30" d="M53.19,164.18v-4h.64v1.53h1.08a1.42,1.42,0,0,1,1,.32,1.15,1.15,0,0,1,.36.9,1.18,1.18,0,0,1-.36.91,1.32,1.32,0,0,1-.92.34Zm.64-1.92v1.37h1c.53,0,.8-.23.8-.7s-.27-.67-.81-.67Z"/><path class="cls-30" d="M21,177.38v-4h1.74a1.47,1.47,0,0,1,.93.26.83.83,0,0,1,.34.71.88.88,0,0,1-.76,1c.61.08.91.39.91.92a1,1,0,0,1-.37.82,1.34,1.34,0,0,1-.94.34Zm.64-3.46v1.13h1c.51,0,.77-.2.77-.6s-.23-.53-.69-.53Zm0,1.68v1.23h1.11c.51,0,.77-.21.77-.63s-.29-.6-.87-.6Z"/><path class="cls-30" d="M28.45,175.54H25.62a1.49,1.49,0,0,0,.36,1,1.26,1.26,0,0,0,.95.36,2,2,0,0,0,1.24-.44v.6a2.37,2.37,0,0,1-1.4.38,1.71,1.71,0,0,1-1.33-.54,2.27,2.27,0,0,1-.48-1.54,2.15,2.15,0,0,1,.53-1.52,1.7,1.7,0,0,1,1.31-.59,1.51,1.51,0,0,1,1.22.51,2.16,2.16,0,0,1,.43,1.41Zm-.66-.55a1.27,1.27,0,0,0-.27-.86.89.89,0,0,0-.73-.31,1,1,0,0,0-.77.33,1.47,1.47,0,0,0-.39.84Z"/><path class="cls-30" d="M32.52,171.41v.6a1.24,1.24,0,0,1-.52.18,7.46,7.46,0,0,0-1.23.25,1.07,1.07,0,0,0-.57.53,2.88,2.88,0,0,0-.29,1.17h0a1.53,1.53,0,0,1,1.33-.68,1.61,1.61,0,0,1,1.28.55,2.35,2.35,0,0,1,0,2.9,1.76,1.76,0,0,1-1.36.56,1.68,1.68,0,0,1-1.42-.65,3.06,3.06,0,0,1-.5-1.87,6.22,6.22,0,0,1,.18-1.61,2.29,2.29,0,0,1,.5-1,1.65,1.65,0,0,1,.71-.45,10.92,10.92,0,0,1,1.33-.3A1.89,1.89,0,0,0,32.52,171.41Zm-2.62,3.36v.56a2.51,2.51,0,0,0,.1.61,1.54,1.54,0,0,0,.26.53,1.08,1.08,0,0,0,.39.35,1.24,1.24,0,0,0,.52.11,1.06,1.06,0,0,0,.87-.4,1.56,1.56,0,0,0,.33-1,1.65,1.65,0,0,0-.34-1.1,1.11,1.11,0,0,0-.91-.4A1.31,1.31,0,0,0,29.9,174.77Z"/><path class="cls-30" d="M36.11,175.4H34v-.5h2.13Z"/><path class="cls-30" d="M40.46,173.38,38.62,178c-.33.83-.79,1.24-1.39,1.24a1.73,1.73,0,0,1-.42,0v-.58a1.14,1.14,0,0,0,.38.07.78.78,0,0,0,.73-.57l.32-.76-1.56-4h.71l1.08,3.07.08.31h0c0-.06,0-.16.07-.3l1.14-3.08Z"/><path class="cls-30" d="M41.81,176.8h0v2.42h-.64v-5.84h.64v.7h0a1.51,1.51,0,0,1,1.38-.8,1.46,1.46,0,0,1,1.21.54,2.23,2.23,0,0,1,.43,1.44,2.47,2.47,0,0,1-.49,1.61,1.62,1.62,0,0,1-1.33.6A1.33,1.33,0,0,1,41.81,176.8Zm0-1.61v.55a1.25,1.25,0,0,0,.32.85,1.16,1.16,0,0,0,1.73-.1,2.05,2.05,0,0,0,.33-1.24,1.64,1.64,0,0,0-.3-1.05,1,1,0,0,0-.84-.38,1.14,1.14,0,0,0-.9.39A1.41,1.41,0,0,0,41.79,175.19Z"/><path class="cls-30" d="M47.53,177.47a1.85,1.85,0,0,1-1.41-.56,2,2,0,0,1-.53-1.49,2.15,2.15,0,0,1,.55-1.57,2,2,0,0,1,1.49-.57,1.81,1.81,0,0,1,1.39.55,2.18,2.18,0,0,1,.51,1.53,2.1,2.1,0,0,1-.55,1.53A1.87,1.87,0,0,1,47.53,177.47Zm0-3.65a1.23,1.23,0,0,0-1,.42,1.73,1.73,0,0,0-.36,1.16,1.64,1.64,0,0,0,.37,1.12,1.23,1.23,0,0,0,1,.41,1.19,1.19,0,0,0,1-.4,2.17,2.17,0,0,0,0-2.3A1.2,1.2,0,0,0,47.58,173.82Z"/><path class="cls-30" d="M50.56,177.38v-4H52.3a1.47,1.47,0,0,1,.93.26.83.83,0,0,1,.34.71.88.88,0,0,1-.76,1c.61.08.92.39.92.92a1,1,0,0,1-.38.82,1.33,1.33,0,0,1-.94.34Zm.64-3.46v1.13h1c.51,0,.77-.2.77-.6s-.23-.53-.69-.53Zm0,1.68v1.23h1.11c.52,0,.77-.21.77-.63s-.29-.6-.87-.6Z"/><path class="cls-30" d="M58.12,177.38h-.64v-1.82h-2v1.82H54.8v-4h.64V175h2v-1.64h.64Z"/><path class="cls-30" d="M62.16,177.38h-.64v-1.66H61c-.26,0-.49.21-.71.63l-.52,1H59l.67-1.24a1.22,1.22,0,0,1,.57-.56,1.12,1.12,0,0,1-.71-.35,1,1,0,0,1-.25-.7,1,1,0,0,1,.38-.84,1.67,1.67,0,0,1,1.08-.31h1.4Zm-.64-2.19v-1.27h-.76c-.53,0-.8.21-.8.62s.26.65.78.65Z"/><path class="cls-30" d="M41.48,238.22v-5.6h1.59a1.7,1.7,0,0,1,1.15.36,1.11,1.11,0,0,1,.43.92,1.37,1.37,0,0,1-.26.83,1.42,1.42,0,0,1-.71.5v0a1.41,1.41,0,0,1,.91.42,1.37,1.37,0,0,1,.34.94,1.46,1.46,0,0,1-.52,1.17,2,2,0,0,1-1.3.44Zm.65-5V235h.68a1.21,1.21,0,0,0,.84-.26A.88.88,0,0,0,44,234c0-.54-.36-.82-1.07-.82Zm0,2.4v2H43a1.33,1.33,0,0,0,.89-.27,1,1,0,0,0,.32-.75c0-.67-.45-1-1.35-1Z"/><path class="cls-30" d="M49.31,238.22h-.64v-1.81h-2v1.81H46v-4h.64v1.64h2v-1.64h.64Z"/><path class="cls-30" d="M53.8,234.22,52,238.86c-.33.83-.79,1.25-1.39,1.25a1.33,1.33,0,0,1-.42-.06v-.57a1.14,1.14,0,0,0,.38.07.78.78,0,0,0,.73-.58l.32-.76-1.56-4h.71l1.08,3.08s0,.14.08.31h0c0-.07,0-.17.07-.3l1.14-3.09Z"/><path class="cls-30" d="M57,234.77H55.8v3.45h-.64v-3.45H54v-.55h3Z"/><path class="cls-30" d="M58.44,237.64h0v2.42h-.64v-5.84h.64v.71h0a1.61,1.61,0,0,1,2.59-.26,2.19,2.19,0,0,1,.43,1.44,2.45,2.45,0,0,1-.49,1.6,1.6,1.6,0,0,1-1.33.61A1.34,1.34,0,0,1,58.44,237.64Zm0-1.61v.56a1.2,1.2,0,0,0,.32.84,1.09,1.09,0,0,0,.82.35,1.06,1.06,0,0,0,.91-.45,2,2,0,0,0,.33-1.24,1.63,1.63,0,0,0-.3-1,1,1,0,0,0-.84-.38,1.14,1.14,0,0,0-.9.39A1.4,1.4,0,0,0,58.42,236Z"/><path class="cls-30" d="M65.71,236.38H62.88a1.47,1.47,0,0,0,.36,1,1.23,1.23,0,0,0,.95.37,2,2,0,0,0,1.24-.45v.6a2.3,2.3,0,0,1-1.4.39,1.7,1.7,0,0,1-1.33-.55,2.23,2.23,0,0,1-.48-1.53,2.15,2.15,0,0,1,.53-1.52,1.7,1.7,0,0,1,1.31-.59,1.52,1.52,0,0,1,1.22.51,2.16,2.16,0,0,1,.43,1.41Zm-.66-.54a1.25,1.25,0,0,0-.27-.86.89.89,0,0,0-.73-.31,1.06,1.06,0,0,0-.77.32,1.5,1.5,0,0,0-.39.85Z"/><path class="cls-30" d="M70,238.22h-.64v-1.81h-2v1.81h-.64v-4h.64v1.64h2v-1.64H70Z"/><path class="cls-30" d="M74.63,238.22H74v-1.81H72v1.81h-.64v-4H72v1.64h2v-1.64h.64Z"/><path class="cls-30" d="M78.67,238.22H78v-1.65h-.54c-.26,0-.49.2-.7.62l-.52,1h-.74L76.2,237a1.12,1.12,0,0,1,.57-.57,1.07,1.07,0,0,1-.72-.34,1.05,1.05,0,0,1-.25-.7,1,1,0,0,1,.39-.85,1.73,1.73,0,0,1,1.08-.31h1.4ZM78,236v-1.26h-.76c-.54,0-.81.2-.81.61s.26.65.79.65Z"/><path class="cls-30" d="M82.7,238.22h-.64v-1.65h-.54c-.25,0-.49.2-.7.62l-.52,1h-.74l.67-1.23a1.2,1.2,0,0,1,.57-.57,1.09,1.09,0,0,1-.72-.34,1,1,0,0,1-.24-.7,1,1,0,0,1,.38-.85,1.73,1.73,0,0,1,1.08-.31h1.4ZM82.06,236v-1.26H81.3c-.54,0-.81.2-.81.61s.26.65.79.65Z"/><path class="cls-30" d="M89.52,238.22h-.64v-3.45h-2v3.45H86.2v-4h3.32Z"/><path class="cls-30" d="M92.49,238.32a1.85,1.85,0,0,1-1.41-.56,2.06,2.06,0,0,1-.53-1.49,2.13,2.13,0,0,1,.55-1.57,2,2,0,0,1,1.49-.57,1.77,1.77,0,0,1,1.39.55,2.17,2.17,0,0,1,.5,1.53,2.15,2.15,0,0,1-.54,1.53A1.9,1.9,0,0,1,92.49,238.32Zm.05-3.65a1.23,1.23,0,0,0-1,.42,1.71,1.71,0,0,0-.36,1.16,1.61,1.61,0,0,0,.37,1.12,1.23,1.23,0,0,0,1,.41,1.19,1.19,0,0,0,.95-.4,1.72,1.72,0,0,0,.34-1.15,1.75,1.75,0,0,0-.34-1.16A1.16,1.16,0,0,0,92.54,234.67Z"/><path class="cls-30" d="M99,239.68h-.54v-1.46h-3v1.46h-.54v-2h.35a5.94,5.94,0,0,0,1-3.46h2.08v3.46H99Zm-1.23-2v-2.91h-.89a6.16,6.16,0,0,1-.91,2.91Z"/><path class="cls-30" d="M102.63,238a2.16,2.16,0,0,1-1.1.28,1.82,1.82,0,0,1-1.38-.56,2,2,0,0,1-.52-1.44,2.21,2.21,0,0,1,.56-1.59,2,2,0,0,1,1.51-.6,2.06,2.06,0,0,1,.93.19V235a1.59,1.59,0,0,0-.95-.31,1.28,1.28,0,0,0-1,.44,1.67,1.67,0,0,0-.39,1.15,1.57,1.57,0,0,0,.37,1.11,1.29,1.29,0,0,0,1,.41,1.64,1.64,0,0,0,1-.35Z"/><path class="cls-30" d="M107,238.22h-.57V235l-.27.47-1.84,2.72h-.67v-4h.59v3.16a3.68,3.68,0,0,1,.2-.39l1.9-2.77H107Z"/><path class="cls-30" d="M111,238a2.16,2.16,0,0,1-1.1.28,1.82,1.82,0,0,1-1.38-.56,2,2,0,0,1-.52-1.44,2.21,2.21,0,0,1,.56-1.59,2,2,0,0,1,1.51-.6,2.06,2.06,0,0,1,.93.19V235a1.59,1.59,0,0,0-.95-.31,1.28,1.28,0,0,0-1,.44,1.67,1.67,0,0,0-.39,1.15,1.57,1.57,0,0,0,.37,1.11,1.29,1.29,0,0,0,1,.41,1.64,1.64,0,0,0,1-.35Z"/><path class="cls-30" d="M114.47,234.77h-1.2v3.45h-.64v-3.45h-1.2v-.55h3Z"/><path class="cls-30" d="M118.47,236.38h-2.83a1.47,1.47,0,0,0,.36,1,1.23,1.23,0,0,0,1,.37,2,2,0,0,0,1.24-.45v.6a2.3,2.3,0,0,1-1.4.39,1.72,1.72,0,0,1-1.33-.55,2.23,2.23,0,0,1-.48-1.53,2.15,2.15,0,0,1,.53-1.52,1.7,1.7,0,0,1,1.31-.59,1.51,1.51,0,0,1,1.22.51,2.16,2.16,0,0,1,.43,1.41Zm-.66-.54a1.25,1.25,0,0,0-.27-.86.89.89,0,0,0-.73-.31,1.06,1.06,0,0,0-.77.32,1.5,1.5,0,0,0-.39.85Z"/><path class="cls-30" d="M123.76,238.22h-.63v-3.29c-.06.16-.15.41-.26.73l-1,2.56h-.57l-1-2.56c-.06-.14-.14-.38-.27-.73v3.29h-.55v-4h.82l1,2.61c.08.19.18.46.29.79l.29-.77,1-2.63h.85Z"/><path class="cls-30" d="M127.93,238.22h-.64v-.62h0a1.35,1.35,0,0,1-1.24.72,1.31,1.31,0,0,1-.93-.32,1.08,1.08,0,0,1-.34-.84c0-.75.44-1.18,1.32-1.3l1.2-.17c0-.68-.27-1-.82-1a2,2,0,0,0-1.31.49v-.66a2.5,2.5,0,0,1,1.36-.37c.94,0,1.41.5,1.41,1.49Zm-.64-2-1,.13a1.69,1.69,0,0,0-.68.22.64.64,0,0,0-.22.56.6.6,0,0,0,.21.48.77.77,0,0,0,.55.19,1,1,0,0,0,.79-.34,1.16,1.16,0,0,0,.31-.84Z"/><path class="cls-30" d="M45.16,245.45v.61a1.36,1.36,0,0,1-.51.17,7.8,7.8,0,0,0-1.23.26,1.07,1.07,0,0,0-.58.52,3,3,0,0,0-.28,1.18h0a1.54,1.54,0,0,1,1.34-.68,1.65,1.65,0,0,1,1.28.54,2.39,2.39,0,0,1,0,2.91,1.74,1.74,0,0,1-1.36.56,1.68,1.68,0,0,1-1.42-.66,3,3,0,0,1-.5-1.87,6.14,6.14,0,0,1,.18-1.6,2.29,2.29,0,0,1,.5-1,1.77,1.77,0,0,1,.71-.46,12,12,0,0,1,1.33-.29A1.86,1.86,0,0,0,45.16,245.45Zm-2.61,3.37v.56a2.15,2.15,0,0,0,.09.61,1.75,1.75,0,0,0,.26.53,1,1,0,0,0,.4.34,1.15,1.15,0,0,0,1.38-.28,1.57,1.57,0,0,0,.33-1,1.67,1.67,0,0,0-.33-1.09,1.13,1.13,0,0,0-.92-.4A1.3,1.3,0,0,0,42.55,248.82Z"/><path class="cls-30" d="M49.57,251.42h-.64v-.62h0a1.46,1.46,0,0,1-2.17.4,1.08,1.08,0,0,1-.34-.84c0-.75.44-1.18,1.32-1.3l1.2-.17c0-.68-.27-1-.82-1a2,2,0,0,0-1.31.49v-.66a2.5,2.5,0,0,1,1.36-.37c.94,0,1.41.5,1.41,1.49Zm-.64-2-1,.13a1.69,1.69,0,0,0-.68.22.64.64,0,0,0-.22.56.6.6,0,0,0,.21.48.77.77,0,0,0,.55.19,1,1,0,0,0,.79-.34,1.16,1.16,0,0,0,.31-.84Z"/><path class="cls-30" d="M53.71,251.42h-.64V248h-.93a8.3,8.3,0,0,1-.55,2.72,1.17,1.17,0,0,1-1,.79.91.91,0,0,1-.35-.06v-.55a.6.6,0,0,0,.3.07c.57,0,.94-1.17,1.1-3.52h2.11Z"/><path class="cls-30" d="M57.87,251.42h-.64v-.62h0a1.46,1.46,0,0,1-2.17.4,1.11,1.11,0,0,1-.34-.84c0-.75.44-1.18,1.32-1.3l1.2-.17c0-.68-.27-1-.82-1a2,2,0,0,0-1.31.49v-.66a2.5,2.5,0,0,1,1.36-.37c.94,0,1.41.5,1.41,1.49Zm-.64-2-1,.13a1.59,1.59,0,0,0-.67.22.64.64,0,0,0-.23.56.6.6,0,0,0,.21.48.78.78,0,0,0,.56.19,1,1,0,0,0,.78-.34,1.16,1.16,0,0,0,.31-.84Z"/><path class="cls-30" d="M62.41,251.42h-.64v-1.81h-2v1.81h-.64v-4h.64v1.64h2v-1.64h.64Z"/><path class="cls-30" d="M66.44,251.24a2.13,2.13,0,0,1-1.09.28A1.82,1.82,0,0,1,64,251a2,2,0,0,1-.53-1.44,2.21,2.21,0,0,1,.57-1.59,2,2,0,0,1,1.51-.6,2.12,2.12,0,0,1,.93.19v.66a1.63,1.63,0,0,0-1-.31,1.27,1.27,0,0,0-1,.44,1.67,1.67,0,0,0-.39,1.15,1.57,1.57,0,0,0,.37,1.11,1.26,1.26,0,0,0,1,.41,1.61,1.61,0,0,0,1-.35Z"/><path class="cls-30" d="M70.77,251.42h-.58v-3.19c-.06.11-.14.27-.26.47l-1.85,2.72h-.66v-4H68v3.16a2.72,2.72,0,0,1,.21-.39l1.89-2.77h.67Z"/><path class="cls-30" d="M72.73,250.84h0v2.42h-.64v-5.84h.64v.71h0a1.5,1.5,0,0,1,1.38-.8,1.46,1.46,0,0,1,1.21.54,2.19,2.19,0,0,1,.43,1.44,2.5,2.5,0,0,1-.48,1.6,1.63,1.63,0,0,1-1.34.61A1.34,1.34,0,0,1,72.73,250.84Zm0-1.61v.56a1.17,1.17,0,0,0,.33.84,1.05,1.05,0,0,0,.81.35,1.08,1.08,0,0,0,.92-.45,2,2,0,0,0,.33-1.24,1.63,1.63,0,0,0-.31-1,1,1,0,0,0-.84-.38,1.14,1.14,0,0,0-.9.39A1.45,1.45,0,0,0,72.71,249.23Z"/><path class="cls-30" d="M78.46,251.52A1.87,1.87,0,0,1,77,251a2.1,2.1,0,0,1-.53-1.49,2.13,2.13,0,0,1,.55-1.57,2,2,0,0,1,1.49-.57,1.79,1.79,0,0,1,1.4.55,2.22,2.22,0,0,1,.5,1.53,2.15,2.15,0,0,1-.54,1.53A1.92,1.92,0,0,1,78.46,251.52Zm0-3.65a1.21,1.21,0,0,0-1,.42,1.71,1.71,0,0,0-.36,1.16,1.66,1.66,0,0,0,.36,1.12,1.25,1.25,0,0,0,1,.41,1.19,1.19,0,0,0,1-.4,1.77,1.77,0,0,0,.33-1.15,1.8,1.8,0,0,0-.33-1.16A1.16,1.16,0,0,0,78.5,247.87Z"/><path class="cls-30" d="M81.48,251.42v-4h1.74a1.49,1.49,0,0,1,.93.26.94.94,0,0,1-.42,1.66c.61.08.92.39.92.93a1,1,0,0,1-.38.82,1.36,1.36,0,0,1-.93.33Zm.64-3.45v1.12h1c.52,0,.77-.2.77-.6s-.23-.52-.69-.52Zm0,1.67v1.24h1.11q.78,0,.78-.63c0-.41-.29-.61-.87-.61Z"/><path class="cls-30" d="M89.05,251.42h-.9l-1.77-1.92h0v1.92h-.64v-4h.64v1.83h0l1.68-1.83h.84l-1.85,1.93Z"/><path class="cls-30" d="M93.06,251.42h-.58v-3.19a5.31,5.31,0,0,1-.26.47l-1.84,2.72h-.67v-4h.59v3.16a3.68,3.68,0,0,1,.2-.39l1.9-2.77h.66Z"/><path class="cls-30" d="M99.89,251.42h-.64v-1.81h-2v1.81h-.64v-4h.64v1.64h2v-1.64h.64Z"/><path class="cls-30" d="M104.06,251.42h-.65v-.62h0a1.46,1.46,0,0,1-2.17.4,1.11,1.11,0,0,1-.33-.84c0-.75.43-1.18,1.32-1.3l1.19-.17c0-.68-.27-1-.82-1a1.93,1.93,0,0,0-1.3.49v-.66a2.45,2.45,0,0,1,1.36-.37c.93,0,1.41.5,1.41,1.49Zm-.65-2-1,.13a1.59,1.59,0,0,0-.67.22.64.64,0,0,0-.23.56.6.6,0,0,0,.21.48.78.78,0,0,0,.56.19,1,1,0,0,0,.78-.34,1.16,1.16,0,0,0,.31-.84Z"/><path class="cls-30" d="M107.49,248h-1.58v3.45h-.64v-4h2.22Z"/><path class="cls-30" d="M109,250.84h0v2.42h-.64v-5.84H109v.71h0a1.49,1.49,0,0,1,1.38-.8,1.46,1.46,0,0,1,1.21.54,2.19,2.19,0,0,1,.43,1.44,2.45,2.45,0,0,1-.49,1.6,1.6,1.6,0,0,1-1.33.61A1.34,1.34,0,0,1,109,250.84Zm0-1.61v.56a1.2,1.2,0,0,0,.32.84,1.09,1.09,0,0,0,.82.35,1.06,1.06,0,0,0,.91-.45,2,2,0,0,0,.33-1.24,1.63,1.63,0,0,0-.3-1,1,1,0,0,0-.84-.38,1.14,1.14,0,0,0-.9.39A1.4,1.4,0,0,0,109,249.23Z"/><path class="cls-30" d="M116.24,247.42l-1.84,4.64c-.33.83-.79,1.25-1.39,1.25a1.22,1.22,0,0,1-.41-.06v-.57a1,1,0,0,0,.37.07.78.78,0,0,0,.73-.58l.32-.75-1.56-4h.71l1.08,3.08s0,.14.08.31h0a2.32,2.32,0,0,1,.08-.3l1.13-3.09Z"/><path class="cls-30" d="M116.6,251.31v-.63a2.37,2.37,0,0,0,1.22.29c.7,0,1.06-.22,1.06-.67s-.39-.66-1.16-.66h-.4v-.55h.38q1,0,1-.63a.5.5,0,0,0-.24-.43,1.16,1.16,0,0,0-.64-.16,2.54,2.54,0,0,0-1.17.3v-.6a3.65,3.65,0,0,1,1.22-.24c1,0,1.46.35,1.46,1.07a.91.91,0,0,1-.21.6,1,1,0,0,1-.61.33v0a1.16,1.16,0,0,1,.71.3.91.91,0,0,1,.27.68,1,1,0,0,1-.44.87,2,2,0,0,1-1.21.32A3,3,0,0,1,116.6,251.31Z"/><path class="cls-30" d="M123.83,251.42h-.9l-1.77-1.92h0v1.92h-.64v-4h.64v1.83h0l1.68-1.83h.84l-1.85,1.93Z"/><path class="cls-30" d="M127.84,251.42h-.58v-3.19a5.31,5.31,0,0,1-.26.47l-1.85,2.72h-.66v-4h.59v3.16a2.4,2.4,0,0,1,.2-.39l1.9-2.77h.66Z"/><path class="cls-30" d="M27.56,86a2.47,2.47,0,0,1-1.91-.78,2.92,2.92,0,0,1-.72-2A3.06,3.06,0,0,1,25.66,81a2.55,2.55,0,0,1,2-.81,2.38,2.38,0,0,1,1.87.79,2.93,2.93,0,0,1,.71,2,3.08,3.08,0,0,1-.73,2.17A2.49,2.49,0,0,1,27.56,86Zm0-5.19a1.81,1.81,0,0,0-1.43.63,2.48,2.48,0,0,0-.55,1.68,2.46,2.46,0,0,0,.54,1.66,1.73,1.73,0,0,0,1.4.63,1.84,1.84,0,0,0,1.45-.6,2.47,2.47,0,0,0,.53-1.68A2.56,2.56,0,0,0,29,81.36,1.76,1.76,0,0,0,27.6,80.76Z"/><path class="cls-30" d="M34.35,79.89v.6a1.24,1.24,0,0,1-.52.18,8.11,8.11,0,0,0-1.23.25,1.12,1.12,0,0,0-.57.53,2.94,2.94,0,0,0-.29,1.18h0A1.5,1.5,0,0,1,33.09,82a1.63,1.63,0,0,1,1.28.54,2.08,2.08,0,0,1,.48,1.43,2.16,2.16,0,0,1-.5,1.48A1.75,1.75,0,0,1,33,86a1.66,1.66,0,0,1-1.42-.65,3,3,0,0,1-.5-1.87,6.08,6.08,0,0,1,.18-1.6,2.19,2.19,0,0,1,.5-1,1.56,1.56,0,0,1,.7-.46,12.29,12.29,0,0,1,1.34-.29A2.33,2.33,0,0,0,34.35,79.89Zm-2.62,3.37v.55a2.17,2.17,0,0,0,.1.62,1.85,1.85,0,0,0,.25.53,1.16,1.16,0,0,0,.4.34,1.1,1.1,0,0,0,.52.11,1.06,1.06,0,0,0,.87-.4,1.53,1.53,0,0,0,.33-1,1.67,1.67,0,0,0-.34-1.09,1.14,1.14,0,0,0-.91-.41A1.32,1.32,0,0,0,31.73,83.26Z"/><path class="cls-30" d="M41.6,87.32H41V85.86H35.89v-4h.64v3.46h1.59V81.86h.64v3.46h1.6V81.86H41v3.46h.6Z"/><path class="cls-30" d="M45.71,84H42.88a1.59,1.59,0,0,0,.36,1,1.26,1.26,0,0,0,.95.36A1.94,1.94,0,0,0,45.43,85v.6A2.27,2.27,0,0,1,44,86a1.68,1.68,0,0,1-1.33-.54,2.55,2.55,0,0,1,0-3.06,1.69,1.69,0,0,1,1.31-.58,1.5,1.5,0,0,1,1.22.5,2.1,2.1,0,0,1,.43,1.41Zm-.66-.54a1.35,1.35,0,0,0-.26-.87.94.94,0,0,0-.74-.31,1,1,0,0,0-.77.33,1.47,1.47,0,0,0-.39.85Z"/><path class="cls-30" d="M50.17,87.32h-.54V85.86h-3v1.46h-.54v-2h.35a6,6,0,0,0,1-3.46h2.08v3.46h.59Zm-1.23-2V82.4h-.89a6.19,6.19,0,0,1-.91,2.92Z"/><path class="cls-30" d="M52.74,86a1.85,1.85,0,0,1-1.42-.56,2.07,2.07,0,0,1-.52-1.48,2.16,2.16,0,0,1,.55-1.58,1.94,1.94,0,0,1,1.48-.56,1.78,1.78,0,0,1,1.4.55,2.13,2.13,0,0,1,.5,1.52,2.18,2.18,0,0,1-.54,1.54A1.9,1.9,0,0,1,52.74,86Zm0-3.65a1.23,1.23,0,0,0-1,.42,1.73,1.73,0,0,0-.36,1.16A1.62,1.62,0,0,0,51.81,85a1.23,1.23,0,0,0,1,.41,1.16,1.16,0,0,0,1-.4,1.71,1.71,0,0,0,.34-1.14,1.75,1.75,0,0,0-.34-1.16A1.16,1.16,0,0,0,52.79,82.3Z"/><path class="cls-30" d="M58.49,85.68A2.12,2.12,0,0,1,57.4,86,1.81,1.81,0,0,1,56,85.4,2,2,0,0,1,55.49,84a2.17,2.17,0,0,1,.57-1.58,2,2,0,0,1,1.51-.6,2.12,2.12,0,0,1,.93.19v.66a1.64,1.64,0,0,0-1-.32,1.3,1.3,0,0,0-1,.44,1.7,1.7,0,0,0-.39,1.16A1.57,1.57,0,0,0,56.52,85a1.25,1.25,0,0,0,1,.4,1.6,1.6,0,0,0,1-.34Z"/><path class="cls-30" d="M62,82.41h-1.2v3.45h-.64V82.41h-1.2v-.55h3Z"/><path class="cls-30" d="M65.94,81.86,64.1,86.5c-.33.83-.79,1.24-1.38,1.24a1.27,1.27,0,0,1-.42,0v-.57a1.4,1.4,0,0,0,.38.07.8.8,0,0,0,.73-.58l.32-.76-1.57-4h.71L64,84.94l.08.3h0a2.83,2.83,0,0,1,.08-.29l1.14-3.09Z"/><path class="cls-30" d="M70,85.86h-.64V82.41h-2v3.45h-.64v-4H70Z"/><path class="cls-30" d="M74.58,85.86h-.64V84h-2v1.82h-.64v-4h.64V83.5h2V81.86h.64Z"/><path class="cls-30" d="M78.75,85.86h-.64v-.63h0a1.34,1.34,0,0,1-1.23.72,1.29,1.29,0,0,1-.93-.31,1.08,1.08,0,0,1-.34-.84c0-.75.44-1.19,1.32-1.31l1.2-.17c0-.68-.28-1-.83-1a2,2,0,0,0-1.3.5v-.66a2.48,2.48,0,0,1,1.36-.37c.94,0,1.41.49,1.41,1.49Zm-.64-2-1,.13a1.5,1.5,0,0,0-.67.22.63.63,0,0,0-.22.56.64.64,0,0,0,.2.48.84.84,0,0,0,.56.18,1,1,0,0,0,.79-.33,1.17,1.17,0,0,0,.31-.85Z"/><path class="cls-30" d="M82.7,85.86h-.64V84.2h-.54c-.25,0-.49.21-.7.63l-.52,1h-.74l.67-1.23a1.2,1.2,0,0,1,.57-.57,1.1,1.1,0,0,1-.72-.35,1.13,1.13,0,0,1,.14-1.54,1.67,1.67,0,0,1,1.08-.31h1.4Zm-.64-2.19V82.41H81.3c-.54,0-.81.2-.81.61s.26.65.79.65Z"/><path class="cls-30" d="M89.52,85.86h-.64V82.41h-2v3.45H86.2v-4h3.32Z"/><path class="cls-30" d="M92.49,86a1.82,1.82,0,0,1-1.41-.56,2,2,0,0,1-.53-1.48,2.16,2.16,0,0,1,.55-1.58,2,2,0,0,1,1.49-.56,1.77,1.77,0,0,1,1.39.55,2.13,2.13,0,0,1,.5,1.52,2.18,2.18,0,0,1-.54,1.54A1.9,1.9,0,0,1,92.49,86Zm.05-3.65a1.23,1.23,0,0,0-1,.42,1.73,1.73,0,0,0-.36,1.16A1.58,1.58,0,0,0,91.57,85a1.2,1.2,0,0,0,1,.41,1.16,1.16,0,0,0,.95-.4,1.71,1.71,0,0,0,.34-1.14,1.75,1.75,0,0,0-.34-1.16A1.16,1.16,0,0,0,92.54,82.3Z"/><path class="cls-30" d="M99,87.32h-.54V85.86h-3v1.46h-.54v-2h.35a6,6,0,0,0,1-3.46h2.08v3.46H99Zm-1.23-2V82.4h-.89A6.19,6.19,0,0,1,96,85.32Z"/><path class="cls-30" d="M102.63,85.68a2.16,2.16,0,0,1-1.1.27,1.81,1.81,0,0,1-1.38-.55A2,2,0,0,1,99.63,84a2.17,2.17,0,0,1,.56-1.58,2,2,0,0,1,1.51-.6,2.06,2.06,0,0,1,.93.19v.66a1.6,1.6,0,0,0-.95-.32,1.32,1.32,0,0,0-1,.44,1.7,1.7,0,0,0-.39,1.16,1.62,1.62,0,0,0,.37,1.11,1.28,1.28,0,0,0,1,.4,1.63,1.63,0,0,0,1-.34Z"/><path class="cls-30" d="M107,85.86h-.57V82.67l-.27.47-1.84,2.72h-.67v-4h.59V85c0-.07.1-.2.2-.38l1.9-2.77H107Z"/><path class="cls-30" d="M111,85.68a2.16,2.16,0,0,1-1.1.27,1.81,1.81,0,0,1-1.38-.55A2,2,0,0,1,108,84a2.17,2.17,0,0,1,.56-1.58,2,2,0,0,1,1.51-.6A2.06,2.06,0,0,1,111,82v.66a1.6,1.6,0,0,0-.95-.32,1.32,1.32,0,0,0-1,.44,1.7,1.7,0,0,0-.39,1.16A1.57,1.57,0,0,0,109,85a1.28,1.28,0,0,0,1,.4,1.63,1.63,0,0,0,1-.34Z"/><path class="cls-30" d="M114.47,82.41h-1.2v3.45h-.64V82.41h-1.2v-.55h3Z"/><path class="cls-30" d="M118.47,84h-2.83a1.49,1.49,0,0,0,.36,1,1.26,1.26,0,0,0,1,.36,1.94,1.94,0,0,0,1.24-.44v.6a2.3,2.3,0,0,1-1.4.38,1.71,1.71,0,0,1-1.33-.54,2.26,2.26,0,0,1-.48-1.53,2.18,2.18,0,0,1,.53-1.53,1.69,1.69,0,0,1,1.31-.58,1.5,1.5,0,0,1,1.22.5,2.16,2.16,0,0,1,.43,1.41Zm-.66-.54a1.29,1.29,0,0,0-.27-.87.92.92,0,0,0-.73-.31,1,1,0,0,0-.77.33,1.47,1.47,0,0,0-.39.85Z"/><path class="cls-30" d="M123.76,85.86h-.63v-3.3c-.06.17-.15.41-.26.74l-1,2.56h-.57l-1-2.56c-.06-.14-.14-.39-.27-.74v3.3h-.55v-4h.82l1,2.61c.08.19.18.45.29.79l.29-.78,1-2.62h.85Z"/><path class="cls-30" d="M127.93,85.86h-.64v-.63h0A1.35,1.35,0,0,1,126,86a1.31,1.31,0,0,1-.93-.31,1.08,1.08,0,0,1-.34-.84c0-.75.44-1.19,1.32-1.31l1.2-.17c0-.68-.27-1-.82-1a2,2,0,0,0-1.31.5v-.66a2.5,2.5,0,0,1,1.36-.37c.94,0,1.41.49,1.41,1.49Zm-.64-2-1,.13a1.55,1.55,0,0,0-.68.22.63.63,0,0,0-.22.56.61.61,0,0,0,.21.48.81.81,0,0,0,.55.18,1,1,0,0,0,.79-.33,1.17,1.17,0,0,0,.31-.85Z"/><path class="cls-30" d="M45.16,93.09v.6a1.19,1.19,0,0,1-.51.18,8.11,8.11,0,0,0-1.23.25,1.13,1.13,0,0,0-.58.53,3,3,0,0,0-.28,1.18h0a1.51,1.51,0,0,1,1.34-.68,1.65,1.65,0,0,1,1.28.54,2.08,2.08,0,0,1,.48,1.43,2.11,2.11,0,0,1-.51,1.48,1.74,1.74,0,0,1-1.36.55,1.67,1.67,0,0,1-1.42-.65,3.06,3.06,0,0,1-.5-1.87,6.08,6.08,0,0,1,.18-1.6,2.29,2.29,0,0,1,.5-1,1.59,1.59,0,0,1,.71-.46,12,12,0,0,1,1.33-.29A2.18,2.18,0,0,0,45.16,93.09Zm-2.61,3.37V97a2.16,2.16,0,0,0,.09.62,1.87,1.87,0,0,0,.26.53,1,1,0,0,0,.4.34,1.08,1.08,0,0,0,.52.11,1,1,0,0,0,.86-.4,1.53,1.53,0,0,0,.33-1,1.67,1.67,0,0,0-.33-1.09,1.14,1.14,0,0,0-.92-.41A1.31,1.31,0,0,0,42.55,96.46Z"/><path class="cls-30" d="M49.57,99.06h-.64v-.63h0a1.47,1.47,0,0,1-2.17.41,1.08,1.08,0,0,1-.34-.84c0-.75.44-1.19,1.32-1.31l1.2-.17c0-.68-.27-1-.82-1a2,2,0,0,0-1.31.5v-.66A2.5,2.5,0,0,1,48.16,95c.94,0,1.41.49,1.41,1.49Zm-.64-2-1,.13a1.55,1.55,0,0,0-.68.22.64.64,0,0,0-.22.56.61.61,0,0,0,.21.48.81.81,0,0,0,.55.18,1,1,0,0,0,.79-.33,1.17,1.17,0,0,0,.31-.85Z"/><path class="cls-30" d="M53.71,99.06h-.64V95.6h-.93a8.31,8.31,0,0,1-.55,2.73,1.18,1.18,0,0,1-1,.78.92.92,0,0,1-.35,0v-.55a.6.6,0,0,0,.3.07c.57,0,.94-1.17,1.1-3.52h2.11Z"/><path class="cls-30" d="M57.87,99.06h-.64v-.63h0a1.47,1.47,0,0,1-2.17.41,1.11,1.11,0,0,1-.34-.84c0-.75.44-1.19,1.32-1.31l1.2-.17c0-.68-.27-1-.82-1a2,2,0,0,0-1.31.5v-.66A2.5,2.5,0,0,1,56.46,95c.94,0,1.41.49,1.41,1.49Zm-.64-2-1,.13a1.46,1.46,0,0,0-.67.22.64.64,0,0,0-.23.56.61.61,0,0,0,.21.48.82.82,0,0,0,.56.18,1,1,0,0,0,.78-.33,1.17,1.17,0,0,0,.31-.85Z"/><path class="cls-30" d="M62.41,99.06h-.64V97.24h-2v1.82h-.64v-4h.64V96.7h2V95.06h.64Z"/><path class="cls-30" d="M66.44,98.88a2.12,2.12,0,0,1-1.09.27A1.81,1.81,0,0,1,64,98.6a2,2,0,0,1-.53-1.45A2.17,2.17,0,0,1,64,95.57a2,2,0,0,1,1.51-.6,2.12,2.12,0,0,1,.93.19v.66a1.64,1.64,0,0,0-1-.32,1.3,1.3,0,0,0-1,.44,1.7,1.7,0,0,0-.39,1.16,1.57,1.57,0,0,0,.37,1.11,1.25,1.25,0,0,0,1,.4,1.6,1.6,0,0,0,1-.34Z"/><path class="cls-30" d="M70.77,99.06h-.58V95.87c-.06.11-.14.27-.26.47l-1.85,2.72h-.66v-4H68v3.15a3.54,3.54,0,0,1,.21-.38l1.89-2.77h.67Z"/><path class="cls-30" d="M72.73,98.48h0v2.42h-.64V95.06h.64v.7h0A1.51,1.51,0,0,1,74.11,95a1.46,1.46,0,0,1,1.21.53,2.23,2.23,0,0,1,.43,1.44,2.51,2.51,0,0,1-.48,1.61,1.65,1.65,0,0,1-1.34.6A1.33,1.33,0,0,1,72.73,98.48Zm0-1.61v.56a1.17,1.17,0,0,0,.33.84,1,1,0,0,0,.81.34,1.07,1.07,0,0,0,.92-.44,2.05,2.05,0,0,0,.33-1.24,1.68,1.68,0,0,0-.31-1.05A1,1,0,0,0,74,95.5a1.14,1.14,0,0,0-.9.39A1.48,1.48,0,0,0,72.71,96.87Z"/><path class="cls-30" d="M78.46,99.15A1.84,1.84,0,0,1,77,98.59a2.08,2.08,0,0,1-.53-1.48,2.16,2.16,0,0,1,.55-1.58A2,2,0,0,1,78.55,95a1.79,1.79,0,0,1,1.4.55,2.51,2.51,0,0,1,0,3.06A1.91,1.91,0,0,1,78.46,99.15Zm0-3.65a1.21,1.21,0,0,0-1,.42,1.75,1.75,0,0,0-.36,1.16,1.62,1.62,0,0,0,.36,1.12,1.21,1.21,0,0,0,1,.41,1.16,1.16,0,0,0,1-.4,1.76,1.76,0,0,0,.33-1.14,1.8,1.8,0,0,0-.33-1.16A1.17,1.17,0,0,0,78.5,95.5Z"/><path class="cls-30" d="M81.48,99.06v-4h1.74a1.49,1.49,0,0,1,.93.26.86.86,0,0,1,.35.72.88.88,0,0,1-.77.94c.61.08.92.39.92.93a1.06,1.06,0,0,1-.38.82,1.36,1.36,0,0,1-.93.33Zm.64-3.45v1.12h1c.52,0,.77-.2.77-.6s-.23-.52-.69-.52Zm0,1.67v1.23h1.11q.78,0,.78-.63t-.87-.6Z"/><path class="cls-30" d="M89.05,99.06h-.9l-1.77-1.92h0v1.92h-.64v-4h.64v1.83h0l1.68-1.83h.84L87.05,97Z"/><path class="cls-30" d="M93.06,99.06h-.58V95.87a5.31,5.31,0,0,1-.26.47l-1.84,2.72h-.67v-4h.59v3.15c0-.07.1-.2.2-.38l1.9-2.77h.66Z"/><path class="cls-30" d="M99.89,99.06h-.64V97.24h-2v1.82h-.64v-4h.64V96.7h2V95.06h.64Z"/><path class="cls-30" d="M104.06,99.06h-.65v-.63h0a1.47,1.47,0,0,1-2.17.41,1.11,1.11,0,0,1-.33-.84c0-.75.43-1.19,1.32-1.31l1.19-.17c0-.68-.27-1-.82-1a1.94,1.94,0,0,0-1.3.5v-.66a2.45,2.45,0,0,1,1.36-.37c.93,0,1.41.49,1.41,1.49Zm-.65-2-1,.13a1.46,1.46,0,0,0-.67.22.64.64,0,0,0-.23.56.61.61,0,0,0,.21.48.82.82,0,0,0,.56.18,1,1,0,0,0,.78-.33,1.17,1.17,0,0,0,.31-.85Z"/><path class="cls-30" d="M107.49,95.61h-1.58v3.45h-.64v-4h2.22Z"/><path class="cls-30" d="M109,98.48h0v2.42h-.64V95.06H109v.7h0a1.5,1.5,0,0,1,1.38-.79,1.46,1.46,0,0,1,1.21.53,2.23,2.23,0,0,1,.43,1.44,2.46,2.46,0,0,1-.49,1.61,1.62,1.62,0,0,1-1.33.6A1.33,1.33,0,0,1,109,98.48Zm0-1.61v.56a1.2,1.2,0,0,0,.32.84,1.08,1.08,0,0,0,.82.34,1.05,1.05,0,0,0,.91-.44,2.05,2.05,0,0,0,.33-1.24,1.68,1.68,0,0,0-.3-1.05,1,1,0,0,0-.84-.38,1.14,1.14,0,0,0-.9.39A1.43,1.43,0,0,0,109,96.87Z"/><path class="cls-30" d="M116.24,95.06,114.4,99.7c-.33.83-.79,1.24-1.39,1.24a1.24,1.24,0,0,1-.41,0v-.57a1.33,1.33,0,0,0,.37.07.78.78,0,0,0,.73-.58l.32-.76-1.56-4h.71l1.08,3.08s0,.14.08.3h0a2.83,2.83,0,0,1,.08-.29l1.13-3.09Z"/><path class="cls-30" d="M116.6,99v-.63a2.47,2.47,0,0,0,1.22.29c.7,0,1.06-.22,1.06-.67s-.39-.67-1.16-.67h-.4v-.54h.38q1,0,1-.63a.5.5,0,0,0-.24-.43,1.08,1.08,0,0,0-.64-.16,2.66,2.66,0,0,0-1.17.29v-.6a3.65,3.65,0,0,1,1.22-.24c1,0,1.46.36,1.46,1.08a.91.91,0,0,1-.21.6,1.1,1.1,0,0,1-.61.33v0a1.05,1.05,0,0,1,.71.3.9.9,0,0,1,.27.67,1,1,0,0,1-.44.87,2,2,0,0,1-1.21.33A3,3,0,0,1,116.6,99Z"/><path class="cls-30" d="M123.83,99.06h-.9l-1.77-1.92h0v1.92h-.64v-4h.64v1.83h0l1.68-1.83h.84L121.83,97Z"/><path class="cls-30" d="M127.84,99.06h-.58V95.87a5.31,5.31,0,0,1-.26.47l-1.85,2.72h-.66v-4h.59v3.15a3,3,0,0,1,.2-.38l1.9-2.77h.66Z"/></g></svg>