<svg id="Layer_1" data-name="Layer 1" xmlns="http://www.w3.org/2000/svg" xmlns:xlink="http://www.w3.org/1999/xlink" viewBox="0 0 137.47 195.04"><defs><style>.cls-1{fill:#fff;}.cls-2{fill:url(#linear-gradient);}.cls-3{fill:url(#linear-gradient-2);}.cls-4{fill:#b4ec36;}.cls-5{fill:#5ea0ef;}.cls-6{fill:url(#linear-gradient-3);}.cls-7{fill:#50e6ff;}.cls-8{fill:#c3f1ff;}.cls-9{fill:#9cebff;}.cls-10{fill:url(#linear-gradient-4);}.cls-11{fill:url(#linear-gradient-5);}.cls-12{fill:url(#linear-gradient-6);}.cls-13{fill:url(#linear-gradient-7);}.cls-14{fill:url(#linear-gradient-8);}.cls-15{fill:none;stroke:#3c3c41;stroke-miterlimit:10;}.cls-16{fill:#1e1e1e;}</style><linearGradient id="linear-gradient" x1="69.14" y1="849.49" x2="69.14" y2="885.26" gradientTransform="translate(0 -852.79)" gradientUnits="userSpaceOnUse"><stop offset="0.18" stop-color="#5ea0ef"/><stop offset="1" stop-color="#0078d4"/></linearGradient><linearGradient id="linear-gradient-2" x1="69.14" y1="965.18" x2="69.14" y2="928.08" gradientTransform="translate(0 -852.79)" gradientUnits="userSpaceOnUse"><stop offset="0" stop-color="#5e9624"/><stop offset="0.02" stop-color="#5f9724"/><stop offset="1" stop-color="#76bc2d"/></linearGradient><linearGradient id="linear-gradient-3" x1="68.74" y1="1017.54" x2="68.74" y2="995.89" gradientTransform="translate(0 -852.79)" gradientUnits="userSpaceOnUse"><stop offset="0" stop-color="#0078d4"/><stop offset="0.82" stop-color="#5ea0ef"/></linearGradient><linearGradient id="linear-gradient-4" x1="68.74" y1="1025.89" x2="68.74" y2="1017.54" gradientTransform="translate(0 -852.79)" gradientUnits="userSpaceOnUse"><stop offset="0.15" stop-color="#ccc"/><stop offset="1" stop-color="#707070"/></linearGradient><linearGradient id="linear-gradient-5" x1="16.24" y1="1017.54" x2="16.24" y2="995.89" xlink:href="#linear-gradient-3"/><linearGradient id="linear-gradient-6" x1="16.24" y1="1025.89" x2="16.24" y2="1017.54" xlink:href="#linear-gradient-4"/><linearGradient id="linear-gradient-7" x1="121.24" y1="1017.54" x2="121.24" y2="995.89" xlink:href="#linear-gradient-3"/><linearGradient id="linear-gradient-8" x1="121.24" y1="1025.89" x2="121.24" y2="1017.54" xlink:href="#linear-gradient-4"/></defs><g id="Shapes"><rect class="cls-1" width="137.47" height="195.04"/><path class="cls-2" d="M87,18.65a8.15,8.15,0,0,0-7-7.9A10.25,10.25,0,0,0,69.59.81a10.51,10.51,0,0,0-9.94,7,9.67,9.67,0,0,0-8.4,9.45A9.94,9.94,0,0,0,61.34,26.8H79A8.25,8.25,0,0,0,87,18.65Z"/><path class="cls-3" d="M53.47,92.34,68.38,77.43a1.07,1.07,0,0,1,1.51,0l0,0L84.82,92.34a1.07,1.07,0,0,1,0,1.51l0,0L69.89,108.8a1.06,1.06,0,0,1-1.49,0L53.47,93.87a1.06,1.06,0,0,1,0-1.51Z"/><path class="cls-4" d="M73.05,84.22l-3.76-3.75a.23.23,0,0,0-.29,0l-3.77,3.75a.17.17,0,0,0,0,.25.17.17,0,0,0,.19.07h2.2a.2.2,0,0,1,.2.19h0v3.56a.18.18,0,0,0,.19.19h2.35a.18.18,0,0,0,.19-.19h0V84.73a.2.2,0,0,1,.2-.19h2.2a.19.19,0,0,0,.22-.13.17.17,0,0,0-.08-.19Z"/><path class="cls-4" d="M60.26,88.86l-3.74,3.78a.2.2,0,0,0,0,.27l3.74,3.75a.19.19,0,0,0,.27,0,.17.17,0,0,0,.06-.15V94.33a.19.19,0,0,1,.2-.19h3.55a.18.18,0,0,0,.18-.18V91.6a.18.18,0,0,0-.06-.25l-.06,0H60.84a.18.18,0,0,1-.19-.16V89a.21.21,0,0,0-.13-.27.2.2,0,0,0-.26.13Z"/><path class="cls-4" d="M78.17,96.66,82,92.89a.19.19,0,0,0,0-.26l-3.79-3.77a.19.19,0,0,0-.27,0,.31.31,0,0,0-.05.12v2.22a.18.18,0,0,1-.17.18H74.1a.18.18,0,0,0-.18.18h0a0,0,0,0,0,0,0v2.34a.18.18,0,0,0,.15.2h3.58a.18.18,0,0,1,.19.19h0v2.21a.21.21,0,0,0,.22.17.19.19,0,0,0,.1,0Z"/><path class="cls-1" d="M74.1,93.11a5,5,0,1,0-6.29,4.74v1.69a3,3,0,1,0,4.1,1.31,3.07,3.07,0,0,0-1.31-1.31V97.76A4.91,4.91,0,0,0,74.1,93.11Z"/><circle id="e99c3387-15c3-4f28-bd4b-cb209b430e06" class="cls-5" cx="69.16" cy="93.09" r="2.88"/><rect class="cls-6" x="52.5" y="143.11" width="32.47" height="21.65" rx="1.08"/><polygon class="cls-7" points="74.15 150.77 74.15 157.07 68.74 160.24 68.74 153.93 74.15 150.77"/><polygon class="cls-8" points="74.15 150.77 68.74 153.95 63.32 150.77 68.74 147.62 74.15 150.77"/><polygon class="cls-9" points="68.74 153.95 68.74 160.24 63.32 157.07 63.32 150.77 68.74 153.95"/><polygon class="cls-8" points="63.32 157.07 68.74 153.93 68.74 160.24 63.32 157.07"/><polygon class="cls-9" points="74.15 157.07 68.74 153.93 68.74 160.24 74.15 157.07"/><path class="cls-10" d="M75.25,171.3c-3.21-.5-3.34-2.81-3.34-6.55H65.54c0,3.74-.11,6.05-3.32,6.55a1.8,1.8,0,0,0-1.6,1.81H76.85A1.79,1.79,0,0,0,75.25,171.3Z"/><rect class="cls-11" y="143.11" width="32.47" height="21.65" rx="1.08"/><polygon class="cls-7" points="21.65 150.77 21.65 157.07 16.24 160.24 16.24 153.93 21.65 150.77"/><polygon class="cls-8" points="21.65 150.77 16.24 153.95 10.82 150.77 16.24 147.62 21.65 150.77"/><polygon class="cls-9" points="16.24 153.95 16.24 160.24 10.82 157.07 10.82 150.77 16.24 153.95"/><polygon class="cls-8" points="10.82 157.07 16.24 153.93 16.24 160.24 10.82 157.07"/><polygon class="cls-9" points="21.65 157.07 16.24 153.93 16.24 160.24 21.65 157.07"/><path class="cls-12" d="M22.75,171.3c-3.21-.5-3.34-2.81-3.34-6.55H13c0,3.74-.11,6.05-3.32,6.55a1.8,1.8,0,0,0-1.6,1.81H24.35A1.79,1.79,0,0,0,22.75,171.3Z"/><rect class="cls-13" x="105" y="143.11" width="32.47" height="21.65" rx="1.08"/><polygon class="cls-7" points="126.65 150.77 126.65 157.07 121.24 160.24 121.24 153.93 126.65 150.77"/><polygon class="cls-8" points="126.65 150.77 121.24 153.95 115.82 150.77 121.24 147.62 126.65 150.77"/><polygon class="cls-9" points="121.24 153.95 121.24 160.24 115.82 157.07 115.82 150.77 121.24 153.95"/><polygon class="cls-8" points="115.82 157.07 121.24 153.93 121.24 160.24 115.82 157.07"/><polygon class="cls-9" points="126.65 157.07 121.24 153.93 121.24 160.24 126.65 157.07"/><path class="cls-14" d="M127.75,171.3c-3.21-.5-3.34-2.81-3.34-6.55H118c0,3.74-.11,6.05-3.32,6.55a1.8,1.8,0,0,0-1.6,1.81h16.23A1.79,1.79,0,0,0,127.75,171.3Z"/><line class="cls-15" x1="69.14" y1="30.11" x2="69.14" y2="42.61"/><line class="cls-15" x1="69.14" y1="60.11" x2="69.14" y2="72.61"/><line class="cls-15" x1="69.14" y1="133.49" x2="69.14" y2="140.61"/><line class="cls-15" x1="69.14" y1="113.8" x2="69.14" y2="122.46"/><path class="cls-15" d="M20.91,128.9l-2.45,1a4.6,4.6,0,0,0-2.44,4v6.69"/><line class="cls-15" x1="63.96" y1="111.11" x2="35.93" y2="122.69"/><path class="cls-15" d="M116.68,128.9l2.45,1a4.6,4.6,0,0,1,2.44,4v6.69"/><line class="cls-15" x1="73.63" y1="111.11" x2="101.66" y2="122.69"/><path class="cls-16" d="M22.32,129.76a2.18,2.18,0,0,1,.1-.67,2.6,2.6,0,0,1,.3-.63,2.47,2.47,0,0,1,.49-.53,2.41,2.41,0,0,1,.66-.38,2.51,2.51,0,0,1-.87-.78,1.94,1.94,0,0,1-.32-1.06,2,2,0,0,1,.67-1.54,2.5,2.5,0,0,1,.75-.45,2.76,2.76,0,0,1,1.88,0,2.21,2.21,0,0,1,.75.45,2.1,2.1,0,0,1,.5.68,2.26,2.26,0,0,1,.17.85,1.91,1.91,0,0,1-.32,1.06,2.48,2.48,0,0,1-.86.78,2.22,2.22,0,0,1,.65.38,2.47,2.47,0,0,1,.49.53,2.6,2.6,0,0,1,.3.63,2.22,2.22,0,0,1,.1.67,2.49,2.49,0,0,1-.19,1,2.19,2.19,0,0,1-.56.78,2.56,2.56,0,0,1-.87.51,3.14,3.14,0,0,1-1.1.18,3.21,3.21,0,0,1-1.1-.18,2.52,2.52,0,0,1-.86-.51,2.19,2.19,0,0,1-.56-.78A2.34,2.34,0,0,1,22.32,129.76Zm1-.08a2.16,2.16,0,0,0,.12.71,1.54,1.54,0,0,0,.34.54,1.42,1.42,0,0,0,.53.34,2.06,2.06,0,0,0,.7.12,2,2,0,0,0,.68-.12,1.58,1.58,0,0,0,.53-.35,1.3,1.3,0,0,0,.35-.54,1.85,1.85,0,0,0,.13-.7,1.88,1.88,0,0,0-.12-.66,1.7,1.7,0,0,0-.34-.54,1.68,1.68,0,0,0-.54-.37,1.63,1.63,0,0,0-.69-.13,1.69,1.69,0,0,0-.67.12,1.62,1.62,0,0,0-.54.35,1.73,1.73,0,0,0-.35.54A1.8,1.8,0,0,0,23.36,129.68Zm.3-3.9a1.39,1.39,0,0,0,.85,1.3,1.35,1.35,0,0,0,1.08,0,1.43,1.43,0,0,0,.44-.3,1.37,1.37,0,0,0,.3-.45,1.46,1.46,0,0,0,.11-.55,1.39,1.39,0,0,0-1.39-1.41,1.56,1.56,0,0,0-.57.11,1.63,1.63,0,0,0-.44.3,1.41,1.41,0,0,0-.28.45A1.52,1.52,0,0,0,23.66,125.78Z"/><path class="cls-16" d="M34.23,127.87a7.81,7.81,0,0,1-.19,1.87,4.19,4.19,0,0,1-.55,1.37,2.34,2.34,0,0,1-2.07,1.14,2.21,2.21,0,0,1-1.13-.28,2.33,2.33,0,0,1-.84-.81,4,4,0,0,1-.51-1.31,7.58,7.58,0,0,1-.18-1.78,9.05,9.05,0,0,1,.19-1.94,4.3,4.3,0,0,1,.54-1.42,2.45,2.45,0,0,1,.89-.86,2.54,2.54,0,0,1,1.21-.29Q34.23,123.56,34.23,127.87Zm-1,.09c0-2.39-.57-3.58-1.71-3.58s-1.79,1.21-1.79,3.65c0,2.27.58,3.4,1.76,3.4S33.25,130.28,33.25,128Z"/><path class="cls-16" d="M63.49,129.76a2.18,2.18,0,0,1,.1-.67,2.6,2.6,0,0,1,.3-.63,2.47,2.47,0,0,1,.49-.53,2.41,2.41,0,0,1,.66-.38,2.51,2.51,0,0,1-.87-.78,1.94,1.94,0,0,1-.32-1.06,2.11,2.11,0,0,1,.18-.86,1.94,1.94,0,0,1,.49-.68,2.5,2.5,0,0,1,.75-.45,2.76,2.76,0,0,1,1.88,0,2.21,2.21,0,0,1,.75.45,2.1,2.1,0,0,1,.5.68,2.26,2.26,0,0,1,.17.85,1.91,1.91,0,0,1-.32,1.06,2.48,2.48,0,0,1-.86.78,2.22,2.22,0,0,1,.65.38,2.47,2.47,0,0,1,.49.53,2.6,2.6,0,0,1,.3.63,2.22,2.22,0,0,1,.1.67,2.49,2.49,0,0,1-.19,1,2.19,2.19,0,0,1-.56.78,2.56,2.56,0,0,1-.87.51,3.14,3.14,0,0,1-1.1.18,3.21,3.21,0,0,1-1.1-.18,2.52,2.52,0,0,1-.86-.51,2.19,2.19,0,0,1-.56-.78A2.34,2.34,0,0,1,63.49,129.76Zm1-.08a2.16,2.16,0,0,0,.12.71,1.54,1.54,0,0,0,.34.54,1.42,1.42,0,0,0,.53.34,2.06,2.06,0,0,0,.7.12,2,2,0,0,0,.68-.12,1.58,1.58,0,0,0,.53-.35,1.3,1.3,0,0,0,.35-.54,1.85,1.85,0,0,0,.13-.7,1.88,1.88,0,0,0-.12-.66,1.7,1.7,0,0,0-.34-.54,1.68,1.68,0,0,0-.54-.37,1.63,1.63,0,0,0-.69-.13,1.69,1.69,0,0,0-.67.12,1.62,1.62,0,0,0-.54.35,1.73,1.73,0,0,0-.35.54A1.8,1.8,0,0,0,64.53,129.68Zm.3-3.9a1.39,1.39,0,0,0,.85,1.3,1.35,1.35,0,0,0,1.08,0,1.43,1.43,0,0,0,.44-.3,1.37,1.37,0,0,0,.3-.45,1.46,1.46,0,0,0,.11-.55,1.39,1.39,0,0,0-1.39-1.41,1.56,1.56,0,0,0-.57.11,1.63,1.63,0,0,0-.44.3,1.41,1.41,0,0,0-.28.45A1.52,1.52,0,0,0,64.83,125.78Z"/><path class="cls-16" d="M75.4,127.87a7.81,7.81,0,0,1-.19,1.87,4.19,4.19,0,0,1-.55,1.37,2.34,2.34,0,0,1-2.07,1.14,2.21,2.21,0,0,1-1.13-.28,2.33,2.33,0,0,1-.84-.81,4,4,0,0,1-.51-1.31,7.58,7.58,0,0,1-.18-1.78,9.05,9.05,0,0,1,.19-1.94,4.3,4.3,0,0,1,.54-1.42,2.45,2.45,0,0,1,.89-.86,2.54,2.54,0,0,1,1.21-.29Q75.4,123.56,75.4,127.87Zm-1,.09c0-2.39-.57-3.58-1.71-3.58s-1.79,1.21-1.79,3.65c0,2.27.58,3.4,1.76,3.4S74.42,130.28,74.42,128Z"/><path class="cls-16" d="M102.71,129.76a2.18,2.18,0,0,1,.1-.67,2.6,2.6,0,0,1,.3-.63,2.47,2.47,0,0,1,.49-.53,2.41,2.41,0,0,1,.66-.38,2.51,2.51,0,0,1-.87-.78,1.94,1.94,0,0,1-.32-1.06,2,2,0,0,1,.67-1.54,2.5,2.5,0,0,1,.75-.45,2.76,2.76,0,0,1,1.88,0,2.21,2.21,0,0,1,.75.45,2.1,2.1,0,0,1,.5.68,2.26,2.26,0,0,1,.17.85,1.91,1.91,0,0,1-.32,1.06,2.48,2.48,0,0,1-.86.78,2.22,2.22,0,0,1,.65.38,2.47,2.47,0,0,1,.49.53,2.6,2.6,0,0,1,.3.63,2.22,2.22,0,0,1,.1.67,2.34,2.34,0,0,1-.2,1,2,2,0,0,1-.56.78,2.42,2.42,0,0,1-.86.51,3.14,3.14,0,0,1-1.1.18,3.21,3.21,0,0,1-1.1-.18,2.52,2.52,0,0,1-.86-.51,2.19,2.19,0,0,1-.56-.78A2.34,2.34,0,0,1,102.71,129.76Zm1-.08a1.93,1.93,0,0,0,.12.71,1.54,1.54,0,0,0,.34.54,1.42,1.42,0,0,0,.53.34,2.06,2.06,0,0,0,.7.12,2,2,0,0,0,.68-.12,1.58,1.58,0,0,0,.53-.35,1.3,1.3,0,0,0,.35-.54,1.85,1.85,0,0,0,.13-.7A1.88,1.88,0,0,0,107,129a1.7,1.7,0,0,0-.34-.54,1.68,1.68,0,0,0-.54-.37,1.63,1.63,0,0,0-.69-.13,1.69,1.69,0,0,0-.67.12,1.62,1.62,0,0,0-.54.35,1.73,1.73,0,0,0-.35.54A1.8,1.8,0,0,0,103.75,129.68Zm.3-3.9a1.39,1.39,0,0,0,.85,1.3,1.35,1.35,0,0,0,1.08,0,1.43,1.43,0,0,0,.44-.3,1.37,1.37,0,0,0,.3-.45,1.46,1.46,0,0,0,.11-.55,1.39,1.39,0,0,0-1.39-1.41,1.56,1.56,0,0,0-.57.11,1.63,1.63,0,0,0-.44.3,1.41,1.41,0,0,0-.28.45A1.52,1.52,0,0,0,104.05,125.78Z"/><path class="cls-16" d="M114.62,127.87a7.81,7.81,0,0,1-.19,1.87,4.19,4.19,0,0,1-.55,1.37,2.34,2.34,0,0,1-2.07,1.14,2.21,2.21,0,0,1-1.13-.28,2.33,2.33,0,0,1-.84-.81,4,4,0,0,1-.51-1.31,7.58,7.58,0,0,1-.18-1.78,8.46,8.46,0,0,1,.19-1.94,4.3,4.3,0,0,1,.54-1.42,2.45,2.45,0,0,1,.89-.86,2.54,2.54,0,0,1,1.21-.29Q114.62,123.56,114.62,127.87Zm-1,.09c0-2.39-.57-3.58-1.71-3.58s-1.8,1.21-1.8,3.65c0,2.27.59,3.4,1.77,3.4S113.64,130.28,113.64,128Z"/></g><path class="cls-16" d="M48.6,49.47H46.78v5.64H46V49.47H44.23V48.8H48.6Z"/><path class="cls-16" d="M53.46,54.84a3.62,3.62,0,0,1-1.74.37,2.83,2.83,0,0,1-2.15-.86,3.21,3.21,0,0,1-.81-2.28,3.34,3.34,0,0,1,.91-2.44A3.09,3.09,0,0,1,52,48.7a3.74,3.74,0,0,1,1.48.26v.79A2.93,2.93,0,0,0,52,49.37a2.29,2.29,0,0,0-1.76.72A2.75,2.75,0,0,0,49.53,52a2.62,2.62,0,0,0,.63,1.84,2.18,2.18,0,0,0,1.66.68,3.1,3.1,0,0,0,1.64-.42Z"/><path class="cls-16" d="M55.48,52.72v2.39h-.73V48.8h1.73a2.27,2.27,0,0,1,1.56.5,1.76,1.76,0,0,1,.56,1.39A1.91,1.91,0,0,1,58,52.15a2.37,2.37,0,0,1-1.67.57Zm0-3.25v2.59h.78a1.71,1.71,0,0,0,1.16-.35,1.25,1.25,0,0,0,.41-1c0-.83-.5-1.25-1.48-1.25Z"/><path class="cls-16" d="M62,52.88h-2.4v-.56H62Z"/><path class="cls-16" d="M67,55.11H66.3V51.22H64v3.89h-.72v-4.5H67Z"/><path class="cls-16" d="M70.36,55.21a2.09,2.09,0,0,1-1.59-.63,2.33,2.33,0,0,1-.6-1.67,2.43,2.43,0,0,1,.62-1.77,2.24,2.24,0,0,1,1.68-.64,2,2,0,0,1,1.57.62,2.84,2.84,0,0,1,0,3.44A2.12,2.12,0,0,1,70.36,55.21Zm.06-4.1a1.38,1.38,0,0,0-1.1.47,2,2,0,0,0-.41,1.3,1.82,1.82,0,0,0,.41,1.26,1.39,1.39,0,0,0,1.1.47,1.33,1.33,0,0,0,1.07-.46,2,2,0,0,0,.38-1.28,2,2,0,0,0-.38-1.31A1.32,1.32,0,0,0,70.42,51.11Z"/><path class="cls-16" d="M74.49,54.46h0v2.72h-.72V50.61h.72v.79h0a1.72,1.72,0,0,1,1.56-.9,1.64,1.64,0,0,1,1.36.61,2.51,2.51,0,0,1,.49,1.61,2.81,2.81,0,0,1-.55,1.81,1.82,1.82,0,0,1-1.51.68A1.52,1.52,0,0,1,74.49,54.46Zm0-1.82v.63a1.36,1.36,0,0,0,.36.95,1.29,1.29,0,0,0,2-.12,2.32,2.32,0,0,0,.37-1.39,1.84,1.84,0,0,0-.35-1.18,1.16,1.16,0,0,0-.94-.42,1.27,1.27,0,0,0-1,.43A1.6,1.6,0,0,0,74.48,52.64Z"/><path class="cls-16" d="M81.87,51.22H80.52v3.89H79.8V51.22H78.45v-.61h3.42Z"/><path class="cls-16" d="M84.87,53.35a1.69,1.69,0,0,1,.08-.5,1.77,1.77,0,0,1,.23-.48,1.92,1.92,0,0,1,.36-.4,1.74,1.74,0,0,1,.5-.28,1.8,1.8,0,0,1-.66-.59,1.39,1.39,0,0,1-.24-.79,1.5,1.5,0,0,1,.14-.64,1.46,1.46,0,0,1,.37-.51,1.59,1.59,0,0,1,.56-.34,2.13,2.13,0,0,1,1.41,0,1.65,1.65,0,0,1,.56.34,1.46,1.46,0,0,1,.37.51,1.53,1.53,0,0,1,.13.64,1.39,1.39,0,0,1-.24.79,1.82,1.82,0,0,1-.64.59,1.69,1.69,0,0,1,.49.28,2.25,2.25,0,0,1,.36.4,1.77,1.77,0,0,1,.23.48,1.69,1.69,0,0,1,.08.5,1.83,1.83,0,0,1-.15.75,1.67,1.67,0,0,1-.42.59,2,2,0,0,1-.65.38,2.5,2.5,0,0,1-1.65,0,1.94,1.94,0,0,1-.64-.38A1.58,1.58,0,0,1,85,54.1,1.83,1.83,0,0,1,84.87,53.35Zm.78-.06a1.51,1.51,0,0,0,.09.53,1.15,1.15,0,0,0,.66.66,1.42,1.42,0,0,0,.52.09,1.44,1.44,0,0,0,.51-.09,1.2,1.2,0,0,0,.4-.26,1.15,1.15,0,0,0,.26-.41,1.24,1.24,0,0,0,.1-.52,1.39,1.39,0,0,0-.09-.5,1.2,1.2,0,0,0-.26-.4,1.15,1.15,0,0,0-.4-.28,1.24,1.24,0,0,0-.52-.1,1.35,1.35,0,0,0-.5.09,1.27,1.27,0,0,0-.41.27,1.11,1.11,0,0,0-.26.4A1.27,1.27,0,0,0,85.65,53.29Zm.23-2.93a1,1,0,0,0,.08.42,1,1,0,0,0,.22.33,1.23,1.23,0,0,0,.33.23,1.11,1.11,0,0,0,.41.08,1.06,1.06,0,0,0,.4-.08,1.13,1.13,0,0,0,.34-.23,1.46,1.46,0,0,0,.22-.33,1.14,1.14,0,0,0,0-.84,1,1,0,0,0-.55-.55,1,1,0,0,0-.41-.08,1,1,0,0,0-.43.08,1,1,0,0,0-.33.23A.93.93,0,0,0,86,50,1.14,1.14,0,0,0,85.88,50.36Z"/><path class="cls-16" d="M93.81,51.93a6.5,6.5,0,0,1-.14,1.4,3.36,3.36,0,0,1-.42,1,1.92,1.92,0,0,1-.66.64,1.86,1.86,0,0,1-.89.22,1.7,1.7,0,0,1-.85-.21,1.75,1.75,0,0,1-.63-.61,2.91,2.91,0,0,1-.38-1,6,6,0,0,1-.14-1.34,7.09,7.09,0,0,1,.14-1.46,3.3,3.3,0,0,1,.41-1.06,1.79,1.79,0,0,1,1.58-.86C93.15,48.7,93.81,49.78,93.81,51.93Zm-.74.07c0-1.79-.43-2.69-1.28-2.69s-1.35.91-1.35,2.74.44,2.55,1.33,2.55S93.07,53.73,93.07,52Z"/><path class="cls-16" d="M.49,181.46v-4.2h1.2a1.28,1.28,0,0,1,.86.27.84.84,0,0,1,.32.69,1,1,0,0,1-.19.62,1,1,0,0,1-.53.38h0a1,1,0,0,1,.67.32,1,1,0,0,1,.26.71,1.08,1.08,0,0,1-.39.87,1.43,1.43,0,0,1-1,.33ZM1,177.71v1.35h.51a.93.93,0,0,0,.63-.19.66.66,0,0,0,.24-.55c0-.41-.27-.61-.81-.61Zm0,1.8V181h.67a1,1,0,0,0,.68-.21.71.71,0,0,0,.23-.56c0-.5-.33-.74-1-.74Z"/><path class="cls-16" d="M6.38,181.46H6v-2.39l-.2.35-1.38,2h-.5v-3h.44v2.37a1.61,1.61,0,0,1,.15-.29l1.42-2.08h.5Z"/><path class="cls-16" d="M7.85,181h0v1.81H7.35v-4.38h.48V179h0a1.12,1.12,0,0,1,1-.6,1.11,1.11,0,0,1,.91.41,1.62,1.62,0,0,1,.32,1.08,1.87,1.87,0,0,1-.36,1.2,1.23,1.23,0,0,1-1,.45A1,1,0,0,1,7.85,181Zm0-1.21v.42a.89.89,0,0,0,.25.63.86.86,0,0,0,1.29-.07,1.53,1.53,0,0,0,.25-.93,1.24,1.24,0,0,0-.23-.79.75.75,0,0,0-.63-.28.82.82,0,0,0-.67.29A1.07,1.07,0,0,0,7.83,179.82Z"/><path class="cls-16" d="M12.77,178.87h-.9v2.59h-.48v-2.59h-.91v-.41h2.29Z"/><path class="cls-16" d="M15.73,178.46l-1.38,3.48c-.25.63-.59.94-1,.94a1.3,1.3,0,0,1-.31,0v-.43a1,1,0,0,0,.28.05.58.58,0,0,0,.55-.43l.24-.57-1.17-3h.53l.81,2.31.06.23h0c0-.05,0-.12.06-.22l.85-2.32Z"/><path class="cls-16" d="M18.39,181.46h-.48V181h0a1,1,0,0,1-.92.53,1,1,0,0,1-.7-.23.83.83,0,0,1-.26-.63c0-.56.33-.89,1-1l.9-.13c0-.51-.2-.76-.62-.76a1.44,1.44,0,0,0-1,.37v-.5a1.9,1.9,0,0,1,1-.28c.7,0,1.05.38,1.05,1.12ZM17.91,180l-.72.1a1.13,1.13,0,0,0-.5.16.56.56,0,0,0,0,.78.64.64,0,0,0,.42.14.76.76,0,0,0,.59-.25.92.92,0,0,0,.23-.63Z"/><path class="cls-16" d="M21.49,181.46H21v-2.59h-.7a6.43,6.43,0,0,1-.41,2,.86.86,0,0,1-.78.58.68.68,0,0,1-.26,0v-.41a.42.42,0,0,0,.22,0c.43,0,.71-.88.83-2.64h1.58Z"/><path class="cls-16" d="M22.46,181.46v-3h.48v1.16h.81a1.07,1.07,0,0,1,.73.24.85.85,0,0,1,.27.67.88.88,0,0,1-.27.68,1,1,0,0,1-.69.25Zm.48-1.43v1h.72c.4,0,.6-.17.6-.52s-.2-.5-.61-.5Z"/><path class="cls-16" d="M28,181.46h-.48V180.1H26v1.36h-.48v-3H26v1.23h1.53v-1.23H28Z"/><path class="cls-16" d="M31.09,181.46h-.48V181h0a1,1,0,0,1-.92.53,1,1,0,0,1-.7-.23.83.83,0,0,1-.26-.63c0-.56.33-.89,1-1l.9-.13c0-.51-.2-.76-.62-.76a1.44,1.44,0,0,0-1,.37v-.5a1.9,1.9,0,0,1,1-.28c.7,0,1.05.38,1.05,1.12ZM30.61,180l-.72.1a1.23,1.23,0,0,0-.51.16.49.49,0,0,0-.17.42.47.47,0,0,0,.16.36.64.64,0,0,0,.42.14.76.76,0,0,0,.59-.25.88.88,0,0,0,.23-.63Z"/><path class="cls-16" d="M34.05,181.46h-.48v-1.24h-.4c-.2,0-.37.16-.53.47l-.39.77h-.56l.51-.92a.88.88,0,0,1,.42-.43.81.81,0,0,1-.53-.25.83.83,0,0,1,.1-1.16,1.22,1.22,0,0,1,.81-.24h1Zm-.48-1.64v-.95H33c-.4,0-.61.16-.61.46s.2.49.59.49Z"/><path class="cls-16" d="M9.93,188.66H9.45v-2.47c0,.13-.1.31-.19.55l-.75,1.92H8.07l-.77-1.92c0-.1-.11-.28-.2-.55v2.47H6.69v-3H7.3l.79,2c.06.14.13.34.22.59l.21-.58.77-2h.64Z"/><path class="cls-16" d="M13.05,188.66h-.48v-.46h0a1,1,0,0,1-.93.53,1,1,0,0,1-.7-.23.82.82,0,0,1-.25-.63c0-.56.33-.89,1-1l.9-.13c0-.51-.21-.76-.62-.76a1.46,1.46,0,0,0-1,.37v-.49a1.87,1.87,0,0,1,1-.29c.71,0,1.06.38,1.06,1.12Zm-.48-1.51-.72.1a1.13,1.13,0,0,0-.51.16.49.49,0,0,0-.17.42.44.44,0,0,0,.16.36.61.61,0,0,0,.42.14.78.78,0,0,0,.59-.25.92.92,0,0,0,.23-.63Z"/><path class="cls-16" d="M17.78,188.66H14v-3h.49v2.59h1.19v-2.59h.48v2.59H17.3v-2.59h.48Z"/><path class="cls-16" d="M21.27,188.66h-.44v-2.39c0,.08-.1.2-.19.36l-1.39,2h-.5v-3h.44V188l.16-.29,1.42-2.08h.5Z"/><path class="cls-16" d="M24.73,188.66h-.48V187.3H22.72v1.36h-.48v-3h.48v1.23h1.53v-1.23h.48Z"/><path class="cls-16" d="M27.85,188.66h-.48v-.46h0a1,1,0,0,1-.92.53,1,1,0,0,1-.71-.23.82.82,0,0,1-.25-.63c0-.56.33-.89,1-1l.9-.13c0-.51-.21-.76-.62-.76a1.46,1.46,0,0,0-1,.37v-.49a1.87,1.87,0,0,1,1-.29c.71,0,1.06.38,1.06,1.12Zm-.48-1.51-.72.1a1.18,1.18,0,0,0-.51.16.49.49,0,0,0-.17.42.44.44,0,0,0,.16.36.61.61,0,0,0,.42.14.76.76,0,0,0,.59-.25.92.92,0,0,0,.23-.63Z"/><path class="cls-16" d="M52.49,181.46v-4.2h1.2a1.28,1.28,0,0,1,.86.27.84.84,0,0,1,.32.69,1,1,0,0,1-.19.62,1,1,0,0,1-.53.38h0a1,1,0,0,1,.67.32,1,1,0,0,1,.26.71,1.08,1.08,0,0,1-.39.87,1.43,1.43,0,0,1-1,.33Zm.49-3.75v1.35h.51a.93.93,0,0,0,.63-.19.66.66,0,0,0,.24-.55c0-.41-.27-.61-.81-.61Zm0,1.8V181h.67a1,1,0,0,0,.68-.21.71.71,0,0,0,.23-.56c0-.5-.33-.74-1-.74Z"/><path class="cls-16" d="M58.38,181.46H58v-2.39l-.2.35-1.38,2h-.5v-3h.44v2.37a1.61,1.61,0,0,1,.15-.29l1.42-2.08h.5Z"/><path class="cls-16" d="M59.85,181h0v1.81h-.48v-4.38h.48V179h0a1.12,1.12,0,0,1,1-.6,1.11,1.11,0,0,1,.91.41,1.62,1.62,0,0,1,.32,1.08,1.87,1.87,0,0,1-.36,1.2,1.23,1.23,0,0,1-1,.45A1,1,0,0,1,59.85,181Zm0-1.21v.42a.89.89,0,0,0,.25.63.86.86,0,0,0,1.29-.07,1.53,1.53,0,0,0,.25-.93,1.24,1.24,0,0,0-.23-.79.75.75,0,0,0-.63-.28.82.82,0,0,0-.67.29A1.07,1.07,0,0,0,59.83,179.82Z"/><path class="cls-16" d="M64.77,178.87h-.9v2.59h-.48v-2.59h-.91v-.41h2.29Z"/><path class="cls-16" d="M67.73,178.46l-1.38,3.48c-.25.63-.59.94-1,.94a1.3,1.3,0,0,1-.31,0v-.43a1,1,0,0,0,.28.05.58.58,0,0,0,.55-.43l.24-.57-1.17-3h.53l.81,2.31.06.23h0c0-.05,0-.12.06-.22l.85-2.32Z"/><path class="cls-16" d="M70.39,181.46h-.48V181h0a1,1,0,0,1-.92.53,1,1,0,0,1-.7-.23.83.83,0,0,1-.26-.63c0-.56.33-.89,1-1l.9-.13c0-.51-.2-.76-.62-.76a1.44,1.44,0,0,0-1,.37v-.5a1.9,1.9,0,0,1,1-.28c.7,0,1,.38,1,1.12ZM69.91,180l-.72.1a1.13,1.13,0,0,0-.5.16.56.56,0,0,0,0,.78.64.64,0,0,0,.42.14.76.76,0,0,0,.59-.25.92.92,0,0,0,.23-.63Z"/><path class="cls-16" d="M73.49,181.46H73v-2.59h-.7a6.43,6.43,0,0,1-.41,2,.86.86,0,0,1-.78.58.68.68,0,0,1-.26,0v-.41a.42.42,0,0,0,.22,0c.43,0,.71-.88.83-2.64h1.58Z"/><path class="cls-16" d="M74.46,181.46v-3h.48v1.16h.81a1.07,1.07,0,0,1,.73.24.85.85,0,0,1,.27.67.88.88,0,0,1-.27.68,1,1,0,0,1-.69.25Zm.48-1.43v1h.72c.4,0,.6-.17.6-.52s-.2-.5-.61-.5Z"/><path class="cls-16" d="M80,181.46h-.48V180.1H78v1.36h-.48v-3H78v1.23h1.53v-1.23H80Z"/><path class="cls-16" d="M83.09,181.46h-.48V181h0a1,1,0,0,1-.92.53,1,1,0,0,1-.7-.23.83.83,0,0,1-.26-.63c0-.56.33-.89,1-1l.9-.13c0-.51-.2-.76-.62-.76a1.44,1.44,0,0,0-1,.37v-.5a1.9,1.9,0,0,1,1-.28c.7,0,1,.38,1,1.12ZM82.61,180l-.72.1a1.23,1.23,0,0,0-.51.16.49.49,0,0,0-.17.42.47.47,0,0,0,.16.36.64.64,0,0,0,.42.14.76.76,0,0,0,.59-.25.88.88,0,0,0,.23-.63Z"/><path class="cls-16" d="M86.05,181.46h-.48v-1.24h-.4c-.2,0-.37.16-.53.47l-.39.77h-.56l.51-.92a.88.88,0,0,1,.42-.43.81.81,0,0,1-.53-.25.83.83,0,0,1,.1-1.16,1.22,1.22,0,0,1,.81-.24h1Zm-.48-1.64v-.95H85c-.4,0-.61.16-.61.46s.2.49.59.49Z"/><path class="cls-16" d="M61.93,188.66h-.48v-2.47c0,.13-.1.31-.19.55l-.75,1.92h-.44l-.77-1.92c0-.1-.11-.28-.2-.55v2.47h-.41v-3h.61l.79,2c.06.14.13.34.22.59l.21-.58.77-2h.64Z"/><path class="cls-16" d="M65.05,188.66h-.48v-.46h0a1,1,0,0,1-.93.53,1,1,0,0,1-.7-.23.82.82,0,0,1-.25-.63c0-.56.33-.89,1-1l.9-.13c0-.51-.21-.76-.62-.76a1.46,1.46,0,0,0-1,.37v-.49a1.87,1.87,0,0,1,1-.29c.71,0,1.06.38,1.06,1.12Zm-.48-1.51-.72.1a1.13,1.13,0,0,0-.51.16.49.49,0,0,0-.17.42.44.44,0,0,0,.16.36.61.61,0,0,0,.42.14.78.78,0,0,0,.59-.25.92.92,0,0,0,.23-.63Z"/><path class="cls-16" d="M69.78,188.66H66v-3h.49v2.59h1.19v-2.59h.48v2.59H69.3v-2.59h.48Z"/><path class="cls-16" d="M73.27,188.66h-.44v-2.39c0,.08-.1.2-.19.36l-1.39,2h-.5v-3h.44V188l.16-.29,1.42-2.08h.5Z"/><path class="cls-16" d="M76.73,188.66h-.48V187.3H74.72v1.36h-.48v-3h.48v1.23h1.53v-1.23h.48Z"/><path class="cls-16" d="M79.85,188.66h-.48v-.46h0a1,1,0,0,1-.92.53,1,1,0,0,1-.71-.23.82.82,0,0,1-.25-.63c0-.56.33-.89,1-1l.9-.13c0-.51-.21-.76-.62-.76a1.46,1.46,0,0,0-1,.37v-.49a1.87,1.87,0,0,1,1-.29c.71,0,1.06.38,1.06,1.12Zm-.48-1.51-.72.1a1.18,1.18,0,0,0-.51.16.49.49,0,0,0-.17.42.44.44,0,0,0,.16.36.61.61,0,0,0,.42.14.76.76,0,0,0,.59-.25.92.92,0,0,0,.23-.63Z"/><path class="cls-16" d="M103.49,181.46v-4.2h1.2a1.28,1.28,0,0,1,.86.27.87.87,0,0,1,.32.69,1,1,0,0,1-.19.62,1,1,0,0,1-.54.38h0a1,1,0,0,1,.68.32,1,1,0,0,1,.26.71,1.08,1.08,0,0,1-.39.87,1.44,1.44,0,0,1-1,.33Zm.49-3.75v1.35h.51a.93.93,0,0,0,.63-.19.66.66,0,0,0,.24-.55c0-.41-.27-.61-.81-.61Zm0,1.8V181h.67a1,1,0,0,0,.68-.21.71.71,0,0,0,.23-.56c0-.5-.33-.74-1-.74Z"/><path class="cls-16" d="M109.38,181.46H109v-2.39l-.2.35-1.38,2h-.5v-3h.44v2.37a1.61,1.61,0,0,1,.15-.29l1.42-2.08h.5Z"/><path class="cls-16" d="M110.85,181h0v1.81h-.48v-4.38h.48V179h0a1.12,1.12,0,0,1,1-.6,1.11,1.11,0,0,1,.91.41,1.67,1.67,0,0,1,.32,1.08,1.87,1.87,0,0,1-.36,1.2,1.23,1.23,0,0,1-1,.45A1,1,0,0,1,110.85,181Zm0-1.21v.42a.89.89,0,0,0,.25.63.86.86,0,0,0,1.29-.07,1.53,1.53,0,0,0,.25-.93,1.24,1.24,0,0,0-.23-.79.75.75,0,0,0-.63-.28.82.82,0,0,0-.67.29A1.07,1.07,0,0,0,110.83,179.82Z"/><path class="cls-16" d="M115.76,178.87h-.89v2.59h-.49v-2.59h-.9v-.41h2.28Z"/><path class="cls-16" d="M118.73,178.46l-1.38,3.48c-.25.63-.59.94-1,.94a1.3,1.3,0,0,1-.31,0v-.43a1,1,0,0,0,.28.05.58.58,0,0,0,.55-.43l.24-.57-1.17-3h.53l.81,2.31.06.23h0c0-.05,0-.12.06-.22l.85-2.32Z"/><path class="cls-16" d="M121.39,181.46h-.48V181h0a1,1,0,0,1-.92.53,1,1,0,0,1-.7-.23.83.83,0,0,1-.26-.63c0-.56.33-.89,1-1l.9-.13c0-.51-.2-.76-.62-.76a1.44,1.44,0,0,0-1,.37v-.5a1.89,1.89,0,0,1,1-.28c.71,0,1.06.38,1.06,1.12Zm-.48-1.51-.72.1a1.23,1.23,0,0,0-.51.16.49.49,0,0,0-.17.42.47.47,0,0,0,.16.36.64.64,0,0,0,.42.14.76.76,0,0,0,.59-.25.92.92,0,0,0,.23-.63Z"/><path class="cls-16" d="M124.49,181.46H124v-2.59h-.7a6.43,6.43,0,0,1-.41,2,.86.86,0,0,1-.78.58.68.68,0,0,1-.26,0v-.41a.42.42,0,0,0,.22,0c.43,0,.71-.88.83-2.64h1.58Z"/><path class="cls-16" d="M125.46,181.46v-3h.48v1.16h.81a1.07,1.07,0,0,1,.73.24.85.85,0,0,1,.27.67.88.88,0,0,1-.27.68,1,1,0,0,1-.69.25Zm.48-1.43v1h.72c.4,0,.6-.17.6-.52s-.2-.5-.61-.5Z"/><path class="cls-16" d="M131,181.46h-.48V180.1H129v1.36h-.48v-3H129v1.23h1.53v-1.23H131Z"/><path class="cls-16" d="M134.09,181.46h-.48V181h0a1,1,0,0,1-.92.53,1,1,0,0,1-.7-.23.83.83,0,0,1-.26-.63c0-.56.33-.89,1-1l.9-.13c0-.51-.2-.76-.62-.76a1.44,1.44,0,0,0-1,.37v-.5a1.9,1.9,0,0,1,1-.28c.7,0,1.05.38,1.05,1.12Zm-.48-1.51-.72.1a1.23,1.23,0,0,0-.51.16.49.49,0,0,0-.17.42.47.47,0,0,0,.16.36.64.64,0,0,0,.42.14.76.76,0,0,0,.59-.25.88.88,0,0,0,.23-.63Z"/><path class="cls-16" d="M137.05,181.46h-.48v-1.24h-.4c-.2,0-.37.16-.53.47l-.39.77h-.56l.51-.92a.88.88,0,0,1,.42-.43.81.81,0,0,1-.53-.25.83.83,0,0,1,.1-1.16,1.22,1.22,0,0,1,.81-.24h1.05Zm-.48-1.64v-.95H136c-.4,0-.61.16-.61.46s.2.49.59.49Z"/><path class="cls-16" d="M112.93,188.66h-.48v-2.47c0,.13-.11.31-.2.55l-.75,1.92h-.43l-.77-1.92c0-.1-.11-.28-.2-.55v2.47h-.41v-3h.61l.79,2c.06.14.13.34.22.59l.21-.58.77-2h.64Z"/><path class="cls-16" d="M116.05,188.66h-.48v-.46h0a1,1,0,0,1-.93.53,1,1,0,0,1-.7-.23.82.82,0,0,1-.25-.63c0-.56.33-.89,1-1l.9-.13c0-.51-.21-.76-.62-.76a1.46,1.46,0,0,0-1,.37v-.49a1.87,1.87,0,0,1,1-.29c.71,0,1.06.38,1.06,1.12Zm-.48-1.51-.73.1a1.13,1.13,0,0,0-.5.16.49.49,0,0,0-.17.42.44.44,0,0,0,.16.36.61.61,0,0,0,.42.14.78.78,0,0,0,.59-.25.92.92,0,0,0,.23-.63Z"/><path class="cls-16" d="M120.78,188.66H117v-3h.48v2.59h1.2v-2.59h.48v2.59h1.19v-2.59h.48Z"/><path class="cls-16" d="M124.27,188.66h-.44v-2.39c0,.08-.1.2-.19.36l-1.39,2h-.5v-3h.44V188l.16-.29,1.42-2.08h.5Z"/><path class="cls-16" d="M127.73,188.66h-.48V187.3h-1.53v1.36h-.48v-3h.48v1.23h1.53v-1.23h.48Z"/><path class="cls-16" d="M130.85,188.66h-.48v-.46h0a1,1,0,0,1-.92.53,1,1,0,0,1-.71-.23.82.82,0,0,1-.25-.63c0-.56.33-.89,1-1l.9-.13c0-.51-.21-.76-.62-.76a1.46,1.46,0,0,0-1,.37v-.49a1.87,1.87,0,0,1,1-.29c.71,0,1.06.38,1.06,1.12Zm-.48-1.51-.72.1a1.18,1.18,0,0,0-.51.16.49.49,0,0,0-.17.42.44.44,0,0,0,.16.36.61.61,0,0,0,.42.14.76.76,0,0,0,.59-.25.92.92,0,0,0,.23-.63Z"/></svg>