<svg id="Layer_1" data-name="Layer 1" xmlns="http://www.w3.org/2000/svg" xmlns:xlink="http://www.w3.org/1999/xlink" viewBox="0 0 325.49 212.9"><defs><style>.cls-1,.cls-10{fill:#fff;}.cls-2{fill:#0072c6;opacity:0.12;}.cls-2,.cls-6{isolation:isolate;}.cls-3{fill:url(#linear-gradient);}.cls-4{fill:#b4ec36;}.cls-5{fill:#5ea0ef;}.cls-6{opacity:0.9;fill:url(#linear-gradient-2);}.cls-7{fill:url(#linear-gradient-3);}.cls-8{fill:#0078d4;}.cls-10,.cls-8,.cls-9{fill-rule:evenodd;}.cls-9{fill:url(#linear-gradient-4);}.cls-11{fill:none;stroke:#3c3c41;stroke-miterlimit:10;}.cls-12{fill:url(#linear-gradient-5);}.cls-13{fill:#50e6ff;}.cls-14{fill:#c3f1ff;}.cls-15{fill:#9cebff;}.cls-16{fill:url(#linear-gradient-6);}.cls-17{fill:url(#linear-gradient-7);}.cls-18{fill:url(#linear-gradient-8);}.cls-19{fill:url(#linear-gradient-9);}.cls-20{fill:url(#linear-gradient-10);}.cls-21{fill:url(#linear-gradient-11);}.cls-22{fill:#e3e3e3;}.cls-23{fill:#1e1e1e;}</style><linearGradient id="linear-gradient" x1="126.49" y1="963.39" x2="126.49" y2="926.29" gradientTransform="translate(0 -837.21)" gradientUnits="userSpaceOnUse"><stop offset="0" stop-color="#5e9624"/><stop offset="0.02" stop-color="#5f9724"/><stop offset="1" stop-color="#76bc2d"/></linearGradient><linearGradient id="linear-gradient-2" x1="26.52" y1="92.8" x2="26.52" y2="120.83" gradientTransform="matrix(1, 0, 0, -1, 0, 213)" gradientUnits="userSpaceOnUse"><stop offset="0" stop-color="#d2ebff"/><stop offset="1" stop-color="#f0fffd"/></linearGradient><linearGradient id="linear-gradient-3" x1="26.13" y1="931.16" x2="26.13" y2="955.35" gradientTransform="translate(0 -837.21)" gradientUnits="userSpaceOnUse"><stop offset="0.09" stop-color="#6cc6b9"/><stop offset="0.46" stop-color="#6ac4b7"/><stop offset="0.64" stop-color="#62bdb0"/><stop offset="0.77" stop-color="#56b1a4"/><stop offset="0.88" stop-color="#439f93"/><stop offset="0.98" stop-color="#2c897d"/><stop offset="1" stop-color="#258277"/></linearGradient><linearGradient id="linear-gradient-4" x1="26.13" y1="86.52" x2="26.13" y2="89.34" gradientTransform="matrix(1, 0, 0, -1, 0, 213)" gradientUnits="userSpaceOnUse"><stop offset="0" stop-color="#0078d4"/><stop offset="0.17" stop-color="#1c84dc"/><stop offset="0.38" stop-color="#3990e4"/><stop offset="0.59" stop-color="#4d99ea"/><stop offset="0.8" stop-color="#5a9eee"/><stop offset="1" stop-color="#5ea0ef"/></linearGradient><linearGradient id="linear-gradient-5" x1="249.56" y1="898.87" x2="249.56" y2="880.1" gradientTransform="translate(0 -837.21)" gradientUnits="userSpaceOnUse"><stop offset="0" stop-color="#0078d4"/><stop offset="0.82" stop-color="#5ea0ef"/></linearGradient><linearGradient id="linear-gradient-6" x1="249.56" y1="906.1" x2="249.56" y2="898.87" gradientTransform="translate(0 -837.21)" gradientUnits="userSpaceOnUse"><stop offset="0.15" stop-color="#ccc"/><stop offset="1" stop-color="#707070"/></linearGradient><linearGradient id="linear-gradient-7" x1="249.56" y1="952.87" x2="249.56" y2="934.1" xlink:href="#linear-gradient-5"/><linearGradient id="linear-gradient-8" x1="249.56" y1="960.1" x2="249.56" y2="952.87" xlink:href="#linear-gradient-6"/><linearGradient id="linear-gradient-9" x1="249.56" y1="1011.37" x2="249.56" y2="992.6" xlink:href="#linear-gradient-5"/><linearGradient id="linear-gradient-10" x1="249.56" y1="1018.6" x2="249.56" y2="1011.37" xlink:href="#linear-gradient-6"/><linearGradient id="linear-gradient-11" x1="220.69" y1="862.31" x2="220.69" y2="832.51" gradientTransform="translate(0 -837.21)" gradientUnits="userSpaceOnUse"><stop offset="0" stop-color="#0078d4"/><stop offset="0.16" stop-color="#1380da"/><stop offset="0.53" stop-color="#3c91e5"/><stop offset="0.82" stop-color="#559cec"/><stop offset="1" stop-color="#5ea0ef"/></linearGradient></defs><g id="Shapes"><rect class="cls-1" width="325.49" height="212.9"/><path class="cls-1" d="M325.49,187.9h-105V12.9h86.4a18.59,18.59,0,0,1,18.6,18.59Z"/><path class="cls-2" d="M325.49,187.9h-105V12.9h86.4a18.59,18.59,0,0,1,18.6,18.59Z"/><path class="cls-3" d="M110.81,106.13l14.91-14.91a1.07,1.07,0,0,1,1.51,0l0,0,14.91,14.91a1.06,1.06,0,0,1,0,1.51l0,0-14.93,14.93a1.06,1.06,0,0,1-1.49,0l-14.93-14.93a1.07,1.07,0,0,1,0-1.51Z"/><path class="cls-4" d="M130.4,98l-3.77-3.75a.23.23,0,0,0-.29,0L122.58,98a.17.17,0,0,0,0,.25.18.18,0,0,0,.19.07h2.2a.2.2,0,0,1,.2.19h0v3.56a.19.19,0,0,0,.19.19h2.35a.19.19,0,0,0,.2-.19h0V98.52a.19.19,0,0,1,.19-.19h2.21a.18.18,0,0,0,.21-.13.18.18,0,0,0-.07-.19Z"/><path class="cls-4" d="M117.6,102.65l-3.73,3.78a.2.2,0,0,0,0,.27l3.73,3.75a.2.2,0,0,0,.34-.14v-2.19a.18.18,0,0,1,.19-.19h3.56a.18.18,0,0,0,.18-.18s0,0,0,0v-2.35a.16.16,0,0,0-.06-.24l-.06,0h-3.55a.18.18,0,0,1-.2-.16v-2.17a.22.22,0,0,0-.12-.27.21.21,0,0,0-.27.13Z"/><path class="cls-4" d="M135.52,110.45l3.78-3.77a.19.19,0,0,0,0-.26l-3.78-3.77a.2.2,0,0,0-.28,0,.19.19,0,0,0,0,.12V105a.18.18,0,0,1-.18.18h-3.57a.18.18,0,0,0-.18.18v2.36a.18.18,0,0,0,.16.2H135a.19.19,0,0,1,.2.19v2.21a.2.2,0,0,0,.21.17A.22.22,0,0,0,135.52,110.45Z"/><path class="cls-1" d="M131.45,106.9a5,5,0,1,0-6.3,4.74v1.69a3,3,0,1,0,2.79,0v-1.78A4.93,4.93,0,0,0,131.45,106.9Z"/><circle id="e99c3387-15c3-4f28-bd4b-cb209b430e06" class="cls-5" cx="126.5" cy="106.88" r="2.88"/><rect class="cls-6" x="4.02" y="92.17" width="45.01" height="28.04"/><path class="cls-7" d="M13.86,96.72H38.42a.75.75,0,0,1,.78.71v17.06a.75.75,0,0,1-.78.71H13.86a.76.76,0,0,1-.79-.71v-17a.76.76,0,0,1,.79-.74Z"/><path id="bd0aa3dd-0b00-4321-a08d-35d4016600a8" class="cls-1" d="M23.92,98.91H35.65a.23.23,0,0,1,.23.21v6.48a.23.23,0,0,1-.23.22H23.92a.23.23,0,0,1-.23-.22V99.11A.23.23,0,0,1,23.92,98.91Z"/><rect id="bda038fc-05f8-4c73-8191-dcc998cc8c65" class="cls-1" x="16.31" y="98.89" width="4.94" height="13.93" rx="0.22"/><path id="f698805f-4654-42cb-b2bf-38f0a925cdbf" class="cls-1" d="M31.06,107.78h4.55a.21.21,0,0,1,.21.22v4.62a.21.21,0,0,1-.21.2H31.06a.22.22,0,0,1-.22-.2V108a.22.22,0,0,1,.22-.22Z"/><path id="f83fd769-9efd-4d02-bd0d-a012d7e875a2" class="cls-1" d="M23.85,107.78h4.42a.22.22,0,0,1,.22.22h0v4.62a.2.2,0,0,1-.2.2H23.92a.21.21,0,0,1-.21-.21V108A.21.21,0,0,1,23.85,107.78Z"/><path class="cls-8" d="M4.59,93.8a1,1,0,0,1,1-1H46.68a1,1,0,0,1,1,1h0v24.3a1,1,0,0,1-1,1H5.59a1,1,0,0,1-1-1h0ZM2.32,92.63v26.59a2.15,2.15,0,0,0,2.15,2.15H47.8A2.15,2.15,0,0,0,50,119.22h0V92.63a2.15,2.15,0,0,0-2.15-2.15H4.47a2.15,2.15,0,0,0-2.15,2.15Z"/><path class="cls-9" d="M.57,123.66H51.7a.57.57,0,0,1,.57.57h0v1.68a.58.58,0,0,1-.57.57H.57a.58.58,0,0,1-.57-.57H0v-1.68a.56.56,0,0,1,.57-.57Z"/><path class="cls-10" d="M20.3,124.66H32a.16.16,0,0,1,.16.17h0v.48a.17.17,0,0,1-.16.17H20.3a.17.17,0,0,1-.16-.17h0v-.48a.16.16,0,0,1,.16-.17Z"/><line class="cls-11" x1="115.49" y1="94.07" x2="58.17" y2="94.07"/><line class="cls-11" x1="105.49" y1="105.98" x2="58.17" y2="105.98"/><line class="cls-11" x1="230.49" y1="105.98" x2="147.17" y2="105.98"/><line class="cls-11" x1="115.49" y1="117.9" x2="58.17" y2="117.9"/><rect class="cls-12" x="235.49" y="42.9" width="28.14" height="18.76" rx="0.94"/><polygon class="cls-13" points="254.25 49.54 254.25 55 249.56 57.75 249.56 52.28 254.25 49.54"/><polygon class="cls-14" points="254.25 49.54 249.56 52.29 244.87 49.54 249.56 46.8 254.25 49.54"/><polygon class="cls-15" points="249.56 52.29 249.56 57.75 244.87 55 244.87 49.54 249.56 52.29"/><polygon class="cls-14" points="244.87 55 249.56 52.28 249.56 57.75 244.87 55"/><polygon class="cls-15" points="254.25 55 249.56 52.28 249.56 57.75 254.25 55"/><path class="cls-16" d="M255.2,67.33c-2.78-.43-2.89-2.44-2.89-5.67h-5.52c0,3.23-.09,5.24-2.88,5.67a1.58,1.58,0,0,0-1.39,1.57h14.07A1.56,1.56,0,0,0,255.2,67.33Z"/><rect class="cls-17" x="235.49" y="96.9" width="28.14" height="18.76" rx="0.94"/><polygon class="cls-13" points="254.25 103.54 254.25 109 249.56 111.75 249.56 106.28 254.25 103.54"/><polygon class="cls-14" points="254.25 103.54 249.56 106.29 244.87 103.54 249.56 100.81 254.25 103.54"/><polygon class="cls-15" points="249.56 106.29 249.56 111.75 244.87 109 244.87 103.54 249.56 106.29"/><polygon class="cls-14" points="244.87 109 249.56 106.28 249.56 111.75 244.87 109"/><polygon class="cls-15" points="254.25 109 249.56 106.28 249.56 111.75 254.25 109"/><path class="cls-18" d="M255.2,121.33c-2.78-.43-2.89-2.44-2.89-5.67h-5.52c0,3.23-.09,5.24-2.88,5.67a1.58,1.58,0,0,0-1.39,1.57h14.07A1.56,1.56,0,0,0,255.2,121.33Z"/><rect class="cls-19" x="235.49" y="155.4" width="28.14" height="18.76" rx="0.94"/><polygon class="cls-13" points="254.25 162.04 254.25 167.5 249.56 170.25 249.56 164.78 254.25 162.04"/><polygon class="cls-14" points="254.25 162.04 249.56 164.79 244.87 162.04 249.56 159.31 254.25 162.04"/><polygon class="cls-15" points="249.56 164.79 249.56 170.25 244.87 167.5 244.87 162.04 249.56 164.79"/><polygon class="cls-14" points="244.87 167.5 249.56 164.78 249.56 170.25 244.87 167.5"/><polygon class="cls-15" points="254.25 167.5 249.56 164.78 249.56 170.25 254.25 167.5"/><path class="cls-20" d="M255.2,179.83c-2.78-.43-2.89-2.44-2.89-5.67h-5.52c0,3.23-.09,5.24-2.88,5.67a1.58,1.58,0,0,0-1.39,1.57h14.07A1.56,1.56,0,0,0,255.2,179.83Z"/><path class="cls-21" d="M235.69,15a6.84,6.84,0,0,0-5.85-6.66A8.56,8.56,0,0,0,221.09,0a8.76,8.76,0,0,0-8.33,5.79,8.12,8.12,0,0,0-7.07,8,8.24,8.24,0,0,0,8.45,8h14.79A6.89,6.89,0,0,0,235.69,15Z"/><circle class="cls-22" cx="214.43" cy="13.5" r="1.18"/><path class="cls-1" d="M218.59,14V13h-.13l-1-.33-.26-.65.51-1.1-.66-.67h-.14l-.95.5-.65-.26-.41-1.15h-.95v.13l-.34,1-.7.26-1.08-.51-.67.66V11l.49,1-.27.65-1.17.41v1h.14l1,.33.27.65-.52,1.1.67.67h.13l1-.49.65.27.42,1.15h1v-.13l.33-1,.65-.27,1.1.52.67-.67v-.13l-.48-1,.26-.65Zm-4.16,1.39a1.82,1.82,0,1,1,1.83-1.8,1.81,1.81,0,0,1-1.83,1.8Z"/><circle class="cls-22" cx="222.36" cy="8.4" r="1.4"/><path class="cls-1" d="M227.36,8.94V7.8h-.15L226,7.42l-.29-.85.62-1.33-.8-.8h-.15L224.21,5l-.77-.32-.5-1.38h-1.18v.17l-.4,1.21-.78.32-1.3-.62-.8.8.08.15L219,6.59l-.27.83-1.4.45V9.09h.17l1.21.4.29.75-.62,1.33.83.85.17-.08,1.13-.59.79.32.5,1.38H223v-.16l.4-1.22.78-.32,1.32.62.8-.8-.08-.15-.49-1.2.32-.78Zm-5,1.66a2.2,2.2,0,1,1,2.2-2.2h0a2.18,2.18,0,0,1-2.17,2.2Z"/><path class="cls-11" d="M230.49,52.9H210.83A8.31,8.31,0,0,0,205.71,55L169,91.94a8.24,8.24,0,0,1-5.11,2.13H138.17"/><path class="cls-11" d="M138.17,117.9h25.71a7.47,7.47,0,0,1,5,2.26l37,42.65a7.49,7.49,0,0,0,5,2.26h19.66"/><path class="cls-23" d="M93.44,152.59a1.45,1.45,0,0,1-1-.43,1.36,1.36,0,0,1-.44-1,1.5,1.5,0,0,1,1.49-1.48,1.36,1.36,0,0,1,1,.44,1.4,1.4,0,0,1,.43,1,1.46,1.46,0,0,1-1.45,1.47Z"/><path class="cls-23" d="M93.44,165.79a1.45,1.45,0,0,1-1-.43,1.36,1.36,0,0,1-.44-1,1.5,1.5,0,0,1,1.49-1.48,1.38,1.38,0,0,1,1,.43,1.44,1.44,0,0,1,.43,1,1.46,1.46,0,0,1-1.45,1.47Z"/><path class="cls-23" d="M93.44,179a1.45,1.45,0,0,1-1-.43,1.36,1.36,0,0,1-.44-1A1.5,1.5,0,0,1,93.44,176a1.38,1.38,0,0,1,1,.43,1.44,1.44,0,0,1,.43,1.05A1.46,1.46,0,0,1,93.45,179Z"/><path class="cls-23" d="M93.44,192.19a1.45,1.45,0,0,1-1-.43,1.36,1.36,0,0,1-.44-1,1.5,1.5,0,0,1,1.49-1.48,1.38,1.38,0,0,1,1,.43,1.44,1.44,0,0,1,.43,1.05,1.46,1.46,0,0,1-1.45,1.47Z"/><path class="cls-23" d="M93.44,205.39a1.45,1.45,0,0,1-1-.43,1.36,1.36,0,0,1-.44-1,1.5,1.5,0,0,1,1.49-1.48,1.38,1.38,0,0,1,1,.43,1.44,1.44,0,0,1,.43,1,1.46,1.46,0,0,1-1.45,1.47Z"/></g><path class="cls-23" d="M96.61,141.78h-1L94,139.1a1.68,1.68,0,0,1-.16-.35h0l-.17.35L92,141.78H91l2.35-3.52-2.16-3.48h1l1.43,2.46a4.44,4.44,0,0,1,.24.49h0a5.08,5.08,0,0,1,.28-.51l1.49-2.44h.94l-2.2,3.47Z"/><path class="cls-23" d="M97.19,141.56v-.76a2.15,2.15,0,0,0,1.3.42,1.55,1.55,0,0,0,1.15-.43,1.74,1.74,0,0,0,.47-1.19H98v-.68h2.12a1.68,1.68,0,0,0-.49-1.16,1.59,1.59,0,0,0-1.16-.42,2,2,0,0,0-1.21.38v-.79a2.64,2.64,0,0,1,1.22-.27,2.36,2.36,0,0,1,1.84.7,2.82,2.82,0,0,1,.63,2,2.64,2.64,0,0,1-.65,1.88,2.34,2.34,0,0,1-1.77.7A2.6,2.6,0,0,1,97.19,141.56Z"/><path class="cls-23" d="M108.56,141.78h-6.37v-5h.8v4.32h2v-4.32h.79v4.32h2v-4.32h.8Z"/><path class="cls-23" d="M116.33,141.55a2.61,2.61,0,0,1-1.37.35,2.27,2.27,0,0,1-1.72-.7,2.5,2.5,0,0,1-.66-1.8,2.78,2.78,0,0,1,.71-2,2.47,2.47,0,0,1,1.89-.75,2.54,2.54,0,0,1,1.16.25v.82a2,2,0,0,0-1.19-.39,1.63,1.63,0,0,0-1.26.54,2.09,2.09,0,0,0-.49,1.45,2,2,0,0,0,.46,1.38,1.59,1.59,0,0,0,1.24.51,2,2,0,0,0,1.23-.43Z"/><path class="cls-23" d="M124.2,139.64a2.52,2.52,0,0,1-.17.93,2.23,2.23,0,0,1-.5.71,2.29,2.29,0,0,1-.79.46,3,3,0,0,1-1,.16,2.89,2.89,0,0,1-1.45-.29v-.85a2.73,2.73,0,0,0,1.46.46,2.17,2.17,0,0,0,.69-.11,1.62,1.62,0,0,0,.52-.32,1.37,1.37,0,0,0,.33-.48,1.8,1.8,0,0,0,.11-.62,1.31,1.31,0,0,0-.46-1.07,2,2,0,0,0-1.33-.39h-.3l-.31,0h-.31l-.27,0,.24-3.51h3.24v.72h-2.54l-.15,2.06.34,0h.31a3,3,0,0,1,1,.15,2,2,0,0,1,.75.42,1.71,1.71,0,0,1,.46.66A2.26,2.26,0,0,1,124.2,139.64Z"/><path class="cls-23" d="M132.56,141.78h-1.12l-2.21-2.4h0v2.4h-.8v-5h.8v2.29h0l2.1-2.29h1l-2.32,2.41Z"/><path class="cls-23" d="M135.47,141.9a2.34,2.34,0,0,1-1.77-.7,2.61,2.61,0,0,1-.66-1.86,2.7,2.7,0,0,1,.69-2,2.49,2.49,0,0,1,1.86-.71,2.22,2.22,0,0,1,1.74.69,2.73,2.73,0,0,1,.63,1.91,2.69,2.69,0,0,1-.67,1.92A2.39,2.39,0,0,1,135.47,141.9Zm.06-4.56a1.52,1.52,0,0,0-1.22.52,2.15,2.15,0,0,0-.45,1.45,2,2,0,0,0,.45,1.4,1.56,1.56,0,0,0,1.22.51,1.46,1.46,0,0,0,1.19-.5,2.18,2.18,0,0,0,.42-1.43,2.22,2.22,0,0,0-.42-1.45A1.43,1.43,0,0,0,135.53,137.34Z"/><path class="cls-23" d="M140.06,141.06h0v3h-.8v-7.3h.8v.88h0a1.89,1.89,0,0,1,1.73-1,1.86,1.86,0,0,1,1.51.67,2.8,2.8,0,0,1,.54,1.8,3.07,3.07,0,0,1-.61,2,2,2,0,0,1-1.67.76A1.67,1.67,0,0,1,140.06,141.06Zm0-2v.7a1.53,1.53,0,0,0,.4,1,1.45,1.45,0,0,0,2.17-.12,2.62,2.62,0,0,0,.41-1.55,2,2,0,0,0-.39-1.31,1.24,1.24,0,0,0-1-.47,1.41,1.41,0,0,0-1.12.48A1.77,1.77,0,0,0,140,139Z"/><path class="cls-23" d="M148.26,137.46h-1.5v4.32H146v-4.32h-1.5v-.68h3.8Z"/><path class="cls-23" d="M153.24,139.48h-3.53a1.83,1.83,0,0,0,.45,1.29,1.56,1.56,0,0,0,1.18.45,2.45,2.45,0,0,0,1.55-.55v.75a2.89,2.89,0,0,1-1.74.48,2.11,2.11,0,0,1-1.67-.69,2.79,2.79,0,0,1-.6-1.91,2.73,2.73,0,0,1,.66-1.9,2.12,2.12,0,0,1,1.64-.74,1.86,1.86,0,0,1,1.52.64,2.63,2.63,0,0,1,.54,1.76Zm-.82-.68a1.62,1.62,0,0,0-.34-1.08,1.1,1.1,0,0,0-.91-.38,1.28,1.28,0,0,0-1,.4,1.78,1.78,0,0,0-.49,1.06Z"/><path class="cls-23" d="M161.09,141.78H160l-2.24-2.47h0v2.47H157v-2.47h0l-2.24,2.47h-1.07l2.48-2.58-2.33-2.42h1l2.14,2.34h0v-2.34h.76v2.34h0l2.14-2.34h1l-2.34,2.42Z"/><path class="cls-23" d="M165.49,141.78h-.8V141h0a1.68,1.68,0,0,1-1.54.9,1.66,1.66,0,0,1-1.17-.4,1.36,1.36,0,0,1-.42-1.05c0-.93.55-1.48,1.65-1.63l1.5-.21c0-.85-.34-1.27-1-1.27A2.45,2.45,0,0,0,162,138v-.82a3.12,3.12,0,0,1,1.7-.47c1.17,0,1.76.62,1.76,1.87Zm-.8-2.53-1.21.17a2,2,0,0,0-.84.27.82.82,0,0,0-.28.7.76.76,0,0,0,.26.6,1,1,0,0,0,.7.23,1.29,1.29,0,0,0,1-.42,1.47,1.47,0,0,0,.39-1.05Z"/><path class="cls-23" d="M172.4,141.78h-.79v-4.12c-.07.21-.18.51-.33.92l-1.25,3.2h-.72l-1.29-3.2c-.07-.18-.18-.48-.33-.92v4.12H167v-5h1l1.32,3.26.36,1,.36-1,1.28-3.28h1.06Z"/><path class="cls-23" d="M178.21,141.78h-.72v-4c-.07.14-.18.34-.33.59l-2.31,3.4H174v-5h.73v3.94c0-.09.13-.26.26-.48l2.37-3.46h.83Z"/><path class="cls-23" d="M109.07,155h-.82v-5.06a5.4,5.4,0,0,1,0-1h0a2.3,2.3,0,0,1-.23.44l-3.6,5.58h-1v-7h.82v4.93c0,.53,0,.87,0,1h0a4,4,0,0,1,.27-.47L108,148h1.06Z"/><path class="cls-23" d="M114.22,154.75a2.63,2.63,0,0,1-1.37.35,2.3,2.3,0,0,1-1.73-.7,2.51,2.51,0,0,1-.65-1.8,2.78,2.78,0,0,1,.7-2,2.5,2.5,0,0,1,1.89-.75,2.58,2.58,0,0,1,1.17.25v.82a2.07,2.07,0,0,0-1.2-.39,1.6,1.6,0,0,0-1.25.54,2.09,2.09,0,0,0-.49,1.45,2,2,0,0,0,.46,1.38,1.57,1.57,0,0,0,1.23.51,2,2,0,0,0,1.24-.43Z"/><path class="cls-23" d="M119.08,150l-1.68,2.53,1.65,2.47h-.93l-1-1.62a3.9,3.9,0,0,1-.22-.38h0s-.1.15-.23.38l-1,1.62h-.93l1.71-2.45L114.82,150h.93l1,1.71q.11.18.21.39h0l1.25-2.1Z"/><path class="cls-23" d="M122.11,155.1a2.31,2.31,0,0,1-1.77-.71,2.58,2.58,0,0,1-.67-1.85,2.7,2.7,0,0,1,.69-2,2.49,2.49,0,0,1,1.86-.71,2.25,2.25,0,0,1,1.75.69,2.73,2.73,0,0,1,.63,1.91,2.7,2.7,0,0,1-.68,1.92A2.37,2.37,0,0,1,122.11,155.1Zm0-4.56a1.52,1.52,0,0,0-1.22.52,2.15,2.15,0,0,0-.45,1.45,2.05,2.05,0,0,0,.46,1.4,1.54,1.54,0,0,0,1.21.51,1.49,1.49,0,0,0,1.2-.5,2.18,2.18,0,0,0,.42-1.43,2.22,2.22,0,0,0-.42-1.45A1.46,1.46,0,0,0,122.16,150.54Z"/><path class="cls-23" d="M130.24,156.8h-.68V155h-3.72v1.82h-.69v-2.5h.45a7.57,7.57,0,0,0,1.3-4.32h2.59v4.32h.75Zm-1.55-2.5v-3.64h-1.11a7.68,7.68,0,0,1-1.13,3.64Z"/><path class="cls-23" d="M135.49,155h-.8v-2.27h-2.54V155h-.81v-5h.81V152h2.54V150h.8Z"/><path class="cls-23" d="M137.12,155v-5h.8v1.92h1.34a1.74,1.74,0,0,1,1.22.4,1.41,1.41,0,0,1,.45,1.12,1.48,1.48,0,0,1-.45,1.14,1.63,1.63,0,0,1-1.15.42Zm.8-2.39v1.7h1.2q1,0,1-.87c0-.56-.33-.83-1-.83Zm4.66,2.39h-.79v-5h.79Z"/><path class="cls-23" d="M148.4,155h-.72v-4c-.07.14-.18.34-.33.59L145,155h-.83v-5h.73v3.94a4.34,4.34,0,0,1,.26-.48l2.37-3.46h.83Zm-.29-7.43a1.55,1.55,0,0,1-.56,1.08,1.79,1.79,0,0,1-1.2.4,1.77,1.77,0,0,1-1.21-.4,1.47,1.47,0,0,1-.51-1.08h.79a.86.86,0,0,0,.94.91.89.89,0,0,0,.64-.24,1.09,1.09,0,0,0,.32-.67Z"/><path class="cls-23" d="M153.69,155h-.82v-7h.82Z"/><path class="cls-23" d="M156.35,152.33V155h-.82v-7h1.92a2.55,2.55,0,0,1,1.74.54,2,2,0,0,1,.62,1.55,2.16,2.16,0,0,1-.68,1.63,2.65,2.65,0,0,1-1.86.63Zm0-3.61v2.87h.86a1.89,1.89,0,0,0,1.29-.39,1.36,1.36,0,0,0,.45-1.09c0-.93-.55-1.39-1.64-1.39Z"/><path class="cls-23" d="M163.58,152.51h-2.67v-.63h2.67Z"/><path class="cls-23" d="M168.6,155h-.8v-.78h0a1.68,1.68,0,0,1-1.54.9,1.66,1.66,0,0,1-1.17-.4,1.36,1.36,0,0,1-.42-1c0-.93.55-1.48,1.65-1.63l1.5-.21c0-.85-.34-1.27-1-1.27a2.45,2.45,0,0,0-1.63.61v-.82a3.12,3.12,0,0,1,1.7-.47c1.17,0,1.76.62,1.76,1.87Zm-.8-2.53-1.21.17a2,2,0,0,0-.84.27.79.79,0,0,0-.28.7.76.76,0,0,0,.26.6,1.05,1.05,0,0,0,.7.23,1.29,1.29,0,0,0,1-.42,1.47,1.47,0,0,0,.39-1.05Z"/><path class="cls-23" d="M174.47,156.8h-.68V155h-3.72v1.82h-.68v-2.5h.44a7.5,7.5,0,0,0,1.3-4.32h2.6v4.32h.74Zm-1.54-2.5v-3.64h-1.11a7.8,7.8,0,0,1-1.14,3.64Z"/><path class="cls-23" d="M176.4,154.26h0v3h-.8V150h.8v.88h0a1.88,1.88,0,0,1,1.73-1,1.81,1.81,0,0,1,1.5.67,2.74,2.74,0,0,1,.55,1.8,3.13,3.13,0,0,1-.61,2,2.06,2.06,0,0,1-1.67.76A1.67,1.67,0,0,1,176.4,154.26Zm0-2v.7a1.48,1.48,0,0,0,.4,1.05,1.44,1.44,0,0,0,2.16-.12,2.55,2.55,0,0,0,.42-1.55A2,2,0,0,0,179,151a1.26,1.26,0,0,0-1-.47,1.44,1.44,0,0,0-1.13.48A1.79,1.79,0,0,0,176.38,152.24Z"/><path class="cls-23" d="M185.47,152.68h-3.53a1.93,1.93,0,0,0,.45,1.29,1.57,1.57,0,0,0,1.19.45,2.45,2.45,0,0,0,1.55-.55v.75a2.9,2.9,0,0,1-1.75.48,2.09,2.09,0,0,1-1.66-.69,2.79,2.79,0,0,1-.61-1.91,2.69,2.69,0,0,1,.67-1.9,2.11,2.11,0,0,1,1.64-.74,1.87,1.87,0,0,1,1.52.64,2.62,2.62,0,0,1,.53,1.76Zm-.82-.68a1.62,1.62,0,0,0-.33-1.08,1.14,1.14,0,0,0-.92-.38,1.31,1.31,0,0,0-1,.4A1.91,1.91,0,0,0,182,152Z"/><path class="cls-23" d="M190.09,154.75a2.6,2.6,0,0,1-1.36.35,2.28,2.28,0,0,1-1.73-.7,2.51,2.51,0,0,1-.66-1.8,2.78,2.78,0,0,1,.71-2,2.47,2.47,0,0,1,1.89-.75,2.51,2.51,0,0,1,1.16.25v.82a2,2,0,0,0-1.19-.39,1.6,1.6,0,0,0-1.25.54,2.09,2.09,0,0,0-.5,1.45,2,2,0,0,0,.47,1.38,1.57,1.57,0,0,0,1.23.51,2,2,0,0,0,1.23-.43Z"/><path class="cls-23" d="M109.07,168.18h-.82v-5.06a5.47,5.47,0,0,1,0-1h0a2.3,2.3,0,0,1-.23.44l-3.6,5.58h-1v-7h.82v4.93c0,.53,0,.87,0,1h0a4.94,4.94,0,0,1,.27-.47l3.51-5.49h1.06Z"/><path class="cls-23" d="M114.22,168a2.63,2.63,0,0,1-1.37.35,2.3,2.3,0,0,1-1.73-.7,2.49,2.49,0,0,1-.65-1.8,2.78,2.78,0,0,1,.7-2,2.5,2.5,0,0,1,1.89-.75,2.58,2.58,0,0,1,1.17.25v.82a2.07,2.07,0,0,0-1.2-.39,1.57,1.57,0,0,0-1.25.55,2,2,0,0,0-.49,1.44,2,2,0,0,0,.46,1.39,1.6,1.6,0,0,0,1.23.5,2,2,0,0,0,1.24-.43Z"/><path class="cls-23" d="M119.08,163.18l-1.68,2.53,1.65,2.47h-.93l-1-1.62a3.9,3.9,0,0,1-.22-.38h0s-.1.15-.23.38l-1,1.62h-.93l1.71-2.45-1.63-2.55h.93l1,1.71.21.39h0l1.25-2.1Z"/><path class="cls-23" d="M122.11,168.3a2.34,2.34,0,0,1-1.77-.7,2.62,2.62,0,0,1-.67-1.86,2.7,2.7,0,0,1,.69-2,2.49,2.49,0,0,1,1.86-.71,2.25,2.25,0,0,1,1.75.69,2.73,2.73,0,0,1,.63,1.91,2.7,2.7,0,0,1-.68,1.92A2.37,2.37,0,0,1,122.11,168.3Zm0-4.56a1.52,1.52,0,0,0-1.22.52,2.15,2.15,0,0,0-.45,1.45,2.05,2.05,0,0,0,.46,1.4,1.54,1.54,0,0,0,1.21.51,1.46,1.46,0,0,0,1.2-.5,2.16,2.16,0,0,0,.42-1.43,2.22,2.22,0,0,0-.42-1.45A1.49,1.49,0,0,0,122.16,163.74Z"/><path class="cls-23" d="M130.24,170h-.68v-1.82h-3.72V170h-.69v-2.5h.45a7.57,7.57,0,0,0,1.3-4.32h2.59v4.32h.75Zm-1.55-2.5v-3.64h-1.11a7.64,7.64,0,0,1-1.13,3.64Z"/><path class="cls-23" d="M135.49,168.18h-.8v-2.27h-2.54v2.27h-.81v-5h.81v2h2.54v-2h.8Z"/><path class="cls-23" d="M137.12,168.18v-5h.8v1.92h1.34a1.74,1.74,0,0,1,1.22.4,1.43,1.43,0,0,1,.45,1.12,1.48,1.48,0,0,1-.45,1.14,1.63,1.63,0,0,1-1.15.42Zm.8-2.39v1.71h1.2c.66,0,1-.3,1-.88s-.33-.83-1-.83Zm4.66,2.39h-.79v-5h.79Z"/><path class="cls-23" d="M148.4,168.18h-.72v-4c-.07.14-.18.34-.33.59l-2.31,3.4h-.83v-5h.73v3.94c0-.09.13-.26.26-.48l2.37-3.46h.83Zm-.29-7.43a1.55,1.55,0,0,1-.56,1.08,1.79,1.79,0,0,1-1.2.4,1.77,1.77,0,0,1-1.21-.4,1.47,1.47,0,0,1-.51-1.08h.79a.94.94,0,0,0,1.58.67,1.09,1.09,0,0,0,.32-.67Z"/><path class="cls-23" d="M156.91,168.18h-.8v-4.32h-2.55v4.32h-.8v-5h4.15Z"/><path class="cls-23" d="M160.62,168.3a2.34,2.34,0,0,1-1.77-.7,2.61,2.61,0,0,1-.66-1.86,2.7,2.7,0,0,1,.69-2,2.49,2.49,0,0,1,1.86-.71,2.22,2.22,0,0,1,1.74.69,2.73,2.73,0,0,1,.63,1.91,2.69,2.69,0,0,1-.67,1.92A2.39,2.39,0,0,1,160.62,168.3Zm.06-4.56a1.52,1.52,0,0,0-1.22.52,2.15,2.15,0,0,0-.45,1.45,2,2,0,0,0,.45,1.4,1.56,1.56,0,0,0,1.22.51,1.43,1.43,0,0,0,1.19-.5,2.16,2.16,0,0,0,.42-1.43,2.22,2.22,0,0,0-.42-1.45A1.46,1.46,0,0,0,160.68,163.74Z"/><path class="cls-23" d="M165.21,167.46h0v3h-.8v-7.3h.8v.88h0a1.89,1.89,0,0,1,1.73-1,1.86,1.86,0,0,1,1.51.67,2.8,2.8,0,0,1,.54,1.8,3.07,3.07,0,0,1-.61,2,2,2,0,0,1-1.67.76A1.67,1.67,0,0,1,165.21,167.46Zm0-2v.7a1.53,1.53,0,0,0,.4,1.05,1.45,1.45,0,0,0,2.17-.12,2.6,2.6,0,0,0,.41-1.55,2,2,0,0,0-.39-1.31,1.24,1.24,0,0,0-1-.47,1.41,1.41,0,0,0-1.12.48A1.77,1.77,0,0,0,165.19,165.44Z"/><path class="cls-23" d="M173.41,163.86h-1.5v4.32h-.8v-4.32h-1.5v-.68h3.8Z"/><path class="cls-23" d="M104.24,181.38h-.82v-7h.82Z"/><path class="cls-23" d="M106.91,178.74v2.64h-.82v-7H108a2.56,2.56,0,0,1,1.74.55,2,2,0,0,1,.62,1.54,2.1,2.1,0,0,1-.69,1.63,2.59,2.59,0,0,1-1.85.64Zm0-3.61V178h.86a1.91,1.91,0,0,0,1.29-.39,1.38,1.38,0,0,0,.45-1.1c0-.92-.55-1.38-1.64-1.38Z"/><path class="cls-23" d="M114.14,178.91h-2.67v-.63h2.67Z"/><path class="cls-23" d="M119.16,181.38h-.8v-.78h0a1.68,1.68,0,0,1-1.54.9,1.65,1.65,0,0,1-1.17-.39,1.39,1.39,0,0,1-.42-1.05c0-.94.55-1.48,1.65-1.63l1.5-.21c0-.85-.35-1.28-1-1.28a2.49,2.49,0,0,0-1.64.62v-.82a3.06,3.06,0,0,1,1.7-.47q1.77,0,1.77,1.86Zm-.8-2.52-1.21.16a2,2,0,0,0-.84.28.78.78,0,0,0-.28.7.76.76,0,0,0,.26.6,1,1,0,0,0,.69.23,1.29,1.29,0,0,0,1-.42,1.49,1.49,0,0,0,.39-1.06Z"/><path class="cls-23" d="M125,183.21h-.68v-1.83h-3.72v1.83h-.69v-2.5h.45a7.58,7.58,0,0,0,1.3-4.33h2.59v4.33H125Zm-1.55-2.5v-3.65h-1.11a7.68,7.68,0,0,1-1.13,3.65Z"/><path class="cls-23" d="M127,180.66h0v3h-.81v-7.3h.81v.88h0a1.9,1.9,0,0,1,1.73-1,1.82,1.82,0,0,1,1.51.67,2.8,2.8,0,0,1,.54,1.8,3.09,3.09,0,0,1-.61,2,2,2,0,0,1-1.67.75A1.69,1.69,0,0,1,127,180.66Zm0-2v.69a1.49,1.49,0,0,0,.4,1.06,1.37,1.37,0,0,0,1,.43,1.33,1.33,0,0,0,1.14-.56,2.53,2.53,0,0,0,.41-1.55,2,2,0,0,0-.38-1.3,1.28,1.28,0,0,0-1.05-.48,1.4,1.4,0,0,0-1.12.49A1.79,1.79,0,0,0,126.94,178.65Z"/><path class="cls-23" d="M136,179.08H132.5a1.83,1.83,0,0,0,.45,1.29,1.53,1.53,0,0,0,1.18.46,2.49,2.49,0,0,0,1.56-.56V181a2.92,2.92,0,0,1-1.75.48,2.09,2.09,0,0,1-1.66-.68,3.19,3.19,0,0,1,.05-3.82,2.12,2.12,0,0,1,1.65-.73,1.86,1.86,0,0,1,1.51.63,2.66,2.66,0,0,1,.54,1.77Zm-.82-.67a1.59,1.59,0,0,0-.33-1.08,1.14,1.14,0,0,0-.92-.39,1.28,1.28,0,0,0-1,.41,1.84,1.84,0,0,0-.49,1.06Z"/><path class="cls-23" d="M140.65,181.16a2.6,2.6,0,0,1-1.37.34,2.27,2.27,0,0,1-1.72-.69,2.54,2.54,0,0,1-.66-1.81,2.78,2.78,0,0,1,.71-2,2.47,2.47,0,0,1,1.89-.75,2.64,2.64,0,0,1,1.16.24v.82a2,2,0,0,0-1.19-.39,1.64,1.64,0,0,0-1.26.55,2.08,2.08,0,0,0-.49,1.44,2,2,0,0,0,.46,1.39,1.59,1.59,0,0,0,1.24.51,2,2,0,0,0,1.23-.44Z"/><path class="cls-23" d="M148.75,181.38H148v-2.27H145.4v2.27h-.8v-5h.8v2.06H148v-2.06h.8Z"/><path class="cls-23" d="M154,181.38h-.8v-.78h0a1.83,1.83,0,0,1-2.71.51,1.39,1.39,0,0,1-.42-1.05c0-.94.55-1.48,1.65-1.63l1.5-.21c0-.85-.34-1.28-1-1.28a2.46,2.46,0,0,0-1.63.62v-.82a3,3,0,0,1,1.7-.47c1.17,0,1.76.62,1.76,1.86Zm-.8-2.52-1.21.16a2,2,0,0,0-.84.28.81.81,0,0,0-.28.7.79.79,0,0,0,.26.6,1.05,1.05,0,0,0,.7.23,1.27,1.27,0,0,0,1-.42,1.49,1.49,0,0,0,.39-1.06Z"/><path class="cls-23" d="M155,181.24v-.78a3.14,3.14,0,0,0,1.53.36q1.32,0,1.32-.84c0-.55-.48-.83-1.45-.83H156v-.68h.47c.85,0,1.27-.26,1.27-.79a.62.62,0,0,0-.29-.53,1.36,1.36,0,0,0-.8-.2,3.28,3.28,0,0,0-1.46.36v-.74a4.29,4.29,0,0,1,1.52-.31q1.83,0,1.83,1.35a1.13,1.13,0,0,1-.27.75,1.4,1.4,0,0,1-.76.41v0a1.37,1.37,0,0,1,.89.37,1.11,1.11,0,0,1,.34.84,1.3,1.3,0,0,1-.55,1.09,2.54,2.54,0,0,1-1.52.41A3.68,3.68,0,0,1,155,181.24Z"/><path class="cls-23" d="M164.07,181.38h-.8v-2.27h-2.55v2.27h-.8v-5h.8v2.06h2.55v-2.06h.8Z"/><path class="cls-23" d="M169.27,181.38h-.8v-.78h0a1.68,1.68,0,0,1-1.54.9,1.65,1.65,0,0,1-1.17-.39,1.39,1.39,0,0,1-.42-1.05c0-.94.55-1.48,1.65-1.63l1.5-.21c0-.85-.34-1.28-1-1.28a2.46,2.46,0,0,0-1.63.62v-.82a3,3,0,0,1,1.7-.47c1.17,0,1.76.62,1.76,1.86Zm-.8-2.52-1.21.16a2,2,0,0,0-.84.28.78.78,0,0,0-.28.7.79.79,0,0,0,.26.6,1,1,0,0,0,.7.23,1.29,1.29,0,0,0,1-.42,1.49,1.49,0,0,0,.39-1.06Z"/><path class="cls-23" d="M174.81,181.38H174v-2a3.45,3.45,0,0,1-1.62.48c-1.12,0-1.68-.59-1.68-1.78v-1.69h.8V178c0,.73.32,1.09,1,1.09a3.44,3.44,0,0,0,1.55-.42v-2.33h.8Z"/><path class="cls-23" d="M180.45,179.08h-3.53a1.87,1.87,0,0,0,.44,1.29,1.54,1.54,0,0,0,1.19.46,2.46,2.46,0,0,0,1.55-.56V181a2.89,2.89,0,0,1-1.74.48,2.09,2.09,0,0,1-1.67-.68,2.8,2.8,0,0,1-.61-1.92,2.75,2.75,0,0,1,.67-1.9,2.12,2.12,0,0,1,1.64-.73,1.9,1.9,0,0,1,1.52.63,2.66,2.66,0,0,1,.54,1.77Zm-.82-.67a1.64,1.64,0,0,0-.34-1.08,1.12,1.12,0,0,0-.91-.39,1.32,1.32,0,0,0-1,.41,1.91,1.91,0,0,0-.49,1.06Z"/><path class="cls-23" d="M185.81,181.38H185v-2.27h-2.55v2.27h-.8v-5h.8v2.06H185v-2.06h.8Z"/><path class="cls-23" d="M191.62,181.38h-.73v-4c-.07.14-.18.33-.32.59l-2.31,3.39h-.83v-5h.73v4a4.57,4.57,0,0,1,.25-.49l2.38-3.46h.83Z"/><path class="cls-23" d="M196.66,181.38h-.8v-2.07h-.67c-.33,0-.62.27-.88.79l-.65,1.28h-.93l.84-1.54a1.52,1.52,0,0,1,.71-.71,1.37,1.37,0,0,1-.9-.43,1.41,1.41,0,0,1,.18-1.93,2.09,2.09,0,0,1,1.35-.39h1.75Zm-.8-2.73v-1.58h-1c-.68,0-1,.25-1,.76s.32.82,1,.82Z"/><path class="cls-23" d="M108.74,194.58h-.83v-6.24h-3.66v6.24h-.83v-7h5.32Z"/><path class="cls-23" d="M112.54,194.7a2.34,2.34,0,0,1-1.77-.7,2.57,2.57,0,0,1-.67-1.86,2.7,2.7,0,0,1,.69-2,2.49,2.49,0,0,1,1.86-.71,2.25,2.25,0,0,1,1.75.69,2.73,2.73,0,0,1,.63,1.91,2.7,2.7,0,0,1-.68,1.92A2.37,2.37,0,0,1,112.54,194.7Zm0-4.56a1.52,1.52,0,0,0-1.22.52,2.15,2.15,0,0,0-.45,1.45,2.05,2.05,0,0,0,.46,1.4,1.54,1.54,0,0,0,1.21.51,1.49,1.49,0,0,0,1.2-.5,2.18,2.18,0,0,0,.42-1.43,2.22,2.22,0,0,0-.42-1.45A1.46,1.46,0,0,0,112.59,190.14Z"/><path class="cls-23" d="M117.13,193.86h0v3h-.8v-7.3h.8v.88h0a1.88,1.88,0,0,1,1.72-1,1.85,1.85,0,0,1,1.51.67,2.8,2.8,0,0,1,.54,1.8,3.07,3.07,0,0,1-.61,2,2,2,0,0,1-1.67.76A1.67,1.67,0,0,1,117.13,193.86Zm0-2v.7a1.48,1.48,0,0,0,.4,1.05,1.44,1.44,0,0,0,2.16-.12,2.55,2.55,0,0,0,.41-1.55,2,2,0,0,0-.38-1.31,1.27,1.27,0,0,0-1-.47,1.42,1.42,0,0,0-1.12.48A1.81,1.81,0,0,0,117.11,191.84Z"/><path class="cls-23" d="M125.32,190.26h-1.5v4.32H123v-4.32h-1.5v-.68h3.8Z"/><path class="cls-23" d="M133.18,194.58h-.81v-2.27h-2.54v2.27H129v-5h.81v2h2.54v-2h.81Z"/><path class="cls-23" d="M138.38,194.58h-.81v-.78h0a1.69,1.69,0,0,1-1.54.9,1.66,1.66,0,0,1-1.17-.4,1.36,1.36,0,0,1-.42-1.05c0-.93.55-1.48,1.65-1.63l1.49-.21c0-.85-.34-1.27-1-1.27a2.47,2.47,0,0,0-1.63.61v-.82a3.15,3.15,0,0,1,1.7-.47c1.18,0,1.77.62,1.77,1.87Zm-.81-2.53-1.2.17a2,2,0,0,0-.84.27.79.79,0,0,0-.28.7.73.73,0,0,0,.26.6,1,1,0,0,0,.69.23,1.29,1.29,0,0,0,1-.42,1.46,1.46,0,0,0,.38-1Z"/><path class="cls-23" d="M139.46,194.44v-.79A3,3,0,0,0,141,194c.89,0,1.33-.28,1.33-.84s-.49-.83-1.45-.83h-.5v-.68h.47c.85,0,1.28-.26,1.28-.79a.61.61,0,0,0-.3-.54,1.41,1.41,0,0,0-.8-.2,3.19,3.19,0,0,0-1.46.37v-.75a4.55,4.55,0,0,1,1.53-.3c1.21,0,1.82.44,1.82,1.34a1.11,1.11,0,0,1-.27.75,1.32,1.32,0,0,1-.76.42v0a1.38,1.38,0,0,1,.89.38,1.11,1.11,0,0,1,.34.84,1.28,1.28,0,0,1-.55,1.09,2.52,2.52,0,0,1-1.52.4A3.86,3.86,0,0,1,139.46,194.44Z"/><path class="cls-23" d="M148.49,194.58h-.8v-2.27h-2.55v2.27h-.8v-5h.8v2h2.55v-2h.8Z"/><path class="cls-23" d="M153.69,194.58h-.8v-.78h0a1.68,1.68,0,0,1-1.54.9,1.65,1.65,0,0,1-1.16-.4,1.34,1.34,0,0,1-.43-1.05c0-.93.55-1.48,1.65-1.63l1.5-.21c0-.85-.34-1.27-1-1.27a2.47,2.47,0,0,0-1.63.61v-.82a3.12,3.12,0,0,1,1.7-.47c1.18,0,1.76.62,1.76,1.87Zm-.8-2.53-1.2.17a1.92,1.92,0,0,0-.84.27.8.8,0,0,0-.29.7.76.76,0,0,0,.26.6,1,1,0,0,0,.7.23,1.26,1.26,0,0,0,1-.42,1.47,1.47,0,0,0,.39-1Z"/><path class="cls-23" d="M159.23,194.58h-.8v-2a3.38,3.38,0,0,1-1.62.48c-1.12,0-1.68-.6-1.68-1.78v-1.69h.8v1.65c0,.73.32,1.1.95,1.1a3.44,3.44,0,0,0,1.55-.42v-2.33h.8Z"/><path class="cls-23" d="M164.87,192.28h-3.53a1.83,1.83,0,0,0,.45,1.29A1.56,1.56,0,0,0,163,194a2.45,2.45,0,0,0,1.55-.55v.75a2.89,2.89,0,0,1-1.74.48,2.11,2.11,0,0,1-1.67-.69,2.79,2.79,0,0,1-.6-1.91,2.73,2.73,0,0,1,.66-1.9,2.12,2.12,0,0,1,1.64-.74,1.86,1.86,0,0,1,1.52.64,2.63,2.63,0,0,1,.54,1.76Zm-.82-.68a1.62,1.62,0,0,0-.34-1.08,1.1,1.1,0,0,0-.91-.38,1.28,1.28,0,0,0-1,.4,1.78,1.78,0,0,0-.49,1.06Z"/><path class="cls-23" d="M170.23,194.58h-.8v-2.27h-2.55v2.27h-.8v-5h.8v2h2.55v-2h.8Z"/><path class="cls-23" d="M176,194.58h-.72v-4c-.07.14-.18.34-.33.59l-2.31,3.4h-.83v-5h.73v3.94a4.34,4.34,0,0,1,.26-.48l2.37-3.46H176Z"/><path class="cls-23" d="M181.08,194.58h-.8v-2.07h-.67c-.32,0-.61.26-.88.78l-.65,1.29h-.93L178,193a1.51,1.51,0,0,1,.71-.71,1.37,1.37,0,0,1-.89-.43A1.4,1.4,0,0,1,178,190a2.09,2.09,0,0,1,1.35-.39h1.75Zm-.8-2.74v-1.58h-.95c-.67,0-1,.26-1,.77s.33.81,1,.81Z"/><path class="cls-23" d="M108.74,207.78h-.83v-6.24h-3.66v6.24h-.83v-7h5.32Z"/><path class="cls-23" d="M111.27,207.06h0v3h-.8v-7.3h.8v.88h0a1.88,1.88,0,0,1,1.72-1,1.85,1.85,0,0,1,1.51.67,2.8,2.8,0,0,1,.55,1.8,3.13,3.13,0,0,1-.61,2,2.06,2.06,0,0,1-1.67.76A1.67,1.67,0,0,1,111.27,207.06Zm0-2v.7a1.48,1.48,0,0,0,.4,1,1.44,1.44,0,0,0,2.16-.12,2.55,2.55,0,0,0,.42-1.55,2,2,0,0,0-.39-1.31,1.27,1.27,0,0,0-1-.47,1.42,1.42,0,0,0-1.12.48A1.81,1.81,0,0,0,111.25,205Z"/><path class="cls-23" d="M118.41,207.9a2.37,2.37,0,0,1-1.77-.7,2.61,2.61,0,0,1-.66-1.86,2.7,2.7,0,0,1,.69-2,2.49,2.49,0,0,1,1.86-.71,2.25,2.25,0,0,1,1.75.69,2.73,2.73,0,0,1,.62,1.91,2.69,2.69,0,0,1-.67,1.92A2.38,2.38,0,0,1,118.41,207.9Zm.06-4.56a1.52,1.52,0,0,0-1.22.52,2.15,2.15,0,0,0-.45,1.45,2,2,0,0,0,.46,1.4,1.54,1.54,0,0,0,1.21.51,1.49,1.49,0,0,0,1.2-.5,2.18,2.18,0,0,0,.41-1.43,2.22,2.22,0,0,0-.41-1.45A1.46,1.46,0,0,0,118.47,203.34Z"/><path class="cls-23" d="M125.32,203.46h-1.5v4.32H123v-4.32h-1.5v-.68h3.8Z"/><path class="cls-23" d="M128.38,207.9a2.34,2.34,0,0,1-1.77-.7,2.57,2.57,0,0,1-.67-1.86,2.7,2.7,0,0,1,.69-2,2.49,2.49,0,0,1,1.86-.71,2.25,2.25,0,0,1,1.75.69,2.73,2.73,0,0,1,.63,1.91,2.7,2.7,0,0,1-.68,1.92A2.37,2.37,0,0,1,128.38,207.9Zm.05-4.56a1.52,1.52,0,0,0-1.22.52,2.15,2.15,0,0,0-.45,1.45,2.05,2.05,0,0,0,.46,1.4,1.54,1.54,0,0,0,1.21.51,1.49,1.49,0,0,0,1.2-.5,2.18,2.18,0,0,0,.42-1.43,2.22,2.22,0,0,0-.42-1.45A1.46,1.46,0,0,0,128.43,203.34Z"/><path class="cls-23" d="M136.3,207.78h-1.13l-2.2-2.4h0v2.4h-.8v-5h.8v2.29h0l2.09-2.29h1.05l-2.31,2.41Z"/><path class="cls-23" d="M139.21,207.9a2.34,2.34,0,0,1-1.77-.7,2.57,2.57,0,0,1-.67-1.86,2.7,2.7,0,0,1,.69-2,2.49,2.49,0,0,1,1.86-.71,2.25,2.25,0,0,1,1.75.69,2.73,2.73,0,0,1,.63,1.91,2.7,2.7,0,0,1-.68,1.92A2.37,2.37,0,0,1,139.21,207.9Zm0-4.56a1.52,1.52,0,0,0-1.22.52,2.15,2.15,0,0,0-.45,1.45,2.05,2.05,0,0,0,.46,1.4,1.54,1.54,0,0,0,1.21.51,1.49,1.49,0,0,0,1.2-.5,2.18,2.18,0,0,0,.42-1.43,2.22,2.22,0,0,0-.42-1.45A1.46,1.46,0,0,0,139.26,203.34Z"/><path class="cls-23" d="M146.62,207.78h-.79v-4.32h-1.17a10.44,10.44,0,0,1-.68,3.41,1.48,1.48,0,0,1-1.31,1,1.14,1.14,0,0,1-.43-.07v-.69a.81.81,0,0,0,.37.09c.72,0,1.18-1.47,1.39-4.4h2.62Z"/><path class="cls-23" d="M241.12,31.4h-.82V28.25a4.56,4.56,0,0,1-2.08.59,2,2,0,0,1-1.42-.48,1.73,1.73,0,0,1-.5-1.33V24.39h.82V27c0,.75.4,1.12,1.2,1.12a4.59,4.59,0,0,0,2-.53V24.39h.82Z"/><path class="cls-23" d="M246.49,31.4h-.8v-.79h0a1.68,1.68,0,0,1-1.54.9,1.65,1.65,0,0,1-1.17-.39,1.39,1.39,0,0,1-.42-1.05c0-.94.55-1.48,1.65-1.63l1.5-.21c0-.85-.35-1.28-1-1.28a2.44,2.44,0,0,0-1.63.62v-.82a3,3,0,0,1,1.69-.47q1.77,0,1.77,1.86Zm-.8-2.53-1.21.16a2,2,0,0,0-.84.28.78.78,0,0,0-.28.7.76.76,0,0,0,.26.6,1,1,0,0,0,.69.23,1.29,1.29,0,0,0,1-.42,1.49,1.49,0,0,0,.39-1.06Z"/><path class="cls-23" d="M251.4,31.17a2.59,2.59,0,0,1-1.36.34,2.27,2.27,0,0,1-1.73-.69,2.54,2.54,0,0,1-.66-1.81,2.78,2.78,0,0,1,.71-2,2.47,2.47,0,0,1,1.89-.75,2.64,2.64,0,0,1,1.16.24v.82a2,2,0,0,0-1.19-.39,1.64,1.64,0,0,0-1.26.55,2.13,2.13,0,0,0-.49,1.44,2,2,0,0,0,.47,1.39,1.57,1.57,0,0,0,1.23.51,2,2,0,0,0,1.23-.44Z"/><path class="cls-23" d="M255.75,27.08h-1.49V31.4h-.8V27.08H252V26.4h3.8Z"/><path class="cls-23" d="M260.87,31.4h-.8V29.13h-2.55V31.4h-.8v-5h.8v2.05h2.55V26.4h.8Z"/><path class="cls-23" d="M262.49,31.4v-5h.8v1.91h1.35a1.78,1.78,0,0,1,1.21.4,1.4,1.4,0,0,1,.46,1.12,1.48,1.48,0,0,1-.46,1.15,1.61,1.61,0,0,1-1.14.42Zm.8-2.4v1.71h1.2c.66,0,1-.29,1-.88s-.34-.83-1-.83ZM268,31.4h-.79v-5H268Z"/><path class="cls-23" d="M273.77,31.4h-.72v-4c-.07.14-.18.33-.33.59l-2.31,3.4h-.83v-5h.74v3.94a3.21,3.21,0,0,1,.25-.49l2.37-3.45h.83ZM273.48,24a1.53,1.53,0,0,1-.56,1.09,2,2,0,0,1-2.41,0A1.49,1.49,0,0,1,270,24h.79c0,.62.36.92.94.92a.92.92,0,0,0,.65-.24,1.17,1.17,0,0,0,.31-.68Z"/><path class="cls-23" d="M279.06,31.4h-.82v-7h.82Z"/><path class="cls-23" d="M281.72,28.75V31.4h-.82v-7h1.93a2.59,2.59,0,0,1,1.74.55,2,2,0,0,1,.61,1.54,2.09,2.09,0,0,1-.68,1.63,2.61,2.61,0,0,1-1.86.64Zm0-3.61V28h.86a1.92,1.92,0,0,0,1.3-.39,1.41,1.41,0,0,0,.44-1.1c0-.92-.54-1.38-1.64-1.38Z"/><path class="cls-23" d="M289,28.92h-2.66v-.63H289Z"/><path class="cls-23" d="M294,31.4h-.8v-.79h0a1.83,1.83,0,0,1-2.71.51,1.39,1.39,0,0,1-.42-1.05c0-.94.55-1.48,1.65-1.63l1.5-.21c0-.85-.34-1.28-1-1.28a2.48,2.48,0,0,0-1.63.62v-.82a3,3,0,0,1,1.7-.47c1.17,0,1.76.62,1.76,1.86Zm-.8-2.53L292,29a1.87,1.87,0,0,0-.84.28.9.9,0,0,0,0,1.3,1.05,1.05,0,0,0,.7.23,1.27,1.27,0,0,0,1-.42,1.49,1.49,0,0,0,.39-1.06Z"/><path class="cls-23" d="M299.84,33.22h-.68V31.4h-3.72v1.82h-.68v-2.5h.44a7.43,7.43,0,0,0,1.3-4.32h2.6v4.32h.74Zm-1.54-2.5V27.07h-1.11a7.8,7.8,0,0,1-1.14,3.65Z"/><path class="cls-23" d="M301.77,30.67h0v3H301V26.4h.8v.87h0a1.89,1.89,0,0,1,1.73-1A1.83,1.83,0,0,1,305,27a2.8,2.8,0,0,1,.54,1.8,3.09,3.09,0,0,1-.61,2,2,2,0,0,1-1.67.75A1.67,1.67,0,0,1,301.77,30.67Zm0-2v.69a1.49,1.49,0,0,0,.4,1.06,1.37,1.37,0,0,0,1,.43,1.36,1.36,0,0,0,1.14-.56,2.57,2.57,0,0,0,.41-1.55,2,2,0,0,0-.39-1.3,1.25,1.25,0,0,0-1-.48,1.39,1.39,0,0,0-1.12.49A1.75,1.75,0,0,0,301.75,28.66Z"/><path class="cls-23" d="M310.85,29.1h-3.53a1.82,1.82,0,0,0,.45,1.28,1.52,1.52,0,0,0,1.18.46,2.46,2.46,0,0,0,1.55-.56V31a2.89,2.89,0,0,1-1.74.48,2.11,2.11,0,0,1-1.67-.68,2.79,2.79,0,0,1-.6-1.91,2.76,2.76,0,0,1,.66-1.91,2.12,2.12,0,0,1,1.64-.73,1.88,1.88,0,0,1,1.52.63,2.66,2.66,0,0,1,.54,1.77Zm-.82-.68a1.66,1.66,0,0,0-.34-1.08,1.12,1.12,0,0,0-.91-.39,1.28,1.28,0,0,0-1,.41,1.78,1.78,0,0,0-.49,1.06Z"/><path class="cls-23" d="M315.47,31.17a2.63,2.63,0,0,1-1.37.34,2.29,2.29,0,0,1-1.73-.69,2.57,2.57,0,0,1-.65-1.81,2.77,2.77,0,0,1,.7-2,2.5,2.5,0,0,1,1.89-.75,2.72,2.72,0,0,1,1.17.24v.82a2,2,0,0,0-1.19-.39,1.61,1.61,0,0,0-1.26.55,2.08,2.08,0,0,0-.49,1.44,2,2,0,0,0,.46,1.39,1.59,1.59,0,0,0,1.24.51,2,2,0,0,0,1.23-.44Z"/><path class="cls-23" d="M317.41,30.28l-.78,2.4h-.57l.57-2.4Z"/><path class="cls-23" d="M240.45,39.4h-.8V35.08H237.1V39.4h-.8v-5h4.15Z"/><path class="cls-23" d="M244.16,39.51a2.31,2.31,0,0,1-1.77-.7,2.6,2.6,0,0,1-.66-1.86,2.68,2.68,0,0,1,.69-2,2.42,2.42,0,0,1,1.86-.71A2.24,2.24,0,0,1,246,35a2.72,2.72,0,0,1,.63,1.91,2.69,2.69,0,0,1-.68,1.91A2.36,2.36,0,0,1,244.16,39.51Zm.06-4.56a1.5,1.5,0,0,0-1.22.53,2.14,2.14,0,0,0-.45,1.44,2.08,2.08,0,0,0,.45,1.41,1.55,1.55,0,0,0,1.22.51,1.48,1.48,0,0,0,1.19-.5,2.2,2.2,0,0,0,.42-1.43,2.22,2.22,0,0,0-.42-1.45A1.46,1.46,0,0,0,244.22,35Z"/><path class="cls-23" d="M248.75,38.67h0v3h-.8V34.4h.8v.87h0a1.89,1.89,0,0,1,1.73-1A1.84,1.84,0,0,1,252,35a2.8,2.8,0,0,1,.54,1.8,3.15,3.15,0,0,1-.61,2,2,2,0,0,1-1.67.75A1.67,1.67,0,0,1,248.75,38.67Zm0-2v.69a1.49,1.49,0,0,0,.4,1.06,1.37,1.37,0,0,0,1,.43,1.33,1.33,0,0,0,1.14-.56,2.51,2.51,0,0,0,.42-1.55,2,2,0,0,0-.39-1.3,1.26,1.26,0,0,0-1-.48,1.42,1.42,0,0,0-1.13.49A1.79,1.79,0,0,0,248.73,36.66Z"/><path class="cls-23" d="M257,35.08h-1.5V39.4h-.8V35.08h-1.51V34.4H257Z"/><path class="cls-23" d="M268.89,53V46h2a2.14,2.14,0,0,1,1.44.45,1.41,1.41,0,0,1,.54,1.15,1.68,1.68,0,0,1-.33,1,1.7,1.7,0,0,1-.89.62v0a1.83,1.83,0,0,1,1.14.54A1.65,1.65,0,0,1,273.2,51a1.83,1.83,0,0,1-.64,1.46,2.4,2.4,0,0,1-1.63.55Zm.82-6.26V49h.84a1.58,1.58,0,0,0,1.06-.33,1.13,1.13,0,0,0,.39-.92q0-1-1.35-1Zm0,3v2.52h1.11a1.63,1.63,0,0,0,1.12-.34,1.16,1.16,0,0,0,.4-.94c0-.82-.56-1.24-1.69-1.24Z"/><path class="cls-23" d="M278.46,53h-.73V49l-.32.6L275.1,53h-.83V48H275V52c0-.09.12-.25.25-.48L277.63,48h.83Z"/><path class="cls-23" d="M280.65,52.31h0v3h-.8V48h.8v.88h0a1.89,1.89,0,0,1,1.73-1,1.81,1.81,0,0,1,1.5.67,2.74,2.74,0,0,1,.55,1.8,3.17,3.17,0,0,1-.61,2,2,2,0,0,1-1.67.75A1.67,1.67,0,0,1,280.65,52.31Zm0-2V51a1.49,1.49,0,0,0,.4,1.06,1.37,1.37,0,0,0,1,.43,1.33,1.33,0,0,0,1.14-.56,2.53,2.53,0,0,0,.42-1.55,2,2,0,0,0-.39-1.31,1.3,1.3,0,0,0-1.05-.47,1.4,1.4,0,0,0-1.12.49A1.78,1.78,0,0,0,280.63,50.29Z"/><path class="cls-23" d="M288.59,48.72H287.1V53h-.81V48.72h-1.5V48h3.8Z"/><path class="cls-23" d="M293.29,48l-2.3,5.8c-.41,1-1,1.56-1.73,1.56a1.56,1.56,0,0,1-.52-.07v-.71a1.4,1.4,0,0,0,.47.08,1,1,0,0,0,.91-.72l.4-.95-2-5h.89l1.36,3.85s.05.18.1.38h0a3.12,3.12,0,0,1,.1-.37L292.46,48Z"/><path class="cls-23" d="M297.47,53h-.8v-.78h0a1.82,1.82,0,0,1-2.7.51,1.4,1.4,0,0,1-.43-1c0-.94.55-1.48,1.65-1.63l1.5-.21c0-.85-.34-1.28-1-1.28a2.48,2.48,0,0,0-1.63.62v-.82a3,3,0,0,1,1.7-.47c1.18,0,1.76.62,1.76,1.86Zm-.8-2.53-1.2.17a2,2,0,0,0-.84.28.79.79,0,0,0-.29.7.77.77,0,0,0,.27.6,1,1,0,0,0,.69.23,1.29,1.29,0,0,0,1-.42,1.53,1.53,0,0,0,.38-1.06Z"/><path class="cls-23" d="M302.38,53h-.8V48.71h-1.16a10.38,10.38,0,0,1-.68,3.41,1.46,1.46,0,0,1-1.31,1A1.11,1.11,0,0,1,298,53v-.68a.91.91,0,0,0,.37.08c.72,0,1.18-1.46,1.38-4.4h2.63Z"/><path class="cls-23" d="M303.75,53V48h.8V50h1.35a1.81,1.81,0,0,1,1.22.4,1.43,1.43,0,0,1,.45,1.12,1.48,1.48,0,0,1-.45,1.14A1.65,1.65,0,0,1,306,53Zm.8-2.39v1.71h1.2c.67,0,1-.29,1-.88s-.34-.83-1-.83Z"/><path class="cls-23" d="M312.69,53h-.8V50.76h-2.55V53h-.8V48h.8v2h2.55V48h.8Z"/><path class="cls-23" d="M317.64,53h-.8v-.78h0a1.83,1.83,0,0,1-2.71.51,1.39,1.39,0,0,1-.42-1c0-.94.55-1.48,1.65-1.63l1.5-.21c0-.85-.34-1.28-1-1.28a2.46,2.46,0,0,0-1.63.62v-.82a3,3,0,0,1,1.7-.47c1.17,0,1.76.62,1.76,1.86Zm-.8-2.53-1.21.17a2,2,0,0,0-.84.28.81.81,0,0,0-.28.7.79.79,0,0,0,.26.6,1.05,1.05,0,0,0,.7.23,1.27,1.27,0,0,0,1-.42,1.49,1.49,0,0,0,.39-1.06Z"/><path class="cls-23" d="M322.32,53h-.8V51h-.67c-.32,0-.62.26-.88.79L319.32,53h-.93l.84-1.54a1.52,1.52,0,0,1,.71-.71,1.33,1.33,0,0,1-.89-.43,1.25,1.25,0,0,1-.31-.88,1.28,1.28,0,0,1,.48-1,2.09,2.09,0,0,1,1.35-.39h1.75Zm-.8-2.74V48.72h-.95c-.67,0-1,.25-1,.76s.33.81,1,.81Z"/><path class="cls-23" d="M274.18,65h-.79V60.91c-.07.21-.18.52-.33.92L271.81,65h-.72l-1.29-3.2c-.06-.17-.18-.48-.33-.92V65h-.69V60h1l1.32,3.27c.1.23.22.56.36,1l.36-1L273.12,60h1.06Z"/><path class="cls-23" d="M279.13,65h-.8v-.78h0a1.67,1.67,0,0,1-1.53.9,1.65,1.65,0,0,1-1.17-.39,1.37,1.37,0,0,1-.43-1.05c0-.94.55-1.48,1.65-1.63l1.5-.21c0-.85-.34-1.28-1-1.28a2.48,2.48,0,0,0-1.63.62v-.82a3,3,0,0,1,1.7-.47c1.18,0,1.76.62,1.76,1.86Zm-.8-2.53-1.2.17a2,2,0,0,0-.84.28.9.9,0,0,0,0,1.3,1.05,1.05,0,0,0,.7.23,1.26,1.26,0,0,0,1-.42,1.49,1.49,0,0,0,.39-1.06Z"/><path class="cls-23" d="M286.77,65h-6.38V60h.8v4.32h2V60H284v4.32h2V60h.8Z"/><path class="cls-23" d="M292.33,65h-.72V61q-.11.21-.33.6L289,65h-.83V60h.73V64c0-.09.13-.25.26-.48L291.5,60h.83Z"/><path class="cls-23" d="M297.85,65h-.8V62.76H294.5V65h-.8V60h.8v2h2.55V60h.8Z"/><path class="cls-23" d="M302.8,65H302v-.78h0a1.83,1.83,0,0,1-2.71.51,1.39,1.39,0,0,1-.42-1.05c0-.94.55-1.48,1.65-1.63l1.5-.21c0-.85-.34-1.28-1-1.28a2.46,2.46,0,0,0-1.63.62v-.82a3,3,0,0,1,1.7-.47c1.17,0,1.76.62,1.76,1.86ZM302,62.5l-1.21.17A1.87,1.87,0,0,0,300,63a.9.9,0,0,0,0,1.3,1.05,1.05,0,0,0,.7.23,1.27,1.27,0,0,0,1-.42A1.49,1.49,0,0,0,302,63Z"/><path class="cls-23" d="M241.12,85.4h-.82V82.25a4.56,4.56,0,0,1-2.08.59,2,2,0,0,1-1.42-.48,1.73,1.73,0,0,1-.5-1.33V78.39h.82V81c0,.75.4,1.12,1.2,1.12a4.59,4.59,0,0,0,2-.53V78.39h.82Z"/><path class="cls-23" d="M246.49,85.4h-.8v-.79h0a1.68,1.68,0,0,1-1.54.9,1.65,1.65,0,0,1-1.17-.39,1.39,1.39,0,0,1-.42-1.05c0-.94.55-1.48,1.65-1.63l1.5-.21c0-.85-.35-1.28-1-1.28a2.44,2.44,0,0,0-1.63.62v-.82a3.09,3.09,0,0,1,1.69-.47q1.77,0,1.77,1.86Zm-.8-2.53-1.21.16a2,2,0,0,0-.84.28.78.78,0,0,0-.28.7.76.76,0,0,0,.26.6,1,1,0,0,0,.69.23,1.29,1.29,0,0,0,1-.42,1.49,1.49,0,0,0,.39-1.06Z"/><path class="cls-23" d="M251.4,85.17a2.59,2.59,0,0,1-1.36.34,2.27,2.27,0,0,1-1.73-.69,2.54,2.54,0,0,1-.66-1.81,2.78,2.78,0,0,1,.71-2,2.47,2.47,0,0,1,1.89-.75,2.64,2.64,0,0,1,1.16.24v.82a2,2,0,0,0-1.19-.39,1.64,1.64,0,0,0-1.26.55,2.13,2.13,0,0,0-.49,1.44,2,2,0,0,0,.47,1.39,1.57,1.57,0,0,0,1.23.51,2,2,0,0,0,1.23-.44Z"/><path class="cls-23" d="M255.75,81.08h-1.49V85.4h-.8V81.08H252V80.4h3.8Z"/><path class="cls-23" d="M260.87,85.4h-.8V83.13h-2.55V85.4h-.8v-5h.8v2h2.55v-2h.8Z"/><path class="cls-23" d="M262.49,85.4v-5h.8v1.91h1.35a1.74,1.74,0,0,1,1.21.41,1.36,1.36,0,0,1,.46,1.11,1.48,1.48,0,0,1-.46,1.15,1.61,1.61,0,0,1-1.14.42Zm.8-2.4v1.71h1.2c.66,0,1-.29,1-.88s-.34-.83-1-.83ZM268,85.4h-.79v-5H268Z"/><path class="cls-23" d="M273.77,85.4h-.72v-4c-.07.14-.18.33-.33.59l-2.31,3.4h-.83v-5h.74v3.94a3.21,3.21,0,0,1,.25-.49l2.37-3.45h.83ZM273.48,78a1.53,1.53,0,0,1-.56,1.09,2,2,0,0,1-2.41,0A1.49,1.49,0,0,1,270,78h.79c0,.62.36.92.94.92a.92.92,0,0,0,.65-.24,1.17,1.17,0,0,0,.31-.68Z"/><path class="cls-23" d="M279.06,85.4h-.82v-7h.82Z"/><path class="cls-23" d="M281.72,82.75V85.4h-.82v-7h1.93a2.59,2.59,0,0,1,1.74.55,2,2,0,0,1,.61,1.54,2.09,2.09,0,0,1-.68,1.63,2.61,2.61,0,0,1-1.86.64Zm0-3.61V82h.86a1.92,1.92,0,0,0,1.3-.39,1.41,1.41,0,0,0,.44-1.1c0-.92-.54-1.38-1.64-1.38Z"/><path class="cls-23" d="M289,82.93h-2.66V82.3H289Z"/><path class="cls-23" d="M294,85.4h-.8v-.79h0a1.83,1.83,0,0,1-2.71.51,1.39,1.39,0,0,1-.42-1.05c0-.94.55-1.48,1.65-1.63l1.5-.21c0-.85-.34-1.28-1-1.28a2.48,2.48,0,0,0-1.63.62v-.82a3.12,3.12,0,0,1,1.7-.47c1.17,0,1.76.62,1.76,1.86Zm-.8-2.53L292,83a1.87,1.87,0,0,0-.84.28.9.9,0,0,0,0,1.3,1.05,1.05,0,0,0,.7.23,1.27,1.27,0,0,0,1-.42,1.49,1.49,0,0,0,.39-1.06Z"/><path class="cls-23" d="M299.84,87.22h-.68V85.4h-3.72v1.82h-.68v-2.5h.44a7.43,7.43,0,0,0,1.3-4.32h2.6v4.32h.74Zm-1.54-2.5V81.07h-1.11a7.8,7.8,0,0,1-1.14,3.65Z"/><path class="cls-23" d="M301.77,84.67h0v3H301V80.4h.8v.87h0a1.89,1.89,0,0,1,1.73-1A1.83,1.83,0,0,1,305,81a2.8,2.8,0,0,1,.54,1.8,3.07,3.07,0,0,1-.61,2,2,2,0,0,1-1.67.75A1.67,1.67,0,0,1,301.77,84.67Zm0-2v.69a1.49,1.49,0,0,0,.4,1.06,1.37,1.37,0,0,0,1,.43,1.36,1.36,0,0,0,1.14-.56,2.57,2.57,0,0,0,.41-1.55,2,2,0,0,0-.39-1.3,1.25,1.25,0,0,0-1-.48,1.39,1.39,0,0,0-1.12.49A1.75,1.75,0,0,0,301.75,82.66Z"/><path class="cls-23" d="M310.85,83.1h-3.53a1.87,1.87,0,0,0,.45,1.29,1.54,1.54,0,0,0,1.18.45,2.46,2.46,0,0,0,1.55-.56V85a2.89,2.89,0,0,1-1.74.48,2.11,2.11,0,0,1-1.67-.68,2.79,2.79,0,0,1-.6-1.91,2.76,2.76,0,0,1,.66-1.91,2.12,2.12,0,0,1,1.64-.73,1.88,1.88,0,0,1,1.52.63,2.66,2.66,0,0,1,.54,1.77Zm-.82-.68a1.68,1.68,0,0,0-.34-1.08,1.12,1.12,0,0,0-.91-.39,1.28,1.28,0,0,0-1,.41,1.78,1.78,0,0,0-.49,1.06Z"/><path class="cls-23" d="M315.47,85.17a2.63,2.63,0,0,1-1.37.34,2.29,2.29,0,0,1-1.73-.69,2.57,2.57,0,0,1-.65-1.81,2.77,2.77,0,0,1,.7-2,2.5,2.5,0,0,1,1.89-.75,2.72,2.72,0,0,1,1.17.24v.82a2,2,0,0,0-1.19-.39,1.61,1.61,0,0,0-1.26.55,2.08,2.08,0,0,0-.49,1.44,2,2,0,0,0,.46,1.39,1.59,1.59,0,0,0,1.24.51,2,2,0,0,0,1.23-.44Z"/><path class="cls-23" d="M317.41,84.28l-.78,2.41h-.57l.57-2.41Z"/><path class="cls-23" d="M240.45,93.4h-.8V89.08H237.1V93.4h-.8v-5h4.15Z"/><path class="cls-23" d="M244.16,93.51a2.31,2.31,0,0,1-1.77-.7,2.58,2.58,0,0,1-.66-1.86,2.68,2.68,0,0,1,.69-2,2.46,2.46,0,0,1,1.86-.71A2.24,2.24,0,0,1,246,89a2.72,2.72,0,0,1,.63,1.91,2.69,2.69,0,0,1-.68,1.91A2.36,2.36,0,0,1,244.16,93.51Zm.06-4.56a1.5,1.5,0,0,0-1.22.53,2.15,2.15,0,0,0-.45,1.45,2.07,2.07,0,0,0,.45,1.4,1.55,1.55,0,0,0,1.22.51,1.48,1.48,0,0,0,1.19-.5,2.2,2.2,0,0,0,.42-1.43,2.22,2.22,0,0,0-.42-1.45A1.46,1.46,0,0,0,244.22,89Z"/><path class="cls-23" d="M248.75,92.67h0v3h-.8V88.4h.8v.87h0a1.89,1.89,0,0,1,1.73-1A1.84,1.84,0,0,1,252,89a2.8,2.8,0,0,1,.54,1.8,3.13,3.13,0,0,1-.61,2,2,2,0,0,1-1.67.75A1.67,1.67,0,0,1,248.75,92.67Zm0-2v.69a1.49,1.49,0,0,0,.4,1.06,1.37,1.37,0,0,0,1,.43,1.33,1.33,0,0,0,1.14-.56,2.51,2.51,0,0,0,.42-1.55,2,2,0,0,0-.39-1.3,1.26,1.26,0,0,0-1-.48,1.42,1.42,0,0,0-1.13.49A1.79,1.79,0,0,0,248.73,90.66Z"/><path class="cls-23" d="M257,89.08h-1.5V93.4h-.8V89.08h-1.51V88.4H257Z"/><path class="cls-23" d="M268.89,108v-7h2a2.14,2.14,0,0,1,1.44.45,1.41,1.41,0,0,1,.54,1.15,1.68,1.68,0,0,1-.33,1,1.7,1.7,0,0,1-.89.62v0a1.83,1.83,0,0,1,1.14.54,1.65,1.65,0,0,1,.42,1.17,1.83,1.83,0,0,1-.64,1.46,2.4,2.4,0,0,1-1.63.55Zm.82-6.26V104h.84a1.58,1.58,0,0,0,1.06-.33,1.12,1.12,0,0,0,.39-.91c0-.69-.45-1-1.35-1Zm0,3v2.52h1.11a1.63,1.63,0,0,0,1.12-.34,1.16,1.16,0,0,0,.4-.94c0-.82-.56-1.24-1.69-1.24Z"/><path class="cls-23" d="M278.46,108h-.73v-4c-.07.14-.18.33-.32.59L275.1,108h-.83v-5H275v4a4.57,4.57,0,0,1,.25-.49l2.38-3.46h.83Z"/><path class="cls-23" d="M280.65,107.31h0v3h-.8V103h.8v.88h0a1.89,1.89,0,0,1,1.73-1,1.81,1.81,0,0,1,1.5.67,2.74,2.74,0,0,1,.55,1.8,3.15,3.15,0,0,1-.61,2,2,2,0,0,1-1.67.75A1.67,1.67,0,0,1,280.65,107.31Zm0-2V106a1.49,1.49,0,0,0,.4,1.06,1.37,1.37,0,0,0,1,.43,1.33,1.33,0,0,0,1.14-.56,2.53,2.53,0,0,0,.42-1.55,2,2,0,0,0-.39-1.31,1.3,1.3,0,0,0-1.05-.47,1.4,1.4,0,0,0-1.12.49A1.79,1.79,0,0,0,280.63,105.3Z"/><path class="cls-23" d="M288.59,103.72H287.1V108h-.81v-4.31h-1.5V103h3.8Z"/><path class="cls-23" d="M293.29,103l-2.3,5.8c-.41,1-1,1.56-1.73,1.56a1.56,1.56,0,0,1-.52-.07v-.71a1.4,1.4,0,0,0,.47.08,1,1,0,0,0,.91-.72l.4-1-2-5h.89l1.36,3.85c0,.05.05.18.1.38h0a3.12,3.12,0,0,1,.1-.37l1.42-3.86Z"/><path class="cls-23" d="M297.47,108h-.8v-.78h0a1.82,1.82,0,0,1-2.7.51,1.4,1.4,0,0,1-.43-1.05c0-.94.55-1.48,1.65-1.63l1.5-.21c0-.85-.34-1.28-1-1.28a2.48,2.48,0,0,0-1.63.62v-.82a3,3,0,0,1,1.7-.47c1.18,0,1.76.62,1.76,1.86Zm-.8-2.52-1.2.16a2,2,0,0,0-.84.28.79.79,0,0,0-.29.7.77.77,0,0,0,.27.6,1,1,0,0,0,.69.23,1.29,1.29,0,0,0,1-.42,1.53,1.53,0,0,0,.38-1.06Z"/><path class="cls-23" d="M302.38,108h-.8v-4.32h-1.16a10.38,10.38,0,0,1-.68,3.41,1.46,1.46,0,0,1-1.31,1A1.11,1.11,0,0,1,298,108v-.68a.91.91,0,0,0,.37.08c.72,0,1.18-1.46,1.38-4.4h2.63Z"/><path class="cls-23" d="M303.75,108v-5h.8V105h1.35a1.81,1.81,0,0,1,1.22.4,1.43,1.43,0,0,1,.45,1.12,1.48,1.48,0,0,1-.45,1.14A1.65,1.65,0,0,1,306,108Zm.8-2.39v1.71h1.2c.67,0,1-.29,1-.88s-.34-.83-1-.83Z"/><path class="cls-23" d="M312.69,108h-.8v-2.27h-2.55V108h-.8v-5h.8v2.06h2.55V103h.8Z"/><path class="cls-23" d="M317.64,108h-.8v-.78h0a1.83,1.83,0,0,1-2.71.51,1.39,1.39,0,0,1-.42-1.05c0-.94.55-1.48,1.65-1.63l1.5-.21c0-.85-.34-1.28-1-1.28a2.46,2.46,0,0,0-1.63.62v-.82a3,3,0,0,1,1.7-.47c1.17,0,1.76.62,1.76,1.86Zm-.8-2.52-1.21.16a2,2,0,0,0-.84.28.81.81,0,0,0-.28.7.79.79,0,0,0,.26.6,1.05,1.05,0,0,0,.7.23,1.27,1.27,0,0,0,1-.42,1.49,1.49,0,0,0,.39-1.06Z"/><path class="cls-23" d="M322.32,108h-.8V106h-.67c-.32,0-.62.27-.88.79l-.65,1.28h-.93l.84-1.54a1.52,1.52,0,0,1,.71-.71,1.33,1.33,0,0,1-.89-.43,1.24,1.24,0,0,1-.31-.87,1.29,1.29,0,0,1,.48-1.06,2.09,2.09,0,0,1,1.35-.39h1.75Zm-.8-2.73v-1.58h-.95c-.67,0-1,.25-1,.76s.33.82,1,.82Z"/><path class="cls-23" d="M274.18,120h-.79v-4.12c-.07.21-.18.52-.33.92l-1.25,3.2h-.72l-1.29-3.2c-.06-.17-.18-.48-.33-.92V120h-.69v-5h1l1.32,3.27c.1.23.22.56.36,1l.36-1,1.28-3.29h1.06Z"/><path class="cls-23" d="M279.13,120h-.8v-.78h0a1.67,1.67,0,0,1-1.53.9,1.65,1.65,0,0,1-1.17-.39,1.37,1.37,0,0,1-.43-1.05c0-.94.55-1.48,1.65-1.63l1.5-.21c0-.85-.34-1.28-1-1.28a2.48,2.48,0,0,0-1.63.62v-.82a3,3,0,0,1,1.7-.47c1.18,0,1.76.62,1.76,1.86Zm-.8-2.53-1.2.17a2,2,0,0,0-.84.28.9.9,0,0,0,0,1.3,1.05,1.05,0,0,0,.7.23,1.26,1.26,0,0,0,1-.42,1.49,1.49,0,0,0,.39-1.06Z"/><path class="cls-23" d="M286.77,120h-6.38v-5h.8v4.32h2V115H284v4.32h2V115h.8Z"/><path class="cls-23" d="M292.33,120h-.72v-4q-.11.21-.33.6L289,120h-.83v-5h.73V119c0-.09.13-.25.26-.48L291.5,115h.83Z"/><path class="cls-23" d="M297.85,120h-.8v-2.27H294.5V120h-.8v-5h.8v2h2.55v-2h.8Z"/><path class="cls-23" d="M302.8,120H302v-.78h0a1.83,1.83,0,0,1-2.71.51,1.39,1.39,0,0,1-.42-1.05c0-.94.55-1.48,1.65-1.63l1.5-.21c0-.85-.34-1.28-1-1.28a2.46,2.46,0,0,0-1.63.62v-.82a3,3,0,0,1,1.7-.47c1.17,0,1.76.62,1.76,1.86Zm-.8-2.53-1.21.17a1.87,1.87,0,0,0-.83.28.9.9,0,0,0,0,1.3,1.05,1.05,0,0,0,.7.23,1.27,1.27,0,0,0,1-.42A1.49,1.49,0,0,0,302,118Z"/><path class="cls-23" d="M241.12,143.9h-.82v-3.15a4.56,4.56,0,0,1-2.08.59,2,2,0,0,1-1.42-.48,1.73,1.73,0,0,1-.5-1.33v-2.64h.82v2.6c0,.75.4,1.13,1.2,1.13a4.62,4.62,0,0,0,2-.54v-3.19h.82Z"/><path class="cls-23" d="M246.49,143.9h-.8v-.78h0a1.69,1.69,0,0,1-1.54.89,1.65,1.65,0,0,1-1.17-.39,1.39,1.39,0,0,1-.42-1.05c0-.94.55-1.48,1.65-1.63l1.5-.21c0-.85-.35-1.28-1-1.28a2.44,2.44,0,0,0-1.63.62v-.82a3.09,3.09,0,0,1,1.69-.47q1.77,0,1.77,1.86Zm-.8-2.53-1.21.16a2,2,0,0,0-.84.28.78.78,0,0,0-.28.7.76.76,0,0,0,.26.6,1,1,0,0,0,.69.23,1.29,1.29,0,0,0,1-.42,1.48,1.48,0,0,0,.39-1Z"/><path class="cls-23" d="M251.4,143.67A2.59,2.59,0,0,1,250,144a2.27,2.27,0,0,1-1.73-.69,2.54,2.54,0,0,1-.66-1.81,2.78,2.78,0,0,1,.71-2,2.47,2.47,0,0,1,1.89-.75,2.64,2.64,0,0,1,1.16.24v.82a2,2,0,0,0-1.19-.39A1.64,1.64,0,0,0,249,140a2.14,2.14,0,0,0-.49,1.45,2,2,0,0,0,.47,1.38,1.57,1.57,0,0,0,1.23.51,2,2,0,0,0,1.23-.43Z"/><path class="cls-23" d="M255.75,139.58h-1.49v4.32h-.8v-4.32H252v-.68h3.8Z"/><path class="cls-23" d="M260.87,143.9h-.8v-2.27h-2.55v2.27h-.8v-5h.8v2h2.55v-2h.8Z"/><path class="cls-23" d="M262.49,143.9v-5h.8v1.92h1.35a1.73,1.73,0,0,1,1.21.4,1.38,1.38,0,0,1,.46,1.11,1.46,1.46,0,0,1-.46,1.15,1.61,1.61,0,0,1-1.14.42Zm.8-2.4v1.71h1.2c.66,0,1-.29,1-.88s-.34-.83-1-.83Zm4.67,2.4h-.79v-5H268Z"/><path class="cls-23" d="M273.77,143.9h-.72v-4c-.07.14-.18.33-.33.59l-2.31,3.4h-.83v-5h.74v3.94a3.21,3.21,0,0,1,.25-.49l2.37-3.45h.83Zm-.29-7.44a1.53,1.53,0,0,1-.56,1.09,2,2,0,0,1-2.41,0,1.49,1.49,0,0,1-.51-1.09h.79c0,.62.36.92.94.92a.92.92,0,0,0,.65-.24,1.17,1.17,0,0,0,.31-.68Z"/><path class="cls-23" d="M279.06,143.9h-.82v-7h.82Z"/><path class="cls-23" d="M281.72,141.25v2.65h-.82v-7h1.93a2.59,2.59,0,0,1,1.74.55,2,2,0,0,1,.61,1.54,2.13,2.13,0,0,1-.68,1.64,2.65,2.65,0,0,1-1.86.63Zm0-3.61v2.87h.86a1.92,1.92,0,0,0,1.3-.39,1.39,1.39,0,0,0,.44-1.1c0-.92-.54-1.38-1.64-1.38Z"/><path class="cls-23" d="M289,141.43h-2.66v-.63H289Z"/><path class="cls-23" d="M294,143.9h-.8v-.78h0a1.84,1.84,0,0,1-2.71.5,1.39,1.39,0,0,1-.42-1.05c0-.94.55-1.48,1.65-1.63l1.5-.21c0-.85-.34-1.28-1-1.28a2.48,2.48,0,0,0-1.63.62v-.82a3.12,3.12,0,0,1,1.7-.47c1.17,0,1.76.62,1.76,1.86Zm-.8-2.53-1.2.16a1.87,1.87,0,0,0-.84.28.9.9,0,0,0,0,1.3,1.05,1.05,0,0,0,.7.23,1.27,1.27,0,0,0,1-.42,1.48,1.48,0,0,0,.39-1Z"/><path class="cls-23" d="M299.84,145.72h-.68V143.9h-3.72v1.82h-.68v-2.5h.44a7.43,7.43,0,0,0,1.3-4.32h2.6v4.32h.74Zm-1.54-2.5v-3.64h-1.11a7.8,7.8,0,0,1-1.14,3.64Z"/><path class="cls-23" d="M301.77,143.17h0v3H301v-7.3h.8v.88h0a1.88,1.88,0,0,1,1.73-1,1.83,1.83,0,0,1,1.51.67,2.8,2.8,0,0,1,.54,1.8,3.07,3.07,0,0,1-.61,2,2,2,0,0,1-1.67.75A1.67,1.67,0,0,1,301.77,143.17Zm0-2v.7a1.48,1.48,0,0,0,.4,1,1.34,1.34,0,0,0,1,.43,1.36,1.36,0,0,0,1.14-.56,2.56,2.56,0,0,0,.41-1.54,2,2,0,0,0-.39-1.31,1.25,1.25,0,0,0-1-.48,1.42,1.42,0,0,0-1.12.49A1.75,1.75,0,0,0,301.75,141.16Z"/><path class="cls-23" d="M310.85,141.6h-3.53a1.87,1.87,0,0,0,.45,1.29,1.54,1.54,0,0,0,1.18.45,2.46,2.46,0,0,0,1.55-.56v.76a3,3,0,0,1-1.74.47,2.11,2.11,0,0,1-1.67-.68,2.79,2.79,0,0,1-.6-1.91,2.76,2.76,0,0,1,.66-1.91,2.12,2.12,0,0,1,1.64-.73,1.88,1.88,0,0,1,1.52.63,2.66,2.66,0,0,1,.54,1.77Zm-.82-.68a1.68,1.68,0,0,0-.34-1.08,1.12,1.12,0,0,0-.91-.39,1.28,1.28,0,0,0-1,.41,1.78,1.78,0,0,0-.49,1.06Z"/><path class="cls-23" d="M315.47,143.67a2.63,2.63,0,0,1-1.37.34,2.29,2.29,0,0,1-1.73-.69,2.57,2.57,0,0,1-.65-1.81,2.77,2.77,0,0,1,.7-2,2.5,2.5,0,0,1,1.89-.75,2.72,2.72,0,0,1,1.17.24v.82a2,2,0,0,0-1.19-.39A1.61,1.61,0,0,0,313,140a2.09,2.09,0,0,0-.49,1.45,2,2,0,0,0,.46,1.38,1.59,1.59,0,0,0,1.24.51,2,2,0,0,0,1.23-.43Z"/><path class="cls-23" d="M317.41,142.78l-.78,2.41h-.57l.57-2.41Z"/><path class="cls-23" d="M240.45,151.9h-.8v-4.32H237.1v4.32h-.8v-5h4.15Z"/><path class="cls-23" d="M244.16,152a2.31,2.31,0,0,1-1.77-.7,2.57,2.57,0,0,1-.66-1.85,2.7,2.7,0,0,1,.69-2,2.46,2.46,0,0,1,1.86-.71,2.24,2.24,0,0,1,1.74.69,2.72,2.72,0,0,1,.63,1.91,2.69,2.69,0,0,1-.68,1.91A2.36,2.36,0,0,1,244.16,152Zm.06-4.56A1.5,1.5,0,0,0,243,148a2.15,2.15,0,0,0-.45,1.45,2,2,0,0,0,.45,1.4,1.55,1.55,0,0,0,1.22.51,1.48,1.48,0,0,0,1.19-.5,2.2,2.2,0,0,0,.42-1.43,2.22,2.22,0,0,0-.42-1.45A1.46,1.46,0,0,0,244.22,147.45Z"/><path class="cls-23" d="M248.75,151.17h0v3h-.8v-7.3h.8v.88h0a1.88,1.88,0,0,1,1.73-1,1.84,1.84,0,0,1,1.51.67,2.8,2.8,0,0,1,.54,1.8,3.13,3.13,0,0,1-.61,2,2,2,0,0,1-1.67.75A1.67,1.67,0,0,1,248.75,151.17Zm0-2v.7a1.48,1.48,0,0,0,.4,1,1.43,1.43,0,0,0,2.16-.13,2.49,2.49,0,0,0,.42-1.54,2,2,0,0,0-.39-1.31,1.26,1.26,0,0,0-1-.48,1.45,1.45,0,0,0-1.13.49A1.79,1.79,0,0,0,248.73,149.16Z"/><path class="cls-23" d="M257,147.58h-1.5v4.32h-.8v-4.32h-1.51v-.68H257Z"/><path class="cls-23" d="M268.89,166.54v-7h2a2.14,2.14,0,0,1,1.44.45,1.41,1.41,0,0,1,.54,1.15,1.68,1.68,0,0,1-.33,1,1.7,1.7,0,0,1-.89.62v0a1.83,1.83,0,0,1,1.14.54,1.65,1.65,0,0,1,.42,1.17,1.83,1.83,0,0,1-.64,1.46,2.41,2.41,0,0,1-1.63.56Zm.82-6.26v2.26h.84a1.58,1.58,0,0,0,1.06-.33,1.11,1.11,0,0,0,.39-.91q0-1-1.35-1Zm0,3v2.52h1.11a1.63,1.63,0,0,0,1.12-.34,1.16,1.16,0,0,0,.4-.94c0-.82-.56-1.24-1.69-1.24Z"/><path class="cls-23" d="M278.46,166.54h-.73v-4c-.07.14-.18.33-.32.59l-2.31,3.4h-.83v-5H275v3.94a4.57,4.57,0,0,1,.25-.49l2.38-3.45h.83Z"/><path class="cls-23" d="M280.65,165.81h0v3h-.8v-7.29h.8v.87h0a1.89,1.89,0,0,1,1.73-1,1.81,1.81,0,0,1,1.5.67,2.74,2.74,0,0,1,.55,1.8,3.15,3.15,0,0,1-.61,2,2,2,0,0,1-1.67.75A1.67,1.67,0,0,1,280.65,165.81Zm0-2v.69a1.49,1.49,0,0,0,.4,1.06,1.37,1.37,0,0,0,1,.43,1.33,1.33,0,0,0,1.14-.56,2.51,2.51,0,0,0,.42-1.55,2,2,0,0,0-.39-1.3,1.28,1.28,0,0,0-1.05-.48,1.4,1.4,0,0,0-1.12.49A1.79,1.79,0,0,0,280.63,163.8Z"/><path class="cls-23" d="M288.59,162.22H287.1v4.32h-.81v-4.32h-1.5v-.68h3.8Z"/><path class="cls-23" d="M293.29,161.54l-2.3,5.8c-.41,1-1,1.55-1.73,1.55a1.9,1.9,0,0,1-.52-.06v-.72a1.44,1.44,0,0,0,.47.09,1,1,0,0,0,.91-.73l.4-.94-2-5h.89l1.36,3.84c0,.05.05.18.1.38h0a3.74,3.74,0,0,1,.1-.37l1.42-3.85Z"/><path class="cls-23" d="M297.47,166.54h-.8v-.79h0a1.82,1.82,0,0,1-2.7.51,1.4,1.4,0,0,1-.43-1c0-.94.55-1.48,1.65-1.63l1.5-.21c0-.85-.34-1.28-1-1.28a2.48,2.48,0,0,0-1.63.62v-.82a3,3,0,0,1,1.7-.47c1.18,0,1.76.62,1.76,1.86Zm-.8-2.53-1.2.16a2,2,0,0,0-.84.28.79.79,0,0,0-.29.7.77.77,0,0,0,.27.6,1,1,0,0,0,.69.23,1.29,1.29,0,0,0,1-.42,1.53,1.53,0,0,0,.38-1.06Z"/><path class="cls-23" d="M302.38,166.54h-.8v-4.33h-1.16a10.38,10.38,0,0,1-.68,3.41,1.46,1.46,0,0,1-1.31,1,1.35,1.35,0,0,1-.43-.06v-.69a.77.77,0,0,0,.37.08c.72,0,1.18-1.46,1.38-4.39h2.63Z"/><path class="cls-23" d="M303.75,166.54v-5h.8v1.91h1.35a1.81,1.81,0,0,1,1.22.4,1.43,1.43,0,0,1,.45,1.12,1.52,1.52,0,0,1-.45,1.15,1.65,1.65,0,0,1-1.15.42Zm.8-2.4v1.71h1.2c.67,0,1-.29,1-.88s-.34-.83-1-.83Z"/><path class="cls-23" d="M312.69,166.54h-.8v-2.28h-2.55v2.28h-.8v-5h.8v2.05h2.55v-2.05h.8Z"/><path class="cls-23" d="M317.64,166.54h-.8v-.79h0a1.83,1.83,0,0,1-2.71.51,1.39,1.39,0,0,1-.42-1c0-.94.55-1.48,1.65-1.63l1.5-.21c0-.85-.34-1.28-1-1.28a2.46,2.46,0,0,0-1.63.62v-.82a3,3,0,0,1,1.7-.47c1.17,0,1.76.62,1.76,1.86Zm-.8-2.53-1.21.16a2,2,0,0,0-.84.28.81.81,0,0,0-.28.7.79.79,0,0,0,.26.6,1.05,1.05,0,0,0,.7.23,1.27,1.27,0,0,0,1-.42,1.49,1.49,0,0,0,.39-1.06Z"/><path class="cls-23" d="M322.32,166.54h-.8v-2.08h-.67c-.32,0-.62.27-.88.79l-.65,1.29h-.93l.84-1.55a1.52,1.52,0,0,1,.71-.71,1.33,1.33,0,0,1-.89-.43,1.24,1.24,0,0,1-.31-.87,1.29,1.29,0,0,1,.48-1.06,2.09,2.09,0,0,1,1.35-.38h1.75Zm-.8-2.74v-1.58h-.95c-.67,0-1,.25-1,.77s.33.81,1,.81Z"/><path class="cls-23" d="M274.18,178.54h-.79v-4.13c-.07.21-.18.52-.33.92l-1.25,3.21h-.72l-1.29-3.21c-.06-.17-.18-.48-.33-.92v4.13h-.69v-5h1l1.32,3.26c.1.23.22.56.36,1l.36-1,1.28-3.28h1.06Z"/><path class="cls-23" d="M279.13,178.54h-.8v-.79h0a1.67,1.67,0,0,1-1.53.9,1.65,1.65,0,0,1-1.17-.39,1.37,1.37,0,0,1-.43-1c0-.94.55-1.48,1.65-1.63l1.5-.21c0-.85-.34-1.28-1-1.28a2.48,2.48,0,0,0-1.63.62v-.82a3,3,0,0,1,1.7-.47c1.18,0,1.76.62,1.76,1.86Zm-.8-2.53-1.2.16a2,2,0,0,0-.84.28.9.9,0,0,0,0,1.3,1.05,1.05,0,0,0,.7.23,1.26,1.26,0,0,0,1-.42,1.49,1.49,0,0,0,.39-1.06Z"/><path class="cls-23" d="M286.77,178.54h-6.38v-5h.8v4.31h2v-4.31H284v4.31h2v-4.31h.8Z"/><path class="cls-23" d="M292.33,178.54h-.72v-4c-.07.14-.18.33-.33.59l-2.31,3.4h-.83v-5h.73v3.94a5.28,5.28,0,0,1,.26-.49l2.37-3.45h.83Z"/><path class="cls-23" d="M297.85,178.54h-.8v-2.28H294.5v2.28h-.8v-5h.8v2.05h2.55v-2.05h.8Z"/><path class="cls-23" d="M302.8,178.54H302v-.79h0a1.83,1.83,0,0,1-2.71.51,1.39,1.39,0,0,1-.42-1c0-.94.55-1.48,1.65-1.63l1.5-.21c0-.85-.34-1.28-1-1.28a2.46,2.46,0,0,0-1.63.62v-.82a3,3,0,0,1,1.7-.47c1.17,0,1.76.62,1.76,1.86ZM302,176l-1.21.16a1.87,1.87,0,0,0-.83.28.9.9,0,0,0,0,1.3,1.05,1.05,0,0,0,.7.23,1.27,1.27,0,0,0,1-.42,1.49,1.49,0,0,0,.39-1.06Z"/></svg>