<svg xmlns="http://www.w3.org/2000/svg" xmlns:xlink="http://www.w3.org/1999/xlink" viewBox="0 0 668 155"><defs><symbol id="a" viewBox="0 0 49.9 49.9"><path d="M19.5,39.9a12,12,0,0,0,13.7,9.9,11.9,11.9,0,0,0,10-11.9,16.4,16.4,0,0,0-.2-2.2,8.2,8.2,0,0,0,6.9-8.3c0-4.6-3.5-8.4-7.7-8.4H20.3A10.5,10.5,0,0,0,10.1,29.6,10.3,10.3,0,0,0,19.5,39.9Z" fill="#59b4d9"/><path d="M15,22a.9.9,0,0,0-1,1v5a.9.9,0,0,0,1,1H26a.9.9,0,0,0,1-1V23a.9.9,0,0,0-1-1Z" fill="#dd5900"/><path d="M26,28V23H15v5H26m0,2H15a2,2,0,0,1-2-2V23a2,2,0,0,1,2-2H26a2,2,0,0,1,2,2v5A2,2,0,0,1,26,30Z" fill="#a0a1a2"/><path d="M28,22a.9.9,0,0,0-1,1v5a.9.9,0,0,0,1,1H39a.9.9,0,0,0,1-1V23a.9.9,0,0,0-1-1Z" fill="#ba141a"/><path d="M39,28V23H28v5H39m0,2H28a2,2,0,0,1-2-2V23a2,2,0,0,1,2-2H39a2,2,0,0,1,2,2v5A2,2,0,0,1,39,30Z" fill="#a0a1a2"/><path d="M2,22a.9.9,0,0,0-1,1v5a.9.9,0,0,0,1,1H13a.9.9,0,0,0,1-1V23a.9.9,0,0,0-1-1Z" fill="#ba141a"/><path d="M13,28V23H2v5H13m0,2H2a2,2,0,0,1-2-2V23a2,2,0,0,1,2-2H13a2,2,0,0,1,2,2v5A2,2,0,0,1,13,30Z" fill="#a0a1a2"/><path d="M15,15a.9.9,0,0,0-1,1v5a.9.9,0,0,0,1,1H26a.9.9,0,0,0,1-1V16a.9.9,0,0,0-1-1Z" fill="#ba141a"/><path d="M26,21V16H15v5H26m0,2H15a2,2,0,0,1-2-2V16a2,2,0,0,1,2-2H26a2,2,0,0,1,2,2v5A2,2,0,0,1,26,23Z" fill="#a0a1a2"/><path d="M2,8A.9.9,0,0,0,1,9v5a.9.9,0,0,0,1,1H13a.9.9,0,0,0,1-1V9a.9.9,0,0,0-1-1Z" fill="#dd5900"/><path d="M13,14V9H2v5H13m0,2H2a2,2,0,0,1-2-2V9A2,2,0,0,1,2,7H13a2,2,0,0,1,2,2v5A2,2,0,0,1,13,16Z" fill="#a0a1a2"/><path d="M2,15a.9.9,0,0,0-1,1v5a.9.9,0,0,0,1,1H13a.9.9,0,0,0,1-1V16a.9.9,0,0,0-1-1Z" fill="#ba141a"/><path d="M13,21V16H2v5H13m0,2H2a2,2,0,0,1-2-2V16a2,2,0,0,1,2-2H13a2,2,0,0,1,2,2v5A2,2,0,0,1,13,23Z" fill="#a0a1a2"/><path d="M15,1a.9.9,0,0,0-1,1V7a.9.9,0,0,0,1,1H26a.9.9,0,0,0,1-1V2a.9.9,0,0,0-1-1Z" fill="#ba141a"/><path d="M26,7V2H15V7H26m0,2H15a2,2,0,0,1-2-2V2a2,2,0,0,1,2-2H26a2,2,0,0,1,2,2V7A2,2,0,0,1,26,9Z" fill="#a0a1a2"/><path d="M28,8a.9.9,0,0,0-1,1v5a.9.9,0,0,0,1,1H39a.9.9,0,0,0,1-1V9a.9.9,0,0,0-1-1Z" fill="#ba141a"/><path d="M39,14V9H28v5H39m0,2H28a2,2,0,0,1-2-2V9a2,2,0,0,1,2-2H39a2,2,0,0,1,2,2v5A2,2,0,0,1,39,16Z" fill="#a0a1a2"/><path d="M28,15a.9.9,0,0,0-1,1v5a.9.9,0,0,0,1,1H39a.9.9,0,0,0,1-1V16a.9.9,0,0,0-1-1Z" fill="#ba141a"/><path d="M39,21V16H28v5H39m0,2H28a2,2,0,0,1-2-2V16a2,2,0,0,1,2-2H39a2,2,0,0,1,2,2v5A2,2,0,0,1,39,23Z" fill="#a0a1a2"/><path d="M15,8a.9.9,0,0,0-1,1v5a.9.9,0,0,0,1,1H26a.9.9,0,0,0,1-1V9a.9.9,0,0,0-1-1Z" fill="#ba141a"/><path d="M26,14V9H15v5H26m0,2H15a2,2,0,0,1-2-2V9a2,2,0,0,1,2-2H26a2,2,0,0,1,2,2v5A2,2,0,0,1,26,16Z" fill="#a0a1a2"/><path d="M28,1a.9.9,0,0,0-1,1V7a.9.9,0,0,0,1,1H39a.9.9,0,0,0,1-1V2a.9.9,0,0,0-1-1Z" fill="#dd5900"/><path d="M39,7V2H28V7H39m0,2H28a2,2,0,0,1-2-2V2a2,2,0,0,1,2-2H39a2,2,0,0,1,2,2V7A2,2,0,0,1,39,9Z" fill="#a0a1a2"/><path d="M2,1A.9.9,0,0,0,1,2V7A.9.9,0,0,0,2,8H13a.9.9,0,0,0,1-1V2a.9.9,0,0,0-1-1Z" fill="#ba141a"/><path d="M13,7V2H2V7H13m0,2H2A2,2,0,0,1,0,7V2A2,2,0,0,1,2,0H13a2,2,0,0,1,2,2V7A2,2,0,0,1,13,9Z" fill="#a0a1a2"/></symbol></defs><title>OJ104467218</title><rect width="668" height="155" fill="#fff"/><rect x="128" y="15" width="230" height="120" fill="#fff"/><rect x="128" y="15" width="230" height="120" fill="#0072c6" opacity="0.25" style="isolation:isolate"/><rect x="468" y="15" width="200" height="140" fill="#fff"/><rect x="468" y="15" width="200" height="140" fill="#3c3c41" opacity="0.15" style="isolation:isolate"/><rect y="15" width="105" height="120" fill="#fff"/><rect y="15" width="105" height="120" fill="#3c3c41" opacity="0.15" style="isolation:isolate"/><rect x="143" y="65" width="95" height="62.07" fill="#fff"/><rect x="143" y="65" width="95" height="62.07" fill="#50e6ff" opacity="0.05" style="isolation:isolate"/><rect x="263" y="65" width="80" height="62.07" fill="#fff"/><rect x="263" y="65" width="80" height="62.07" fill="#50e6ff" opacity="0.05" style="isolation:isolate"/><path d="M147.3,7.9a8,8,0,0,1,9.1-6.8,7.8,7.8,0,0,1,6.8,6.6,5.4,5.4,0,0,1,7.7.6h.1a5.3,5.3,0,0,1,1.1,2.1,4.8,4.8,0,0,1,5.8,3.5,4.8,4.8,0,0,1-3.5,5.9H146.2a6.1,6.1,0,0,1,1.1-12.1Z" fill="#fff"/><path d="M147.3,7.9a8,8,0,0,1,9.1-6.8,7.8,7.8,0,0,1,6.8,6.6,5.4,5.4,0,0,1,7.7.6h.1a5.3,5.3,0,0,1,1.1,2.1,4.8,4.8,0,0,1,5.8,3.5,4.8,4.8,0,0,1-3.5,5.9H146.2a6.1,6.1,0,0,1,1.1-12.1Z" fill="#0078d4"/><path d="M147.3,7.9a8,8,0,0,1,9.1-6.8,7.8,7.8,0,0,1,6.8,6.6,5.4,5.4,0,0,1,7.7.6h.1a5.3,5.3,0,0,1,1.1,2.1,4.8,4.8,0,0,1,5.8,3.5,4.8,4.8,0,0,1-3.5,5.9H146.2a6.1,6.1,0,0,1,1.1-12.1Z" fill="none" stroke="#fff" stroke-miterlimit="10"/><path d="M146.4,7.9a8.2,8.2,0,0,0-9.2-6.8,8.3,8.3,0,0,0-6.8,6.6,5.3,5.3,0,0,0-7.7.7h0a5.3,5.3,0,0,0-1.1,2.1,4.8,4.8,0,0,0-5.8,3.5,4.9,4.9,0,0,0,3.5,5.9h28.2a6.1,6.1,0,0,0-1.1-12.1Z" fill="#fff"/><path d="M146.4,7.9a8.2,8.2,0,0,0-9.2-6.8,8.3,8.3,0,0,0-6.8,6.6,5.3,5.3,0,0,0-7.7.7h0a5.3,5.3,0,0,0-1.1,2.1,4.8,4.8,0,0,0-5.8,3.5,4.9,4.9,0,0,0,3.5,5.9h28.2a6.1,6.1,0,0,0-1.1-12.1Z" fill="#0078d4"/><path d="M146.4,7.9a8.2,8.2,0,0,0-9.2-6.8,8.3,8.3,0,0,0-6.8,6.6,5.3,5.3,0,0,0-7.7.7h0a5.3,5.3,0,0,0-1.1,2.1,4.8,4.8,0,0,0-5.8,3.5,4.9,4.9,0,0,0,3.5,5.9h28.2a6.1,6.1,0,0,0-1.1-12.1Z" fill="none" stroke="#fff" stroke-miterlimit="10"/><path d="M138.5,9.7a6.9,6.9,0,0,1,13.6-.2,4.6,4.6,0,0,1,6.6.6h0a4,4,0,0,1,1,1.8,4.1,4.1,0,0,1,5,3,4.2,4.2,0,0,1-3,5H137.5a5.3,5.3,0,0,1-4.1-5.2A5.1,5.1,0,0,1,138.5,9.7Z" fill="#fff"/><path d="M138.5,9.7a6.9,6.9,0,0,1,13.6-.2,4.6,4.6,0,0,1,6.6.6h0a4,4,0,0,1,1,1.8,4.1,4.1,0,0,1,5,3,4.2,4.2,0,0,1-3,5H137.5a5.3,5.3,0,0,1-4.1-5.2A5.1,5.1,0,0,1,138.5,9.7Z" fill="#0078d4"/><path d="M138.5,9.7a6.9,6.9,0,0,1,13.6-.2,4.6,4.6,0,0,1,6.6.6h0a4,4,0,0,1,1,1.8,4.1,4.1,0,0,1,5,3,4.2,4.2,0,0,1-3,5H137.5a5.3,5.3,0,0,1-4.1-5.2A5.1,5.1,0,0,1,138.5,9.7Z" fill="none" stroke="#fff" stroke-miterlimit="10"/><line x1="468" y1="55" x2="363.4" y2="55" fill="none" stroke="#3c3c41" stroke-miterlimit="10"/><polygon points="364.5 51.3 358 55 364.5 58.7 364.5 51.3" fill="#3c3c41"/><line x1="462.6" y1="90.5" x2="358" y2="90.5" fill="none" stroke="#3c3c41" stroke-miterlimit="10"/><polygon points="461.5 86.8 468 90.5 461.5 94.3 461.5 86.8" fill="#3c3c41"/><line x1="137.6" y1="90.5" x2="105.1" y2="90.5" fill="none" stroke="#3c3c41" stroke-miterlimit="10"/><polygon points="136.5 86.8 143 90.5 136.5 94.3 136.5 86.8" fill="#3c3c41"/><line x1="257.6" y1="90.5" x2="238" y2="90.5" fill="none" stroke="#3c3c41" stroke-miterlimit="10"/><polygon points="256.5 86.8 263 90.5 256.5 94.3 256.5 86.8" fill="#3c3c41"/><path d="M21.5,73.9a.6.6,0,0,0,.2.5l.4.5.6.4.5.2a8.6,8.6,0,0,0,.6,2.3l-1.4-.5a6.7,6.7,0,0,1-1.4-.9,5.2,5.2,0,0,1-1-1.1,2.3,2.3,0,0,1-.4-1.4V56.2a3.2,3.2,0,0,1,.3-1.4,4.7,4.7,0,0,1,1-1,3.8,3.8,0,0,1,1.3-.9l1.5-.6,1.5-.4,1.3-.3a26.2,26.2,0,0,1,7.9,0l1.3.3,1.5.4,1.6.6a5.1,5.1,0,0,1,1.3.9,2.8,2.8,0,0,1,.9,1,2.3,2.3,0,0,1,.4,1.4v9.6a7,7,0,0,0-2-.8V59.1a8.8,8.8,0,0,1-2,.9l-2.3.7-2.4.3H28.2l-2.3-.3L23.6,60a7.2,7.2,0,0,1-2-.9Zm8.9-20.7h-2l-2.3.3-2.2.6a7.7,7.7,0,0,0-1.8,1l-.4.5a.8.8,0,0,0,0,1.1l.4.4a7.7,7.7,0,0,0,1.8,1l2.2.6,2.3.3h4l2.3-.3,2.2-.6,1.8-1c.1-.2.3-.3.4-.4a.8.8,0,0,0,0-1.1l-.4-.5-1.8-1-2.2-.6-2.3-.3ZM43,71a4.9,4.9,0,0,1,1.7.6,4.1,4.1,0,0,1,1.3,1,3.8,3.8,0,0,1,.9,1.5,4.7,4.7,0,0,1,.3,1.7,4.1,4.1,0,0,1-.4,1.9,4.4,4.4,0,0,1-1,1.6,5.4,5.4,0,0,1-1.6,1,4.3,4.3,0,0,1-1.9.4H31.4A5.9,5.9,0,0,1,27.2,79a5,5,0,0,1-1.3-1.9,6.1,6.1,0,0,1,0-4.6,5.7,5.7,0,0,1,3.2-3.1,5.9,5.9,0,0,1,2.3-.4l1.4.2a5.3,5.3,0,0,1,2-1.6,6.4,6.4,0,0,1,4.3-.3A5.6,5.6,0,0,1,42,69.4,3.9,3.9,0,0,1,43,71Zm-.7,7.8,1.2-.2.9-.6a3,3,0,0,0,.1-4.2h-.1a1.8,1.8,0,0,0-.9-.6,2.7,2.7,0,0,0-1.2-.3h-1a3.7,3.7,0,0,0-.3-1.5,5.7,5.7,0,0,0-.8-1.3,3.5,3.5,0,0,0-1.3-.8,2.2,2.2,0,0,0-1.6-.3,2.5,2.5,0,0,0-1.2.1,3.3,3.3,0,0,0-1,.6,3.6,3.6,0,0,0-1.5,1.9,3.8,3.8,0,0,0-5,.5,2.7,2.7,0,0,0-.9,1.2,4.2,4.2,0,0,0,0,3.1,4.2,4.2,0,0,0,3.7,2.4Z"/><use width="49.9" height="49.94" transform="matrix(0.64, 0, 0, -0.64, 58.02, 81.94)" xlink:href="#a"/><rect x="625.4" y="24" width="30.5" height="16.45" fill="#fff"/><path d="M657.2,20.3a.6.6,0,0,0-.5-.6H624.8a.6.6,0,0,0-.6.6h0V40.2a.6.6,0,0,0,.6.6h31.9a.6.6,0,0,0,.5-.6Zm-28.5,3.1h-1.6V21.8h1.6Zm3.3,0h-1.6V21.8H632Zm3.3,0h-1.6V21.8h1.6Zm-9.9,1.3H656V39.5H625.4Z"/><path d="M146.3,64.3l-.6-1.4,1.5-.7a3.7,3.7,0,0,1,0-2.1l-1.5-.6.6-1.5,1.5.6a5.4,5.4,0,0,1,1.5-1.5l-.6-1.5,1.4-.6.7,1.5h2.1l.6-1.5,1.5.6-.6,1.5a5.4,5.4,0,0,1,1.5,1.5l1.5-.6.6,1.5-1.5.6a7.4,7.4,0,0,1,0,2.1l1.5.7-.6,1.4-1.5-.6a5.4,5.4,0,0,1-1.5,1.5l.6,1.5-1.5.6-.6-1.5h-2.1l-.7,1.5-1.4-.6.6-1.5a8,8,0,0,1-1.5-1.5Zm6.8-.2,1-.7a2.1,2.1,0,0,0,.6-1,2.7,2.7,0,0,0,.3-1.2,2.4,2.4,0,0,0-.3-1.2,1.7,1.7,0,0,0-.6-1,3,3,0,0,0-1-.7,2.8,2.8,0,0,0-1.3-.3,2.7,2.7,0,0,0-1.2.3,2.3,2.3,0,0,0-1,.7,2.6,2.6,0,0,0-.7,1,2.3,2.3,0,0,0-.2,1.2,2.5,2.5,0,0,0,.2,1.2,3.6,3.6,0,0,0,.7,1l1,.7a2.7,2.7,0,0,0,1.2.3,2.8,2.8,0,0,0,1.3-.3Zm-18.6,4.4-1.7-.7.6-1.4,1.7.7a6.4,6.4,0,0,1,2-2l-.7-1.7,1.4-.6.7,1.7h2.8l.7-1.7,1.5.6-.7,1.7a6.1,6.1,0,0,1,1.9,2l1.7-.7.6,1.4-1.7.7a5,5,0,0,1,0,2.8l1.7.7-.6,1.5-1.7-.7a5.2,5.2,0,0,1-2,1.9l.8,1.7L142,77l-.7-1.7-1.4.2-1.4-.2-.6,1.7-1.5-.6.7-1.7a7.3,7.3,0,0,1-2-1.9l-1.7.7-.6-1.5,1.7-.7a6.1,6.1,0,0,1-.1-1.4A7.1,7.1,0,0,1,134.5,68.5Zm7,5a5,5,0,0,0,1.2-.8,3.8,3.8,0,0,0,.9-1.3,4,4,0,0,0,.3-1.5,4.1,4.1,0,0,0-.3-1.6,5.3,5.3,0,0,0-2.1-2.1,4.1,4.1,0,0,0-1.6-.3,4,4,0,0,0-1.5.3,3.8,3.8,0,0,0-1.3.9,5,5,0,0,0-.8,1.2,3.2,3.2,0,0,0,0,3.1,5.7,5.7,0,0,0,.8,1.3,5.7,5.7,0,0,0,1.3.8,4,4,0,0,0,1.5.3,3,3,0,0,0,1.6-.2Z" fill="#0078d7"/><path d="M273,55H262V77h11Z" fill="#50e6ff"/><path d="M262,60.8h-5.2V71.2H262Z" fill="#0078d4"/><path d="M267.2,60.8H262V71.2h5.2Z" fill="#0078d4"/><path d="M255.6,72.4H251V77h4.6Z" fill="#0078d4"/><path d="M504.3,144.9a.6.6,0,0,1-.6-.6h0c0-.2,0-.4.2-.5l.4-.2.5.2a.8.8,0,0,1,.2.5.7.7,0,0,1-.7.6Z" fill="#1e1e1e"/><path d="M510.2,144.9a.6.6,0,0,1-.5-.2l-.2-.4a.8.8,0,0,1,.2-.5c.3-.2.7-.3.9,0h.1a.6.6,0,0,1,0,.9A.6.6,0,0,1,510.2,144.9Z" fill="#1e1e1e"/><path d="M516.1,144.9c-.2,0-.4,0-.5-.2l-.2-.4a.8.8,0,0,1,.2-.5l.5-.2a.8.8,0,0,1,.7.7.5.5,0,0,1-.3.4C516.4,144.9,516.3,144.9,516.1,144.9Z" fill="#1e1e1e"/><path d="M13.2,35.1V26.6h3.1a4.1,4.1,0,0,1,2.1.5,1.8,1.8,0,0,1,.3,2.7,2.6,2.6,0,0,1-1.1.7h0a2.3,2.3,0,0,1,1.4.7,1.7,1.7,0,0,1,.5,1.3,2.2,2.2,0,0,1-.8,1.9,3.7,3.7,0,0,1-2.3.7ZM15.1,28v2h.8a1.7,1.7,0,0,0,1-.3,1,1,0,0,0,.3-.8c0-.6-.5-.9-1.4-.9Zm0,3.4v2.3h1a1.8,1.8,0,0,0,1.1-.3,1.2,1.2,0,0,0,.3-.9,1.1,1.1,0,0,0-.3-.8,1.8,1.8,0,0,0-1.1-.3Z"/><path d="M25.8,35.1H24v-.9h0a1.9,1.9,0,0,1-1.8,1,2,2,0,0,1-1.4-.5,1.9,1.9,0,0,1-.5-1.3c0-1.2.7-1.9,2.1-2l1.6-.3c0-.6-.3-.9-1.1-.9a3.6,3.6,0,0,0-2,.6V29.4L22,29h1.2a2.3,2.3,0,0,1,2.6,2.6ZM24,32.6v-.4H22.9q-.9.2-.9.9a.8.8,0,0,0,.2.5l.6.2a1,1,0,0,0,.9-.4A1.2,1.2,0,0,0,24,32.6Z"/><path d="M36.1,35.1H27.2V29h1.9v4.8h1.6V29h1.9v4.8h1.6V29h1.9Z"/><path d="M43.6,35.1H41.9v-4l-.4.9-2.1,3.1H37.6V29h1.7v3.9a5.6,5.6,0,0,1,.5-.8l2-3.1h1.8Z"/><path d="M54.9,37.3H53.4V35.1h-4v2.2H47.9V33.8h.5A9.6,9.6,0,0,0,49.7,29H54v4.8h.9Zm-2.8-3.5V30.3h-.9a8.3,8.3,0,0,1-1,3.5Z"/><path d="M61,35.1H59.3v-.9h-.1a1.9,1.9,0,0,1-1.7,1,2,2,0,0,1-1.4-.5,1.5,1.5,0,0,1-.5-1.3,1.9,1.9,0,0,1,2-2l1.7-.3c0-.6-.4-.9-1.1-.9a3.6,3.6,0,0,0-2,.6V29.4l1-.4h1.3c1.7,0,2.5.8,2.5,2.6Zm-1.7-2.5v-.4H58.2q-.9.2-.9.9a.8.8,0,0,0,.2.5.8.8,0,0,0,.6.2,1.1,1.1,0,0,0,.9-.4A1.2,1.2,0,0,0,59.3,32.6Z"/><path d="M68.3,35.1H66.5V32.5H64.4v2.6H62.5V29h1.9v2.3h2.1V29h1.8Z"/><path d="M75.7,35.1H73.8V32.5h-2v2.6H69.9V29h1.9v2.3h2V29h1.9Z"/><path d="M77.3,35.1V29h1.8v2.1h1.6a2.5,2.5,0,0,1,1.6.5,1.8,1.8,0,0,1,.6,1.4,2.1,2.1,0,0,1-2.1,2.1Zm1.8-2.8v1.6H80c.7,0,1-.3,1-.8s-.3-.8-.9-.8Zm6.4,2.8H83.7V29h1.8Z"/><path d="M92.5,32.6H88.6c.1.9.6,1.3,1.6,1.3a3.5,3.5,0,0,0,1.8-.5v1.4a4.8,4.8,0,0,1-2.2.4,2.9,2.9,0,0,1-2.2-.8,2.9,2.9,0,0,1-.9-2.3,2.9,2.9,0,0,1,.9-2.3,2.9,2.9,0,0,1,2.2-.9,2.4,2.4,0,0,1,2,.8,2.8,2.8,0,0,1,.7,2.1Zm-1.7-1.2c0-.8-.4-1.3-1-1.3a1.2,1.2,0,0,0-.8.4,1.8,1.8,0,0,0-.4.9Z"/><path d="M180,35h-2.2l-2.2-3.3a.8.8,0,0,1-.2-.5h-.1V35h-1.7V27.3h1.7v3.6h.1l.2-.4,2.1-3.2h2.1L177.1,31Z"/><path d="M183.1,35.1a3.1,3.1,0,0,1-2.2-.7,3,3,0,0,1-.8-2.1,3.3,3.3,0,0,1,.8-2.2,3.3,3.3,0,0,1,2.3-.7,2.8,2.8,0,0,1,2.1.7,3,3,0,0,1,.8,2.1,2.8,2.8,0,0,1-3,2.9Zm0-4.4a1,1,0,0,0-.9.4,1.8,1.8,0,0,0-.3,1.1c0,1.1.4,1.6,1.2,1.6s1.3-.5,1.3-1.6S183.9,30.7,183.1,30.7Z"/><path d="M190.8,30.8h-1.9V35h-1.7V29.5h3.6Z"/><path d="M197,35h-1.7V32.7h-1.9V35h-1.7V29.5h1.7v2h1.9v-2H197Z"/><path d="M203.9,35h-1.5V31.4l-.5.8L200,35h-1.6V29.5H200V33a1.6,1.6,0,0,1,.4-.7l1.8-2.8h1.7Z"/><path d="M209.4,30.8H208V35h-1.7V30.8h-1.5V29.5h4.6Z"/><path d="M215.8,35h-1.5V31.4l-.5.8L211.9,35h-1.6V29.5h1.6V33a1.6,1.6,0,0,1,.4-.7l1.8-2.8h1.7Z"/><path d="M217.2,35V29.5h3.1c1.3,0,2,.4,2,1.3a1.4,1.4,0,0,1-.3.9,2,2,0,0,1-.8.4,1.4,1.4,0,0,1,1.3,1.3,1.4,1.4,0,0,1-.6,1.1,2,2,0,0,1-1.4.5Zm1.7-4.5v1.2h.9c.5,0,.7-.2.7-.6s-.2-.6-.7-.6Zm0,2.2v1.2h1c.5,0,.8-.2.8-.6s-.3-.6-.8-.6Z"/><path d="M228.9,35h-1.7V32.7h-1.9V35h-1.7V29.5h1.7v2h1.9v-2h1.7Z"/><path d="M230.3,35V29.5H232v1.9h1.5a2,2,0,0,1,1.4.5,1.5,1.5,0,0,1,.6,1.3,1.6,1.6,0,0,1-.6,1.3,2,2,0,0,1-1.4.5Zm1.7-2.5v1.4h.9c.5,0,.8-.2.8-.7s-.3-.7-.8-.7Zm5.9,2.5h-1.7V29.5h1.7Z"/><path d="M244.8,35h-1.6V31.4c-.1.3-.3.5-.4.8L240.9,35h-1.6V29.5h1.6V33l.3-.7,1.9-2.8h1.7Zm-.4-8.1a1.8,1.8,0,0,1-.8,1.3,2.1,2.1,0,0,1-1.6.5,2.4,2.4,0,0,1-1.6-.5,1.6,1.6,0,0,1-.6-1.3H241a1.1,1.1,0,0,0,.3.7l.8.2.7-.2a1.1,1.1,0,0,0,.3-.7Z"/><path d="M254.5,35h-1.7V30.7h-1.9V35h-1.7V29.5h5.3Z"/><path d="M258.6,35.1a3.1,3.1,0,0,1-2.2-.7,3,3,0,0,1-.8-2.1,2.8,2.8,0,0,1,3.1-2.9,2.8,2.8,0,0,1,2.1.7,3,3,0,0,1,.8,2.1,2.9,2.9,0,0,1-.8,2.1A2.7,2.7,0,0,1,258.6,35.1Zm0-4.4a1,1,0,0,0-.9.4,1.8,1.8,0,0,0-.3,1.1c0,1.1.4,1.6,1.2,1.6s1.3-.5,1.3-1.6S259.4,30.7,258.6,30.7Z"/><path d="M268.2,35h-1.6V31.4l-.4.8L264.3,35h-1.6V29.5h1.5V33l.4-.7,1.9-2.8h1.7Z"/><path d="M273.8,34.8a4,4,0,0,1-1.7.3,3.1,3.1,0,0,1-2.1-.7,2.7,2.7,0,0,1-.7-2,2.6,2.6,0,0,1,.8-2.2,3,3,0,0,1,2.3-.8l1.4.2v1.5a1.9,1.9,0,0,0-1.2-.4,1.4,1.4,0,0,0-1.6,1.6,1.4,1.4,0,0,0,1.5,1.5,2.2,2.2,0,0,0,1.3-.4Z"/><path d="M280.4,35h-2.1l-1.7-2.7h0V35h-1.7V29.5h1.7v2.6h0l1.7-2.6h2l-2,2.6Z"/><path d="M291,35h-1.9l-.5-1.7h-2.8l-.5,1.7h-1.9l2.8-7.7h2.1Zm-2.8-3-.9-2.6c0-.2-.1-.5-.1-.7h0c-.1.2-.1.4-.2.6l-.8,2.7Z"/><path d="M296.1,35h-4.9v-.7l2.8-3.5h-2.5V29.5h4.6v.8l-2.6,3.4h2.6Z"/><path d="M302.3,35h-1.7v-.8h0a2.1,2.1,0,0,1-1.7.9c-1.3,0-1.9-.7-1.9-2.3V29.5h1.7v3.2c0,.7.3,1.1.9,1.1a.9.9,0,0,0,.7-.3,1.2,1.2,0,0,0,.3-.9V29.5h1.7Z"/><path d="M307.3,31h-.7a1,1,0,0,0-.9.4,1.6,1.6,0,0,0-.3,1.1V35h-1.7V29.5h1.7v1h0a1.6,1.6,0,0,1,1.5-1.1h.4Z"/><path d="M313,32.7h-3.6a1.3,1.3,0,0,0,1.5,1.2,2.9,2.9,0,0,0,1.6-.4v1.2a4,4,0,0,1-2,.4,2.4,2.4,0,0,1-2-.7,3.2,3.2,0,0,1,0-4.2,2.4,2.4,0,0,1,2-.8,2.1,2.1,0,0,1,1.8.7A2.5,2.5,0,0,1,313,32Zm-1.6-1q0-1.2-.9-1.2a.9.9,0,0,0-.7.3,1.8,1.8,0,0,0-.4.9Z"/><path d="M151.9,81.3h-1.6V75.8h0l-.4.7-3.1,4.8h-1.7V73.6h1.6v4.3a2.5,2.5,0,0,1-.1,1h.1l.4-.6,3-4.7h1.8Z"/><path d="M158.8,81.3h-1.7V79h-1.9v2.3h-1.7V75.8h1.7v2h1.9v-2h1.7Z"/><path d="M165.9,83.3h-1.3v-2h-3.7v2h-1.3V80.1h.4a8.4,8.4,0,0,0,1.3-4.3h3.8v4.3h.8Zm-2.5-3.2V77h-.8a7.5,7.5,0,0,1-.9,3.1Z"/><path d="M171.8,79h-3.5q0,1.2,1.5,1.2a2.4,2.4,0,0,0,1.5-.4V81a3.6,3.6,0,0,1-1.9.4,2.5,2.5,0,0,1-2.8-2.8,2.9,2.9,0,0,1,.8-2.1,2.4,2.4,0,0,1,1.9-.8,2.5,2.5,0,0,1,1.9.7,2.9,2.9,0,0,1,.6,1.9Zm-1.5-1c0-.8-.4-1.2-1-1.2a.8.8,0,0,0-.7.4,1.1,1.1,0,0,0-.3.8Z"/><path d="M178.3,81.3h-2.1l-1.7-2.7h0v2.7h-1.7V75.8h1.7v2.6h0l1.7-2.6h2l-2,2.6Z"/><path d="M182.9,81.1a4,4,0,0,1-1.7.3,2.7,2.7,0,0,1-2-.7,2.8,2.8,0,0,1-.8-2,3.1,3.1,0,0,1,.8-2.2,3,3,0,0,1,2.3-.8l1.4.2v1.5a1.9,1.9,0,0,0-1.2-.4,1.6,1.6,0,0,0-1.2.4,2.1,2.1,0,0,0-.4,1.2,1.8,1.8,0,0,0,.4,1.1,1.5,1.5,0,0,0,1.1.4,2,2,0,0,0,1.3-.4Z"/><path d="M189.4,81.3h-1.5V77.7a5.6,5.6,0,0,1-.5.8l-1.8,2.8H184V75.8h1.5v3.5a2.5,2.5,0,0,1,.4-.7l1.8-2.8h1.7Z"/><path d="M192.5,80.7h0v3.1h-1.7v-8h1.7v.8h0a2,2,0,0,1,1.8-.9,1.9,1.9,0,0,1,1.6.7,3.2,3.2,0,0,1,.6,2,3.6,3.6,0,0,1-.7,2.2,2.1,2.1,0,0,1-1.8.8A1.6,1.6,0,0,1,192.5,80.7Zm0-2.3v.5a1.6,1.6,0,0,0,.3.9.9.9,0,0,0,.7.3,1,1,0,0,0,.9-.4,2.3,2.3,0,0,0,.3-1.3c0-.9-.3-1.4-1.1-1.4a.9.9,0,0,0-.8.4A1.5,1.5,0,0,0,192.5,78.4Z"/><path d="M200.2,81.4a2.9,2.9,0,0,1-2.2-.7,2.9,2.9,0,0,1-.8-2.1,3.3,3.3,0,0,1,.8-2.2,3.8,3.8,0,0,1,4.4,0,3,3,0,0,1,.7,2.1,2.7,2.7,0,0,1-2.9,2.9Zm0-4.4a1,1,0,0,0-.9.4,2.1,2.1,0,0,0-.4,1.2c0,1,.5,1.5,1.3,1.5s1.2-.5,1.2-1.6S201,77,200.2,77Z"/><path d="M204.2,81.3V75.8h3.1c1.3,0,1.9.5,1.9,1.3a1.4,1.4,0,0,1-.3.9l-.8.4a1.8,1.8,0,0,1,1,.4,1.2,1.2,0,0,1,.3.9,1.7,1.7,0,0,1-.5,1.2,2.4,2.4,0,0,1-1.5.4Zm1.7-4.5V78h.8c.5,0,.8-.2.8-.6s-.2-.6-.7-.6Zm0,2.2v1.2h1c.5,0,.8-.2.8-.6s-.3-.6-.9-.6Z"/><path d="M215.1,81.3h-1.6v-.8h0a1.9,1.9,0,0,1-1.7.9,1.6,1.6,0,0,1-1.2-.4,1.7,1.7,0,0,1-.5-1.2c0-1.1.7-1.7,1.9-1.9l1.5-.2c0-.6-.3-.9-1-.9a3.2,3.2,0,0,0-1.8.6V76.1l.9-.3h1.1a2.1,2.1,0,0,1,2.4,2.3Zm-1.6-2.2v-.4h-1c-.5.1-.8.4-.8.8a.6.6,0,0,0,.2.5h.5a1,1,0,0,0,1.1-1.1Z"/><path d="M221.7,81.3H220V79h-1.9v2.3h-1.7V75.8h1.7v2H220v-2h1.7Z"/><path d="M228.5,81.3H227V77.7a5.6,5.6,0,0,1-.5.8l-1.8,2.8h-1.6V75.8h1.5v3.5a2.5,2.5,0,0,1,.4-.7l1.8-2.8h1.7Z"/><path d="M234.8,79h-3.6a1.3,1.3,0,0,0,1.5,1.2,2.7,2.7,0,0,0,1.6-.4V81a3.6,3.6,0,0,1-1.9.4,2.5,2.5,0,0,1-2.8-2.8,2.5,2.5,0,0,1,.8-2.1,2.2,2.2,0,0,1,1.9-.8,2.1,2.1,0,0,1,1.8.7,2.5,2.5,0,0,1,.7,1.9Zm-1.6-1q0-1.2-.9-1.2a.8.8,0,0,0-.7.4,2,2,0,0,0-.4.8Z"/><path d="M159.4,50.2h-.9V43.9h-3.6v6.3h-.8v-7h5.3Z"/><path d="M162.9,50.3a2.1,2.1,0,0,1-1.8-.7,2.9,2.9,0,0,1-.7-1.9,2.7,2.7,0,0,1,.7-1.9,2.5,2.5,0,0,1,1.9-.7,2.4,2.4,0,0,1,1.7.6,3,3,0,0,1,.7,2,3.2,3.2,0,0,1-.7,1.9A2.9,2.9,0,0,1,162.9,50.3Zm0-4.6a1.4,1.4,0,0,0-1.2.6,2.7,2.7,0,0,0,0,2.8,1.7,1.7,0,0,0,2.4,0,2,2,0,0,0,.4-1.4,2.4,2.4,0,0,0-.4-1.5A1.7,1.7,0,0,0,162.9,45.7Z"/><path d="M170.7,52H170V50.2h-3.7V52h-.7V49.5h.5a8.7,8.7,0,0,0,1.3-4.3H170v4.3h.7Zm-1.5-2.5V45.8H168a6.7,6.7,0,0,1-1.1,3.7Z"/><path d="M174.9,49.9a2.1,2.1,0,0,1-1.4.4,2.2,2.2,0,0,1-1.7-.7,2.8,2.8,0,0,1-.6-1.8,2.7,2.7,0,0,1,.7-2,2.4,2.4,0,0,1,1.9-.7,2,2,0,0,1,1.1.2v.8a2.5,2.5,0,0,0-1.2-.4,1.4,1.4,0,0,0-1.2.6,1.6,1.6,0,0,0-.5,1.4,2,2,0,0,0,.4,1.4,2.1,2.1,0,0,0,1.3.5,1.9,1.9,0,0,0,1.2-.4Z"/><path d="M180,50.2h-.7v-4a1.6,1.6,0,0,0-.3.6l-2.3,3.4h-.9v-5h.8v3.9c0-.1.1-.2.2-.5l2.4-3.4h.8Z"/><path d="M184.7,49.9a1.8,1.8,0,0,1-1.3.4,2.4,2.4,0,0,1-1.8-.7,2.8,2.8,0,0,1-.6-1.8,2.7,2.7,0,0,1,.7-2,2.5,2.5,0,0,1,1.9-.7,2.5,2.5,0,0,1,1.2.2v.8a2.8,2.8,0,0,0-1.2-.4,1.5,1.5,0,0,0-1.3.6,2.2,2.2,0,0,0,0,2.8,1.7,1.7,0,0,0,1.2.5,1.7,1.7,0,0,0,1.2-.4Z"/><path d="M188.8,45.9h-1.5v4.3h-.8V45.9H185v-.7h3.8Z"/><path d="M193.5,47.9h-3.6a2.5,2.5,0,0,0,.5,1.3,1.6,1.6,0,0,0,1.2.4,2.7,2.7,0,0,0,1.5-.5v.7a2.9,2.9,0,0,1-1.7.5,2.1,2.1,0,0,1-1.7-.7,2.7,2.7,0,0,1-.6-1.9,2.5,2.5,0,0,1,.7-1.9,2,2,0,0,1,1.6-.7,1.8,1.8,0,0,1,1.5.6,2.4,2.4,0,0,1,.6,1.8Zm-.8-.7a2.8,2.8,0,0,0-.4-1.1,1.3,1.3,0,0,0-.9-.4,1.8,1.8,0,0,0-1,.4,2.1,2.1,0,0,0-.4,1.1Z"/><path d="M199.8,50.2H199V46l-.3,1-1.3,3.2h-.7L195.4,47a4.1,4.1,0,0,1-.3-1v4.2h-.7v-5h1l1.3,3.2.4,1,.3-.9,1.3-3.3h1.1Z"/><path d="M201.1,50.2v-5h.8v1.9h1.4a1.6,1.6,0,0,1,1.2.4,1.4,1.4,0,0,1,.4,1.1,1.6,1.6,0,0,1-.4,1.2,2.1,2.1,0,0,1-1.2.4Zm.8-2.4v1.7h1.2c.7,0,1-.3,1-.9s-.3-.8-1-.8Zm4.7,2.4h-.8v-5h.8Z"/><path d="M214.5,50.2h-.7v-4a1.6,1.6,0,0,0-.3.6l-2.3,3.4h-.9v-5h.8v3.9c0-.1.1-.2.2-.5l2.4-3.4h.8Z"/><path d="M220,50.2h-.8V47.9h-2.6v2.3h-.8v-5h.8v2h2.6v-2h.8Z"/><path d="M225.7,52H225V50.2h-3.7V52h-.7V49.5h.4a7.1,7.1,0,0,0,1.3-4.3h2.6v4.3h.8Zm-1.6-2.5V45.8H223a7.6,7.6,0,0,1-1.1,3.7Z"/><path d="M230.5,47.9H227a1.8,1.8,0,0,0,.4,1.3,1.6,1.6,0,0,0,1.2.4,3,3,0,0,0,1.6-.5v.7a3.5,3.5,0,0,1-1.8.5,1.9,1.9,0,0,1-1.6-.7,2.4,2.4,0,0,1-.7-1.9,2.9,2.9,0,0,1,.7-1.9,2.1,2.1,0,0,1,1.7-.7,2,2,0,0,1,1.5.6,3,3,0,0,1,.5,1.8Zm-.8-.7a1.8,1.8,0,0,0-.3-1.1,1.8,1.8,0,0,0-1-.4,1.5,1.5,0,0,0-.9.4,1.6,1.6,0,0,0-.5,1.1Z"/><path d="M235.6,50.2h-1.2l-2.2-2.4h0v2.4h-.8v-5h.8v2.3h0l2.1-2.3h1.1l-2.3,2.4Z"/><path d="M239.5,49.9a2.1,2.1,0,0,1-1.4.4,2.1,2.1,0,0,1-1.7-.7,2.9,2.9,0,0,1-.7-1.8,2.8,2.8,0,0,1,.8-2,2.3,2.3,0,0,1,1.8-.7,2.2,2.2,0,0,1,1.2.2v.8a2.8,2.8,0,0,0-1.2-.4,1.4,1.4,0,0,0-1.2.6,1.6,1.6,0,0,0-.5,1.4,2,2,0,0,0,.4,1.4,1.7,1.7,0,0,0,1.3.5,1.9,1.9,0,0,0,1.2-.4Z"/><path d="M244.6,50.2h-.7v-4l-.4.6-2.3,3.4h-.8v-5h.7v3.9a1.1,1.1,0,0,0,.3-.5l2.4-3.4h.8Z"/><path d="M246.7,49.4h0v3.1h-.8V45.2h.8V46h0a2.2,2.2,0,0,1,3.3-.3,3.5,3.5,0,0,1,.5,1.8,3,3,0,0,1-.6,2,2.1,2.1,0,0,1-1.7.8A1.8,1.8,0,0,1,246.7,49.4Zm0-2v.7a2.1,2.1,0,0,0,.4,1.1,1.3,1.3,0,0,0,1,.4,1.7,1.7,0,0,0,1.2-.5,2.5,2.5,0,0,0,.4-1.6,1.8,1.8,0,0,0-.4-1.3,1.2,1.2,0,0,0-1-.5,1.7,1.7,0,0,0-1.2.5A2.1,2.1,0,0,0,246.7,47.4Z"/><path d="M253.6,50.3a2.3,2.3,0,0,1-1.8-.7,2.9,2.9,0,0,1-.6-1.9,2.7,2.7,0,0,1,.6-1.9,2.5,2.5,0,0,1,1.9-.7,2.6,2.6,0,0,1,1.8.6,3,3,0,0,1,.6,2,2.4,2.4,0,0,1-2.5,2.6Zm0-4.6a1.4,1.4,0,0,0-1.2.6,2.6,2.6,0,0,0,0,2.8,1.7,1.7,0,0,0,1.2.5,1.4,1.4,0,0,0,1.2-.5,2,2,0,0,0,.5-1.4,2.5,2.5,0,0,0-.5-1.5A1.4,1.4,0,0,0,253.6,45.7Z"/><path d="M257.1,50.2v-5h2.1a2.1,2.1,0,0,1,1.2.3,1,1,0,0,1,.4.9,1.2,1.2,0,0,1-.9,1.2c.7.1,1.1.5,1.1,1.1a1.3,1.3,0,0,1-.5,1.1,2.1,2.1,0,0,1-1.1.4Zm.8-4.3v1.4h1.2c.6,0,.9-.3.9-.8s-.3-.6-.8-.6Zm0,2v1.6h1.3c.7,0,1-.3,1-.8s-.3-.8-1.1-.8Z"/><path d="M265.6,50.2h-.8v-.8h0a1.6,1.6,0,0,1-1.5.9,1.6,1.6,0,0,1-1.2-.4,1.4,1.4,0,0,1-.4-1.1c0-.9.5-1.4,1.6-1.6l1.5-.2c0-.8-.3-1.3-1-1.3a2.5,2.5,0,0,0-1.6.6v-.8a3.1,3.1,0,0,1,1.7-.4c1.1,0,1.7.6,1.7,1.8Zm-.8-2.6-1.2.2-.8.3c-.2.1-.3.3-.3.7a.9.9,0,0,0,.3.6l.7.2a1,1,0,0,0,.9-.4,1.4,1.4,0,0,0,.4-1.1Z"/><path d="M271,50.2h-.8V47.9h-2.6v2.3h-.8v-5h.8v2h2.6v-2h.8Z"/><path d="M276.5,50.2h-.7v-4a1.6,1.6,0,0,0-.3.6l-2.4,3.4h-.8v-5h.7v3.9a1.1,1.1,0,0,0,.3-.5l2.4-3.4h.8Z"/><path d="M281.2,50.2h-.8V48.1h-.6c-.3,0-.6.3-.9.8l-.7,1.3h-.9l.9-1.6a1.6,1.6,0,0,1,.7-.7,1.3,1.3,0,0,1-.9-.4,1.2,1.2,0,0,1-.3-.9,1.2,1.2,0,0,1,.4-1,2.1,2.1,0,0,1,1.4-.4h1.7Zm-.8-2.8V45.9h-.9c-.7,0-1,.2-1,.7s.3.8,1,.8Z"/><path d="M289.2,50.2h-.7v-4l-.4.6-2.3,3.4H285v-5h.7v3.9l.3-.5,2.4-3.4h.8Z"/><path d="M292.5,50v-.8a2.9,2.9,0,0,0,1.6.4c.8,0,1.3-.3,1.3-.8s-.5-.9-1.5-.9h-.5v-.6h.5c.9,0,1.3-.3,1.3-.8a.7.7,0,0,0-.3-.6l-.8-.2a4.2,4.2,0,0,0-1.5.4v-.7a3.4,3.4,0,0,1,1.5-.4c1.3,0,1.9.5,1.9,1.4a.9.9,0,0,1-.3.7,1.1,1.1,0,0,1-.8.5h0a1,1,0,0,1,.9.4.9.9,0,0,1,.4.8,1.3,1.3,0,0,1-.6,1.1,2.2,2.2,0,0,1-1.5.4A3.5,3.5,0,0,1,292.5,50Z"/><path d="M300.7,50.2h-.8v-.8h0a1.8,1.8,0,0,1-1.6.9,1.2,1.2,0,0,1-1.1-.4,1.4,1.4,0,0,1-.5-1.1c0-.9.6-1.4,1.7-1.6l1.5-.2c0-.8-.4-1.3-1.1-1.3a2.5,2.5,0,0,0-1.6.6v-.8a3.3,3.3,0,0,1,1.7-.4,1.6,1.6,0,0,1,1.8,1.8Zm-.8-2.6-1.2.2-.9.3c-.2.1-.2.3-.2.7a.7.7,0,0,0,.2.6l.7.2a1.3,1.3,0,0,0,1-.4,1.4,1.4,0,0,0,.4-1.1Z"/><path d="M306,50.2h-.8V45.9h-2.5v4.3h-.8v-5H306Z"/><path d="M308.2,49.4h0v3.1h-.8V45.2h.8V46h0a2,2,0,0,1,1.7-.9,1.8,1.8,0,0,1,1.5.6,2.8,2.8,0,0,1,.6,1.8,3,3,0,0,1-.6,2,2.3,2.3,0,0,1-1.7.8A1.6,1.6,0,0,1,308.2,49.4Zm0-2v.7a1.5,1.5,0,0,0,.4,1.1,1.2,1.2,0,0,0,1,.4,1.3,1.3,0,0,0,1.1-.5,2.5,2.5,0,0,0,.4-1.6,2.5,2.5,0,0,0-.3-1.3,1.6,1.6,0,0,0-1.1-.5,1.4,1.4,0,0,0-1.1.5A1.6,1.6,0,0,0,308.2,47.4Z"/><path d="M315,50.3a2.1,2.1,0,0,1-1.7-.7,2.5,2.5,0,0,1-.7-1.9,2.4,2.4,0,0,1,.7-1.9,2.3,2.3,0,0,1,1.8-.7,2.4,2.4,0,0,1,1.8.6,3,3,0,0,1,.6,2,2.6,2.6,0,0,1-.7,1.9A2.5,2.5,0,0,1,315,50.3Zm.1-4.6a1.4,1.4,0,0,0-1.2.6,2.2,2.2,0,0,0,0,2.8,1.7,1.7,0,0,0,2.4,0,2,2,0,0,0,.4-1.4,2.4,2.4,0,0,0-.4-1.5A1.7,1.7,0,0,0,315.1,45.7Z"/><path d="M321.9,49.9a2.1,2.1,0,0,1-1.4.4,2.2,2.2,0,0,1-1.7-.7,2.8,2.8,0,0,1-.6-1.8,2.7,2.7,0,0,1,.7-2,2.4,2.4,0,0,1,1.9-.7,2,2,0,0,1,1.1.2v.8a2.8,2.8,0,0,0-1.2-.4,1.4,1.4,0,0,0-1.2.6,1.6,1.6,0,0,0-.5,1.4,2,2,0,0,0,.4,1.4,1.9,1.9,0,0,0,1.3.5,1.9,1.9,0,0,0,1.2-.4Z"/><path d="M324.9,50.3a2.4,2.4,0,0,1-1.8-.7,2.9,2.9,0,0,1-.6-1.9,2.4,2.4,0,0,1,.7-1.9,2.1,2.1,0,0,1,1.8-.7,2.4,2.4,0,0,1,1.8.6,3,3,0,0,1,.6,2,2.6,2.6,0,0,1-.7,1.9A2.5,2.5,0,0,1,324.9,50.3Zm.1-4.6a1.6,1.6,0,0,0-1.3.6,2,2,0,0,0-.4,1.4,1.6,1.6,0,0,0,.5,1.4,1.7,1.7,0,0,0,2.4,0,2.6,2.6,0,0,0,.4-1.4,3.3,3.3,0,0,0-.4-1.5A1.7,1.7,0,0,0,325,45.7Z"/><path d="M328.4,50.2v-5h2.2a2,2,0,0,1,1.1.3,1,1,0,0,1,.4.9,1.2,1.2,0,0,1-.9,1.2c.8.1,1.1.5,1.1,1.1a1.5,1.5,0,0,1-.4,1.1,2.1,2.1,0,0,1-1.2.4Zm.8-4.3v1.4h1.2c.6,0,.9-.3.9-.8s-.2-.6-.8-.6Zm0,2v1.6h1.4c.6,0,.9-.3.9-.8s-.3-.8-1.1-.8Z"/><path d="M385.2,29.6V27.9a3.7,3.7,0,0,0,2.3.7c1.1,0,1.6-.4,1.6-1.1s-.6-1.2-1.8-1.2h-1.1V24.9h1.1c1,0,1.6-.3,1.6-1.1s-.5-1-1.4-1a4.1,4.1,0,0,0-2,.6V21.9a6,6,0,0,1,2.4-.5,3.6,3.6,0,0,1,2.2.6,1.7,1.7,0,0,1,.7,1.5,1.9,1.9,0,0,1-1.6,2h0a2.2,2.2,0,0,1,1.4.6,2.1,2.1,0,0,1,.5,1.3,2.3,2.3,0,0,1-.9,1.9,4.7,4.7,0,0,1-2.6.7A5.4,5.4,0,0,1,385.2,29.6Z"/><path d="M397.4,29.9h-1.8v-.8h0a2.1,2.1,0,0,1-1.8,1,2,2,0,0,1-1.4-.5,2.2,2.2,0,0,1-.5-1.4c0-1.1.7-1.8,2.1-2l1.6-.2a.9.9,0,0,0-1-1,3.8,3.8,0,0,0-2.1.7V24.3l1.1-.4h1.2c1.7,0,2.6.8,2.6,2.5Zm-1.8-2.4v-.4h-1.1c-.6.1-.9.4-.9.8a.8.8,0,0,0,.2.5.7.7,0,0,0,.6.2,1.2,1.2,0,0,0,.9-.3A1.4,1.4,0,0,0,395.6,27.5Z"/><path d="M404.8,29.9h-1.9V25.2h-2.1v4.7h-1.9v-6h5.9Z"/><path d="M408.2,29.2h0v3.5h-1.9V23.9h1.9v.9h0a2.2,2.2,0,0,1,2-1,2.2,2.2,0,0,1,1.8.8,3.4,3.4,0,0,1,.7,2.2,4.1,4.1,0,0,1-.8,2.4,2.5,2.5,0,0,1-2,.9A2,2,0,0,1,408.2,29.2Zm0-2.4v.4a1.8,1.8,0,0,0,.3,1.1,1.2,1.2,0,0,0,.9.3,1.3,1.3,0,0,0,1-.4,2.9,2.9,0,0,0,.3-1.4c0-1.1-.4-1.6-1.2-1.6a1.3,1.3,0,0,0-1,.4A2.1,2.1,0,0,0,408.2,26.8Z"/><path d="M416.8,30.1a3.2,3.2,0,0,1-2.4-.9,2.9,2.9,0,0,1-.9-2.3,3.2,3.2,0,0,1,.9-2.3,3.7,3.7,0,0,1,2.5-.8,3.2,3.2,0,0,1,2.3.8,2.9,2.9,0,0,1,.9,2.2,3.1,3.1,0,0,1-3.3,3.3Zm0-4.9a1.2,1.2,0,0,0-1,.4,1.8,1.8,0,0,0-.4,1.3c0,1.2.5,1.7,1.4,1.7s1.4-.5,1.4-1.7S417.7,25.2,416.8,25.2Z"/><path d="M425.9,29.7a4,4,0,0,1-1.8.4,3,3,0,0,1-2.3-.9,2.7,2.7,0,0,1-.9-2.1,3.1,3.1,0,0,1,1-2.4,3.3,3.3,0,0,1,2.5-.9,2.8,2.8,0,0,1,1.5.3v1.5a2,2,0,0,0-1.3-.4,1.9,1.9,0,0,0-1.3.5,1.7,1.7,0,0,0-.5,1.2,1.7,1.7,0,0,0,.5,1.3,1.6,1.6,0,0,0,1.2.4,2.3,2.3,0,0,0,1.4-.4Z"/><path d="M427.1,29.9v-6H429V26h1.6a2.5,2.5,0,0,1,1.6.5,1.7,1.7,0,0,1,.6,1.4,2,2,0,0,1-.6,1.5,2.3,2.3,0,0,1-1.5.5Zm1.9-2.7v1.5h.9c.7,0,1-.2,1-.8s-.3-.7-.9-.7Zm6.5,2.7h-1.9v-6h1.9Z"/><path d="M502.2,35V26.6h3.1a4.5,4.5,0,0,1,2.2.5,1.8,1.8,0,0,1,.7,1.5,1.9,1.9,0,0,1-.4,1.2,3.5,3.5,0,0,1-1.2.7h0a2.1,2.1,0,0,1,1.4.7,1.6,1.6,0,0,1,.6,1.3,2,2,0,0,1-.9,1.8,3.2,3.2,0,0,1-2.3.7Zm1.9-7v2h.8a1.7,1.7,0,0,0,1-.3,1,1,0,0,0,.3-.8c0-.6-.5-.9-1.4-.9Zm0,3.4v2.2h1a1.8,1.8,0,0,0,1.1-.3,1.2,1.2,0,0,0,.4-.8,1,1,0,0,0-.4-.8,1.8,1.8,0,0,0-1.1-.3Z"/><path d="M514.8,35h-1.7v-.9H513a1.9,1.9,0,0,1-1.8,1,2.1,2.1,0,0,1-1.4-.4,2.2,2.2,0,0,1-.5-1.4c0-1.1.7-1.8,2.1-2l1.7-.2a1,1,0,0,0-1.1-1,3.5,3.5,0,0,0-2.1.7V29.4L511,29h1.2c1.8,0,2.6.8,2.6,2.5Zm-1.7-2.4v-.4H512c-.6.1-.9.4-.9.8s0,.4.2.5.3.2.6.2a1.6,1.6,0,0,0,.9-.3A1.6,1.6,0,0,0,513.1,32.6Z"/><path d="M525.2,35h-8.9V29h1.9v4.7h1.6V29h1.9v4.7h1.6V29h1.9Z"/><path d="M532.3,32.5h-4c.1.9.6,1.3,1.7,1.3a3.3,3.3,0,0,0,1.7-.4v1.3a4.6,4.6,0,0,1-2.2.4,2.7,2.7,0,0,1-2.2-.8,2.7,2.7,0,0,1-.9-2.2,3.2,3.2,0,0,1,.9-2.4,3.3,3.3,0,0,1,2.2-.8,2.4,2.4,0,0,1,2,.7,3.3,3.3,0,0,1,.8,2.2Zm-1.8-1.1c0-.9-.3-1.3-1-1.3a.9.9,0,0,0-.8.4,1.3,1.3,0,0,0-.4.9Z"/><path d="M542.6,35h-1.9V30.3h-2.1V35h-1.9V29h5.9Z"/><path d="M546.1,34.3h0v3.5h-1.9V29h1.9v.9h0a2.1,2.1,0,0,1,1.9-1,2.2,2.2,0,0,1,1.9.8,3.3,3.3,0,0,1,.6,2.1,3.6,3.6,0,0,1-.7,2.4,2.5,2.5,0,0,1-2,.9A1.8,1.8,0,0,1,546.1,34.3Zm-.1-2.4v.4a1.2,1.2,0,0,0,.4,1,.9.9,0,0,0,.8.4c.5,0,.8-.1,1-.5a1.7,1.7,0,0,0,.4-1.3c0-1.1-.4-1.6-1.3-1.6a1.1,1.1,0,0,0-.9.4A2.1,2.1,0,0,0,546,31.9Z"/><path d="M557.8,35h-1.7V31.1l-.5.8L553.5,35h-1.8V29h1.7v3.8l.5-.7,2-3.1h1.9Z"/><path d="M565.1,35h-1.9V30.3h-1a10.6,10.6,0,0,1-1,3.8,2.1,2.1,0,0,1-1.8,1h-.7V33.7h.4c.4,0,.7-.3.9-1a16.1,16.1,0,0,0,.7-3.8h4.4Z"/><path d="M569.6,35.1a3.2,3.2,0,0,1-2.4-.8,3.4,3.4,0,0,1,0-4.6,3.7,3.7,0,0,1,2.5-.8,3.2,3.2,0,0,1,2.3.8,2.9,2.9,0,0,1,.9,2.2,3.2,3.2,0,0,1-.9,2.4A3.2,3.2,0,0,1,569.6,35.1Zm0-4.8a1.2,1.2,0,0,0-1,.4,2.5,2.5,0,0,0-.4,1.3c0,1.2.5,1.7,1.4,1.7s1.4-.6,1.4-1.7S570.5,30.3,569.6,30.3Z"/><path d="M583.4,35h-2.2l-2-3h0v3h-1.8V32h-.1l-1.9,3h-2.2l2.3-3.1L573.2,29h2.2l1.9,2.9h.1V29h1.8v2.9h0l1.9-2.9h2.2l-2.2,2.9Z"/><path d="M589.5,32.5h-4c.1.9.7,1.3,1.7,1.3a3.4,3.4,0,0,0,1.8-.4v1.3a4.8,4.8,0,0,1-2.2.4,2.8,2.8,0,0,1-2.3-.8,2.6,2.6,0,0,1-.8-2.2,3.2,3.2,0,0,1,.9-2.4,3,3,0,0,1,2.1-.8,2.8,2.8,0,0,1,2.1.7,3.2,3.2,0,0,1,.7,2.2Zm-1.7-1.1c0-.9-.4-1.3-1.1-1.3a.9.9,0,0,0-.8.4,1.9,1.9,0,0,0-.4.9Z"/><path d="M596.5,35h-1.9V32.5h-2.1V35h-1.9V29h1.9v2.2h2.1V29h1.9Z"/><path d="M604.1,35h-1.7V31.1a5.6,5.6,0,0,1-.5.8L599.8,35h-1.7V29h1.7v3.8a1.6,1.6,0,0,1,.4-.7l2.1-3.1h1.8Z"/><path d="M611.2,32.5h-4c.1.9.6,1.3,1.7,1.3a3.3,3.3,0,0,0,1.7-.4v1.3a4.6,4.6,0,0,1-2.2.4,2.8,2.8,0,0,1-3.1-3,3.2,3.2,0,0,1,.9-2.4,3.3,3.3,0,0,1,2.2-.8,2.6,2.6,0,0,1,2,.7,3.3,3.3,0,0,1,.8,2.2Zm-1.8-1.1c0-.9-.3-1.3-1-1.3a.9.9,0,0,0-.8.4,1.3,1.3,0,0,0-.4.9Z"/><path d="M371.9,46.4h-.8a7.4,7.4,0,0,1-1.8-5.1,7.8,7.8,0,0,1,1.8-5.2h.8a8,8,0,0,0-1.8,5.2A7.6,7.6,0,0,0,371.9,46.4Z"/><path d="M379.1,44.5H378l-1.4-2.3a1.3,1.3,0,0,0-.4-.6l-.3-.4-.4-.2h-1.3v3.6h-.9V36.1h3.4l.8.5a1.8,1.8,0,0,1,.5.7,2.4,2.4,0,0,1,.2.9,2.9,2.9,0,0,1-.2.9c0,.2-.2.4-.3.6l-.6.5-.7.3h0l.3.3.3.2.3.4.3.5ZM374.2,37v3.1h1.3l.7-.2a.5.5,0,0,0,.5-.3.9.9,0,0,0,.3-.5,1.4,1.4,0,0,0,.2-.7,1.2,1.2,0,0,0-.5-1c-.2-.3-.6-.4-1.2-.4Z"/><path d="M384.7,44.5h-4.3V36.1h4.1V37h-3.2v2.8h3v.9h-3v2.9h3.4Z"/><path d="M386.1,44.2V43l.4.3.6.3h1.1a1.7,1.7,0,0,0,1.3-.4,1.1,1.1,0,0,0,.5-.9.8.8,0,0,0-.2-.6l-.4-.5a1.5,1.5,0,0,0-.6-.4l-.7-.4-.8-.4-.7-.5a4.3,4.3,0,0,1-.4-.7,1.9,1.9,0,0,1-.1-.8,1.6,1.6,0,0,1,.2-1l.6-.7.9-.4h1.1a3.4,3.4,0,0,1,1.7.3v1.1a2.7,2.7,0,0,0-1.8-.5h-.6l-.6.2c-.2.1-.3.3-.4.4a1.8,1.8,0,0,0,0,1.2l.3.4.6.4.7.4.8.5a2.6,2.6,0,0,1,1.2,1.2,1.9,1.9,0,0,1,.2.8,2,2,0,0,1-.3,1.1,1.9,1.9,0,0,1-.6.7l-.9.4h-2.7Z"/><path d="M397.5,37h-2.3v7.5h-.9V37h-2.4v-.9h5.6Z"/><path d="M407.1,44.5h-.8V39.7a4.3,4.3,0,0,0-.4.7l-2.7,4.1h-.9v-6h.8v4.8a.9.9,0,0,1,.3-.6l2.7-4.2h1Z"/><path d="M413.4,44.5h-.9V39.3h-1.4a10.8,10.8,0,0,1-.8,4.1q-.6,1.2-1.5,1.2h-.5v-.8h.4c.9,0,1.4-1.8,1.6-5.3h3.1Z"/><path d="M420.3,44.5h-.9V39.7c0,.2-.2.4-.3.7l-2.7,4.1h-1v-6h.9v4.8a.9.9,0,0,1,.3-.6l2.7-4.2h1Z"/><path d="M426,44.7l-.4-.2c-.1-.2-.2-.3-.2-.5s.1-.3.2-.5l.4-.2.5.2c.1.2.2.3.2.5s-.1.3-.2.5Z"/><path d="M435.1,44.5h-1.2l-4.2-6.7c-.1-.2-.2-.3-.2-.5h-.1a3.1,3.1,0,0,1,.1,1.1v6.1h-1V36.1h1.3l4,6.6.3.6h.1a4.5,4.5,0,0,1-.1-1.3V36.1h1Z"/><path d="M441.7,44.5h-4.3V36.1h4.1V37h-3.2v2.8h2.9v.9h-2.9v2.9h3.4Z"/><path d="M448.2,37h-2.3v7.5h-1V37h-2.3v-.9h5.6Z"/><path d="M449.6,46.4h-.9a7.6,7.6,0,0,0,1.8-5.1,8,8,0,0,0-1.8-5.2h.9a8.3,8.3,0,0,1,1.7,5.2A7.8,7.8,0,0,1,449.6,46.4Z"/><path d="M481.1,59.1h-.7V53.3l-.3.2-.3.3-.5.2h-.4v-.7l.5-.2.5-.3.5-.3.4-.3h.3Z"/><path d="M483.5,59.2l-.3-.2-.2-.3a.5.5,0,0,1,.2-.4l.3-.2.4.2c.1.1.1.2.1.4a.4.4,0,0,1-.1.3Z"/><path d="M491.6,58.8a2.9,2.9,0,0,1-1.7.4,2.8,2.8,0,0,1-2.2-.9,3.2,3.2,0,0,1-.8-2.4,3.7,3.7,0,0,1,.9-2.6,3.3,3.3,0,0,1,2.3-1,3.3,3.3,0,0,1,1.5.3v.8a3.3,3.3,0,0,0-1.5-.4,2.5,2.5,0,0,0-1.8.8,3.2,3.2,0,0,0-.7,2,3,3,0,0,0,.7,2,2.1,2.1,0,0,0,1.7.7,2.7,2.7,0,0,0,1.6-.4Z"/><path d="M494.5,59.2a2.1,2.1,0,0,1-1.7-.7,2.4,2.4,0,0,1-.6-1.7,2.9,2.9,0,0,1,.7-1.9,2.4,2.4,0,0,1,1.7-.7,2,2,0,0,1,1.6.7,3,3,0,0,1,.5,1.8,2.4,2.4,0,0,1-.6,1.8A1.9,1.9,0,0,1,494.5,59.2Zm0-4.3a1.2,1.2,0,0,0-1.1.5,1.8,1.8,0,0,0-.4,1.3,2.1,2.1,0,0,0,.4,1.4,1.5,1.5,0,0,0,2.2,0,2,2,0,0,0,.4-1.4,1.7,1.7,0,0,0-.4-1.3A1.2,1.2,0,0,0,494.5,54.9Z"/><path d="M501.1,52v.7l-.5.2-1.4.3a1.2,1.2,0,0,0-.7.7,2.3,2.3,0,0,0-.3,1.3h0a1.9,1.9,0,0,1,1.5-.8,2.1,2.1,0,0,1,1.5.7,3.1,3.1,0,0,1,0,3.4,1.9,1.9,0,0,1-1.6.7,1.9,1.9,0,0,1-1.6-.8,3.4,3.4,0,0,1-.6-2.2,10.1,10.1,0,0,1,.2-1.9,3.4,3.4,0,0,1,.6-1.2l.8-.5,1.5-.4A.8.8,0,0,0,501.1,52Zm-2.9,4v.7a2,2,0,0,0,.1.7.9.9,0,0,0,.3.6.8.8,0,0,0,.4.4l.6.2a1.2,1.2,0,0,0,1-.5,1.6,1.6,0,0,0,.4-1.2,1.7,1.7,0,0,0-.4-1.3,1.4,1.4,0,0,0-1-.5A1.4,1.4,0,0,0,498.2,56Z"/><path d="M506.5,59.1h-.7V55.3a1.6,1.6,0,0,0-.3.6l-2.1,3.2h-.8V54.3h.7v3.8a1.7,1.7,0,0,1,.2-.5l2.2-3.3h.8Z"/><path d="M508.4,58.4h0v2.9h-.7v-7h.7v.9h0a1.7,1.7,0,0,1,1.6-1,1.6,1.6,0,0,1,1.4.7,3.8,3.8,0,0,1-.1,3.6,1.8,1.8,0,0,1-1.5.7A1.6,1.6,0,0,1,508.4,58.4Zm0-1.9v.7a1.4,1.4,0,0,0,.4,1,1.3,1.3,0,0,0,.9.4,1.1,1.1,0,0,0,1-.6,2,2,0,0,0,.4-1.4,2.3,2.3,0,0,0-.3-1.3,1.3,1.3,0,0,0-1-.4,1.2,1.2,0,0,0-1,.4A1.6,1.6,0,0,0,508.4,56.5Z"/><path d="M516,59.1h-.7v-.8h0a1.6,1.6,0,0,1-1.4.9,1.2,1.2,0,0,1-1.1-.4,1.2,1.2,0,0,1-.4-1q0-1.3,1.5-1.5l1.4-.2c0-.8-.3-1.2-1-1.2a2.4,2.4,0,0,0-1.5.6v-.8a3,3,0,0,1,1.6-.5c1.1,0,1.6.6,1.6,1.8Zm-.7-2.4h-1.1l-.8.3c-.2.1-.2.4-.2.7s0,.4.2.5a.7.7,0,0,0,.6.3,1.3,1.3,0,0,0,.9-.4,1.3,1.3,0,0,0,.4-1Z"/><path d="M520.8,56.9h-3.2a1.6,1.6,0,0,0,.4,1.2,1.2,1.2,0,0,0,1,.5,2.2,2.2,0,0,0,1.5-.6v.7a2.2,2.2,0,0,1-1.6.5,2.1,2.1,0,0,1-1.6-.6,3.6,3.6,0,0,1-.5-1.9,2.8,2.8,0,0,1,.6-1.8,2.1,2.1,0,0,1,1.5-.7,1.7,1.7,0,0,1,1.4.6,2.9,2.9,0,0,1,.5,1.7Zm-.8-.6a1.8,1.8,0,0,0-.3-1.1,1.1,1.1,0,0,0-.8-.3,1,1,0,0,0-.9.4,1.3,1.3,0,0,0-.4,1Z"/><path d="M524.5,55h-1.4v4.1h-.7V55H521v-.7h3.5Z"/><path d="M527.3,59.1V54.3h2a1.2,1.2,0,0,1,1,.4.8.8,0,0,1,.4.8,1,1,0,0,1-.8,1.1,1,1,0,0,1,1,1.1,1.3,1.3,0,0,1-.4,1,1.5,1.5,0,0,1-1.1.4ZM528,55v1.3h1.1c.6,0,.9-.2.9-.7s-.3-.6-.8-.6Zm0,2v1.4h1.3c.6,0,.9-.2.9-.7s-.4-.7-1-.7Z"/><path d="M531.9,59.1V54.3h1.9a1.4,1.4,0,0,1,1.1.4.8.8,0,0,1,.4.8,1,1,0,0,1-.9,1.1c.7.1,1.1.5,1.1,1.1a1.4,1.4,0,0,1-.5,1,1.3,1.3,0,0,1-1,.4Zm.7-4.1v1.3h1.1c.6,0,.9-.2.9-.7s-.3-.6-.8-.6Zm0,2v1.4h1.2c.6,0,.9-.2.9-.7s-.3-.7-1-.7Z"/><path d="M540.1,56.9h-3.2a1.6,1.6,0,0,0,.4,1.2,1.2,1.2,0,0,0,1,.5,2.2,2.2,0,0,0,1.5-.6v.7a2.2,2.2,0,0,1-1.6.5,1.8,1.8,0,0,1-1.5-.6,2.9,2.9,0,0,1-.6-1.9,2.8,2.8,0,0,1,.6-1.8,2.1,2.1,0,0,1,1.5-.7,1.7,1.7,0,0,1,1.4.6,2.9,2.9,0,0,1,.5,1.7Zm-.8-.6a1.8,1.8,0,0,0-.3-1.1,1.1,1.1,0,0,0-.8-.3,1,1,0,0,0-.9.4,1.3,1.3,0,0,0-.4,1Z"/><path d="M544.9,60.8h-.6V59.1h-3.4v1.7h-.7V58.4h.5a7.6,7.6,0,0,0,1.1-4.1h2.4v4.1h.7Zm-1.4-2.4V55h-1a7.6,7.6,0,0,1-1.1,3.4Z"/><path d="M549.3,56.9h-3.2a1.6,1.6,0,0,0,.4,1.2,1.3,1.3,0,0,0,1.1.5A2.2,2.2,0,0,0,549,58v.7a2.2,2.2,0,0,1-1.6.5,1.8,1.8,0,0,1-1.5-.6,2.9,2.9,0,0,1-.6-1.9,2.8,2.8,0,0,1,.6-1.8,2.1,2.1,0,0,1,1.5-.7,1.7,1.7,0,0,1,1.4.6,2.9,2.9,0,0,1,.5,1.7Zm-.8-.6a1.8,1.8,0,0,0-.3-1.1,1,1,0,0,0-.8-.3,1.1,1.1,0,0,0-.9.4,1.3,1.3,0,0,0-.4,1Z"/><path d="M553.9,59.1h-.7V56.9h-2.4v2.2h-.7V54.3h.7v2h2.4v-2h.7Z"/><path d="M558.9,59.1h-.7V56.9h-2.4v2.2h-.7V54.3h.7v2h2.4v-2h.7Z"/><path d="M560.1,59.1V54.3h.7v1.9h1.3a2,2,0,0,1,1.1.3,2.1,2.1,0,0,1,.4,1.1,1.8,1.8,0,0,1-.4,1.1,1.5,1.5,0,0,1-1.1.4Zm.7-2.3v1.6h1.1c.6,0,.9-.2.9-.8s-.3-.8-.9-.8Zm4.3,2.3h-.7V54.3h.7Z"/><path d="M570,56.9h-3.3a2.1,2.1,0,0,0,.4,1.2,1.6,1.6,0,0,0,1.1.5,2,2,0,0,0,1.4-.6v.7a2.1,2.1,0,0,1-1.6.5,2,2,0,0,1-1.5-.6,3.6,3.6,0,0,1-.5-1.9,2.8,2.8,0,0,1,.6-1.8,2.1,2.1,0,0,1,1.5-.7,1.8,1.8,0,0,1,1.4.6,2.9,2.9,0,0,1,.5,1.7Zm-.8-.6a1.8,1.8,0,0,0-.3-1.1,1.1,1.1,0,0,0-.8-.3,1,1,0,0,0-.9.4c-.3.2-.4.5-.5,1Z"/><path d="M576.8,59.1h-.7V55h-2.4v4.1H573V54.3h3.8Z"/><path d="M579.9,59.2a1.9,1.9,0,0,1-1.6-.7,2.4,2.4,0,0,1-.6-1.7,2.9,2.9,0,0,1,.6-1.9,2.4,2.4,0,0,1,1.7-.7,1.9,1.9,0,0,1,1.6.7,3,3,0,0,1,0,3.6A2.2,2.2,0,0,1,579.9,59.2Zm.1-4.3a1.3,1.3,0,0,0-1.2.5,2.5,2.5,0,0,0-.4,1.3,2.9,2.9,0,0,0,.4,1.4,1.7,1.7,0,0,0,1.2.5,1.2,1.2,0,0,0,1-.5,2,2,0,0,0,.4-1.4,1.7,1.7,0,0,0-.4-1.3A1,1,0,0,0,580,54.9Z"/><path d="M586.4,59.1h-.7V55h-1.1a9.5,9.5,0,0,1-.6,3.2c-.3.6-.7,1-1.2,1h-.4v-.7h.3c.7,0,1.1-1.4,1.3-4.2h2.4Z"/><path d="M587.6,59.1V54.3h.7v1.9h1.3a2,2,0,0,1,1.1.3,2.1,2.1,0,0,1,.4,1.1,1.8,1.8,0,0,1-.4,1.1,1.5,1.5,0,0,1-1.1.4Zm.7-2.3v1.6h1.1c.6,0,.9-.2.9-.8s-.3-.8-.9-.8Z"/><path d="M591.5,59v-.8a3.3,3.3,0,0,0,1.4.4c.8,0,1.2-.3,1.2-.8s-.4-.8-1.3-.8h-.4v-.7h.4c.8,0,1.2-.2,1.2-.7a.5.5,0,0,0-.3-.5.8.8,0,0,0-.7-.2,3.5,3.5,0,0,0-1.4.3v-.7l1.4-.3c1.1,0,1.7.4,1.7,1.3a.9.9,0,0,1-.3.7c-.1.2-.4.3-.7.4h0l.9.4a1.1,1.1,0,0,1,.3.8,1.2,1.2,0,0,1-.5,1,2.1,2.1,0,0,1-1.4.4Z"/><path d="M597.6,59.2a1.9,1.9,0,0,1-1.6-.7,2.4,2.4,0,0,1-.6-1.7,2.9,2.9,0,0,1,.6-1.9,2.4,2.4,0,0,1,1.7-.7,1.9,1.9,0,0,1,1.6.7,3,3,0,0,1,0,3.6A2.1,2.1,0,0,1,597.6,59.2Zm.1-4.3c-.5,0-.9.1-1.1.5a1.9,1.9,0,0,0-.5,1.3,2.2,2.2,0,0,0,.5,1.4,1.3,1.3,0,0,0,1.1.5,1.6,1.6,0,0,0,1.1-.5,2.6,2.6,0,0,0,.3-1.4,2.3,2.3,0,0,0-.3-1.3A1.3,1.3,0,0,0,597.7,54.9Z"/><path d="M600.8,59.1V54.3h2a1.2,1.2,0,0,1,1,.4.8.8,0,0,1,.4.8,1,1,0,0,1-.9,1.1c.7.1,1.1.5,1.1,1.1a1.8,1.8,0,0,1-.4,1,1.5,1.5,0,0,1-1.1.4Zm.7-4.1v1.3h1.1c.6,0,.9-.2.9-.7s-.3-.6-.8-.6Zm0,2v1.4h1.3c.6,0,.9-.2.9-.7s-.4-.7-1-.7Z"/><path d="M608.6,59.1h-.7v-.8h0a1.6,1.6,0,0,1-1.4.9,1.2,1.2,0,0,1-1.1-.4,1.2,1.2,0,0,1-.4-1q0-1.3,1.5-1.5l1.4-.2c0-.8-.3-1.2-1-1.2a2.4,2.4,0,0,0-1.5.6v-.8a3,3,0,0,1,1.6-.5c1.1,0,1.6.6,1.6,1.8Zm-.7-2.4h-1.1l-.8.3a.8.8,0,0,0-.3.7.5.5,0,0,0,.3.5.7.7,0,0,0,.6.3,1.3,1.3,0,0,0,.9-.4,1.3,1.3,0,0,0,.4-1Z"/><path d="M612.6,55h-1.4v4.1h-.7V55h-1.4v-.7h3.5Z"/><path d="M616.8,56.9h-3.2a2.1,2.1,0,0,0,.4,1.2,1.4,1.4,0,0,0,1.1.5,2,2,0,0,0,1.4-.6v.7a2.1,2.1,0,0,1-1.6.5,2,2,0,0,1-1.5-.6,2.9,2.9,0,0,1-.5-1.9,2.8,2.8,0,0,1,.6-1.8,2.1,2.1,0,0,1,1.5-.7,1.5,1.5,0,0,1,1.3.6,2.3,2.3,0,0,1,.5,1.7Zm-.7-.6a1.8,1.8,0,0,0-.3-1.1,1.2,1.2,0,0,0-.9-.3.9.9,0,0,0-.8.4c-.3.2-.4.5-.5,1Z"/><path d="M621,59.1h-.7V55h-1.1a9.5,9.5,0,0,1-.6,3.2c-.3.6-.7,1-1.2,1H617v-.7h.3c.7,0,1.1-1.4,1.3-4.2H621Z"/><path d="M625.9,56.9h-3.3a2.2,2.2,0,0,0,.5,1.2,1.2,1.2,0,0,0,1,.5,2,2,0,0,0,1.4-.6v.7a2,2,0,0,1-1.5.5,2.1,2.1,0,0,1-1.6-.6,3.6,3.6,0,0,1-.5-1.9,2.8,2.8,0,0,1,.6-1.8,2.1,2.1,0,0,1,1.5-.7,1.8,1.8,0,0,1,1.4.6,2.9,2.9,0,0,1,.5,1.7Zm-.8-.6a1.8,1.8,0,0,0-.3-1.1,1.1,1.1,0,0,0-.8-.3,1,1,0,0,0-.9.4,1.3,1.3,0,0,0-.4,1Z"/><path d="M631.6,59.1h-.7V55.2l-.3.8-1.1,3.1h-.7L627.6,56a2.7,2.7,0,0,0-.3-.8v3.9h-.6V54.3h.9l1.2,3.1a6.9,6.9,0,0,0,.4,1l.3-.9,1.1-3.2h1Z"/><path d="M639,60.8h-.6V59.1H635v1.7h-.6V58.4h.4a6.9,6.9,0,0,0,1.2-4.1h2.3v4.1h.7Zm-1.4-2.4V55h-1a7.5,7.5,0,0,1-1,3.4Z"/><path d="M643,59.1h-.7v-.8h0a1.5,1.5,0,0,1-1.4.9,1.4,1.4,0,0,1-1.1-.4,1.2,1.2,0,0,1-.4-1q0-1.3,1.5-1.5l1.4-.2q0-1.2-.9-1.2a2,2,0,0,0-1.5.6v-.8a2.5,2.5,0,0,1,1.5-.5c1.1,0,1.6.6,1.6,1.8Zm-.7-2.4h-1.1l-.8.3a1.2,1.2,0,0,0-.2.7c0,.2,0,.4.2.5a.9.9,0,0,0,.6.3,1.3,1.3,0,0,0,.9-.4,1.3,1.3,0,0,0,.4-1Z"/><path d="M647.9,59.1h-.7V56.9h-2.3v2.2h-.8V54.3h.8v2h2.3v-2h.7Z"/><path d="M652.9,59.1h-.7V56.9h-2.4v2.2h-.7V54.3h.7v2h2.4v-2h.7Z"/><path d="M654.1,59.1V54.3h.7v1.9h1.3a2,2,0,0,1,1.1.3,2.1,2.1,0,0,1,.4,1.1,1.8,1.8,0,0,1-.4,1.1,1.5,1.5,0,0,1-1.1.4Zm.7-2.3v1.6h1.1c.6,0,.9-.2.9-.8s-.3-.8-.9-.8Zm4.3,2.3h-.7V54.3h.7Z"/><path d="M664,56.9h-3.3a2.2,2.2,0,0,0,.5,1.2,1.2,1.2,0,0,0,1,.5,2,2,0,0,0,1.4-.6v.7a2,2,0,0,1-1.5.5,2.1,2.1,0,0,1-1.6-.6,3.6,3.6,0,0,1-.5-1.9,2.8,2.8,0,0,1,.6-1.8,2.1,2.1,0,0,1,1.5-.7,1.8,1.8,0,0,1,1.4.6,2.9,2.9,0,0,1,.5,1.7Zm-.8-.6a1.8,1.8,0,0,0-.3-1.1,1.1,1.1,0,0,0-.8-.3,1,1,0,0,0-.9.4,1.3,1.3,0,0,0-.4,1Z"/><path d="M482.5,74.5c0-.2-.1-.3-.1-.5l-.3-.4-.3-.2h-1.3l-.4.3-.3.3v-.8l.7-.5h1.6l.6.3.4.6a1.9,1.9,0,0,1,.1.8,1.7,1.7,0,0,1-.1.7,1.4,1.4,0,0,1-.2.6,1.2,1.2,0,0,1-.5.5l-.6.6-.7.5c-.2.2-.4.3-.5.5a.5.5,0,0,0-.2.4.7.7,0,0,0-.1.5h3.2v.6h-4v-.3c0-.3.1-.5.1-.7l.3-.7.5-.5a7.1,7.1,0,0,1,.9-.7l.5-.5.4-.5a.8.8,0,0,0,.2-.5A.7.7,0,0,0,482.5,74.5Z"/><path d="M484.7,79.5h-.4c-.1-.1-.1-.2-.1-.4a.4.4,0,0,1,.1-.3l.4-.2.3.2.2.3a.5.5,0,0,1-.2.4Z"/><path d="M492.8,79.2a4.8,4.8,0,0,1-1.8.4,3,3,0,0,1-2.2-1,3.6,3.6,0,0,1-.8-2.4,3.5,3.5,0,0,1,.9-2.5,3.1,3.1,0,0,1,2.4-1,3.3,3.3,0,0,1,1.5.3v.8a2.8,2.8,0,0,0-1.5-.4,2.1,2.1,0,0,0-1.8.7,3,3,0,0,0-.7,2.1,2.9,2.9,0,0,0,.6,1.9,2.3,2.3,0,0,0,1.7.8,3.1,3.1,0,0,0,1.7-.5Z"/><path d="M495.6,79.6a2.2,2.2,0,0,1-1.6-.7,2.6,2.6,0,0,1-.6-1.8,2.4,2.4,0,0,1,.6-1.8,2.2,2.2,0,0,1,1.7-.7,2.1,2.1,0,0,1,1.6.6,2.8,2.8,0,0,1,.6,1.8,2.9,2.9,0,0,1-.6,1.9A2.4,2.4,0,0,1,495.6,79.6Zm.1-4.4a1.3,1.3,0,0,0-1.1.5,2.1,2.1,0,0,0-.4,1.4,1.7,1.7,0,0,0,.4,1.3,1.3,1.3,0,0,0,1.1.5,1.3,1.3,0,0,0,1.1-.5,2.3,2.3,0,0,0,.3-1.3,2.6,2.6,0,0,0-.3-1.4A1.6,1.6,0,0,0,495.7,75.2Z"/><path d="M501.9,79.2a2.8,2.8,0,0,1-1.3.4,2.1,2.1,0,0,1-1.5-.7,2.4,2.4,0,0,1-.6-1.7,2.9,2.9,0,0,1,.6-1.9,2.2,2.2,0,0,1,1.7-.7l1.1.2v.8a1.5,1.5,0,0,0-1.1-.4,1.6,1.6,0,0,0-1.1.5,2.2,2.2,0,0,0-.5,1.4,2.2,2.2,0,0,0,.4,1.3,1.3,1.3,0,0,0,1.2.5,1.7,1.7,0,0,0,1.1-.4Z"/><path d="M505.6,75.3h-1.4v4.1h-.7V75.3h-1.4v-.6h3.5Z"/><path d="M509.5,79.4h-.8v-.7h0a1.5,1.5,0,0,1-1.4.9,2.1,2.1,0,0,1-1.1-.4,1.7,1.7,0,0,1-.3-1c0-.9.5-1.4,1.5-1.6l1.3-.2q0-1.2-.9-1.2a2,2,0,0,0-1.5.6V75a2.6,2.6,0,0,1,1.5-.4c1.1,0,1.7.6,1.7,1.8Zm-.8-2.4-1.1.2a.8.8,0,0,0-.7.3.6.6,0,0,0-.3.6,1.1,1.1,0,0,0,.2.6l.7.2a1.2,1.2,0,0,0,.9-.4,1.5,1.5,0,0,0,.3-1Z"/><path d="M510.6,79.4V74.7h1.9a1.8,1.8,0,0,1,1.1.3,1,1,0,0,1,.4.9c0,.6-.3.9-.9,1.1s1.1.4,1.1,1.1a1.1,1.1,0,0,1-.5.9,1.2,1.2,0,0,1-1,.4Zm.7-4.1v1.4h1.1c.6,0,.9-.3.9-.7s-.3-.7-.8-.7Zm0,2v1.5h1.3a.7.7,0,0,0,.8-.8c0-.4-.3-.7-1-.7Z"/><path d="M518.4,79.4h-.7V75.3h-1a11.9,11.9,0,0,1-.7,3.3,1.4,1.4,0,0,1-1.2.9h-.4v-.6h.4c.6,0,1.1-1.4,1.2-4.2h2.4Z"/><path d="M522.8,79.4H522V77.5h-.6c-.3,0-.5.2-.8.7l-.6,1.2h-.8l.7-1.4a1.2,1.2,0,0,1,.7-.7,1,1,0,0,1-.8-.4,1.1,1.1,0,0,1-.3-.8,1.1,1.1,0,0,1,.4-1,1.7,1.7,0,0,1,1.3-.4h1.6Zm-.8-2.6V75.3h-.8c-.6,0-1,.3-1,.8s.3.7.9.7Z"/><path d="M527.6,77.3h-3.2a2.1,2.1,0,0,0,.4,1.2,1.4,1.4,0,0,0,1.1.4,2.4,2.4,0,0,0,1.4-.5v.7a2.5,2.5,0,0,1-1.6.5,2.1,2.1,0,0,1-1.5-.7,2.4,2.4,0,0,1-.6-1.8,2.1,2.1,0,0,1,.7-1.8,1.7,1.7,0,0,1,1.4-.7,1.7,1.7,0,0,1,1.4.6,2.2,2.2,0,0,1,.5,1.7Zm-.7-.7a1.5,1.5,0,0,0-.3-1,1,1,0,0,0-.9-.4.9.9,0,0,0-.8.4,1.9,1.9,0,0,0-.5,1Z"/><path d="M531.3,75.3H530v4.1h-.8V75.3h-1.4v-.6h3.5Z"/><path d="M538,79.4h-.7V75.7l-.3.5-2.1,3.2h-.8V74.7h.7v3.7c0-.1.1-.2.2-.4l2.2-3.3h.8Z"/><path d="M543.3,79.6a2.2,2.2,0,0,1-1.6-.7,2.6,2.6,0,0,1-.6-1.8,2.4,2.4,0,0,1,.6-1.8,2.1,2.1,0,0,1,1.7-.7,2.1,2.1,0,0,1,1.6.6,2.8,2.8,0,0,1,.6,1.8,2.9,2.9,0,0,1-.6,1.9A2.6,2.6,0,0,1,543.3,79.6Zm.1-4.4a1.7,1.7,0,0,0-1.2.5,2.9,2.9,0,0,0-.4,1.4,2.2,2.2,0,0,0,.4,1.3,1.7,1.7,0,0,0,1.2.5,1,1,0,0,0,1-.5,1.7,1.7,0,0,0,.4-1.3,2,2,0,0,0-.4-1.4A1.2,1.2,0,0,0,543.4,75.2Z"/><path d="M549.3,75.3H548v4.1h-.8V75.3h-1.3v-.6h3.4Z"/><path d="M553.7,79.4H553V75.3h-2.3v4.1h-.8V74.7h3.8Z"/><path d="M555.7,78.8h0v2.8h-.8V74.7h.8v.8h0a1.6,1.6,0,0,1,1.5-.9,1.7,1.7,0,0,1,1.4.6,2.3,2.3,0,0,1,.5,1.7,3.3,3.3,0,0,1-.5,1.9,1.9,1.9,0,0,1-1.6.8A1.4,1.4,0,0,1,555.7,78.8Zm0-2v.7a1.7,1.7,0,0,0,.3,1,1.3,1.3,0,0,0,1,.4,1.4,1.4,0,0,0,1-.5,3.3,3.3,0,0,0,.4-1.5,1.6,1.6,0,0,0-.4-1.2,1.1,1.1,0,0,0-.9-.5,1.4,1.4,0,0,0-1.1.5A2,2,0,0,0,555.7,76.8Z"/><path d="M563.3,79.4h-.8v-.7h0a1.5,1.5,0,0,1-1.4.9,1.5,1.5,0,0,1-1-.4,1.3,1.3,0,0,1-.4-1c0-.9.5-1.4,1.5-1.6l1.3-.2q0-1.2-.9-1.2a2.4,2.4,0,0,0-1.5.6V75a2.9,2.9,0,0,1,1.6-.4c1,0,1.6.6,1.6,1.8Zm-.8-2.4-1.1.2a.8.8,0,0,0-.7.3.6.6,0,0,0-.3.6.7.7,0,0,0,.3.6l.6.2a1,1,0,0,0,.9-.4,1.5,1.5,0,0,0,.3-1Z"/><path d="M564.4,79.4V74.7h2a1.5,1.5,0,0,1,1,.3,1,1,0,0,1,.4.9c0,.6-.3.9-.9,1.1s1.1.4,1.1,1.1a1.3,1.3,0,0,1-.4.9,1.5,1.5,0,0,1-1.1.4Zm.7-4.1v1.4h1.1c.6,0,.9-.3.9-.7s-.3-.7-.8-.7Zm0,2v1.5h1.3c.6,0,.9-.3.9-.8s-.4-.7-1-.7Z"/><path d="M572.3,79.4h-.8V75.3h-1a9.1,9.1,0,0,1-.7,3.3,1.1,1.1,0,0,1-1.1.9h-.4v-.6h.3c.7,0,1.1-1.4,1.3-4.2h2.4Z"/><path d="M576.6,79.4h-.8V77.5h-.6c-.3,0-.5.2-.8.7l-.6,1.2H573l.8-1.4a1.1,1.1,0,0,1,.6-.7,1.2,1.2,0,0,1-.8-.4,1.1,1.1,0,0,1-.3-.8,1.1,1.1,0,0,1,.5-1,1.5,1.5,0,0,1,1.2-.4h1.6Zm-.8-2.6V75.3H575c-.6,0-.9.3-.9.8s.3.7.9.7Z"/><path d="M581.4,77.3h-3.2a2.1,2.1,0,0,0,.4,1.2,1.5,1.5,0,0,0,1.1.4,2.4,2.4,0,0,0,1.4-.5v.7a2.5,2.5,0,0,1-1.6.5,2.1,2.1,0,0,1-1.5-.7,3.2,3.2,0,0,1,.1-3.6,1.8,1.8,0,0,1,1.5-.7,1.5,1.5,0,0,1,1.3.6,2.2,2.2,0,0,1,.5,1.7Zm-.7-.7a1.5,1.5,0,0,0-.3-1,.9.9,0,0,0-.8-.4,1,1,0,0,0-.9.4,1.9,1.9,0,0,0-.5,1Z"/><path d="M585.1,75.3h-1.3v4.1H583V75.3h-1.3v-.6h3.4Z"/><path d="M587.6,79.3v-.7a2.9,2.9,0,0,0,1.4.3c.8,0,1.2-.3,1.2-.8s-.5-.8-1.3-.8h-.5v-.6h.4c.8,0,1.2-.3,1.2-.8a.5.5,0,0,0-.3-.5l-.7-.2a2.2,2.2,0,0,0-1.3.4v-.7a3.5,3.5,0,0,1,1.4-.3c1.1,0,1.6.4,1.6,1.3a1.9,1.9,0,0,1-.2.7l-.7.4h0a1,1,0,0,1,1.1,1.1,1.4,1.4,0,0,1-.5,1.1,2.6,2.6,0,0,1-1.4.4A2.6,2.6,0,0,1,587.6,79.3Z"/><path d="M595,79.4h-.7v-.7h0a1.5,1.5,0,0,1-1.4.9,1.8,1.8,0,0,1-1.1-.4,1.3,1.3,0,0,1-.4-1c0-.9.5-1.4,1.5-1.6l1.4-.2c0-.8-.3-1.2-1-1.2a2,2,0,0,0-1.4.6V75a2.4,2.4,0,0,1,1.5-.4c1.1,0,1.6.6,1.6,1.8Zm-.7-2.4-1.1.2a1,1,0,0,0-.8.3c-.2.1-.2.3-.2.6s0,.4.2.6l.6.2a1,1,0,0,0,.9-.4,1.2,1.2,0,0,0,.4-1Z"/><path d="M599.9,79.4h-.7V75.3h-2.4v4.1h-.7V74.7h3.8Z"/><path d="M601.9,78.8h-.1v2.8h-.7V74.7h.7v.8h.1a1.6,1.6,0,0,1,1.5-.9,1.7,1.7,0,0,1,1.4.6,2.9,2.9,0,0,1,.5,1.7,2.7,2.7,0,0,1-.6,1.9,1.6,1.6,0,0,1-1.5.8A1.4,1.4,0,0,1,601.9,78.8Zm-.1-2v.7a1.8,1.8,0,0,0,.4,1,1.2,1.2,0,0,0,.9.4,1.4,1.4,0,0,0,1.1-.5,3.3,3.3,0,0,0,.4-1.5,2.1,2.1,0,0,0-.4-1.2,1.1,1.1,0,0,0-.9-.5,1.4,1.4,0,0,0-1.1.5A2.1,2.1,0,0,0,601.8,76.8Z"/><path d="M608.1,79.6a2.2,2.2,0,0,1-1.6-.7,2.6,2.6,0,0,1-.6-1.8,2.4,2.4,0,0,1,.6-1.8,2.1,2.1,0,0,1,1.7-.7,2.1,2.1,0,0,1,1.6.6,2.8,2.8,0,0,1,.6,1.8,2.9,2.9,0,0,1-.6,1.9A2.6,2.6,0,0,1,608.1,79.6Zm.1-4.4a1.7,1.7,0,0,0-1.2.5,2.9,2.9,0,0,0-.4,1.4,2.2,2.2,0,0,0,.4,1.3,1.7,1.7,0,0,0,1.2.5,1,1,0,0,0,1-.5,1.7,1.7,0,0,0,.4-1.3,2,2,0,0,0-.4-1.4A1.2,1.2,0,0,0,608.2,75.2Z"/><path d="M614.4,79.2a2.8,2.8,0,0,1-1.3.4,2.1,2.1,0,0,1-1.5-.7,2.4,2.4,0,0,1-.6-1.7,2.9,2.9,0,0,1,.6-1.9,2.1,2.1,0,0,1,1.7-.7l1.1.2v.8a1.7,1.7,0,0,0-2.3.1,2.1,2.1,0,0,0-.4,1.4,1.7,1.7,0,0,0,.4,1.3,1.3,1.3,0,0,0,1.2.5,1.9,1.9,0,0,0,1.1-.4Z"/><path d="M615.2,79.4V74.7h.7v1.8h1.3a1.5,1.5,0,0,1,1.1.4,1.6,1.6,0,0,1,.4,1.1,1.5,1.5,0,0,1-.4,1,1.5,1.5,0,0,1-1.1.4Zm.7-2.2v1.6H617c.6,0,.9-.3.9-.8s-.3-.8-.9-.8Zm4.3,2.2h-.7V74.7h.7Z"/><path d="M483.4,98.3a1.9,1.9,0,0,1-.2.8,1.6,1.6,0,0,1-.4.7l-.8.4h-.9a2.6,2.6,0,0,1-1.4-.3v-.9a2,2,0,0,0,1.5.6h.6l.4-.3c.2-.1.3-.2.3-.4a.7.7,0,0,0,.1-.5c0-.9-.6-1.3-1.8-1.3h-.5v-.7h.5c1.1,0,1.6-.4,1.6-1.2s-.4-1.1-1.2-1.1a1.7,1.7,0,0,0-1.3.5v-.8a3.3,3.3,0,0,1,1.5-.4l.7.2a.9.9,0,0,1,.6.3l.3.5a1.3,1.3,0,0,1,.1.6,1.6,1.6,0,0,1-1.2,1.7h0l.6.2.4.3.4.5C483.3,97.9,483.4,98.1,483.4,98.3Z"/><path d="M484.8,100.3c-.2,0-.3,0-.4-.2a.4.4,0,0,1-.1-.3c0-.2,0-.3.1-.4h.7a.5.5,0,0,1,.2.4c0,.1-.1.2-.2.3S484.9,100.3,484.8,100.3Z"/><path d="M491.1,100.3a2.9,2.9,0,0,1-2.2-.9,3.8,3.8,0,0,1-.8-2.4,3.6,3.6,0,0,1,.9-2.6,2.9,2.9,0,0,1,2.2-1,2.7,2.7,0,0,1,2.2,1,3.6,3.6,0,0,1,.8,2.4,3.7,3.7,0,0,1-.9,2.6A2.8,2.8,0,0,1,491.1,100.3Zm.1-6.2a2.3,2.3,0,0,0-1.7.8,3.6,3.6,0,0,0,0,4,2,2,0,0,0,1.6.7,2.1,2.1,0,0,0,1.7-.7,3,3,0,0,0,.6-2,2.8,2.8,0,0,0-.6-2A1.9,1.9,0,0,0,491.2,94.1Z"/><path d="M498.6,93.1v.7l-.6.2-1.4.3a1.2,1.2,0,0,0-.7.7,3.7,3.7,0,0,0-.3,1.4h0a1.7,1.7,0,0,1,1.5-.8,2,2,0,0,1,1.5.6,3.1,3.1,0,0,1,0,3.4,1.9,1.9,0,0,1-1.6.7,1.7,1.7,0,0,1-1.6-.8,3.4,3.4,0,0,1-.6-2.2,10.1,10.1,0,0,1,.2-1.9,6.7,6.7,0,0,1,.6-1.2l.8-.5,1.5-.4Zm-3,4v.7a1.7,1.7,0,0,0,.1.7l.3.6.4.4.6.2a1.2,1.2,0,0,0,1-.5,1.6,1.6,0,0,0,.4-1.2,1.7,1.7,0,0,0-.4-1.3,1.2,1.2,0,0,0-1-.5A1.5,1.5,0,0,0,495.6,97.1Z"/><path d="M500.8,99.5h0v2.9h-.7v-7h.7v.9h0a1.8,1.8,0,0,1,3-.3,3.8,3.8,0,0,1-.1,3.6,1.8,1.8,0,0,1-1.5.7A1.6,1.6,0,0,1,500.8,99.5Zm0-1.9v.7a1.7,1.7,0,0,0,.3,1,1.8,1.8,0,0,0,1,.4,1.1,1.1,0,0,0,1-.6,2,2,0,0,0,.4-1.4,1.7,1.7,0,0,0-.4-1.3,1,1,0,0,0-.9-.4,1.2,1.2,0,0,0-1,.4A1.6,1.6,0,0,0,500.8,97.6Z"/><path d="M508.4,100.2h-.7v-.7h0a1.7,1.7,0,0,1-1.4.8,1.2,1.2,0,0,1-1.1-.4,1.1,1.1,0,0,1-.4-1,1.5,1.5,0,0,1,1.5-1.5l1.4-.2c0-.8-.3-1.2-1-1.2a2.4,2.4,0,0,0-1.5.6v-.8a3,3,0,0,1,1.6-.5c1.1,0,1.6.6,1.6,1.8Zm-.7-2.4-1.1.2a1.5,1.5,0,0,0-.8.2.8.8,0,0,0-.3.7.9.9,0,0,0,.3.6l.6.2a1.3,1.3,0,0,0,.9-.4,1.3,1.3,0,0,0,.4-1Z"/><path d="M513,93.1v.7a.8.8,0,0,1-.6.2l-1.4.3a1.4,1.4,0,0,0-.6.7,2.4,2.4,0,0,0-.3,1.4h0a1.5,1.5,0,0,1,1.5-.8,2,2,0,0,1,1.5.6,2.9,2.9,0,0,1,.5,1.7,2.4,2.4,0,0,1-.6,1.7,1.8,1.8,0,0,1-1.5.7,1.6,1.6,0,0,1-1.6-.8,3.4,3.4,0,0,1-.6-2.2,10.1,10.1,0,0,1,.2-1.9,2.3,2.3,0,0,1,.6-1.2l.8-.5,1.5-.4A.8.8,0,0,0,513,93.1Zm-2.9,4v.7a1.7,1.7,0,0,0,.1.7.9.9,0,0,0,.3.6.8.8,0,0,0,.4.4l.6.2a1.4,1.4,0,0,0,1-.5,2.1,2.1,0,0,0,.4-1.2,2.2,2.2,0,0,0-.4-1.3,1.4,1.4,0,0,0-1.1-.5A1.4,1.4,0,0,0,510.1,97.1Z"/><path d="M517.8,100.2H517v-.7h0a1.6,1.6,0,0,1-1.4.8,1.2,1.2,0,0,1-1-.4,1.1,1.1,0,0,1-.4-1,1.5,1.5,0,0,1,1.5-1.5l1.3-.2q0-1.2-.9-1.2a2.4,2.4,0,0,0-1.5.6v-.8a3,3,0,0,1,1.6-.5c1,0,1.6.6,1.6,1.8Zm-.8-2.4-1.1.2-.7.2a.8.8,0,0,0-.3.7.9.9,0,0,0,.3.6.8.8,0,0,0,.6.2,1.3,1.3,0,0,0,.9-.4,1.7,1.7,0,0,0,.3-1Z"/><path d="M521.7,96.1h-1.3v4.1h-.8V96.1h-1.3v-.7h3.4Z"/><path d="M522.3,100.2V95.4h.8v1.9h1.2a1.4,1.4,0,0,1,1.1.4,1.2,1.2,0,0,1,.4,1,1.4,1.4,0,0,1-.4,1.1,1.3,1.3,0,0,1-1,.4Zm.8-2.3v1.7h1.1a.8.8,0,0,0,.9-.9c0-.5-.3-.8-.9-.8Zm4.2,2.3h-.7V95.4h.7Z"/><path d="M528.5,100.2V95.4h2a1.8,1.8,0,0,1,1.1.4,1.2,1.2,0,0,1,.4.8,1,1,0,0,1-.9,1.1c.7.1,1.1.5,1.1,1.1a1.4,1.4,0,0,1-.5,1,1.3,1.3,0,0,1-1,.4Zm.8-4.1v1.3h1.1c.6,0,.8-.2.8-.7s-.2-.6-.7-.6Zm0,2v1.5h1.2c.6,0,.9-.3.9-.8s-.3-.7-1-.7Z"/><path d="M536.4,100.2h-.8v-.7h0a1.6,1.6,0,0,1-1.4.8,1.5,1.5,0,0,1-1.1-.4,1.3,1.3,0,0,1-.3-1,1.5,1.5,0,0,1,1.5-1.5l1.3-.2q0-1.2-.9-1.2a2,2,0,0,0-1.5.6v-.8a3,3,0,0,1,1.6-.5c1,0,1.6.6,1.6,1.8Zm-.8-2.4-1.1.2-.7.2a.8.8,0,0,0-.3.7,1.4,1.4,0,0,0,.2.6l.7.2a1.8,1.8,0,0,0,.9-.4,1.7,1.7,0,0,0,.3-1Z"/><path d="M541.1,98h-3.2a1.9,1.9,0,0,0,.4,1.2,1.4,1.4,0,0,0,1.1.5,2,2,0,0,0,1.4-.6v.8a2.5,2.5,0,0,1-1.6.4,2,2,0,0,1-1.5-.6,2.9,2.9,0,0,1-.5-1.9,2.8,2.8,0,0,1,.6-1.8,2.1,2.1,0,0,1,1.5-.7,1.5,1.5,0,0,1,1.3.6,2.3,2.3,0,0,1,.5,1.7Zm-.7-.6a1.8,1.8,0,0,0-.3-1.1,1.2,1.2,0,0,0-.9-.3.9.9,0,0,0-.8.4,1.6,1.6,0,0,0-.5,1Z"/><path d="M544.8,96.1h-1.3v4.1h-.8V96.1h-1.3v-.7h3.4Z"/><path d="M549.6,100.3a2.1,2.1,0,0,1-1.7-.7,2.4,2.4,0,0,1-.6-1.7A2.5,2.5,0,0,1,548,96a2.4,2.4,0,0,1,1.7-.7,2.4,2.4,0,0,1,1.6.7,3,3,0,0,1,.5,1.8,2.4,2.4,0,0,1-.6,1.8A2,2,0,0,1,549.6,100.3Zm0-4.3a1.2,1.2,0,0,0-1.1.5,2,2,0,0,0-.4,1.4,1.8,1.8,0,0,0,.4,1.3,1.5,1.5,0,0,0,2.2,0,2,2,0,0,0,.4-1.4,1.7,1.7,0,0,0-.4-1.3A1.2,1.2,0,0,0,549.6,96Z"/><path d="M555.6,96.1h-1.4v4.1h-.7V96.1h-1.4v-.7h3.5Z"/><path d="M556.2,100.2V95.4h2a1.5,1.5,0,0,1,1,.4.9.9,0,0,1,.4.8,1,1,0,0,1-.8,1.1,1.1,1.1,0,0,1,1,1.1,1.3,1.3,0,0,1-.4,1,1.5,1.5,0,0,1-1.1.4Zm.7-4.1v1.3H558c.6,0,.9-.2.9-.7s-.3-.6-.8-.6Zm0,2v1.5h1.3c.6,0,.9-.3.9-.8s-.4-.7-1-.7Z"/><path d="M564.4,98h-3.2a1.5,1.5,0,0,0,.4,1.2,1.4,1.4,0,0,0,1.1.5,2,2,0,0,0,1.4-.6v.8a2.5,2.5,0,0,1-1.6.4,2,2,0,0,1-1.5-.6,2.9,2.9,0,0,1-.6-1.9A2.8,2.8,0,0,1,561,96a2.1,2.1,0,0,1,1.5-.7,1.7,1.7,0,0,1,1.4.6,2.9,2.9,0,0,1,.5,1.7Zm-.7-.6a1.8,1.8,0,0,0-.3-1.1,1.3,1.3,0,0,0-1.8.1,2.3,2.3,0,0,0-.4,1Z"/><path d="M568.1,96.1h-1.4v4.1H566V96.1h-1.4v-.7h3.5Z"/><path d="M568.7,100.2V95.4h.7v1.9h1.3a1.5,1.5,0,0,1,1.1.4,1.2,1.2,0,0,1,.4,1,1.8,1.8,0,0,1-.4,1.1,1.5,1.5,0,0,1-1.1.4Zm.7-2.3v1.7h1.1a.8.8,0,0,0,.9-.9c0-.5-.3-.8-.9-.8Zm4.3,2.3H573V95.4h.7Z"/><path d="M507.4,115.7h-.7v-2.2h-2.3v2.2h-.7v-4.8h.7v2h2.3v-2h.7Z"/><path d="M511.9,115.7h-.7v-.8h0a1.5,1.5,0,0,1-1.4.9,1.8,1.8,0,0,1-1.1-.4,1.3,1.3,0,0,1-.4-1c0-.9.5-1.4,1.5-1.6l1.4-.2c0-.8-.3-1.2-1-1.2a2,2,0,0,0-1.4.6v-.8a2.4,2.4,0,0,1,1.5-.4c1.1,0,1.6.6,1.6,1.8Zm-.7-2.4h-1.1l-.8.3c-.2.1-.2.3-.2.6s0,.5.2.6a.7.7,0,0,0,.6.2,1,1,0,0,0,.9-.4,1.2,1.2,0,0,0,.4-1Z"/><path d="M516.5,108.6v.7l-.5.2-1.4.3a1.3,1.3,0,0,0-.7.6,2.6,2.6,0,0,0-.3,1.4h0a1.9,1.9,0,0,1,1.5-.8,1.8,1.8,0,0,1,1.5.7,2.9,2.9,0,0,1,.5,1.7,2.4,2.4,0,0,1-.6,1.7,1.7,1.7,0,0,1-1.5.7,1.9,1.9,0,0,1-1.6-.8,3.6,3.6,0,0,1-.6-2.2,9.2,9.2,0,0,1,.2-1.9,2.7,2.7,0,0,1,.6-1.2,1.4,1.4,0,0,1,.8-.5l1.5-.4Zm-2.9,4v.6a2.2,2.2,0,0,0,.1.8.9.9,0,0,0,.3.6l.4.4h.6a1.2,1.2,0,0,0,1-.4,2,2,0,0,0,.4-1.3,2.8,2.8,0,0,0-.4-1.3,1.3,1.3,0,0,0-1-.4A1.4,1.4,0,0,0,513.6,112.6Z"/><path d="M519.9,115.8a2.4,2.4,0,0,1-1.6-.7,3,3,0,0,1,0-3.6,2.2,2.2,0,0,1,1.7-.7,1.8,1.8,0,0,1,1.6.7,2.4,2.4,0,0,1,.6,1.8,2.8,2.8,0,0,1-.6,1.8A2.4,2.4,0,0,1,519.9,115.8Zm.1-4.4a1.3,1.3,0,0,0-1.1.5,2.1,2.1,0,0,0-.4,1.4,1.7,1.7,0,0,0,.4,1.3,1.2,1.2,0,0,0,1.1.5,1.4,1.4,0,0,0,1.1-.4,2.9,2.9,0,0,0,.4-1.4,2.6,2.6,0,0,0-.4-1.4A1.4,1.4,0,0,0,520,111.4Z"/><path d="M523.8,115h0v2.8h-.7v-6.9h.7v.8h0a1.8,1.8,0,0,1,1.6-.9,1.7,1.7,0,0,1,1.4.6,3.1,3.1,0,0,1,.5,1.7,3.2,3.2,0,0,1-.6,2,1.8,1.8,0,0,1-1.5.7A1.7,1.7,0,0,1,523.8,115Zm0-1.9v.6a1.8,1.8,0,0,0,.4,1,1.1,1.1,0,0,0,.9.4,1.2,1.2,0,0,0,1.1-.5,3.1,3.1,0,0,0,.3-1.5,2.1,2.1,0,0,0-.3-1.2,1.2,1.2,0,0,0-1-.5,1.4,1.4,0,0,0-1,.5A2.1,2.1,0,0,0,523.8,113.1Z"/><path d="M531.2,115h-.1v2.8h-.7v-6.9h.7v.8h.1a1.6,1.6,0,0,1,1.5-.9,1.7,1.7,0,0,1,1.4.6,3.1,3.1,0,0,1,.5,1.7,3.2,3.2,0,0,1-.6,2,1.8,1.8,0,0,1-1.5.7A1.4,1.4,0,0,1,531.2,115Zm-.1-1.9v.6a1.8,1.8,0,0,0,.4,1,1.2,1.2,0,0,0,.9.4,1.2,1.2,0,0,0,1.1-.5,3,3,0,0,0,.4-1.5,2.1,2.1,0,0,0-.4-1.2,1.1,1.1,0,0,0-.9-.5,1.4,1.4,0,0,0-1.1.5A2.1,2.1,0,0,0,531.1,113.1Z"/><path d="M539.2,113.5h-3.3a2.2,2.2,0,0,0,.5,1.2,1.2,1.2,0,0,0,1,.4,1.9,1.9,0,0,0,1.4-.5v.7a2.5,2.5,0,0,1-1.5.5,1.9,1.9,0,0,1-1.6-.7,3,3,0,0,1-.5-1.8,2.8,2.8,0,0,1,.6-1.8,1.9,1.9,0,0,1,2.9-.1,2.9,2.9,0,0,1,.5,1.7Zm-.8-.7a1.5,1.5,0,0,0-.3-1,1.2,1.2,0,0,0-.8-.4,1.3,1.3,0,0,0-.9.4,1.8,1.8,0,0,0-.4,1Z"/><path d="M539.6,115.5v-.7a3.2,3.2,0,0,0,1.4.3c.8,0,1.2-.2,1.2-.8s-.4-.8-1.3-.8h-.5v-.6h.5c.7,0,1.1-.3,1.1-.8s-.1-.3-.2-.5l-.8-.2a3.3,3.3,0,0,0-1.3.4v-.7l1.4-.3c1.1,0,1.7.4,1.7,1.3a1.1,1.1,0,0,1-.3.7l-.7.4h0a.8.8,0,0,1,.8.4,1,1,0,0,1,.3.8,1.1,1.1,0,0,1-.5,1,2.6,2.6,0,0,1-1.4.4A2.6,2.6,0,0,1,539.6,115.5Z"/><path d="M547.4,110.9l-2.1,5.5c-.4,1-.9,1.5-1.6,1.5h-.4v-.6h.4c.4,0,.6-.2.8-.6l.4-.9-1.8-4.8h.8l1.3,3.7v.3h.1a.5.5,0,0,1,.1-.3l1.3-3.7Z"/><path d="M551.2,115.7h-.7v-4.1h-1a11.9,11.9,0,0,1-.7,3.2,1.4,1.4,0,0,1-1.2.9h-.3V115h.3c.6,0,1.1-1.4,1.3-4.2h2.3Z"/><path d="M552.5,115.7v-4.8h.7v1.8h1.2a1.8,1.8,0,0,1,1.1.4,1.4,1.4,0,0,1,.4,1.1,1.5,1.5,0,0,1-.4,1.1,1.8,1.8,0,0,1-1,.4Zm.7-2.3V115h1.1c.6,0,.9-.3.9-.8s-.3-.8-.9-.8Z"/><path d="M559.6,111.6h-1.3v4.1h-.8v-4.1h-1.3v-.7h3.4Z"/><path d="M563.5,115.7h-.7v-.8h0a1.6,1.6,0,0,1-2.5.5,1.3,1.3,0,0,1-.4-1c0-.9.5-1.4,1.5-1.6l1.4-.2c0-.8-.3-1.2-1-1.2a2.4,2.4,0,0,0-1.5.6v-.8a2.9,2.9,0,0,1,1.6-.4c1.1,0,1.6.6,1.6,1.8Zm-.7-2.4h-1.1l-.8.3c-.2.1-.2.3-.2.6s0,.5.2.6.4.2.6.2a1,1,0,0,0,.9-.4,1.2,1.2,0,0,0,.4-1Z"/><path d="M567.5,111.6h-1.4v4.1h-.7v-4.1H564v-.7h3.5Z"/><path d="M570,115.8a2.2,2.2,0,0,1-1.6-.7,3,3,0,0,1,0-3.6,2.1,2.1,0,0,1,1.7-.7,1.9,1.9,0,0,1,1.6.7,2.4,2.4,0,0,1,.6,1.8,2.9,2.9,0,0,1-.7,1.8A2.2,2.2,0,0,1,570,115.8Zm0-4.4a1.6,1.6,0,0,0-1.1.5,2.1,2.1,0,0,0-.4,1.4,1.7,1.7,0,0,0,.4,1.3,1.3,1.3,0,0,0,1.1.5,1.2,1.2,0,0,0,1.1-.4,2.1,2.1,0,0,0,.4-1.4,2,2,0,0,0-.4-1.4A1.3,1.3,0,0,0,570,111.4Z"/><path d="M573.1,115.7v-4.8h2a1.8,1.8,0,0,1,1.1.3,1,1,0,0,1,.4.9,1,1,0,0,1-.9,1.1c.7.1,1.1.5,1.1,1.1a1.4,1.4,0,0,1-.5,1,1.8,1.8,0,0,1-1,.4Zm.8-4.1v1.3H575c.6,0,.9-.2.9-.7s-.3-.6-.8-.6Zm0,1.9V115h1.2c.6,0,.9-.2.9-.7s-.3-.8-1-.8Z"/><path d="M507.6,127.5h-3.2a1.7,1.7,0,0,0,.4,1.3,1.4,1.4,0,0,0,1.1.4,2.4,2.4,0,0,0,1.4-.5v.7a2.5,2.5,0,0,1-1.6.4,2,2,0,0,1-1.5-.6,3,3,0,0,1,0-3.6,1.8,1.8,0,0,1,1.5-.7,1.7,1.7,0,0,1,1.4.6,2.5,2.5,0,0,1,.5,1.6Zm-.7-.6a1.5,1.5,0,0,0-.3-1,1,1,0,0,0-.9-.4,1.2,1.2,0,0,0-.9.4,3,3,0,0,0-.4,1Z"/><path d="M512.4,131.5h-.6v-1.8h-3.4v1.8h-.6v-2.4h.4a7.3,7.3,0,0,0,1.2-4.1h2.3v4.1h.7Zm-1.4-2.4v-3.5h-1a7.9,7.9,0,0,1-1,3.5Z"/><path d="M517,129.7h-.7v-3.8a.9.9,0,0,1-.3.6l-2.1,3.2h-.7V125h.6v3.7l.3-.4,2.1-3.3h.8Z"/><path d="M522,129.7h-.8v-2.1h-2.3v2.1h-.7V125h.7v1.9h2.3V125h.8Z"/><path d="M523.2,129.7V125h.7v1.8h1.2a1.2,1.2,0,0,1,1.1.4,1.2,1.2,0,0,1,.5,1,1.3,1.3,0,0,1-.5,1.1,1.2,1.2,0,0,1-1,.4Zm.7-2.2v1.6H525a.8.8,0,0,0,.9-.9c0-.5-.3-.7-.9-.7Zm4.3,2.2h-.8V125h.8Z"/><path d="M533.2,129.7h-.7v-3.8a.9.9,0,0,1-.3.6l-2.1,3.2h-.7V125h.6v3.7l.3-.4,2.1-3.3h.8Zm-.3-7a1.2,1.2,0,0,1-.5,1,1.4,1.4,0,0,1-1.1.4,1.5,1.5,0,0,1-1.1-.4,1.2,1.2,0,0,1-.4-1h.7c0,.6.3.8.8.8s.5,0,.6-.2a.7.7,0,0,0,.3-.6Z"/><path d="M540.6,131.5H540v-1.8h-3.4v1.8H536v-2.4h.4a8.1,8.1,0,0,0,1.1-4.1h2.4v4.1h.7Zm-1.4-2.4v-3.5h-1a8,8,0,0,1-1.1,3.5Z"/><path d="M543.2,129.8a2.3,2.3,0,0,1-1.6-.6,2.8,2.8,0,0,1-.6-1.8,2.9,2.9,0,0,1,.6-1.9,2.5,2.5,0,0,1,1.7-.6,2,2,0,0,1,1.6.6,2.8,2.8,0,0,1,.6,1.8,2.9,2.9,0,0,1-.6,1.9A2.4,2.4,0,0,1,543.2,129.8Zm.1-4.3a1.3,1.3,0,0,0-1.1.5,2,2,0,0,0-.4,1.4,1.8,1.8,0,0,0,.4,1.3,1.5,1.5,0,0,0,2.2,0,2.2,2.2,0,0,0,.4-1.3,2.6,2.6,0,0,0-.4-1.4A1.4,1.4,0,0,0,543.3,125.5Z"/><path d="M550.2,129.7h-1l-2.1-2.3h0v2.3h-.7V125h.7v2.2h0l2-2.2h.9l-2.1,2.3Z"/><path d="M554.3,125l-2.1,5.5c-.4,1-.9,1.5-1.6,1.5h-.5v-.7h.5c.3,0,.6-.2.8-.7l.4-.9L550,125h.8l1.2,3.6c0,.1.1.2.1.4h0c.1-.1.1-.2.1-.4l1.3-3.6Z"/><path d="M559.7,129.7H559v-3.9a4.6,4.6,0,0,0-.3.9l-1.1,3h-.7l-1.2-3a2.3,2.3,0,0,0-.3-.9v3.9h-.6V125h.9l1.2,3.1.4.9.3-.9,1.2-3.1h.9Z"/><path d="M564.6,127.5h-3.2a1.7,1.7,0,0,0,.4,1.3,1.2,1.2,0,0,0,1.1.4,2.7,2.7,0,0,0,1.4-.5v.7a2.7,2.7,0,0,1-1.6.4,1.8,1.8,0,0,1-1.5-.6,3,3,0,0,1,0-3.6,1.8,1.8,0,0,1,1.5-.7,1.7,1.7,0,0,1,1.4.6,2.5,2.5,0,0,1,.5,1.6Zm-.8-.6a1.5,1.5,0,0,0-.3-1,.8.8,0,0,0-.8-.4,1.2,1.2,0,0,0-.9.4,1.8,1.8,0,0,0-.4,1Z"/><path d="M569.2,129.7h-.7v-2.1h-2.3v2.1h-.8V125h.8v1.9h2.3V125h.7Z"/><path d="M573.3,125.6h-1.4v4.1h-.7v-4.1h-1.4V125h3.5Z"/><path d="M393.2,105a4.1,4.1,0,0,1-3-1.2,3.9,3.9,0,0,1-1.2-3,4.4,4.4,0,0,1,1.2-3.2,4.1,4.1,0,0,1,3.1-1.2,4,4,0,0,1,3,1.1,4.5,4.5,0,0,1,1.1,3.1,4.4,4.4,0,0,1-1.2,3.2A4.1,4.1,0,0,1,393.2,105Zm.1-7a1.9,1.9,0,0,0-1.6.7,3.6,3.6,0,0,0,0,4,2.1,2.1,0,0,0,1.5.7,2.2,2.2,0,0,0,1.6-.7,3,3,0,0,0,.6-2,3.2,3.2,0,0,0-.6-2A1.8,1.8,0,0,0,393.3,98Z"/><path d="M403.2,100.3h-1.7v4.6h-1.8v-4.6H398V98.9h5.2Z"/><path d="M404.1,104.9v-6h3.4c1.5,0,2.2.5,2.2,1.4a1.2,1.2,0,0,1-.3.9,2,2,0,0,1-.9.5,1.6,1.6,0,0,1,1,.5,1,1,0,0,1,.4.9,1.8,1.8,0,0,1-.6,1.3,2.5,2.5,0,0,1-1.6.5ZM406,100v1.3h.9c.6,0,.9-.3.9-.7s-.3-.6-.8-.6Zm0,2.4v1.3h1.1c.6,0,.9-.2.9-.7s-.3-.6-.9-.6Z"/><path d="M416.7,102.4h-4c.1.9.6,1.3,1.7,1.3a3.4,3.4,0,0,0,1.7-.5v1.4a4.6,4.6,0,0,1-2.2.4,3.4,3.4,0,0,1-2.3-.8,3.1,3.1,0,0,1-.8-2.2,3.2,3.2,0,0,1,.9-2.4,2.9,2.9,0,0,1,2.2-.9,2.6,2.6,0,0,1,2,.8,2.9,2.9,0,0,1,.8,2.1Zm-1.8-1.1c0-.9-.3-1.3-1-1.3a.9.9,0,0,0-.8.4,1.3,1.3,0,0,0-.4.9Z"/><path d="M422.3,100.3h-1.6v4.6h-1.9v-4.6h-1.6V98.9h5.1Z"/><path d="M423.3,104.9v-6h1.9V101h1.6a2.1,2.1,0,0,1,1.6.5,1.9,1.9,0,0,1,0,2.8,2.1,2.1,0,0,1-1.6.6Zm1.9-2.8v1.6h.9c.6,0,.9-.3.9-.8s-.3-.8-.9-.8Zm6.4,2.8h-1.9v-6h1.9Z"/><path d="M371.9,121.4h-.8a7.6,7.6,0,0,1-1.8-5.1,7.7,7.7,0,0,1,1.8-5.2h.8a7.8,7.8,0,0,0-1.8,5.2A7.9,7.9,0,0,0,371.9,121.4Z"/><path d="M379.1,119.5H378l-1.4-2.4a1,1,0,0,0-.4-.5l-.3-.4-.4-.2h-1.3v3.6h-.9v-8.4h3.4l.8.4a1.8,1.8,0,0,1,.5.7,3,3,0,0,1,.2,1,1.9,1.9,0,0,1-.2.8,1.5,1.5,0,0,1-.3.7l-.6.5-.7.3h0l.3.2.3.3.3.4.3.5Zm-4.9-7.5v3h2l.5-.3c.1-.2.3-.3.3-.5a1.9,1.9,0,0,0,.2-.7,1.4,1.4,0,0,0-.5-1.1,1.7,1.7,0,0,0-1.2-.3Z"/><path d="M384.7,119.5h-4.3v-8.4h4.1v.9h-3.2v2.8h3v.8h-3v3h3.4Z"/><path d="M386.1,119.1V118l.4.3.6.2.6.2h.5a2.3,2.3,0,0,0,1.3-.3,1.1,1.1,0,0,0,.5-1,1.4,1.4,0,0,0-.2-.6c-.1-.1-.2-.3-.4-.4a.9.9,0,0,0-.6-.4l-.7-.4-.8-.5a1.8,1.8,0,0,1-.7-.5l-.4-.6a1.9,1.9,0,0,1-.1-.8,1.6,1.6,0,0,1,.2-1,2.2,2.2,0,0,1,.6-.7,1.8,1.8,0,0,1,.9-.4l1.1-.2a3.4,3.4,0,0,1,1.7.3v1.1a3.5,3.5,0,0,0-1.8-.5h-.6l-.6.2a.8.8,0,0,0-.4.4,1.1,1.1,0,0,0-.1.6.7.7,0,0,0,.1.5l.3.5.6.3.7.4.8.5.7.6.5.6a2.4,2.4,0,0,1,.2.9,1.7,1.7,0,0,1-.3,1,1.3,1.3,0,0,1-.6.7l-.9.4H387l-.5-.2A.5.5,0,0,1,386.1,119.1Z"/><path d="M397.5,112h-2.3v7.5h-.9V112h-2.4v-.9h5.6Z"/><path d="M407.1,119.5h-.8v-4.8a4.3,4.3,0,0,0-.4.7l-2.7,4.1h-.9v-6h.8v4.7a1.5,1.5,0,0,1,.3-.6l2.7-4.1h1Z"/><path d="M413.4,119.5h-.9v-5.2h-1.4a11.2,11.2,0,0,1-.8,4.1q-.6,1.2-1.5,1.2h-.5v-.8h.4c.9,0,1.4-1.8,1.6-5.3h3.1Z"/><path d="M420.3,119.5h-.9v-4.8c0,.2-.2.4-.3.7l-2.7,4.1h-1v-6h.9v4.7a1.5,1.5,0,0,1,.3-.6l2.7-4.1h1Z"/><path d="M426,119.6l-.4-.2-.2-.4a.8.8,0,0,1,.2-.5l.4-.2.5.2a.6.6,0,0,1,0,.9Z"/><path d="M435.1,119.5h-1.2l-4.2-6.7a1.4,1.4,0,0,1-.2-.6h-.1a3.5,3.5,0,0,1,.1,1.2v6.1h-1v-8.4h1.3l4,6.6a.9.9,0,0,1,.3.5h.1a3.5,3.5,0,0,1-.1-1.2v-5.9h1Z"/><path d="M441.7,119.5h-4.3v-8.4h4.1v.9h-3.2v2.8h2.9v.8h-2.9v3h3.4Z"/><path d="M448.2,112h-2.3v7.5h-1V112h-2.3v-.9h5.6Z"/><path d="M449.6,121.4h-.9a7.9,7.9,0,0,0,1.8-5.1,7.8,7.8,0,0,0-1.8-5.2h.9a8.1,8.1,0,0,1,1.7,5.2A8,8,0,0,1,449.6,121.4Z"/><path d="M20,100.3h-.7a6.2,6.2,0,0,1-1.5-4.2,6.7,6.7,0,0,1,1.5-4.4H20A6.8,6.8,0,0,0,18.5,96,6.4,6.4,0,0,0,20,100.3Z"/><path d="M20.6,98.7v-5h2.2a1.6,1.6,0,0,1,1.2.4,1,1,0,0,1,.4.9,1,1,0,0,1-.9,1.1,1.1,1.1,0,0,1,1.1,1.2,1.4,1.4,0,0,1-.5,1,1.5,1.5,0,0,1-1.1.4Zm.8-4.3v1.4h1.2c.7,0,1-.2,1-.7s-.3-.7-.9-.7Zm0,2.1V98h1.4c.7,0,1-.2,1-.7s-.4-.8-1.1-.8Z"/><path d="M30.2,98.8a2.1,2.1,0,0,1-1.8-.7,2.5,2.5,0,0,1-.7-1.8,3,3,0,0,1,.7-2,2.5,2.5,0,0,1,1.9-.7,2.1,2.1,0,0,1,1.7.7,2.5,2.5,0,0,1,.7,1.9,2.9,2.9,0,0,1-.7,1.9A2.4,2.4,0,0,1,30.2,98.8Zm0-4.5a1.7,1.7,0,0,0-1.2.5,2.2,2.2,0,0,0-.4,1.5,2.1,2.1,0,0,0,.4,1.4,1.7,1.7,0,0,0,2.4,0,2.2,2.2,0,0,0,.4-1.5,2,2,0,0,0-.4-1.4A1.7,1.7,0,0,0,30.2,94.3Z"/><path d="M37.5,91.3V92a.8.8,0,0,1-.6.2l-1.6.4a1.3,1.3,0,0,0-.7.6,4.6,4.6,0,0,0-.4,1.5h.1a1.8,1.8,0,0,1,1.6-.9,2.2,2.2,0,0,1,1.6.7,2.8,2.8,0,0,1,.6,1.8,2.9,2.9,0,0,1-.6,1.9,2.4,2.4,0,0,1-1.7.6A1.9,1.9,0,0,1,34,98a3.7,3.7,0,0,1-.6-2.3,10.3,10.3,0,0,1,.2-2,2.2,2.2,0,0,1,.7-1.2,1.6,1.6,0,0,1,.8-.6l1.7-.4Zm-3.3,4.2v.7a1.9,1.9,0,0,0,.2.7.9.9,0,0,0,.3.7,1,1,0,0,0,.5.4l.6.2a1.4,1.4,0,0,0,1.1-.5,2,2,0,0,0,.4-1.3,2.1,2.1,0,0,0-.4-1.4,1.6,1.6,0,0,0-1.1-.5A1.7,1.7,0,0,0,34.2,95.5Z"/><path d="M42.8,98.7H42V94.4H40.8a7.9,7.9,0,0,1-.7,3.4,1.3,1.3,0,0,1-1.3,1h-.4V98h.4c.7,0,1.1-1.4,1.4-4.4h2.6Z"/><path d="M47.7,98.7h-.8v-.8h0a1.8,1.8,0,0,1-1.6.9,2.1,2.1,0,0,1-1.2-.3,2.1,2.1,0,0,1-.4-1.1c0-.9.6-1.5,1.7-1.6l1.5-.2c0-.9-.4-1.3-1.1-1.3a2.5,2.5,0,0,0-1.6.6v-.8a3.4,3.4,0,0,1,1.7-.5c1.2,0,1.8.6,1.8,1.9Zm-.8-2.5-1.2.2-.9.2a.9.9,0,0,0-.3.7.6.6,0,0,0,.3.6.9.9,0,0,0,.7.3,1.8,1.8,0,0,0,1-.4,2.1,2.1,0,0,0,.4-1.1Z"/><path d="M53,98.7H51.9l-2.2-2.4h0v2.4h-.8v-5h.8V96h0l2.1-2.3h1.1l-2.4,2.4Z"/><path d="M57.6,96.4H54a2.2,2.2,0,0,0,.5,1.3,1.7,1.7,0,0,0,1.2.5,2.2,2.2,0,0,0,1.5-.6v.8a2.9,2.9,0,0,1-1.7.4,2.4,2.4,0,0,1-1.7-.6,3,3,0,0,1-.6-2,2.6,2.6,0,0,1,.7-1.9,2.4,2.4,0,0,1,1.6-.7,1.8,1.8,0,0,1,1.5.6,2.8,2.8,0,0,1,.6,1.8Zm-.8-.6a1.6,1.6,0,0,0-.4-1.1,1,1,0,0,0-.9-.4,1.3,1.3,0,0,0-1,.4,1.8,1.8,0,0,0-.4,1.1Z"/><path d="M65.1,98.7h-.7v-4l-.3.6-2.3,3.4h-.9v-5h.8v4a1.7,1.7,0,0,1,.2-.5l2.4-3.5h.8Z"/><path d="M70.1,98.7h-.8V94.4H68.1a7.9,7.9,0,0,1-.7,3.4,1.3,1.3,0,0,1-1.3,1h-.4V98h.4c.7,0,1.2-1.4,1.4-4.4h2.6Z"/><path d="M75.6,98.7h-.7v-4l-.4.6-2.3,3.4h-.8v-5h.7v4l.3-.5,2.4-3.5h.8Z"/><path d="M78.9,98.6v-.8a4.2,4.2,0,0,0,1.6.4c.8,0,1.3-.3,1.3-.9s-.5-.8-1.5-.8h-.5v-.7h.5c.9,0,1.3-.2,1.3-.8a.5.5,0,0,0-.3-.5l-.8-.2a2.8,2.8,0,0,0-1.5.4v-.8l1.6-.3c1.2,0,1.8.5,1.8,1.4a1.1,1.1,0,0,1-.3.7l-.7.4h0l.8.4a1,1,0,0,1,.4.9,1.1,1.1,0,0,1-.6,1,2.1,2.1,0,0,1-1.5.5A3.5,3.5,0,0,1,78.9,98.6Z"/><path d="M87.1,98.7h-.8v-.8h0a1.8,1.8,0,0,1-1.6.9,1.4,1.4,0,0,1-1.6-1.4c0-.9.6-1.5,1.7-1.6l1.5-.2c0-.9-.4-1.3-1-1.3a2.7,2.7,0,0,0-1.7.6v-.8a3.4,3.4,0,0,1,1.7-.5c1.2,0,1.8.6,1.8,1.9Zm-.8-2.5-1.2.2-.9.2a1.4,1.4,0,0,0-.2.7c0,.3,0,.5.2.6a.9.9,0,0,0,.7.3,1.8,1.8,0,0,0,1-.4,1.5,1.5,0,0,0,.4-1.1Z"/><path d="M23.3,101.3v.7l-.7.2-1.5.4a1.1,1.1,0,0,0-.7.6,4.6,4.6,0,0,0-.4,1.5h0a2,2,0,0,1,1.7-.9,2.2,2.2,0,0,1,1.6.7,2.8,2.8,0,0,1,.6,1.8,2.9,2.9,0,0,1-.6,1.9,2.5,2.5,0,0,1-1.7.6,1.9,1.9,0,0,1-1.8-.8,3.7,3.7,0,0,1-.6-2.3,5.9,5.9,0,0,1,.2-2,1.7,1.7,0,0,1,.6-1.2,2.4,2.4,0,0,1,.9-.6l1.7-.4ZM20,105.5v.7a1.7,1.7,0,0,0,.1.7l.3.7.5.4.7.2a1.6,1.6,0,0,0,1.1-.5,2.8,2.8,0,0,0,.4-1.3,2.9,2.9,0,0,0-.4-1.4,1.7,1.7,0,0,0-1.2-.5A1.5,1.5,0,0,0,20,105.5Z"/><path d="M25.7,108h0v3h-.8v-7.3h.8v.9h0a1.9,1.9,0,0,1,1.7-1,1.6,1.6,0,0,1,1.5.7,2.4,2.4,0,0,1,.6,1.8,3.2,3.2,0,0,1-.6,2,2.1,2.1,0,0,1-1.7.7A1.7,1.7,0,0,1,25.7,108Zm0-2v.7a1.2,1.2,0,0,0,.4,1,1.4,1.4,0,0,0,1,.5,1.1,1.1,0,0,0,1.1-.6,2.5,2.5,0,0,0,.5-1.5,2.2,2.2,0,0,0-.4-1.3,1.2,1.2,0,0,0-1.1-.5,1.3,1.3,0,0,0-1.1.5A1.6,1.6,0,0,0,25.7,106Z"/><path d="M34,108.7h-.8v-.8h0a1.6,1.6,0,0,1-1.5.9,2.1,2.1,0,0,1-1.2-.3,1.5,1.5,0,0,1-.4-1.1c0-.9.5-1.5,1.6-1.6l1.5-.2c0-.9-.3-1.3-1-1.3a2.5,2.5,0,0,0-1.6.6v-.8a3.1,3.1,0,0,1,1.7-.5c1.2,0,1.7.6,1.7,1.9Zm-.8-2.5-1.2.2-.8.2a.9.9,0,0,0-.3.7.6.6,0,0,0,.3.6.8.8,0,0,0,.7.3,1.8,1.8,0,0,0,1-.4,2,2,0,0,0,.3-1.1Z"/><path d="M39.4,108.7h-.8v-2.2H36v2.2h-.8v-5H36v2.1h2.6v-2.1h.8Z"/><path d="M45.1,110.6h-.7v-1.9H40.7v1.9H40v-2.5h.4a7.4,7.4,0,0,0,1.3-4.4h2.6v4.4h.8Zm-1.6-2.5v-3.7H42.4a7.6,7.6,0,0,1-1.1,3.7Z"/><path d="M51.3,108.7h-.8v-4.1a4.6,4.6,0,0,0-.3.9l-1.3,3.2h-.7l-1.3-3.2a3,3,0,0,1-.3-.9v4.1h-.7v-5h1l1.3,3.3c.1.2.2.6.4,1l.3-1,1.3-3.3h1.1Z"/><path d="M56.2,108.7h-.8v-.8h0a1.8,1.8,0,0,1-1.6.9,1.4,1.4,0,0,1-1.6-1.4c0-.9.6-1.5,1.7-1.6l1.5-.2c0-.9-.4-1.3-1-1.3a2.7,2.7,0,0,0-1.7.6v-.8a3.4,3.4,0,0,1,1.7-.5c1.2,0,1.8.6,1.8,1.9Zm-.8-2.5-1.2.2-.9.2a1.4,1.4,0,0,0-.2.7c0,.3,0,.5.2.6a.9.9,0,0,0,.7.3,1.8,1.8,0,0,0,1-.4,1.5,1.5,0,0,0,.4-1.1Z"/><path d="M61.4,103.7l-2.3,5.8c-.4,1.1-1,1.6-1.8,1.6h-.5v-.7h.5a1.1,1.1,0,0,0,.9-.7l.4-1-1.9-5h.8l1.4,3.9a1,1,0,0,0,.1.4h0c0-.1.1-.2.1-.4l1.4-3.9Z"/><path d="M61.6,108.5v-.7a2.5,2.5,0,0,0,1.3.4,1.6,1.6,0,0,0,1.1-.5,1.4,1.4,0,0,0,.5-1.1H62.4v-.7h2.1a2.2,2.2,0,0,0-.5-1.2,1.6,1.6,0,0,0-1.2-.4,1.9,1.9,0,0,0-1.2.4v-.8a2.7,2.7,0,0,1,1.2-.3,2.4,2.4,0,0,1,1.9.7,3,3,0,0,1,.6,2,2.4,2.4,0,0,1-.6,1.8,2.4,2.4,0,0,1-1.8.7A2.5,2.5,0,0,1,61.6,108.5Z"/><path d="M67.1,108h0v3h-.8v-7.3h.8v.9h0a1.8,1.8,0,0,1,1.7-1,1.7,1.7,0,0,1,1.5.7,2.4,2.4,0,0,1,.6,1.8,2.7,2.7,0,0,1-.7,2,1.9,1.9,0,0,1-1.6.7A1.5,1.5,0,0,1,67.1,108Zm0-2v.7a1.2,1.2,0,0,0,.4,1,1.2,1.2,0,0,0,1,.5,1.3,1.3,0,0,0,1.1-.6,2.4,2.4,0,0,0,.4-1.5,1.7,1.7,0,0,0-.4-1.3,1,1,0,0,0-1-.5,1.2,1.2,0,0,0-1.1.5A1.6,1.6,0,0,0,67.1,106Z"/><path d="M73.9,108.8a2.1,2.1,0,0,1-1.7-.7,2.1,2.1,0,0,1-.7-1.8,2.6,2.6,0,0,1,.7-2,2.3,2.3,0,0,1,1.8-.7,2.1,2.1,0,0,1,1.8.7,2.9,2.9,0,0,1,.6,1.9,2.5,2.5,0,0,1-.7,1.9A2.1,2.1,0,0,1,73.9,108.8Zm.1-4.5a1.7,1.7,0,0,0-1.2.5,2.3,2.3,0,0,0-.5,1.5,2.2,2.2,0,0,0,.5,1.4,1.7,1.7,0,0,0,2.4,0,2.2,2.2,0,0,0,.4-1.5,2,2,0,0,0-.4-1.4A1.7,1.7,0,0,0,74,104.3Z"/><path d="M82.8,108.7H82v-4.1a4.6,4.6,0,0,0-.3.9l-1.3,3.2h-.7l-1.3-3.2a3,3,0,0,1-.3-.9v4.1h-.7v-5h1l1.3,3.3.4,1,.4-1,1.2-3.3h1.1Z"/><path d="M84.1,110.3h-.7a6.4,6.4,0,0,0,1.5-4.3,6.8,6.8,0,0,0-1.5-4.3h.7a6.3,6.3,0,0,1,1.6,4.4A5.8,5.8,0,0,1,84.1,110.3Z"/><path d="M153.7,93.7H153a6.9,6.9,0,0,1,0-8.6h.7a6.9,6.9,0,0,0,0,8.6Z"/><path d="M159.2,91.8a3.6,3.6,0,0,1-1.9.4,3,3,0,0,1-2.4-1,3.3,3.3,0,0,1-.9-2.5,3.6,3.6,0,0,1,1-2.7,3.4,3.4,0,0,1,2.6-1,3.8,3.8,0,0,1,1.6.3v.8a4.2,4.2,0,0,0-1.6-.4,2.8,2.8,0,0,0-2,.8,3.2,3.2,0,0,0-.7,2.2,2.7,2.7,0,0,0,.7,2,2.2,2.2,0,0,0,1.8.8,3.5,3.5,0,0,0,1.8-.5Z"/><path d="M163.4,87.8h-1.5v4.3h-.8V87.8h-1.5v-.7h3.8Z"/><path d="M167.6,92.1h-.8v-.8h0a1.6,1.6,0,0,1-1.5.9,1.6,1.6,0,0,1-1.2-.4,1.3,1.3,0,0,1-.4-1c0-1,.5-1.5,1.6-1.7l1.5-.2c0-.8-.3-1.3-1-1.3a2,2,0,0,0-1.6.7v-.9a3.1,3.1,0,0,1,1.7-.4c1.1,0,1.7.6,1.7,1.8Zm-.8-2.5h-1.2l-.8.3a.8.8,0,0,0-.3.7.9.9,0,0,0,.3.6c.1.2.4.2.7.2a1.1,1.1,0,0,0,.9-.4,1.3,1.3,0,0,0,.4-1Z"/><path d="M173,92.1h-.8V89.8h-2.6v2.3h-.8v-5h.8v2h2.6v-2h.8Z"/><path d="M178.7,93.9H178V92.1h-3.7v1.8h-.7V91.4h.4a7.1,7.1,0,0,0,1.3-4.3h2.6v4.3h.8Zm-1.6-2.5V87.8H176a8.9,8.9,0,0,1-1.1,3.6Z"/><path d="M183.1,92.1h-.8v-.8h-.1a1.6,1.6,0,0,1-1.5.9,1.6,1.6,0,0,1-1.2-.4,1.3,1.3,0,0,1-.4-1c0-1,.6-1.5,1.7-1.7l1.5-.2c0-.8-.4-1.3-1.1-1.3a2.1,2.1,0,0,0-1.6.7v-.9a3.1,3.1,0,0,1,1.7-.4,1.6,1.6,0,0,1,1.8,1.8Zm-.8-2.5H181l-.8.3a.8.8,0,0,0-.3.7.9.9,0,0,0,.3.6.8.8,0,0,0,.7.2,1.3,1.3,0,0,0,1-.4,1.8,1.8,0,0,0,.4-1Z"/><path d="M185.1,91.4h0v3h-.8V87.1h.8V88h0a1.9,1.9,0,0,1,1.7-1,1.8,1.8,0,0,1,1.5.6,2.8,2.8,0,0,1,.6,1.8,3.5,3.5,0,0,1-.6,2.1,2.2,2.2,0,0,1-1.7.7A1.6,1.6,0,0,1,185.1,91.4Zm0-2.1V90a1.4,1.4,0,0,0,.4,1.1,1.2,1.2,0,0,0,1,.4,1.3,1.3,0,0,0,1.1-.5,2.5,2.5,0,0,0,.4-1.6,2.5,2.5,0,0,0-.3-1.3,1.6,1.6,0,0,0-1.1-.5,1.4,1.4,0,0,0-1.1.5A1.9,1.9,0,0,0,185.1,89.3Z"/><path d="M193,87.8h-1.5v4.3h-.8V87.8h-1.5v-.7H193Z"/><path d="M197.8,92.1H197V89.8h-2.6v2.3h-.8v-5h.8v2H197v-2h.8Z"/><path d="M199.1,92.1v-5h.8V89h1.4a1.6,1.6,0,0,1,1.2.4,1.4,1.4,0,0,1,.4,1.1,1.6,1.6,0,0,1-.4,1.2,2.1,2.1,0,0,1-1.2.4Zm.8-2.4v1.7h1.2c.7,0,1-.3,1-.9s-.3-.8-1-.8Zm4.7,2.4h-.8v-5h.8Z"/><path d="M210.1,92.1h-.7v-4l-.4.6-2.3,3.4h-.8v-5h.7V91a1.1,1.1,0,0,0,.3-.5l2.4-3.4h.8Zm-.3-7.4a1.2,1.2,0,0,1-.5,1,2,2,0,0,1-1.3.4,1.7,1.7,0,0,1-1.2-.4,1.6,1.6,0,0,1-.5-1h.8a.9.9,0,0,0,1,.9.9.9,0,0,0,.6-.3.7.7,0,0,0,.3-.6Z"/><path d="M218,92.1h-.7v-4c0,.1-.2.3-.3.6l-2.3,3.4h-.8v-5h.7V91l.2-.5,2.4-3.4h.8Z"/><path d="M223,92.1h-.8V87.8h-1.1a13.9,13.9,0,0,1-.7,3.4c-.4.6-.8,1-1.3,1h-.5v-.7h.4c.7,0,1.2-1.5,1.4-4.4H223Z"/><path d="M228.5,92.1h-.7v-4a1.6,1.6,0,0,0-.3.6l-2.3,3.4h-.9v-5h.8V91l.2-.5,2.4-3.4h.8Z"/><path d="M164.9,103.9h-.7v-1.8h-3.7v1.8h-.7v-2.5h.5a7.8,7.8,0,0,0,1.3-4.3h2.6v4.3h.7Zm-1.5-2.5V97.8h-1.1a7.7,7.7,0,0,1-1.2,3.6Z"/><path d="M167.8,102.2a2.4,2.4,0,0,1-1.8-.7,2.9,2.9,0,0,1-.6-1.9,2.4,2.4,0,0,1,.7-1.9,2.7,2.7,0,0,1,3.6,0,2.7,2.7,0,0,1,.6,1.9,2.5,2.5,0,0,1-.7,1.9A2.1,2.1,0,0,1,167.8,102.2Zm.1-4.6a1.6,1.6,0,0,0-1.3.6,2.6,2.6,0,0,0-.4,1.4,2,2,0,0,0,.5,1.4,1.7,1.7,0,0,0,2.4,0,2.6,2.6,0,0,0,0-2.8A1.4,1.4,0,0,0,167.9,97.6Z"/><path d="M175.4,102.1h-.8V97.8h-2.5v4.3h-.8v-5h4.1Z"/><path d="M178.8,102.2a2.1,2.1,0,0,1-1.7-.7,2.5,2.5,0,0,1-.7-1.9,2.4,2.4,0,0,1,.7-1.9A2.5,2.5,0,0,1,179,97a2.1,2.1,0,0,1,1.7.7,2.7,2.7,0,0,1,.6,1.9,2.9,2.9,0,0,1-.6,1.9A2.5,2.5,0,0,1,178.8,102.2Zm.1-4.6a1.4,1.4,0,0,0-1.2.6,2.2,2.2,0,0,0,0,2.8,1.7,1.7,0,0,0,2.4,0,2.6,2.6,0,0,0,0-2.8A1.4,1.4,0,0,0,178.9,97.6Z"/><path d="M186,102.1h-.8V97.8H184a10.4,10.4,0,0,1-.7,3.4,1.5,1.5,0,0,1-1.3,1h-.4v-.7h.4c.7,0,1.1-1.5,1.3-4.4H186Z"/><path d="M191.4,102.1h-.8V99.8h-2.5v2.3h-.8v-5h.8v2h2.5v-2h.8Z"/><path d="M196.8,99.8h-3.6a2.5,2.5,0,0,0,.5,1.3,1.6,1.6,0,0,0,1.2.4,2.7,2.7,0,0,0,1.5-.5v.7a2.9,2.9,0,0,1-1.7.5,2.1,2.1,0,0,1-1.7-.7,2.7,2.7,0,0,1-.6-1.9,2.5,2.5,0,0,1,.7-1.9,2,2,0,0,1,1.6-.7,1.8,1.8,0,0,1,1.5.6,2.4,2.4,0,0,1,.6,1.8Zm-.8-.7a2.8,2.8,0,0,0-.4-1.1,1.3,1.3,0,0,0-.9-.4,1.8,1.8,0,0,0-1,.4,2.1,2.1,0,0,0-.4,1.1Z"/><path d="M201.8,102.1H201V99.8h-2.5v2.3h-.8v-5h.8v2H201v-2h.8Z"/><path d="M207.3,102.1h-.8V99.8H204v2.3h-.8v-5h.8v2h2.5v-2h.8Z"/><path d="M208.6,102.1v-5h.8V99h1.4a1.6,1.6,0,0,1,1.2.4,1.4,1.4,0,0,1,.4,1.1,1.6,1.6,0,0,1-.4,1.2,2.1,2.1,0,0,1-1.2.4Zm.8-2.4v1.7h1.2c.7,0,1-.3,1-.9s-.3-.8-1-.8Zm4.7,2.4h-.8v-5h.8Z"/><path d="M219.6,102.1h-.7v-4a1.6,1.6,0,0,0-.3.6l-2.4,3.4h-.8v-5h.8V101l.2-.5,2.4-3.4h.8Zm-.3-7.4a1.2,1.2,0,0,1-.5,1,1.9,1.9,0,0,1-1.2.4,2,2,0,0,1-1.3-.4,1.6,1.6,0,0,1-.5-1h.8a.9.9,0,0,0,1,.9.9.9,0,0,0,.6-.3.7.7,0,0,0,.3-.6Z"/><path d="M162,112.1h-.7v-4l-.4.6-2.3,3.4h-.8v-5h.7V111a1.1,1.1,0,0,0,.3-.5l2.4-3.4h.8Z"/><path d="M166.7,111.9a2.8,2.8,0,0,1-1.3.3,2.3,2.3,0,0,1-1.8-.7,2.8,2.8,0,0,1-.6-1.8,2.7,2.7,0,0,1,.7-2,2.5,2.5,0,0,1,1.9-.7l1.1.2v.8a2.1,2.1,0,0,0-1.2-.4,1.4,1.4,0,0,0-1.2.6,2.2,2.2,0,0,0-.5,1.4,2,2,0,0,0,.5,1.4,1.3,1.3,0,0,0,1.2.5,1.9,1.9,0,0,0,1.2-.4Z"/><path d="M171.8,112.1h-1.1l-2.2-2.4h-.1v2.4h-.8v-5h.8v2.3h.1l2.1-2.3h1l-2.3,2.4Z"/><path d="M176.3,107.1l-2.3,5.8c-.4,1-1,1.5-1.7,1.5h-.6v-.7h.5a.9.9,0,0,0,.9-.7l.4-.9-1.9-5h.9l1.3,3.8c0,.1.1.2.1.4h0c.1-.1.1-.2.1-.4l1.5-3.8Z"/><path d="M180.3,111.9a3.2,3.2,0,0,1-1.4.3,2.1,2.1,0,0,1-1.7-.7,2.4,2.4,0,0,1-.7-1.8,2.7,2.7,0,0,1,.7-2,2.5,2.5,0,0,1,1.9-.7l1.2.2v.8a2.8,2.8,0,0,0-1.2-.4,1.6,1.6,0,0,0-1.3.6,2.2,2.2,0,0,0-.5,1.4,2,2,0,0,0,.5,1.4,1.3,1.3,0,0,0,1.2.5,2,2,0,0,0,1.3-.4Z"/><path d="M184.6,111.9a3.2,3.2,0,0,1-1.4.3,2.1,2.1,0,0,1-1.7-.7,2.4,2.4,0,0,1-.7-1.8,3.2,3.2,0,0,1,.7-2,2.5,2.5,0,0,1,1.9-.7l1.2.2v.8a2.8,2.8,0,0,0-1.2-.4,1.8,1.8,0,0,0-1.3.6,2.2,2.2,0,0,0-.5,1.4,2,2,0,0,0,.5,1.4,1.3,1.3,0,0,0,1.2.5,2,2,0,0,0,1.3-.4Z"/><path d="M188.6,107.8h-1.5v4.3h-.8v-4.3h-1.5v-.7h3.8Z"/><path d="M189.3,112.1v-5h2.2a1.8,1.8,0,0,1,1.1.3,1.1,1.1,0,0,1,.5.9,1.1,1.1,0,0,1-1,1.2c.8.1,1.1.5,1.1,1.1a1.4,1.4,0,0,1-.4,1.1,2.1,2.1,0,0,1-1.2.4Zm.8-4.3v1.4h1.2c.6,0,1-.3,1-.8s-.3-.6-.9-.6Zm0,2.1v1.5h1.4c.6,0,.9-.3.9-.8s-.3-.7-1-.7Z"/><path d="M198.3,109.8h-3.5a1.8,1.8,0,0,0,.4,1.3,1.6,1.6,0,0,0,1.2.4,3,3,0,0,0,1.6-.5v.7a3.5,3.5,0,0,1-1.8.5,2.2,2.2,0,0,1-1.7-.7,2.7,2.7,0,0,1-.6-1.9,2.9,2.9,0,0,1,.7-1.9,2,2,0,0,1,1.6-.7,2.1,2.1,0,0,1,1.6.6,3,3,0,0,1,.5,1.8Zm-.8-.7a1.4,1.4,0,0,0-.4-1.1,1.3,1.3,0,0,0-.9-.4,1.5,1.5,0,0,0-.9.4,1.6,1.6,0,0,0-.5,1.1Z"/><path d="M203.4,112.1h-.8v-2.3H200v2.3h-.8v-5h.8v2h2.6v-2h.8Z"/><path d="M208.8,112.1H208v-2.3h-2.5v2.3h-.8v-5h.8v2H208v-2h.8Z"/><path d="M210.2,112.1v-5h.8V109h1.3a1.6,1.6,0,0,1,1.2.4,1.4,1.4,0,0,1,.5,1.1,1.7,1.7,0,0,1-.5,1.2,2.1,2.1,0,0,1-1.1.4Zm.8-2.4v1.7h1.2c.6,0,1-.3,1-.9s-.4-.8-1.1-.8Zm4.6,2.4h-.8v-5h.8Z"/><path d="M222.4,112.1h-.8V108l-.4.9-1.2,3.2h-.7l-1.3-3.2-.4-.9v4.1H217v-5h1l1.3,3.2a6.9,6.9,0,0,0,.4,1l.3-.9,1.3-3.3h1.1Z"/><path d="M165.9,122.1h-.7v-4l-.3.6-2.4,3.4h-.8v-5h.7V121a1.1,1.1,0,0,0,.3-.5l2.4-3.4h.8Z"/><path d="M171.4,122.1h-.8v-2.3H168v2.3h-.8v-5h.8v2h2.6v-2h.8Z"/><path d="M175.8,117.8h-1.5v4.3h-.8v-4.3H172v-.7h3.8Z"/><path d="M180.5,119.8H177a2.5,2.5,0,0,0,.4,1.3,1.6,1.6,0,0,0,1.2.4,3,3,0,0,0,1.6-.5v.7a3.2,3.2,0,0,1-1.8.5,1.9,1.9,0,0,1-1.6-.7,2.7,2.7,0,0,1-.6-1.9,2.9,2.9,0,0,1,.6-1.9,2.2,2.2,0,0,1,1.7-.7,2,2,0,0,1,1.5.6,3,3,0,0,1,.5,1.8Zm-.8-.7a1.8,1.8,0,0,0-.3-1.1,1.8,1.8,0,0,0-1-.4,1.5,1.5,0,0,0-.9.4,2.2,2.2,0,0,0-.5,1.1Z"/><path d="M185.1,122.1h-.8v-4.3h-1.2a8.3,8.3,0,0,1-.7,3.4,1.5,1.5,0,0,1-1.3,1h-.4v-.7h.4c.7,0,1.1-1.5,1.3-4.4h2.7Z"/><path d="M190,122.1h-.8v-4.3h-1.1a10.4,10.4,0,0,1-.7,3.4,1.6,1.6,0,0,1-1.3,1h-.4v-.7h.3c.8,0,1.2-1.5,1.4-4.4H190Z"/><path d="M195.4,119.8h-3.5a1.8,1.8,0,0,0,.4,1.3,1.6,1.6,0,0,0,1.2.4,2.7,2.7,0,0,0,1.5-.5v.7a2.9,2.9,0,0,1-1.7.5,2.1,2.1,0,0,1-1.7-.7,2.7,2.7,0,0,1-.6-1.9,2.5,2.5,0,0,1,.7-1.9,2,2,0,0,1,1.6-.7,1.8,1.8,0,0,1,1.5.6,2.4,2.4,0,0,1,.6,1.8Zm-.8-.7a1.8,1.8,0,0,0-.4-1.1,1.2,1.2,0,0,0-1.8,0,1.6,1.6,0,0,0-.5,1.1Z"/><path d="M200.4,122.1h-1.1l-2.2-2.4h0v2.4h-.8v-5h.8v2.3h0l2.1-2.3h1.1l-2.4,2.4Z"/><path d="M204.1,117.8h-1.5v4.3h-.8v-4.3h-1.5v-.7h3.8Z"/><path d="M206.9,122.2a2.1,2.1,0,0,1-1.8-.7,2.5,2.5,0,0,1-.7-1.9,2.7,2.7,0,0,1,.7-1.9,2.5,2.5,0,0,1,1.9-.7,2.1,2.1,0,0,1,1.7.7,2.7,2.7,0,0,1,.6,1.9,2.9,2.9,0,0,1-.6,1.9A2.4,2.4,0,0,1,206.9,122.2Zm0-4.6a1.4,1.4,0,0,0-1.2.6,2.2,2.2,0,0,0,0,2.8,1.7,1.7,0,0,0,2.4,0,2.6,2.6,0,0,0,0-2.8A1.4,1.4,0,0,0,206.9,117.6Z"/><path d="M215.7,122.1h-.8V118a2.3,2.3,0,0,1-.3.9l-1.2,3.2h-.8l-1.3-3.2a2.3,2.3,0,0,0-.3-.9v4.1h-.7v-5h1l1.4,3.2.3,1,.4-.9,1.3-3.3h1Z"/><path d="M217.1,123.7h-.7a6.6,6.6,0,0,0,1.5-4.3,6.2,6.2,0,0,0-1.6-4.3h.8a6.9,6.9,0,0,1,0,8.6Z"/><path d="M286.2,89.6h-.8v-5a2.5,2.5,0,0,1,.1-1h-.1a.5.5,0,0,1-.2.4l-3.6,5.6h-1v-7h.8v6h0l.3-.5,3.5-5.5h1Z"/><path d="M291.8,89.6H291V87.3h-2.5v2.3h-.8v-5h.8v2.1H291V84.6h.8Z"/><path d="M297.5,91.4h-.7V89.6h-3.7v1.8h-.7V88.9h.5a7.5,7.5,0,0,0,1.3-4.3h2.6v4.3h.7ZM296,88.9V85.3h-1.1a7.4,7.4,0,0,1-1.2,3.6Z"/><path d="M302.3,87.3h-3.5a1.7,1.7,0,0,0,.5,1.3,1.3,1.3,0,0,0,1.1.5,2.5,2.5,0,0,0,1.6-.6v.8a2.9,2.9,0,0,1-1.7.4,1.9,1.9,0,0,1-1.7-.7,2.5,2.5,0,0,1-.6-1.9,3.1,3.1,0,0,1,.6-1.9,2.2,2.2,0,0,1,1.7-.7,2,2,0,0,1,1.5.6,2.6,2.6,0,0,1,.5,1.8Zm-.8-.7a1.5,1.5,0,0,0-.3-1,1,1,0,0,0-.9-.4,1.3,1.3,0,0,0-1,.4,1.6,1.6,0,0,0-.5,1Z"/><path d="M307.4,89.6h-1.1l-2.2-2.4h0v2.4h-.8v-5h.8v2.3h0l2.1-2.3h1L304.9,87Z"/><path d="M311.3,89.4a2.8,2.8,0,0,1-1.3.3,2.4,2.4,0,0,1-1.8-.7,2.4,2.4,0,0,1-.6-1.8,2.7,2.7,0,0,1,.7-2,2.5,2.5,0,0,1,1.9-.7l1.1.2v.9a1.5,1.5,0,0,0-1.1-.4,1.7,1.7,0,0,0-1.3.5,2.5,2.5,0,0,0-.5,1.5,1.9,1.9,0,0,0,.5,1.3,1.4,1.4,0,0,0,1.2.6,2.1,2.1,0,0,0,1.2-.5Z"/><path d="M312.2,89.6v-5h.8v1.9h1.4a2.1,2.1,0,0,1,1.2.4,1.7,1.7,0,0,1,.5,1.2,1.6,1.6,0,0,1-.5,1.1,1.5,1.5,0,0,1-1.1.4Zm.8-2.4v1.7h1.2c.7,0,1-.3,1-.8s-.3-.9-1-.9Zm4.7,2.4h-.8v-5h.8Z"/><path d="M325.7,89.6h-.8v-4a.9.9,0,0,1-.3.6l-2.3,3.4h-.8v-5h.7v4a.9.9,0,0,1,.3-.5l2.3-3.5h.9Z"/><path d="M293.5,101.4h-.7V99.6h-3.7v1.8h-.7V98.9h.4a6.9,6.9,0,0,0,1.3-4.3h2.6v4.3h.8Zm-1.6-2.5V95.3h-1.1a7.3,7.3,0,0,1-1.1,3.6Z"/><path d="M295.1,98.9h0v3h-.8V94.6h.8v.9h0a1.9,1.9,0,0,1,1.7-1,1.6,1.6,0,0,1,1.5.7,2.4,2.4,0,0,1,.6,1.8,3.2,3.2,0,0,1-.6,2,2.1,2.1,0,0,1-1.7.7A1.9,1.9,0,0,1,295.1,98.9Zm0-2v.7a1.3,1.3,0,0,0,.4,1,1.4,1.4,0,0,0,1,.5,1.1,1.1,0,0,0,1.1-.6,2.5,2.5,0,0,0,.5-1.5,2.9,2.9,0,0,0-.4-1.4,1.4,1.4,0,0,0-1.1-.4,1.3,1.3,0,0,0-1.1.5A1.6,1.6,0,0,0,295.1,96.9Z"/><path d="M303.8,94.6l-2.3,5.8c-.4,1-.9,1.6-1.7,1.6h-.5v-.7h.5a1.1,1.1,0,0,0,.9-.7l.4-1-2-5h.9l1.4,3.9v.3h0a.5.5,0,0,1,.1-.3l1.4-3.9Z"/><path d="M307.2,95.3h-2v4.3h-.8v-5h2.8Z"/><path d="M312.1,99.6h-.7v-4l-.3.6-2.3,3.4h-.9v-5h.8v4l.2-.5,2.4-3.5h.8Z"/><path d="M317.5,97.3h-3.6a1.7,1.7,0,0,0,.5,1.3,1.7,1.7,0,0,0,1.2.5,2.4,2.4,0,0,0,1.5-.6v.8a2.9,2.9,0,0,1-1.7.4,2.1,2.1,0,0,1-1.7-.7,2.5,2.5,0,0,1-.6-1.9,2.6,2.6,0,0,1,.7-1.9,1.9,1.9,0,0,1,1.6-.7,1.8,1.8,0,0,1,1.5.6,2.6,2.6,0,0,1,.6,1.8Zm-.9-.7a1.5,1.5,0,0,0-.3-1,1,1,0,0,0-.9-.4,1.3,1.3,0,0,0-1,.4,2.3,2.3,0,0,0-.5,1Z"/><path d="M285.3,109.4a2.5,2.5,0,0,1-1.3.3,2.4,2.4,0,0,1-1.8-.7,2.4,2.4,0,0,1-.6-1.8,2.7,2.7,0,0,1,.7-2,2.5,2.5,0,0,1,1.9-.7l1.1.2v.9a1.5,1.5,0,0,0-1.1-.4,1.7,1.7,0,0,0-1.3.5,2.5,2.5,0,0,0-.5,1.5,1.9,1.9,0,0,0,.5,1.3,1.4,1.4,0,0,0,1.2.6,1.8,1.8,0,0,0,1.2-.5Z"/><path d="M289.4,105.3h-1.5v4.3h-.8v-4.3h-1.5v-.7h3.8Z"/><path d="M290.9,108.9h0v3H290v-7.3h.9v.9h0a1.8,1.8,0,0,1,1.7-1,1.8,1.8,0,0,1,1.5.7,2.4,2.4,0,0,1,.5,1.8,3.2,3.2,0,0,1-.6,2,1.9,1.9,0,0,1-1.6.7A1.6,1.6,0,0,1,290.9,108.9Zm0-2v.7a1.3,1.3,0,0,0,.4,1,1.2,1.2,0,0,0,1,.5,1.3,1.3,0,0,0,1.1-.6,2.4,2.4,0,0,0,.4-1.5,2.1,2.1,0,0,0-.4-1.4,1.2,1.2,0,0,0-1-.4,1.2,1.2,0,0,0-1.1.5A1.6,1.6,0,0,0,290.9,106.9Z"/><path d="M299.6,104.6l-2.3,5.8c-.4,1-1,1.6-1.7,1.6h-.5v-.7h.4a1.1,1.1,0,0,0,.9-.7l.4-1-1.9-5h.9l1.3,3.9a.4.4,0,0,1,.1.3h.1a.5.5,0,0,1,.1-.3l1.4-3.9Z"/><path d="M304.3,109.6h-1.1l-2.2-2.4h0v2.4h-.8v-5h.8v2.3h0l2.1-2.3h1l-2.3,2.4Z"/><path d="M308,105.3h-1.5v4.3h-.8v-4.3h-1.5v-.7H308Z"/><path d="M312.6,104.6l-2.3,5.8c-.4,1-1,1.6-1.7,1.6h-.5v-.7h.4c.4,0,.7-.3,1-.7l.4-1-2-5h.9l1.3,3.9c.1,0,.1.1.1.3h.1a.5.5,0,0,1,.1-.3l1.4-3.9Z"/><path d="M314,108.9h0v3h-.8v-7.3h.8v.9h0a1.9,1.9,0,0,1,1.7-1,1.6,1.6,0,0,1,1.5.7,2.4,2.4,0,0,1,.6,1.8,3.2,3.2,0,0,1-.6,2,2.1,2.1,0,0,1-1.7.7A1.8,1.8,0,0,1,314,108.9Zm0-2v.7a1.3,1.3,0,0,0,.4,1,1.4,1.4,0,0,0,1,.5,1.1,1.1,0,0,0,1.1-.6,2.5,2.5,0,0,0,.5-1.5,2.9,2.9,0,0,0-.4-1.4,1.4,1.4,0,0,0-1.1-.4,1.3,1.3,0,0,0-1.1.5A1.6,1.6,0,0,0,314,106.9Z"/><path d="M318.8,109.6v-5h.8v1.9h1.3a2.1,2.1,0,0,1,1.2.4,1.7,1.7,0,0,1,.5,1.2,1.6,1.6,0,0,1-.5,1.1,1.5,1.5,0,0,1-1.1.4Zm.8-2.4v1.7h1.2c.6,0,1-.3,1-.8s-.4-.9-1.1-.9Zm4.6,2.4h-.8v-5h.8Z"/></svg>