<svg xmlns="http://www.w3.org/2000/svg" xmlns:xlink="http://www.w3.org/1999/xlink" viewBox="0 0 492.8 180.36"><defs><style>.cls-1{fill:#505050;}.cls-10,.cls-2{fill:#fff;}.cls-3,.cls-7{fill:#ebebeb;}.cls-4{fill:#0072c6;}.cls-5{fill:#008575;}.cls-6{fill:none;}.cls-6,.cls-7,.cls-8{stroke:#000;}.cls-10,.cls-6,.cls-7,.cls-8,.cls-9{stroke-miterlimit:10;}.cls-7{stroke-width:0.75px;}.cls-10,.cls-8{stroke-width:0.05px;}.cls-9{fill:#1e1e1e;stroke:#1e1e1e;stroke-width:0.06px;}.cls-10{stroke:#fff;}</style><symbol id="New_Symbol_44" data-name="New Symbol 44" viewBox="0 0 20 20"><circle class="cls-1" cx="10" cy="10" r="10"/><path class="cls-2" d="M12,14V8.58h1.25V7.45H12V5.6H10.65V7.42H6.85V8.56q.51.58,1.05,1.26a12.66,12.66,0,0,1,1,1.38c.29.47.64.94.93,1.41A13,13,0,0,1,10.55,14ZM10.65,8.58v3.5a19.76,19.76,0,0,0-1.26-2C9,9.51,8.58,9,8.22,8.56Z"/></symbol><symbol id="New_Symbol_43" data-name="New Symbol 43" viewBox="0 0 20 20"><circle class="cls-1" cx="10" cy="10" r="10"/><path class="cls-2" d="M7.39,5.88V7.16a3,3,0,0,1,1.85-.65,2.19,2.19,0,0,1,1.34.38,1.23,1.23,0,0,1,.5,1c0,1-.73,1.43-2.18,1.43H8.24v1.12h.63c1.29,0,1.94.45,1.94,1.35S10.3,13,9.29,13a2.48,2.48,0,0,1-1.58-.6v1.23a4.08,4.08,0,0,0,2,.48,2.64,2.64,0,0,0,1.79-.56,1.76,1.76,0,0,0,.67-1.44A2,2,0,0,0,10.5,10h0a2.19,2.19,0,0,0,1.43-.63A1.89,1.89,0,0,0,12.5,8a2.22,2.22,0,0,0-.85-1.82,3.4,3.4,0,0,0-2.24-.7A3.84,3.84,0,0,0,7.39,5.88Z"/></symbol><symbol id="New_Symbol_41" data-name="New Symbol 41" viewBox="0 0 20 20"><circle class="cls-1" cx="10" cy="10" r="10"/><path class="cls-2" d="M11.19,14.16V5.57H9.83V12.5A4.06,4.06,0,0,0,9,12a9,9,0,0,0-1-.33v1.21l.65.24.63.27.62.34c.21.13.42.27.64.43Z"/></symbol><symbol id="New_Symbol_42" data-name="New Symbol 42" viewBox="0 0 20 20"><circle class="cls-1" cx="10" cy="10" r="10"/><path class="cls-2" d="M12.5,5.57H7.24v.65A2.58,2.58,0,0,0,7.35,7a3.93,3.93,0,0,0,.3.66,4.92,4.92,0,0,0,.44.58c.17.18.35.35.54.52l.59.5c.2.15.39.31.58.47s.35.3.5.45a4.11,4.11,0,0,1,.38.45,2.55,2.55,0,0,1,.24.5,1.84,1.84,0,0,1,.09.57,1.42,1.42,0,0,1-.1.58,1.33,1.33,0,0,1-.29.41,1.17,1.17,0,0,1-.44.26,2.05,2.05,0,0,1-.55.05,2.73,2.73,0,0,1-1.05-.24,3.75,3.75,0,0,1-1-.72v1.31a2.85,2.85,0,0,0,.52.33,2.7,2.7,0,0,0,.55.24,3,3,0,0,0,.59.15,3.64,3.64,0,0,0,.66,0,3.77,3.77,0,0,0,1-.14,2.2,2.2,0,0,0,.79-.44,2,2,0,0,0,.51-.73,2.46,2.46,0,0,0,.18-1,2.88,2.88,0,0,0-.13-.92,2.65,2.65,0,0,0-.36-.76,4,4,0,0,0-.56-.67c-.21-.21-.46-.43-.73-.65l-.67-.53c-.23-.18-.43-.35-.61-.51a3.5,3.5,0,0,1-.44-.5.9.9,0,0,1-.16-.5H12.5Z"/></symbol><symbol id="New_Symbol_45" data-name="New Symbol 45" viewBox="0 0 20 20"><circle class="cls-1" cx="10" cy="10" r="10"/><path class="cls-2" d="M7.58,5.77v1.3a3,3,0,0,1,1.67-.55A2.07,2.07,0,0,1,10.63,7a1.4,1.4,0,0,1,.52,1.16,1.32,1.32,0,0,1-.53,1.12,2.54,2.54,0,0,1-1.52.4,12.8,12.8,0,0,1-1.38-.07L8,14h4.14V12.81h-3L9,10.71h.73A2.89,2.89,0,0,0,11.82,10a2.43,2.43,0,0,0,.68-1.86,2.57,2.57,0,0,0-.84-2,3.29,3.29,0,0,0-2.29-.75A3.57,3.57,0,0,0,7.58,5.77Z"/></symbol></defs><title>OJ104329345</title><g id="bg"><g id="Shapes"><rect class="cls-2" y="0.24" width="492.8" height="180.12"/><rect class="cls-3" y="0.48" width="105" height="155"/><rect class="cls-4" x="369.66" y="60" width="105" height="95"/><rect class="cls-5" x="369.66" width="105" height="55"/><line class="cls-6" x1="104.64" y1="15" x2="364.17" y2="15"/><polygon points="363.07 18.74 369.55 15.01 363.07 11.27 363.07 18.74"/><line class="cls-6" x1="110.03" y1="44.89" x2="369.55" y2="44.89"/><polygon points="111.12 48.63 104.64 44.89 111.12 41.15 111.12 48.63"/><line class="cls-6" x1="104.64" y1="85.48" x2="364.17" y2="85.48"/><polygon points="363.07 89.21 369.55 85.47 363.07 81.74 363.07 89.21"/><line class="cls-6" x1="110.03" y1="136.1" x2="369.55" y2="136.1"/><polygon points="111.12 139.84 104.64 136.1 111.12 132.36 111.12 139.84"/><path class="cls-6" d="M50.54,155.24v7.26c0,4,4.5,7.27,10,7.28l419.1.76a10,10,0,0,0,10-10V30.27a2.68,2.68,0,0,0-2.81-2.51H480" transform="translate(0 0.24)"/><polygon points="481.12 24.26 474.64 28.01 481.12 31.74 481.12 24.26"/><path d="M80.24,38.07A34.78,34.78,0,0,0,52.51,24.4a34.94,34.94,0,1,0,0,69.89,35.37,35.37,0,0,0,21.27-7.21,34.84,34.84,0,0,0,6.59-48.84Zm1.65,29.18c-1.24-.93-3-2.31-5.31-4.14a6.89,6.89,0,0,0-.77-6.4,6.65,6.65,0,0,0-8.55-1.54c-3.06-2.74-6.41-5.89-10-9.44,10.74-5.88,18.63-5.17,19.1-5.12l.33.41A30.24,30.24,0,0,1,81.89,67.25ZM62.7,75.48a6.53,6.53,0,0,0-1.09-2.38,5.93,5.93,0,0,0-8-1.4,55.93,55.93,0,0,1-8.15-5.41l-.71-.6a9.26,9.26,0,0,0-1.31-9c0-.07-.11-.13-.16-.19.6-.64,1.22-1.28,1.89-1.89a57.69,57.69,0,0,1,8-6.46h.08l-.09.07C56.9,51.69,60.92,55,64.72,58a6.55,6.55,0,0,0,.58,6.69A6.68,6.68,0,0,0,74.53,66a3.7,3.7,0,0,0,.42-.37c2.72,1.93,4.88,3.39,6.13,4.24a29.89,29.89,0,0,1-3.4,6.66A32,32,0,0,1,62.7,75.48Zm9.37-39.31a33,33,0,0,0-20.31,3.75C49,37,46.11,33.75,43.16,30.45A30.28,30.28,0,0,1,72.07,36.17ZM34,35.27a30.94,30.94,0,0,1,5.08-3.15,62.37,62.37,0,0,0,8.24,10.37,51.24,51.24,0,0,0-8.4,7.3c-1,1.1-1.94,2.19-2.8,3.29a8.83,8.83,0,0,0-4.27,1,24.31,24.31,0,0,1-3.36-13.39A30.08,30.08,0,0,1,34,35.27ZM24.91,46.53A22.24,22.24,0,0,0,28,58a9.19,9.19,0,0,0,.83,10h0a54.87,54.87,0,0,0-1.38,8.65A30.38,30.38,0,0,1,24.91,46.53ZM52.47,89.85A30,30,0,0,1,33,82.73a41.74,41.74,0,0,1,1.52-11.28,9.23,9.23,0,0,0,6.88-1.53l.77.59A50.12,50.12,0,0,0,50.79,76,5.89,5.89,0,0,0,52,80.52a6.06,6.06,0,0,0,8.48,1.17A6,6,0,0,0,62,80a54.94,54.94,0,0,0,11.72,1.22A28.7,28.7,0,0,1,71,83.56,30.17,30.17,0,0,1,52.47,89.85Z" transform="translate(0 0.24)"/><use width="20" height="20" transform="matrix(1, 0, 0, -1, 158.55, 146.03)" xlink:href="#New_Symbol_44"/><use width="20" height="20" transform="matrix(1, 0, 0, -1, 158.55, 97.44)" xlink:href="#New_Symbol_43"/><use width="20" height="20" transform="matrix(1, 0, 0, -1, 158.55, 24.44)" xlink:href="#New_Symbol_41"/><use width="20" height="20" transform="matrix(1, 0, 0, -1, 158.55, 54.33)" xlink:href="#New_Symbol_42"/></g><g id="Text"><polygon class="cls-7" points="192.2 105.97 184.65 111.42 187.53 120.22 196.88 120.22 199.76 111.42 192.2 105.97"/><polygon class="cls-7" points="191.22 150.48 183.66 155.92 186.55 164.73 195.89 164.73 198.78 155.92 191.22 150.48"/><use width="20" height="20" transform="matrix(1, 0, 0, -1, 158.55, 179.44)" xlink:href="#New_Symbol_45"/></g></g><g id="txt"><path class="cls-8" d="M16.54,114.68v-8.4H19.6a3.79,3.79,0,0,1,2.16.52,1.65,1.65,0,0,1,.75,1.45,1.71,1.71,0,0,1-.46,1.19,2.41,2.41,0,0,1-1.17.71v0a2.39,2.39,0,0,1,1.43.66,1.86,1.86,0,0,1,.54,1.34A2.28,2.28,0,0,1,22,114a3.45,3.45,0,0,1-2.25.67Zm1.89-7v2h.83a1.37,1.37,0,0,0,.92-.29,1,1,0,0,0,.34-.78q0-.93-1.38-.93Zm0,3.4v2.22h1a1.52,1.52,0,0,0,1-.31,1,1,0,0,0,.38-.83,1,1,0,0,0-.37-.79,1.63,1.63,0,0,0-1-.29Z" transform="translate(0 0.24)"/><path class="cls-8" d="M29.44,112.21H25.53c.06.87.61,1.31,1.64,1.31a3.24,3.24,0,0,0,1.74-.47v1.33a4.5,4.5,0,0,1-2.16.45,2.79,2.79,0,0,1-3.06-3,3.2,3.2,0,0,1,.87-2.37,2.9,2.9,0,0,1,2.13-.87,2.62,2.62,0,0,1,2,.78,3,3,0,0,1,.72,2.11Zm-1.72-1.14c0-.86-.34-1.29-1-1.29a1,1,0,0,0-.77.37,1.72,1.72,0,0,0-.4.92Z" transform="translate(0 0.24)"/><path class="cls-8" d="M35.86,105.66v1.46a1.6,1.6,0,0,1-.75.29l-1.58.26a2,2,0,0,0-.78.34,1.58,1.58,0,0,0-.4.61,4.08,4.08,0,0,0-.21,1h0a2.28,2.28,0,0,1,1.79-.77,2.58,2.58,0,0,1,2,.76,2.91,2.91,0,0,1,.71,2.09,3.06,3.06,0,0,1-.87,2.29,3.27,3.27,0,0,1-2.37.85,2.89,2.89,0,0,1-2.38-1,4.45,4.45,0,0,1-.81-2.88,9,9,0,0,1,.13-1.63,5,5,0,0,1,.41-1.29,3.29,3.29,0,0,1,.66-.94,2.72,2.72,0,0,1,.81-.54,4.73,4.73,0,0,1,.81-.26c.27-.06.93-.17,2-.33A3.58,3.58,0,0,0,35.86,105.66Zm-3.75,5.24c0,.1,0,.28,0,.55a2.5,2.5,0,0,0,.36,1.43,1.15,1.15,0,0,0,1,.53,1.16,1.16,0,0,0,.94-.44,1.86,1.86,0,0,0,.37-1.19,1.75,1.75,0,0,0-.37-1.18,1.21,1.21,0,0,0-1-.43,1.48,1.48,0,0,0-.76.21A1.5,1.5,0,0,0,32.11,110.9Z" transform="translate(0 0.24)"/><path class="cls-8" d="M41.11,112.13h-3.2v-1.3h3.2Z" transform="translate(0 0.24)"/><path class="cls-8" d="M48,105.66v1.46a1.51,1.51,0,0,1-.75.29l-1.57.26a1.9,1.9,0,0,0-.78.34,1.58,1.58,0,0,0-.4.61,4.08,4.08,0,0,0-.21,1h0a2.26,2.26,0,0,1,1.79-.77,2.59,2.59,0,0,1,2,.76,3,3,0,0,1,.71,2.09,3.06,3.06,0,0,1-.87,2.29,3.27,3.27,0,0,1-2.37.85,2.88,2.88,0,0,1-2.38-1,4.45,4.45,0,0,1-.81-2.88,9,9,0,0,1,.13-1.63,5,5,0,0,1,.41-1.29,3.29,3.29,0,0,1,.66-.94,2.49,2.49,0,0,1,.81-.54,4.73,4.73,0,0,1,.81-.26c.27-.06.93-.17,2-.33A3.31,3.31,0,0,0,48,105.66Zm-3.74,5.24c0,.1,0,.28,0,.55a2.5,2.5,0,0,0,.36,1.43,1.15,1.15,0,0,0,1,.53,1.18,1.18,0,0,0,.94-.44,1.86,1.86,0,0,0,.36-1.19,1.75,1.75,0,0,0-.36-1.18,1.24,1.24,0,0,0-1-.43,1.48,1.48,0,0,0-.76.21A1.5,1.5,0,0,0,44.27,110.9Z" transform="translate(0 0.24)"/><path class="cls-8" d="M51.88,114h0v3.45H50v-8.76h1.85v.9h0a2.19,2.19,0,0,1,1.93-1,2.14,2.14,0,0,1,1.8.8,3.4,3.4,0,0,1,.64,2.17,3.66,3.66,0,0,1-.75,2.41,2.4,2.4,0,0,1-2,.91A1.87,1.87,0,0,1,51.88,114Zm-.05-2.47V112a1.53,1.53,0,0,0,.33,1,1.06,1.06,0,0,0,.86.39,1.12,1.12,0,0,0,1-.49,2.36,2.36,0,0,0,.35-1.38q0-1.59-1.23-1.59a1.18,1.18,0,0,0-.93.43A1.73,1.73,0,0,0,51.83,111.52Z" transform="translate(0 0.24)"/><path class="cls-8" d="M62.32,114.68H60.57v-.86h0a2,2,0,0,1-1.79,1,1.86,1.86,0,0,1-1.37-.5,1.76,1.76,0,0,1-.51-1.32q0-1.74,2.07-2l1.63-.22c0-.66-.35-1-1.06-1a3.65,3.65,0,0,0-2,.63V109a4.57,4.57,0,0,1,1.05-.35,5.71,5.71,0,0,1,1.23-.15,2.26,2.26,0,0,1,2.56,2.56Zm-1.74-2.43v-.41l-1.09.14c-.6.08-.9.35-.9.82a.64.64,0,0,0,.22.51.82.82,0,0,0,.59.21,1.08,1.08,0,0,0,.85-.36A1.31,1.31,0,0,0,60.58,112.25Z" transform="translate(0 0.24)"/><path class="cls-8" d="M69.5,108.68l-2.44,6.48c-.58,1.56-1.47,2.34-2.65,2.34a3.39,3.39,0,0,1-1.1-.15v-1.48a1.48,1.48,0,0,0,.8.22,1,1,0,0,0,1-.67l.31-.75-2.44-6H65l1.11,3.65a5,5,0,0,1,.17.81h0a5.81,5.81,0,0,1,.2-.8l1.13-3.66Z" transform="translate(0 0.24)"/><path class="cls-8" d="M69.93,114.52v-1.34a4.08,4.08,0,0,0,1.73.4c.83,0,1.25-.23,1.25-.68s-.45-.71-1.36-.71h-.84V111h.85c.78,0,1.17-.22,1.17-.68s-.35-.6-1-.6a3.85,3.85,0,0,0-1.57.35v-1.27a7,7,0,0,1,1.9-.3c1.75,0,2.62.54,2.62,1.62,0,.75-.47,1.21-1.4,1.39v0a1.91,1.91,0,0,1,1.16.44,1.26,1.26,0,0,1,.41,1c0,1.21-1,1.81-2.93,1.81A6,6,0,0,1,69.93,114.52Z" transform="translate(0 0.24)"/><path class="cls-8" d="M81.4,112.21H77.49c.06.87.61,1.31,1.64,1.31a3.24,3.24,0,0,0,1.74-.47v1.33a4.5,4.5,0,0,1-2.16.45,2.81,2.81,0,0,1-3.06-3,3.2,3.2,0,0,1,.87-2.37,2.9,2.9,0,0,1,2.13-.87,2.62,2.62,0,0,1,2,.78,3,3,0,0,1,.72,2.11Zm-1.72-1.14c0-.86-.34-1.29-1-1.29a1,1,0,0,0-.77.37,1.72,1.72,0,0,0-.4.92Z" transform="translate(0 0.24)"/><path class="cls-8" d="M84.38,114h0v3.45H82.5v-8.76h1.85v.9h0a2.36,2.36,0,0,1,3.73-.24,3.4,3.4,0,0,1,.63,2.17,3.65,3.65,0,0,1-.74,2.41,2.4,2.4,0,0,1-2,.91A1.87,1.87,0,0,1,84.38,114Zm-.06-2.47V112a1.53,1.53,0,0,0,.33,1,1.08,1.08,0,0,0,.86.39,1.14,1.14,0,0,0,1-.49,2.37,2.37,0,0,0,.34-1.38q0-1.59-1.23-1.59a1.18,1.18,0,0,0-.93.43A1.73,1.73,0,0,0,84.32,111.52Z" transform="translate(0 0.24)"/><path class="cls-9" d="M185.39,66.86V65.79a3.62,3.62,0,0,0,2.23.73,2.24,2.24,0,0,0,1.45-.44,1.48,1.48,0,0,0,.53-1.19c0-1.08-.73-1.61-2.18-1.61h-.88v-.82h.81a2.26,2.26,0,0,0,1.44-.4,1.38,1.38,0,0,0,.51-1.15,1.29,1.29,0,0,0-.42-1,1.71,1.71,0,0,0-1.17-.38,3.66,3.66,0,0,0-2.05.66v-1a4.25,4.25,0,0,1,2.13-.52,2.85,2.85,0,0,1,1.88.57,1.84,1.84,0,0,1,.69,1.49,1.94,1.94,0,0,1-1.6,2.06v0a2.1,2.1,0,0,1,1.38.65,1.93,1.93,0,0,1,.51,1.36,2.26,2.26,0,0,1-.82,1.84,3.37,3.37,0,0,1-2.24.68A4.08,4.08,0,0,1,185.39,66.86Z" transform="translate(0 0.24)"/><path class="cls-9" d="M196.5,67.21h-1v-.93h0a2,2,0,0,1-1.85,1.07,2,2,0,0,1-1.4-.47,1.65,1.65,0,0,1-.51-1.26c0-1.12.66-1.77,2-2l1.8-.25q0-1.53-1.23-1.53a3,3,0,0,0-2,.74v-1a3.76,3.76,0,0,1,2-.56c1.41,0,2.11.75,2.11,2.24Zm-1-3-1.45.2a2.25,2.25,0,0,0-1,.33,1,1,0,0,0-.34.84.92.92,0,0,0,.31.72,1.25,1.25,0,0,0,.84.27,1.53,1.53,0,0,0,1.18-.5,1.76,1.76,0,0,0,.46-1.26Z" transform="translate(0 0.24)"/><path class="cls-9" d="M203.22,67.21h-1V62H199.2v5.18h-1v-6h5Z" transform="translate(0 0.24)"/><path class="cls-9" d="M206.08,66.35h0V70h-1V61.21h1v1.06h0a2.26,2.26,0,0,1,2.07-1.2,2.18,2.18,0,0,1,1.81.81,3.29,3.29,0,0,1,.65,2.16,3.72,3.72,0,0,1-.73,2.41,2.44,2.44,0,0,1-2,.9A2,2,0,0,1,206.08,66.35Zm0-2.42v.83a1.81,1.81,0,0,0,.48,1.27,1.73,1.73,0,0,0,2.59-.15,3.09,3.09,0,0,0,.5-1.86,2.41,2.41,0,0,0-.46-1.57,1.54,1.54,0,0,0-1.26-.57,1.71,1.71,0,0,0-1.34.58A2.16,2.16,0,0,0,206.06,63.93Z" transform="translate(0 0.24)"/><path class="cls-9" d="M214.58,67.35a2.79,2.79,0,0,1-2.12-.84,3.1,3.1,0,0,1-.79-2.23,3.26,3.26,0,0,1,.82-2.36,3,3,0,0,1,2.24-.85,2.69,2.69,0,0,1,2.09.83,3.27,3.27,0,0,1,.75,2.29,3.23,3.23,0,0,1-.81,2.3A2.82,2.82,0,0,1,214.58,67.35Zm.08-5.47a1.84,1.84,0,0,0-1.47.63,2.59,2.59,0,0,0-.54,1.74,2.41,2.41,0,0,0,.55,1.68,1.85,1.85,0,0,0,1.46.61,1.77,1.77,0,0,0,1.43-.6,2.63,2.63,0,0,0,.5-1.72,2.68,2.68,0,0,0-.5-1.73A1.74,1.74,0,0,0,214.66,61.88Z" transform="translate(0 0.24)"/><path class="cls-9" d="M223.13,66.94a3.19,3.19,0,0,1-1.64.41,2.72,2.72,0,0,1-2.08-.83,3.06,3.06,0,0,1-.78-2.17,3.32,3.32,0,0,1,.85-2.38,3,3,0,0,1,2.26-.9,3.1,3.1,0,0,1,1.4.3v1a2.47,2.47,0,0,0-1.43-.47,1.93,1.93,0,0,0-1.51.66,2.52,2.52,0,0,0-.59,1.73,2.45,2.45,0,0,0,.55,1.67,1.94,1.94,0,0,0,1.49.6,2.41,2.41,0,0,0,1.48-.52Z" transform="translate(0 0.24)"/><path class="cls-9" d="M232.5,61.21l-2.76,7c-.49,1.25-1.19,1.87-2.08,1.87A2.17,2.17,0,0,1,227,70V69.1a1.74,1.74,0,0,0,.57.11,1.19,1.19,0,0,0,1.09-.87l.48-1.14-2.35-6h1.07l1.62,4.62c0,.06.06.21.12.46h0q0-.15.12-.45l1.7-4.63Z" transform="translate(0 0.24)"/><path class="cls-9" d="M238.29,67.21h-.95V64.8a4.19,4.19,0,0,1-2,.57q-2,0-2-2.13v-2h1v2c0,.88.37,1.32,1.13,1.32a4.26,4.26,0,0,0,1.87-.5v-2.8h.95Z" transform="translate(0 0.24)"/><path class="cls-9" d="M245,64.45h-4.24a2.28,2.28,0,0,0,.54,1.55,1.87,1.87,0,0,0,1.42.54,3,3,0,0,0,1.86-.66v.9a3.5,3.5,0,0,1-2.09.57,2.56,2.56,0,0,1-2-.81,3.39,3.39,0,0,1-.73-2.3,3.29,3.29,0,0,1,.8-2.29,2.56,2.56,0,0,1,2-.88,2.27,2.27,0,0,1,1.82.76A3.2,3.2,0,0,1,245,64Zm-1-.81a2,2,0,0,0-.4-1.3,1.39,1.39,0,0,0-1.1-.46,1.52,1.52,0,0,0-1.15.49,2.22,2.22,0,0,0-.59,1.27Z" transform="translate(0 0.24)"/><path class="cls-9" d="M250.14,62h-1.8v5.18h-1V62h-1.81v-.82h4.57Z" transform="translate(0 0.24)"/><path class="cls-9" d="M256.2,67.21h-1V64.49h-3.06v2.72h-1v-6h1v2.46h3.06V61.21h1Z" transform="translate(0 0.24)"/><path class="cls-9" d="M258.07,67.21v-6h1v2.31h1.62a2.12,2.12,0,0,1,1.46.48,1.69,1.69,0,0,1,.54,1.34,1.79,1.79,0,0,1-.54,1.37,2,2,0,0,1-1.38.5Zm1-2.87v2h1.44q1.2,0,1.2-1c0-.67-.4-1-1.21-1Zm5.6,2.87h-.94v-6h.94Z" transform="translate(0 0.24)"/><path class="cls-9" d="M270.9,61.21l-2,3,2,3h-1.12l-1.18-1.94-.26-.46h0l-.28.46-1.2,1.94h-1.11l2.05-2.94-2-3.06h1.12l1.16,2,.25.47h0l1.5-2.52Z" transform="translate(0 0.24)"/><path class="cls-9" d="M191,82.4h-.81V80.21h-4.47V82.4h-.82v-3h.53A8.94,8.94,0,0,0,187,74.21h3.12V79.4H191Zm-1.85-3V75h-1.33a9.33,9.33,0,0,1-1.37,4.37Z" transform="translate(0 0.24)"/><path class="cls-9" d="M196.58,80.21h-1v-.93h0a2,2,0,0,1-1.85,1.07,2,2,0,0,1-1.4-.47,1.65,1.65,0,0,1-.51-1.26c0-1.12.66-1.77,2-2l1.8-.25q0-1.53-1.23-1.53a3,3,0,0,0-2,.74v-1a3.76,3.76,0,0,1,2-.56c1.41,0,2.11.75,2.11,2.24Zm-1-3-1.44.2a2.3,2.3,0,0,0-1,.33,1,1,0,0,0-.34.84.92.92,0,0,0,.31.72,1.25,1.25,0,0,0,.84.27,1.53,1.53,0,0,0,1.18-.5,1.76,1.76,0,0,0,.46-1.26Z" transform="translate(0 0.24)"/><path class="cls-9" d="M203.3,80.21h-1V77.49h-3.06v2.72h-1v-6h1v2.46h3.06V74.21h1Z" transform="translate(0 0.24)"/><path class="cls-9" d="M210.16,80.21h-1V77.49h-3.06v2.72h-1v-6h1v2.46h3.06V74.21h1Z" transform="translate(0 0.24)"/><path class="cls-9" d="M212,80.21v-6h1v2.31h1.62a2.12,2.12,0,0,1,1.46.48,1.69,1.69,0,0,1,.54,1.34,1.79,1.79,0,0,1-.54,1.37,2,2,0,0,1-1.38.5Zm1-2.87v2h1.44q1.2,0,1.2-1c0-.67-.4-1-1.21-1Zm5.6,2.87h-1v-6h1Z" transform="translate(0 0.24)"/><path class="cls-9" d="M224.85,74.21l-2,3,2,3H223.7l-1.18-1.94-.26-.46h0l-.28.46-1.2,1.94h-1.11l2-2.94-2-3.06h1.12L222,76.26l.25.47h0l1.5-2.52Z" transform="translate(0 0.24)"/><path class="cls-9" d="M212.71,116.61h-1V111c0-.45,0-1,.09-1.64h0a4.6,4.6,0,0,1-.25.82l-2.87,6.45h-.48l-2.87-6.41a5.64,5.64,0,0,1-.25-.86h0c0,.34,0,.89,0,1.65v5.62h-.95v-8.4h1.3l2.58,5.86a7,7,0,0,1,.38,1h0c.17-.46.3-.81.4-1l2.63-5.84h1.23Z" transform="translate(0 0.24)"/><path class="cls-9" d="M219.06,116.61h-1v-.94h0a2.2,2.2,0,0,1-3.25.61,1.65,1.65,0,0,1-.51-1.26c0-1.12.66-1.77,2-2l1.8-.25q0-1.53-1.23-1.53a3,3,0,0,0-2,.74v-1a3.76,3.76,0,0,1,2-.56c1.41,0,2.11.75,2.11,2.24Zm-1-3-1.44.2a2.3,2.3,0,0,0-1,.33,1,1,0,0,0-.34.84.92.92,0,0,0,.31.72,1.25,1.25,0,0,0,.84.27,1.53,1.53,0,0,0,1.18-.5,1.77,1.77,0,0,0,.46-1.27Z" transform="translate(0 0.24)"/><path class="cls-9" d="M221.84,115.75h0v3.62h-1v-8.76h1v1.06h0a2.26,2.26,0,0,1,2.07-1.2,2.19,2.19,0,0,1,1.81.81,3.33,3.33,0,0,1,.65,2.16,3.72,3.72,0,0,1-.73,2.41,2.46,2.46,0,0,1-2,.9A2,2,0,0,1,221.84,115.75Zm0-2.42v.83a1.77,1.77,0,0,0,.49,1.27,1.73,1.73,0,0,0,2.59-.15,3.09,3.09,0,0,0,.5-1.86,2.41,2.41,0,0,0-.47-1.57,1.52,1.52,0,0,0-1.25-.57,1.7,1.7,0,0,0-1.35.58A2.16,2.16,0,0,0,221.81,113.33Z" transform="translate(0 0.24)"/><path class="cls-9" d="M232.86,116.61h-1.35l-2.64-2.88h0v2.88h-1v-6h1v2.75h0l2.52-2.75h1.26l-2.79,2.9Z" transform="translate(0 0.24)"/><path class="cls-9" d="M238.64,113.85h-4.23a2.19,2.19,0,0,0,.54,1.55,1.85,1.85,0,0,0,1.42.54,3,3,0,0,0,1.86-.66v.9a3.52,3.52,0,0,1-2.09.57,2.54,2.54,0,0,1-2-.81,3.34,3.34,0,0,1-.73-2.3,3.29,3.29,0,0,1,.8-2.29,2.56,2.56,0,0,1,2-.88,2.28,2.28,0,0,1,1.82.76,3.19,3.19,0,0,1,.64,2.12Zm-1-.81a2,2,0,0,0-.4-1.3,1.36,1.36,0,0,0-1.1-.46,1.52,1.52,0,0,0-1.15.49,2.13,2.13,0,0,0-.59,1.27Z" transform="translate(0 0.24)"/><path class="cls-9" d="M241.06,115.75h0v3.62h-1v-8.76h1v1.06h0a2.26,2.26,0,0,1,2.07-1.2,2.18,2.18,0,0,1,1.81.81,3.28,3.28,0,0,1,.65,2.16,3.72,3.72,0,0,1-.73,2.41,2.45,2.45,0,0,1-2,.9A2,2,0,0,1,241.06,115.75Zm0-2.42v.83a1.82,1.82,0,0,0,.49,1.27,1.73,1.73,0,0,0,2.59-.15,3.09,3.09,0,0,0,.5-1.86,2.47,2.47,0,0,0-.46-1.57,1.54,1.54,0,0,0-1.26-.57,1.7,1.7,0,0,0-1.35.58A2.16,2.16,0,0,0,241,113.33Z" transform="translate(0 0.24)"/><path class="cls-9" d="M255.6,118.8h-.81v-2.19h-4.47v2.19h-.82v-3H250a8.94,8.94,0,0,0,1.56-5.19h3.12v5.19h.89Zm-1.85-3v-4.37h-1.33a9.33,9.33,0,0,1-1.37,4.37Z" transform="translate(0 0.24)"/><path class="cls-9" d="M259.41,116.75a2.79,2.79,0,0,1-2.12-.84,3.1,3.1,0,0,1-.79-2.23,3.24,3.24,0,0,1,.82-2.36,3,3,0,0,1,2.23-.85,2.7,2.7,0,0,1,2.1.83,3.27,3.27,0,0,1,.75,2.29,3.23,3.23,0,0,1-.81,2.3A2.87,2.87,0,0,1,259.41,116.75Zm.07-5.47a1.83,1.83,0,0,0-1.46.63,2.59,2.59,0,0,0-.54,1.74,2.41,2.41,0,0,0,.55,1.68,1.84,1.84,0,0,0,1.45.61,1.77,1.77,0,0,0,1.44-.6,2.63,2.63,0,0,0,.5-1.72,2.68,2.68,0,0,0-.5-1.73A1.75,1.75,0,0,0,259.48,111.28Z" transform="translate(0 0.24)"/><path class="cls-9" d="M268,116.34a3.17,3.17,0,0,1-1.64.41,2.75,2.75,0,0,1-2.07-.83,3.06,3.06,0,0,1-.79-2.17,3.35,3.35,0,0,1,.85-2.38,3,3,0,0,1,2.27-.9,3.2,3.2,0,0,1,1.39.29v1a2.45,2.45,0,0,0-1.43-.47,1.91,1.91,0,0,0-1.5.66,2.47,2.47,0,0,0-.59,1.73,2.36,2.36,0,0,0,.55,1.66,1.91,1.91,0,0,0,1.49.61,2.38,2.38,0,0,0,1.47-.52Z" transform="translate(0 0.24)"/><path class="cls-9" d="M273.2,111.43h-1.8v5.18h-1v-5.18h-1.81v-.82h4.57Z" transform="translate(0 0.24)"/><path class="cls-9" d="M279.11,110.61l-2.76,7c-.5,1.25-1.19,1.87-2.08,1.87a2.25,2.25,0,0,1-.63-.08v-.86a1.8,1.8,0,0,0,.57.1,1.16,1.16,0,0,0,1.09-.86l.48-1.14-2.34-6h1.07l1.62,4.62c0,.06.06.21.12.46h0c0-.1.06-.25.11-.45l1.71-4.63Z" transform="translate(0 0.24)"/><path class="cls-9" d="M285.09,116.61h-1v-5.18h-3.06v5.18h-1v-6h5Z" transform="translate(0 0.24)"/><path class="cls-9" d="M291.31,116.61h-1v-.94h0a2,2,0,0,1-1.85,1.08,2,2,0,0,1-1.4-.47,1.65,1.65,0,0,1-.51-1.26c0-1.12.66-1.77,2-2l1.8-.25c0-1-.41-1.53-1.24-1.53a3,3,0,0,0-1.95.74v-1a3.73,3.73,0,0,1,2-.56c1.41,0,2.12.75,2.12,2.24Zm-1-3-1.45.2a2.35,2.35,0,0,0-1,.33,1,1,0,0,0-.34.84.93.93,0,0,0,.32.72,1.22,1.22,0,0,0,.83.27,1.51,1.51,0,0,0,1.18-.5,1.78,1.78,0,0,0,.47-1.27Z" transform="translate(0 0.24)"/><path class="cls-9" d="M302.25,113.51h-2.36v2.36h-.78v-2.36h-2.36v-.79h2.36v-2.36h.78v2.36h2.36Z" transform="translate(0 0.24)"/><path class="cls-9" d="M210.29,126.71q0,3.54-3.19,3.54t-3.06-3.4v-5.14h1v5.07c0,1.73.72,2.59,2.18,2.59s2.1-.83,2.1-2.5v-5.16h1Z" transform="translate(0 0.24)"/><path class="cls-9" d="M218.39,130.11h-1.17l-1.41-2.35a5,5,0,0,0-.37-.56,2.24,2.24,0,0,0-.37-.38,1.23,1.23,0,0,0-.41-.21,1.59,1.59,0,0,0-.5-.07h-.81v3.57h-1v-8.4h2.51a3.62,3.62,0,0,1,1,.14,2.23,2.23,0,0,1,.81.42,1.88,1.88,0,0,1,.54.7,2.58,2.58,0,0,1,.06,1.78,2.15,2.15,0,0,1-.38.66,2.32,2.32,0,0,1-.58.49,3.1,3.1,0,0,1-.77.31v0a2,2,0,0,1,.36.22,2,2,0,0,1,.3.28,4,4,0,0,1,.28.37c.09.14.19.3.3.49Zm-5-7.51v3.05h1.34a2.15,2.15,0,0,0,.68-.11,1.61,1.61,0,0,0,.54-.32,1.57,1.57,0,0,0,.36-.51,1.65,1.65,0,0,0,.13-.68,1.32,1.32,0,0,0-.44-1,1.88,1.88,0,0,0-1.26-.38Z" transform="translate(0 0.24)"/><path class="cls-9" d="M223.88,130.11h-4.36v-8.4h1v7.51h3.37Z" transform="translate(0 0.24)"/><path class="cls-9" d="M228.09,127.15h-3.2v-.76h3.2Z" transform="translate(0 0.24)"/><path class="cls-9" d="M234.09,130.11h-1v-.94h0a2.2,2.2,0,0,1-3.25.61,1.64,1.64,0,0,1-.5-1.26c0-1.12.66-1.77,2-2l1.8-.25c0-1-.42-1.53-1.24-1.53a3,3,0,0,0-2,.74v-1a3.76,3.76,0,0,1,2-.56c1.41,0,2.12.75,2.12,2.24Zm-1-3-1.45.2a2.3,2.3,0,0,0-1,.33,1,1,0,0,0-.34.84.92.92,0,0,0,.31.72,1.25,1.25,0,0,0,.84.27,1.51,1.51,0,0,0,1.18-.5,1.78,1.78,0,0,0,.47-1.27Z" transform="translate(0 0.24)"/><path class="cls-9" d="M241.1,132.3h-.81v-2.19h-4.46v2.19H235v-3h.53a9.09,9.09,0,0,0,1.56-5.19h3.11v5.19h.89Zm-1.85-3v-4.37h-1.33a9.32,9.32,0,0,1-1.36,4.37Z" transform="translate(0 0.24)"/><path class="cls-9" d="M243.4,129.25h0v3.62h-1v-8.76h1v1.06h0a2.26,2.26,0,0,1,2.07-1.2,2.19,2.19,0,0,1,1.81.81,3.33,3.33,0,0,1,.65,2.16,3.72,3.72,0,0,1-.73,2.41,2.46,2.46,0,0,1-2,.9A2,2,0,0,1,243.4,129.25Zm0-2.42v.83a1.77,1.77,0,0,0,.49,1.27,1.73,1.73,0,0,0,2.59-.15,3.09,3.09,0,0,0,.5-1.86,2.41,2.41,0,0,0-.47-1.57,1.52,1.52,0,0,0-1.25-.57,1.7,1.7,0,0,0-1.35.58A2.16,2.16,0,0,0,243.37,126.83Z" transform="translate(0 0.24)"/><path class="cls-9" d="M254.26,127.35H250a2.19,2.19,0,0,0,.54,1.55,1.85,1.85,0,0,0,1.41.54,3,3,0,0,0,1.87-.66v.9a3.52,3.52,0,0,1-2.09.57,2.54,2.54,0,0,1-2-.81,3.34,3.34,0,0,1-.73-2.3,3.29,3.29,0,0,1,.8-2.29,2.55,2.55,0,0,1,2-.88,2.28,2.28,0,0,1,1.82.76,3.19,3.19,0,0,1,.64,2.12Zm-1-.81a2,2,0,0,0-.4-1.3,1.37,1.37,0,0,0-1.1-.46,1.52,1.52,0,0,0-1.15.49,2.13,2.13,0,0,0-.59,1.27Z" transform="translate(0 0.24)"/><path class="cls-9" d="M259.78,129.84a3.17,3.17,0,0,1-1.64.41,2.75,2.75,0,0,1-2.07-.83,3.06,3.06,0,0,1-.79-2.17,3.35,3.35,0,0,1,.85-2.38,3,3,0,0,1,2.27-.9,3.2,3.2,0,0,1,1.39.29v1a2.44,2.44,0,0,0-1.42-.47,1.92,1.92,0,0,0-1.51.66,2.47,2.47,0,0,0-.59,1.73,2.36,2.36,0,0,0,.55,1.66,1.91,1.91,0,0,0,1.49.61,2.38,2.38,0,0,0,1.47-.52Z" transform="translate(0 0.24)"/><path class="cls-9" d="M269.46,130.11h-1v-5.18h-3.05v5.18h-1v-6h5Z" transform="translate(0 0.24)"/><path class="cls-9" d="M276.2,127.35H272a2.28,2.28,0,0,0,.54,1.55,1.88,1.88,0,0,0,1.42.54,2.94,2.94,0,0,0,1.86-.66v.9a3.47,3.47,0,0,1-2.09.57,2.56,2.56,0,0,1-2-.81,3.39,3.39,0,0,1-.72-2.3,3.29,3.29,0,0,1,.79-2.29,2.58,2.58,0,0,1,2-.88,2.25,2.25,0,0,1,1.82.76,3.2,3.2,0,0,1,.65,2.12Zm-1-.81a1.91,1.91,0,0,0-.4-1.3,1.36,1.36,0,0,0-1.1-.46,1.54,1.54,0,0,0-1.15.49,2.19,2.19,0,0,0-.59,1.27Z" transform="translate(0 0.24)"/><path class="cls-9" d="M278.61,129.25h0v3.62h-1v-8.76h1v1.06h0a2.28,2.28,0,0,1,2.08-1.2,2.2,2.2,0,0,1,1.81.81,3.33,3.33,0,0,1,.65,2.16,3.78,3.78,0,0,1-.73,2.41,2.46,2.46,0,0,1-2,.9A2,2,0,0,1,278.61,129.25Zm0-2.42v.83a1.81,1.81,0,0,0,.48,1.27,1.75,1.75,0,0,0,2.6-.15,3.09,3.09,0,0,0,.49-1.86,2.41,2.41,0,0,0-.46-1.57,1.53,1.53,0,0,0-1.25-.57,1.7,1.7,0,0,0-1.35.58A2.16,2.16,0,0,0,278.59,126.83Z" transform="translate(0 0.24)"/><path class="cls-9" d="M289.48,127.35h-4.23a2.23,2.23,0,0,0,.53,1.55,1.88,1.88,0,0,0,1.42.54,3,3,0,0,0,1.87-.66v.9a3.53,3.53,0,0,1-2.1.57,2.53,2.53,0,0,1-2-.81,3.34,3.34,0,0,1-.73-2.3,3.29,3.29,0,0,1,.79-2.29,2.58,2.58,0,0,1,2-.88,2.29,2.29,0,0,1,1.83.76,3.19,3.19,0,0,1,.64,2.12Zm-1-.81a2,2,0,0,0-.4-1.3,1.37,1.37,0,0,0-1.1-.46,1.54,1.54,0,0,0-1.16.49,2.18,2.18,0,0,0-.58,1.27Z" transform="translate(0 0.24)"/><path class="cls-9" d="M295.89,130.11h-1v-2.72h-3.06v2.72h-1v-6h1v2.46h3.06v-2.46h1Z" transform="translate(0 0.24)"/><path class="cls-9" d="M302.11,130.11h-1v-.94h0a2.2,2.2,0,0,1-3.25.61,1.68,1.68,0,0,1-.5-1.26c0-1.12.66-1.77,2-2l1.8-.25c0-1-.42-1.53-1.24-1.53a3,3,0,0,0-2,.74v-1a3.76,3.76,0,0,1,2-.56c1.41,0,2.12.75,2.12,2.24Zm-1-3-1.45.2a2.3,2.3,0,0,0-1,.33,1,1,0,0,0-.34.84.93.93,0,0,0,.32.72,1.2,1.2,0,0,0,.83.27,1.51,1.51,0,0,0,1.18-.5,1.78,1.78,0,0,0,.47-1.27Z" transform="translate(0 0.24)"/><path class="cls-9" d="M308.87,130.11h-1v-5.18h-3.06v5.18h-1v-6h5Z" transform="translate(0 0.24)"/><path class="cls-9" d="M311.78,129.25h0v3.62h-1v-8.76h1v1.06h0a2.26,2.26,0,0,1,2.07-1.2,2.18,2.18,0,0,1,1.81.81,3.28,3.28,0,0,1,.65,2.16,3.72,3.72,0,0,1-.73,2.41,2.44,2.44,0,0,1-2,.9A2,2,0,0,1,311.78,129.25Zm0-2.42v.83a1.81,1.81,0,0,0,.48,1.27,1.73,1.73,0,0,0,2.59-.15,3,3,0,0,0,.5-1.86,2.41,2.41,0,0,0-.46-1.57,1.54,1.54,0,0,0-1.26-.57,1.68,1.68,0,0,0-1.34.58A2.16,2.16,0,0,0,311.76,126.83Z" transform="translate(0 0.24)"/><path class="cls-9" d="M322.12,130.11h-1v-.94h0a2,2,0,0,1-1.85,1.08,2,2,0,0,1-1.4-.47,1.65,1.65,0,0,1-.51-1.26c0-1.12.66-1.77,2-2l1.8-.25c0-1-.41-1.53-1.24-1.53a3,3,0,0,0-1.95.74v-1a3.76,3.76,0,0,1,2-.56c1.41,0,2.11.75,2.11,2.24Zm-1-3-1.45.2a2.25,2.25,0,0,0-1,.33,1,1,0,0,0-.34.84.92.92,0,0,0,.31.72,1.24,1.24,0,0,0,.83.27,1.51,1.51,0,0,0,1.18-.5,1.78,1.78,0,0,0,.47-1.27Z" transform="translate(0 0.24)"/><path class="cls-9" d="M323.91,130.11v-6h2.61a2.26,2.26,0,0,1,1.4.39,1.3,1.3,0,0,1,.51,1.08,1.32,1.32,0,0,1-1.15,1.42c.92.11,1.38.58,1.38,1.38a1.56,1.56,0,0,1-.57,1.23,2,2,0,0,1-1.4.5Zm1-5.18v1.69h1.44c.77,0,1.16-.3,1.16-.9s-.35-.79-1-.79Zm0,2.51v1.85h1.66c.78,0,1.17-.31,1.17-.94s-.44-.91-1.31-.91Z" transform="translate(0 0.24)"/><path class="cls-9" d="M334.62,130.11h-1v-5.18h-1.39a12.72,12.72,0,0,1-.82,4.09,1.77,1.77,0,0,1-1.57,1.17,1.39,1.39,0,0,1-.52-.08v-.82a1,1,0,0,0,.45.1q1.29,0,1.66-5.28h3.15Z" transform="translate(0 0.24)"/><path class="cls-9" d="M341.36,127.35h-4.23a2.23,2.23,0,0,0,.53,1.55,1.88,1.88,0,0,0,1.42.54,3,3,0,0,0,1.87-.66v.9a3.53,3.53,0,0,1-2.1.57,2.53,2.53,0,0,1-2-.81,3.34,3.34,0,0,1-.73-2.3,3.29,3.29,0,0,1,.79-2.29,2.58,2.58,0,0,1,2-.88,2.29,2.29,0,0,1,1.83.76,3.19,3.19,0,0,1,.64,2.12Zm-1-.81a2,2,0,0,0-.4-1.3,1.37,1.37,0,0,0-1.1-.46,1.54,1.54,0,0,0-1.16.49,2.18,2.18,0,0,0-.58,1.27Z" transform="translate(0 0.24)"/><path class="cls-9" d="M347.77,130.11h-1v-2.72h-3.06v2.72h-1v-6h1v2.46h3.06v-2.46h1Z" transform="translate(0 0.24)"/><path class="cls-9" d="M354.72,130.11h-.87v-4.78c-.08.16-.21.4-.39.7l-2.77,4.08h-1v-6h.88v4.73a6.36,6.36,0,0,1,.31-.58l2.84-4.15h1Z" transform="translate(0 0.24)"/><path class="cls-9" d="M360.74,130.11h-1v-2.48H359c-.39,0-.74.31-1.06.94l-.78,1.54H356l1-1.85a1.79,1.79,0,0,1,.85-.85,1.62,1.62,0,0,1-1.07-.51,1.56,1.56,0,0,1-.37-1.06,1.54,1.54,0,0,1,.57-1.26,2.54,2.54,0,0,1,1.62-.47h2.1Zm-1-3.28v-1.9h-1.14c-.8,0-1.21.31-1.21.92s.39,1,1.18,1Z" transform="translate(0 0.24)"/><path class="cls-10" d="M396.65,96.5h-1.89V89.75h-3.48V96.5h-1.89V88.1h7.26Z" transform="translate(0 0.24)"/><path class="cls-10" d="M404.07,96.5H402.2V91.81h-1a9.75,9.75,0,0,1-1,3.74,2,2,0,0,1-1.8,1,2.09,2.09,0,0,1-.72-.12V95.19a1,1,0,0,0,.44.1c.36,0,.67-.34.91-1a19.6,19.6,0,0,0,.66-3.76h4.36Z" transform="translate(0 0.24)"/><path class="cls-10" d="M410.62,96.5h-1.76v-.86h0a2,2,0,0,1-1.79,1,1.86,1.86,0,0,1-1.37-.5,1.79,1.79,0,0,1-.5-1.32c0-1.16.69-1.84,2.07-2l1.63-.21c0-.66-.36-1-1.07-1a3.69,3.69,0,0,0-2,.64V90.86a4.22,4.22,0,0,1,1.06-.35,5.12,5.12,0,0,1,1.22-.16,2.27,2.27,0,0,1,2.57,2.56Zm-1.74-2.44v-.4l-1.09.14c-.61.08-.91.35-.91.81a.69.69,0,0,0,.22.52.84.84,0,0,0,.6.2,1.1,1.1,0,0,0,.85-.36A1.29,1.29,0,0,0,408.88,94.06Z" transform="translate(0 0.24)"/><path class="cls-10" d="M416.57,91.91H415V96.5H413.1V91.91h-1.62V90.5h5.09Z" transform="translate(0 0.24)"/><path class="cls-10" d="M422.15,96.57v2.71h-1.73V96.57h-.28a3.16,3.16,0,0,1-2.31-.83,3,3,0,0,1-.84-2.22,3,3,0,0,1,.84-2.26,3.17,3.17,0,0,1,2.32-.83h.27V87.91h1.73v2.52h.27a3.19,3.19,0,0,1,2.33.83,3,3,0,0,1,.85,2.26,2.94,2.94,0,0,1-.85,2.22,3.16,3.16,0,0,1-2.31.83Zm-1.73-1.31V91.74h-.09a1.29,1.29,0,0,0-1.07.47,2,2,0,0,0-.39,1.31,1.93,1.93,0,0,0,.39,1.27,1.34,1.34,0,0,0,1.09.47Zm1.73-3.52v3.52h.08a1.33,1.33,0,0,0,1.09-.47,1.88,1.88,0,0,0,.4-1.27,2,2,0,0,0-.39-1.31,1.31,1.31,0,0,0-1.08-.47Z" transform="translate(0 0.24)"/><path class="cls-10" d="M429.64,96.65a3.23,3.23,0,0,1-2.36-.84,3.49,3.49,0,0,1,0-4.62,3.37,3.37,0,0,1,2.41-.84,3.18,3.18,0,0,1,2.34.84,3,3,0,0,1,.85,2.23,3.19,3.19,0,0,1-.87,2.36A3.27,3.27,0,0,1,429.64,96.65Zm0-4.88a1.26,1.26,0,0,0-1,.45,2,2,0,0,0-.36,1.28c0,1.15.46,1.73,1.39,1.73s1.33-.59,1.33-1.78S430.58,91.77,429.68,91.77Z" transform="translate(0 0.24)"/><path class="cls-10" d="M436,95.8h0v3.46h-1.85V90.5H436v.9h0a2.17,2.17,0,0,1,1.93-1.05,2.19,2.19,0,0,1,1.8.8,3.45,3.45,0,0,1,.63,2.18,3.67,3.67,0,0,1-.74,2.41,2.43,2.43,0,0,1-2,.91A1.86,1.86,0,0,1,436,95.8Zm-.06-2.46v.48a1.54,1.54,0,0,0,.33,1,1.08,1.08,0,0,0,.86.39,1.14,1.14,0,0,0,1-.49,2.4,2.4,0,0,0,.34-1.39c0-1-.41-1.58-1.23-1.58a1.19,1.19,0,0,0-.93.43A1.73,1.73,0,0,0,435.93,93.34Z" transform="translate(0 0.24)"/><path class="cls-10" d="M449.32,96.5h-1.73V91.83a9.51,9.51,0,0,1-.31,1.11l-1.17,3.56h-1.63l-1.16-3.56a7.31,7.31,0,0,1-.31-1.1V96.5h-1.46v-6H444l1.14,3.42a6.9,6.9,0,0,1,.29,1.07,9.61,9.61,0,0,1,.3-1.06l1.12-3.43h2.48Z" transform="translate(0 0.24)"/><path class="cls-10" d="M455.87,96.5h-1.75v-.86h0a2,2,0,0,1-1.78,1,1.88,1.88,0,0,1-1.38-.5,1.79,1.79,0,0,1-.5-1.32c0-1.16.69-1.84,2.07-2l1.63-.21c0-.66-.36-1-1.07-1a3.72,3.72,0,0,0-2,.64V90.86a4.22,4.22,0,0,1,1.06-.35,5.12,5.12,0,0,1,1.22-.16,2.27,2.27,0,0,1,2.57,2.56Zm-1.74-2.44v-.4L453,93.8q-.9.12-.9.81a.66.66,0,0,0,.22.52.8.8,0,0,0,.59.2,1.1,1.1,0,0,0,.85-.36A1.29,1.29,0,0,0,454.13,94.06Z" transform="translate(0 0.24)"/><path class="cls-10" d="M384.54,105l-2.43,6.48c-.59,1.56-1.47,2.34-2.65,2.34a3.46,3.46,0,0,1-1.11-.15v-1.48a1.63,1.63,0,0,0,.8.22,1,1,0,0,0,1-.68l.32-.74L378,105h2.05l1.12,3.65a4.91,4.91,0,0,1,.16.8h0a5.52,5.52,0,0,1,.19-.79l1.13-3.66Z" transform="translate(0 0.24)"/><path class="cls-10" d="M391.14,113.19h-1.51V111h-4v2.19H384.1v-3.5h.53A8.87,8.87,0,0,0,386,105h4.22v4.69h.95Zm-2.8-3.5v-3.4h-.92a7.89,7.89,0,0,1-1,3.4Z" transform="translate(0 0.24)"/><path class="cls-10" d="M395.07,111.15a3.23,3.23,0,0,1-2.36-.84,3.49,3.49,0,0,1,0-4.62,3.38,3.38,0,0,1,2.41-.84,3.16,3.16,0,0,1,2.34.84,3,3,0,0,1,.85,2.23,3.19,3.19,0,0,1-.87,2.36A3.27,3.27,0,0,1,395.07,111.15Zm.05-4.88a1.23,1.23,0,0,0-1,.45,2,2,0,0,0-.37,1.28c0,1.15.47,1.73,1.4,1.73s1.33-.59,1.33-1.78S396,106.27,395.12,106.27Z" transform="translate(0 0.24)"/><path class="cls-10" d="M404.09,110.78a3.57,3.57,0,0,1-1.81.37,3.06,3.06,0,0,1-2.24-.84,2.89,2.89,0,0,1-.85-2.16,3.17,3.17,0,0,1,.91-2.41,3.41,3.41,0,0,1,2.46-.89,3.22,3.22,0,0,1,1.53.28v1.58a2.1,2.1,0,0,0-1.29-.44,1.82,1.82,0,0,0-1.29,3,1.63,1.63,0,0,0,1.23.46,2.43,2.43,0,0,0,1.35-.44Z" transform="translate(0 0.24)"/><path class="cls-10" d="M409.79,106.41h-1.6V111h-1.87v-4.59h-1.61V105h5.08Z" transform="translate(0 0.24)"/><path class="cls-10" d="M413.45,111.15a3.23,3.23,0,0,1-2.36-.84,3.49,3.49,0,0,1,0-4.62,3.38,3.38,0,0,1,2.41-.84,3.2,3.2,0,0,1,2.35.84,3,3,0,0,1,.84,2.23,3.19,3.19,0,0,1-.87,2.36A3.27,3.27,0,0,1,413.45,111.15Zm.05-4.88a1.23,1.23,0,0,0-1,.45,2,2,0,0,0-.37,1.28c0,1.15.47,1.73,1.4,1.73s1.33-.59,1.33-1.78S414.39,106.27,413.5,106.27Z" transform="translate(0 0.24)"/><path class="cls-10" d="M417.93,111v-6h3.35c1.43,0,2.14.49,2.14,1.46a1.24,1.24,0,0,1-.34.89,1.61,1.61,0,0,1-.87.47,1.7,1.7,0,0,1,1,.46,1.26,1.26,0,0,1,.38.92,1.66,1.66,0,0,1-.58,1.31,2.39,2.39,0,0,1-1.6.49Zm1.85-4.87v1.26h.91q.84,0,.84-.66c0-.4-.27-.6-.8-.6Zm0,2.35v1.37h1.06c.59,0,.89-.24.89-.72s-.3-.65-.91-.65Z" transform="translate(0 0.24)"/><path class="cls-10" d="M430.27,108.53h-3.91c.06.87.61,1.3,1.64,1.3a3.23,3.23,0,0,0,1.74-.46v1.33a4.5,4.5,0,0,1-2.16.45,3,3,0,0,1-2.25-.81,3,3,0,0,1-.81-2.25,3.19,3.19,0,0,1,.87-2.36,2.87,2.87,0,0,1,2.13-.88,2.6,2.6,0,0,1,2,.78,3,3,0,0,1,.72,2.12Zm-1.72-1.14c0-.86-.34-1.29-1-1.29a1,1,0,0,0-.77.37,1.6,1.6,0,0,0-.39.92Z" transform="translate(0 0.24)"/><path class="cls-10" d="M433.25,110.3h0v3.46h-1.85V105h1.85v.9h0a2.36,2.36,0,0,1,3.73-.25,3.45,3.45,0,0,1,.63,2.18,3.67,3.67,0,0,1-.74,2.41,2.43,2.43,0,0,1-2,.91A1.86,1.86,0,0,1,433.25,110.3Zm-.05-2.46v.48a1.54,1.54,0,0,0,.32,1,1.08,1.08,0,0,0,.86.39,1.14,1.14,0,0,0,1-.49,2.4,2.4,0,0,0,.34-1.39c0-1-.41-1.58-1.23-1.58a1.17,1.17,0,0,0-.92.43A1.73,1.73,0,0,0,433.2,107.84Z" transform="translate(0 0.24)"/><path class="cls-10" d="M444.21,108.53h-3.92c.06.87.61,1.3,1.65,1.3a3.23,3.23,0,0,0,1.74-.46v1.33a4.56,4.56,0,0,1-2.16.45,2.8,2.8,0,0,1-3.06-3.06,3.23,3.23,0,0,1,.86-2.36,2.87,2.87,0,0,1,2.14-.88,2.63,2.63,0,0,1,2,.78,3,3,0,0,1,.72,2.12Zm-1.72-1.14c0-.86-.35-1.29-1-1.29a1,1,0,0,0-.78.37,1.75,1.75,0,0,0-.39.92Z" transform="translate(0 0.24)"/><path class="cls-10" d="M451.09,111h-1.86v-2.51h-2.07V111h-1.85v-6h1.85v2.22h2.07V105h1.86Z" transform="translate(0 0.24)"/><path class="cls-10" d="M458.61,111h-1.68v-3.93a6.43,6.43,0,0,1-.49.86l-2,3.07h-1.75v-6h1.69v3.8a7.28,7.28,0,0,1,.41-.73l2-3.07h1.82Z" transform="translate(0 0.24)"/><path class="cls-10" d="M466.14,111h-1.68v-3.93a7.75,7.75,0,0,1-.49.86l-2,3.07h-1.75v-6h1.69v3.8a7.28,7.28,0,0,1,.41-.73l2-3.07h1.82Zm-.43-8.87a2.13,2.13,0,0,1-.8,1.49,2.75,2.75,0,0,1-1.73.55,2.79,2.79,0,0,1-1.75-.55,2,2,0,0,1-.75-1.49H462a1,1,0,0,0,.37.75,1.21,1.21,0,0,0,.8.29,1.13,1.13,0,0,0,.79-.3,1,1,0,0,0,.37-.74Z" transform="translate(0 0.24)"/><path class="cls-10" d="M395.65,125.5h-1.87v-5c0-.54,0-1.14.07-1.8h0a8.81,8.81,0,0,1-.27,1.12l-2,5.71H390l-2-5.65c0-.16-.14-.55-.26-1.18h-.05c.05.83.07,1.56.07,2.18v4.65h-1.7v-8.4h2.77l1.72,5a7.48,7.48,0,0,1,.29,1.2h0a11.9,11.9,0,0,1,.33-1.21l1.72-5h2.7Z" transform="translate(0 0.24)"/><path class="cls-10" d="M402.37,125.5h-1.75v-.86h0a2,2,0,0,1-1.79,1,1.86,1.86,0,0,1-1.37-.5,1.76,1.76,0,0,1-.51-1.32c0-1.16.69-1.84,2.07-2l1.63-.21c0-.66-.35-1-1.06-1a3.67,3.67,0,0,0-2,.64v-1.39a4.13,4.13,0,0,1,1.05-.35,5.19,5.19,0,0,1,1.23-.16,2.26,2.26,0,0,1,2.56,2.56Zm-1.74-2.44v-.4l-1.09.14q-.9.12-.9.81a.66.66,0,0,0,.22.52.81.81,0,0,0,.59.2,1.1,1.1,0,0,0,.85-.36A1.29,1.29,0,0,0,400.63,123.06Z" transform="translate(0 0.24)"/><path class="cls-10" d="M409.8,125.5h-1.68v-3.93a7.75,7.75,0,0,1-.49.86l-2,3.07h-1.75v-6h1.69v3.8a7.28,7.28,0,0,1,.41-.73l2-3.07h1.82Zm-.43-8.87a2.13,2.13,0,0,1-.8,1.49,3,3,0,0,1-3.48,0,2,2,0,0,1-.75-1.49h1.35a1,1,0,0,0,.37.75,1.19,1.19,0,0,0,.8.29,1.13,1.13,0,0,0,.79-.3,1,1,0,0,0,.37-.74Z" transform="translate(0 0.24)"/><path class="cls-10" d="M417.35,125.5h-2.22l-1.89-2.93h0v2.93h-1.85v-6h1.85v2.82h0l1.85-2.82h2.19l-2.2,2.85Z" transform="translate(0 0.24)"/><path class="cls-10" d="M420,124.8h0v3.46h-1.85V119.5h1.85v.9h0a2.36,2.36,0,0,1,3.73-.25,3.45,3.45,0,0,1,.64,2.18,3.68,3.68,0,0,1-.75,2.41,2.43,2.43,0,0,1-2,.91A1.86,1.86,0,0,1,420,124.8Zm-.05-2.46v.48a1.54,1.54,0,0,0,.33,1,1.05,1.05,0,0,0,.86.39,1.12,1.12,0,0,0,1-.49,2.4,2.4,0,0,0,.35-1.39c0-1-.41-1.58-1.23-1.58a1.18,1.18,0,0,0-.93.43A1.73,1.73,0,0,0,419.9,122.34Z" transform="translate(0 0.24)"/><path class="cls-10" d="M428.38,125.65a3.23,3.23,0,0,1-2.36-.84,3.49,3.49,0,0,1,0-4.62,3.37,3.37,0,0,1,2.41-.84,3.18,3.18,0,0,1,2.34.84,3,3,0,0,1,.85,2.23,3.19,3.19,0,0,1-.87,2.36A3.27,3.27,0,0,1,428.38,125.65Zm0-4.88a1.26,1.26,0,0,0-1,.45,2,2,0,0,0-.36,1.28c0,1.15.46,1.73,1.39,1.73s1.33-.59,1.33-1.78S429.32,120.77,428.42,120.77Z" transform="translate(0 0.24)"/><path class="cls-10" d="M437.4,125.28a3.57,3.57,0,0,1-1.81.37,3.06,3.06,0,0,1-2.24-.84,2.89,2.89,0,0,1-.85-2.16,3.17,3.17,0,0,1,.91-2.41,3.38,3.38,0,0,1,2.45-.89,3.26,3.26,0,0,1,1.54.28v1.58a2.13,2.13,0,0,0-1.3-.44,1.71,1.71,0,0,0-1.26.47,1.73,1.73,0,0,0-.46,1.28,1.69,1.69,0,0,0,.44,1.25,1.63,1.63,0,0,0,1.23.46,2.43,2.43,0,0,0,1.35-.44Z" transform="translate(0 0.24)"/><path class="cls-10" d="M441.47,125.65a3.24,3.24,0,0,1-2.36-.84,3.08,3.08,0,0,1-.86-2.29,3,3,0,0,1,.9-2.33,3.34,3.34,0,0,1,2.4-.84,3.2,3.2,0,0,1,2.35.84,3,3,0,0,1,.85,2.23,3.16,3.16,0,0,1-.88,2.36A3.24,3.24,0,0,1,441.47,125.65Zm0-4.88a1.23,1.23,0,0,0-1,.45,2,2,0,0,0-.36,1.28c0,1.15.46,1.73,1.39,1.73s1.33-.59,1.33-1.78S442.41,120.77,441.52,120.77Z" transform="translate(0 0.24)"/><path class="cls-10" d="M450.74,125.57v2.71H449v-2.71h-.29a3.16,3.16,0,0,1-2.31-.83,3,3,0,0,1-.84-2.22,3,3,0,0,1,.84-2.26,3.17,3.17,0,0,1,2.32-.83H449v-2.52h1.73v2.52H451a3.21,3.21,0,0,1,2.34.83,3,3,0,0,1,.84,2.26,3,3,0,0,1-.84,2.22,3.2,3.2,0,0,1-2.32.83ZM449,124.26v-3.52h-.1a1.3,1.3,0,0,0-1.07.47,2,2,0,0,0-.39,1.31,1.93,1.93,0,0,0,.39,1.27,1.35,1.35,0,0,0,1.1.47Zm1.73-3.52v3.52h.07a1.31,1.31,0,0,0,1.09-.47,1.88,1.88,0,0,0,.4-1.27,2,2,0,0,0-.39-1.31,1.31,1.31,0,0,0-1.08-.47Z" transform="translate(0 0.24)"/><path class="cls-10" d="M459.68,120.91h-1.61v4.59h-1.86v-4.59h-1.62V119.5h5.09Z" transform="translate(0 0.24)"/><path class="cls-10" d="M373.45,22.34v-8.4h3.06a3.77,3.77,0,0,1,2.16.52,1.65,1.65,0,0,1,.75,1.45A1.71,1.71,0,0,1,379,17.1a2.34,2.34,0,0,1-1.17.71v0a2.36,2.36,0,0,1,1.43.66,1.86,1.86,0,0,1,.54,1.35,2.26,2.26,0,0,1-.83,1.83,3.45,3.45,0,0,1-2.25.67Zm1.89-7v2h.83a1.42,1.42,0,0,0,.93-.29,1,1,0,0,0,.33-.78c0-.62-.46-.92-1.38-.92Zm0,3.39V21h1a1.52,1.52,0,0,0,1-.31,1,1,0,0,0,.38-.83,1,1,0,0,0-.37-.79,1.61,1.61,0,0,0-1-.29Z" transform="translate(0 0.24)"/><path class="cls-10" d="M386.17,19.87h-3.91c.06.87.61,1.31,1.64,1.31a3.24,3.24,0,0,0,1.74-.47V22a4.5,4.5,0,0,1-2.16.45,2.79,2.79,0,0,1-3.06-3,3.2,3.2,0,0,1,.87-2.37,2.9,2.9,0,0,1,2.13-.87,2.62,2.62,0,0,1,2,.78,3,3,0,0,1,.72,2.11Zm-1.72-1.14c0-.86-.34-1.29-1-1.29a1,1,0,0,0-.77.37,1.72,1.72,0,0,0-.4.92Z" transform="translate(0 0.24)"/><path class="cls-10" d="M392.41,13.32v1.46a1.6,1.6,0,0,1-.75.29c-.88.14-1.41.23-1.58.27a1.84,1.84,0,0,0-.78.33,1.53,1.53,0,0,0-.39.61,3.63,3.63,0,0,0-.22,1h0a2.28,2.28,0,0,1,1.79-.77,2.58,2.58,0,0,1,2,.76,2.91,2.91,0,0,1,.71,2.09,3.06,3.06,0,0,1-.87,2.29,3.23,3.23,0,0,1-2.37.85,2.89,2.89,0,0,1-2.38-1,4.45,4.45,0,0,1-.81-2.88A9.05,9.05,0,0,1,386.9,17a5,5,0,0,1,.41-1.29,3.24,3.24,0,0,1,.66-.93,2.77,2.77,0,0,1,.81-.55,4.73,4.73,0,0,1,.81-.26c.27-.06.94-.17,2-.33A3.58,3.58,0,0,0,392.41,13.32Zm-3.75,5.24c0,.1,0,.28,0,.55a2.5,2.5,0,0,0,.36,1.43,1.13,1.13,0,0,0,1,.53,1.16,1.16,0,0,0,.94-.44,1.8,1.8,0,0,0,.37-1.19,1.75,1.75,0,0,0-.37-1.18,1.21,1.21,0,0,0-1-.43,1.48,1.48,0,0,0-.76.21A1.5,1.5,0,0,0,388.66,18.56Z" transform="translate(0 0.24)"/><path class="cls-10" d="M397.48,19.79h-3.2v-1.3h3.2Z" transform="translate(0 0.24)"/><path class="cls-10" d="M404.67,22.34h-1.85V17.65h-2.08v4.69h-1.85v-6h5.78Z" transform="translate(0 0.24)"/><path class="cls-10" d="M407.93,21.65h0V25.1h-1.85V16.34h1.85v.91h0a2.36,2.36,0,0,1,3.73-.25,3.42,3.42,0,0,1,.63,2.17,3.71,3.71,0,0,1-.74,2.41,2.4,2.4,0,0,1-2,.91A1.87,1.87,0,0,1,407.93,21.65Zm-.06-2.46v.48a1.52,1.52,0,0,0,.33,1,1.08,1.08,0,0,0,.86.39,1.11,1.11,0,0,0,1-.49,2.29,2.29,0,0,0,.35-1.38q0-1.59-1.23-1.59a1.16,1.16,0,0,0-.93.44A1.69,1.69,0,0,0,407.87,19.19Z" transform="translate(0 0.24)"/><path class="cls-10" d="M419.28,22.34H417.6V18.42a7.61,7.61,0,0,1-.5.85l-2,3.07h-1.76v-6H415v3.81a5.24,5.24,0,0,1,.41-.74l2-3.07h1.82Z" transform="translate(0 0.24)"/><path class="cls-10" d="M426.34,22.34h-1.86V17.65h-1a9.84,9.84,0,0,1-1,3.74,2,2,0,0,1-1.79,1,2.27,2.27,0,0,1-.72-.11V21a1,1,0,0,0,.43.09c.37,0,.67-.34.92-1a18.88,18.88,0,0,0,.65-3.76h4.36Z" transform="translate(0 0.24)"/><path class="cls-10" d="M430.58,22.49a3.23,3.23,0,0,1-2.36-.84,3.05,3.05,0,0,1-.86-2.28,3.05,3.05,0,0,1,.89-2.33,3.38,3.38,0,0,1,2.41-.84A3.16,3.16,0,0,1,433,17a3,3,0,0,1,.85,2.22,3.18,3.18,0,0,1-.87,2.36A3.27,3.27,0,0,1,430.58,22.49Zm.05-4.88a1.24,1.24,0,0,0-1,.46,1.92,1.92,0,0,0-.37,1.27c0,1.16.47,1.73,1.4,1.73S432,20.48,432,19.3,431.52,17.61,430.63,17.61Z" transform="translate(0 0.24)"/><path class="cls-10" d="M444,22.34h-2.18l-1.93-3h0v3h-1.82v-3h0l-1.93,3H434l2.28-3.14L434,16.34h2.17l1.88,2.85h0V16.34h1.82v2.85h0l1.87-2.85H444l-2.22,2.86Z" transform="translate(0 0.24)"/><path class="cls-10" d="M449.87,19.87H446c.06.87.61,1.31,1.64,1.31a3.24,3.24,0,0,0,1.74-.47V22a4.5,4.5,0,0,1-2.16.45,2.81,2.81,0,0,1-3.06-3,3.2,3.2,0,0,1,.87-2.37,2.9,2.9,0,0,1,2.13-.87,2.62,2.62,0,0,1,2,.78,3,3,0,0,1,.72,2.11Zm-1.72-1.14c0-.86-.34-1.29-1-1.29a1,1,0,0,0-.77.37,1.63,1.63,0,0,0-.39.92Z" transform="translate(0 0.24)"/><path class="cls-10" d="M456.58,22.34h-1.86v-2.5h-2.08v2.5h-1.85v-6h1.85v2.22h2.08V16.34h1.86Z" transform="translate(0 0.24)"/><path class="cls-10" d="M463.92,22.34h-1.68V18.42a9.54,9.54,0,0,1-.49.85l-2,3.07H458v-6h1.7v3.81a5.24,5.24,0,0,1,.41-.74l2-3.07h1.82Z" transform="translate(0 0.24)"/><path class="cls-10" d="M470.69,19.87h-3.91c.06.87.61,1.31,1.65,1.31a3.24,3.24,0,0,0,1.74-.47V22a4.57,4.57,0,0,1-2.17.45,2.79,2.79,0,0,1-3.05-3,3.24,3.24,0,0,1,.86-2.37A2.9,2.9,0,0,1,468,16.2a2.63,2.63,0,0,1,2,.78,3,3,0,0,1,.71,2.11ZM469,18.73q0-1.29-1.05-1.29a1,1,0,0,0-.77.37,1.78,1.78,0,0,0-.39.92Z" transform="translate(0 0.24)"/><path class="cls-10" d="M392.92,36.74h-2.06l-.6-1.87h-3l-.59,1.87h-2.05l3.06-8.4h2.24Zm-3.1-3.32-.9-2.82a4.51,4.51,0,0,1-.14-.76h0a3,3,0,0,1-.14.73l-.92,2.85Z" transform="translate(0 0.24)"/><path class="cls-10" d="M393.4,36.42V34.55a3.59,3.59,0,0,0,2.31.85,2.93,2.93,0,0,0,.63-.06,1.82,1.82,0,0,0,.44-.18.87.87,0,0,0,.27-.27.67.67,0,0,0,.09-.34.77.77,0,0,0-.14-.44,1.34,1.34,0,0,0-.39-.35,3.74,3.74,0,0,0-.57-.32l-.72-.31a3.76,3.76,0,0,1-1.47-1,2.4,2.4,0,0,1-.22-2.56,2.15,2.15,0,0,1,.72-.78,3.33,3.33,0,0,1,1-.45,5.72,5.72,0,0,1,1.26-.14,8.06,8.06,0,0,1,1.17.08,4.37,4.37,0,0,1,.93.24v1.75a2.87,2.87,0,0,0-.46-.25,3.52,3.52,0,0,0-.51-.19,5,5,0,0,0-.53-.11l-.49,0a2.68,2.68,0,0,0-.59.06,1.62,1.62,0,0,0-.44.17.91.91,0,0,0-.28.27.6.6,0,0,0-.1.35.63.63,0,0,0,.11.38,1.3,1.3,0,0,0,.31.31,4.4,4.4,0,0,0,.5.3l.66.29a7,7,0,0,1,.91.45,3.18,3.18,0,0,1,.69.54,2,2,0,0,1,.44.68,2.4,2.4,0,0,1,.15.89,2.37,2.37,0,0,1-.27,1.18,2.16,2.16,0,0,1-.72.78,3.22,3.22,0,0,1-1.06.42,5.91,5.91,0,0,1-1.28.13,7,7,0,0,1-1.32-.12A3.81,3.81,0,0,1,393.4,36.42Z" transform="translate(0 0.24)"/><path class="cls-10" d="M402.23,33.85v2.89h-1.9v-8.4h3c2.12,0,3.17.89,3.17,2.68a2.57,2.57,0,0,1-.91,2.05,3.6,3.6,0,0,1-2.43.78Zm0-4.06v2.62H403c1,0,1.51-.44,1.51-1.32s-.5-1.3-1.51-1.3Z" transform="translate(0 0.24)"/><path class="cls-10" d="M406.37,36.89a1.07,1.07,0,0,1-.76-.28.93.93,0,0,1-.31-.69.87.87,0,0,1,.32-.69,1.16,1.16,0,0,1,.78-.27,1.14,1.14,0,0,1,.78.27.94.94,0,0,1,0,1.39A1.17,1.17,0,0,1,406.37,36.89Z" transform="translate(0 0.24)"/><path class="cls-10" d="M416.36,36.74h-1.91L411,31.46c-.2-.3-.34-.54-.42-.69h0c0,.29,0,.75,0,1.36v4.61H408.8v-8.4h2l3.33,5.12c.15.23.29.46.42.68h0a7.36,7.36,0,0,1-.05-1.15V28.34h1.79Z" transform="translate(0 0.24)"/><path class="cls-10" d="M423.14,36.74h-5v-8.4h4.84v1.54H420v1.87h2.75v1.54H420v1.92h3.15Z" transform="translate(0 0.24)"/><path class="cls-10" d="M430.31,29.88h-2.4v6.86H426V29.88h-2.39V28.34h6.68Z" transform="translate(0 0.24)"/><path class="cls-10" d="M440.42,36.44a5.54,5.54,0,0,1-2.41.45,4,4,0,0,1-3-1.14,4.13,4.13,0,0,1-1.11-3,4.46,4.46,0,0,1,1.25-3.27,4.38,4.38,0,0,1,3.23-1.25,6,6,0,0,1,2.08.31v1.82a3.78,3.78,0,0,0-1.93-.5,2.58,2.58,0,0,0-1.91.74,2.79,2.79,0,0,0-.72,2,2.69,2.69,0,0,0,.68,1.94,2.44,2.44,0,0,0,1.85.73,4,4,0,0,0,2-.54Z" transform="translate(0 0.24)"/><path class="cls-10" d="M444.38,36.89a3.23,3.23,0,0,1-2.36-.84,3.47,3.47,0,0,1,0-4.61,3.38,3.38,0,0,1,2.41-.84,3.16,3.16,0,0,1,2.34.84,3,3,0,0,1,.85,2.22,3.18,3.18,0,0,1-.87,2.36A3.27,3.27,0,0,1,444.38,36.89Zm0-4.87a1.22,1.22,0,0,0-1,.45,1.92,1.92,0,0,0-.37,1.27c0,1.16.47,1.73,1.4,1.73s1.33-.59,1.33-1.77S445.32,32,444.42,32Z" transform="translate(0 0.24)"/><path class="cls-10" d="M452.59,32.41a1.61,1.61,0,0,0-.78-.18,1.12,1.12,0,0,0-.94.44,1.93,1.93,0,0,0-.34,1.21v2.86h-1.86v-6h1.86v1.12h0a1.59,1.59,0,0,1,1.58-1.22,1.14,1.14,0,0,1,.46.07Z" transform="translate(0 0.24)"/><path class="cls-10" d="M458.61,34.27H454.7c.06.87.61,1.31,1.65,1.31a3.24,3.24,0,0,0,1.74-.47v1.33a4.57,4.57,0,0,1-2.17.45,2.79,2.79,0,0,1-3.05-3,3.2,3.2,0,0,1,.86-2.37,2.9,2.9,0,0,1,2.14-.87,2.63,2.63,0,0,1,2,.78,3,3,0,0,1,.71,2.11Zm-1.71-1.14c0-.86-.35-1.28-1-1.28a1,1,0,0,0-.77.36,1.71,1.71,0,0,0-.39.92Z" transform="translate(0 0.24)"/><path class="cls-9" d="M190.37,10.41h-1V7c0-1.25-.47-1.87-1.4-1.87a1.53,1.53,0,0,0-1.18.54A2,2,0,0,0,186.35,7v3.4h-1V1.53h1V5.41h0a2.18,2.18,0,0,1,2-1.14c1.35,0,2,.81,2,2.44Z" transform="translate(0 0.24)"/><path class="cls-9" d="M194.88,10.35a1.82,1.82,0,0,1-.9.19c-1,0-1.57-.59-1.57-1.76V5.23h-1V4.41h1V2.94l1-.31V4.41h1.51v.82h-1.51V8.61a1.45,1.45,0,0,0,.2.86.84.84,0,0,0,.68.26,1.05,1.05,0,0,0,.63-.2Z" transform="translate(0 0.24)"/><path class="cls-9" d="M198.86,10.35a1.76,1.76,0,0,1-.89.19c-1.06,0-1.58-.59-1.58-1.76V5.23h-1V4.41h1V2.94l1-.31V4.41h1.51v.82h-1.51V8.61a1.37,1.37,0,0,0,.21.86.8.8,0,0,0,.67.26,1,1,0,0,0,.63-.2Z" transform="translate(0 0.24)"/><path class="cls-9" d="M201.05,9.54h0v3.63h-1V4.41h1v1h0a2.27,2.27,0,0,1,2.07-1.19,2.21,2.21,0,0,1,1.81.8,3.37,3.37,0,0,1,.65,2.16,3.73,3.73,0,0,1-.73,2.42,2.46,2.46,0,0,1-2,.9A2,2,0,0,1,201.05,9.54Zm0-2.42V8a1.73,1.73,0,0,0,.49,1.26,1.58,1.58,0,0,0,1.22.52,1.6,1.6,0,0,0,1.37-.67,3,3,0,0,0,.5-1.85,2.39,2.39,0,0,0-.47-1.57,1.52,1.52,0,0,0-1.25-.57,1.7,1.7,0,0,0-1.35.58A2.15,2.15,0,0,0,201,7.12Z" transform="translate(0 0.24)"/><path class="cls-9" d="M206.67,10.19v-1a2.82,2.82,0,0,0,1.73.58q1.26,0,1.26-.84a.68.68,0,0,0-.11-.41,1.17,1.17,0,0,0-.29-.3,2.86,2.86,0,0,0-.43-.23l-.54-.21c-.26-.11-.5-.21-.7-.32a2.22,2.22,0,0,1-.5-.36,1.38,1.38,0,0,1-.31-.46,1.63,1.63,0,0,1-.1-.61,1.38,1.38,0,0,1,.19-.74,1.7,1.7,0,0,1,.52-.55,2.21,2.21,0,0,1,.73-.33,3.49,3.49,0,0,1,.86-.11,3.41,3.41,0,0,1,1.39.27v1a2.7,2.7,0,0,0-1.52-.43,1.88,1.88,0,0,0-.49.06,1.26,1.26,0,0,0-.37.17,1,1,0,0,0-.24.27.67.67,0,0,0-.09.34.75.75,0,0,0,.09.39,1,1,0,0,0,.25.29,2.11,2.11,0,0,0,.4.22l.53.21c.27.11.5.21.72.32a2.45,2.45,0,0,1,.53.36,1.37,1.37,0,0,1,.47,1.09,1.51,1.51,0,0,1-.2.78,1.58,1.58,0,0,1-.52.54,2.26,2.26,0,0,1-.76.32,3.27,3.27,0,0,1-.9.11A3.37,3.37,0,0,1,206.67,10.19Z" transform="translate(0 0.24)"/><path class="cls-9" d="M212.37,5.58a.62.62,0,0,1-.46-.19.68.68,0,0,1-.19-.46.64.64,0,0,1,.19-.46.62.62,0,0,1,.46-.19.63.63,0,0,1,.47.19.61.61,0,0,1,.2.46.65.65,0,0,1-.2.46A.63.63,0,0,1,212.37,5.58Zm0,5a.66.66,0,0,1-.46-.19.68.68,0,0,1-.19-.47.66.66,0,0,1,.19-.46.67.67,0,0,1,1.13.46.65.65,0,0,1-.2.47A.67.67,0,0,1,212.37,10.54Z" transform="translate(0 0.24)"/><path class="cls-9" d="M218.35,2l-4,9.79h-.9l4-9.79Z" transform="translate(0 0.24)"/><path class="cls-9" d="M222.94,2l-4,9.79H218L222,2Z" transform="translate(0 0.24)"/><path class="cls-9" d="M228.52,4.41l-2.76,7c-.5,1.24-1.19,1.86-2.08,1.86a2.16,2.16,0,0,1-.62-.07V12.3a1.7,1.7,0,0,0,.56.1,1.17,1.17,0,0,0,1.09-.87l.48-1.13-2.34-6h1.07L225.54,9q0,.09.12.45h0l.11-.44,1.71-4.63Z" transform="translate(0 0.24)"/><path class="cls-9" d="M232,10.55a2.77,2.77,0,0,1-2.12-.84,3.11,3.11,0,0,1-.8-2.23,3.25,3.25,0,0,1,.83-2.36,3,3,0,0,1,2.23-.85,2.68,2.68,0,0,1,2.1.83A3.27,3.27,0,0,1,235,7.39a3.25,3.25,0,0,1-.81,2.3A2.87,2.87,0,0,1,232,10.55ZM232,5.08a1.81,1.81,0,0,0-1.46.63A2.58,2.58,0,0,0,230,7.44a2.47,2.47,0,0,0,.54,1.69,1.86,1.86,0,0,0,1.46.61,1.75,1.75,0,0,0,1.43-.6A2.6,2.6,0,0,0,234,7.42a2.61,2.61,0,0,0-.51-1.73A1.73,1.73,0,0,0,232,5.08Z" transform="translate(0 0.24)"/><path class="cls-9" d="M241.26,10.41h-1V9.46h0a2,2,0,0,1-1.85,1.09c-1.43,0-2.15-.85-2.15-2.55V4.41h1V7.84c0,1.27.48,1.9,1.45,1.9a1.47,1.47,0,0,0,1.16-.52,2,2,0,0,0,.45-1.35V4.41h1Z" transform="translate(0 0.24)"/><path class="cls-9" d="M246.25,5.38a1.18,1.18,0,0,0-.73-.19,1.23,1.23,0,0,0-1,.58,2.72,2.72,0,0,0-.41,1.58v3.06h-1v-6h1V5.65h0a2.12,2.12,0,0,1,.63-1,1.4,1.4,0,0,1,.94-.36,1.5,1.5,0,0,1,.58.09Z" transform="translate(0 0.24)"/><path class="cls-9" d="M246.84,10.19v-1a2.84,2.84,0,0,0,1.73.58c.85,0,1.27-.28,1.27-.84a.76.76,0,0,0-.11-.41,1.17,1.17,0,0,0-.29-.3A3,3,0,0,0,249,8l-.53-.21a6.76,6.76,0,0,1-.7-.32,2.29,2.29,0,0,1-.51-.36,1.52,1.52,0,0,1-.3-.46,1.62,1.62,0,0,1-.11-.61,1.39,1.39,0,0,1,.2-.74,1.78,1.78,0,0,1,.51-.55,2.26,2.26,0,0,1,.74-.33,3.41,3.41,0,0,1,.85-.11,3.46,3.46,0,0,1,1.4.27v1A2.74,2.74,0,0,0,249,5.08a1.75,1.75,0,0,0-.48.06,1.33,1.33,0,0,0-.38.17,1,1,0,0,0-.24.27.77.77,0,0,0-.08.34.87.87,0,0,0,.08.39,1,1,0,0,0,.25.29,2.48,2.48,0,0,0,.4.22l.53.21c.27.11.51.21.72.32a2.82,2.82,0,0,1,.54.36,1.41,1.41,0,0,1,.34.47,1.46,1.46,0,0,1,.12.62,1.5,1.5,0,0,1-.19.78,1.71,1.71,0,0,1-.53.54,2.26,2.26,0,0,1-.76.32,3.24,3.24,0,0,1-.89.11A3.41,3.41,0,0,1,246.84,10.19Z" transform="translate(0 0.24)"/><path class="cls-9" d="M252.71,2.89a.59.59,0,0,1-.44-.18.62.62,0,0,1,0-.89.59.59,0,0,1,.44-.18.6.6,0,0,1,.44.18.58.58,0,0,1,.19.45.56.56,0,0,1-.19.43A.58.58,0,0,1,252.71,2.89Zm.46,7.52h-1v-6h1Z" transform="translate(0 0.24)"/><path class="cls-9" d="M257.82,10.35a1.82,1.82,0,0,1-.9.19c-1.05,0-1.57-.59-1.57-1.76V5.23h-1V4.41h1V2.94l1-.31V4.41h1.51v.82h-1.51V8.61a1.45,1.45,0,0,0,.2.86.84.84,0,0,0,.68.26,1.05,1.05,0,0,0,.63-.2Z" transform="translate(0 0.24)"/><path class="cls-9" d="M263.84,7.65H259.6a2.3,2.3,0,0,0,.54,1.55,1.88,1.88,0,0,0,1.42.54,2.89,2.89,0,0,0,1.86-.67V10a3.47,3.47,0,0,1-2.09.57,2.54,2.54,0,0,1-2-.82,3.35,3.35,0,0,1-.72-2.3,3.28,3.28,0,0,1,.79-2.28,2.54,2.54,0,0,1,2-.88A2.26,2.26,0,0,1,263.2,5a3.18,3.18,0,0,1,.64,2.12Zm-1-.81a2,2,0,0,0-.4-1.3,1.37,1.37,0,0,0-1.1-.46,1.57,1.57,0,0,0-1.16.48,2.24,2.24,0,0,0-.58,1.28Z" transform="translate(0 0.24)"/><path class="cls-9" d="M265.54,10.54a.66.66,0,0,1-.46-.19.68.68,0,0,1-.19-.47.66.66,0,0,1,.19-.46.67.67,0,0,1,1.13.46.65.65,0,0,1-.2.47A.67.67,0,0,1,265.54,10.54Z" transform="translate(0 0.24)"/><path class="cls-9" d="M271.82,10.13a3.1,3.1,0,0,1-1.64.42,2.72,2.72,0,0,1-2.07-.83,3,3,0,0,1-.79-2.17,3.3,3.3,0,0,1,.85-2.38,3,3,0,0,1,2.26-.9,3.24,3.24,0,0,1,1.4.29v1a2.4,2.4,0,0,0-1.43-.47,1.93,1.93,0,0,0-1.51.66,2.5,2.5,0,0,0-.59,1.73,2.36,2.36,0,0,0,.56,1.66,1.87,1.87,0,0,0,1.48.61,2.41,2.41,0,0,0,1.48-.52Z" transform="translate(0 0.24)"/><path class="cls-9" d="M275.69,10.55a2.79,2.79,0,0,1-2.12-.84,3.1,3.1,0,0,1-.79-2.23,3.24,3.24,0,0,1,.82-2.36,3,3,0,0,1,2.23-.85,2.66,2.66,0,0,1,2.1.83,3.27,3.27,0,0,1,.75,2.29,3.25,3.25,0,0,1-.81,2.3A2.87,2.87,0,0,1,275.69,10.55Zm.07-5.47a1.83,1.83,0,0,0-1.46.63,2.58,2.58,0,0,0-.54,1.73,2.42,2.42,0,0,0,.55,1.69,1.84,1.84,0,0,0,1.45.61,1.77,1.77,0,0,0,1.44-.6,2.65,2.65,0,0,0,.5-1.72,2.66,2.66,0,0,0-.5-1.73A1.75,1.75,0,0,0,275.76,5.08Z" transform="translate(0 0.24)"/><path class="cls-9" d="M288.65,10.41h-1V7a2.57,2.57,0,0,0-.31-1.44,1.17,1.17,0,0,0-1-.44,1.3,1.3,0,0,0-1.05.56A2.2,2.2,0,0,0,284.87,7v3.42h-1V6.85c0-1.18-.45-1.77-1.36-1.77a1.27,1.27,0,0,0-1.05.53A2.2,2.2,0,0,0,281.09,7v3.42h-1v-6h1v1h0A2,2,0,0,1,283,4.27a1.73,1.73,0,0,1,1.7,1.24,2.14,2.14,0,0,1,2-1.24c1.32,0,2,.81,2,2.44Z" transform="translate(0 0.24)"/><path class="cls-9" d="M192,40.21h-1V32.72H186.6v7.49h-1v-8.4H192Z" transform="translate(0 0.24)"/><path class="cls-9" d="M198.86,37.45h-4.23a2.21,2.21,0,0,0,.54,1.55,1.85,1.85,0,0,0,1.41.54,2.94,2.94,0,0,0,1.87-.67v.91a3.53,3.53,0,0,1-2.1.57,2.51,2.51,0,0,1-2-.82,3.83,3.83,0,0,1,.06-4.58,2.55,2.55,0,0,1,2-.88,2.25,2.25,0,0,1,1.82.76,3.18,3.18,0,0,1,.64,2.12Zm-1-.81a2,2,0,0,0-.4-1.3,1.37,1.37,0,0,0-1.1-.46,1.59,1.59,0,0,0-1.16.48,2.24,2.24,0,0,0-.58,1.28Z" transform="translate(0 0.24)"/><path class="cls-9" d="M201.3,39.34h0V43h-1V34.21h1v1h0a2.27,2.27,0,0,1,2.07-1.19,2.21,2.21,0,0,1,1.82.81,3.32,3.32,0,0,1,.65,2.15,3.74,3.74,0,0,1-.74,2.42,2.44,2.44,0,0,1-2,.9A2,2,0,0,1,201.3,39.34Zm0-2.42v.84a1.77,1.77,0,0,0,.48,1.26,1.59,1.59,0,0,0,1.23.52,1.6,1.6,0,0,0,1.37-.67,3,3,0,0,0,.49-1.85,2.41,2.41,0,0,0-.46-1.57,1.54,1.54,0,0,0-1.26-.57,1.69,1.69,0,0,0-1.34.58A2.15,2.15,0,0,0,201.28,36.92Z" transform="translate(0 0.24)"/><path class="cls-9" d="M212.19,37.45H208A2.21,2.21,0,0,0,208.5,39a1.85,1.85,0,0,0,1.41.54,2.94,2.94,0,0,0,1.87-.67v.91a3.52,3.52,0,0,1-2.09.57,2.52,2.52,0,0,1-2-.82,3.83,3.83,0,0,1,.06-4.58,2.55,2.55,0,0,1,2-.88,2.25,2.25,0,0,1,1.82.76,3.18,3.18,0,0,1,.64,2.12Zm-1-.81a2,2,0,0,0-.4-1.3,1.37,1.37,0,0,0-1.1-.46,1.59,1.59,0,0,0-1.16.48,2.24,2.24,0,0,0-.58,1.28Z" transform="translate(0 0.24)"/><path class="cls-9" d="M218.63,40.21h-1V37.49h-3.06v2.72h-1v-6h1v2.46h3.06V34.21h1Z" transform="translate(0 0.24)"/><path class="cls-9" d="M224.87,40.21h-1v-.94h0a2.2,2.2,0,0,1-3.25.61,1.68,1.68,0,0,1-.5-1.26c0-1.12.66-1.78,2-2l1.8-.25c0-1-.42-1.53-1.24-1.53a2.92,2.92,0,0,0-2,.74v-1a3.76,3.76,0,0,1,2-.56c1.41,0,2.12.75,2.12,2.24Zm-1-3-1.45.2a2.43,2.43,0,0,0-1,.34,1.08,1.08,0,0,0,0,1.55,1.2,1.2,0,0,0,.84.28,1.51,1.51,0,0,0,1.18-.5,1.8,1.8,0,0,0,.47-1.27Z" transform="translate(0 0.24)"/><path class="cls-9" d="M231.66,40.21h-1V35h-3.06v5.18h-1v-6h5Z" transform="translate(0 0.24)"/><path class="cls-9" d="M234.59,39.34h0V43h-1V34.21h1v1h0a2.27,2.27,0,0,1,2.07-1.19,2.18,2.18,0,0,1,1.81.81,3.27,3.27,0,0,1,.65,2.15,3.73,3.73,0,0,1-.73,2.42,2.45,2.45,0,0,1-2,.9A2,2,0,0,1,234.59,39.34Zm0-2.42v.84a1.78,1.78,0,0,0,.49,1.26,1.71,1.71,0,0,0,2.59-.15,3,3,0,0,0,.5-1.85,2.47,2.47,0,0,0-.46-1.57,1.54,1.54,0,0,0-1.26-.57,1.7,1.7,0,0,0-1.35.58A2.15,2.15,0,0,0,234.56,36.92Z" transform="translate(0 0.24)"/><path class="cls-9" d="M245,40.21h-1v-.94h0a2,2,0,0,1-1.85,1.08,2,2,0,0,1-1.4-.47,1.65,1.65,0,0,1-.51-1.26c0-1.12.66-1.78,2-2l1.8-.25q0-1.53-1.23-1.53a2.91,2.91,0,0,0-2,.74v-1a3.76,3.76,0,0,1,2-.56c1.41,0,2.11.75,2.11,2.24Zm-1-3-1.45.2a2.37,2.37,0,0,0-1,.34.93.93,0,0,0-.34.84.89.89,0,0,0,.31.71,1.2,1.2,0,0,0,.84.28,1.53,1.53,0,0,0,1.18-.5,1.79,1.79,0,0,0,.46-1.27Z" transform="translate(0 0.24)"/><path class="cls-9" d="M246.76,40.21v-6h2.62a2.23,2.23,0,0,1,1.39.39,1.26,1.26,0,0,1,.52,1.07,1.32,1.32,0,0,1-1.15,1.42c.92.12,1.38.58,1.38,1.39a1.56,1.56,0,0,1-.57,1.23,2.05,2.05,0,0,1-1.4.5Zm1-5.18v1.69h1.45c.77,0,1.16-.3,1.16-.9S250,35,249.28,35Zm0,2.51v1.85h1.67c.78,0,1.16-.31,1.16-.94s-.43-.91-1.3-.91Z" transform="translate(0 0.24)"/><path class="cls-9" d="M257.5,40.21h-1V35h-1.39a12.59,12.59,0,0,1-.82,4.09,1.77,1.77,0,0,1-1.57,1.18,1.62,1.62,0,0,1-.52-.08v-.83a1,1,0,0,0,.45.11q1.29,0,1.66-5.28h3.15Z" transform="translate(0 0.24)"/><path class="cls-9" d="M264.27,37.45H260a2.21,2.21,0,0,0,.54,1.55,1.85,1.85,0,0,0,1.42.54,2.93,2.93,0,0,0,1.86-.67v.91a3.5,3.5,0,0,1-2.09.57,2.52,2.52,0,0,1-2-.82,3.36,3.36,0,0,1-.73-2.3,3.29,3.29,0,0,1,.8-2.28,2.53,2.53,0,0,1,2-.88,2.25,2.25,0,0,1,1.82.76,3.18,3.18,0,0,1,.65,2.12Zm-1-.81a2,2,0,0,0-.4-1.3,1.36,1.36,0,0,0-1.1-.46,1.55,1.55,0,0,0-1.15.48,2.25,2.25,0,0,0-.59,1.28Z" transform="translate(0 0.24)"/><path class="cls-9" d="M270.7,40.21h-1V37.49h-3.06v2.72h-1v-6h1v2.46h3.06V34.21h1Z" transform="translate(0 0.24)"/><path class="cls-9" d="M277.67,40.21h-.87V35.42c-.08.17-.21.41-.39.71l-2.77,4.08h-1v-6h.88v4.73a6.36,6.36,0,0,1,.31-.58l2.85-4.15h1Z" transform="translate(0 0.24)"/><path class="cls-9" d="M284.44,37.45H280.2a2.3,2.3,0,0,0,.54,1.55,1.88,1.88,0,0,0,1.42.54,2.89,2.89,0,0,0,1.86-.67v.91a3.47,3.47,0,0,1-2.09.57,2.53,2.53,0,0,1-2-.82,3.35,3.35,0,0,1-.72-2.3A3.28,3.28,0,0,1,280,35a2.54,2.54,0,0,1,2-.88,2.22,2.22,0,0,1,1.82.76,3.18,3.18,0,0,1,.65,2.12Zm-1-.81a2,2,0,0,0-.41-1.3,1.35,1.35,0,0,0-1.09-.46,1.57,1.57,0,0,0-1.16.48,2.25,2.25,0,0,0-.59,1.28Z" transform="translate(0 0.24)"/><path class="cls-9" d="M212.79,162.43h-1v-5.64c0-.44,0-1,.08-1.63h0a6.37,6.37,0,0,1-.25.81l-2.88,6.46h-.48L205.4,156a4.93,4.93,0,0,1-.25-.86h0c0,.33,0,.88,0,1.64v5.63h-.95V154h1.3l2.58,5.86a7.92,7.92,0,0,1,.39,1h0c.17-.46.3-.8.41-1l2.63-5.83h1.23Z" transform="translate(0 0.24)"/><path class="cls-9" d="M219.09,162.43h-1v-.94h0a2,2,0,0,1-1.85,1.08,2,2,0,0,1-1.4-.47,1.65,1.65,0,0,1-.51-1.26c0-1.13.66-1.78,2-2l1.8-.25c0-1-.41-1.53-1.24-1.53a2.9,2.9,0,0,0-1.95.74v-1a3.76,3.76,0,0,1,2-.56c1.41,0,2.11.75,2.11,2.24Zm-1-3-1.45.2a2.65,2.65,0,0,0-1,.33,1,1,0,0,0-.34.85.9.9,0,0,0,.32.71,1.19,1.19,0,0,0,.83.28,1.55,1.55,0,0,0,1.18-.5,1.8,1.8,0,0,0,.47-1.27Z" transform="translate(0 0.24)"/><path class="cls-9" d="M221.81,161.56h0v3.63h-1v-8.76h1v1h0a2.3,2.3,0,0,1,2.08-1.19,2.21,2.21,0,0,1,1.81.8,3.37,3.37,0,0,1,.65,2.16,3.79,3.79,0,0,1-.73,2.42,2.46,2.46,0,0,1-2,.9A2,2,0,0,1,221.81,161.56Zm0-2.42V160a1.77,1.77,0,0,0,.48,1.26,1.73,1.73,0,0,0,2.6-.15,3,3,0,0,0,.49-1.85,2.39,2.39,0,0,0-.46-1.57,1.52,1.52,0,0,0-1.25-.57,1.7,1.7,0,0,0-1.35.58A2.15,2.15,0,0,0,221.79,159.14Z" transform="translate(0 0.24)"/><path class="cls-9" d="M232.79,162.43h-1.35l-2.64-2.88h0v2.88h-1v-6h1v2.75h0l2.52-2.75h1.26l-2.79,2.89Z" transform="translate(0 0.24)"/><path class="cls-9" d="M238.53,159.67h-4.24a2.3,2.3,0,0,0,.54,1.55,1.87,1.87,0,0,0,1.42.54,2.93,2.93,0,0,0,1.86-.67V162a3.5,3.5,0,0,1-2.09.57,2.53,2.53,0,0,1-2-.82,3.36,3.36,0,0,1-.73-2.3,3.29,3.29,0,0,1,.8-2.28,2.53,2.53,0,0,1,2-.88,2.24,2.24,0,0,1,1.82.76,3.18,3.18,0,0,1,.65,2.12Zm-1-.81a2,2,0,0,0-.4-1.3,1.36,1.36,0,0,0-1.1-.46,1.55,1.55,0,0,0-1.15.48,2.25,2.25,0,0,0-.59,1.28Z" transform="translate(0 0.24)"/><path class="cls-9" d="M240.89,161.56h0v3.63h-1v-8.76h1v1h0a2.29,2.29,0,0,1,2.08-1.19,2.23,2.23,0,0,1,1.81.8,3.37,3.37,0,0,1,.65,2.16,3.74,3.74,0,0,1-.74,2.42,2.42,2.42,0,0,1-2,.9A2,2,0,0,1,240.89,161.56Zm0-2.42V160a1.77,1.77,0,0,0,.48,1.26,1.59,1.59,0,0,0,1.23.52,1.6,1.6,0,0,0,1.37-.67,3,3,0,0,0,.49-1.85,2.39,2.39,0,0,0-.46-1.57,1.53,1.53,0,0,0-1.25-.57,1.7,1.7,0,0,0-1.35.58A2.15,2.15,0,0,0,240.87,159.14Z" transform="translate(0 0.24)"/><path class="cls-9" d="M255.34,164.62h-.82v-2.19h-4.46v2.19h-.82v-3h.53a9.09,9.09,0,0,0,1.56-5.19h3.12v5.19h.89Zm-1.85-3v-4.38h-1.33a9.33,9.33,0,0,1-1.37,4.38Z" transform="translate(0 0.24)"/><path class="cls-9" d="M259.1,162.57a2.79,2.79,0,0,1-2.12-.84,3.1,3.1,0,0,1-.79-2.23,3.24,3.24,0,0,1,.82-2.36,3,3,0,0,1,2.23-.85,2.66,2.66,0,0,1,2.1.83,3.77,3.77,0,0,1-.06,4.59A2.87,2.87,0,0,1,259.1,162.57Zm.07-5.47a1.83,1.83,0,0,0-1.46.63,2.58,2.58,0,0,0-.54,1.73,2.47,2.47,0,0,0,.54,1.69,1.86,1.86,0,0,0,1.46.61,1.79,1.79,0,0,0,1.44-.6,3.23,3.23,0,0,0,0-3.45A1.76,1.76,0,0,0,259.17,157.1Z" transform="translate(0 0.24)"/><path class="cls-9" d="M267.64,162.15a3.08,3.08,0,0,1-1.64.42,2.75,2.75,0,0,1-2.07-.83,3.06,3.06,0,0,1-.79-2.17,3.35,3.35,0,0,1,.85-2.38,3,3,0,0,1,2.27-.9,3.27,3.27,0,0,1,1.4.29v1a2.42,2.42,0,0,0-1.43-.47,1.92,1.92,0,0,0-1.51.66,2.5,2.5,0,0,0-.59,1.73,2.36,2.36,0,0,0,.55,1.66,1.91,1.91,0,0,0,1.49.61,2.38,2.38,0,0,0,1.47-.52Z" transform="translate(0 0.24)"/><path class="cls-9" d="M272.79,157.25H271v5.18h-1v-5.18h-1.8v-.82h4.56Z" transform="translate(0 0.24)"/><path class="cls-9" d="M278.65,156.43l-2.76,7q-.74,1.86-2.07,1.86a2.28,2.28,0,0,1-.63-.07v-.86a1.8,1.8,0,0,0,.57.1,1.18,1.18,0,0,0,1.09-.87l.48-1.13-2.34-6h1.06l1.62,4.62c0,.06.07.21.13.45h0c0-.09.06-.24.12-.44l1.71-4.63Z" transform="translate(0 0.24)"/><path class="cls-9" d="M284.59,162.43h-1v-5.18h-3.06v5.18h-1v-6h5Z" transform="translate(0 0.24)"/><path class="cls-9" d="M290.76,162.43h-1v-.94h0a2,2,0,0,1-1.85,1.08,2,2,0,0,1-1.4-.47,1.65,1.65,0,0,1-.51-1.26c0-1.13.66-1.78,2-2l1.8-.25c0-1-.41-1.53-1.24-1.53a2.9,2.9,0,0,0-1.95.74v-1a3.75,3.75,0,0,1,2-.56c1.41,0,2.12.75,2.12,2.24Zm-1-3-1.45.2a2.65,2.65,0,0,0-1,.33,1,1,0,0,0-.34.85.9.9,0,0,0,.32.71,1.18,1.18,0,0,0,.83.28,1.55,1.55,0,0,0,1.18-.5,1.8,1.8,0,0,0,.47-1.27Z" transform="translate(0 0.24)"/></g></svg>