<svg xmlns="http://www.w3.org/2000/svg" xmlns:xlink="http://www.w3.org/1999/xlink" viewBox="0 0 492.67 180"><defs><style>.cls-1{fill:#505050;}.cls-10,.cls-2{fill:#fff;}.cls-3,.cls-7{fill:#ebebeb;}.cls-4{fill:#0072c6;}.cls-5{fill:#ffb900;}.cls-6{fill:none;}.cls-6,.cls-7,.cls-8{stroke:#000;}.cls-10,.cls-6,.cls-7,.cls-8,.cls-9{stroke-miterlimit:10;}.cls-7{stroke-width:0.75px;}.cls-10,.cls-8{stroke-width:0.05px;}.cls-9{fill:#1e1e1e;stroke:#1e1e1e;stroke-width:0.06px;}.cls-10{stroke:#fff;}</style><symbol id="New_Symbol_45" data-name="New Symbol 45" viewBox="0 0 20 20"><circle class="cls-1" cx="10" cy="10" r="10"/><path class="cls-2" d="M7.58,5.77v1.3a3,3,0,0,1,1.67-.55A2.07,2.07,0,0,1,10.63,7a1.4,1.4,0,0,1,.52,1.16,1.32,1.32,0,0,1-.53,1.12,2.54,2.54,0,0,1-1.52.4,12.8,12.8,0,0,1-1.38-.07L8,14h4.14V12.81h-3L9,10.71h.73A2.89,2.89,0,0,0,11.82,10a2.43,2.43,0,0,0,.68-1.86,2.57,2.57,0,0,0-.84-2,3.29,3.29,0,0,0-2.29-.75A3.57,3.57,0,0,0,7.58,5.77Z"/></symbol><symbol id="New_Symbol_44" data-name="New Symbol 44" viewBox="0 0 20 20"><circle class="cls-1" cx="10" cy="10" r="10"/><path class="cls-2" d="M12,14V8.58h1.25V7.45H12V5.6H10.65V7.42H6.85V8.56q.51.58,1.05,1.26a12.66,12.66,0,0,1,1,1.38c.29.47.64.94.93,1.41A13,13,0,0,1,10.55,14ZM10.65,8.58v3.5a19.76,19.76,0,0,0-1.26-2C9,9.51,8.58,9,8.22,8.56Z"/></symbol><symbol id="New_Symbol_43" data-name="New Symbol 43" viewBox="0 0 20 20"><circle class="cls-1" cx="10" cy="10" r="10"/><path class="cls-2" d="M7.39,5.88V7.16a3,3,0,0,1,1.85-.65,2.19,2.19,0,0,1,1.34.38,1.23,1.23,0,0,1,.5,1c0,1-.73,1.43-2.18,1.43H8.24v1.12h.63c1.29,0,1.94.45,1.94,1.35S10.3,13,9.29,13a2.48,2.48,0,0,1-1.58-.6v1.23a4.08,4.08,0,0,0,2,.48,2.64,2.64,0,0,0,1.79-.56,1.76,1.76,0,0,0,.67-1.44A2,2,0,0,0,10.5,10h0a2.19,2.19,0,0,0,1.43-.63A1.89,1.89,0,0,0,12.5,8a2.22,2.22,0,0,0-.85-1.82,3.4,3.4,0,0,0-2.24-.7A3.84,3.84,0,0,0,7.39,5.88Z"/></symbol><symbol id="New_Symbol_41" data-name="New Symbol 41" viewBox="0 0 20 20"><circle class="cls-1" cx="10" cy="10" r="10"/><path class="cls-2" d="M11.19,14.16V5.57H9.83V12.5A4.06,4.06,0,0,0,9,12a9,9,0,0,0-1-.33v1.21l.65.24.63.27.62.34c.21.13.42.27.64.43Z"/></symbol><symbol id="New_Symbol_42" data-name="New Symbol 42" viewBox="0 0 20 20"><circle class="cls-1" cx="10" cy="10" r="10"/><path class="cls-2" d="M12.5,5.57H7.24v.65A2.58,2.58,0,0,0,7.35,7a3.93,3.93,0,0,0,.3.66,4.92,4.92,0,0,0,.44.58c.17.18.35.35.54.52l.59.5c.2.15.39.31.58.47s.35.3.5.45a4.11,4.11,0,0,1,.38.45,2.55,2.55,0,0,1,.24.5,1.84,1.84,0,0,1,.09.57,1.42,1.42,0,0,1-.1.58,1.33,1.33,0,0,1-.29.41,1.17,1.17,0,0,1-.44.26,2.05,2.05,0,0,1-.55.05,2.73,2.73,0,0,1-1.05-.24,3.75,3.75,0,0,1-1-.72v1.31a2.85,2.85,0,0,0,.52.33,2.7,2.7,0,0,0,.55.24,3,3,0,0,0,.59.15,3.64,3.64,0,0,0,.66,0,3.77,3.77,0,0,0,1-.14,2.2,2.2,0,0,0,.79-.44,2,2,0,0,0,.51-.73,2.46,2.46,0,0,0,.18-1,2.88,2.88,0,0,0-.13-.92,2.65,2.65,0,0,0-.36-.76,4,4,0,0,0-.56-.67c-.21-.21-.46-.43-.73-.65l-.67-.53c-.23-.18-.43-.35-.61-.51a3.5,3.5,0,0,1-.44-.5.9.9,0,0,1-.16-.5H12.5Z"/></symbol></defs><title>OJ104329342</title><g id="bg"><g id="Shapes"><rect class="cls-2" width="492.67" height="180"/><rect class="cls-3" x="0.51" width="105" height="155"/><rect class="cls-4" x="370.17" y="60" width="105" height="95"/><rect class="cls-5" x="370.17" y="0.1" width="105" height="55"/><line class="cls-6" x1="105.53" y1="15" x2="364.68" y2="15"/><polygon points="363.59 18.74 370.06 15 363.59 11.26 363.59 18.74"/><line class="cls-6" x1="110.92" y1="44.88" x2="370.06" y2="44.88"/><polygon points="112.01 48.62 105.53 44.88 112.01 41.14 112.01 48.62"/><line class="cls-6" x1="105.53" y1="85.1" x2="364.68" y2="85.1"/><polygon points="363.59 88.84 370.06 85.1 363.59 81.36 363.59 88.84"/><line class="cls-6" x1="110.92" y1="135.1" x2="370.06" y2="135.1"/><polygon points="112.01 138.84 105.53 135.1 112.01 131.36 112.01 138.84"/><path class="cls-6" d="M51.05,155v7.5c0,4.13,4.5,7.51,10,7.52l419.11.75a10,10,0,0,0,10-10V31.5a2.67,2.67,0,0,0-2.81-2.5H480.7"/><polygon points="481.79 25.26 475.31 29 481.79 32.74 481.79 25.26"/><use width="20" height="20" transform="matrix(1, 0, 0, -1, 159.06, 180)" xlink:href="#New_Symbol_45"/><use width="20" height="20" transform="matrix(1, 0, 0, -1, 159.06, 145.1)" xlink:href="#New_Symbol_44"/><use width="20" height="20" transform="matrix(1, 0, 0, -1, 159.06, 95.1)" xlink:href="#New_Symbol_43"/><path d="M80.75,38.31A34.75,34.75,0,0,0,53,24.64,34.94,34.94,0,1,0,74.27,87.31a34.84,34.84,0,0,0,6.61-48.83ZM82.4,67.48c-1.23-.92-3-2.31-5.3-4.13a6.86,6.86,0,0,0-.78-6.4,6.62,6.62,0,0,0-8.55-1.54c-3-2.75-6.41-5.9-9.95-9.45,10.74-5.88,18.58-5.16,19.05-5.11.11.14.23.27.33.41A30.23,30.23,0,0,1,82.4,67.48ZM63.21,75.72a6.22,6.22,0,0,0-1.09-2.38,5.9,5.9,0,0,0-8-1.4A56.53,56.53,0,0,1,46,66.52c-.25-.2-.48-.4-.71-.6a9.24,9.24,0,0,0-1.32-9c0-.06-.11-.12-.16-.19.6-.64,1.22-1.27,1.89-1.88a57.76,57.76,0,0,1,8-6.47h.08l-.09.08c3.82,3.51,7.85,6.83,11.64,9.8a6.53,6.53,0,0,0,.58,6.68,6.68,6.68,0,0,0,9.24,1.28c.14-.12.28-.24.41-.37,2.73,1.92,4.89,3.39,6.13,4.24a29.89,29.89,0,0,1-3.4,6.66A32.8,32.8,0,0,1,63.21,75.72Zm9.38-39.31a33,33,0,0,0-20.31,3.75c-2.74-2.92-5.66-6.18-8.61-9.48A30.47,30.47,0,0,1,53,29.22,30,30,0,0,1,72.59,36.41Zm-38.1-.91a30.88,30.88,0,0,1,5.08-3.14,61,61,0,0,0,8.24,10.36A51.67,51.67,0,0,0,39.4,50c-1,1.09-1.93,2.19-2.8,3.28a9,9,0,0,0-4.27,1A24.37,24.37,0,0,1,29,41,30.41,30.41,0,0,1,34.49,35.5ZM25.42,46.76a22.16,22.16,0,0,0,3,11.43,9.23,9.23,0,0,0,.82,10h0a54.93,54.93,0,0,0-1.38,8.64A30.35,30.35,0,0,1,25.42,46.76ZM53,90.08A30.13,30.13,0,0,1,33.47,83,42,42,0,0,1,35,71.69a9.3,9.3,0,0,0,6.87-1.53l.77.59a50.31,50.31,0,0,0,8.67,5.52,5.85,5.85,0,0,0,1.19,4.49,6.07,6.07,0,0,0,10-.52,54.32,54.32,0,0,0,11.72,1.23,35.23,35.23,0,0,1-2.7,2.33A30.19,30.19,0,0,1,53,90.08Z"/><use width="20" height="20" transform="matrix(1, 0, 0, -1, 159.06, 25)" xlink:href="#New_Symbol_41"/><use width="20" height="20" transform="matrix(1, 0, 0, -1, 159.06, 54.88)" xlink:href="#New_Symbol_42"/></g><g id="Text"><polygon class="cls-7" points="192.72 105.17 185.16 110.61 188.05 119.42 197.39 119.42 200.28 110.61 192.72 105.17"/><polygon class="cls-7" points="191.73 150.85 184.18 156.29 187.06 165.1 196.41 165.1 199.29 156.29 191.73 150.85"/></g></g><g id="txt"><path class="cls-8" d="M17.54,114.68v-8.4H20.6a3.79,3.79,0,0,1,2.16.52,1.65,1.65,0,0,1,.75,1.45,1.71,1.71,0,0,1-.46,1.19,2.41,2.41,0,0,1-1.17.71v0a2.39,2.39,0,0,1,1.43.66,1.86,1.86,0,0,1,.54,1.34A2.28,2.28,0,0,1,23,114a3.45,3.45,0,0,1-2.25.67Zm1.89-7v2h.83a1.37,1.37,0,0,0,.92-.29,1,1,0,0,0,.34-.78q0-.93-1.38-.93Zm0,3.4v2.22h1a1.52,1.52,0,0,0,1-.31,1,1,0,0,0,.38-.83,1,1,0,0,0-.37-.79,1.63,1.63,0,0,0-1-.29Z"/><path class="cls-8" d="M30.44,112.21H26.53c.06.87.61,1.31,1.64,1.31a3.24,3.24,0,0,0,1.74-.47v1.33a4.5,4.5,0,0,1-2.16.45,2.79,2.79,0,0,1-3.06-3,3.2,3.2,0,0,1,.87-2.37,2.9,2.9,0,0,1,2.13-.87,2.62,2.62,0,0,1,2,.78,3,3,0,0,1,.72,2.11Zm-1.72-1.14c0-.86-.34-1.29-1-1.29a1,1,0,0,0-.77.37,1.72,1.72,0,0,0-.4.92Z"/><path class="cls-8" d="M36.86,105.66v1.46a1.6,1.6,0,0,1-.75.29l-1.58.26a2,2,0,0,0-.78.34,1.58,1.58,0,0,0-.4.61,4.08,4.08,0,0,0-.21,1h0a2.28,2.28,0,0,1,1.79-.77,2.58,2.58,0,0,1,2,.76,2.91,2.91,0,0,1,.71,2.09,3.06,3.06,0,0,1-.87,2.29,3.27,3.27,0,0,1-2.37.85,2.89,2.89,0,0,1-2.38-1,4.45,4.45,0,0,1-.81-2.88,9,9,0,0,1,.13-1.63,5,5,0,0,1,.41-1.29,3.29,3.29,0,0,1,.66-.94,2.72,2.72,0,0,1,.81-.54,4.73,4.73,0,0,1,.81-.26c.27-.06.93-.17,2-.33A3.58,3.58,0,0,0,36.86,105.66Zm-3.75,5.24c0,.1,0,.28,0,.55a2.5,2.5,0,0,0,.36,1.43,1.15,1.15,0,0,0,1,.53,1.16,1.16,0,0,0,.94-.44,1.86,1.86,0,0,0,.37-1.19,1.75,1.75,0,0,0-.37-1.18,1.21,1.21,0,0,0-1-.43,1.48,1.48,0,0,0-.76.21A1.5,1.5,0,0,0,33.11,110.9Z"/><path class="cls-8" d="M42.11,112.13h-3.2v-1.3h3.2Z"/><path class="cls-8" d="M49,105.66v1.46a1.51,1.51,0,0,1-.75.29l-1.57.26a1.9,1.9,0,0,0-.78.34,1.58,1.58,0,0,0-.4.61,4.08,4.08,0,0,0-.21,1h0a2.26,2.26,0,0,1,1.79-.77,2.59,2.59,0,0,1,2,.76,3,3,0,0,1,.71,2.09,3.06,3.06,0,0,1-.87,2.29,3.27,3.27,0,0,1-2.37.85,2.88,2.88,0,0,1-2.38-1,4.45,4.45,0,0,1-.81-2.88,9,9,0,0,1,.13-1.63,5,5,0,0,1,.41-1.29,3.29,3.29,0,0,1,.66-.94,2.49,2.49,0,0,1,.81-.54,4.73,4.73,0,0,1,.81-.26c.27-.06.93-.17,2-.33A3.31,3.31,0,0,0,49,105.66Zm-3.74,5.24c0,.1,0,.28,0,.55a2.5,2.5,0,0,0,.36,1.43,1.15,1.15,0,0,0,1,.53,1.18,1.18,0,0,0,.94-.44,1.86,1.86,0,0,0,.36-1.19,1.75,1.75,0,0,0-.36-1.18,1.24,1.24,0,0,0-1-.43,1.48,1.48,0,0,0-.76.21A1.5,1.5,0,0,0,45.27,110.9Z"/><path class="cls-8" d="M52.88,114h0v3.45H51v-8.76h1.85v.9h0a2.19,2.19,0,0,1,1.93-1,2.14,2.14,0,0,1,1.8.8,3.4,3.4,0,0,1,.64,2.17,3.66,3.66,0,0,1-.75,2.41,2.4,2.4,0,0,1-2,.91A1.87,1.87,0,0,1,52.88,114Zm-.05-2.47V112a1.53,1.53,0,0,0,.33,1,1.06,1.06,0,0,0,.86.39,1.12,1.12,0,0,0,1-.49,2.36,2.36,0,0,0,.35-1.38q0-1.59-1.23-1.59a1.18,1.18,0,0,0-.93.43A1.73,1.73,0,0,0,52.83,111.52Z"/><path class="cls-8" d="M63.32,114.68H61.57v-.86h0a2,2,0,0,1-1.79,1,1.86,1.86,0,0,1-1.37-.5,1.76,1.76,0,0,1-.51-1.32q0-1.74,2.07-2l1.63-.22c0-.66-.35-1-1.06-1a3.65,3.65,0,0,0-2,.63V109a4.57,4.57,0,0,1,1.05-.35,5.71,5.71,0,0,1,1.23-.15,2.26,2.26,0,0,1,2.56,2.56Zm-1.74-2.43v-.41l-1.09.14c-.6.08-.9.35-.9.82a.64.64,0,0,0,.22.51.82.82,0,0,0,.59.21,1.08,1.08,0,0,0,.85-.36A1.31,1.31,0,0,0,61.58,112.25Z"/><path class="cls-8" d="M70.5,108.68l-2.44,6.48c-.58,1.56-1.47,2.34-2.65,2.34a3.39,3.39,0,0,1-1.1-.15v-1.48a1.48,1.48,0,0,0,.8.22,1,1,0,0,0,1-.67l.31-.75-2.44-6H66l1.11,3.65a5,5,0,0,1,.17.81h0a5.81,5.81,0,0,1,.2-.8l1.13-3.66Z"/><path class="cls-8" d="M70.93,114.52v-1.34a4.08,4.08,0,0,0,1.73.4c.83,0,1.25-.23,1.25-.68s-.45-.71-1.36-.71h-.84V111h.85c.78,0,1.17-.22,1.17-.68s-.35-.6-1-.6a3.85,3.85,0,0,0-1.57.35v-1.27a7,7,0,0,1,1.9-.3c1.75,0,2.62.54,2.62,1.62,0,.75-.47,1.21-1.4,1.39v0a1.91,1.91,0,0,1,1.16.44,1.26,1.26,0,0,1,.41,1c0,1.21-1,1.81-2.93,1.81A6,6,0,0,1,70.93,114.52Z"/><path class="cls-8" d="M82.4,112.21H78.49c.06.87.61,1.31,1.64,1.31a3.24,3.24,0,0,0,1.74-.47v1.33a4.5,4.5,0,0,1-2.16.45,2.81,2.81,0,0,1-3.06-3,3.2,3.2,0,0,1,.87-2.37,2.9,2.9,0,0,1,2.13-.87,2.62,2.62,0,0,1,2,.78,3,3,0,0,1,.72,2.11Zm-1.72-1.14c0-.86-.34-1.29-1-1.29a1,1,0,0,0-.77.37,1.72,1.72,0,0,0-.4.92Z"/><path class="cls-8" d="M85.38,114h0v3.45H83.5v-8.76h1.85v.9h0a2.36,2.36,0,0,1,3.73-.24,3.4,3.4,0,0,1,.63,2.17,3.65,3.65,0,0,1-.74,2.41,2.4,2.4,0,0,1-2,.91A1.87,1.87,0,0,1,85.38,114Zm-.06-2.47V112a1.53,1.53,0,0,0,.33,1,1.08,1.08,0,0,0,.86.39,1.14,1.14,0,0,0,1-.49,2.37,2.37,0,0,0,.34-1.38q0-1.59-1.23-1.59a1.18,1.18,0,0,0-.93.43A1.73,1.73,0,0,0,85.32,111.52Z"/><path class="cls-9" d="M184.39,66.86V65.79a3.62,3.62,0,0,0,2.23.73,2.24,2.24,0,0,0,1.45-.44,1.48,1.48,0,0,0,.53-1.19c0-1.08-.73-1.61-2.18-1.61h-.88v-.82h.81a2.26,2.26,0,0,0,1.44-.4,1.38,1.38,0,0,0,.51-1.15,1.29,1.29,0,0,0-.42-1,1.71,1.71,0,0,0-1.17-.38,3.66,3.66,0,0,0-2.05.66v-1a4.25,4.25,0,0,1,2.13-.52,2.85,2.85,0,0,1,1.88.57,1.84,1.84,0,0,1,.69,1.49,1.94,1.94,0,0,1-1.6,2.06v0a2.1,2.1,0,0,1,1.38.65,1.93,1.93,0,0,1,.51,1.36,2.26,2.26,0,0,1-.82,1.84,3.37,3.37,0,0,1-2.24.68A4.08,4.08,0,0,1,184.39,66.86Z"/><path class="cls-9" d="M195.5,67.21h-1v-.93h0a2,2,0,0,1-1.85,1.07,2,2,0,0,1-1.4-.47,1.65,1.65,0,0,1-.51-1.26c0-1.12.66-1.77,2-2l1.8-.25q0-1.53-1.23-1.53a3,3,0,0,0-2,.74v-1a3.76,3.76,0,0,1,2-.56c1.41,0,2.11.75,2.11,2.24Zm-1-3-1.45.2a2.25,2.25,0,0,0-1,.33,1,1,0,0,0-.34.84.92.92,0,0,0,.31.72,1.25,1.25,0,0,0,.84.27,1.53,1.53,0,0,0,1.18-.5,1.76,1.76,0,0,0,.46-1.26Z"/><path class="cls-9" d="M202.22,67.21h-1V62H198.2v5.18h-1v-6h5Z"/><path class="cls-9" d="M205.08,66.35h0V70h-1V61.21h1v1.06h0a2.26,2.26,0,0,1,2.07-1.2,2.18,2.18,0,0,1,1.81.81,3.29,3.29,0,0,1,.65,2.16,3.72,3.72,0,0,1-.73,2.41,2.44,2.44,0,0,1-2,.9A2,2,0,0,1,205.08,66.35Zm0-2.42v.83a1.81,1.81,0,0,0,.48,1.27,1.73,1.73,0,0,0,2.59-.15,3.09,3.09,0,0,0,.5-1.86,2.41,2.41,0,0,0-.46-1.57,1.54,1.54,0,0,0-1.26-.57,1.71,1.71,0,0,0-1.34.58A2.16,2.16,0,0,0,205.06,63.93Z"/><path class="cls-9" d="M213.58,67.35a2.79,2.79,0,0,1-2.12-.84,3.1,3.1,0,0,1-.79-2.23,3.26,3.26,0,0,1,.82-2.36,3,3,0,0,1,2.24-.85,2.69,2.69,0,0,1,2.09.83,3.27,3.27,0,0,1,.75,2.29,3.23,3.23,0,0,1-.81,2.3A2.82,2.82,0,0,1,213.58,67.35Zm.08-5.47a1.84,1.84,0,0,0-1.47.63,2.59,2.59,0,0,0-.54,1.74,2.41,2.41,0,0,0,.55,1.68,1.85,1.85,0,0,0,1.46.61,1.77,1.77,0,0,0,1.43-.6,2.63,2.63,0,0,0,.5-1.72,2.68,2.68,0,0,0-.5-1.73A1.74,1.74,0,0,0,213.66,61.88Z"/><path class="cls-9" d="M222.13,66.94a3.19,3.19,0,0,1-1.64.41,2.72,2.72,0,0,1-2.08-.83,3.06,3.06,0,0,1-.78-2.17,3.32,3.32,0,0,1,.85-2.38,3,3,0,0,1,2.26-.9,3.1,3.1,0,0,1,1.4.3v1a2.47,2.47,0,0,0-1.43-.47,1.93,1.93,0,0,0-1.51.66,2.52,2.52,0,0,0-.59,1.73,2.45,2.45,0,0,0,.55,1.67,1.94,1.94,0,0,0,1.49.6,2.41,2.41,0,0,0,1.48-.52Z"/><path class="cls-9" d="M231.5,61.21l-2.76,7c-.49,1.25-1.19,1.87-2.08,1.87A2.17,2.17,0,0,1,226,70V69.1a1.74,1.74,0,0,0,.57.11,1.19,1.19,0,0,0,1.09-.87l.48-1.14-2.35-6h1.07l1.62,4.62c0,.06.06.21.12.46h0q0-.15.12-.45l1.7-4.63Z"/><path class="cls-9" d="M237.29,67.21h-.95V64.8a4.19,4.19,0,0,1-2,.57q-2,0-2-2.13v-2h1v2c0,.88.37,1.32,1.13,1.32a4.26,4.26,0,0,0,1.87-.5v-2.8h.95Z"/><path class="cls-9" d="M244,64.45h-4.24a2.28,2.28,0,0,0,.54,1.55,1.87,1.87,0,0,0,1.42.54,3,3,0,0,0,1.86-.66v.9a3.5,3.5,0,0,1-2.09.57,2.56,2.56,0,0,1-2-.81,3.39,3.39,0,0,1-.73-2.3,3.29,3.29,0,0,1,.8-2.29,2.56,2.56,0,0,1,2-.88,2.27,2.27,0,0,1,1.82.76A3.2,3.2,0,0,1,244,64Zm-1-.81a2,2,0,0,0-.4-1.3,1.39,1.39,0,0,0-1.1-.46,1.52,1.52,0,0,0-1.15.49,2.22,2.22,0,0,0-.59,1.27Z"/><path class="cls-9" d="M249.14,62h-1.8v5.18h-1V62h-1.81v-.82h4.57Z"/><path class="cls-9" d="M255.2,67.21h-1V64.49h-3.06v2.72h-1v-6h1v2.46h3.06V61.21h1Z"/><path class="cls-9" d="M257.07,67.21v-6h1v2.31h1.62a2.12,2.12,0,0,1,1.46.48,1.69,1.69,0,0,1,.54,1.34,1.79,1.79,0,0,1-.54,1.37,2,2,0,0,1-1.38.5Zm1-2.87v2h1.44q1.2,0,1.2-1c0-.67-.4-1-1.21-1Zm5.6,2.87h-.94v-6h.94Z"/><path class="cls-9" d="M269.9,61.21l-2,3,2,3h-1.12l-1.18-1.94-.26-.46h0l-.28.46-1.2,1.94h-1.11l2.05-2.94-2-3.06h1.12l1.16,2,.25.47h0l1.5-2.52Z"/><path class="cls-9" d="M190,82.4h-.81V80.21h-4.47V82.4h-.82v-3h.53A8.94,8.94,0,0,0,186,74.21h3.12V79.4H190Zm-1.85-3V75h-1.33a9.33,9.33,0,0,1-1.37,4.37Z"/><path class="cls-9" d="M195.58,80.21h-1v-.93h0a2,2,0,0,1-1.85,1.07,2,2,0,0,1-1.4-.47,1.65,1.65,0,0,1-.51-1.26c0-1.12.66-1.77,2-2l1.8-.25q0-1.53-1.23-1.53a3,3,0,0,0-2,.74v-1a3.76,3.76,0,0,1,2-.56c1.41,0,2.11.75,2.11,2.24Zm-1-3-1.44.2a2.3,2.3,0,0,0-1,.33,1,1,0,0,0-.34.84.92.92,0,0,0,.31.72,1.25,1.25,0,0,0,.84.27,1.53,1.53,0,0,0,1.18-.5,1.76,1.76,0,0,0,.46-1.26Z"/><path class="cls-9" d="M202.3,80.21h-1V77.49h-3.06v2.72h-1v-6h1v2.46h3.06V74.21h1Z"/><path class="cls-9" d="M209.16,80.21h-1V77.49h-3.06v2.72h-1v-6h1v2.46h3.06V74.21h1Z"/><path class="cls-9" d="M211,80.21v-6h1v2.31h1.62a2.12,2.12,0,0,1,1.46.48,1.69,1.69,0,0,1,.54,1.34,1.79,1.79,0,0,1-.54,1.37,2,2,0,0,1-1.38.5Zm1-2.87v2h1.44q1.2,0,1.2-1c0-.67-.4-1-1.21-1Zm5.6,2.87h-1v-6h1Z"/><path class="cls-9" d="M223.85,74.21l-2,3,2,3H222.7l-1.18-1.94-.26-.46h0l-.28.46-1.2,1.94h-1.11l2-2.94-2-3.06h1.12L221,76.26l.25.47h0l1.5-2.52Z"/><path class="cls-9" d="M213.71,116.61h-1V111c0-.45,0-1,.09-1.64h0a4.6,4.6,0,0,1-.25.82l-2.87,6.45h-.48l-2.87-6.41a5.64,5.64,0,0,1-.25-.86h0c0,.34,0,.89,0,1.65v5.62h-.95v-8.4h1.3l2.58,5.86a7,7,0,0,1,.38,1h0c.17-.46.3-.81.4-1l2.63-5.84h1.23Z"/><path class="cls-9" d="M220.06,116.61h-1v-.94h0a2.2,2.2,0,0,1-3.25.61,1.65,1.65,0,0,1-.51-1.26c0-1.12.66-1.77,2-2l1.8-.25q0-1.53-1.23-1.53a3,3,0,0,0-2,.74v-1a3.76,3.76,0,0,1,2-.56c1.41,0,2.11.75,2.11,2.24Zm-1-3-1.44.2a2.3,2.3,0,0,0-1,.33,1,1,0,0,0-.34.84.92.92,0,0,0,.31.72,1.25,1.25,0,0,0,.84.27,1.53,1.53,0,0,0,1.18-.5,1.77,1.77,0,0,0,.46-1.27Z"/><path class="cls-9" d="M222.84,115.75h0v3.62h-1v-8.76h1v1.06h0a2.26,2.26,0,0,1,2.07-1.2,2.19,2.19,0,0,1,1.81.81,3.33,3.33,0,0,1,.65,2.16,3.72,3.72,0,0,1-.73,2.41,2.46,2.46,0,0,1-2,.9A2,2,0,0,1,222.84,115.75Zm0-2.42v.83a1.77,1.77,0,0,0,.49,1.27,1.73,1.73,0,0,0,2.59-.15,3.09,3.09,0,0,0,.5-1.86,2.41,2.41,0,0,0-.47-1.57,1.52,1.52,0,0,0-1.25-.57,1.7,1.7,0,0,0-1.35.58A2.16,2.16,0,0,0,222.81,113.33Z"/><path class="cls-9" d="M233.86,116.61h-1.35l-2.64-2.88h0v2.88h-1v-6h1v2.75h0l2.52-2.75h1.26l-2.79,2.9Z"/><path class="cls-9" d="M239.64,113.85h-4.23a2.19,2.19,0,0,0,.54,1.55,1.85,1.85,0,0,0,1.42.54,3,3,0,0,0,1.86-.66v.9a3.52,3.52,0,0,1-2.09.57,2.54,2.54,0,0,1-2-.81,3.34,3.34,0,0,1-.73-2.3,3.29,3.29,0,0,1,.8-2.29,2.56,2.56,0,0,1,2-.88,2.28,2.28,0,0,1,1.82.76,3.19,3.19,0,0,1,.64,2.12Zm-1-.81a2,2,0,0,0-.4-1.3,1.36,1.36,0,0,0-1.1-.46,1.52,1.52,0,0,0-1.15.49,2.13,2.13,0,0,0-.59,1.27Z"/><path class="cls-9" d="M242.06,115.75h0v3.62h-1v-8.76h1v1.06h0a2.26,2.26,0,0,1,2.07-1.2,2.18,2.18,0,0,1,1.81.81,3.28,3.28,0,0,1,.65,2.16,3.72,3.72,0,0,1-.73,2.41,2.45,2.45,0,0,1-2,.9A2,2,0,0,1,242.06,115.75Zm0-2.42v.83a1.82,1.82,0,0,0,.49,1.27,1.73,1.73,0,0,0,2.59-.15,3.09,3.09,0,0,0,.5-1.86,2.47,2.47,0,0,0-.46-1.57,1.54,1.54,0,0,0-1.26-.57,1.7,1.7,0,0,0-1.35.58A2.16,2.16,0,0,0,242,113.33Z"/><path class="cls-9" d="M256.6,118.8h-.81v-2.19h-4.47v2.19h-.82v-3H251a8.94,8.94,0,0,0,1.56-5.19h3.12v5.19h.89Zm-1.85-3v-4.37h-1.33a9.33,9.33,0,0,1-1.37,4.37Z"/><path class="cls-9" d="M260.41,116.75a2.79,2.79,0,0,1-2.12-.84,3.1,3.1,0,0,1-.79-2.23,3.24,3.24,0,0,1,.82-2.36,3,3,0,0,1,2.23-.85,2.7,2.7,0,0,1,2.1.83,3.27,3.27,0,0,1,.75,2.29,3.23,3.23,0,0,1-.81,2.3A2.87,2.87,0,0,1,260.41,116.75Zm.07-5.47a1.83,1.83,0,0,0-1.46.63,2.59,2.59,0,0,0-.54,1.74,2.41,2.41,0,0,0,.55,1.68,1.84,1.84,0,0,0,1.45.61,1.77,1.77,0,0,0,1.44-.6,2.63,2.63,0,0,0,.5-1.72,2.68,2.68,0,0,0-.5-1.73A1.75,1.75,0,0,0,260.48,111.28Z"/><path class="cls-9" d="M269,116.34a3.17,3.17,0,0,1-1.64.41,2.75,2.75,0,0,1-2.07-.83,3.06,3.06,0,0,1-.79-2.17,3.35,3.35,0,0,1,.85-2.38,3,3,0,0,1,2.27-.9,3.2,3.2,0,0,1,1.39.29v1a2.45,2.45,0,0,0-1.43-.47,1.91,1.91,0,0,0-1.5.66,2.47,2.47,0,0,0-.59,1.73,2.36,2.36,0,0,0,.55,1.66,1.91,1.91,0,0,0,1.49.61,2.38,2.38,0,0,0,1.47-.52Z"/><path class="cls-9" d="M274.2,111.43h-1.8v5.18h-1v-5.18h-1.81v-.82h4.57Z"/><path class="cls-9" d="M280.11,110.61l-2.76,7c-.5,1.25-1.19,1.87-2.08,1.87a2.25,2.25,0,0,1-.63-.08v-.86a1.8,1.8,0,0,0,.57.1,1.16,1.16,0,0,0,1.09-.86l.48-1.14-2.34-6h1.07l1.62,4.62c0,.06.06.21.12.46h0c0-.1.06-.25.11-.45l1.71-4.63Z"/><path class="cls-9" d="M286.09,116.61h-1v-5.18h-3.06v5.18h-1v-6h5Z"/><path class="cls-9" d="M292.31,116.61h-1v-.94h0a2,2,0,0,1-1.85,1.08,2,2,0,0,1-1.4-.47,1.65,1.65,0,0,1-.51-1.26c0-1.12.66-1.77,2-2l1.8-.25c0-1-.41-1.53-1.24-1.53a3,3,0,0,0-1.95.74v-1a3.73,3.73,0,0,1,2-.56c1.41,0,2.12.75,2.12,2.24Zm-1-3-1.45.2a2.35,2.35,0,0,0-1,.33,1,1,0,0,0-.34.84.93.93,0,0,0,.32.72,1.22,1.22,0,0,0,.83.27,1.51,1.51,0,0,0,1.18-.5,1.78,1.78,0,0,0,.47-1.27Z"/><path class="cls-9" d="M303.25,113.51h-2.36v2.36h-.78v-2.36h-2.36v-.79h2.36v-2.36h.78v2.36h2.36Z"/><path class="cls-9" d="M211.29,126.21q0,3.54-3.19,3.54t-3.06-3.4v-5.14h1v5.07c0,1.73.72,2.59,2.18,2.59s2.1-.83,2.1-2.5v-5.16h1Z"/><path class="cls-9" d="M219.39,129.61h-1.17l-1.41-2.35a5,5,0,0,0-.37-.56,2.24,2.24,0,0,0-.37-.38,1.23,1.23,0,0,0-.41-.21,1.59,1.59,0,0,0-.5-.07h-.81v3.57h-1v-8.4h2.51a3.62,3.62,0,0,1,1,.14,2.23,2.23,0,0,1,.81.42,1.88,1.88,0,0,1,.54.7,2.58,2.58,0,0,1,.06,1.78,2.15,2.15,0,0,1-.38.66,2.32,2.32,0,0,1-.58.49,3.1,3.1,0,0,1-.77.31v0a2,2,0,0,1,.36.22,2,2,0,0,1,.3.28,4,4,0,0,1,.28.37c.09.14.19.3.3.49Zm-5-7.51v3.05h1.34a2.15,2.15,0,0,0,.68-.11,1.61,1.61,0,0,0,.54-.32,1.57,1.57,0,0,0,.36-.51,1.65,1.65,0,0,0,.13-.68,1.32,1.32,0,0,0-.44-1,1.88,1.88,0,0,0-1.26-.38Z"/><path class="cls-9" d="M224.88,129.61h-4.36v-8.4h1v7.51h3.37Z"/><path class="cls-9" d="M229.09,126.65h-3.2v-.76h3.2Z"/><path class="cls-9" d="M235.09,129.61h-1v-.94h0a2.2,2.2,0,0,1-3.25.61,1.64,1.64,0,0,1-.5-1.26c0-1.12.66-1.77,2-2l1.8-.25c0-1-.42-1.53-1.24-1.53a3,3,0,0,0-2,.74v-1a3.76,3.76,0,0,1,2-.56c1.41,0,2.12.75,2.12,2.24Zm-1-3-1.45.2a2.3,2.3,0,0,0-1,.33,1,1,0,0,0-.34.84.92.92,0,0,0,.31.72,1.25,1.25,0,0,0,.84.27,1.51,1.51,0,0,0,1.18-.5,1.78,1.78,0,0,0,.47-1.27Z"/><path class="cls-9" d="M242.1,131.8h-.81v-2.19h-4.46v2.19H236v-3h.53a9.09,9.09,0,0,0,1.56-5.19h3.11v5.19h.89Zm-1.85-3v-4.37h-1.33a9.32,9.32,0,0,1-1.36,4.37Z"/><path class="cls-9" d="M244.4,128.75h0v3.62h-1v-8.76h1v1.06h0a2.26,2.26,0,0,1,2.07-1.2,2.19,2.19,0,0,1,1.81.81,3.33,3.33,0,0,1,.65,2.16,3.72,3.72,0,0,1-.73,2.41,2.46,2.46,0,0,1-2,.9A2,2,0,0,1,244.4,128.75Zm0-2.42v.83a1.77,1.77,0,0,0,.49,1.27,1.73,1.73,0,0,0,2.59-.15,3.09,3.09,0,0,0,.5-1.86,2.41,2.41,0,0,0-.47-1.57,1.52,1.52,0,0,0-1.25-.57,1.7,1.7,0,0,0-1.35.58A2.16,2.16,0,0,0,244.37,126.33Z"/><path class="cls-9" d="M255.26,126.85H251a2.19,2.19,0,0,0,.54,1.55,1.85,1.85,0,0,0,1.41.54,3,3,0,0,0,1.87-.66v.9a3.52,3.52,0,0,1-2.09.57,2.54,2.54,0,0,1-2-.81,3.34,3.34,0,0,1-.73-2.3,3.29,3.29,0,0,1,.8-2.29,2.55,2.55,0,0,1,2-.88,2.28,2.28,0,0,1,1.82.76,3.19,3.19,0,0,1,.64,2.12Zm-1-.81a2,2,0,0,0-.4-1.3,1.37,1.37,0,0,0-1.1-.46,1.52,1.52,0,0,0-1.15.49A2.13,2.13,0,0,0,251,126Z"/><path class="cls-9" d="M260.78,129.34a3.17,3.17,0,0,1-1.64.41,2.75,2.75,0,0,1-2.07-.83,3.06,3.06,0,0,1-.79-2.17,3.35,3.35,0,0,1,.85-2.38,3,3,0,0,1,2.27-.9,3.2,3.2,0,0,1,1.39.29v1a2.44,2.44,0,0,0-1.42-.47,1.92,1.92,0,0,0-1.51.66,2.47,2.47,0,0,0-.59,1.73,2.36,2.36,0,0,0,.55,1.66,1.91,1.91,0,0,0,1.49.61,2.38,2.38,0,0,0,1.47-.52Z"/><path class="cls-9" d="M270.46,129.61h-1v-5.18h-3.05v5.18h-1v-6h5Z"/><path class="cls-9" d="M277.2,126.85H273a2.28,2.28,0,0,0,.54,1.55,1.88,1.88,0,0,0,1.42.54,2.94,2.94,0,0,0,1.86-.66v.9a3.47,3.47,0,0,1-2.09.57,2.56,2.56,0,0,1-2-.81,3.39,3.39,0,0,1-.72-2.3,3.29,3.29,0,0,1,.79-2.29,2.58,2.58,0,0,1,2-.88,2.25,2.25,0,0,1,1.82.76,3.2,3.2,0,0,1,.65,2.12Zm-1-.81a1.91,1.91,0,0,0-.4-1.3,1.36,1.36,0,0,0-1.1-.46,1.54,1.54,0,0,0-1.15.49A2.19,2.19,0,0,0,273,126Z"/><path class="cls-9" d="M279.61,128.75h0v3.62h-1v-8.76h1v1.06h0a2.28,2.28,0,0,1,2.08-1.2,2.2,2.2,0,0,1,1.81.81,3.33,3.33,0,0,1,.65,2.16,3.78,3.78,0,0,1-.73,2.41,2.46,2.46,0,0,1-2,.9A2,2,0,0,1,279.61,128.75Zm0-2.42v.83a1.81,1.81,0,0,0,.48,1.27,1.75,1.75,0,0,0,2.6-.15,3.09,3.09,0,0,0,.49-1.86,2.41,2.41,0,0,0-.46-1.57,1.53,1.53,0,0,0-1.25-.57,1.7,1.7,0,0,0-1.35.58A2.16,2.16,0,0,0,279.59,126.33Z"/><path class="cls-9" d="M290.48,126.85h-4.23a2.23,2.23,0,0,0,.53,1.55,1.88,1.88,0,0,0,1.42.54,3,3,0,0,0,1.87-.66v.9a3.53,3.53,0,0,1-2.1.57,2.53,2.53,0,0,1-2-.81,3.34,3.34,0,0,1-.73-2.3,3.29,3.29,0,0,1,.79-2.29,2.58,2.58,0,0,1,2-.88,2.29,2.29,0,0,1,1.83.76,3.19,3.19,0,0,1,.64,2.12Zm-1-.81a2,2,0,0,0-.4-1.3,1.37,1.37,0,0,0-1.1-.46,1.54,1.54,0,0,0-1.16.49,2.18,2.18,0,0,0-.58,1.27Z"/><path class="cls-9" d="M296.89,129.61h-1v-2.72h-3.06v2.72h-1v-6h1v2.46h3.06v-2.46h1Z"/><path class="cls-9" d="M303.11,129.61h-1v-.94h0a2.2,2.2,0,0,1-3.25.61,1.68,1.68,0,0,1-.5-1.26c0-1.12.66-1.77,2-2l1.8-.25c0-1-.42-1.53-1.24-1.53a3,3,0,0,0-2,.74v-1a3.76,3.76,0,0,1,2-.56c1.41,0,2.12.75,2.12,2.24Zm-1-3-1.45.2a2.3,2.3,0,0,0-1,.33,1,1,0,0,0-.34.84.93.93,0,0,0,.32.72,1.2,1.2,0,0,0,.83.27,1.51,1.51,0,0,0,1.18-.5,1.78,1.78,0,0,0,.47-1.27Z"/><path class="cls-9" d="M309.87,129.61h-1v-5.18h-3.06v5.18h-1v-6h5Z"/><path class="cls-9" d="M312.78,128.75h0v3.62h-1v-8.76h1v1.06h0a2.26,2.26,0,0,1,2.07-1.2,2.18,2.18,0,0,1,1.81.81,3.28,3.28,0,0,1,.65,2.16,3.72,3.72,0,0,1-.73,2.41,2.44,2.44,0,0,1-2,.9A2,2,0,0,1,312.78,128.75Zm0-2.42v.83a1.81,1.81,0,0,0,.48,1.27,1.73,1.73,0,0,0,2.59-.15,3,3,0,0,0,.5-1.86,2.41,2.41,0,0,0-.46-1.57,1.54,1.54,0,0,0-1.26-.57,1.68,1.68,0,0,0-1.34.58A2.16,2.16,0,0,0,312.76,126.33Z"/><path class="cls-9" d="M323.12,129.61h-1v-.94h0a2,2,0,0,1-1.85,1.08,2,2,0,0,1-1.4-.47,1.65,1.65,0,0,1-.51-1.26c0-1.12.66-1.77,2-2l1.8-.25c0-1-.41-1.53-1.24-1.53A3,3,0,0,0,319,125v-1a3.76,3.76,0,0,1,2-.56c1.41,0,2.11.75,2.11,2.24Zm-1-3-1.45.2a2.25,2.25,0,0,0-1,.33,1,1,0,0,0-.34.84.92.92,0,0,0,.31.72,1.24,1.24,0,0,0,.83.27,1.51,1.51,0,0,0,1.18-.5,1.78,1.78,0,0,0,.47-1.27Z"/><path class="cls-9" d="M324.91,129.61v-6h2.61a2.26,2.26,0,0,1,1.4.39,1.3,1.3,0,0,1,.51,1.08,1.32,1.32,0,0,1-1.15,1.42c.92.11,1.38.58,1.38,1.38a1.56,1.56,0,0,1-.57,1.23,2,2,0,0,1-1.4.5Zm1-5.18v1.69h1.44c.77,0,1.16-.3,1.16-.9s-.35-.79-1-.79Zm0,2.51v1.85h1.66c.78,0,1.17-.31,1.17-.94s-.44-.91-1.31-.91Z"/><path class="cls-9" d="M335.62,129.61h-1v-5.18h-1.39a12.72,12.72,0,0,1-.82,4.09,1.77,1.77,0,0,1-1.57,1.17,1.39,1.39,0,0,1-.52-.08v-.82a1,1,0,0,0,.45.1q1.29,0,1.66-5.28h3.15Z"/><path class="cls-9" d="M342.36,126.85h-4.23a2.23,2.23,0,0,0,.53,1.55,1.88,1.88,0,0,0,1.42.54,3,3,0,0,0,1.87-.66v.9a3.53,3.53,0,0,1-2.1.57,2.53,2.53,0,0,1-2-.81,3.34,3.34,0,0,1-.73-2.3,3.29,3.29,0,0,1,.79-2.29,2.58,2.58,0,0,1,2-.88,2.29,2.29,0,0,1,1.83.76,3.19,3.19,0,0,1,.64,2.12Zm-1-.81a2,2,0,0,0-.4-1.3,1.37,1.37,0,0,0-1.1-.46,1.54,1.54,0,0,0-1.16.49,2.18,2.18,0,0,0-.58,1.27Z"/><path class="cls-9" d="M348.77,129.61h-1v-2.72h-3.06v2.72h-1v-6h1v2.46h3.06v-2.46h1Z"/><path class="cls-9" d="M355.72,129.61h-.87v-4.78c-.08.16-.21.4-.39.7l-2.77,4.08h-1v-6h.88v4.73a6.36,6.36,0,0,1,.31-.58l2.84-4.15h1Z"/><path class="cls-9" d="M361.74,129.61h-1v-2.48H360c-.39,0-.74.31-1.06.94l-.78,1.54H357l1-1.85a1.79,1.79,0,0,1,.85-.85,1.62,1.62,0,0,1-1.07-.51,1.56,1.56,0,0,1-.37-1.06,1.54,1.54,0,0,1,.57-1.26,2.54,2.54,0,0,1,1.62-.47h2.1Zm-1-3.28v-1.9h-1.14c-.8,0-1.21.31-1.21.92s.39,1,1.18,1Z"/><path class="cls-10" d="M396.53,95.83h-1.89V89.08h-3.48v6.75h-1.89v-8.4h7.26Z"/><path class="cls-10" d="M403.94,95.83h-1.86V91.14h-1a9.69,9.69,0,0,1-1,3.74,2,2,0,0,1-1.8,1,2.36,2.36,0,0,1-.72-.11V94.53a1.07,1.07,0,0,0,.43.09c.37,0,.68-.34.92-1a18.88,18.88,0,0,0,.65-3.76h4.36Z"/><path class="cls-10" d="M410.5,95.83h-1.76V95h0a2,2,0,0,1-1.79,1,1.86,1.86,0,0,1-1.37-.5,1.75,1.75,0,0,1-.5-1.32q0-1.74,2.07-2l1.62-.22c0-.66-.35-1-1.06-1a3.65,3.65,0,0,0-2,.63V90.19a4.67,4.67,0,0,1,1.06-.35,5.56,5.56,0,0,1,1.22-.15,2.27,2.27,0,0,1,2.57,2.56Zm-1.75-2.43V93l-1.08.14c-.61.08-.91.35-.91.82a.67.67,0,0,0,.22.51.84.84,0,0,0,.6.21,1.11,1.11,0,0,0,.85-.36A1.3,1.3,0,0,0,408.75,93.4Z"/><path class="cls-10" d="M416.45,91.24h-1.61v4.59H413V91.24h-1.62V89.83h5.09Z"/><path class="cls-10" d="M422,95.9v2.72H420.3V95.9H420a3.12,3.12,0,0,1-2.31-.83,3,3,0,0,1-.85-2.21,3,3,0,0,1,.85-2.26,3.13,3.13,0,0,1,2.32-.84h.27V87.24H422v2.52h.27a3.19,3.19,0,0,1,2.33.83,3,3,0,0,1,.85,2.27,2.93,2.93,0,0,1-.85,2.21,3.12,3.12,0,0,1-2.31.83Zm-1.73-1.3V91.07h-.09a1.34,1.34,0,0,0-1.08.47,2.09,2.09,0,0,0-.38,1.32,2,2,0,0,0,.39,1.27,1.36,1.36,0,0,0,1.09.47ZM422,91.07V94.6h.08a1.36,1.36,0,0,0,1.09-.47,2,2,0,0,0,.4-1.27,2,2,0,0,0-.39-1.32,1.34,1.34,0,0,0-1.08-.47Z"/><path class="cls-10" d="M429.51,96a3.2,3.2,0,0,1-2.35-.84,3.47,3.47,0,0,1,0-4.61,3.35,3.35,0,0,1,2.41-.84,3.19,3.19,0,0,1,2.34.84,3,3,0,0,1,.85,2.22,3.15,3.15,0,0,1-.88,2.36A3.24,3.24,0,0,1,429.51,96Zm.05-4.88a1.21,1.21,0,0,0-1,.46,2,2,0,0,0-.36,1.27c0,1.16.46,1.73,1.39,1.73s1.33-.59,1.33-1.77S430.46,91.1,429.56,91.1Z"/><path class="cls-10" d="M435.87,95.14h0v3.45H434V89.83h1.85v.91h0a2.36,2.36,0,0,1,3.73-.25,3.42,3.42,0,0,1,.63,2.17,3.71,3.71,0,0,1-.74,2.41,2.4,2.4,0,0,1-2,.91A1.87,1.87,0,0,1,435.87,95.14Zm-.06-2.47v.49a1.52,1.52,0,0,0,.33,1,1.08,1.08,0,0,0,.86.39,1.12,1.12,0,0,0,1-.49,2.29,2.29,0,0,0,.35-1.38q0-1.59-1.23-1.59a1.16,1.16,0,0,0-.93.44A1.68,1.68,0,0,0,435.81,92.67Z"/><path class="cls-10" d="M449.2,95.83h-1.73V91.16a9.51,9.51,0,0,1-.31,1.11L446,95.83h-1.63l-1.16-3.56a6.2,6.2,0,0,1-.31-1.1v4.66h-1.46v-6h2.44L445,93.25a7.21,7.21,0,0,1,.29,1.07,9.66,9.66,0,0,1,.3-1l1.12-3.44h2.48Z"/><path class="cls-10" d="M455.75,95.83H454V95h0a2,2,0,0,1-1.79,1,1.86,1.86,0,0,1-1.37-.5,1.79,1.79,0,0,1-.5-1.32q0-1.74,2.07-2l1.63-.22c0-.66-.36-1-1.07-1a3.7,3.7,0,0,0-2,.63V90.19a4.67,4.67,0,0,1,1.06-.35,5.63,5.63,0,0,1,1.22-.15,2.27,2.27,0,0,1,2.57,2.56ZM454,93.4V93l-1.09.14c-.6.08-.91.35-.91.82a.67.67,0,0,0,.22.51.84.84,0,0,0,.6.21,1.1,1.1,0,0,0,.85-.36A1.31,1.31,0,0,0,454,93.4Z"/><path class="cls-10" d="M384.42,104.83,382,111.31c-.59,1.56-1.47,2.34-2.65,2.34a3.46,3.46,0,0,1-1.11-.15V112a1.51,1.51,0,0,0,.8.22,1,1,0,0,0,1-.67l.32-.75-2.44-6h2l1.12,3.65a5,5,0,0,1,.16.81h0a5.22,5.22,0,0,1,.19-.79l1.13-3.67Z"/><path class="cls-10" d="M391,113H389.5v-2.19h-4V113H384v-3.49h.53a8.93,8.93,0,0,0,1.34-4.7h4.22v4.7H391Zm-2.81-3.49v-3.4h-.92a7.79,7.79,0,0,1-1,3.4Z"/><path class="cls-10" d="M395,111a3.23,3.23,0,0,1-2.36-.84,3.47,3.47,0,0,1,0-4.61,3.37,3.37,0,0,1,2.41-.84,3.16,3.16,0,0,1,2.34.84,3,3,0,0,1,.85,2.22,3.18,3.18,0,0,1-.87,2.36A3.27,3.27,0,0,1,395,111Zm0-4.88a1.24,1.24,0,0,0-1,.46,2,2,0,0,0-.36,1.27c0,1.16.47,1.73,1.4,1.73s1.33-.59,1.33-1.77S395.89,106.1,395,106.1Z"/><path class="cls-10" d="M404,110.62a3.69,3.69,0,0,1-1.81.36,3.06,3.06,0,0,1-2.24-.84,2.89,2.89,0,0,1-.85-2.16,3.19,3.19,0,0,1,.91-2.41,3.39,3.39,0,0,1,2.46-.88A3.12,3.12,0,0,1,404,105v1.57a2.12,2.12,0,0,0-1.29-.44,1.71,1.71,0,0,0-1.27.47,2,2,0,0,0,0,2.54,1.66,1.66,0,0,0,1.23.45,2.42,2.42,0,0,0,1.35-.43Z"/><path class="cls-10" d="M409.67,106.24h-1.6v4.59H406.2v-4.59h-1.61v-1.41h5.08Z"/><path class="cls-10" d="M413.33,111a3.23,3.23,0,0,1-2.36-.84,3.47,3.47,0,0,1,0-4.61,3.38,3.38,0,0,1,2.41-.84,3.16,3.16,0,0,1,2.34.84,3,3,0,0,1,.85,2.22,3.18,3.18,0,0,1-.87,2.36A3.27,3.27,0,0,1,413.33,111Zm.05-4.88a1.21,1.21,0,0,0-1,.46,1.92,1.92,0,0,0-.37,1.27c0,1.16.47,1.73,1.4,1.73s1.33-.59,1.33-1.77S414.27,106.1,413.38,106.1Z"/><path class="cls-10" d="M417.8,110.83v-6h3.36c1.43,0,2.14.49,2.14,1.47a1.21,1.21,0,0,1-.34.88,1.55,1.55,0,0,1-.87.47,1.76,1.76,0,0,1,1,.46,1.26,1.26,0,0,1,.38.92,1.65,1.65,0,0,1-.58,1.31,2.39,2.39,0,0,1-1.6.49Zm1.86-4.87v1.26h.9c.57,0,.85-.22.85-.66s-.27-.6-.8-.6Zm0,2.35v1.37h1.06c.59,0,.89-.24.89-.72s-.31-.65-.91-.65Z"/><path class="cls-10" d="M430.15,108.36h-3.91c.06.87.61,1.31,1.64,1.31a3.24,3.24,0,0,0,1.74-.47v1.33a4.5,4.5,0,0,1-2.16.45,2.81,2.81,0,0,1-3.06-3,3.2,3.2,0,0,1,.87-2.37,2.9,2.9,0,0,1,2.13-.87,2.62,2.62,0,0,1,2,.78,3,3,0,0,1,.72,2.11Zm-1.72-1.14c0-.86-.34-1.29-1-1.29a1,1,0,0,0-.77.37,1.72,1.72,0,0,0-.4.92Z"/><path class="cls-10" d="M433.13,110.14h0v3.45h-1.85v-8.76h1.85v.91h0a2.36,2.36,0,0,1,3.73-.25,3.42,3.42,0,0,1,.63,2.17,3.65,3.65,0,0,1-.74,2.41,2.4,2.4,0,0,1-2,.91A1.87,1.87,0,0,1,433.13,110.14Zm-.06-2.47v.49a1.52,1.52,0,0,0,.33,1,1.08,1.08,0,0,0,.86.39,1.14,1.14,0,0,0,1-.49,2.37,2.37,0,0,0,.34-1.38q0-1.59-1.23-1.59a1.16,1.16,0,0,0-.93.44A1.68,1.68,0,0,0,433.07,107.67Z"/><path class="cls-10" d="M444.08,108.36h-3.91c.06.87.61,1.31,1.65,1.31a3.24,3.24,0,0,0,1.74-.47v1.33a4.57,4.57,0,0,1-2.17.45,2.79,2.79,0,0,1-3.05-3,3.24,3.24,0,0,1,.86-2.37,2.9,2.9,0,0,1,2.14-.87,2.63,2.63,0,0,1,2,.78,3,3,0,0,1,.71,2.11Zm-1.71-1.14q0-1.29-1.05-1.29a1,1,0,0,0-.77.37,1.78,1.78,0,0,0-.39.92Z"/><path class="cls-10" d="M451,110.83h-1.86v-2.5H447v2.5h-1.85v-6H447v2.22h2.07v-2.22H451Z"/><path class="cls-10" d="M458.49,110.83h-1.68v-3.92a7.59,7.59,0,0,1-.49.85l-2,3.07h-1.75v-6h1.69v3.81a6.47,6.47,0,0,1,.41-.74l2-3.07h1.82Z"/><path class="cls-10" d="M466,110.83h-1.68v-3.92a7.59,7.59,0,0,1-.49.85l-2,3.07h-1.75v-6h1.69v3.81a6.47,6.47,0,0,1,.41-.74l2-3.07H466Zm-.43-8.86a2.13,2.13,0,0,1-.8,1.48,3,3,0,0,1-3.48,0,2,2,0,0,1-.75-1.48h1.35a1,1,0,0,0,.37.74,1.23,1.23,0,0,0,1.59,0,1.08,1.08,0,0,0,.37-.74Z"/><path class="cls-10" d="M395.53,125.83h-1.87v-5c0-.55,0-1.15.07-1.8h-.05a7.75,7.75,0,0,1-.26,1.11l-2,5.71h-1.54l-2-5.65c0-.15-.14-.54-.26-1.17h-.06c.06.82.08,1.55.08,2.18v4.64H386v-8.4h2.77l1.71,5a6.58,6.58,0,0,1,.3,1.2h0c.1-.46.22-.87.33-1.21l1.72-5h2.7Z"/><path class="cls-10" d="M402.25,125.83H400.5V125h0a2,2,0,0,1-1.79,1,1.9,1.9,0,0,1-1.38-.5,1.79,1.79,0,0,1-.5-1.32q0-1.74,2.07-2l1.63-.22c0-.66-.35-1-1.07-1a3.65,3.65,0,0,0-2,.63v-1.39a4.57,4.57,0,0,1,1-.35,5.7,5.7,0,0,1,1.22-.15,2.26,2.26,0,0,1,2.57,2.56Zm-1.74-2.43V123l-1.09.14c-.6.08-.9.35-.9.82a.64.64,0,0,0,.22.51.8.8,0,0,0,.59.21,1.1,1.1,0,0,0,.85-.36A1.31,1.31,0,0,0,400.51,123.4Z"/><path class="cls-10" d="M409.68,125.83H408v-3.92a7.59,7.59,0,0,1-.49.85l-2,3.07h-1.75v-6h1.69v3.81a5.24,5.24,0,0,1,.41-.74l2-3.07h1.82Zm-.43-8.86a2.1,2.1,0,0,1-.81,1.48,2.67,2.67,0,0,1-1.72.55,2.71,2.71,0,0,1-1.75-.55,1.91,1.91,0,0,1-.75-1.48h1.35a1,1,0,0,0,.37.74,1.23,1.23,0,0,0,1.59,0,1.08,1.08,0,0,0,.37-.74Z"/><path class="cls-10" d="M417.23,125.83H415l-1.89-2.93h0v2.93h-1.85v-6h1.85v2.82h0l1.85-2.82h2.19L415,122.69Z"/><path class="cls-10" d="M419.83,125.14h0v3.45H418v-8.76h1.86v.91h0a2.36,2.36,0,0,1,3.73-.25,3.42,3.42,0,0,1,.63,2.17,3.65,3.65,0,0,1-.74,2.41,2.4,2.4,0,0,1-2,.91A1.87,1.87,0,0,1,419.83,125.14Zm-.05-2.47v.49a1.57,1.57,0,0,0,.32,1,1.08,1.08,0,0,0,.87.39,1.14,1.14,0,0,0,1-.49,2.36,2.36,0,0,0,.35-1.38q0-1.59-1.23-1.59a1.16,1.16,0,0,0-.93.44A1.68,1.68,0,0,0,419.78,122.67Z"/><path class="cls-10" d="M428.25,126a3.2,3.2,0,0,1-2.35-.84,3.47,3.47,0,0,1,0-4.61,3.37,3.37,0,0,1,2.41-.84,3.19,3.19,0,0,1,2.34.84,3,3,0,0,1,.85,2.22,3.15,3.15,0,0,1-.88,2.36A3.24,3.24,0,0,1,428.25,126Zm.05-4.88a1.21,1.21,0,0,0-1,.46,2,2,0,0,0-.36,1.27c0,1.16.46,1.73,1.39,1.73s1.33-.59,1.33-1.77S429.2,121.1,428.3,121.1Z"/><path class="cls-10" d="M437.28,125.62a3.69,3.69,0,0,1-1.81.36,3.06,3.06,0,0,1-2.24-.84,2.9,2.9,0,0,1-.86-2.16,3.19,3.19,0,0,1,.92-2.41,3.38,3.38,0,0,1,2.45-.88,3.14,3.14,0,0,1,1.54.28v1.57a2.13,2.13,0,0,0-1.3-.44,1.71,1.71,0,0,0-1.26.47,1.75,1.75,0,0,0-.47,1.29,1.71,1.71,0,0,0,.45,1.25,1.65,1.65,0,0,0,1.22.45,2.43,2.43,0,0,0,1.36-.43Z"/><path class="cls-10" d="M441.35,126a3.23,3.23,0,0,1-2.36-.84,3.47,3.47,0,0,1,0-4.61,3.38,3.38,0,0,1,2.41-.84,3.2,3.2,0,0,1,2.35.84,3,3,0,0,1,.85,2.22,3.18,3.18,0,0,1-.88,2.36A3.24,3.24,0,0,1,441.35,126Zm0-4.88a1.21,1.21,0,0,0-1,.46,2,2,0,0,0-.37,1.27c0,1.16.47,1.73,1.4,1.73s1.33-.59,1.33-1.77S442.29,121.1,441.4,121.1Z"/><path class="cls-10" d="M450.61,125.9v2.72h-1.72V125.9h-.29a3.12,3.12,0,0,1-2.31-.83,3,3,0,0,1-.84-2.21,3,3,0,0,1,.84-2.26,3.13,3.13,0,0,1,2.32-.84h.28v-2.52h1.72v2.52h.27a3.23,3.23,0,0,1,2.34.83,3.06,3.06,0,0,1,.84,2.27,3,3,0,0,1-.84,2.21,3.16,3.16,0,0,1-2.32.83Zm-1.72-1.3v-3.53h-.1a1.32,1.32,0,0,0-1.07.47,2,2,0,0,0-.39,1.32,2,2,0,0,0,.39,1.27,1.38,1.38,0,0,0,1.1.47Zm1.72-3.53v3.53h.08a1.34,1.34,0,0,0,1.09-.47,1.9,1.9,0,0,0,.4-1.27,2,2,0,0,0-.39-1.32,1.34,1.34,0,0,0-1.08-.47Z"/><path class="cls-10" d="M459.56,121.24H458v4.59h-1.86v-4.59h-1.62v-1.41h5.09Z"/><path class="cls-8" d="M372.9,23.55v-8.4H376a3.8,3.8,0,0,1,2.17.52,1.65,1.65,0,0,1,.75,1.45,1.71,1.71,0,0,1-.46,1.19,2.46,2.46,0,0,1-1.17.71v0a2.42,2.42,0,0,1,1.43.66,1.86,1.86,0,0,1,.54,1.34,2.28,2.28,0,0,1-.83,1.84,3.46,3.46,0,0,1-2.26.67Zm1.89-7v2h.83a1.37,1.37,0,0,0,.92-.29,1,1,0,0,0,.34-.78q0-.93-1.38-.93Zm0,3.4v2.22h1a1.55,1.55,0,0,0,1-.31,1,1,0,0,0,.37-.83,1,1,0,0,0-.36-.79,1.65,1.65,0,0,0-1-.29Z"/><path class="cls-8" d="M385.8,21.08h-3.92c.07.87.62,1.31,1.65,1.31a3.24,3.24,0,0,0,1.74-.47v1.33a4.5,4.5,0,0,1-2.16.45,2.79,2.79,0,0,1-3.06-3.05,3.2,3.2,0,0,1,.87-2.37,2.9,2.9,0,0,1,2.13-.87,2.63,2.63,0,0,1,2,.78,3,3,0,0,1,.72,2.11Zm-1.72-1.14c0-.86-.35-1.29-1-1.29a1,1,0,0,0-.77.37,1.72,1.72,0,0,0-.4.92Z"/><path class="cls-8" d="M392.21,14.53V16a1.51,1.51,0,0,1-.75.29l-1.57.26a1.9,1.9,0,0,0-.78.34,1.58,1.58,0,0,0-.4.61,4.08,4.08,0,0,0-.21,1h0a2.26,2.26,0,0,1,1.79-.77,2.59,2.59,0,0,1,2,.76,3,3,0,0,1,.71,2.09,3.06,3.06,0,0,1-.87,2.29,3.23,3.23,0,0,1-2.37.85,2.88,2.88,0,0,1-2.38-1,4.45,4.45,0,0,1-.81-2.88,9,9,0,0,1,.13-1.63,5,5,0,0,1,.41-1.29,3.29,3.29,0,0,1,.66-.94,2.49,2.49,0,0,1,.81-.54,4.73,4.73,0,0,1,.81-.26c.27-.06.93-.17,2-.33A3.31,3.31,0,0,0,392.21,14.53Zm-3.74,5.24c0,.1,0,.28,0,.55a2.5,2.5,0,0,0,.36,1.43,1.15,1.15,0,0,0,1,.53,1.18,1.18,0,0,0,.94-.44,1.86,1.86,0,0,0,.36-1.19,1.75,1.75,0,0,0-.36-1.18,1.24,1.24,0,0,0-1-.43,1.48,1.48,0,0,0-.76.21A1.5,1.5,0,0,0,388.47,19.77Z"/><path class="cls-8" d="M397.47,21h-3.21V19.7h3.21Z"/><path class="cls-8" d="M404.84,23.55H403V18.86h-2.07v4.69h-1.85v-6h5.78Z"/><path class="cls-8" d="M408.27,22.86h0v3.45H406.4V17.55h1.85v.91h0a2.18,2.18,0,0,1,1.93-1.05,2.14,2.14,0,0,1,1.8.8,3.34,3.34,0,0,1,.64,2.17,3.71,3.71,0,0,1-.74,2.41,2.41,2.41,0,0,1-2,.91A1.88,1.88,0,0,1,408.27,22.86Zm0-2.47v.49a1.52,1.52,0,0,0,.33,1,1.08,1.08,0,0,0,.86.39,1.12,1.12,0,0,0,1-.49,2.29,2.29,0,0,0,.35-1.38q0-1.59-1.23-1.59a1.18,1.18,0,0,0-.93.43A1.73,1.73,0,0,0,408.22,20.39Z"/><path class="cls-8" d="M419.81,23.55h-1.69V19.63a6.3,6.3,0,0,1-.49.85l-2,3.07h-1.75v-6h1.69v3.81c.13-.27.27-.51.41-.74l2-3.07h1.83Z"/><path class="cls-8" d="M427.05,23.55h-1.87V18.86h-1a9.84,9.84,0,0,1-1,3.74,2,2,0,0,1-1.79,1,2.38,2.38,0,0,1-.73-.11V22.25a1.12,1.12,0,0,0,.44.09c.37,0,.67-.34.91-1a19.44,19.44,0,0,0,.66-3.76h4.36Z"/><path class="cls-8" d="M431.47,23.7a3.23,3.23,0,0,1-2.36-.84,3.05,3.05,0,0,1-.86-2.28,3.05,3.05,0,0,1,.89-2.33,3.37,3.37,0,0,1,2.41-.84,3.18,3.18,0,0,1,2.34.84,3,3,0,0,1,.85,2.22,3.18,3.18,0,0,1-.87,2.36A3.27,3.27,0,0,1,431.47,23.7Zm0-4.88a1.24,1.24,0,0,0-1,.46,2,2,0,0,0-.36,1.27c0,1.16.46,1.73,1.39,1.73s1.33-.59,1.33-1.77S432.41,18.82,431.51,18.82Z"/><path class="cls-8" d="M445.11,23.55h-2.18l-1.94-3h0v3h-1.82v-3h0l-1.92,3H435l2.28-3.14-2.22-2.86h2.17l1.87,2.84h0V17.55H441v2.84h0l1.88-2.84H445l-2.22,2.86Z"/><path class="cls-8" d="M451.12,21.08H447.2c.07.87.62,1.31,1.65,1.31a3.24,3.24,0,0,0,1.74-.47v1.33a4.5,4.5,0,0,1-2.16.45,2.79,2.79,0,0,1-3.06-3.05,3.2,3.2,0,0,1,.87-2.37,2.9,2.9,0,0,1,2.13-.87,2.62,2.62,0,0,1,2,.78,3,3,0,0,1,.72,2.11Zm-1.72-1.14c0-.86-.35-1.29-1-1.29a1,1,0,0,0-.77.37,1.72,1.72,0,0,0-.4.92Z"/><path class="cls-8" d="M458,23.55h-1.85V21h-2.08v2.51h-1.85v-6h1.85v2.22h2.08V17.55H458Z"/><path class="cls-8" d="M465.53,23.55h-1.69V19.63a6.3,6.3,0,0,1-.49.85l-2,3.07h-1.75v-6h1.69v3.81a6.5,6.5,0,0,1,.42-.74l2-3.07h1.83Z"/><path class="cls-8" d="M472.48,21.08h-3.91c.06.87.61,1.31,1.64,1.31a3.24,3.24,0,0,0,1.74-.47v1.33a4.5,4.5,0,0,1-2.16.45,2.81,2.81,0,0,1-3.06-3.05,3.2,3.2,0,0,1,.87-2.37,2.9,2.9,0,0,1,2.13-.87,2.6,2.6,0,0,1,2,.78,3,3,0,0,1,.72,2.11Zm-1.72-1.14c0-.86-.34-1.29-1-1.29A1,1,0,0,0,469,19a1.63,1.63,0,0,0-.39.92Z"/><path class="cls-8" d="M407.22,38h-2.06l-.6-1.87h-3L401,38h-2.05l3.06-8.4h2.24Zm-3.09-3.32-.9-2.82a3.12,3.12,0,0,1-.14-.76h0a3.06,3.06,0,0,1-.15.73L402,34.63Z"/><path class="cls-8" d="M407.88,37.63V35.76a3.86,3.86,0,0,0,1.11.64,3.63,3.63,0,0,0,1.21.21,2.77,2.77,0,0,0,.62-.06,1.91,1.91,0,0,0,.45-.18.87.87,0,0,0,.27-.27.77.77,0,0,0,.08-.34.7.7,0,0,0-.14-.44,1.47,1.47,0,0,0-.38-.36,5.08,5.08,0,0,0-.58-.31c-.22-.1-.46-.21-.72-.31a3.83,3.83,0,0,1-1.47-1,2.23,2.23,0,0,1-.48-1.43,2.16,2.16,0,0,1,1-1.91,3.33,3.33,0,0,1,1.05-.45,5.75,5.75,0,0,1,1.27-.14,7.92,7.92,0,0,1,1.16.08,4.46,4.46,0,0,1,.94.24v1.75a3.37,3.37,0,0,0-.46-.25,3.24,3.24,0,0,0-.52-.19,4.82,4.82,0,0,0-.52-.11l-.5,0a2.58,2.58,0,0,0-.58.06,1.57,1.57,0,0,0-.45.17,1,1,0,0,0-.28.27.68.68,0,0,0-.1.35.73.73,0,0,0,.11.38,1.36,1.36,0,0,0,.32.31,3.66,3.66,0,0,0,.5.3l.66.29a6.29,6.29,0,0,1,.9.45A3.18,3.18,0,0,1,413,34a2,2,0,0,1,.44.68,2.4,2.4,0,0,1,.16.89,2.37,2.37,0,0,1-.27,1.18,2.25,2.25,0,0,1-.72.78,3.42,3.42,0,0,1-1.07.42,5.85,5.85,0,0,1-1.28.13A6.86,6.86,0,0,1,409,38,4,4,0,0,1,407.88,37.63Z"/><path class="cls-8" d="M416.89,35.06V38H415v-8.4h3c2.12,0,3.18.89,3.18,2.68a2.61,2.61,0,0,1-.91,2.05,3.63,3.63,0,0,1-2.44.78Zm0-4.06v2.62h.74c1,0,1.52-.44,1.52-1.32s-.51-1.3-1.52-1.3Z"/><path class="cls-8" d="M421.21,38.1a1.08,1.08,0,0,1-.76-.28.92.92,0,0,1-.3-.69.86.86,0,0,1,.31-.69,1.16,1.16,0,0,1,.78-.27,1.12,1.12,0,0,1,.78.27.94.94,0,0,1,0,1.39A1.16,1.16,0,0,1,421.21,38.1Z"/><path class="cls-8" d="M431.38,38h-1.91L426,32.67a5.06,5.06,0,0,1-.42-.69h0c0,.29.05.75.05,1.36V38h-1.79v-8.4h2l3.34,5.12c.15.23.29.46.42.68h0a8.94,8.94,0,0,1-.05-1.15V29.55h1.79Z"/><path class="cls-8" d="M438.34,38h-5v-8.4h4.85v1.54H435.2V33h2.74V34.5H435.2v1.92h3.14Z"/><path class="cls-8" d="M445.7,31.09h-2.4V38h-1.9V31.09H439V29.55h6.68Z"/><path class="cls-9" d="M191.37,10.41h-1V7c0-1.25-.47-1.87-1.4-1.87a1.53,1.53,0,0,0-1.18.54A2,2,0,0,0,187.35,7v3.4h-1V1.53h1V5.41h0a2.18,2.18,0,0,1,2-1.14c1.35,0,2,.81,2,2.44Z"/><path class="cls-9" d="M195.88,10.35a1.82,1.82,0,0,1-.9.19c-1,0-1.57-.59-1.57-1.76V5.23h-1V4.41h1V2.94l1-.31V4.41h1.51v.82h-1.51V8.61a1.45,1.45,0,0,0,.2.86.84.84,0,0,0,.68.26,1.05,1.05,0,0,0,.63-.2Z"/><path class="cls-9" d="M199.86,10.35a1.76,1.76,0,0,1-.89.19c-1.06,0-1.58-.59-1.58-1.76V5.23h-1V4.41h1V2.94l1-.31V4.41h1.51v.82h-1.51V8.61a1.37,1.37,0,0,0,.21.86.8.8,0,0,0,.67.26,1,1,0,0,0,.63-.2Z"/><path class="cls-9" d="M202.05,9.54h0v3.63h-1V4.41h1v1h0a2.27,2.27,0,0,1,2.07-1.19,2.21,2.21,0,0,1,1.81.8,3.37,3.37,0,0,1,.65,2.16,3.73,3.73,0,0,1-.73,2.42,2.46,2.46,0,0,1-2,.9A2,2,0,0,1,202.05,9.54Zm0-2.42V8a1.73,1.73,0,0,0,.49,1.26,1.58,1.58,0,0,0,1.22.52,1.6,1.6,0,0,0,1.37-.67,3,3,0,0,0,.5-1.85,2.39,2.39,0,0,0-.47-1.57,1.52,1.52,0,0,0-1.25-.57,1.7,1.7,0,0,0-1.35.58A2.15,2.15,0,0,0,202,7.12Z"/><path class="cls-9" d="M207.67,10.19v-1a2.82,2.82,0,0,0,1.73.58q1.26,0,1.26-.84a.68.68,0,0,0-.11-.41,1.17,1.17,0,0,0-.29-.3,2.86,2.86,0,0,0-.43-.23l-.54-.21c-.26-.11-.5-.21-.7-.32a2.22,2.22,0,0,1-.5-.36,1.38,1.38,0,0,1-.31-.46,1.63,1.63,0,0,1-.1-.61,1.38,1.38,0,0,1,.19-.74,1.7,1.7,0,0,1,.52-.55,2.21,2.21,0,0,1,.73-.33,3.49,3.49,0,0,1,.86-.11,3.41,3.41,0,0,1,1.39.27v1a2.7,2.7,0,0,0-1.52-.43,1.88,1.88,0,0,0-.49.06,1.26,1.26,0,0,0-.37.17,1,1,0,0,0-.24.27.67.67,0,0,0-.09.34.75.75,0,0,0,.09.39,1,1,0,0,0,.25.29,2.11,2.11,0,0,0,.4.22l.53.21c.27.11.5.21.72.32a2.45,2.45,0,0,1,.53.36,1.37,1.37,0,0,1,.47,1.09,1.51,1.51,0,0,1-.2.78,1.58,1.58,0,0,1-.52.54,2.26,2.26,0,0,1-.76.32,3.27,3.27,0,0,1-.9.11A3.37,3.37,0,0,1,207.67,10.19Z"/><path class="cls-9" d="M213.37,5.58a.62.62,0,0,1-.46-.19.68.68,0,0,1-.19-.46.64.64,0,0,1,.19-.46.62.62,0,0,1,.46-.19.63.63,0,0,1,.47.19.61.61,0,0,1,.2.46.65.65,0,0,1-.2.46A.63.63,0,0,1,213.37,5.58Zm0,5a.66.66,0,0,1-.46-.19.68.68,0,0,1-.19-.47.66.66,0,0,1,.19-.46.67.67,0,0,1,1.13.46.65.65,0,0,1-.2.47A.67.67,0,0,1,213.37,10.54Z"/><path class="cls-9" d="M219.35,2l-4,9.79h-.9l4-9.79Z"/><path class="cls-9" d="M223.94,2l-4,9.79H219L223,2Z"/><path class="cls-9" d="M229.52,4.41l-2.76,7c-.5,1.24-1.19,1.86-2.08,1.86a2.16,2.16,0,0,1-.62-.07V12.3a1.7,1.7,0,0,0,.56.1,1.17,1.17,0,0,0,1.09-.87l.48-1.13-2.34-6h1.07L226.54,9q0,.09.12.45h0l.11-.44,1.71-4.63Z"/><path class="cls-9" d="M233,10.55a2.77,2.77,0,0,1-2.12-.84,3.11,3.11,0,0,1-.8-2.23,3.25,3.25,0,0,1,.83-2.36,3,3,0,0,1,2.23-.85,2.68,2.68,0,0,1,2.1.83A3.27,3.27,0,0,1,236,7.39a3.25,3.25,0,0,1-.81,2.3A2.87,2.87,0,0,1,233,10.55ZM233,5.08a1.81,1.81,0,0,0-1.46.63A2.58,2.58,0,0,0,231,7.44a2.47,2.47,0,0,0,.54,1.69,1.86,1.86,0,0,0,1.46.61,1.75,1.75,0,0,0,1.43-.6A2.6,2.6,0,0,0,235,7.42a2.61,2.61,0,0,0-.51-1.73A1.73,1.73,0,0,0,233,5.08Z"/><path class="cls-9" d="M242.26,10.41h-1V9.46h0a2,2,0,0,1-1.85,1.09c-1.43,0-2.15-.85-2.15-2.55V4.41h1V7.84c0,1.27.48,1.9,1.45,1.9a1.47,1.47,0,0,0,1.16-.52,2,2,0,0,0,.45-1.35V4.41h1Z"/><path class="cls-9" d="M247.25,5.38a1.18,1.18,0,0,0-.73-.19,1.23,1.23,0,0,0-1,.58,2.72,2.72,0,0,0-.41,1.58v3.06h-1v-6h1V5.65h0a2.12,2.12,0,0,1,.63-1,1.42,1.42,0,0,1,.94-.36,1.5,1.5,0,0,1,.58.09Z"/><path class="cls-9" d="M247.84,10.19v-1a2.84,2.84,0,0,0,1.73.58c.85,0,1.27-.28,1.27-.84a.76.76,0,0,0-.11-.41,1.17,1.17,0,0,0-.29-.3A3,3,0,0,0,250,8l-.53-.21a6.76,6.76,0,0,1-.7-.32,2.29,2.29,0,0,1-.51-.36,1.52,1.52,0,0,1-.3-.46,1.62,1.62,0,0,1-.11-.61,1.39,1.39,0,0,1,.2-.74,1.78,1.78,0,0,1,.51-.55,2.26,2.26,0,0,1,.74-.33,3.41,3.41,0,0,1,.85-.11,3.46,3.46,0,0,1,1.4.27v1A2.74,2.74,0,0,0,250,5.08a1.75,1.75,0,0,0-.48.06,1.33,1.33,0,0,0-.38.17,1,1,0,0,0-.24.27.77.77,0,0,0-.08.34.87.87,0,0,0,.08.39,1,1,0,0,0,.25.29,2.48,2.48,0,0,0,.4.22l.53.21c.27.11.51.21.72.32a2.82,2.82,0,0,1,.54.36,1.41,1.41,0,0,1,.34.47,1.46,1.46,0,0,1,.12.62,1.5,1.5,0,0,1-.19.78,1.71,1.71,0,0,1-.53.54,2.26,2.26,0,0,1-.76.32,3.24,3.24,0,0,1-.89.11A3.41,3.41,0,0,1,247.84,10.19Z"/><path class="cls-9" d="M253.71,2.89a.59.59,0,0,1-.44-.18.62.62,0,0,1,0-.89.59.59,0,0,1,.44-.18.6.6,0,0,1,.44.18.58.58,0,0,1,.19.45.56.56,0,0,1-.19.43A.58.58,0,0,1,253.71,2.89Zm.46,7.52h-1v-6h1Z"/><path class="cls-9" d="M258.82,10.35a1.82,1.82,0,0,1-.9.19c-1.05,0-1.57-.59-1.57-1.76V5.23h-1V4.41h1V2.94l1-.31V4.41h1.51v.82h-1.51V8.61a1.45,1.45,0,0,0,.2.86.84.84,0,0,0,.68.26,1.05,1.05,0,0,0,.63-.2Z"/><path class="cls-9" d="M264.84,7.65H260.6a2.3,2.3,0,0,0,.54,1.55,1.88,1.88,0,0,0,1.42.54,2.89,2.89,0,0,0,1.86-.67V10a3.47,3.47,0,0,1-2.09.57,2.54,2.54,0,0,1-2-.82,3.35,3.35,0,0,1-.72-2.3,3.28,3.28,0,0,1,.79-2.28,2.54,2.54,0,0,1,2-.88A2.26,2.26,0,0,1,264.2,5a3.18,3.18,0,0,1,.64,2.12Zm-1-.81a2,2,0,0,0-.4-1.3,1.37,1.37,0,0,0-1.1-.46,1.57,1.57,0,0,0-1.16.48,2.24,2.24,0,0,0-.58,1.28Z"/><path class="cls-9" d="M266.54,10.54a.66.66,0,0,1-.46-.19.68.68,0,0,1-.19-.47.66.66,0,0,1,.19-.46.67.67,0,0,1,1.13.46.65.65,0,0,1-.2.47A.67.67,0,0,1,266.54,10.54Z"/><path class="cls-9" d="M272.82,10.13a3.1,3.1,0,0,1-1.64.42,2.72,2.72,0,0,1-2.07-.83,3,3,0,0,1-.79-2.17,3.3,3.3,0,0,1,.85-2.38,3,3,0,0,1,2.26-.9,3.24,3.24,0,0,1,1.4.29v1a2.4,2.4,0,0,0-1.43-.47,1.93,1.93,0,0,0-1.51.66,2.5,2.5,0,0,0-.59,1.73,2.36,2.36,0,0,0,.56,1.66,1.87,1.87,0,0,0,1.48.61,2.41,2.41,0,0,0,1.48-.52Z"/><path class="cls-9" d="M276.69,10.55a2.79,2.79,0,0,1-2.12-.84,3.1,3.1,0,0,1-.79-2.23,3.24,3.24,0,0,1,.82-2.36,3,3,0,0,1,2.23-.85,2.66,2.66,0,0,1,2.1.83,3.27,3.27,0,0,1,.75,2.29,3.25,3.25,0,0,1-.81,2.3A2.87,2.87,0,0,1,276.69,10.55Zm.07-5.47a1.83,1.83,0,0,0-1.46.63,2.58,2.58,0,0,0-.54,1.73,2.42,2.42,0,0,0,.55,1.69,1.84,1.84,0,0,0,1.45.61,1.77,1.77,0,0,0,1.44-.6,2.65,2.65,0,0,0,.5-1.72,2.66,2.66,0,0,0-.5-1.73A1.75,1.75,0,0,0,276.76,5.08Z"/><path class="cls-9" d="M289.65,10.41h-1V7a2.57,2.57,0,0,0-.31-1.44,1.17,1.17,0,0,0-1-.44,1.3,1.3,0,0,0-1.05.56A2.2,2.2,0,0,0,285.87,7v3.42h-1V6.85c0-1.18-.45-1.77-1.36-1.77a1.27,1.27,0,0,0-1.05.53A2.2,2.2,0,0,0,282.09,7v3.42h-1v-6h1v1h0A2,2,0,0,1,284,4.27a1.73,1.73,0,0,1,1.7,1.24,2.14,2.14,0,0,1,2-1.24c1.32,0,2,.81,2,2.44Z"/><path class="cls-9" d="M193,39.21h-1V31.72H187.6v7.49h-1v-8.4H193Z"/><path class="cls-9" d="M199.86,36.45h-4.23a2.21,2.21,0,0,0,.54,1.55,1.85,1.85,0,0,0,1.41.54,2.94,2.94,0,0,0,1.87-.67v.91a3.53,3.53,0,0,1-2.1.57,2.51,2.51,0,0,1-2-.82,3.83,3.83,0,0,1,.06-4.58,2.55,2.55,0,0,1,2-.88,2.25,2.25,0,0,1,1.82.76,3.18,3.18,0,0,1,.64,2.12Zm-1-.81a2,2,0,0,0-.4-1.3,1.37,1.37,0,0,0-1.1-.46,1.59,1.59,0,0,0-1.16.48,2.24,2.24,0,0,0-.58,1.28Z"/><path class="cls-9" d="M202.3,38.34h0V42h-1V33.21h1v1h0a2.27,2.27,0,0,1,2.07-1.19,2.21,2.21,0,0,1,1.82.81,3.32,3.32,0,0,1,.65,2.15,3.74,3.74,0,0,1-.74,2.42,2.44,2.44,0,0,1-2,.9A2,2,0,0,1,202.3,38.34Zm0-2.42v.84a1.77,1.77,0,0,0,.48,1.26,1.59,1.59,0,0,0,1.23.52,1.6,1.6,0,0,0,1.37-.67,3,3,0,0,0,.49-1.85,2.41,2.41,0,0,0-.46-1.57,1.54,1.54,0,0,0-1.26-.57,1.69,1.69,0,0,0-1.34.58A2.15,2.15,0,0,0,202.28,35.92Z"/><path class="cls-9" d="M213.19,36.45H209A2.21,2.21,0,0,0,209.5,38a1.85,1.85,0,0,0,1.41.54,2.94,2.94,0,0,0,1.87-.67v.91a3.52,3.52,0,0,1-2.09.57,2.52,2.52,0,0,1-2-.82,3.83,3.83,0,0,1,.06-4.58,2.55,2.55,0,0,1,2-.88,2.25,2.25,0,0,1,1.82.76,3.18,3.18,0,0,1,.64,2.12Zm-1-.81a2,2,0,0,0-.4-1.3,1.37,1.37,0,0,0-1.1-.46,1.59,1.59,0,0,0-1.16.48,2.24,2.24,0,0,0-.58,1.28Z"/><path class="cls-9" d="M219.63,39.21h-1V36.49h-3.06v2.72h-1v-6h1v2.46h3.06V33.21h1Z"/><path class="cls-9" d="M225.87,39.21h-1v-.94h0a2.2,2.2,0,0,1-3.25.61,1.68,1.68,0,0,1-.5-1.26c0-1.12.66-1.78,2-2l1.8-.25c0-1-.42-1.53-1.24-1.53a2.92,2.92,0,0,0-2,.74v-1a3.76,3.76,0,0,1,2-.56c1.41,0,2.12.75,2.12,2.24Zm-1-3-1.45.2a2.43,2.43,0,0,0-1,.34,1.08,1.08,0,0,0,0,1.55,1.2,1.2,0,0,0,.84.28,1.51,1.51,0,0,0,1.18-.5,1.8,1.8,0,0,0,.47-1.27Z"/><path class="cls-9" d="M232.66,39.21h-1V34h-3.06v5.18h-1v-6h5Z"/><path class="cls-9" d="M235.59,38.34h0V42h-1V33.21h1v1h0a2.27,2.27,0,0,1,2.07-1.19,2.18,2.18,0,0,1,1.81.81,3.27,3.27,0,0,1,.65,2.15,3.73,3.73,0,0,1-.73,2.42,2.45,2.45,0,0,1-2,.9A2,2,0,0,1,235.59,38.34Zm0-2.42v.84a1.78,1.78,0,0,0,.49,1.26,1.71,1.71,0,0,0,2.59-.15,3,3,0,0,0,.5-1.85,2.47,2.47,0,0,0-.46-1.57,1.54,1.54,0,0,0-1.26-.57,1.7,1.7,0,0,0-1.35.58A2.15,2.15,0,0,0,235.56,35.92Z"/><path class="cls-9" d="M246,39.21h-1v-.94h0a2,2,0,0,1-1.85,1.08,2,2,0,0,1-1.4-.47,1.65,1.65,0,0,1-.51-1.26c0-1.12.66-1.78,2-2l1.8-.25q0-1.53-1.23-1.53a2.91,2.91,0,0,0-2,.74v-1a3.76,3.76,0,0,1,2-.56c1.41,0,2.11.75,2.11,2.24Zm-1-3-1.45.2a2.37,2.37,0,0,0-1,.34.93.93,0,0,0-.34.84.89.89,0,0,0,.31.71,1.2,1.2,0,0,0,.84.28,1.53,1.53,0,0,0,1.18-.5,1.79,1.79,0,0,0,.46-1.27Z"/><path class="cls-9" d="M247.76,39.21v-6h2.62a2.23,2.23,0,0,1,1.39.39,1.26,1.26,0,0,1,.52,1.07,1.32,1.32,0,0,1-1.15,1.42c.92.12,1.38.58,1.38,1.39a1.56,1.56,0,0,1-.57,1.23,2.05,2.05,0,0,1-1.4.5Zm1-5.18v1.69h1.45c.77,0,1.16-.3,1.16-.9S251,34,250.28,34Zm0,2.51v1.85h1.67c.78,0,1.16-.31,1.16-.94s-.43-.91-1.3-.91Z"/><path class="cls-9" d="M258.5,39.21h-1V34h-1.39a12.59,12.59,0,0,1-.82,4.09,1.77,1.77,0,0,1-1.57,1.18,1.62,1.62,0,0,1-.52-.08v-.83a1,1,0,0,0,.45.11q1.29,0,1.66-5.28h3.15Z"/><path class="cls-9" d="M265.27,36.45H261a2.21,2.21,0,0,0,.54,1.55,1.85,1.85,0,0,0,1.42.54,2.93,2.93,0,0,0,1.86-.67v.91a3.5,3.5,0,0,1-2.09.57,2.52,2.52,0,0,1-2-.82,3.36,3.36,0,0,1-.73-2.3,3.29,3.29,0,0,1,.8-2.28,2.53,2.53,0,0,1,2-.88,2.25,2.25,0,0,1,1.82.76,3.18,3.18,0,0,1,.65,2.12Zm-1-.81a2,2,0,0,0-.4-1.3,1.36,1.36,0,0,0-1.1-.46,1.55,1.55,0,0,0-1.15.48,2.25,2.25,0,0,0-.59,1.28Z"/><path class="cls-9" d="M271.7,39.21h-1V36.49h-3.06v2.72h-1v-6h1v2.46h3.06V33.21h1Z"/><path class="cls-9" d="M278.67,39.21h-.87V34.42c-.08.17-.21.41-.39.71l-2.77,4.08h-1v-6h.88v4.73a6.36,6.36,0,0,1,.31-.58l2.85-4.15h1Z"/><path class="cls-9" d="M285.44,36.45H281.2a2.3,2.3,0,0,0,.54,1.55,1.88,1.88,0,0,0,1.42.54,2.89,2.89,0,0,0,1.86-.67v.91a3.47,3.47,0,0,1-2.09.57,2.53,2.53,0,0,1-2-.82,3.35,3.35,0,0,1-.72-2.3A3.28,3.28,0,0,1,281,34a2.54,2.54,0,0,1,2-.88,2.22,2.22,0,0,1,1.82.76,3.18,3.18,0,0,1,.65,2.12Zm-1-.81a2,2,0,0,0-.41-1.3,1.35,1.35,0,0,0-1.09-.46,1.57,1.57,0,0,0-1.16.48,2.25,2.25,0,0,0-.59,1.28Z"/><path class="cls-9" d="M213.79,162.43h-1v-5.64c0-.44,0-1,.08-1.63h0a6.37,6.37,0,0,1-.25.81l-2.88,6.46h-.48L206.4,156a4.93,4.93,0,0,1-.25-.86h0c0,.33,0,.88,0,1.64v5.63h-.95V154h1.3l2.58,5.86a7.92,7.92,0,0,1,.39,1h0c.17-.46.3-.8.41-1l2.63-5.83h1.23Z"/><path class="cls-9" d="M220.09,162.43h-1v-.94h0a2,2,0,0,1-1.85,1.08,2,2,0,0,1-1.4-.47,1.65,1.65,0,0,1-.51-1.26c0-1.13.66-1.78,2-2l1.8-.25c0-1-.41-1.53-1.24-1.53a2.9,2.9,0,0,0-1.95.74v-1a3.76,3.76,0,0,1,2-.56c1.41,0,2.11.75,2.11,2.24Zm-1-3-1.45.2a2.65,2.65,0,0,0-1,.33,1,1,0,0,0-.34.85.9.9,0,0,0,.32.71,1.19,1.19,0,0,0,.83.28,1.55,1.55,0,0,0,1.18-.5,1.8,1.8,0,0,0,.47-1.27Z"/><path class="cls-9" d="M222.81,161.56h0v3.63h-1v-8.76h1v1h0a2.3,2.3,0,0,1,2.08-1.19,2.21,2.21,0,0,1,1.81.8,3.37,3.37,0,0,1,.65,2.16,3.79,3.79,0,0,1-.73,2.42,2.46,2.46,0,0,1-2,.9A2,2,0,0,1,222.81,161.56Zm0-2.42V160a1.77,1.77,0,0,0,.48,1.26,1.73,1.73,0,0,0,2.6-.15,3,3,0,0,0,.49-1.85,2.39,2.39,0,0,0-.46-1.57,1.52,1.52,0,0,0-1.25-.57,1.7,1.7,0,0,0-1.35.58A2.15,2.15,0,0,0,222.79,159.14Z"/><path class="cls-9" d="M233.79,162.43h-1.35l-2.64-2.88h0v2.88h-1v-6h1v2.75h0l2.52-2.75h1.26l-2.79,2.89Z"/><path class="cls-9" d="M239.53,159.67h-4.24a2.3,2.3,0,0,0,.54,1.55,1.87,1.87,0,0,0,1.42.54,2.93,2.93,0,0,0,1.86-.67V162a3.5,3.5,0,0,1-2.09.57,2.53,2.53,0,0,1-2-.82,3.36,3.36,0,0,1-.73-2.3,3.29,3.29,0,0,1,.8-2.28,2.53,2.53,0,0,1,2-.88,2.24,2.24,0,0,1,1.82.76,3.18,3.18,0,0,1,.65,2.12Zm-1-.81a2,2,0,0,0-.4-1.3,1.36,1.36,0,0,0-1.1-.46,1.55,1.55,0,0,0-1.15.48,2.25,2.25,0,0,0-.59,1.28Z"/><path class="cls-9" d="M241.89,161.56h0v3.63h-1v-8.76h1v1h0a2.29,2.29,0,0,1,2.08-1.19,2.23,2.23,0,0,1,1.81.8,3.37,3.37,0,0,1,.65,2.16,3.74,3.74,0,0,1-.74,2.42,2.42,2.42,0,0,1-2,.9A2,2,0,0,1,241.89,161.56Zm0-2.42V160a1.77,1.77,0,0,0,.48,1.26,1.59,1.59,0,0,0,1.23.52,1.6,1.6,0,0,0,1.37-.67,3,3,0,0,0,.49-1.85,2.39,2.39,0,0,0-.46-1.57,1.53,1.53,0,0,0-1.25-.57,1.7,1.7,0,0,0-1.35.58A2.15,2.15,0,0,0,241.87,159.14Z"/><path class="cls-9" d="M256.34,164.62h-.82v-2.19h-4.46v2.19h-.82v-3h.53a9.09,9.09,0,0,0,1.56-5.19h3.12v5.19h.89Zm-1.85-3v-4.38h-1.33a9.33,9.33,0,0,1-1.37,4.38Z"/><path class="cls-9" d="M260.1,162.57a2.79,2.79,0,0,1-2.12-.84,3.1,3.1,0,0,1-.79-2.23,3.24,3.24,0,0,1,.82-2.36,3,3,0,0,1,2.23-.85,2.66,2.66,0,0,1,2.1.83,3.77,3.77,0,0,1-.06,4.59A2.87,2.87,0,0,1,260.1,162.57Zm.07-5.47a1.83,1.83,0,0,0-1.46.63,2.58,2.58,0,0,0-.54,1.73,2.47,2.47,0,0,0,.54,1.69,1.86,1.86,0,0,0,1.46.61,1.79,1.79,0,0,0,1.44-.6,3.23,3.23,0,0,0,0-3.45A1.76,1.76,0,0,0,260.17,157.1Z"/><path class="cls-9" d="M268.64,162.15a3.08,3.08,0,0,1-1.64.42,2.75,2.75,0,0,1-2.07-.83,3.06,3.06,0,0,1-.79-2.17,3.35,3.35,0,0,1,.85-2.38,3,3,0,0,1,2.27-.9,3.27,3.27,0,0,1,1.4.29v1a2.42,2.42,0,0,0-1.43-.47,1.92,1.92,0,0,0-1.51.66,2.5,2.5,0,0,0-.59,1.73,2.36,2.36,0,0,0,.55,1.66,1.91,1.91,0,0,0,1.49.61,2.38,2.38,0,0,0,1.47-.52Z"/><path class="cls-9" d="M273.79,157.25H272v5.18h-1v-5.18h-1.8v-.82h4.56Z"/><path class="cls-9" d="M279.65,156.43l-2.76,7q-.74,1.86-2.07,1.86a2.28,2.28,0,0,1-.63-.07v-.86a1.8,1.8,0,0,0,.57.1,1.18,1.18,0,0,0,1.09-.87l.48-1.13-2.34-6h1.06l1.62,4.62c0,.06.07.21.13.45h0c0-.09.06-.24.12-.44l1.71-4.63Z"/><path class="cls-9" d="M285.59,162.43h-1v-5.18h-3.06v5.18h-1v-6h5Z"/><path class="cls-9" d="M291.76,162.43h-1v-.94h0a2,2,0,0,1-1.85,1.08,2,2,0,0,1-1.4-.47,1.65,1.65,0,0,1-.51-1.26c0-1.13.66-1.78,2-2l1.8-.25c0-1-.41-1.53-1.24-1.53a2.9,2.9,0,0,0-1.95.74v-1a3.75,3.75,0,0,1,2-.56c1.41,0,2.12.75,2.12,2.24Zm-1-3-1.45.2a2.65,2.65,0,0,0-1,.33,1,1,0,0,0-.34.85.9.9,0,0,0,.32.71,1.18,1.18,0,0,0,.83.28,1.55,1.55,0,0,0,1.18-.5,1.8,1.8,0,0,0,.47-1.27Z"/></g></svg>