<svg xmlns="http://www.w3.org/2000/svg" xmlns:xlink="http://www.w3.org/1999/xlink" viewBox="0 0 474.66 206.72"><defs><style>.cls-1{fill:#505050;}.cls-12,.cls-15,.cls-2{fill:#fff;}.cls-3,.cls-7{fill:#ebebeb;}.cls-16,.cls-4{fill:#0072c6;}.cls-5{fill:#d2d2d2;}.cls-6{fill:none;}.cls-13,.cls-6,.cls-7{stroke:#000;}.cls-13,.cls-14,.cls-15,.cls-16,.cls-6,.cls-7{stroke-miterlimit:10;}.cls-7{stroke-width:0.75px;}.cls-8{fill:#80bceb;}.cls-9{fill:#414042;}.cls-10{fill:#aad2f2;}.cls-11{fill:#054b16;}.cls-12{fill-opacity:0.15;}.cls-13,.cls-15,.cls-16{stroke-width:0.05px;}.cls-14{fill:#1e1e1e;stroke:#1e1e1e;stroke-width:0.06px;}.cls-15{stroke:#fff;}.cls-16{stroke:#0072c6;}</style><symbol id="New_Symbol_46" data-name="New Symbol 46" viewBox="0 0 20 20"><circle class="cls-1" cx="10" cy="10" r="10"/><path class="cls-2" d="M12.89,8.27a3.25,3.25,0,0,0-.21-1.15,2.64,2.64,0,0,0-2.55-1.69A2.87,2.87,0,0,0,9,5.67a2.62,2.62,0,0,0-.92.73A3.68,3.68,0,0,0,7.5,7.61a6,6,0,0,0-.21,1.68,6.88,6.88,0,0,0,.21,2.07,4.3,4.3,0,0,0,.76,1.51,3.33,3.33,0,0,0,1.17.93,3.16,3.16,0,0,0,1.42.31,6.36,6.36,0,0,0,.87-.06,2.31,2.31,0,0,0,.62-.18V12.65a5,5,0,0,1-.64.26,2.57,2.57,0,0,1-.78.1,1.92,1.92,0,0,1-.91-.2,2,2,0,0,1-.71-.58,2.89,2.89,0,0,1-.48-1A5.08,5.08,0,0,1,8.64,10h0a1.83,1.83,0,0,0,.73.65,2.31,2.31,0,0,0,1.13.22,2.63,2.63,0,0,0,1-.17,2.1,2.1,0,0,0,.76-.52,2.27,2.27,0,0,0,.48-.82A3.34,3.34,0,0,0,12.89,8.27ZM11.5,8.16a3,3,0,0,1-.08.66,1.69,1.69,0,0,1-.26.52,1.31,1.31,0,0,1-.44.33,1.41,1.41,0,0,1-.61.11,1.67,1.67,0,0,1-.62-.12A1.87,1.87,0,0,1,9,9.33a1.47,1.47,0,0,1-.27-.47,1.65,1.65,0,0,1-.09-.54,2.1,2.1,0,0,1,.09-.61A1.73,1.73,0,0,1,9,7.14a1.24,1.24,0,0,1,.45-.43,1.18,1.18,0,0,1,.64-.17,1.34,1.34,0,0,1,.59.13,1.22,1.22,0,0,1,.44.34,1.45,1.45,0,0,1,.26.51A2.3,2.3,0,0,1,11.5,8.16Z"/></symbol><symbol id="New_Symbol_41" data-name="New Symbol 41" viewBox="0 0 20 20"><circle class="cls-1" cx="10" cy="10" r="10"/><path class="cls-2" d="M11.19,14.16V5.57H9.83V12.5A4.06,4.06,0,0,0,9,12a9,9,0,0,0-1-.33v1.21l.65.24.63.27.62.34c.21.13.42.27.64.43Z"/></symbol><symbol id="New_Symbol_42" data-name="New Symbol 42" viewBox="0 0 20 20"><circle class="cls-1" cx="10" cy="10" r="10"/><path class="cls-2" d="M12.5,5.57H7.24v.65A2.58,2.58,0,0,0,7.35,7a3.93,3.93,0,0,0,.3.66,4.92,4.92,0,0,0,.44.58c.17.18.35.35.54.52l.59.5c.2.15.39.31.58.47s.35.3.5.45a4.11,4.11,0,0,1,.38.45,2.55,2.55,0,0,1,.24.5,1.84,1.84,0,0,1,.09.57,1.42,1.42,0,0,1-.1.58,1.33,1.33,0,0,1-.29.41,1.17,1.17,0,0,1-.44.26,2.05,2.05,0,0,1-.55.05,2.73,2.73,0,0,1-1.05-.24,3.75,3.75,0,0,1-1-.72v1.31a2.85,2.85,0,0,0,.52.33,2.7,2.7,0,0,0,.55.24,3,3,0,0,0,.59.15,3.64,3.64,0,0,0,.66,0,3.77,3.77,0,0,0,1-.14,2.2,2.2,0,0,0,.79-.44,2,2,0,0,0,.51-.73,2.46,2.46,0,0,0,.18-1,2.88,2.88,0,0,0-.13-.92,2.65,2.65,0,0,0-.36-.76,4,4,0,0,0-.56-.67c-.21-.21-.46-.43-.73-.65l-.67-.53c-.23-.18-.43-.35-.61-.51a3.5,3.5,0,0,1-.44-.5.9.9,0,0,1-.16-.5H12.5Z"/></symbol><symbol id="New_Symbol_45" data-name="New Symbol 45" viewBox="0 0 20 20"><circle class="cls-1" cx="10" cy="10" r="10"/><path class="cls-2" d="M7.58,5.77v1.3a3,3,0,0,1,1.67-.55A2.07,2.07,0,0,1,10.63,7a1.4,1.4,0,0,1,.52,1.16,1.32,1.32,0,0,1-.53,1.12,2.54,2.54,0,0,1-1.52.4,12.8,12.8,0,0,1-1.38-.07L8,14h4.14V12.81h-3L9,10.71h.73A2.89,2.89,0,0,0,11.82,10a2.43,2.43,0,0,0,.68-1.86,2.57,2.57,0,0,0-.84-2,3.29,3.29,0,0,0-2.29-.75A3.57,3.57,0,0,0,7.58,5.77Z"/></symbol><symbol id="New_Symbol_44" data-name="New Symbol 44" viewBox="0 0 20 20"><circle class="cls-1" cx="10" cy="10" r="10"/><path class="cls-2" d="M12,14V8.58h1.25V7.45H12V5.6H10.65V7.42H6.85V8.56q.51.58,1.05,1.26a12.66,12.66,0,0,1,1,1.38c.29.47.64.94.93,1.41A13,13,0,0,1,10.55,14ZM10.65,8.58v3.5a19.76,19.76,0,0,0-1.26-2C9,9.51,8.58,9,8.22,8.56Z"/></symbol><symbol id="New_Symbol_43" data-name="New Symbol 43" viewBox="0 0 20 20"><circle class="cls-1" cx="10" cy="10" r="10"/><path class="cls-2" d="M7.39,5.88V7.16a3,3,0,0,1,1.85-.65,2.19,2.19,0,0,1,1.34.38,1.23,1.23,0,0,1,.5,1c0,1-.73,1.43-2.18,1.43H8.24v1.12h.63c1.29,0,1.94.45,1.94,1.35S10.3,13,9.29,13a2.48,2.48,0,0,1-1.58-.6v1.23a4.08,4.08,0,0,0,2,.48,2.64,2.64,0,0,0,1.79-.56,1.76,1.76,0,0,0,.67-1.44A2,2,0,0,0,10.5,10h0a2.19,2.19,0,0,0,1.43-.63A1.89,1.89,0,0,0,12.5,8a2.22,2.22,0,0,0-.85-1.82,3.4,3.4,0,0,0-2.24-.7A3.84,3.84,0,0,0,7.39,5.88Z"/></symbol></defs><title>OJ104329341</title><g id="bg"><g id="Shapes"><rect class="cls-2" width="474.66" height="206.72"/><rect class="cls-3" y="10.41" width="105" height="155"/><rect class="cls-4" x="369.66" y="10.41" width="105" height="115"/><rect class="cls-5" x="369.66" y="130.41" width="105" height="70"/><line class="cls-6" x1="105" y1="15.41" x2="364.17" y2="15.41"/><polygon points="363.07 19.15 369.55 15.41 363.07 11.67 363.07 19.15"/><line class="cls-6" x1="110.38" y1="45.29" x2="369.55" y2="45.29"/><polygon points="111.48 49.03 105 45.29 111.48 41.55 111.48 49.03"/><line class="cls-6" x1="105" y1="74.93" x2="364.17" y2="74.93"/><polygon points="363.07 78.67 369.55 74.93 363.07 71.19 363.07 78.67"/><line class="cls-6" x1="110.38" y1="105.18" x2="369.55" y2="105.18"/><polygon points="111.48 108.92 105 105.18 111.48 101.44 111.48 108.92"/><line class="cls-6" x1="105" y1="154.48" x2="364.17" y2="154.48"/><polygon points="363.07 158.22 369.55 154.48 363.07 150.74 363.07 158.22"/><path class="cls-6" d="M369.55,195.41,61.1,194.64a10.06,10.06,0,0,1-10-10V170.79"/><polygon points="54.84 171.88 51.1 165.41 47.36 171.88 54.84 171.88"/><polygon class="cls-7" points="192.56 25.82 185 31.27 187.89 40.08 197.23 40.08 200.12 31.27 192.56 25.82"/><polygon class="cls-7" points="192.56 85.96 185 91.4 187.89 100.21 197.23 100.21 200.12 91.4 192.56 85.96"/><use width="20" height="20" transform="matrix(1, 0, 0, -1, 158.91, 205.41)" xlink:href="#New_Symbol_46"/><path class="cls-8" d="M87.86,44.94V95.25h-70V44.94a4.37,4.37,0,0,1,4.36-4.38H83.48A4.38,4.38,0,0,1,87.86,44.94Z"/><circle cx="24.42" cy="46.03" r="2.19"/><circle class="cls-9" cx="30.98" cy="46.03" r="2.19"/><circle class="cls-9" cx="37.54" cy="46.03" r="2.19"/><path class="cls-10" d="M87.86,44.94V87.6l-4.38-4.38L81.29,55.88,55,54.78,40.82,40.56H83.48A4.38,4.38,0,0,1,87.86,44.94Z"/><rect class="cls-11" x="21.14" y="50.41" width="63.44" height="41.56"/><path class="cls-2" d="M69.06,57.7H26.36V55.57h42.7Z"/><polygon class="cls-12" points="84.57 50.41 84.57 84.31 50.67 50.41 84.57 50.41"/><path class="cls-2" d="M78,58.51l-.62-1.37a.73.73,0,0,1-.08-.25v-.2h0v.21a2.76,2.76,0,0,1-.08.27l-.58,1.34h-1.9L76.24,56l-1.36-2.5h1.81l.49,1.32a3.89,3.89,0,0,1,.12.49h0a2.17,2.17,0,0,1,.13-.5L78,53.52h1.67L78.27,56l1.47,2.52Z"/><path class="cls-2" d="M49.19,76.05a8.31,8.31,0,0,1-1.81,5.71,6.15,6.15,0,0,1-4.84,2,6.77,6.77,0,0,1-2.32-.34V80.24a3.75,3.75,0,0,0,2.12.56c2.28,0,3.43-1.76,3.43-5.3V62.81h3.42Z"/><path class="cls-2" d="M52.27,82.63V79.1a5.17,5.17,0,0,0,1.13.78,8.87,8.87,0,0,0,1.39.58,10.54,10.54,0,0,0,1.47.37,7.71,7.71,0,0,0,1.35.13,5.74,5.74,0,0,0,3.22-.72,2.37,2.37,0,0,0,1.06-2.09,2.28,2.28,0,0,0-.35-1.27,4,4,0,0,0-1-1A10.5,10.5,0,0,0,59.06,75c-.57-.28-1.18-.56-1.84-.86A15.77,15.77,0,0,1,55.27,73a8.08,8.08,0,0,1-1.58-1.27,5.43,5.43,0,0,1-1-1.58,5,5,0,0,1-.38-2A4.78,4.78,0,0,1,53,65.62a5.62,5.62,0,0,1,1.73-1.77,8,8,0,0,1,2.44-1,11.9,11.9,0,0,1,2.79-.34,11.17,11.17,0,0,1,4.72.74v3.38a7.56,7.56,0,0,0-4.52-1.27,7.66,7.66,0,0,0-1.51.15,4.31,4.31,0,0,0-1.36.47,3.15,3.15,0,0,0-1,.85A2.13,2.13,0,0,0,55.86,68a2.39,2.39,0,0,0,.29,1.2,3,3,0,0,0,.84.92,8.78,8.78,0,0,0,1.35.81c.53.27,1.15.55,1.85.86a13.15,13.15,0,0,1,2,1.18,9.59,9.59,0,0,1,1.68,1.37A5.94,5.94,0,0,1,65.06,76a5.29,5.29,0,0,1-1.91,6.48,7.39,7.39,0,0,1-2.47,1,14.41,14.41,0,0,1-3,.31,7.79,7.79,0,0,1-1.28-.08c-.51-.08-1-.13-1.54-.23s-1-.23-1.5-.37A5.31,5.31,0,0,1,52.27,82.63Z"/></g><g id="Text"><use width="20" height="20" transform="matrix(1, 0, 0, -1, 158.91, 25.41)" xlink:href="#New_Symbol_41"/><use width="20" height="20" transform="matrix(1, 0, 0, -1, 158.91, 55.29)" xlink:href="#New_Symbol_42"/><use width="20" height="20" transform="matrix(1, 0, 0, -1, 158.91, 165.21)" xlink:href="#New_Symbol_45"/><use width="20" height="20" transform="matrix(1, 0, 0, -1, 158.91, 115.67)" xlink:href="#New_Symbol_44"/><use width="20" height="20" transform="matrix(1, 0, 0, -1, 158.91, 84.93)" xlink:href="#New_Symbol_43"/></g><polygon class="cls-7" points="192.56 133.78 185 139.22 187.89 148.03 197.23 148.03 200.12 139.22 192.56 133.78"/></g><g id="txt"><path class="cls-13" d="M7.15,114.83a3.9,3.9,0,0,1-2.94-1.18,4.19,4.19,0,0,1-1.13-3.06,4.5,4.5,0,0,1,1.15-3.22,4,4,0,0,1,3.06-1.23,3.8,3.8,0,0,1,2.91,1.18,4.33,4.33,0,0,1,1.11,3.1,4.5,4.5,0,0,1-1.15,3.2A4,4,0,0,1,7.15,114.83Zm.09-7.06a1.91,1.91,0,0,0-1.59.75,3.65,3.65,0,0,0,0,4,1.9,1.9,0,0,0,1.54.72,1.89,1.89,0,0,0,1.55-.7,3.05,3.05,0,0,0,.58-2,3.27,3.27,0,0,0-.56-2A1.8,1.8,0,0,0,7.24,107.77Z"/><path class="cls-13" d="M18.88,116.87H17.37v-2.19h-4v2.19H11.85v-3.49h.53a9,9,0,0,0,1.34-4.7h4.21v4.7h.95Zm-2.8-3.49V110h-.92a7.92,7.92,0,0,1-1,3.4Z"/><path class="cls-13" d="M25.74,114.68H23.88v-2.51H21.81v2.51H20v-6h1.85v2.22h2.07v-2.22h1.86Z"/><path class="cls-13" d="M30.16,114.83A3.23,3.23,0,0,1,27.8,114a3.47,3.47,0,0,1,0-4.61,3.37,3.37,0,0,1,2.41-.84,3.16,3.16,0,0,1,2.34.84,3,3,0,0,1,.85,2.22,3.18,3.18,0,0,1-.87,2.36A3.27,3.27,0,0,1,30.16,114.83Zm0-4.88a1.24,1.24,0,0,0-1,.46,2,2,0,0,0-.36,1.27c0,1.15.47,1.73,1.4,1.73s1.33-.59,1.33-1.77S31.1,110,30.2,110Z"/><path class="cls-13" d="M39.18,114.47a3.69,3.69,0,0,1-1.81.36,3.06,3.06,0,0,1-2.24-.84,2.89,2.89,0,0,1-.85-2.16,3.19,3.19,0,0,1,.91-2.41,3.39,3.39,0,0,1,2.46-.88,3.12,3.12,0,0,1,1.53.28v1.57a2.12,2.12,0,0,0-1.29-.44,1.71,1.71,0,0,0-1.27.47,2,2,0,0,0,0,2.54,1.66,1.66,0,0,0,1.23.45,2.42,2.42,0,0,0,1.35-.43Z"/><path class="cls-13" d="M44.88,110.09h-1.6v4.59H41.41v-4.59H39.8v-1.41h5.08Z"/><path class="cls-13" d="M47.72,114h0v3.45H45.85v-8.76H47.7v.9h0a2.19,2.19,0,0,1,1.93-1,2.14,2.14,0,0,1,1.8.8,3.34,3.34,0,0,1,.64,2.17,3.71,3.71,0,0,1-.74,2.41,2.41,2.41,0,0,1-2,.91A1.88,1.88,0,0,1,47.72,114Zm0-2.47V112a1.53,1.53,0,0,0,.33,1,1.06,1.06,0,0,0,.86.39,1.12,1.12,0,0,0,1-.49,2.36,2.36,0,0,0,.35-1.38Q50.19,110,49,110a1.18,1.18,0,0,0-.93.43A1.73,1.73,0,0,0,47.67,111.52Z"/><path class="cls-13" d="M58.17,114.68H56.41v-.86h0a2,2,0,0,1-1.79,1,1.86,1.86,0,0,1-1.37-.5,1.75,1.75,0,0,1-.5-1.32q0-1.74,2.07-2l1.62-.22c0-.66-.35-1-1.06-1a3.65,3.65,0,0,0-2,.63V109a4.67,4.67,0,0,1,1.06-.35,5.56,5.56,0,0,1,1.22-.15,2.27,2.27,0,0,1,2.57,2.56Zm-1.75-2.43v-.41l-1.09.14c-.6.08-.9.35-.9.82a.67.67,0,0,0,.22.51.84.84,0,0,0,.6.21,1.11,1.11,0,0,0,.85-.36A1.3,1.3,0,0,0,56.42,112.25Z"/><path class="cls-13" d="M65.41,114.68H63.56v-2.51H61.48v2.51H59.63v-6h1.85v2.22h2.08v-2.22h1.85Z"/><path class="cls-13" d="M72.94,114.68H71.25v-3.92a6.3,6.3,0,0,1-.49.85l-2,3.07H67v-6h1.7v3.81a5.24,5.24,0,0,1,.41-.74l2-3.07h1.83Z"/><path class="cls-13" d="M80.14,114.68H78.29v-2.07a3.74,3.74,0,0,1-1.82.53,1.82,1.82,0,0,1-2-2.07v-2.39h1.78v2.1c0,.62.27.93.82.93a2.7,2.7,0,0,0,1.26-.36v-2.67h1.85Z"/><path class="cls-13" d="M87.49,114.68H85.63v-2.51H83.56v2.51H81.71v-6h1.85v2.22h2.07v-2.22h1.86Z"/><path class="cls-13" d="M91.91,114.83a3.23,3.23,0,0,1-2.36-.84,3.47,3.47,0,0,1,0-4.61,3.38,3.38,0,0,1,2.41-.84,3.16,3.16,0,0,1,2.34.84,3,3,0,0,1,.85,2.22,3.18,3.18,0,0,1-.87,2.36A3.27,3.27,0,0,1,91.91,114.83ZM92,110a1.21,1.21,0,0,0-1,.46,1.92,1.92,0,0,0-.37,1.27c0,1.15.47,1.73,1.4,1.73s1.33-.59,1.33-1.77S92.85,110,92,110Z"/><path class="cls-13" d="M101.78,112.21H97.86c.06.87.61,1.31,1.65,1.31a3.24,3.24,0,0,0,1.74-.47v1.33a4.56,4.56,0,0,1-2.16.45,2.79,2.79,0,0,1-3.06-3,3.2,3.2,0,0,1,.87-2.37,2.87,2.87,0,0,1,2.13-.87,2.63,2.63,0,0,1,2,.78,3,3,0,0,1,.72,2.11Zm-1.72-1.14c0-.86-.35-1.29-1-1.29a1,1,0,0,0-.77.37,1.72,1.72,0,0,0-.4.92Z"/><path class="cls-13" d="M21.67,129.08H19.81v-4.69H17.74v4.69H15.89v-6h5.78Z"/><path class="cls-13" d="M25.1,128.39h0v3.45H23.23v-8.76h1.85V124h0a2.18,2.18,0,0,1,1.93-1,2.14,2.14,0,0,1,1.8.8,3.36,3.36,0,0,1,.64,2.17,3.71,3.71,0,0,1-.74,2.41,2.41,2.41,0,0,1-2,.91A1.88,1.88,0,0,1,25.1,128.39Zm-.05-2.47v.49a1.52,1.52,0,0,0,.33,1,1.06,1.06,0,0,0,.86.39,1.12,1.12,0,0,0,1-.49,2.36,2.36,0,0,0,.35-1.38q0-1.59-1.23-1.59a1.16,1.16,0,0,0-.93.44A1.68,1.68,0,0,0,25.05,125.92Z"/><path class="cls-13" d="M36.63,129.08H35v-3.92a6.3,6.3,0,0,1-.49.85l-2,3.07H30.67v-6h1.69v3.81c.13-.27.27-.51.41-.74l2-3.07h1.82Z"/><path class="cls-13" d="M43.88,129.08H42v-4.69H41a9.69,9.69,0,0,1-1,3.74,2,2,0,0,1-1.8,1,2.36,2.36,0,0,1-.72-.11v-1.26a1.08,1.08,0,0,0,.44.09c.36,0,.67-.34.91-1a19.44,19.44,0,0,0,.66-3.76h4.36Z"/><path class="cls-13" d="M48.29,129.23a3.2,3.2,0,0,1-2.35-.84,3,3,0,0,1-.86-2.28,3.05,3.05,0,0,1,.89-2.33,3.37,3.37,0,0,1,2.41-.84,3.19,3.19,0,0,1,2.34.84,3,3,0,0,1,.85,2.22,3.15,3.15,0,0,1-.88,2.36A3.24,3.24,0,0,1,48.29,129.23Zm.05-4.88a1.21,1.21,0,0,0-1,.46,2,2,0,0,0-.36,1.27c0,1.16.46,1.73,1.39,1.73s1.33-.59,1.33-1.77S49.24,124.35,48.34,124.35Z"/><path class="cls-13" d="M61.94,129.08H59.76l-1.94-3h0v3H56v-3h0l-1.92,3H51.85l2.28-3.14-2.23-2.86h2.18L56,125.92h0v-2.84H57.8v2.84h0l1.88-2.84h2.17l-2.23,2.86Z"/><path class="cls-13" d="M68,126.61H64c.07.87.61,1.31,1.65,1.31a3.24,3.24,0,0,0,1.74-.47v1.33a4.53,4.53,0,0,1-2.16.45,2.79,2.79,0,0,1-3.06-3,3.2,3.2,0,0,1,.87-2.37,2.88,2.88,0,0,1,2.13-.87,2.63,2.63,0,0,1,2,.78,3,3,0,0,1,.72,2.11Zm-1.72-1.14c0-.86-.35-1.29-1-1.29a1,1,0,0,0-.77.37,1.72,1.72,0,0,0-.4.92Z"/><path class="cls-13" d="M74.83,129.08H73v-2.5H70.9v2.5H69.05v-6H70.9v2.22H73v-2.22h1.86Z"/><path class="cls-13" d="M82.36,129.08H80.67v-3.92a6.3,6.3,0,0,1-.49.85l-2,3.07H76.39v-6h1.69v3.81c.13-.27.27-.51.41-.74l2-3.07h1.83Z"/><path class="cls-13" d="M89.31,126.61H85.4c.06.87.61,1.31,1.64,1.31a3.24,3.24,0,0,0,1.74-.47v1.33a4.5,4.5,0,0,1-2.16.45,2.81,2.81,0,0,1-3.06-3,3.2,3.2,0,0,1,.87-2.37,2.9,2.9,0,0,1,2.13-.87,2.62,2.62,0,0,1,2,.78,3,3,0,0,1,.72,2.11Zm-1.72-1.14c0-.86-.34-1.29-1-1.29a1,1,0,0,0-.77.37,1.72,1.72,0,0,0-.4.92Z"/><path class="cls-13" d="M28.19,140.15a3.82,3.82,0,0,1-.78,2.58,2.86,2.86,0,0,1-2.27.9,3.23,3.23,0,0,1-1.22-.23v-1.77A1.76,1.76,0,0,0,25,142q1.29,0,1.29-1.92v-5h1.89Z"/><path class="cls-13" d="M34.72,143.48H33v-.86h0a2,2,0,0,1-1.79,1,1.86,1.86,0,0,1-1.37-.5,1.76,1.76,0,0,1-.51-1.32q0-1.74,2.07-2l1.63-.22c0-.66-.35-1-1.06-1a3.65,3.65,0,0,0-2,.63v-1.39a4.57,4.57,0,0,1,1.05-.35,5.71,5.71,0,0,1,1.23-.15,2.26,2.26,0,0,1,2.56,2.56ZM33,141v-.4l-1.09.14c-.6.08-.9.35-.9.82a.64.64,0,0,0,.22.51.82.82,0,0,0,.59.21,1.1,1.1,0,0,0,.85-.36A1.31,1.31,0,0,0,33,141Z"/><path class="cls-13" d="M41.9,137.48l-2.23,6H37.56l-2.13-6h2l1,3.7a5.25,5.25,0,0,1,.21,1.07h0a6.31,6.31,0,0,1,.22-1L40,137.48Z"/><path class="cls-13" d="M47.5,143.48H45.75v-.86h0a2,2,0,0,1-1.79,1,1.9,1.9,0,0,1-1.38-.5,1.79,1.79,0,0,1-.5-1.32q0-1.74,2.07-2l1.63-.22c0-.66-.35-1-1.07-1a3.65,3.65,0,0,0-2,.63v-1.39a4.57,4.57,0,0,1,1.05-.35,5.7,5.7,0,0,1,1.22-.15,2.26,2.26,0,0,1,2.57,2.56ZM45.76,141v-.4l-1.09.14c-.6.08-.9.35-.9.82a.64.64,0,0,0,.22.51.8.8,0,0,0,.59.21,1.1,1.1,0,0,0,.85-.36A1.31,1.31,0,0,0,45.76,141Z"/><path class="cls-13" d="M48.76,143.16v-1.87a3.86,3.86,0,0,0,1.11.64,3.63,3.63,0,0,0,1.21.21,2.9,2.9,0,0,0,.62-.06,1.67,1.67,0,0,0,.44-.18.87.87,0,0,0,.27-.27.69.69,0,0,0,.09-.34.77.77,0,0,0-.14-.44,1.52,1.52,0,0,0-.39-.36,3.74,3.74,0,0,0-.57-.31l-.72-.31a3.76,3.76,0,0,1-1.47-1,2.46,2.46,0,0,1-.22-2.56,2.16,2.16,0,0,1,.72-.78,3.33,3.33,0,0,1,1-.45,5.72,5.72,0,0,1,1.26-.14,8.06,8.06,0,0,1,1.17.08,4.22,4.22,0,0,1,.93.24V137a2.87,2.87,0,0,0-.46-.25,2.82,2.82,0,0,0-.51-.19c-.18,0-.35-.08-.52-.11l-.5,0a2.74,2.74,0,0,0-.59.06,1.62,1.62,0,0,0-.44.17.91.91,0,0,0-.28.27.6.6,0,0,0-.1.35.65.65,0,0,0,.11.38,1.19,1.19,0,0,0,.32.31,2.76,2.76,0,0,0,.49.29c.2.1.42.2.67.3a7.55,7.55,0,0,1,.9.45,3.49,3.49,0,0,1,.69.53,2.08,2.08,0,0,1,.44.69,2.4,2.4,0,0,1,.15.89,2.37,2.37,0,0,1-.27,1.18,2.07,2.07,0,0,1-.72.78,3.36,3.36,0,0,1-1.06.42,5.91,5.91,0,0,1-1.28.13,7,7,0,0,1-1.32-.12A4,4,0,0,1,48.76,143.16Z"/><path class="cls-13" d="M60.24,143.27a3.69,3.69,0,0,1-1.81.36,3.06,3.06,0,0,1-2.24-.84,2.9,2.9,0,0,1-.86-2.16,3.19,3.19,0,0,1,.92-2.41,3.38,3.38,0,0,1,2.45-.88,3.14,3.14,0,0,1,1.54.28v1.57a2.13,2.13,0,0,0-1.3-.44,1.71,1.71,0,0,0-1.26.47,1.74,1.74,0,0,0-.46,1.29,1.71,1.71,0,0,0,.44,1.25,1.66,1.66,0,0,0,1.23.45,2.42,2.42,0,0,0,1.35-.43Z"/><path class="cls-13" d="M65.37,139.15a1.66,1.66,0,0,0-.78-.18,1.14,1.14,0,0,0-1,.44,2,2,0,0,0-.34,1.21v2.86H61.45v-6H63.3v1.12h0a1.59,1.59,0,0,1,1.58-1.22,1.17,1.17,0,0,1,.46.07Z"/><path class="cls-13" d="M67.21,136.53a1.07,1.07,0,0,1-.77-.28.91.91,0,0,1-.29-.68.89.89,0,0,1,.29-.68,1.16,1.16,0,0,1,.77-.26,1.12,1.12,0,0,1,.77.26.87.87,0,0,1,.3.68.89.89,0,0,1-.3.69A1.08,1.08,0,0,1,67.21,136.53Zm.92,6.95H66.27v-6h1.86Z"/><path class="cls-13" d="M71.56,142.79h0v3.45H69.68v-8.76h1.86v.9h0a2.19,2.19,0,0,1,1.93-1,2.15,2.15,0,0,1,1.8.8,3.4,3.4,0,0,1,.63,2.17,3.65,3.65,0,0,1-.74,2.41,2.4,2.4,0,0,1-2,.91A1.87,1.87,0,0,1,71.56,142.79Zm0-2.47v.48a1.58,1.58,0,0,0,.32,1,1.08,1.08,0,0,0,.87.39,1.12,1.12,0,0,0,1-.49,2.36,2.36,0,0,0,.35-1.38q0-1.59-1.23-1.59a1.18,1.18,0,0,0-.93.43A1.73,1.73,0,0,0,71.51,140.32Z"/><path class="cls-13" d="M80.75,143.41a2.62,2.62,0,0,1-1.23.22,1.76,1.76,0,0,1-2-2v-2.75h-1v-1.37h1v-1.29l1.85-.53v1.82h1.34v1.37H79.41v2.42c0,.63.24.94.74.94a1.27,1.27,0,0,0,.6-.17Z"/><path class="cls-14" d="M212.94,133h-1v-3.83h-4.34V133h-1v-8.4h1v3.69H212v-3.69h1Z"/><path class="cls-14" d="M220,125.53h-2.43V133h-1v-7.51h-2.42v-.89H220Z"/><path class="cls-14" d="M226.49,125.53h-2.43V133h-1v-7.51h-2.42v-.89h5.83Z"/><path class="cls-14" d="M228.72,129.87V133h-1v-8.4H230a3,3,0,0,1,2.09.66,2.31,2.31,0,0,1,.74,1.85,2.54,2.54,0,0,1-.82,2,3.18,3.18,0,0,1-2.22.76Zm0-4.34V129h1a2.33,2.33,0,0,0,1.56-.47,1.67,1.67,0,0,0,.53-1.31c0-1.11-.65-1.67-2-1.67Z"/><path class="cls-14" d="M243.88,132.47a5.56,5.56,0,0,1-2.81.71,3.82,3.82,0,0,1-2.91-1.16,4.24,4.24,0,0,1-1.11-3.07,4.37,4.37,0,0,1,1.23-3.2,4.21,4.21,0,0,1,3.13-1.25,5.27,5.27,0,0,1,2.3.45V126a4.44,4.44,0,0,0-2.42-.65,3,3,0,0,0-2.31,1,4.07,4.07,0,0,0-.06,5,2.9,2.9,0,0,0,2.27.91,3.5,3.5,0,0,0,1.7-.39v-2.36h-1.84v-.89h2.83Z"/><path class="cls-14" d="M250.21,133h-4.45v-8.4H250v.89h-3.28v2.8h3v.88h-3v2.94h3.47Z"/><path class="cls-14" d="M256.72,125.53H254.3V133h-1v-7.51h-2.42v-.89h5.83Z"/><path class="cls-14" d="M267,129.94h-2.37v2.36h-.77v-2.36h-2.37v-.79h2.37v-2.36h.77v2.36H267Z"/><path class="cls-14" d="M213,147.24H212V142.3c-.08.25-.21.62-.39,1.1l-1.5,3.84h-.87l-1.54-3.84c-.08-.21-.22-.57-.4-1.1v4.94h-.83v-6h1.23l1.58,3.92c.11.28.26.68.43,1.18l.43-1.16,1.54-3.94H213Z"/><path class="cls-14" d="M219.14,147.24h-1v-.93h0a2,2,0,0,1-1.85,1.07,2,2,0,0,1-1.4-.47,1.65,1.65,0,0,1-.51-1.26c0-1.12.66-1.77,2-2l1.8-.25c0-1-.41-1.53-1.24-1.53a3,3,0,0,0-1.95.74v-1a3.68,3.68,0,0,1,2-.57c1.41,0,2.11.75,2.11,2.24Zm-1-3-1.45.2a2.25,2.25,0,0,0-1,.33,1,1,0,0,0-.34.84.92.92,0,0,0,.31.72,1.24,1.24,0,0,0,.83.28,1.52,1.52,0,0,0,1.18-.51,1.73,1.73,0,0,0,.47-1.26Z"/><path class="cls-14" d="M221.86,146.38h0V150h-1v-8.76h1v1.06h0a2.29,2.29,0,0,1,2.08-1.2,2.19,2.19,0,0,1,1.81.81,3.37,3.37,0,0,1,.65,2.16,3.71,3.71,0,0,1-.73,2.41,2.46,2.46,0,0,1-2,.9A2,2,0,0,1,221.86,146.38Zm0-2.42v.83a1.81,1.81,0,0,0,.48,1.27,1.65,1.65,0,0,0,1.23.52,1.63,1.63,0,0,0,1.37-.67,3.09,3.09,0,0,0,.5-1.86,2.41,2.41,0,0,0-.47-1.57,1.52,1.52,0,0,0-1.25-.57,1.73,1.73,0,0,0-1.35.58A2.16,2.16,0,0,0,221.84,144Z"/><path class="cls-14" d="M232.84,147.24H231.5l-2.65-2.88h0v2.88h-1v-6h1V144h0l2.52-2.75h1.26l-2.79,2.9Z"/><path class="cls-14" d="M238.58,144.48h-4.24a2.28,2.28,0,0,0,.54,1.55,1.87,1.87,0,0,0,1.42.55,3,3,0,0,0,1.86-.67v.9a3.5,3.5,0,0,1-2.09.57,2.56,2.56,0,0,1-2-.81,3.39,3.39,0,0,1-.72-2.3,3.29,3.29,0,0,1,.79-2.29,2.58,2.58,0,0,1,2-.88,2.27,2.27,0,0,1,1.82.76,3.2,3.2,0,0,1,.65,2.12Zm-1-.81a1.91,1.91,0,0,0-.4-1.3,1.39,1.39,0,0,0-1.1-.46,1.54,1.54,0,0,0-1.15.49,2.22,2.22,0,0,0-.59,1.27Z"/><path class="cls-14" d="M240.94,146.38h0V150h-1v-8.76h1v1.06h0a2.29,2.29,0,0,1,2.08-1.2,2.2,2.2,0,0,1,1.81.81,3.37,3.37,0,0,1,.65,2.16,3.76,3.76,0,0,1-.73,2.41,2.46,2.46,0,0,1-2,.9A2,2,0,0,1,240.94,146.38Zm0-2.42v.83a1.81,1.81,0,0,0,.48,1.27,1.73,1.73,0,0,0,2.6-.15,3.09,3.09,0,0,0,.49-1.86,2.41,2.41,0,0,0-.46-1.57,1.53,1.53,0,0,0-1.25-.57,1.73,1.73,0,0,0-1.35.58A2.16,2.16,0,0,0,240.92,144Z"/><path class="cls-14" d="M255.39,149.43h-.82v-2.19h-4.46v2.19h-.82v-3h.53a8.94,8.94,0,0,0,1.56-5.19h3.12v5.19h.89Zm-1.85-3v-4.37h-1.33a9.33,9.33,0,0,1-1.37,4.37Z"/><path class="cls-14" d="M259.15,147.38a2.79,2.79,0,0,1-2.12-.84,3.1,3.1,0,0,1-.79-2.23,3.26,3.26,0,0,1,.82-2.36,3,3,0,0,1,2.23-.85,2.7,2.7,0,0,1,2.1.83,3.27,3.27,0,0,1,.75,2.29,3.23,3.23,0,0,1-.81,2.3A2.83,2.83,0,0,1,259.15,147.38Zm.07-5.47a1.83,1.83,0,0,0-1.46.63,2.59,2.59,0,0,0-.54,1.74,2.41,2.41,0,0,0,.55,1.68,1.85,1.85,0,0,0,1.45.62,1.78,1.78,0,0,0,1.44-.61,2.63,2.63,0,0,0,.5-1.72,2.68,2.68,0,0,0-.5-1.73A1.75,1.75,0,0,0,259.22,141.91Z"/><path class="cls-14" d="M267.7,147a3.1,3.1,0,0,1-1.64.41,2.72,2.72,0,0,1-2.08-.83,3.06,3.06,0,0,1-.78-2.17,3.32,3.32,0,0,1,.85-2.38,3,3,0,0,1,2.26-.9,3.1,3.1,0,0,1,1.4.3v1a2.47,2.47,0,0,0-1.43-.47,1.93,1.93,0,0,0-1.51.66,2.52,2.52,0,0,0-.59,1.73,2.45,2.45,0,0,0,.55,1.67,1.94,1.94,0,0,0,1.49.61,2.42,2.42,0,0,0,1.48-.53Z"/><path class="cls-14" d="M272.84,142.06h-1.79v5.18h-1v-5.18h-1.8v-.82h4.56Z"/><path class="cls-14" d="M278.7,141.24l-2.76,7c-.49,1.25-1.18,1.87-2.07,1.87a2.25,2.25,0,0,1-.63-.08v-.86a1.84,1.84,0,0,0,.57.11,1.18,1.18,0,0,0,1.09-.87l.48-1.14-2.34-6h1.06l1.63,4.62c0,.06.06.21.12.46h0c0-.1.06-.24.12-.45l1.71-4.63Z"/><path class="cls-14" d="M284.64,147.24h-1v-5.18h-3.06v5.18h-1v-6h5Z"/><path class="cls-14" d="M290.81,147.24h-1v-.93h0a2,2,0,0,1-1.85,1.07,2,2,0,0,1-1.4-.47,1.65,1.65,0,0,1-.51-1.26c0-1.12.66-1.77,2-2l1.8-.25c0-1-.41-1.53-1.24-1.53a3,3,0,0,0-1.95.74v-1a3.68,3.68,0,0,1,2-.57c1.41,0,2.11.75,2.11,2.24Zm-1-3-1.45.2a2.35,2.35,0,0,0-1,.33,1,1,0,0,0-.34.84.93.93,0,0,0,.32.72,1.24,1.24,0,0,0,.83.28,1.52,1.52,0,0,0,1.18-.51,1.77,1.77,0,0,0,.47-1.26Z"/><path class="cls-15" d="M396,57.21h-1.89V50.46h-3.48v6.75h-1.89v-8.4H396Z"/><path class="cls-15" d="M403.42,57.21h-1.87V52.52h-1a9.69,9.69,0,0,1-1,3.74,2,2,0,0,1-1.8,1,2.36,2.36,0,0,1-.72-.11V55.91a1.08,1.08,0,0,0,.44.09c.36,0,.67-.34.91-1a19.44,19.44,0,0,0,.66-3.76h4.36Z"/><path class="cls-15" d="M410,57.21h-1.76v-.86h0a2,2,0,0,1-1.79,1,1.86,1.86,0,0,1-1.37-.5,1.79,1.79,0,0,1-.5-1.32q0-1.74,2.07-2l1.63-.22c0-.66-.36-1-1.07-1a3.65,3.65,0,0,0-2,.63V51.57a4.67,4.67,0,0,1,1.06-.35,5.63,5.63,0,0,1,1.22-.15A2.27,2.27,0,0,1,410,53.63Zm-1.74-2.43v-.41l-1.09.14c-.61.08-.91.35-.91.82a.67.67,0,0,0,.22.51.84.84,0,0,0,.6.21,1.1,1.1,0,0,0,.85-.36A1.31,1.31,0,0,0,408.23,54.78Z"/><path class="cls-15" d="M415.92,52.62h-1.61v4.59h-1.86V52.62h-1.62V51.21h5.09Z"/><path class="cls-15" d="M421.5,57.28V60h-1.73V57.28h-.28a3.12,3.12,0,0,1-2.31-.83,3,3,0,0,1-.85-2.21,3,3,0,0,1,.85-2.26,3.13,3.13,0,0,1,2.32-.84h.27V48.62h1.73v2.52h.27a3.19,3.19,0,0,1,2.33.83,3,3,0,0,1,.85,2.27,2.93,2.93,0,0,1-.85,2.21,3.12,3.12,0,0,1-2.31.83ZM419.77,56V52.45h-.09a1.32,1.32,0,0,0-1.07.47,2,2,0,0,0-.39,1.32,1.9,1.9,0,0,0,.39,1.26,1.35,1.35,0,0,0,1.09.48Zm1.73-3.53V56h.08a1.33,1.33,0,0,0,1.09-.48,1.85,1.85,0,0,0,.4-1.26,2,2,0,0,0-.39-1.32,1.34,1.34,0,0,0-1.08-.47Z"/><path class="cls-15" d="M429,57.36a3.23,3.23,0,0,1-2.36-.84,3,3,0,0,1-.86-2.28,3.05,3.05,0,0,1,.89-2.33,3.37,3.37,0,0,1,2.41-.84,3.19,3.19,0,0,1,2.34.84,3,3,0,0,1,.85,2.22,3.15,3.15,0,0,1-.88,2.36A3.23,3.23,0,0,1,429,57.36Zm0-4.88a1.21,1.21,0,0,0-1,.46,2,2,0,0,0-.36,1.27c0,1.16.46,1.73,1.39,1.73s1.33-.59,1.33-1.77S429.93,52.48,429,52.48Z"/><path class="cls-15" d="M435.34,56.52h0V60h-1.85V51.21h1.85v.91h0a2.36,2.36,0,0,1,3.73-.25A3.42,3.42,0,0,1,439.7,54a3.65,3.65,0,0,1-.74,2.41,2.4,2.4,0,0,1-2,.91A1.87,1.87,0,0,1,435.34,56.52Zm-.06-2.47v.49a1.52,1.52,0,0,0,.33,1,1.08,1.08,0,0,0,.86.39,1.14,1.14,0,0,0,1-.49,2.37,2.37,0,0,0,.34-1.38q0-1.59-1.23-1.59a1.16,1.16,0,0,0-.93.44A1.68,1.68,0,0,0,435.28,54.05Z"/><path class="cls-15" d="M448.67,57.21h-1.73V52.54a9.51,9.51,0,0,1-.31,1.11l-1.17,3.56h-1.63l-1.16-3.56a7.31,7.31,0,0,1-.31-1.1v4.66H440.9v-6h2.44l1.14,3.42a7.21,7.21,0,0,1,.29,1.07,9.66,9.66,0,0,1,.3-1.05l1.12-3.44h2.48Z"/><path class="cls-15" d="M455.22,57.21h-1.75v-.86h0a2,2,0,0,1-1.78,1,1.88,1.88,0,0,1-1.38-.5,1.79,1.79,0,0,1-.5-1.32q0-1.74,2.07-2l1.63-.22c0-.66-.36-1-1.07-1a3.7,3.7,0,0,0-2,.63V51.57a4.67,4.67,0,0,1,1.06-.35,5.63,5.63,0,0,1,1.22-.15,2.27,2.27,0,0,1,2.57,2.56Zm-1.74-2.43v-.41l-1.09.14c-.6.08-.9.35-.9.82a.64.64,0,0,0,.22.51.8.8,0,0,0,.59.21,1.1,1.1,0,0,0,.85-.36A1.31,1.31,0,0,0,453.48,54.78Z"/><path class="cls-15" d="M383.89,65.61l-2.43,6.48c-.59,1.56-1.47,2.34-2.65,2.34a3.46,3.46,0,0,1-1.11-.15V72.8a1.51,1.51,0,0,0,.8.22,1,1,0,0,0,1-.67l.32-.75-2.44-6h2.05l1.12,3.65a5,5,0,0,1,.16.81h0a5.22,5.22,0,0,1,.19-.79l1.13-3.67Z"/><path class="cls-15" d="M390.49,73.8H389V71.61h-4V73.8h-1.49V70.31H384a8.93,8.93,0,0,0,1.34-4.7h4.22v4.7h.95Zm-2.8-3.49v-3.4h-.92a7.93,7.93,0,0,1-1,3.4Z"/><path class="cls-15" d="M394.42,71.76a3.23,3.23,0,0,1-2.36-.84,3.47,3.47,0,0,1,0-4.61,3.38,3.38,0,0,1,2.41-.84,3.16,3.16,0,0,1,2.34.84,3,3,0,0,1,.85,2.22,3.18,3.18,0,0,1-.87,2.36A3.27,3.27,0,0,1,394.42,71.76Zm0-4.88a1.23,1.23,0,0,0-1,.46,1.92,1.92,0,0,0-.37,1.27c0,1.16.47,1.73,1.4,1.73s1.33-.59,1.33-1.77S395.36,66.88,394.46,66.88Z"/><path class="cls-15" d="M403.44,71.4a3.69,3.69,0,0,1-1.81.36,3.06,3.06,0,0,1-2.24-.84,2.89,2.89,0,0,1-.85-2.16,3.19,3.19,0,0,1,.91-2.41,3.4,3.4,0,0,1,2.46-.88,3.1,3.1,0,0,1,1.53.28v1.57a2.12,2.12,0,0,0-1.29-.44,1.61,1.61,0,0,0-1.73,1.76,1.75,1.75,0,0,0,.44,1.25,1.66,1.66,0,0,0,1.23.45,2.42,2.42,0,0,0,1.35-.43Z"/><path class="cls-15" d="M409.14,67h-1.6v4.59h-1.87V67h-1.61V65.61h5.08Z"/><path class="cls-15" d="M412.8,71.76a3.23,3.23,0,0,1-2.36-.84,3.47,3.47,0,0,1,0-4.61,3.38,3.38,0,0,1,2.41-.84,3.16,3.16,0,0,1,2.34.84,3,3,0,0,1,.85,2.22,3.18,3.18,0,0,1-.87,2.36A3.27,3.27,0,0,1,412.8,71.76Zm.05-4.88a1.24,1.24,0,0,0-1,.46,1.92,1.92,0,0,0-.37,1.27c0,1.16.47,1.73,1.4,1.73s1.33-.59,1.33-1.77S413.74,66.88,412.85,66.88Z"/><path class="cls-15" d="M417.28,71.61v-6h3.35c1.43,0,2.14.49,2.14,1.47a1.21,1.21,0,0,1-.34.88,1.55,1.55,0,0,1-.87.47,1.76,1.76,0,0,1,1,.46,1.26,1.26,0,0,1,.38.92,1.65,1.65,0,0,1-.58,1.31,2.39,2.39,0,0,1-1.6.49Zm1.85-4.87V68H420q.84,0,.84-.66c0-.4-.27-.6-.8-.6Zm0,2.35v1.37h1.06c.59,0,.89-.24.89-.72s-.3-.65-.91-.65Z"/><path class="cls-15" d="M429.62,69.14h-3.91c.06.87.61,1.31,1.64,1.31a3.24,3.24,0,0,0,1.74-.47v1.33a4.5,4.5,0,0,1-2.16.45,2.81,2.81,0,0,1-3.06-3.05,3.2,3.2,0,0,1,.87-2.37,2.9,2.9,0,0,1,2.13-.87,2.62,2.62,0,0,1,2,.78,3,3,0,0,1,.72,2.11ZM427.9,68c0-.86-.34-1.29-1-1.29a1,1,0,0,0-.77.37,1.63,1.63,0,0,0-.39.92Z"/><path class="cls-15" d="M432.6,70.92h0v3.45h-1.85V65.61h1.85v.91h0a2.36,2.36,0,0,1,3.73-.25,3.42,3.42,0,0,1,.63,2.17,3.65,3.65,0,0,1-.74,2.41,2.4,2.4,0,0,1-2,.91A1.87,1.87,0,0,1,432.6,70.92Zm-.06-2.46v.48a1.52,1.52,0,0,0,.33,1,1.08,1.08,0,0,0,.86.39,1.14,1.14,0,0,0,1-.49,2.37,2.37,0,0,0,.34-1.38q0-1.59-1.23-1.59a1.15,1.15,0,0,0-.92.44A1.7,1.7,0,0,0,432.54,68.46Z"/><path class="cls-15" d="M443.55,69.14h-3.91c.06.87.61,1.31,1.65,1.31A3.24,3.24,0,0,0,443,70v1.33a4.56,4.56,0,0,1-2.16.45,3,3,0,0,1-2.26-.81,3,3,0,0,1-.8-2.24,3.24,3.24,0,0,1,.86-2.37,2.9,2.9,0,0,1,2.14-.87,2.63,2.63,0,0,1,2,.78,3,3,0,0,1,.71,2.11ZM441.84,68q0-1.29-1-1.29a1,1,0,0,0-.77.37,1.78,1.78,0,0,0-.39.92Z"/><path class="cls-15" d="M450.44,71.61h-1.86v-2.5h-2.07v2.5h-1.85v-6h1.85v2.22h2.07V65.61h1.86Z"/><path class="cls-15" d="M458,71.61h-1.68V67.69a7.59,7.59,0,0,1-.49.85l-2,3.07H452v-6h1.69v3.81a6.47,6.47,0,0,1,.41-.74l2-3.07H458Z"/><path class="cls-15" d="M465.49,71.61h-1.68V67.69a7.59,7.59,0,0,1-.49.85l-2,3.07h-1.75v-6h1.69v3.81a6.47,6.47,0,0,1,.41-.74l2-3.07h1.82Zm-.43-8.86a2.13,2.13,0,0,1-.8,1.48,3,3,0,0,1-3.48,0,2,2,0,0,1-.75-1.48h1.35a1,1,0,0,0,.37.74,1.19,1.19,0,0,0,.8.29,1.17,1.17,0,0,0,.79-.29,1.08,1.08,0,0,0,.37-.74Z"/><path class="cls-15" d="M395,86h-1.87V81c0-.55,0-1.15.07-1.8h0a9,9,0,0,1-.27,1.11l-2,5.71h-1.54l-2-5.65c-.05-.15-.14-.54-.26-1.17h-.05c.05.82.07,1.55.07,2.18V86h-1.7v-8.4h2.77l1.72,5a7.48,7.48,0,0,1,.29,1.2h0c.1-.46.22-.87.33-1.21l1.72-5H395Z"/><path class="cls-15" d="M401.72,86H400v-.86h0a2,2,0,0,1-1.79,1,1.86,1.86,0,0,1-1.37-.5,1.76,1.76,0,0,1-.51-1.32q0-1.74,2.07-2l1.63-.22c0-.66-.35-1-1.06-1a3.65,3.65,0,0,0-2,.63V80.37a4.57,4.57,0,0,1,1.05-.35,5.71,5.71,0,0,1,1.23-.15,2.26,2.26,0,0,1,2.56,2.56ZM400,83.58v-.41l-1.09.14c-.6.08-.9.35-.9.82a.64.64,0,0,0,.22.51.82.82,0,0,0,.59.21,1.1,1.1,0,0,0,.85-.36A1.31,1.31,0,0,0,400,83.58Z"/><path class="cls-15" d="M409.15,86h-1.68V82.09a7.59,7.59,0,0,1-.49.85l-2,3.07h-1.75V80h1.69v3.81a5.24,5.24,0,0,1,.41-.74l2-3.07h1.82Zm-.43-8.86a2.13,2.13,0,0,1-.8,1.48,3,3,0,0,1-3.48,0,2,2,0,0,1-.75-1.48H405a1,1,0,0,0,.37.74,1.23,1.23,0,0,0,1.59,0,1.08,1.08,0,0,0,.37-.74Z"/><path class="cls-15" d="M416.7,86h-2.22l-1.89-2.93h0V86h-1.85V80h1.85v2.82h0L414.44,80h2.19l-2.21,2.86Z"/><path class="cls-15" d="M419.3,85.32h0v3.45h-1.86V80h1.86v.91h0a2.18,2.18,0,0,1,1.93-1,2.15,2.15,0,0,1,1.8.8,3.4,3.4,0,0,1,.64,2.17,3.66,3.66,0,0,1-.75,2.41,2.4,2.4,0,0,1-2,.91A1.87,1.87,0,0,1,419.3,85.32Zm-.05-2.47v.48a1.53,1.53,0,0,0,.33,1,1.05,1.05,0,0,0,.86.39,1.12,1.12,0,0,0,1-.49,2.36,2.36,0,0,0,.35-1.38q0-1.59-1.23-1.59a1.18,1.18,0,0,0-.93.43A1.73,1.73,0,0,0,419.25,82.85Z"/><path class="cls-15" d="M427.73,86.16a3.23,3.23,0,0,1-2.36-.84,3,3,0,0,1-.86-2.28,3.05,3.05,0,0,1,.89-2.33,3.37,3.37,0,0,1,2.41-.84,3.19,3.19,0,0,1,2.34.84,3,3,0,0,1,.85,2.22,3.18,3.18,0,0,1-.87,2.36A3.27,3.27,0,0,1,427.73,86.16Zm0-4.88a1.22,1.22,0,0,0-1,.46,2,2,0,0,0-.36,1.27c0,1.16.46,1.73,1.39,1.73s1.33-.59,1.33-1.77S428.67,81.28,427.77,81.28Z"/><path class="cls-15" d="M436.75,85.8a3.69,3.69,0,0,1-1.81.36,3.06,3.06,0,0,1-2.24-.84,2.9,2.9,0,0,1-.86-2.16,3.19,3.19,0,0,1,.92-2.41,3.38,3.38,0,0,1,2.45-.88,3.14,3.14,0,0,1,1.54.28v1.57a2.13,2.13,0,0,0-1.3-.44,1.71,1.71,0,0,0-1.26.47,1.74,1.74,0,0,0-.46,1.29,1.71,1.71,0,0,0,.44,1.25,1.66,1.66,0,0,0,1.23.45,2.42,2.42,0,0,0,1.35-.43Z"/><path class="cls-15" d="M440.82,86.16a3.24,3.24,0,0,1-2.36-.84A3.05,3.05,0,0,1,437.6,83a3,3,0,0,1,.9-2.33,3.34,3.34,0,0,1,2.4-.84,3.2,3.2,0,0,1,2.35.84,3,3,0,0,1,.85,2.22,3.18,3.18,0,0,1-.88,2.36A3.24,3.24,0,0,1,440.82,86.16Zm.05-4.88a1.21,1.21,0,0,0-1,.46,2,2,0,0,0-.36,1.27c0,1.16.46,1.73,1.39,1.73s1.33-.59,1.33-1.77S441.76,81.28,440.87,81.28Z"/><path class="cls-15" d="M450.08,86.08V88.8h-1.72V86.08h-.29a3.12,3.12,0,0,1-2.31-.83,3,3,0,0,1-.84-2.21,3,3,0,0,1,.84-2.26,3.13,3.13,0,0,1,2.32-.84h.28V77.42h1.72v2.52h.27a3.23,3.23,0,0,1,2.34.83,3.06,3.06,0,0,1,.84,2.27,3,3,0,0,1-.84,2.21,3.16,3.16,0,0,1-2.32.83Zm-1.72-1.3V81.25h-.1a1.33,1.33,0,0,0-1.07.47A2,2,0,0,0,446.8,83a1.9,1.9,0,0,0,.39,1.26,1.35,1.35,0,0,0,1.1.48Zm1.72-3.53v3.53h.08a1.32,1.32,0,0,0,1.09-.48,1.85,1.85,0,0,0,.4-1.26,2,2,0,0,0-.39-1.32,1.34,1.34,0,0,0-1.08-.47Z"/><path class="cls-15" d="M459,81.42h-1.61V86h-1.86V81.42h-1.62V80H459Z"/><path class="cls-16" d="M391.4,161.23h-2.06l-.6-1.87h-3l-.59,1.87h-2.05l3.06-8.4h2.25Zm-3.09-3.32-.9-2.82a3.12,3.12,0,0,1-.14-.76h0a3.06,3.06,0,0,1-.15.73l-.91,2.85Z"/><path class="cls-16" d="M394.34,158.34v2.89h-1.89v-8.4h3c2.11,0,3.17.89,3.17,2.68a2.58,2.58,0,0,1-.91,2.05,3.62,3.62,0,0,1-2.43.78Zm0-4.06v2.62h.75c1,0,1.51-.44,1.51-1.32s-.5-1.3-1.51-1.3Z"/><path class="cls-16" d="M401.72,161.23h-1.9v-8.4h1.9Z"/><path class="cls-16" d="M416.51,161.23h-1.87v-5c0-.55,0-1.15.07-1.8h0a9,9,0,0,1-.27,1.11l-2,5.71h-1.54l-2-5.65c-.05-.15-.14-.54-.26-1.17h-.05c.05.82.07,1.55.07,2.18v4.64h-1.7v-8.4h2.77l1.71,5a6.58,6.58,0,0,1,.3,1.2h0c.1-.46.22-.87.33-1.21l1.72-5h2.7Z"/><path class="cls-16" d="M419.18,154.28a1.06,1.06,0,0,1-.77-.28.88.88,0,0,1-.3-.68.87.87,0,0,1,.3-.68,1.14,1.14,0,0,1,.77-.26,1.16,1.16,0,0,1,.77.26.89.89,0,0,1,.29.68.91.91,0,0,1-.29.69A1.11,1.11,0,0,1,419.18,154.28Zm.91,6.95h-1.85v-6h1.85Z"/><path class="cls-16" d="M426.2,161a3.72,3.72,0,0,1-1.81.36,3,3,0,0,1-2.24-.84,2.9,2.9,0,0,1-.86-2.16,3.19,3.19,0,0,1,.92-2.41,3.38,3.38,0,0,1,2.45-.88,3.14,3.14,0,0,1,1.54.28v1.57a2.13,2.13,0,0,0-1.3-.44,1.71,1.71,0,0,0-1.26.47,1.75,1.75,0,0,0-.47,1.29,1.71,1.71,0,0,0,.45,1.25,1.64,1.64,0,0,0,1.22.45,2.47,2.47,0,0,0,1.36-.43Z"/><path class="cls-16" d="M431.32,156.9a1.61,1.61,0,0,0-.78-.18,1.14,1.14,0,0,0-.94.44,1.93,1.93,0,0,0-.34,1.21v2.86h-1.85v-6h1.85v1.12h0a1.6,1.6,0,0,1,1.59-1.22,1.12,1.12,0,0,1,.45.07Z"/><path class="cls-16" d="M435,161.38a3.23,3.23,0,0,1-2.36-.84,3.47,3.47,0,0,1,0-4.61,3.37,3.37,0,0,1,2.41-.84,3.16,3.16,0,0,1,2.34.84,3,3,0,0,1,.85,2.22,3.18,3.18,0,0,1-.87,2.36A3.27,3.27,0,0,1,435,161.38Zm0-4.88a1.24,1.24,0,0,0-1,.46,2,2,0,0,0-.36,1.27c0,1.15.47,1.73,1.4,1.73s1.33-.59,1.33-1.77S435.94,156.5,435,156.5Z"/><path class="cls-16" d="M439.08,161.07v-1.5a3.82,3.82,0,0,0,.91.41,3,3,0,0,0,.86.14,1.84,1.84,0,0,0,.78-.14.42.42,0,0,0,.28-.41.37.37,0,0,0-.13-.29.88.88,0,0,0-.33-.2,2.52,2.52,0,0,0-.44-.16c-.16,0-.32-.1-.46-.16a4.68,4.68,0,0,1-.63-.29,1.54,1.54,0,0,1-.46-.36,1.44,1.44,0,0,1-.28-.48,1.7,1.7,0,0,1-.1-.63,1.61,1.61,0,0,1,.22-.87,1.88,1.88,0,0,1,.59-.6,3,3,0,0,1,.83-.34,4.62,4.62,0,0,1,1-.1,5.49,5.49,0,0,1,.8.06,5.3,5.3,0,0,1,.81.18v1.43a2.76,2.76,0,0,0-.75-.31,3.11,3.11,0,0,0-.79-.1,1.87,1.87,0,0,0-.34,0,1,1,0,0,0-.28.09.54.54,0,0,0-.2.16.4.4,0,0,0,0,.5.79.79,0,0,0,.27.2l.38.16.41.13a6.16,6.16,0,0,1,.67.28,2.55,2.55,0,0,1,.51.36,1.29,1.29,0,0,1,.33.48,1.66,1.66,0,0,1,.12.66,1.76,1.76,0,0,1-.23.91,1.81,1.81,0,0,1-.62.61,2.75,2.75,0,0,1-.88.35,5.37,5.37,0,0,1-2.88-.2Z"/><path class="cls-16" d="M447.61,161.38a3.24,3.24,0,0,1-2.36-.84,3,3,0,0,1-.85-2.28,3,3,0,0,1,.89-2.33,3.34,3.34,0,0,1,2.4-.84,3.2,3.2,0,0,1,2.35.84,3,3,0,0,1,.85,2.22,3.15,3.15,0,0,1-.88,2.36A3.24,3.24,0,0,1,447.61,161.38Zm.05-4.88a1.21,1.21,0,0,0-1,.46,2,2,0,0,0-.36,1.27c0,1.15.46,1.73,1.39,1.73s1.33-.59,1.33-1.77S448.55,156.5,447.66,156.5Z"/><path class="cls-16" d="M455.82,153.77a1.76,1.76,0,0,0-.68-.14c-.6,0-.89.32-.89,1v.64h1.37v1.37h-1.37v4.63H452.4V156.6h-1v-1.37h1v-.74a2.12,2.12,0,0,1,.67-1.65,2.52,2.52,0,0,1,1.81-.63,3.11,3.11,0,0,1,.94.12Z"/><path class="cls-16" d="M460.36,161.16a2.62,2.62,0,0,1-1.23.22,1.76,1.76,0,0,1-2-2V156.6h-1v-1.37h1v-1.29l1.84-.53v1.82h1.35v1.37H459V159c0,.63.25.94.75.94a1.27,1.27,0,0,0,.6-.17Z"/><path class="cls-16" d="M412.48,175.07a6.08,6.08,0,0,1-3.06.71,4.4,4.4,0,0,1-3.19-1.12,4.08,4.08,0,0,1-1.17-3.09,4.29,4.29,0,0,1,1.28-3.23,4.65,4.65,0,0,1,3.39-1.25,6.8,6.8,0,0,1,2.36.37v1.77a4.73,4.73,0,0,0-2.38-.56,2.58,2.58,0,0,0-1.92.77,2.82,2.82,0,0,0-.74,2,2.78,2.78,0,0,0,.67,2,2.31,2.31,0,0,0,1.79.71,2.52,2.52,0,0,0,1.08-.19v-1.64h-1.68v-1.51h3.57Z"/><path class="cls-16" d="M417.85,171.3a1.61,1.61,0,0,0-.78-.18,1.12,1.12,0,0,0-.94.44,1.93,1.93,0,0,0-.34,1.21v2.86h-1.85v-6h1.85v1.12h0a1.59,1.59,0,0,1,1.58-1.22,1.14,1.14,0,0,1,.46.07Z"/><path class="cls-16" d="M423.7,175.63H422v-.86h0a2,2,0,0,1-1.79,1,1.86,1.86,0,0,1-1.37-.5,1.75,1.75,0,0,1-.5-1.32c0-1.16.69-1.83,2.06-2l1.63-.22c0-.66-.35-1-1.06-1a3.65,3.65,0,0,0-2,.63V170a4.67,4.67,0,0,1,1.06-.35,5.56,5.56,0,0,1,1.22-.15,2.26,2.26,0,0,1,2.56,2.56ZM422,173.2v-.41l-1.09.14c-.6.08-.9.35-.9.82a.64.64,0,0,0,.22.51.84.84,0,0,0,.6.21,1.07,1.07,0,0,0,.84-.36A1.31,1.31,0,0,0,422,173.2Z"/><path class="cls-16" d="M427,174.94h0v3.45h-1.85v-8.76H427v.91h0a2.18,2.18,0,0,1,1.93-1,2.14,2.14,0,0,1,1.8.8,3.34,3.34,0,0,1,.64,2.17,3.71,3.71,0,0,1-.74,2.41,2.41,2.41,0,0,1-2,.91A1.88,1.88,0,0,1,427,174.94Zm-.05-2.47V173a1.52,1.52,0,0,0,.33,1,1.06,1.06,0,0,0,.86.39,1.12,1.12,0,0,0,1-.49,2.36,2.36,0,0,0,.35-1.38q0-1.59-1.23-1.59a1.18,1.18,0,0,0-.93.43A1.73,1.73,0,0,0,427,172.47Z"/><path class="cls-16" d="M438.37,175.63h-1.85v-3.41q0-1.32-1-1.32a1,1,0,0,0-.79.37,1.4,1.4,0,0,0-.31.94v3.42h-1.85v-8.88h1.85v3.77h0a2.11,2.11,0,0,1,1.85-1q2,0,2,2.46Z"/><path class="cls-14" d="M185.52,10.41V2h2.39a2.65,2.65,0,0,1,1.73.53,1.75,1.75,0,0,1,.64,1.39,2,2,0,0,1-.39,1.24,2.09,2.09,0,0,1-1.07.75v0a2.16,2.16,0,0,1,1.36.65A2,2,0,0,1,190.69,8a2.2,2.2,0,0,1-.77,1.74,2.87,2.87,0,0,1-1.95.67Zm1-7.51V5.61h1a1.91,1.91,0,0,0,1.27-.39,1.34,1.34,0,0,0,.46-1.1c0-.81-.53-1.22-1.61-1.22Zm0,3.6v3h1.34a2,2,0,0,0,1.34-.41A1.4,1.4,0,0,0,189.66,8c0-1-.68-1.48-2-1.48Z"/><path class="cls-14" d="M194.69,10.55a2.79,2.79,0,0,1-2.12-.84,3.11,3.11,0,0,1-.8-2.23,3.25,3.25,0,0,1,.83-2.36,3,3,0,0,1,2.23-.85,2.66,2.66,0,0,1,2.1.83,3.27,3.27,0,0,1,.75,2.29,3.25,3.25,0,0,1-.81,2.3A2.87,2.87,0,0,1,194.69,10.55Zm.07-5.47a1.83,1.83,0,0,0-1.46.63,2.58,2.58,0,0,0-.54,1.73,2.47,2.47,0,0,0,.54,1.69,1.86,1.86,0,0,0,1.46.61,1.75,1.75,0,0,0,1.43-.6,2.6,2.6,0,0,0,.51-1.72,2.61,2.61,0,0,0-.51-1.73A1.73,1.73,0,0,0,194.76,5.08Z"/><path class="cls-14" d="M204.16,10.41h-.87V5.62c-.08.17-.22.41-.39.71l-2.77,4.08h-1v-6H200V9.14c.05-.12.15-.31.3-.58l2.85-4.15h1Zm-.35-8.92a1.88,1.88,0,0,1-.67,1.31,2.21,2.21,0,0,1-1.44.47,2.18,2.18,0,0,1-1.45-.47,1.76,1.76,0,0,1-.61-1.31h.94a1.14,1.14,0,0,0,1.9.81,1.29,1.29,0,0,0,.38-.81Z"/><path class="cls-14" d="M209.79,5.23H208v5.18h-1V5.23h-1.81V4.41h4.57Z"/><path class="cls-14" d="M215.89,10.41H215V5.62l-.39.71-2.78,4.08h-1v-6h.88V9.14a4.72,4.72,0,0,1,.3-.58l2.85-4.15h1Z"/><path class="cls-14" d="M214.59,38.15h-1V32.51c0-.44,0-1,.08-1.63h0a6.37,6.37,0,0,1-.25.81l-2.88,6.46h-.48l-2.86-6.41a4.68,4.68,0,0,1-.25-.86h0a16.27,16.27,0,0,1,.05,1.64v5.63H206v-8.4h1.3l2.58,5.86a7.92,7.92,0,0,1,.39,1h0c.17-.46.31-.8.41-1l2.63-5.83h1.23Z"/><path class="cls-14" d="M221,38.15h-1v-.94h0a2.2,2.2,0,0,1-3.25.61,1.65,1.65,0,0,1-.51-1.26c0-1.12.66-1.78,2-2l1.8-.25q0-1.53-1.23-1.53a2.91,2.91,0,0,0-2,.74v-1a3.76,3.76,0,0,1,2-.56c1.41,0,2.11.75,2.11,2.24Zm-1-3-1.45.2a2.37,2.37,0,0,0-1,.34.93.93,0,0,0-.34.84.89.89,0,0,0,.31.71,1.2,1.2,0,0,0,.84.28,1.56,1.56,0,0,0,1.18-.5,1.79,1.79,0,0,0,.46-1.27Z"/><path class="cls-14" d="M223.76,37.28h0v3.63h-1V32.15h1V33.2h0A2.27,2.27,0,0,1,225.83,32a2.2,2.2,0,0,1,1.81.8,3.31,3.31,0,0,1,.65,2.16,3.73,3.73,0,0,1-.73,2.42,2.45,2.45,0,0,1-2,.9A2,2,0,0,1,223.76,37.28Zm0-2.42v.84a1.78,1.78,0,0,0,.49,1.26,1.72,1.72,0,0,0,2.59-.15,3,3,0,0,0,.5-1.85,2.47,2.47,0,0,0-.46-1.57,1.54,1.54,0,0,0-1.26-.57,1.7,1.7,0,0,0-1.35.58A2.15,2.15,0,0,0,223.73,34.86Z"/><path class="cls-14" d="M234.81,38.15h-1.35l-2.65-2.88h0v2.88h-1v-6h1V34.9h0l2.52-2.75h1.26L231.81,35Z"/><path class="cls-14" d="M240.62,35.39h-4.24a2.21,2.21,0,0,0,.54,1.55,1.85,1.85,0,0,0,1.42.54,2.93,2.93,0,0,0,1.86-.67v.91a3.52,3.52,0,0,1-2.09.57,2.52,2.52,0,0,1-2-.82,3.36,3.36,0,0,1-.73-2.3,3.29,3.29,0,0,1,.8-2.28,2.53,2.53,0,0,1,2-.88,2.25,2.25,0,0,1,1.82.76,3.18,3.18,0,0,1,.65,2.12Zm-1-.81a2,2,0,0,0-.4-1.3,1.36,1.36,0,0,0-1.1-.46,1.55,1.55,0,0,0-1.15.48,2.19,2.19,0,0,0-.59,1.28Z"/><path class="cls-14" d="M243.05,37.28h0v3.63h-1V32.15h1V33.2h0A2.3,2.3,0,0,1,245.13,32a2.23,2.23,0,0,1,1.81.8,3.37,3.37,0,0,1,.65,2.16,3.79,3.79,0,0,1-.73,2.42,2.46,2.46,0,0,1-2,.9A2,2,0,0,1,243.05,37.28Zm0-2.42v.84a1.77,1.77,0,0,0,.48,1.26,1.59,1.59,0,0,0,1.23.52,1.6,1.6,0,0,0,1.37-.67A3,3,0,0,0,246.6,35a2.41,2.41,0,0,0-.46-1.57,1.53,1.53,0,0,0-1.25-.57,1.7,1.7,0,0,0-1.35.58A2.15,2.15,0,0,0,243,34.86Z"/><path class="cls-14" d="M257.44,38.15h-.87V33.36l-.39.71-2.77,4.08h-1v-6h.88v4.73c.05-.11.15-.31.3-.58l2.85-4.15h1Z"/><path class="cls-14" d="M264.62,40.34h-.82V38.15h-4.46v2.19h-.82v-3h.53a9.09,9.09,0,0,0,1.56-5.19h3.11v5.19h.9Zm-1.86-3V33h-1.33a9.33,9.33,0,0,1-1.36,4.38Z"/><path class="cls-14" d="M270.77,35.39h-4.24a2.3,2.3,0,0,0,.54,1.55,1.87,1.87,0,0,0,1.42.54,2.91,2.91,0,0,0,1.86-.67v.91a3.5,3.5,0,0,1-2.09.57,2.53,2.53,0,0,1-2-.82,3.35,3.35,0,0,1-.72-2.3,3.28,3.28,0,0,1,.79-2.28,2.54,2.54,0,0,1,2-.88,2.24,2.24,0,0,1,1.82.76,3.18,3.18,0,0,1,.65,2.12Zm-1-.81a1.91,1.91,0,0,0-.4-1.3,1.36,1.36,0,0,0-1.1-.46,1.56,1.56,0,0,0-1.15.48,2.25,2.25,0,0,0-.59,1.28Z"/><path class="cls-14" d="M277.2,38.15h-1V35.43h-3.06v2.72h-1v-6h1v2.46h3.06V32.15h1Z"/><path class="cls-14" d="M282.91,33h-1.79v5.18h-1V33h-1.8v-.82h4.56Z"/><path class="cls-14" d="M289.1,38.15h-.87V33.36l-.39.71-2.78,4.08h-1v-6H285v4.73a5.59,5.59,0,0,1,.3-.58l2.85-4.15h1Z"/><path class="cls-14" d="M294.62,38.29V41h-.87V38.29h-.19a2.79,2.79,0,0,1-2.12-.85,3.1,3.1,0,0,1-.81-2.22,3.25,3.25,0,0,1,.82-2.33,2.78,2.78,0,0,1,2.16-.88h.14v-2.4h.87V32h.12a2.85,2.85,0,0,1,2.18.87,3.3,3.3,0,0,1,.81,2.34,3.13,3.13,0,0,1-.8,2.22,2.77,2.77,0,0,1-2.11.85Zm-.87-.81V32.82h-.14a1.82,1.82,0,0,0-1.45.63,2.59,2.59,0,0,0-.54,1.74,2.48,2.48,0,0,0,.54,1.67,1.89,1.89,0,0,0,1.47.62Zm.87-4.66v4.66h.12a1.82,1.82,0,0,0,1.46-.62,2.4,2.4,0,0,0,.55-1.67,2.6,2.6,0,0,0-.54-1.75,1.81,1.81,0,0,0-1.44-.62Z"/><path class="cls-14" d="M304.3,38.15h-.87V33.36c-.08.17-.21.41-.39.71l-2.77,4.08h-1v-6h.88v4.73a6.36,6.36,0,0,1,.31-.58l2.84-4.15h1Z"/><path class="cls-14" d="M311.23,38.15h-1.35l-2.65-2.88h0v2.88h-1v-6h1V34.9h0l2.52-2.75H311L308.23,35Z"/><path class="cls-14" d="M316.51,38.15h-1v-.94h0a2.2,2.2,0,0,1-3.25.61,1.64,1.64,0,0,1-.5-1.26c0-1.12.66-1.78,2-2l1.79-.25q0-1.53-1.23-1.53a2.92,2.92,0,0,0-2,.74v-1a3.76,3.76,0,0,1,2-.56c1.41,0,2.12.75,2.12,2.24Zm-1-3-1.44.2a2.43,2.43,0,0,0-1,.34.93.93,0,0,0-.34.84.89.89,0,0,0,.31.71,1.2,1.2,0,0,0,.84.28,1.55,1.55,0,0,0,1.18-.5,1.79,1.79,0,0,0,.46-1.27Z"/><path class="cls-14" d="M322.08,33h-1.79v5.18h-1V33h-1.8v-.82h4.56Z"/><path class="cls-14" d="M325.75,38.29a2.79,2.79,0,0,1-2.13-.84,3.1,3.1,0,0,1-.79-2.23,3.24,3.24,0,0,1,.82-2.36,3,3,0,0,1,2.24-.85,2.66,2.66,0,0,1,2.09.83,3.77,3.77,0,0,1-.06,4.59A2.85,2.85,0,0,1,325.75,38.29Zm.07-5.47a1.84,1.84,0,0,0-1.47.63,2.59,2.59,0,0,0-.54,1.74,2.41,2.41,0,0,0,.55,1.68,1.85,1.85,0,0,0,1.46.61,1.75,1.75,0,0,0,1.43-.6,3.23,3.23,0,0,0,0-3.45A1.73,1.73,0,0,0,325.82,32.82Z"/><path class="cls-14" d="M331.25,37.28h0v3.63h-1V32.15h1V33.2h0A2.3,2.3,0,0,1,333.33,32a2.21,2.21,0,0,1,1.81.8,3.37,3.37,0,0,1,.65,2.16,3.79,3.79,0,0,1-.73,2.42,2.46,2.46,0,0,1-2,.9A2,2,0,0,1,331.25,37.28Zm0-2.42v.84a1.77,1.77,0,0,0,.48,1.26,1.73,1.73,0,0,0,2.6-.15A3,3,0,0,0,334.8,35a2.41,2.41,0,0,0-.46-1.57,1.52,1.52,0,0,0-1.25-.57,1.7,1.7,0,0,0-1.35.58A2.15,2.15,0,0,0,331.23,34.86Z"/><path class="cls-14" d="M341.62,38.15h-1v-.94h0a2,2,0,0,1-1.84,1.08,2,2,0,0,1-1.4-.47,1.65,1.65,0,0,1-.51-1.26c0-1.12.66-1.78,2-2l1.8-.25c0-1-.41-1.53-1.24-1.53a2.94,2.94,0,0,0-2,.74v-1a3.76,3.76,0,0,1,2-.56c1.41,0,2.12.75,2.12,2.24Zm-1-3-1.45.2a2.48,2.48,0,0,0-1,.34,1,1,0,0,0-.34.84.9.9,0,0,0,.32.71,1.18,1.18,0,0,0,.83.28,1.55,1.55,0,0,0,1.18-.5,1.8,1.8,0,0,0,.47-1.27Z"/><path class="cls-14" d="M191.89,69.32h-1V61.83h-4.39v7.49h-1v-8.4h6.37Z"/><path class="cls-14" d="M196.36,69.46a2.79,2.79,0,0,1-2.13-.84,3.1,3.1,0,0,1-.79-2.23,3.24,3.24,0,0,1,.82-2.36,3,3,0,0,1,2.24-.85,2.66,2.66,0,0,1,2.09.83,3.77,3.77,0,0,1-.06,4.59A2.85,2.85,0,0,1,196.36,69.46Zm.07-5.47a1.84,1.84,0,0,0-1.47.63,2.58,2.58,0,0,0-.54,1.73A2.42,2.42,0,0,0,195,68a1.85,1.85,0,0,0,1.46.61,1.75,1.75,0,0,0,1.43-.6,3.23,3.23,0,0,0,0-3.45A1.73,1.73,0,0,0,196.43,64Z"/><path class="cls-14" d="M205.16,69.32h-.95V64.13h-1.4a12.33,12.33,0,0,1-.82,4.09,1.76,1.76,0,0,1-1.57,1.18,1.62,1.62,0,0,1-.52-.08v-.83a1,1,0,0,0,.45.11q1.29,0,1.66-5.28h3.15Z"/><path class="cls-14" d="M211.79,63.32l-2.76,7c-.5,1.24-1.19,1.86-2.08,1.86a2.28,2.28,0,0,1-.63-.07v-.86a1.8,1.8,0,0,0,.57.1,1.17,1.17,0,0,0,1.09-.87l.48-1.13-2.34-6h1.07l1.62,4.62q0,.09.12.45h0l.11-.44,1.71-4.63Z"/><path class="cls-14" d="M217.55,69.32h-1V66.91a4.13,4.13,0,0,1-1.95.57q-2,0-2-2.13v-2h1v2q0,1.32,1.14,1.32a4.12,4.12,0,0,0,1.86-.51V63.32h1Z"/><path class="cls-14" d="M224.23,66.56H220a2.21,2.21,0,0,0,.54,1.55,1.85,1.85,0,0,0,1.42.54,2.93,2.93,0,0,0,1.86-.67v.91a3.52,3.52,0,0,1-2.09.57,2.52,2.52,0,0,1-2-.82,3.36,3.36,0,0,1-.73-2.3,3.29,3.29,0,0,1,.8-2.28,2.53,2.53,0,0,1,2-.88,2.25,2.25,0,0,1,1.82.76,3.18,3.18,0,0,1,.65,2.12Zm-1-.81a2,2,0,0,0-.4-1.3,1.36,1.36,0,0,0-1.1-.46,1.55,1.55,0,0,0-1.15.48,2.25,2.25,0,0,0-.59,1.28Z"/><path class="cls-14" d="M230.56,69.32h-1V66.6h-3.06v2.72h-1v-6h1v2.46h3.06V63.32h1Z"/><path class="cls-14" d="M237.44,69.32h-.87V64.53c-.08.17-.21.41-.39.71l-2.77,4.08h-1v-6h.88v4.73a6.36,6.36,0,0,1,.31-.58l2.84-4.15h1Z"/><path class="cls-14" d="M244.11,66.56h-4.23a2.21,2.21,0,0,0,.54,1.55,1.85,1.85,0,0,0,1.41.54A2.94,2.94,0,0,0,243.7,68v.91a3.53,3.53,0,0,1-2.1.57,2.51,2.51,0,0,1-2-.82,3.83,3.83,0,0,1,.06-4.58,2.55,2.55,0,0,1,2-.88,2.25,2.25,0,0,1,1.82.76,3.18,3.18,0,0,1,.64,2.12Zm-1-.81a2,2,0,0,0-.4-1.3,1.37,1.37,0,0,0-1.1-.46,1.57,1.57,0,0,0-1.16.48,2.24,2.24,0,0,0-.58,1.28Z"/><path class="cls-14" d="M255.14,69.32h-.95V64.37c-.08.25-.22.62-.4,1.11l-1.5,3.84h-.86l-1.55-3.84q-.12-.32-.39-1.11v4.95h-.83v-6h1.22l1.59,3.91c.11.29.25.68.43,1.19l.43-1.16,1.53-3.94h1.28Z"/><path class="cls-14" d="M261.29,69.32h-1v-.94h0a2.2,2.2,0,0,1-3.25.61,1.65,1.65,0,0,1-.51-1.26c0-1.13.67-1.78,2-2l1.79-.25q0-1.53-1.23-1.53a2.92,2.92,0,0,0-2,.74v-1a3.76,3.76,0,0,1,2-.56c1.41,0,2.12.75,2.12,2.24Zm-1-3-1.44.2a2.59,2.59,0,0,0-1,.33,1,1,0,0,0-.34.85.89.89,0,0,0,.31.71,1.2,1.2,0,0,0,.84.28,1.56,1.56,0,0,0,1.18-.5,1.79,1.79,0,0,0,.46-1.27Z"/><path class="cls-14" d="M264,68.45h0v3.63h-1V63.32h1v1.05h0a2.3,2.3,0,0,1,2.08-1.19,2.23,2.23,0,0,1,1.81.8,3.37,3.37,0,0,1,.65,2.16,3.79,3.79,0,0,1-.73,2.42,2.46,2.46,0,0,1-2,.9A2,2,0,0,1,264,68.45ZM264,66v.84a1.77,1.77,0,0,0,.48,1.26A1.73,1.73,0,0,0,267,68a3,3,0,0,0,.49-1.85,2.41,2.41,0,0,0-.46-1.57,1.53,1.53,0,0,0-1.25-.57,1.7,1.7,0,0,0-1.35.58A2.15,2.15,0,0,0,264,66Z"/><path class="cls-14" d="M274.94,69.32h-1.35l-2.65-2.88h0v2.88h-1v-6h1v2.75h0l2.52-2.75h1.26l-2.78,2.89Z"/><path class="cls-14" d="M280.65,66.56h-4.24a2.3,2.3,0,0,0,.54,1.55,1.88,1.88,0,0,0,1.42.54,2.89,2.89,0,0,0,1.86-.67v.91a3.47,3.47,0,0,1-2.09.57,2.53,2.53,0,0,1-2-.82,3.35,3.35,0,0,1-.72-2.3,3.28,3.28,0,0,1,.79-2.28,2.54,2.54,0,0,1,2-.88,2.22,2.22,0,0,1,1.82.76,3.18,3.18,0,0,1,.65,2.12Zm-1-.81a2,2,0,0,0-.41-1.3,1.35,1.35,0,0,0-1.09-.46,1.57,1.57,0,0,0-1.16.48,2.25,2.25,0,0,0-.59,1.28Z"/><path class="cls-14" d="M283,68.45h0v3.63h-1V63.32h1v1.05h0a2.27,2.27,0,0,1,2.07-1.19,2.23,2.23,0,0,1,1.82.8,3.37,3.37,0,0,1,.65,2.16,3.74,3.74,0,0,1-.74,2.42,2.44,2.44,0,0,1-2,.9A2,2,0,0,1,283,68.45ZM283,66v.84a1.77,1.77,0,0,0,.48,1.26,1.59,1.59,0,0,0,1.23.52,1.6,1.6,0,0,0,1.37-.67,3,3,0,0,0,.49-1.85,2.41,2.41,0,0,0-.46-1.57,1.54,1.54,0,0,0-1.26-.57,1.69,1.69,0,0,0-1.34.58A2.15,2.15,0,0,0,283,66Z"/><path class="cls-14" d="M293.26,69.32h-1v-.94h0a2,2,0,0,1-1.85,1.08A2,2,0,0,1,289,69a1.65,1.65,0,0,1-.51-1.26c0-1.13.66-1.78,2-2l1.8-.25c0-1-.41-1.53-1.24-1.53a2.9,2.9,0,0,0-1.95.74v-1a3.75,3.75,0,0,1,2-.56c1.41,0,2.12.75,2.12,2.24Zm-1-3-1.45.2a2.65,2.65,0,0,0-1,.33,1,1,0,0,0-.34.85.9.9,0,0,0,.32.71,1.18,1.18,0,0,0,.83.28,1.55,1.55,0,0,0,1.18-.5,1.8,1.8,0,0,0,.47-1.27Z"/><path class="cls-14" d="M214.59,98.21h-1V92.57c0-.44,0-1,.08-1.63h0a6.37,6.37,0,0,1-.25.81l-2.88,6.46h-.48L207.2,91.8a4.68,4.68,0,0,1-.25-.86h0a16.27,16.27,0,0,1,.05,1.64v5.63H206v-8.4h1.3l2.58,5.86a7.92,7.92,0,0,1,.39,1h0c.17-.46.31-.8.41-1l2.63-5.83h1.23Z"/><path class="cls-14" d="M220.89,98.21h-1v-.94h0a2,2,0,0,1-1.85,1.08,2,2,0,0,1-1.4-.47,1.65,1.65,0,0,1-.51-1.26c0-1.12.66-1.78,2-2l1.8-.25c0-1-.41-1.53-1.24-1.53a2.9,2.9,0,0,0-1.95.74v-1a3.76,3.76,0,0,1,2-.56c1.41,0,2.11.75,2.11,2.24Zm-1-3-1.45.2a2.48,2.48,0,0,0-1,.34,1,1,0,0,0-.34.84.9.9,0,0,0,.32.71,1.19,1.19,0,0,0,.83.28,1.51,1.51,0,0,0,1.18-.5,1.8,1.8,0,0,0,.47-1.27Z"/><path class="cls-14" d="M223.61,97.34h0V101h-1V92.21h1v1.05h0a2.3,2.3,0,0,1,2.08-1.19,2.19,2.19,0,0,1,1.81.81,3.32,3.32,0,0,1,.65,2.15,3.73,3.73,0,0,1-.73,2.42,2.46,2.46,0,0,1-2,.9A2,2,0,0,1,223.61,97.34Zm0-2.42v.84a1.77,1.77,0,0,0,.48,1.26,1.73,1.73,0,0,0,2.6-.15,3,3,0,0,0,.5-1.85,2.41,2.41,0,0,0-.47-1.57,1.52,1.52,0,0,0-1.25-.57,1.7,1.7,0,0,0-1.35.58A2.15,2.15,0,0,0,223.59,94.92Z"/><path class="cls-14" d="M234.59,98.21h-1.34l-2.65-2.88h0v2.88h-1v-6h1V95h0l2.52-2.75h1.26l-2.79,2.89Z"/><path class="cls-14" d="M240.33,95.45h-4.24a2.3,2.3,0,0,0,.54,1.55,1.87,1.87,0,0,0,1.42.54,2.93,2.93,0,0,0,1.86-.67v.91a3.5,3.5,0,0,1-2.09.57,2.53,2.53,0,0,1-2-.82,3.36,3.36,0,0,1-.73-2.3,3.29,3.29,0,0,1,.8-2.28,2.54,2.54,0,0,1,2-.88,2.24,2.24,0,0,1,1.82.76,3.18,3.18,0,0,1,.65,2.12Zm-1-.81a1.91,1.91,0,0,0-.4-1.3,1.36,1.36,0,0,0-1.1-.46,1.55,1.55,0,0,0-1.15.48,2.25,2.25,0,0,0-.59,1.28Z"/><path class="cls-14" d="M242.69,97.34h0V101h-1V92.21h1v1.05h0a2.3,2.3,0,0,1,2.08-1.19,2.2,2.2,0,0,1,1.81.81,3.32,3.32,0,0,1,.65,2.15,3.79,3.79,0,0,1-.73,2.42,2.46,2.46,0,0,1-2,.9A2,2,0,0,1,242.69,97.34Zm0-2.42v.84a1.77,1.77,0,0,0,.48,1.26,1.59,1.59,0,0,0,1.23.52,1.6,1.6,0,0,0,1.37-.67,3,3,0,0,0,.49-1.85,2.41,2.41,0,0,0-.46-1.57,1.53,1.53,0,0,0-1.25-.57,1.7,1.7,0,0,0-1.35.58A2.15,2.15,0,0,0,242.67,94.92Z"/><path class="cls-14" d="M257.14,100.4h-.82V98.21h-4.46v2.19H251v-3h.53a8.94,8.94,0,0,0,1.56-5.19h3.12V97.4h.89Zm-1.85-3V93H254a9.33,9.33,0,0,1-1.37,4.38Z"/><path class="cls-14" d="M260.9,98.35a2.79,2.79,0,0,1-2.12-.84,3.1,3.1,0,0,1-.79-2.23,3.24,3.24,0,0,1,.82-2.36,3,3,0,0,1,2.23-.85,2.66,2.66,0,0,1,2.1.83,3.77,3.77,0,0,1-.06,4.59A2.87,2.87,0,0,1,260.9,98.35Zm.07-5.47a1.83,1.83,0,0,0-1.46.63,2.59,2.59,0,0,0-.54,1.74,2.41,2.41,0,0,0,.55,1.68,1.84,1.84,0,0,0,1.45.61,1.77,1.77,0,0,0,1.44-.6,3.23,3.23,0,0,0,0-3.45A1.75,1.75,0,0,0,261,92.88Z"/><path class="cls-14" d="M269.45,97.93a3.14,3.14,0,0,1-1.65.42,2.75,2.75,0,0,1-2.07-.83,3.06,3.06,0,0,1-.78-2.17,3.34,3.34,0,0,1,.84-2.38,3,3,0,0,1,2.27-.9,3.27,3.27,0,0,1,1.4.29v1a2.4,2.4,0,0,0-1.43-.47,1.92,1.92,0,0,0-1.51.66,2.5,2.5,0,0,0-.59,1.73,2.36,2.36,0,0,0,.55,1.66,1.91,1.91,0,0,0,1.49.61,2.43,2.43,0,0,0,1.48-.52Z"/><path class="cls-14" d="M274.59,93H272.8v5.18h-1V93H270v-.82h4.56Z"/><path class="cls-14" d="M280.45,92.21l-2.76,7Q277,101,275.62,101A2.28,2.28,0,0,1,275,101v-.86a1.8,1.8,0,0,0,.57.1,1.18,1.18,0,0,0,1.09-.87l.48-1.13-2.34-6h1.06l1.63,4.62q0,.09.12.45h0c0-.09.06-.24.12-.44l1.71-4.63Z"/><path class="cls-14" d="M286.39,98.21h-1V93h-3.06v5.18h-1v-6h5Z"/><path class="cls-14" d="M292.56,98.21h-1v-.94h0a2,2,0,0,1-1.85,1.08,2,2,0,0,1-1.4-.47,1.65,1.65,0,0,1-.51-1.26c0-1.12.66-1.78,2-2l1.8-.25c0-1-.41-1.53-1.24-1.53a2.9,2.9,0,0,0-1.95.74v-1a3.76,3.76,0,0,1,2-.56c1.41,0,2.11.75,2.11,2.24Zm-1-3-1.45.2a2.48,2.48,0,0,0-1,.34,1,1,0,0,0-.34.84.9.9,0,0,0,.32.71,1.19,1.19,0,0,0,.83.28,1.51,1.51,0,0,0,1.18-.5,1.8,1.8,0,0,0,.47-1.27Z"/><path class="cls-14" d="M188.9,190.32a3.68,3.68,0,0,1-2.86-1.18,4.37,4.37,0,0,1-1.07-3.06,4.65,4.65,0,0,1,1.09-3.24,3.85,3.85,0,0,1,3-1.2,3.6,3.6,0,0,1,2.8,1.17,4.37,4.37,0,0,1,1.06,3.06,4.66,4.66,0,0,1-1.09,3.26A3.77,3.77,0,0,1,188.9,190.32Zm.08-7.79a2.75,2.75,0,0,0-2.16.95,4.28,4.28,0,0,0,0,5,2.64,2.64,0,0,0,2.1.95,2.76,2.76,0,0,0,2.18-.91,3.63,3.63,0,0,0,.8-2.52,3.87,3.87,0,0,0-.77-2.57A2.65,2.65,0,0,0,189,182.53Z"/><path class="cls-14" d="M198.17,185h-1.8v5.18h-1V185H193.6v-.82h4.57Z"/><path class="cls-14" d="M199.29,190.18v-6h2.61a2.28,2.28,0,0,1,1.4.39,1.28,1.28,0,0,1,.51,1.07,1.32,1.32,0,0,1-1.15,1.42c.92.12,1.38.58,1.38,1.39a1.56,1.56,0,0,1-.57,1.23,2,2,0,0,1-1.4.5Zm1-5.18v1.69h1.44c.77,0,1.16-.3,1.16-.9s-.35-.79-1-.79Zm0,2.51v1.85h1.66c.78,0,1.17-.32,1.17-.94s-.44-.91-1.31-.91Z"/><path class="cls-14" d="M210.43,187.42h-4.24a2.3,2.3,0,0,0,.54,1.55,1.88,1.88,0,0,0,1.42.54,2.89,2.89,0,0,0,1.86-.67v.91a3.47,3.47,0,0,1-2.09.57,2.53,2.53,0,0,1-2-.82,3.35,3.35,0,0,1-.72-2.3,3.28,3.28,0,0,1,.79-2.28,2.54,2.54,0,0,1,2-.88,2.24,2.24,0,0,1,1.82.76,3.18,3.18,0,0,1,.65,2.12Zm-1-.81a1.91,1.91,0,0,0-.4-1.3,1.36,1.36,0,0,0-1.1-.46,1.56,1.56,0,0,0-1.15.48,2.25,2.25,0,0,0-.59,1.28Z"/><path class="cls-14" d="M215.61,185h-1.79v5.18h-1V185h-1.8v-.82h4.56Z"/><path class="cls-14" d="M226.43,190.18h-1v-3.83H221.1v3.83h-1v-8.4h1v3.68h4.34v-3.68h1Z"/><path class="cls-14" d="M233.56,182.67h-2.42v7.51h-1v-7.51h-2.42v-.89h5.83Z"/><path class="cls-14" d="M240.05,182.67h-2.42v7.51h-1v-7.51h-2.42v-.89h5.83Z"/><path class="cls-14" d="M242.32,187v3.18h-1v-8.4h2.31a3.08,3.08,0,0,1,2.09.65,2.37,2.37,0,0,1,.74,1.86,2.54,2.54,0,0,1-.82,2,3.14,3.14,0,0,1-2.23.76Zm0-4.33v3.44h1a2.28,2.28,0,0,0,1.55-.46,1.65,1.65,0,0,0,.54-1.32c0-1.11-.66-1.66-2-1.66Z"/></g></svg>