<svg xmlns="http://www.w3.org/2000/svg" xmlns:xlink="http://www.w3.org/1999/xlink" viewBox="0 0 475.66 151.37"><defs><style>.cls-1{fill:#505050;}.cls-13,.cls-2{fill:#fff;}.cls-10,.cls-3{fill:#ebebeb;}.cls-14,.cls-4{fill:#0072c6;}.cls-5{fill:#d2d2d2;}.cls-6{fill:#1a1a1f;}.cls-7{fill:#009ee1;}.cls-8{fill:#0078db;}.cls-9{fill:none;}.cls-10,.cls-11,.cls-9{stroke:#000;}.cls-10,.cls-11,.cls-12,.cls-13,.cls-14,.cls-9{stroke-miterlimit:10;}.cls-10{stroke-width:0.75px;}.cls-11,.cls-13,.cls-14{stroke-width:0.05px;}.cls-12{fill:#1e1e1e;stroke:#1e1e1e;stroke-width:0.06px;}.cls-13{stroke:#fff;}.cls-14{stroke:#0072c6;}</style><symbol id="New_Symbol_44" data-name="New Symbol 44" viewBox="0 0 20 20"><circle class="cls-1" cx="10" cy="10" r="10"/><path class="cls-2" d="M12,14V8.58h1.25V7.45H12V5.6H10.65V7.42H6.85V8.56q.51.58,1.05,1.26a12.66,12.66,0,0,1,1,1.38c.29.47.64.94.93,1.41A13,13,0,0,1,10.55,14ZM10.65,8.58v3.5a19.76,19.76,0,0,0-1.26-2C9,9.51,8.58,9,8.22,8.56Z"/></symbol><symbol id="New_Symbol_43" data-name="New Symbol 43" viewBox="0 0 20 20"><circle class="cls-1" cx="10" cy="10" r="10"/><path class="cls-2" d="M7.39,5.88V7.16a3,3,0,0,1,1.85-.65,2.19,2.19,0,0,1,1.34.38,1.23,1.23,0,0,1,.5,1c0,1-.73,1.43-2.18,1.43H8.24v1.12h.63c1.29,0,1.94.45,1.94,1.35S10.3,13,9.29,13a2.48,2.48,0,0,1-1.58-.6v1.23a4.08,4.08,0,0,0,2,.48,2.64,2.64,0,0,0,1.79-.56,1.76,1.76,0,0,0,.67-1.44A2,2,0,0,0,10.5,10h0a2.19,2.19,0,0,0,1.43-.63A1.89,1.89,0,0,0,12.5,8a2.22,2.22,0,0,0-.85-1.82,3.4,3.4,0,0,0-2.24-.7A3.84,3.84,0,0,0,7.39,5.88Z"/></symbol><symbol id="New_Symbol_42" data-name="New Symbol 42" viewBox="0 0 20 20"><circle class="cls-1" cx="10" cy="10" r="10"/><path class="cls-2" d="M12.5,5.57H7.24v.65A2.58,2.58,0,0,0,7.35,7a3.93,3.93,0,0,0,.3.66,4.92,4.92,0,0,0,.44.58c.17.18.35.35.54.52l.59.5c.2.15.39.31.58.47s.35.3.5.45a4.11,4.11,0,0,1,.38.45,2.55,2.55,0,0,1,.24.5,1.84,1.84,0,0,1,.09.57,1.42,1.42,0,0,1-.1.58,1.33,1.33,0,0,1-.29.41,1.17,1.17,0,0,1-.44.26,2.05,2.05,0,0,1-.55.05,2.73,2.73,0,0,1-1.05-.24,3.75,3.75,0,0,1-1-.72v1.31a2.85,2.85,0,0,0,.52.33,2.7,2.7,0,0,0,.55.24,3,3,0,0,0,.59.15,3.64,3.64,0,0,0,.66,0,3.77,3.77,0,0,0,1-.14,2.2,2.2,0,0,0,.79-.44,2,2,0,0,0,.51-.73,2.46,2.46,0,0,0,.18-1,2.88,2.88,0,0,0-.13-.92,2.65,2.65,0,0,0-.36-.76,4,4,0,0,0-.56-.67c-.21-.21-.46-.43-.73-.65l-.67-.53c-.23-.18-.43-.35-.61-.51a3.5,3.5,0,0,1-.44-.5.9.9,0,0,1-.16-.5H12.5Z"/></symbol><symbol id="New_Symbol_41" data-name="New Symbol 41" viewBox="0 0 20 20"><circle class="cls-1" cx="10" cy="10" r="10"/><path class="cls-2" d="M11.19,14.16V5.57H9.83V12.5A4.06,4.06,0,0,0,9,12a9,9,0,0,0-1-.33v1.21l.65.24.63.27.62.34c.21.13.42.27.64.43Z"/></symbol></defs><title>OJ104329343</title><g id="bg"><g id="Shapes"><rect class="cls-2" width="475.66" height="151.37"/><rect class="cls-3" y="0.74" width="105" height="150"/><rect class="cls-4" x="371" y="0.74" width="104.66" height="90"/><rect class="cls-5" x="371" y="95.74" width="104.66" height="55"/><path class="cls-6" d="M18.54,29.21a1.53,1.53,0,0,1,1.52-1.54H83a1.54,1.54,0,0,1,1.53,1.54v37.2A1.55,1.55,0,0,1,83,67.94H20.07a1.54,1.54,0,0,1-1.53-1.53Zm-3.47-1.79V68.11a3.29,3.29,0,0,0,3.28,3.3H84.68A3.29,3.29,0,0,0,88,68.15V27.42a3.28,3.28,0,0,0-3.27-3.29H18.35a3.28,3.28,0,0,0-3.28,3.28Z"/><path class="cls-6" d="M12.39,74.91H90.64a.87.87,0,0,1,.87.87h0v2.57a.87.87,0,0,1-.86.88H12.39a.87.87,0,0,1-.88-.86V75.78a.87.87,0,0,1,.87-.87Z"/><path class="cls-2" d="M42.59,76.44H60.44a.26.26,0,0,1,.25.26v.74a.25.25,0,0,1-.25.25H42.59a.25.25,0,0,1-.25-.25V76.7A.26.26,0,0,1,42.59,76.44Z"/><path class="cls-7" d="M58.39,51.55l.69-1.64-.2-.17-1.51-1.31V47.1l1.71-1.53-.67-1.65h-.26l-2,.14-.94-.94.13-2.29-1.64-.69-.18.2-1.31,1.51H50.88l-1.52-1.7-1.65.67v.26l.14,2-1,.94-2.28-.13L44,45.54l.2.17L45.66,47v1.33L44,49.88l.67,1.65h.26l2-.14.93,1-.12,2.28,1.64.69.17-.2,1.31-1.51h1.33l1.53,1.7,1.65-.67v-.26l-.14-2,1-.93Zm-8.29-.47a3.64,3.64,0,1,1,4.77-1.94h0a3.65,3.65,0,0,1-4.77,1.94h0"/><path class="cls-7" d="M51.51,65A17.32,17.32,0,1,1,68.83,47.68v0A17.3,17.3,0,0,1,51.51,65Zm0-30.45A13.14,13.14,0,1,0,64.65,47.73,13.14,13.14,0,0,0,51.51,34.55h0Z"/><path class="cls-7" d="M51.51,65A17.32,17.32,0,1,1,68.83,47.68v0A17.3,17.3,0,0,1,51.51,65Zm0-30.45A13.14,13.14,0,1,0,64.65,47.73,13.14,13.14,0,0,0,51.51,34.55h0Z"/><path class="cls-7" d="M51.51,65A17.32,17.32,0,1,1,68.83,47.68v0A17.3,17.3,0,0,1,51.51,65Zm0-30.45A13.14,13.14,0,1,0,64.65,47.73,13.14,13.14,0,0,0,51.51,34.55h0Z"/><path class="cls-8" d="M51.51,65.88A18.15,18.15,0,1,1,69.67,47.73,18.16,18.16,0,0,1,51.51,65.88Zm0-35.61A17.46,17.46,0,1,0,69,47.73,17.46,17.46,0,0,0,51.51,30.27Z"/><path class="cls-8" d="M51.51,65.88A18.15,18.15,0,1,1,69.67,47.73,18.16,18.16,0,0,1,51.51,65.88Zm0-35.61A17.46,17.46,0,1,0,69,47.73,17.46,17.46,0,0,0,51.51,30.27Z"/><path class="cls-8" d="M51.51,66.23A18.5,18.5,0,1,1,70,47.72h0A18.51,18.51,0,0,1,51.51,66.23Zm0-35.61A17.11,17.11,0,1,0,68.62,47.73,17.11,17.11,0,0,0,51.51,30.62Z"/><line class="cls-9" x1="104.91" y1="14.57" x2="365.49" y2="14.57"/><polygon points="364.39 18.31 370.87 14.57 364.39 10.83 364.39 18.31"/><line class="cls-9" x1="110.29" y1="44.45" x2="370.87" y2="44.45"/><polygon points="111.39 48.19 104.91 44.45 111.39 40.71 111.39 48.19"/><line class="cls-9" x1="104.91" y1="103.88" x2="365.49" y2="103.88"/><polygon points="364.39 107.62 370.87 103.88 364.39 100.14 364.39 107.62"/><line class="cls-9" x1="110.34" y1="140.04" x2="370.91" y2="140.04"/><polygon points="111.43 143.78 104.96 140.04 111.43 136.3 111.43 143.78"/><use width="20" height="20" transform="matrix(1, 0, 0, -1, 154.14, 149.57)" xlink:href="#New_Symbol_44"/><use width="20" height="20" transform="matrix(1, 0, 0, -1, 154.14, 113.88)" xlink:href="#New_Symbol_43"/><use width="20" height="20" transform="matrix(1, 0, 0, -1, 154.14, 54.45)" xlink:href="#New_Symbol_42"/><use width="20" height="20" transform="matrix(1, 0, 0, -1, 154.14, 24.57)" xlink:href="#New_Symbol_41"/><polygon class="cls-10" points="187.08 26.58 179.53 32.02 182.41 40.83 191.75 40.83 194.64 32.02 187.08 26.58"/></g><g id="Text"><polygon class="cls-10" points="187.08 85.13 179.53 90.58 182.41 99.38 191.75 99.38 194.64 90.58 187.08 85.13"/></g></g><g id="txt"><path class="cls-11" d="M23.94,98.51H21.75L19.5,95.17a3.93,3.93,0,0,1-.2-.43h0v3.77H17.54v-7.7h1.73v3.64h0c0-.1.11-.24.21-.43l2.13-3.21h2.07L21,94.48Z"/><path class="cls-11" d="M30,98.51H28.26v-4.3h-.94a8.9,8.9,0,0,1-.88,3.43,1.84,1.84,0,0,1-1.65.94,2,2,0,0,1-.66-.11V97.32a1.1,1.1,0,0,0,.4.08c.34,0,.62-.31.84-.94A17.94,17.94,0,0,0,26,93h4Z"/><path class="cls-11" d="M35.81,98.51H34.2v-.79h0a1.8,1.8,0,0,1-1.64.93,1.7,1.7,0,0,1-1.26-.46A1.6,1.6,0,0,1,30.82,97c0-1.06.63-1.68,1.9-1.85l1.49-.19c0-.61-.33-.91-1-.91a3.36,3.36,0,0,0-1.87.59V93.34a4.22,4.22,0,0,1,1-.32,4.75,4.75,0,0,1,1.12-.14,2.08,2.08,0,0,1,2.36,2.35Zm-1.6-2.23v-.37l-1,.13c-.55.07-.83.32-.83.74a.64.64,0,0,0,.2.48.81.81,0,0,0,.55.18,1,1,0,0,0,.78-.33A1.18,1.18,0,0,0,34.21,96.28Z"/><path class="cls-11" d="M41.15,98.31a3.26,3.26,0,0,1-1.66.34,2.82,2.82,0,0,1-2.05-.77,2.65,2.65,0,0,1-.78-2,2.92,2.92,0,0,1,.84-2.21,3.1,3.1,0,0,1,2.24-.81,2.8,2.8,0,0,1,1.41.26v1.44a1.9,1.9,0,0,0-1.19-.4,1.53,1.53,0,0,0-1.15.43,1.55,1.55,0,0,0-.43,1.17,1.58,1.58,0,0,0,.41,1.15,1.48,1.48,0,0,0,1.12.42,2.28,2.28,0,0,0,1.24-.4Z"/><path class="cls-11" d="M46.27,98.31a3.29,3.29,0,0,1-1.66.34,2.84,2.84,0,0,1-2.06-.77,2.65,2.65,0,0,1-.78-2,2.92,2.92,0,0,1,.84-2.21,3.1,3.1,0,0,1,2.25-.81,2.8,2.8,0,0,1,1.41.26v1.44a1.92,1.92,0,0,0-1.19-.4,1.55,1.55,0,0,0-1.16.43,1.81,1.81,0,0,0,0,2.32,1.49,1.49,0,0,0,1.12.42,2.31,2.31,0,0,0,1.25-.4Z"/><path class="cls-11" d="M52.68,98.51H51.14v-3.6a6.54,6.54,0,0,1-.45.79l-1.87,2.81H47.21V93h1.55V96.5a6.15,6.15,0,0,1,.38-.67L51,93h1.67Z"/><path class="cls-11" d="M59.12,98.51h-1.7v-1.9a3.41,3.41,0,0,1-1.67.48,1.66,1.66,0,0,1-1.87-1.89V93h1.63v1.93c0,.56.25.84.76.84a2.54,2.54,0,0,0,1.15-.32V93h1.7Z"/><path class="cls-11" d="M65.33,96.25H61.74c.06.79.57,1.19,1.51,1.19a2.93,2.93,0,0,0,1.6-.43v1.23a4.22,4.22,0,0,1-2,.41,2.57,2.57,0,0,1-2.81-2.8,3,3,0,0,1,.8-2.17,2.66,2.66,0,0,1,2-.8,2.4,2.4,0,0,1,1.86.71,2.77,2.77,0,0,1,.66,1.94Zm-1.57-1c0-.78-.32-1.18-1-1.18a.91.91,0,0,0-.7.34,1.61,1.61,0,0,0-.37.84Z"/><path class="cls-11" d="M70.35,98.31a3.29,3.29,0,0,1-1.66.34,2.84,2.84,0,0,1-2.06-.77,2.65,2.65,0,0,1-.78-2,2.92,2.92,0,0,1,.84-2.21,3.1,3.1,0,0,1,2.25-.81,2.8,2.8,0,0,1,1.41.26v1.44a1.92,1.92,0,0,0-1.19-.4,1.55,1.55,0,0,0-1.16.43,1.81,1.81,0,0,0,0,2.32,1.49,1.49,0,0,0,1.12.42,2.31,2.31,0,0,0,1.25-.4Z"/><path class="cls-11" d="M76.78,98.51h-2L73,95.83h0v2.68h-1.7V93H73V95.6h0L74.7,93h2l-2,2.62Z"/><path class="cls-11" d="M79.72,98.65a3,3,0,0,1-2.16-.77,3.18,3.18,0,0,1,0-4.23,3.1,3.1,0,0,1,2.21-.77,2.91,2.91,0,0,1,2.14.77,2.73,2.73,0,0,1,.78,2,2.88,2.88,0,0,1-.8,2.16A3,3,0,0,1,79.72,98.65Zm0-4.47a1.14,1.14,0,0,0-.93.41,1.85,1.85,0,0,0-.33,1.17c0,1.06.42,1.59,1.27,1.59S81,96.8,81,95.72,80.58,94.18,79.76,94.18Z"/><path class="cls-11" d="M88.6,96.25H85c.06.79.56,1.19,1.51,1.19a2.93,2.93,0,0,0,1.6-.43v1.23a4.22,4.22,0,0,1-2,.41,2.57,2.57,0,0,1-2.81-2.8,3,3,0,0,1,.8-2.17,2.66,2.66,0,0,1,2-.8,2.43,2.43,0,0,1,1.86.71,2.77,2.77,0,0,1,.66,1.94ZM87,95.2c0-.78-.32-1.18-1-1.18a1,1,0,0,0-.71.34,1.6,1.6,0,0,0-.36.84Z"/><path class="cls-11" d="M12.24,112.91H10.53v-4.3H8.63v4.3H6.94v-5.5h5.3Z"/><path class="cls-11" d="M15.22,112.27h0v3.17H13.5v-8h1.7v.83h0a2,2,0,0,1,1.77-1,2,2,0,0,1,1.65.73,3.13,3.13,0,0,1,.58,2,3.38,3.38,0,0,1-.68,2.2,2.2,2.2,0,0,1-1.81.84A1.71,1.71,0,0,1,15.22,112.27ZM15.17,110v.44a1.4,1.4,0,0,0,.3.93,1,1,0,0,0,.79.36,1,1,0,0,0,.9-.45,2.18,2.18,0,0,0,.32-1.27c0-1-.38-1.45-1.13-1.45a1.07,1.07,0,0,0-.85.39A1.59,1.59,0,0,0,15.17,110Z"/><path class="cls-11" d="M25.62,112.91H24.08v-3.6a6.54,6.54,0,0,1-.45.79l-1.87,2.81h-1.6v-5.5h1.55v3.49a6.1,6.1,0,0,1,.37-.67L24,107.41h1.67Z"/><path class="cls-11" d="M32.1,112.91H30.39v-4.3h-.93a9,9,0,0,1-.89,3.43,1.83,1.83,0,0,1-1.64.94,1.9,1.9,0,0,1-.66-.11v-1.15a1,1,0,0,0,.39.08c.34,0,.62-.31.84-.94a17.94,17.94,0,0,0,.6-3.45h4Z"/><path class="cls-11" d="M36,113.05a3,3,0,0,1-2.16-.77,3.18,3.18,0,0,1,0-4.23,3.11,3.11,0,0,1,2.21-.77,3,3,0,0,1,2.15.77,2.73,2.73,0,0,1,.78,2,2.89,2.89,0,0,1-.81,2.16A3,3,0,0,1,36,113.05Zm.05-4.47a1.16,1.16,0,0,0-.94.41,1.85,1.85,0,0,0-.33,1.17c0,1.06.42,1.59,1.28,1.59s1.22-.54,1.22-1.63S36.85,108.58,36,108.58Z"/><path class="cls-11" d="M48.33,112.91h-2l-1.77-2.75h0v2.75H42.86v-2.75h0l-1.76,2.75h-2L41.16,110l-2-2.62h2L42.84,110h0v-2.61h1.67V110h0l1.72-2.61h2l-2,2.62Z"/><path class="cls-11" d="M53.67,110.65H50.08c.06.8.56,1.19,1.51,1.19a3,3,0,0,0,1.59-.42v1.22a4.16,4.16,0,0,1-2,.41,2.82,2.82,0,0,1-2.07-.74,2.79,2.79,0,0,1-.73-2.06,2.94,2.94,0,0,1,.79-2.17,2.68,2.68,0,0,1,2-.8A2.43,2.43,0,0,1,53,108a2.77,2.77,0,0,1,.66,1.94Zm-1.58-1.05c0-.78-.32-1.18-1-1.18a1,1,0,0,0-.71.34,1.53,1.53,0,0,0-.36.84Z"/><path class="cls-11" d="M59.81,112.91h-1.7v-2.3h-1.9v2.3h-1.7v-5.5h1.7v2h1.9v-2h1.7Z"/><path class="cls-11" d="M66.55,112.91H65v-3.6a6.54,6.54,0,0,1-.45.79l-1.87,2.81h-1.6v-5.5h1.55v3.49a4.84,4.84,0,0,1,.38-.67l1.87-2.82h1.67Z"/><path class="cls-11" d="M72.76,110.65H69.17c.06.8.56,1.19,1.51,1.19a3,3,0,0,0,1.59-.42v1.22a4.22,4.22,0,0,1-2,.41,2.55,2.55,0,0,1-2.8-2.8,2.94,2.94,0,0,1,.79-2.17,2.66,2.66,0,0,1,2-.8,2.43,2.43,0,0,1,1.86.71,2.77,2.77,0,0,1,.66,1.94Zm-1.58-1.05c0-.78-.32-1.18-1-1.18a.93.93,0,0,0-.71.34,1.53,1.53,0,0,0-.36.84Z"/><path class="cls-11" d="M77.23,113.05a1,1,0,0,1-.7-.26.81.81,0,0,1-.28-.63.82.82,0,0,1,.29-.64,1.15,1.15,0,0,1,1.43,0,.84.84,0,0,1,.27.64.81.81,0,0,1-.28.64A1.09,1.09,0,0,1,77.23,113.05Z"/><path class="cls-11" d="M86.38,112.91H84.63l-3.17-4.84a5.22,5.22,0,0,1-.39-.64h0c0,.28,0,.69,0,1.25v4.23H79.45v-7.7h1.87l3.06,4.69a7,7,0,0,1,.38.63h0a7.6,7.6,0,0,1-.05-1.06v-4.26h1.64Z"/><path class="cls-11" d="M92.6,112.91H88v-7.7h4.44v1.41H89.71v1.72h2.52v1.4H89.71v1.77H92.6Z"/><path class="cls-11" d="M99.17,106.62H97v6.29H95.24v-6.29H93.05v-1.41h6.12Z"/><path class="cls-11" d="M47.49,127a5.11,5.11,0,0,1-2.2.41,3.68,3.68,0,0,1-2.79-1,3.78,3.78,0,0,1-1-2.77,4.09,4.09,0,0,1,1.14-3,4,4,0,0,1,3-1.15,5.54,5.54,0,0,1,1.9.29v1.67a3.38,3.38,0,0,0-1.76-.47,2.34,2.34,0,0,0-1.76.69,2.88,2.88,0,0,0,0,3.63,2.22,2.22,0,0,0,1.69.66,3.6,3.6,0,0,0,1.86-.5Z"/><path class="cls-11" d="M51.12,127.45a3,3,0,0,1-2.16-.77,2.8,2.8,0,0,1-.79-2.1,2.76,2.76,0,0,1,.82-2.13,3.09,3.09,0,0,1,2.2-.77,2.93,2.93,0,0,1,2.15.77,2.73,2.73,0,0,1,.78,2,2.92,2.92,0,0,1-.8,2.16A3,3,0,0,1,51.12,127.45Zm0-4.47a1.14,1.14,0,0,0-.93.41,1.85,1.85,0,0,0-.33,1.17c0,1.06.42,1.59,1.27,1.59s1.22-.55,1.22-1.63S52,123,51.16,123Z"/><path class="cls-11" d="M58.65,123.34a1.53,1.53,0,0,0-.72-.16,1,1,0,0,0-.86.4,1.76,1.76,0,0,0-.31,1.11v2.62h-1.7v-5.5h1.7v1h0a1.47,1.47,0,0,1,1.45-1.11,1.17,1.17,0,0,1,.42.06Z"/><path class="cls-11" d="M64.17,125.05H60.58c.06.79.56,1.19,1.51,1.19a2.93,2.93,0,0,0,1.6-.43V127a4.23,4.23,0,0,1-2,.41,2.57,2.57,0,0,1-2.8-2.8,3,3,0,0,1,.79-2.17,2.68,2.68,0,0,1,2-.8,2.43,2.43,0,0,1,1.86.71,2.77,2.77,0,0,1,.66,1.94Zm-1.57-1c0-.78-.32-1.18-1-1.18a1,1,0,0,0-.71.34,1.53,1.53,0,0,0-.36.84Z"/><path class="cls-11" d="M7.22,143.46H5.83a6.71,6.71,0,0,1-1.73-4.7A7.15,7.15,0,0,1,5.83,134H7.21a7.7,7.7,0,0,0-1.63,4.75A7.41,7.41,0,0,0,7.22,143.46Z"/><path class="cls-11" d="M13.16,141.71h-1.7v-2.3H9.55v2.3H7.86v-5.5H9.55v2h1.91v-2h1.7Z"/><path class="cls-11" d="M19.36,139.45H15.77c.06.8.57,1.19,1.51,1.19a2.93,2.93,0,0,0,1.6-.43v1.23a4.22,4.22,0,0,1-2,.41,2.57,2.57,0,0,1-2.81-2.8,3,3,0,0,1,.8-2.17,2.66,2.66,0,0,1,1.95-.8,2.43,2.43,0,0,1,1.87.71,2.81,2.81,0,0,1,.65,1.94Zm-1.57-1c0-.78-.32-1.18-1-1.18a.93.93,0,0,0-.7.34,1.61,1.61,0,0,0-.37.84Z"/><path class="cls-11" d="M25.68,141.71H24.13v-3.6a6.54,6.54,0,0,1-.45.79l-1.87,2.81h-1.6v-5.5h1.55v3.49a4.84,4.84,0,0,1,.38-.67L24,136.21h1.68Z"/><path class="cls-11" d="M32.25,141.71H30.54v-2.3h-1.9v2.3h-1.7v-5.5h1.7v2h1.9v-2h1.71Z"/><path class="cls-11" d="M37.62,137.5H36.15v4.21H34.44V137.5H33v-1.29h4.66Z"/><path class="cls-11" d="M43.13,139.45H39.54c.06.8.56,1.19,1.51,1.19a2.93,2.93,0,0,0,1.6-.43v1.23a4.22,4.22,0,0,1-2,.41,2.57,2.57,0,0,1-2.81-2.8,3,3,0,0,1,.8-2.17,2.66,2.66,0,0,1,2-.8,2.43,2.43,0,0,1,1.86.71,2.77,2.77,0,0,1,.66,1.94Zm-1.57-1c0-.78-.32-1.18-1-1.18a1,1,0,0,0-.71.34,1.6,1.6,0,0,0-.36.84Z"/><path class="cls-11" d="M45.69,141.07h0v3.17H44v-8h1.69V137h0a2.16,2.16,0,0,1,3.42-.23,3.13,3.13,0,0,1,.59,2A3.38,3.38,0,0,1,49,141a2.22,2.22,0,0,1-1.81.84A1.72,1.72,0,0,1,45.69,141.07Zm0-2.25v.44a1.4,1.4,0,0,0,.3.93,1,1,0,0,0,.79.36,1.06,1.06,0,0,0,.9-.45,2.18,2.18,0,0,0,.32-1.27c0-1-.38-1.45-1.13-1.45a1.06,1.06,0,0,0-.85.39A1.59,1.59,0,0,0,45.65,138.82Z"/><path class="cls-11" d="M55.1,141.71H53.49v-.79h0a1.79,1.79,0,0,1-1.64.93,1.66,1.66,0,0,1-1.25-.46,1.6,1.6,0,0,1-.46-1.21c0-1.06.63-1.68,1.89-1.85l1.5-.19c0-.61-.33-.91-1-.91a3.33,3.33,0,0,0-1.87.59v-1.28a4.22,4.22,0,0,1,1-.32,5.27,5.27,0,0,1,1.12-.14,2.07,2.07,0,0,1,2.35,2.35Zm-1.59-2.23v-.37l-1,.13c-.55.07-.83.32-.83.74a.64.64,0,0,0,.2.48.81.81,0,0,0,.55.18,1,1,0,0,0,.77-.33A1.14,1.14,0,0,0,53.51,139.48Z"/><path class="cls-11" d="M61.77,141.71h-2L58,139h0v2.68h-1.7v-5.5H58v2.59h0l1.69-2.59h2l-2,2.62Z"/><path class="cls-11" d="M66.38,137.5H64.91v4.21H63.2V137.5H61.72v-1.29h4.66Z"/><path class="cls-11" d="M72.57,141.71H71v-3.6a5.43,5.43,0,0,1-.45.79l-1.87,2.81H67.1v-5.5h1.55v3.49A6.15,6.15,0,0,1,69,139l1.87-2.82h1.67Z"/><path class="cls-11" d="M73.84,141.71v-5.5h3.07c1.31,0,2,.45,2,1.35a1.12,1.12,0,0,1-.31.8,1.47,1.47,0,0,1-.8.44,1.55,1.55,0,0,1,.95.42,1.11,1.11,0,0,1,.35.84,1.51,1.51,0,0,1-.53,1.2,2.18,2.18,0,0,1-1.46.45Zm1.69-4.46v1.15h.84c.51,0,.77-.2.77-.6s-.24-.55-.73-.55Zm0,2.15v1.25h1c.54,0,.81-.21.81-.65s-.28-.6-.83-.6Z"/><path class="cls-11" d="M85.35,141.71H83.64v-2.3h-1.9v2.3H80.05v-5.5h1.69v2h1.9v-2h1.71Z"/><path class="cls-11" d="M89.23,141.85a3,3,0,0,1-2.16-.77,3.18,3.18,0,0,1,0-4.23,3.1,3.1,0,0,1,2.21-.77,3,3,0,0,1,2.15.77,2.76,2.76,0,0,1,.77,2,2.88,2.88,0,0,1-.8,2.16A3,3,0,0,1,89.23,141.85Zm0-4.47a1.14,1.14,0,0,0-.93.41A1.85,1.85,0,0,0,88,139c0,1.06.42,1.59,1.28,1.59s1.21-.55,1.21-1.63S90.09,137.38,89.27,137.38Z"/><path class="cls-11" d="M98.11,139.45H94.52c.06.8.56,1.19,1.51,1.19a2.93,2.93,0,0,0,1.6-.43v1.23a4.22,4.22,0,0,1-2,.41,2.57,2.57,0,0,1-2.81-2.8,3,3,0,0,1,.8-2.17,2.66,2.66,0,0,1,2-.8,2.4,2.4,0,0,1,1.86.71,2.77,2.77,0,0,1,.66,1.94Zm-1.57-1c0-.78-.32-1.18-1-1.18a.91.91,0,0,0-.7.34,1.61,1.61,0,0,0-.37.84Z"/><path class="cls-11" d="M99.71,143.46H98.34a7.43,7.43,0,0,0,1.64-4.7A7.73,7.73,0,0,0,98.34,134h1.38a7.16,7.16,0,0,1,1.74,4.75A6.73,6.73,0,0,1,99.71,143.46Z"/><path class="cls-12" d="M207.32,84.82h-1V81H202v3.83h-1v-8.4h1v3.69h4.35V76.42h1Z"/><path class="cls-12" d="M214.42,77.31H212v7.51h-1V77.31h-2.42v-.89h5.83Z"/><path class="cls-12" d="M220.87,77.31h-2.43v7.51h-1V77.31H215v-.89h5.83Z"/><path class="cls-12" d="M223.1,81.65v3.17h-1v-8.4h2.31a3,3,0,0,1,2.09.66,2.34,2.34,0,0,1,.74,1.85,2.54,2.54,0,0,1-.82,2,3.19,3.19,0,0,1-2.23.76Zm0-4.34v3.45h1a2.28,2.28,0,0,0,1.55-.47,1.64,1.64,0,0,0,.54-1.31c0-1.11-.66-1.67-2-1.67Z"/><path class="cls-12" d="M238.26,84.25a5.6,5.6,0,0,1-2.82.71,3.81,3.81,0,0,1-2.9-1.16,4.2,4.2,0,0,1-1.12-3.07,4.39,4.39,0,0,1,1.24-3.2,4.2,4.2,0,0,1,3.12-1.25,5.28,5.28,0,0,1,2.31.45v1.09a4.44,4.44,0,0,0-2.42-.65,3,3,0,0,0-2.31,1,4.09,4.09,0,0,0-.07,5,2.94,2.94,0,0,0,2.28.91,3.53,3.53,0,0,0,1.7-.39V81.33h-1.84v-.89h2.83Z"/><path class="cls-12" d="M244.59,84.82h-4.45v-8.4h4.26v.89h-3.28v2.8h3V81h-3v2.94h3.47Z"/><path class="cls-12" d="M251.1,77.31h-2.42v7.51h-1V77.31h-2.42v-.89h5.83Z"/><path class="cls-12" d="M261.33,81.72H259v2.36h-.78V81.72h-2.36v-.79h2.36V78.57H259v2.36h2.37Z"/><path class="cls-12" d="M207.35,99h-.95V94.08c-.08.25-.22.62-.4,1.1L204.5,99h-.86l-1.54-3.84c-.09-.21-.22-.57-.4-1.1V99h-.83V93h1.23l1.58,3.92c.11.28.26.68.43,1.18l.43-1.16L206.07,93h1.28Z"/><path class="cls-12" d="M213.52,99h-1v-.93h0a2,2,0,0,1-1.85,1.07,1.93,1.93,0,0,1-1.4-.47,1.65,1.65,0,0,1-.51-1.26c0-1.12.66-1.77,2-2l1.8-.25c0-1-.41-1.53-1.24-1.53a3,3,0,0,0-1.95.74v-1a3.65,3.65,0,0,1,2-.57c1.41,0,2.12.75,2.12,2.24Zm-1-3-1.45.2a2.35,2.35,0,0,0-1,.33,1,1,0,0,0-.34.84.93.93,0,0,0,.32.72,1.22,1.22,0,0,0,.83.28,1.52,1.52,0,0,0,1.18-.51,1.77,1.77,0,0,0,.47-1.26Z"/><path class="cls-12" d="M216.24,98.16h0v3.62h-1V93h1v1.06h0a2.28,2.28,0,0,1,2.08-1.2,2.2,2.2,0,0,1,1.81.81,3.37,3.37,0,0,1,.65,2.16,3.71,3.71,0,0,1-.74,2.41,2.42,2.42,0,0,1-2,.9A2,2,0,0,1,216.24,98.16Zm0-2.42v.83a1.81,1.81,0,0,0,.48,1.27,1.73,1.73,0,0,0,2.6-.15,3.09,3.09,0,0,0,.49-1.86,2.41,2.41,0,0,0-.46-1.57,1.53,1.53,0,0,0-1.25-.57,1.73,1.73,0,0,0-1.35.58A2.16,2.16,0,0,0,216.22,95.74Z"/><path class="cls-12" d="M227.22,99h-1.35l-2.64-2.88h0V99h-1V93h1v2.75h0L225.74,93H227l-2.78,2.9Z"/><path class="cls-12" d="M233,96.26h-4.24a2.19,2.19,0,0,0,.54,1.55,1.86,1.86,0,0,0,1.42.55,3,3,0,0,0,1.86-.67v.9a3.52,3.52,0,0,1-2.09.57,2.54,2.54,0,0,1-2-.81,3.37,3.37,0,0,1-.73-2.3,3.29,3.29,0,0,1,.8-2.29,2.56,2.56,0,0,1,2-.88,2.28,2.28,0,0,1,1.82.76,3.2,3.2,0,0,1,.65,2.12Zm-1-.81a2,2,0,0,0-.4-1.3,1.39,1.39,0,0,0-1.1-.46,1.52,1.52,0,0,0-1.15.49,2.22,2.22,0,0,0-.59,1.27Z"/><path class="cls-12" d="M235.32,98.16h0v3.62h-1V93h1v1.06h0a2.28,2.28,0,0,1,2.08-1.2,2.2,2.2,0,0,1,1.81.81,3.37,3.37,0,0,1,.65,2.16,3.71,3.71,0,0,1-.74,2.41,2.42,2.42,0,0,1-2,.9A2,2,0,0,1,235.32,98.16Zm0-2.42v.83a1.81,1.81,0,0,0,.48,1.27,1.73,1.73,0,0,0,2.6-.15,3.09,3.09,0,0,0,.49-1.86,2.41,2.41,0,0,0-.46-1.57,1.53,1.53,0,0,0-1.25-.57,1.73,1.73,0,0,0-1.35.58A2.16,2.16,0,0,0,235.3,95.74Z"/><path class="cls-12" d="M249.77,101.21H249V99h-4.46v2.19h-.82v-3h.53A9.09,9.09,0,0,0,245.76,93h3.12v5.19h.89Zm-1.85-3V93.84h-1.33a9.3,9.3,0,0,1-1.37,4.37Z"/><path class="cls-12" d="M253.53,99.16a2.79,2.79,0,0,1-2.12-.84,3.1,3.1,0,0,1-.79-2.23,3.26,3.26,0,0,1,.82-2.36,3,3,0,0,1,2.23-.85,2.7,2.7,0,0,1,2.1.83,3.27,3.27,0,0,1,.75,2.29,3.23,3.23,0,0,1-.81,2.3A2.83,2.83,0,0,1,253.53,99.16Zm.07-5.47a1.83,1.83,0,0,0-1.46.63,2.59,2.59,0,0,0-.54,1.74,2.46,2.46,0,0,0,.54,1.68,1.87,1.87,0,0,0,1.46.62,1.79,1.79,0,0,0,1.44-.61,2.62,2.62,0,0,0,.5-1.71,2.71,2.71,0,0,0-.5-1.74A1.76,1.76,0,0,0,253.6,93.69Z"/><path class="cls-12" d="M262.07,98.75a3.07,3.07,0,0,1-1.64.41,2.71,2.71,0,0,1-2.07-.83,3.06,3.06,0,0,1-.79-2.17,3.36,3.36,0,0,1,.85-2.38,3,3,0,0,1,2.27-.9,3.13,3.13,0,0,1,1.4.3v1a2.49,2.49,0,0,0-1.43-.47,1.92,1.92,0,0,0-1.51.66,2.47,2.47,0,0,0-.59,1.73,2.39,2.39,0,0,0,.55,1.67,1.94,1.94,0,0,0,1.49.61,2.39,2.39,0,0,0,1.47-.53Z"/><path class="cls-12" d="M267.22,93.84h-1.8V99h-1V93.84h-1.8V93h4.56Z"/><path class="cls-12" d="M273.08,93l-2.76,7c-.49,1.25-1.18,1.87-2.07,1.87a2.25,2.25,0,0,1-.63-.08v-.86a1.84,1.84,0,0,0,.57.11,1.18,1.18,0,0,0,1.09-.87l.48-1.14-2.35-6h1.07l1.62,4.62c0,.06.06.21.13.46h0c0-.1.06-.24.12-.45l1.7-4.63Z"/><path class="cls-12" d="M279,99h-1V93.84H275V99h-1V93h5Z"/><path class="cls-12" d="M285.19,99h-1v-.93h0a2,2,0,0,1-1.84,1.07,1.93,1.93,0,0,1-1.4-.47,1.65,1.65,0,0,1-.51-1.26c0-1.12.66-1.77,2-2l1.8-.25c0-1-.41-1.53-1.24-1.53a3,3,0,0,0-2,.74v-1a3.68,3.68,0,0,1,2-.57c1.41,0,2.12.75,2.12,2.24Zm-1-3-1.45.2a2.3,2.3,0,0,0-1,.33,1,1,0,0,0-.34.84.93.93,0,0,0,.32.72,1.22,1.22,0,0,0,.83.28,1.52,1.52,0,0,0,1.18-.51,1.77,1.77,0,0,0,.47-1.26Z"/><path class="cls-13" d="M397.67,33.9h-1.9V27.15h-3.48V33.9H390.4V25.5h7.27Z"/><path class="cls-13" d="M405.08,33.9h-1.86V29.21h-1a9.84,9.84,0,0,1-1,3.74,2,2,0,0,1-1.79,1,2.27,2.27,0,0,1-.72-.11V32.6a1,1,0,0,0,.43.09c.37,0,.67-.34.91-1a19,19,0,0,0,.66-3.77h4.36Z"/><path class="cls-13" d="M411.63,33.9h-1.75V33h0a2,2,0,0,1-1.78,1,1.9,1.9,0,0,1-1.38-.5,1.79,1.79,0,0,1-.5-1.32q0-1.74,2.07-2l1.63-.22c0-.66-.36-1-1.07-1a3.64,3.64,0,0,0-2,.64v-1.4a4.67,4.67,0,0,1,1.06-.35,5.7,5.7,0,0,1,1.22-.15,2.27,2.27,0,0,1,2.57,2.56Zm-1.74-2.43v-.41l-1.09.14c-.6.08-.9.35-.9.82a.67.67,0,0,0,.22.52.84.84,0,0,0,.59.2,1.1,1.1,0,0,0,.85-.36A1.31,1.31,0,0,0,409.89,31.47Z"/><path class="cls-13" d="M417.58,29.31H416V33.9h-1.87V29.31H412.5V27.9h5.08Z"/><path class="cls-13" d="M423.17,34v2.72h-1.73V34h-.29a3.13,3.13,0,0,1-2.31-.83,3,3,0,0,1-.84-2.21,3,3,0,0,1,.84-2.26,3.13,3.13,0,0,1,2.32-.84h.28V25.31h1.73v2.52h.26a3.16,3.16,0,0,1,2.34.84,3,3,0,0,1,.84,2.26,3,3,0,0,1-.84,2.21,3.14,3.14,0,0,1-2.32.83Zm-1.73-1.3V29.14h-.1a1.33,1.33,0,0,0-1.07.47,2,2,0,0,0-.39,1.32,1.9,1.9,0,0,0,.4,1.27,1.34,1.34,0,0,0,1.09.47Zm1.73-3.53v3.53h.07a1.38,1.38,0,0,0,1.1-.47,2,2,0,0,0,.39-1.27,2,2,0,0,0-.39-1.32,1.33,1.33,0,0,0-1.07-.47Z"/><path class="cls-13" d="M430.65,34.05a3.23,3.23,0,0,1-2.36-.84,3.05,3.05,0,0,1-.86-2.28,3.05,3.05,0,0,1,.89-2.33,3.38,3.38,0,0,1,2.41-.84,3.2,3.2,0,0,1,2.35.84,3,3,0,0,1,.84,2.22,3.18,3.18,0,0,1-.87,2.36A3.26,3.26,0,0,1,430.65,34.05Zm.05-4.88a1.24,1.24,0,0,0-1,.46,1.92,1.92,0,0,0-.37,1.27c0,1.16.47,1.73,1.4,1.73S432,32,432,30.86,431.59,29.17,430.7,29.17Z"/><path class="cls-13" d="M437,33.21h0v3.45h-1.85V27.9H437v.91h0a2.18,2.18,0,0,1,1.93-1,2.14,2.14,0,0,1,1.8.8,3.42,3.42,0,0,1,.64,2.17,3.71,3.71,0,0,1-.74,2.41,2.43,2.43,0,0,1-2,.91A1.87,1.87,0,0,1,437,33.21ZM437,30.75v.48a1.52,1.52,0,0,0,.33,1,1.06,1.06,0,0,0,.86.39,1.12,1.12,0,0,0,1-.49,2.36,2.36,0,0,0,.35-1.38q0-1.59-1.23-1.59a1.16,1.16,0,0,0-.93.44A1.69,1.69,0,0,0,437,30.75Z"/><path class="cls-13" d="M450.33,33.9H448.6V29.23a9.51,9.51,0,0,1-.31,1.11l-1.16,3.56H445.5l-1.17-3.56a9.53,9.53,0,0,1-.31-1.09V33.9h-1.45v-6H445l1.14,3.43a5.09,5.09,0,0,1,.29,1.06,9.66,9.66,0,0,1,.3-1.05l1.13-3.44h2.47Z"/><path class="cls-13" d="M456.88,33.9h-1.75V33h0a2,2,0,0,1-1.79,1,1.86,1.86,0,0,1-1.37-.5,1.76,1.76,0,0,1-.51-1.32q0-1.74,2.07-2l1.63-.22c0-.66-.35-1-1.06-1a3.59,3.59,0,0,0-2,.64v-1.4a4.57,4.57,0,0,1,1-.35,5.71,5.71,0,0,1,1.23-.15,2.26,2.26,0,0,1,2.56,2.56Zm-1.74-2.43v-.41l-1.09.14c-.6.08-.9.35-.9.82a.67.67,0,0,0,.22.52.86.86,0,0,0,.59.2,1.1,1.1,0,0,0,.85-.36A1.31,1.31,0,0,0,455.14,31.47Z"/><path class="cls-13" d="M385.56,42.3l-2.44,6.48c-.58,1.56-1.47,2.34-2.65,2.34a3.35,3.35,0,0,1-1.1-.15V49.49a1.48,1.48,0,0,0,.8.22,1,1,0,0,0,1-.67l.32-.75-2.44-6h2L382.21,46a5,5,0,0,1,.17.81h0a6.79,6.79,0,0,1,.19-.79l1.13-3.67Z"/><path class="cls-13" d="M392.15,50.49h-1.51V48.3h-4v2.19h-1.49V47h.54A9.12,9.12,0,0,0,387,42.3h4.21V47h.95ZM389.35,47V43.6h-.92a8.06,8.06,0,0,1-1,3.4Z"/><path class="cls-13" d="M396.08,48.45a3.24,3.24,0,0,1-2.36-.84,3,3,0,0,1-.85-2.28,3,3,0,0,1,.89-2.33,3.34,3.34,0,0,1,2.4-.84,3.2,3.2,0,0,1,2.35.84,3,3,0,0,1,.85,2.22,3.15,3.15,0,0,1-.88,2.36A3.24,3.24,0,0,1,396.08,48.45Zm.05-4.87a1.23,1.23,0,0,0-1,.45,2,2,0,0,0-.36,1.27c0,1.16.46,1.73,1.39,1.73s1.33-.59,1.33-1.77S397,43.58,396.13,43.58Z"/><path class="cls-13" d="M405.11,48.09a3.73,3.73,0,0,1-1.82.36,3,3,0,0,1-2.23-.84,2.9,2.9,0,0,1-.86-2.16,3.19,3.19,0,0,1,.92-2.41,3.38,3.38,0,0,1,2.45-.88,3.14,3.14,0,0,1,1.54.28V44a2.12,2.12,0,0,0-1.3-.43,1.7,1.7,0,0,0-1.26.46,1.75,1.75,0,0,0-.47,1.29,1.69,1.69,0,0,0,.45,1.25,1.62,1.62,0,0,0,1.22.45,2.47,2.47,0,0,0,1.36-.43Z"/><path class="cls-13" d="M410.81,43.71H409.2V48.3h-1.86V43.71h-1.62V42.3h5.09Z"/><path class="cls-13" d="M414.46,48.45a3.24,3.24,0,0,1-2.36-.84,3,3,0,0,1-.85-2.28,3,3,0,0,1,.89-2.33,3.34,3.34,0,0,1,2.4-.84,3.2,3.2,0,0,1,2.35.84,3,3,0,0,1,.85,2.22,3.15,3.15,0,0,1-.88,2.36A3.24,3.24,0,0,1,414.46,48.45Zm.05-4.87a1.23,1.23,0,0,0-1,.45,2,2,0,0,0-.36,1.27c0,1.16.46,1.73,1.39,1.73s1.33-.59,1.33-1.77S415.4,43.58,414.51,43.58Z"/><path class="cls-13" d="M418.94,48.3v-6h3.35c1.43,0,2.15.49,2.15,1.47a1.26,1.26,0,0,1-.34.88,1.61,1.61,0,0,1-.88.47,1.76,1.76,0,0,1,1,.46,1.26,1.26,0,0,1,.38.92,1.62,1.62,0,0,1-.58,1.31,2.38,2.38,0,0,1-1.59.49Zm1.85-4.87v1.26h.91q.84,0,.84-.66c0-.4-.26-.6-.79-.6Zm0,2.35v1.37h1.07c.59,0,.88-.24.88-.72s-.3-.65-.91-.65Z"/><path class="cls-13" d="M431.29,45.83h-3.92c.06.87.61,1.31,1.65,1.31a3.24,3.24,0,0,0,1.74-.47V48a4.56,4.56,0,0,1-2.16.45,3,3,0,0,1-2.26-.81,3,3,0,0,1-.8-2.24A3.24,3.24,0,0,1,426.4,43a2.9,2.9,0,0,1,2.14-.87,2.63,2.63,0,0,1,2,.78,3,3,0,0,1,.72,2.11Zm-1.72-1.14c0-.86-.35-1.28-1-1.28a1,1,0,0,0-.78.36,1.78,1.78,0,0,0-.39.92Z"/><path class="cls-13" d="M434.26,47.61h0v3.45h-1.85V42.3h1.85v.91h0a2.18,2.18,0,0,1,1.93-1.05,2.14,2.14,0,0,1,1.8.8,3.36,3.36,0,0,1,.64,2.17,3.71,3.71,0,0,1-.74,2.41,2.43,2.43,0,0,1-2,.91A1.87,1.87,0,0,1,434.26,47.61Zm-.05-2.46v.48a1.52,1.52,0,0,0,.33,1,1.06,1.06,0,0,0,.86.39,1.12,1.12,0,0,0,1-.49,2.36,2.36,0,0,0,.35-1.38c0-1.06-.41-1.58-1.23-1.58a1.15,1.15,0,0,0-.93.43A1.69,1.69,0,0,0,434.21,45.15Z"/><path class="cls-13" d="M445.22,45.83H441.3c.07.87.62,1.31,1.65,1.31a3.24,3.24,0,0,0,1.74-.47V48a4.5,4.5,0,0,1-2.16.45,2.79,2.79,0,0,1-3.06-3.05,3.2,3.2,0,0,1,.87-2.37,2.9,2.9,0,0,1,2.13-.87,2.62,2.62,0,0,1,2,.78,3,3,0,0,1,.72,2.11Zm-1.72-1.14c0-.86-.35-1.28-1-1.28a1,1,0,0,0-.77.36,1.72,1.72,0,0,0-.4.92Z"/><path class="cls-13" d="M452.1,48.3h-1.85V45.8h-2.08v2.5h-1.85v-6h1.85v2.22h2.08V42.3h1.85Z"/><path class="cls-13" d="M459.63,48.3H458V44.38a7.61,7.61,0,0,1-.5.85l-2,3.07h-1.75v-6h1.7v3.81a5.24,5.24,0,0,1,.41-.74l2-3.07h1.83Z"/><path class="cls-13" d="M467.16,48.3h-1.69V44.38a6.3,6.3,0,0,1-.49.85l-2,3.07h-1.75v-6h1.69v3.81c.13-.27.27-.51.41-.74l2-3.07h1.83Zm-.44-8.86a2.13,2.13,0,0,1-.8,1.48,3,3,0,0,1-3.47,0,1.91,1.91,0,0,1-.75-1.48H463a1,1,0,0,0,.37.74,1.23,1.23,0,0,0,.8.29,1.21,1.21,0,0,0,.8-.29,1.1,1.1,0,0,0,.37-.74Z"/><path class="cls-13" d="M396.67,62.7H394.8v-5c0-.55,0-1.15.07-1.8h-.05c-.1.51-.19.88-.26,1.11l-2,5.71H391l-2-5.65a8.85,8.85,0,0,1-.27-1.17h0c0,.83.08,1.55.08,2.18V62.7h-1.71V54.3h2.77l1.72,5a6.58,6.58,0,0,1,.3,1.2h0a12.46,12.46,0,0,1,.34-1.21l1.71-5h2.71Z"/><path class="cls-13" d="M403.39,62.7h-1.76v-.86h0a2,2,0,0,1-1.79,1,1.86,1.86,0,0,1-1.37-.5A1.79,1.79,0,0,1,398,61q0-1.74,2.07-2l1.63-.22c0-.66-.36-1-1.07-1a3.59,3.59,0,0,0-2,.64v-1.4a4.67,4.67,0,0,1,1.06-.35,5.56,5.56,0,0,1,1.22-.15,2.27,2.27,0,0,1,2.57,2.56Zm-1.74-2.43v-.41l-1.09.14c-.61.08-.91.35-.91.82a.67.67,0,0,0,.22.51.84.84,0,0,0,.6.21,1.1,1.1,0,0,0,.85-.36A1.31,1.31,0,0,0,401.65,60.27Z"/><path class="cls-13" d="M410.82,62.7h-1.69V58.78a6.3,6.3,0,0,1-.49.85l-2,3.07h-1.75v-6h1.69v3.81c.13-.27.27-.51.41-.74l2-3.07h1.83Zm-.44-8.86a2.13,2.13,0,0,1-.8,1.48,2.69,2.69,0,0,1-1.73.55,2.73,2.73,0,0,1-1.75-.55,2,2,0,0,1-.75-1.48h1.35a1,1,0,0,0,.37.74,1.23,1.23,0,0,0,.8.29,1.21,1.21,0,0,0,.8-.29,1.07,1.07,0,0,0,.36-.74Z"/><path class="cls-13" d="M418.37,62.7h-2.22l-1.9-2.93h0V62.7h-1.85v-6h1.85v2.82h0l1.85-2.82h2.2l-2.21,2.86Z"/><path class="cls-13" d="M421,62h0v3.45h-1.85V56.7h1.85v.91h0a2.18,2.18,0,0,1,1.93-1,2.14,2.14,0,0,1,1.8.8,3.36,3.36,0,0,1,.64,2.17,3.71,3.71,0,0,1-.74,2.41,2.41,2.41,0,0,1-2,.91A1.88,1.88,0,0,1,421,62Zm0-2.47V60a1.52,1.52,0,0,0,.33,1,1.08,1.08,0,0,0,.86.39,1.12,1.12,0,0,0,1-.49,2.36,2.36,0,0,0,.35-1.38q0-1.59-1.23-1.59a1.16,1.16,0,0,0-.93.44A1.68,1.68,0,0,0,420.91,59.54Z"/><path class="cls-13" d="M429.39,62.85A3.23,3.23,0,0,1,427,62a3.47,3.47,0,0,1,0-4.61,3.38,3.38,0,0,1,2.41-.84,3.2,3.2,0,0,1,2.35.84,3,3,0,0,1,.85,2.22,3.18,3.18,0,0,1-.88,2.36A3.24,3.24,0,0,1,429.39,62.85Zm.05-4.88a1.24,1.24,0,0,0-1,.46,1.92,1.92,0,0,0-.37,1.27c0,1.16.47,1.73,1.4,1.73s1.33-.59,1.33-1.77S430.33,58,429.44,58Z"/><path class="cls-13" d="M438.41,62.49a3.66,3.66,0,0,1-1.81.36,3.06,3.06,0,0,1-2.24-.84,2.89,2.89,0,0,1-.85-2.16,3.16,3.16,0,0,1,.92-2.41,3.36,3.36,0,0,1,2.45-.88,3.1,3.1,0,0,1,1.53.28v1.57a2.1,2.1,0,0,0-1.29-.44,1.62,1.62,0,0,0-1.73,1.76,1.75,1.75,0,0,0,.44,1.25,1.66,1.66,0,0,0,1.23.45,2.42,2.42,0,0,0,1.35-.43Z"/><path class="cls-13" d="M442.49,62.85a3.23,3.23,0,0,1-2.36-.84,3,3,0,0,1-.86-2.28,3.05,3.05,0,0,1,.89-2.33,3.37,3.37,0,0,1,2.41-.84,3.19,3.19,0,0,1,2.34.84,3,3,0,0,1,.85,2.22,3.15,3.15,0,0,1-.88,2.36A3.23,3.23,0,0,1,442.49,62.85Zm0-4.88a1.24,1.24,0,0,0-1,.46,2,2,0,0,0-.36,1.27c0,1.16.46,1.73,1.39,1.73s1.33-.59,1.33-1.77S443.43,58,442.53,58Z"/><path class="cls-13" d="M451.75,62.77v2.72H450V62.77h-.29a3.15,3.15,0,0,1-2.31-.83,3,3,0,0,1-.84-2.21,3,3,0,0,1,.84-2.26,3.15,3.15,0,0,1,2.33-.84H450V54.11h1.73v2.52H452a3.2,3.2,0,0,1,2.34.83,3.06,3.06,0,0,1,.84,2.27,3,3,0,0,1-.84,2.21,3.12,3.12,0,0,1-2.31.83ZM450,61.47V57.94h-.09a1.34,1.34,0,0,0-1.08.47,2,2,0,0,0-.39,1.32,1.9,1.9,0,0,0,.4,1.27,1.36,1.36,0,0,0,1.09.47Zm1.73-3.53v3.53h.08a1.37,1.37,0,0,0,1.09-.47,2,2,0,0,0,.39-1.27,2,2,0,0,0-.39-1.32,1.32,1.32,0,0,0-1.07-.47Z"/><path class="cls-13" d="M460.69,58.11h-1.61V62.7h-1.86V58.11H455.6V56.7h5.09Z"/><path class="cls-14" d="M391.15,118.06h-2.06l-.6-1.87h-3l-.59,1.87h-2.05l3.06-8.4h2.24Zm-3.1-3.32-.9-2.82a4.51,4.51,0,0,1-.14-.76H387a2.62,2.62,0,0,1-.14.73l-.92,2.85Z"/><path class="cls-14" d="M394.09,115.17v2.89H392.2v-8.4h3c2.12,0,3.18.89,3.18,2.68a2.61,2.61,0,0,1-.91,2,3.63,3.63,0,0,1-2.44.78Zm0-4.06v2.62h.74c1,0,1.52-.44,1.52-1.32s-.51-1.3-1.52-1.3Z"/><path class="cls-14" d="M401.46,118.06h-1.89v-8.4h1.89Z"/><path class="cls-14" d="M416.26,118.06h-1.87v-5c0-.55,0-1.15.07-1.8h0c-.1.51-.19.88-.26,1.11l-2,5.71h-1.55l-2-5.65a8.85,8.85,0,0,1-.27-1.17h-.05c.05.82.08,1.55.08,2.18v4.64h-1.71v-8.4h2.77l1.72,5a6.58,6.58,0,0,1,.3,1.2h0a12.46,12.46,0,0,1,.34-1.21l1.71-5h2.71Z"/><path class="cls-14" d="M418.92,111.11a1.07,1.07,0,0,1-.77-.28.94.94,0,0,1,0-1.36,1.16,1.16,0,0,1,.77-.26,1.14,1.14,0,0,1,.77.26.93.93,0,0,1,0,1.37A1.1,1.1,0,0,1,418.92,111.11Zm.92,7H418v-6h1.86Z"/><path class="cls-14" d="M425.94,117.85a3.69,3.69,0,0,1-1.81.36,3.06,3.06,0,0,1-2.24-.84,2.89,2.89,0,0,1-.85-2.16,3.19,3.19,0,0,1,.91-2.41,3.39,3.39,0,0,1,2.46-.88,3.1,3.1,0,0,1,1.53.28v1.57a2.12,2.12,0,0,0-1.29-.44,1.61,1.61,0,0,0-1.73,1.76,1.75,1.75,0,0,0,.44,1.25,1.66,1.66,0,0,0,1.23.45,2.42,2.42,0,0,0,1.35-.43Z"/><path class="cls-14" d="M431.07,113.73a1.61,1.61,0,0,0-.78-.18,1.12,1.12,0,0,0-.94.44,1.93,1.93,0,0,0-.34,1.21v2.86h-1.86v-6H429v1.12h0a1.59,1.59,0,0,1,1.58-1.22,1.14,1.14,0,0,1,.46.07Z"/><path class="cls-14" d="M434.74,118.21a3.24,3.24,0,0,1-2.36-.84,3,3,0,0,1-.85-2.28,3,3,0,0,1,.89-2.33,3.34,3.34,0,0,1,2.4-.84,3.2,3.2,0,0,1,2.35.84A3,3,0,0,1,438,115a3.18,3.18,0,0,1-.88,2.36A3.24,3.24,0,0,1,434.74,118.21Zm.05-4.88a1.21,1.21,0,0,0-1,.46,2,2,0,0,0-.36,1.27c0,1.15.46,1.73,1.39,1.73s1.33-.59,1.33-1.77S435.68,113.33,434.79,113.33Z"/><path class="cls-14" d="M438.83,117.9v-1.5a3.5,3.5,0,0,0,.91.41,3,3,0,0,0,.86.14,1.83,1.83,0,0,0,.77-.14.43.43,0,0,0,.29-.41.41.41,0,0,0-.13-.29,1.08,1.08,0,0,0-.33-.2,3,3,0,0,0-.45-.16l-.46-.16a4.68,4.68,0,0,1-.63-.29,1.84,1.84,0,0,1-.46-.36,1.64,1.64,0,0,1-.28-.48,2,2,0,0,1-.09-.63A1.7,1.7,0,0,1,439,113a2,2,0,0,1,.59-.6,3,3,0,0,1,.84-.34,4.46,4.46,0,0,1,1-.1,5.52,5.52,0,0,1,.81.06,5.88,5.88,0,0,1,.81.18v1.43a3.1,3.1,0,0,0-1.54-.41,2,2,0,0,0-.35,0,1.15,1.15,0,0,0-.28.09.51.51,0,0,0-.19.16.34.34,0,0,0-.07.22.4.4,0,0,0,.1.28.75.75,0,0,0,.28.2,3.17,3.17,0,0,0,.37.16l.42.13a7.13,7.13,0,0,1,.67.28,2.55,2.55,0,0,1,.51.36,1.58,1.58,0,0,1,.33.48,1.86,1.86,0,0,1,.11.66,1.76,1.76,0,0,1-.23.91,1.81,1.81,0,0,1-.62.61,2.66,2.66,0,0,1-.88.35,5,5,0,0,1-1,.11A5.17,5.17,0,0,1,438.83,117.9Z"/><path class="cls-14" d="M447.36,118.21a3.23,3.23,0,0,1-2.36-.84,3.47,3.47,0,0,1,0-4.61,3.38,3.38,0,0,1,2.41-.84,3.16,3.16,0,0,1,2.34.84,3,3,0,0,1,.85,2.22,3.18,3.18,0,0,1-.87,2.36A3.27,3.27,0,0,1,447.36,118.21Zm0-4.88a1.24,1.24,0,0,0-1,.46,2,2,0,0,0-.36,1.27c0,1.15.47,1.73,1.4,1.73s1.33-.59,1.33-1.77S448.3,113.33,447.4,113.33Z"/><path class="cls-14" d="M455.57,110.6a1.77,1.77,0,0,0-.69-.14c-.59,0-.89.32-.89,1v.64h1.37v1.37H454v4.63h-1.85v-4.63h-1v-1.37h1v-.74a2.15,2.15,0,0,1,.67-1.65,2.55,2.55,0,0,1,1.82-.63,3.16,3.16,0,0,1,.94.12Z"/><path class="cls-14" d="M460.11,118a2.7,2.7,0,0,1-1.24.22,1.77,1.77,0,0,1-2-2v-2.75h-1v-1.37h1v-1.29l1.85-.53v1.82h1.35v1.37h-1.35v2.42c0,.63.25.94.74.94a1.31,1.31,0,0,0,.61-.17Z"/><path class="cls-14" d="M412.23,132a6.08,6.08,0,0,1-3.06.71,4.47,4.47,0,0,1-3.2-1.12,4.08,4.08,0,0,1-1.17-3.09,4.32,4.32,0,0,1,1.28-3.23,4.66,4.66,0,0,1,3.4-1.25,6.78,6.78,0,0,1,2.35.37v1.77a4.7,4.7,0,0,0-2.37-.56,2.55,2.55,0,0,0-1.92.77,2.79,2.79,0,0,0-.75,2,2.83,2.83,0,0,0,.67,2,2.35,2.35,0,0,0,1.8.71,2.44,2.44,0,0,0,1.07-.19v-1.64h-1.68v-1.51h3.58Z"/><path class="cls-14" d="M417.59,128.23a1.61,1.61,0,0,0-.78-.18,1.14,1.14,0,0,0-.94.44,1.93,1.93,0,0,0-.34,1.21v2.86h-1.85v-6h1.85v1.12h0a1.61,1.61,0,0,1,1.59-1.22,1.12,1.12,0,0,1,.45.07Z"/><path class="cls-14" d="M423.45,132.56H421.7v-.86h0a2,2,0,0,1-1.79,1,1.88,1.88,0,0,1-1.37-.5,1.79,1.79,0,0,1-.5-1.32q0-1.74,2.07-2l1.63-.22c0-.66-.36-1-1.07-1a3.7,3.7,0,0,0-2,.63v-1.39a4.67,4.67,0,0,1,1.06-.35,5.63,5.63,0,0,1,1.22-.15,2.27,2.27,0,0,1,2.57,2.56Zm-1.74-2.43v-.41l-1.09.14c-.6.08-.91.35-.91.82a.65.65,0,0,0,.23.51.8.8,0,0,0,.59.21,1.1,1.1,0,0,0,.85-.36A1.31,1.31,0,0,0,421.71,130.13Z"/><path class="cls-14" d="M426.79,131.87h0v3.45h-1.85v-8.76h1.85v.9h0a2.36,2.36,0,0,1,3.73-.24,3.4,3.4,0,0,1,.63,2.17,3.65,3.65,0,0,1-.74,2.41,2.4,2.4,0,0,1-2,.91A1.87,1.87,0,0,1,426.79,131.87Zm-.06-2.47v.48a1.53,1.53,0,0,0,.33,1,1.08,1.08,0,0,0,.86.39,1.14,1.14,0,0,0,1-.49,2.37,2.37,0,0,0,.34-1.38q0-1.59-1.23-1.59a1.16,1.16,0,0,0-.92.43A1.73,1.73,0,0,0,426.73,129.4Z"/><path class="cls-14" d="M438.11,132.56h-1.84v-3.41q0-1.32-1-1.32a1,1,0,0,0-.8.37,1.45,1.45,0,0,0-.3.94v3.42h-1.86v-8.88h1.86v3.77h0a2.1,2.1,0,0,1,1.84-1q2,0,2,2.46Z"/><path class="cls-12" d="M186.69,9.9h-1V2.41H181.3V9.9h-1V1.5h6.38Z"/><path class="cls-12" d="M191.15,10A2.76,2.76,0,0,1,189,9.2a3.11,3.11,0,0,1-.8-2.23,3.26,3.26,0,0,1,.83-2.36,3,3,0,0,1,2.23-.85,2.69,2.69,0,0,1,2.09.83,3.23,3.23,0,0,1,.76,2.29,3.23,3.23,0,0,1-.81,2.3A2.83,2.83,0,0,1,191.15,10Zm.07-5.47a1.84,1.84,0,0,0-1.47.63,2.64,2.64,0,0,0-.53,1.74,2.46,2.46,0,0,0,.54,1.68,1.85,1.85,0,0,0,1.46.61,1.75,1.75,0,0,0,1.43-.6,2.58,2.58,0,0,0,.5-1.72,2.62,2.62,0,0,0-.5-1.73A1.73,1.73,0,0,0,191.22,4.57Z"/><path class="cls-12" d="M200,9.9H199V4.72h-1.4a12.45,12.45,0,0,1-.82,4.09A1.76,1.76,0,0,1,195.21,10a1.3,1.3,0,0,1-.51-.08V9.08a.92.92,0,0,0,.44.1q1.29,0,1.66-5.28H200Z"/><path class="cls-12" d="M206.58,3.9l-2.76,7c-.49,1.25-1.19,1.87-2.08,1.87a2.17,2.17,0,0,1-.62-.08v-.86a1.74,1.74,0,0,0,.57.11,1.19,1.19,0,0,0,1.09-.87l.48-1.14-2.35-6H202l1.62,4.62c0,.06.06.21.12.46h0q0-.15.12-.45l1.7-4.63Z"/><path class="cls-12" d="M212.35,9.9h-1V7.49a4.12,4.12,0,0,1-1.94.57c-1.35,0-2-.71-2-2.13v-2h1v2q0,1.32,1.14,1.32a4.19,4.19,0,0,0,1.86-.5V3.9h1Z"/><path class="cls-12" d="M219,7.14h-4.24a2.28,2.28,0,0,0,.54,1.55,1.88,1.88,0,0,0,1.42.54,2.94,2.94,0,0,0,1.86-.66v.9a3.47,3.47,0,0,1-2.09.57,2.56,2.56,0,0,1-2-.81,3.39,3.39,0,0,1-.72-2.3,3.29,3.29,0,0,1,.79-2.29,2.58,2.58,0,0,1,2-.88,2.27,2.27,0,0,1,1.82.76A3.2,3.2,0,0,1,219,6.64Zm-1-.81a1.91,1.91,0,0,0-.4-1.3,1.39,1.39,0,0,0-1.1-.46,1.54,1.54,0,0,0-1.15.49,2.22,2.22,0,0,0-.59,1.27Z"/><path class="cls-12" d="M225.36,9.9h-1V7.18h-3.06V9.9h-1v-6h1V6.36h3.06V3.9h1Z"/><path class="cls-12" d="M232.23,9.9h-.86V5.12c-.09.16-.22.4-.4.7L228.2,9.9h-1v-6h.87V8.63a6.36,6.36,0,0,1,.31-.58l2.85-4.15h1Z"/><path class="cls-12" d="M238.91,7.14h-4.24a2.19,2.19,0,0,0,.54,1.55,1.85,1.85,0,0,0,1.42.54,3,3,0,0,0,1.86-.66v.9a3.52,3.52,0,0,1-2.09.57,2.54,2.54,0,0,1-2-.81,3.39,3.39,0,0,1-.73-2.3,3.29,3.29,0,0,1,.8-2.29,2.56,2.56,0,0,1,2-.88,2.28,2.28,0,0,1,1.82.76,3.2,3.2,0,0,1,.65,2.12Zm-1-.81a2,2,0,0,0-.4-1.3,1.39,1.39,0,0,0-1.1-.46,1.52,1.52,0,0,0-1.15.49,2.16,2.16,0,0,0-.59,1.27Z"/><path class="cls-12" d="M249.93,9.9h-1V5c-.08.25-.21.61-.39,1.1l-1.5,3.84h-.87l-1.54-3.84c-.08-.21-.22-.58-.4-1.1V9.9h-.83v-6h1.23l1.58,3.92c.11.28.26.68.43,1.18l.43-1.16,1.54-3.94h1.27Z"/><path class="cls-12" d="M256.08,9.9h-1V9h0A2,2,0,0,1,253.25,10a2,2,0,0,1-1.41-.47,1.68,1.68,0,0,1-.5-1.26c0-1.12.66-1.77,2-2l1.8-.25c0-1-.41-1.53-1.24-1.53a3,3,0,0,0-2,.74v-1a3.76,3.76,0,0,1,2-.56c1.41,0,2.12.75,2.12,2.24Zm-1-3-1.45.2a2.3,2.3,0,0,0-1,.33,1,1,0,0,0-.34.84.93.93,0,0,0,.32.72,1.2,1.2,0,0,0,.83.27,1.51,1.51,0,0,0,1.18-.5,1.77,1.77,0,0,0,.47-1.26Z"/><path class="cls-12" d="M258.78,9h0v3.62h-1V3.9h1V5h0a2.26,2.26,0,0,1,2.07-1.2,2.19,2.19,0,0,1,1.81.81,3.33,3.33,0,0,1,.65,2.16,3.72,3.72,0,0,1-.73,2.41,2.45,2.45,0,0,1-2,.9A2,2,0,0,1,258.78,9Zm0-2.42v.83a1.77,1.77,0,0,0,.49,1.27,1.73,1.73,0,0,0,2.59-.15,3.09,3.09,0,0,0,.5-1.86,2.41,2.41,0,0,0-.47-1.57,1.51,1.51,0,0,0-1.25-.57,1.73,1.73,0,0,0-1.35.58A2.16,2.16,0,0,0,258.75,6.62Z"/><path class="cls-12" d="M269.73,9.9h-1.35L265.74,7h0V9.9h-1v-6h1V6.65h0l2.51-2.75h1.26l-2.78,2.9Z"/><path class="cls-12" d="M275.44,7.14h-4.23a2.19,2.19,0,0,0,.54,1.55,1.85,1.85,0,0,0,1.41.54A3,3,0,0,0,275,8.57v.9a3.53,3.53,0,0,1-2.1.57,2.53,2.53,0,0,1-2-.81,3.34,3.34,0,0,1-.73-2.3A3.29,3.29,0,0,1,271,4.64a2.58,2.58,0,0,1,2-.88,2.28,2.28,0,0,1,1.82.76,3.19,3.19,0,0,1,.64,2.12Zm-1-.81a2,2,0,0,0-.4-1.3,1.4,1.4,0,0,0-1.1-.46,1.54,1.54,0,0,0-1.16.49,2.21,2.21,0,0,0-.58,1.27Z"/><path class="cls-12" d="M277.78,9h0v3.62h-1V3.9h1V5h0a2.29,2.29,0,0,1,2.08-1.2,2.2,2.2,0,0,1,1.81.81,3.33,3.33,0,0,1,.65,2.16,3.78,3.78,0,0,1-.73,2.41,2.46,2.46,0,0,1-2,.9A2,2,0,0,1,277.78,9Zm0-2.42v.83a1.81,1.81,0,0,0,.48,1.27,1.75,1.75,0,0,0,2.6-.15,3.09,3.09,0,0,0,.49-1.86,2.41,2.41,0,0,0-.46-1.57,1.53,1.53,0,0,0-1.25-.57,1.73,1.73,0,0,0-1.35.58A2.16,2.16,0,0,0,277.76,6.62Z"/><path class="cls-12" d="M288.05,9.9h-1V9h0A2,2,0,0,1,285.22,10a2,2,0,0,1-1.4-.47,1.65,1.65,0,0,1-.51-1.26c0-1.12.66-1.77,2-2l1.8-.25q0-1.53-1.23-1.53a3,3,0,0,0-2,.74v-1a3.76,3.76,0,0,1,2-.56c1.41,0,2.11.75,2.11,2.24Zm-1-3-1.45.2a2.25,2.25,0,0,0-1,.33,1,1,0,0,0-.34.84.92.92,0,0,0,.31.72,1.25,1.25,0,0,0,.84.27,1.53,1.53,0,0,0,1.18-.5,1.76,1.76,0,0,0,.46-1.26Z"/><path class="cls-12" d="M207.89,38.3h-1V32.66c0-.44,0-1,.08-1.63h0a6.37,6.37,0,0,1-.25.81l-2.88,6.46h-.48l-2.86-6.41a4.68,4.68,0,0,1-.25-.86h0c0,.33.05.88.05,1.65V38.3h-1V29.9h1.3l2.58,5.86a7.38,7.38,0,0,1,.39,1h0c.17-.47.3-.81.41-1l2.63-5.83h1.23Z"/><path class="cls-12" d="M214.19,38.3h-1v-.94h0a2,2,0,0,1-1.85,1.08A2,2,0,0,1,210,38a1.65,1.65,0,0,1-.51-1.26c0-1.12.66-1.78,2-2l1.8-.25c0-1-.41-1.53-1.24-1.53a2.9,2.9,0,0,0-2,.74v-1a3.76,3.76,0,0,1,2-.56c1.41,0,2.11.75,2.11,2.24Zm-1-3-1.45.19a2.48,2.48,0,0,0-1,.34,1,1,0,0,0-.34.84.9.9,0,0,0,.32.71,1.19,1.19,0,0,0,.83.28,1.51,1.51,0,0,0,1.18-.5,1.8,1.8,0,0,0,.47-1.27Z"/><path class="cls-12" d="M216.91,37.43h0v3.63h-1V32.3h1v1.05h0A2.3,2.3,0,0,1,219,32.16a2.19,2.19,0,0,1,1.81.81,3.32,3.32,0,0,1,.65,2.15,3.73,3.73,0,0,1-.73,2.42,2.46,2.46,0,0,1-2,.9A2,2,0,0,1,216.91,37.43Zm0-2.42v.84a1.77,1.77,0,0,0,.48,1.26A1.73,1.73,0,0,0,220,37a3,3,0,0,0,.49-1.85,2.41,2.41,0,0,0-.46-1.57,1.52,1.52,0,0,0-1.25-.57,1.7,1.7,0,0,0-1.35.58A2.15,2.15,0,0,0,216.89,35Z"/><path class="cls-12" d="M227.89,38.3h-1.35l-2.64-2.88h0V38.3h-1v-6h1v2.75h0l2.52-2.75h1.26l-2.79,2.89Z"/><path class="cls-12" d="M233.63,35.54h-4.24a2.3,2.3,0,0,0,.54,1.55,1.87,1.87,0,0,0,1.42.54,2.93,2.93,0,0,0,1.86-.67v.91a3.5,3.5,0,0,1-2.09.57,2.53,2.53,0,0,1-2-.82,3.36,3.36,0,0,1-.73-2.3,3.29,3.29,0,0,1,.8-2.28,2.54,2.54,0,0,1,2-.88,2.24,2.24,0,0,1,1.82.76,3.18,3.18,0,0,1,.65,2.12Zm-1-.81a2,2,0,0,0-.4-1.3,1.36,1.36,0,0,0-1.1-.46,1.55,1.55,0,0,0-1.15.48,2.25,2.25,0,0,0-.59,1.28Z"/><path class="cls-12" d="M236,37.43h0v3.63h-1V32.3h1v1.05h0a2.29,2.29,0,0,1,2.08-1.19,2.2,2.2,0,0,1,1.81.81,3.32,3.32,0,0,1,.65,2.15,3.74,3.74,0,0,1-.74,2.42,2.42,2.42,0,0,1-2,.9A2,2,0,0,1,236,37.43ZM236,35v.84a1.77,1.77,0,0,0,.48,1.26,1.59,1.59,0,0,0,1.23.52,1.6,1.6,0,0,0,1.37-.67,3,3,0,0,0,.49-1.85,2.41,2.41,0,0,0-.46-1.57,1.53,1.53,0,0,0-1.25-.57,1.7,1.7,0,0,0-1.35.58A2.15,2.15,0,0,0,236,35Z"/><path class="cls-12" d="M250.44,40.49h-.82V38.3h-4.46v2.19h-.82v-3h.53a8.94,8.94,0,0,0,1.56-5.19h3.12v5.19h.89Zm-1.85-3V33.11h-1.33a9.33,9.33,0,0,1-1.37,4.38Z"/><path class="cls-12" d="M254.2,38.44a2.79,2.79,0,0,1-2.12-.84,3.1,3.1,0,0,1-.79-2.23,3.24,3.24,0,0,1,.82-2.36,3,3,0,0,1,2.23-.85,2.7,2.7,0,0,1,2.1.83,3.77,3.77,0,0,1-.06,4.59A2.87,2.87,0,0,1,254.2,38.44Zm.07-5.47a1.83,1.83,0,0,0-1.46.63,2.59,2.59,0,0,0-.54,1.74,2.41,2.41,0,0,0,.55,1.68,1.84,1.84,0,0,0,1.45.61,1.77,1.77,0,0,0,1.44-.6,3.23,3.23,0,0,0,0-3.45A1.75,1.75,0,0,0,254.27,33Z"/><path class="cls-12" d="M262.75,38a3.14,3.14,0,0,1-1.65.42,2.75,2.75,0,0,1-2.07-.83,3.06,3.06,0,0,1-.78-2.17,3.34,3.34,0,0,1,.84-2.38,3,3,0,0,1,2.27-.9,3.27,3.27,0,0,1,1.4.29v1a2.42,2.42,0,0,0-1.43-.47,1.92,1.92,0,0,0-1.51.66,2.5,2.5,0,0,0-.59,1.73,2.36,2.36,0,0,0,.55,1.66,1.91,1.91,0,0,0,1.49.61,2.43,2.43,0,0,0,1.48-.52Z"/><path class="cls-12" d="M267.89,33.12H266.1V38.3h-1V33.12h-1.8V32.3h4.56Z"/><path class="cls-12" d="M273.75,32.3l-2.76,7q-.74,1.86-2.07,1.86a2.28,2.28,0,0,1-.63-.07v-.86a1.8,1.8,0,0,0,.57.1,1.18,1.18,0,0,0,1.09-.86l.48-1.14-2.34-6h1.06l1.63,4.62c0,.06.06.21.12.45h0c0-.09.06-.24.12-.44l1.71-4.63Z"/><path class="cls-12" d="M279.69,38.3h-1V33.12h-3.06V38.3h-1v-6h5Z"/><path class="cls-12" d="M285.86,38.3h-1v-.94h0A2,2,0,0,1,283,38.44a2,2,0,0,1-1.4-.47,1.65,1.65,0,0,1-.51-1.26c0-1.12.66-1.78,2-2l1.8-.25c0-1-.41-1.53-1.24-1.53a2.9,2.9,0,0,0-2,.74v-1a3.76,3.76,0,0,1,2-.56c1.41,0,2.11.75,2.11,2.24Zm-1-3-1.45.19a2.48,2.48,0,0,0-1,.34,1,1,0,0,0-.34.84.9.9,0,0,0,.32.71,1.19,1.19,0,0,0,.83.28,1.51,1.51,0,0,0,1.18-.5,1.8,1.8,0,0,0,.47-1.27Z"/><path class="cls-12" d="M183.7,134.83a3.69,3.69,0,0,1-2.86-1.18,4.38,4.38,0,0,1-1.08-3.07,4.62,4.62,0,0,1,1.1-3.23,3.8,3.8,0,0,1,3-1.21,3.6,3.6,0,0,1,2.8,1.17,4.42,4.42,0,0,1,1.07,3.07,4.68,4.68,0,0,1-1.09,3.25A3.76,3.76,0,0,1,183.7,134.83Zm.07-7.8a2.7,2.7,0,0,0-2.15,1,4.24,4.24,0,0,0,0,5,2.63,2.63,0,0,0,2.1.94,2.76,2.76,0,0,0,2.18-.9,3.69,3.69,0,0,0,.8-2.53,3.83,3.83,0,0,0-.78-2.57A2.65,2.65,0,0,0,183.77,127Z"/><path class="cls-12" d="M193,129.51h-1.8v5.18h-1v-5.18h-1.8v-.82H193Z"/><path class="cls-12" d="M194.08,134.69v-6h2.61a2.26,2.26,0,0,1,1.4.39,1.28,1.28,0,0,1,.51,1.07,1.32,1.32,0,0,1-1.14,1.42c.91.12,1.37.58,1.37,1.39a1.59,1.59,0,0,1-.56,1.23,2.08,2.08,0,0,1-1.41.5Zm1-5.18v1.68h1.44c.78,0,1.16-.3,1.16-.9s-.35-.78-1-.78Zm0,2.5v1.86h1.67c.77,0,1.16-.32,1.16-1s-.43-.91-1.31-.91Z"/><path class="cls-12" d="M205.22,131.93H201a2.18,2.18,0,0,0,.54,1.54,1.82,1.82,0,0,0,1.41.55,3,3,0,0,0,1.87-.67v.9a3.52,3.52,0,0,1-2.09.58,2.55,2.55,0,0,1-2-.82,3.33,3.33,0,0,1-.73-2.3,3.27,3.27,0,0,1,.8-2.28,2.52,2.52,0,0,1,2-.89,2.26,2.26,0,0,1,1.82.77,3.15,3.15,0,0,1,.64,2.11Zm-1-.82a2,2,0,0,0-.4-1.29,1.38,1.38,0,0,0-1.1-.47,1.6,1.6,0,0,0-1.16.49,2.21,2.21,0,0,0-.58,1.27Z"/><path class="cls-12" d="M210.41,129.51h-1.8v5.18h-1v-5.18h-1.81v-.82h4.57Z"/><path class="cls-12" d="M221.22,134.69h-1v-3.84h-4.35v3.84h-1v-8.41h1V130h4.35v-3.69h1Z"/><path class="cls-12" d="M228.36,127.17h-2.43v7.52h-1v-7.52h-2.42v-.89h5.83Z"/><path class="cls-12" d="M234.84,127.17h-2.42v7.52h-1v-7.52H229v-.89h5.83Z"/><path class="cls-12" d="M237.11,131.51v3.18h-1v-8.41h2.31a3,3,0,0,1,2.08.66,2.33,2.33,0,0,1,.75,1.85,2.55,2.55,0,0,1-.83,2,3.13,3.13,0,0,1-2.22.76Zm0-4.34v3.45h1a2.33,2.33,0,0,0,1.56-.47,1.63,1.63,0,0,0,.53-1.31c0-1.11-.65-1.67-2-1.67Z"/></g></svg>